%TF.GenerationSoftware,KiCad,Pcbnew,9.0.6-9.0.6~ubuntu24.04.1*%
%TF.CreationDate,2025-11-16T17:23:56+08:00*%
%TF.ProjectId,ksoloti_gills_panel,6b736f6c-6f74-4695-9f67-696c6c735f70,v0.6*%
%TF.SameCoordinates,Original*%
%TF.FileFunction,Soldermask,Top*%
%TF.FilePolarity,Negative*%
%FSLAX46Y46*%
G04 Gerber Fmt 4.6, Leading zero omitted, Abs format (unit mm)*
G04 Created by KiCad (PCBNEW 9.0.6-9.0.6~ubuntu24.04.1) date 2025-11-16 17:23:56*
%MOMM*%
%LPD*%
G01*
G04 APERTURE LIST*
%ADD10C,3.750000*%
%ADD11C,5.000000*%
%ADD12C,13.000000*%
%ADD13C,7.200000*%
%ADD14C,18.000000*%
%ADD15C,7.500000*%
%ADD16C,8.000000*%
G04 APERTURE END LIST*
G36*
X156797800Y223742000D02*
G01*
X157797800Y223742000D01*
X157797800Y221742000D01*
X156797800Y221742000D01*
X156797800Y223742000D01*
G37*
G36*
X-57802200Y206742000D02*
G01*
X-56802200Y206742000D01*
X-56802200Y204742000D01*
X-57802200Y204742000D01*
X-57802200Y206742000D01*
G37*
G36*
X156797800Y161742000D02*
G01*
X157797800Y161742000D01*
X157797800Y159742000D01*
X156797800Y159742000D01*
X156797800Y161742000D01*
G37*
G36*
X-2302200Y138242000D02*
G01*
X-302200Y138242000D01*
X-302200Y137242000D01*
X-2302200Y137242000D01*
X-2302200Y138242000D01*
G37*
G36*
X123997800Y161942000D02*
G01*
X124997800Y161942000D01*
X124997800Y159942000D01*
X123997800Y159942000D01*
X123997800Y161942000D01*
G37*
G36*
X117497800Y113442000D02*
G01*
X119497800Y113442000D01*
X119497800Y112442000D01*
X117497800Y112442000D01*
X117497800Y113442000D01*
G37*
G36*
X-19702200Y229242000D02*
G01*
X-17702200Y229242000D01*
X-17702200Y228242000D01*
X-19702200Y228242000D01*
X-19702200Y229242000D01*
G37*
G36*
X117697800Y138242000D02*
G01*
X119697800Y138242000D01*
X119697800Y137242000D01*
X117697800Y137242000D01*
X117697800Y138242000D01*
G37*
G36*
X100497800Y253842000D02*
G01*
X102497800Y253842000D01*
X102497800Y252842000D01*
X100497800Y252842000D01*
X100497800Y253842000D01*
G37*
G36*
X-57802200Y144742000D02*
G01*
X-56802200Y144742000D01*
X-56802200Y142742000D01*
X-57802200Y142742000D01*
X-57802200Y144742000D01*
G37*
G36*
X-25002200Y144542000D02*
G01*
X-24002200Y144542000D01*
X-24002200Y142542000D01*
X-25002200Y142542000D01*
X-25002200Y144542000D01*
G37*
G36*
X123997800Y223942000D02*
G01*
X124997800Y223942000D01*
X124997800Y221942000D01*
X123997800Y221942000D01*
X123997800Y223942000D01*
G37*
G36*
X100297800Y229242000D02*
G01*
X102297800Y229242000D01*
X102297800Y228242000D01*
X100297800Y228242000D01*
X100297800Y229242000D01*
G37*
G36*
X40497800Y253842000D02*
G01*
X42497800Y253842000D01*
X42497800Y252842000D01*
X40497800Y252842000D01*
X40497800Y253842000D01*
G37*
G36*
X-2502200Y113442000D02*
G01*
X-502200Y113442000D01*
X-502200Y112442000D01*
X-2502200Y112442000D01*
X-2502200Y113442000D01*
G37*
G36*
X57697800Y138242000D02*
G01*
X59697800Y138242000D01*
X59697800Y137242000D01*
X57697800Y137242000D01*
X57697800Y138242000D01*
G37*
G36*
X40297800Y229242000D02*
G01*
X42297800Y229242000D01*
X42297800Y228242000D01*
X40297800Y228242000D01*
X40297800Y229242000D01*
G37*
D10*
X15872800Y99942000D02*
G75*
G02*
X12122800Y99942000I-1875000J0D01*
G01*
X12122800Y99942000D02*
G75*
G02*
X15872800Y99942000I1875000J0D01*
G01*
G36*
X-25002200Y206542000D02*
G01*
X-24002200Y206542000D01*
X-24002200Y204542000D01*
X-25002200Y204542000D01*
X-25002200Y206542000D01*
G37*
G36*
X57497800Y113442000D02*
G01*
X59497800Y113442000D01*
X59497800Y112442000D01*
X57497800Y112442000D01*
X57497800Y113442000D01*
G37*
G36*
X-19502200Y253842000D02*
G01*
X-17502200Y253842000D01*
X-17502200Y252842000D01*
X-19502200Y252842000D01*
X-19502200Y253842000D01*
G37*
D11*
%TO.C,*%
X-21002200Y202742000D03*
%TD*%
%TO.C,*%
X120997800Y202742000D03*
%TD*%
%TO.C,*%
X-21002200Y140742000D03*
%TD*%
%TO.C,*%
X120997800Y140742000D03*
%TD*%
D12*
%TO.C,REF\u002A\u002A*%
X-3088011Y266342000D03*
%TD*%
%TO.C,REF\u002A\u002A*%
X112911989Y266342000D03*
%TD*%
%TO.C,REF\u002A\u002A*%
X-10002200Y99942000D03*
%TD*%
D13*
%TO.C,REF\u002A\u002A*%
X53911989Y276992000D03*
%TD*%
D14*
%TO.C,REF\u002A\u002A*%
X166697800Y185042000D03*
%TD*%
D13*
%TO.C,REF\u002A\u002A*%
X73911989Y276992000D03*
%TD*%
D14*
%TO.C,REF\u002A\u002A*%
X166697800Y165042000D03*
%TD*%
D12*
%TO.C,REF\u002A\u002A*%
X94911989Y266342000D03*
%TD*%
D13*
%TO.C,REF\u002A\u002A*%
X63911989Y276992000D03*
%TD*%
D12*
%TO.C,REF\u002A\u002A*%
X14911989Y266342000D03*
%TD*%
D15*
%TO.C,REF\u002A\u002A*%
X362500000Y-37500000D03*
%TD*%
D16*
%TO.C,REF\u002A\u002A*%
X300000000Y0D03*
%TD*%
%TO.C,REF\u002A\u002A*%
X325000000Y-50000000D03*
%TD*%
D11*
%TO.C,MH8*%
X380997800Y25742000D03*
%TD*%
D16*
%TO.C,REF\u002A\u002A*%
X365000000Y-900000D03*
%TD*%
%TO.C,REF\u002A\u002A*%
X400000000Y-50000000D03*
%TD*%
%TO.C,REF\u002A\u002A*%
X375000000Y-25000000D03*
%TD*%
%TO.C,REF\u002A\u002A*%
X350000000Y-25000000D03*
%TD*%
%TO.C,REF\u002A\u002A*%
X300000000Y-50000000D03*
%TD*%
%TO.C,REF\u002A\u002A*%
X325000000Y-25000000D03*
%TD*%
D15*
%TO.C,REF\u002A\u002A*%
X350000000Y-9000000D03*
%TD*%
D16*
%TO.C,REF\u002A\u002A*%
X400000000Y-25000000D03*
%TD*%
D11*
%TO.C,MH6*%
X278997800Y-59258000D03*
%TD*%
D15*
%TO.C,REF\u002A\u002A*%
X325000000Y-9000000D03*
%TD*%
D16*
%TO.C,REF\u002A\u002A*%
X350000000Y-50000000D03*
%TD*%
D11*
%TO.C,MH7*%
X420997800Y-59258000D03*
%TD*%
%TO.C,MH8*%
X420997800Y2742000D03*
%TD*%
D16*
%TO.C,REF\u002A\u002A*%
X375000000Y-50000000D03*
%TD*%
D15*
%TO.C,REF\u002A\u002A*%
X337500000Y-37500000D03*
%TD*%
D16*
%TO.C,REF\u002A\u002A*%
X400000000Y0D03*
%TD*%
%TO.C,REF\u002A\u002A*%
X300000000Y-25000000D03*
%TD*%
D11*
%TO.C,MH5*%
X278997800Y2742000D03*
%TD*%
G36*
X352373275Y22549521D02*
G01*
X352587771Y22530755D01*
X352609400Y22526941D01*
X352812039Y22472645D01*
X352832678Y22465133D01*
X353022810Y22376473D01*
X353041831Y22365491D01*
X353213681Y22245160D01*
X353230505Y22231042D01*
X353378841Y22082706D01*
X353392959Y22065882D01*
X353513290Y21894032D01*
X353524272Y21875011D01*
X353612932Y21684879D01*
X353620444Y21664240D01*
X353674740Y21461601D01*
X353678553Y21439972D01*
X353697320Y21225475D01*
X353697800Y21214493D01*
X353697800Y5485508D01*
X353697320Y5474526D01*
X353678553Y5260029D01*
X353674740Y5238400D01*
X353620444Y5035761D01*
X353612932Y5015122D01*
X353524272Y4824990D01*
X353513290Y4805969D01*
X353392959Y4634119D01*
X353378841Y4617295D01*
X353230505Y4468959D01*
X353213681Y4454841D01*
X353041831Y4334510D01*
X353022810Y4323528D01*
X352832678Y4234868D01*
X352812039Y4227356D01*
X352609400Y4173060D01*
X352587771Y4169247D01*
X352373275Y4150480D01*
X352362293Y4150000D01*
X322633307Y4150000D01*
X322622325Y4150480D01*
X322407828Y4169247D01*
X322386199Y4173060D01*
X322183560Y4227356D01*
X322162921Y4234868D01*
X321972789Y4323528D01*
X321953768Y4334510D01*
X321781918Y4454841D01*
X321765094Y4468959D01*
X321616758Y4617295D01*
X321602640Y4634119D01*
X321482309Y4805969D01*
X321471327Y4824990D01*
X321382667Y5015122D01*
X321375155Y5035761D01*
X321320859Y5238400D01*
X321317045Y5260029D01*
X321298279Y5474526D01*
X321297800Y5485508D01*
X321297800Y20952020D01*
X321897800Y20952020D01*
X321897800Y5751996D01*
X321900209Y5653747D01*
X321900210Y5653738D01*
X321938547Y5461011D01*
X321938548Y5461010D01*
X322013747Y5279464D01*
X322122922Y5116068D01*
X322261872Y4977116D01*
X322425265Y4867936D01*
X322511906Y4832045D01*
X322520034Y4828335D01*
X322520879Y4827913D01*
X322525428Y4826444D01*
X322606809Y4792732D01*
X322606814Y4792731D01*
X322799537Y4754389D01*
X322799544Y4754388D01*
X322846794Y4753240D01*
X322846844Y4753238D01*
X322883142Y4752356D01*
X322883220Y4752355D01*
X322897810Y4752000D01*
X352097799Y4752000D01*
X352111514Y4752314D01*
X352111592Y4752315D01*
X352196069Y4754246D01*
X352260930Y4767145D01*
X352260938Y4767148D01*
X352296321Y4774183D01*
X352296357Y4774191D01*
X352388837Y4792582D01*
X352388845Y4792584D01*
X352466328Y4824677D01*
X352493833Y4832554D01*
X352495437Y4832822D01*
X352507836Y4841868D01*
X352570428Y4867792D01*
X352651727Y4922110D01*
X352652366Y4922534D01*
X352661902Y4928823D01*
X352662468Y4929287D01*
X352733853Y4976981D01*
X352733854Y4976982D01*
X352872835Y5115957D01*
X352872836Y5115958D01*
X352933470Y5206697D01*
X352933476Y5206708D01*
X352982035Y5279377D01*
X352982036Y5279379D01*
X353057254Y5460961D01*
X353057255Y5460965D01*
X353076436Y5557379D01*
X353087219Y5611592D01*
X353087220Y5611603D01*
X353095600Y5653727D01*
X353096650Y5700686D01*
X353096654Y5700764D01*
X353097468Y5737128D01*
X353097467Y5737134D01*
X353097800Y5751987D01*
X353097800Y20952011D01*
X353097455Y20967143D01*
X353097455Y20967148D01*
X353096638Y21003003D01*
X353096636Y21003072D01*
X353095561Y21050268D01*
X353057233Y21243042D01*
X353021346Y21329693D01*
X353018223Y21338060D01*
X353010551Y21361075D01*
X353005932Y21366912D01*
X352982029Y21424628D01*
X352982024Y21424636D01*
X352927643Y21506026D01*
X352927438Y21506333D01*
X352923461Y21512323D01*
X352923235Y21512621D01*
X352872833Y21588055D01*
X352803351Y21657537D01*
X352803353Y21657540D01*
X352803328Y21657560D01*
X352801363Y21659526D01*
X352801317Y21659570D01*
X352733856Y21727030D01*
X352733857Y21727030D01*
X352570438Y21836212D01*
X352570430Y21836216D01*
X352477667Y21874632D01*
X352477665Y21874633D01*
X352388843Y21911417D01*
X352388844Y21911417D01*
X352292467Y21930577D01*
X352292464Y21930577D01*
X352245788Y21939857D01*
X352245788Y21939858D01*
X352245778Y21939859D01*
X352196072Y21949739D01*
X352196075Y21949739D01*
X352097785Y21952000D01*
X322897789Y21952000D01*
X322883240Y21951669D01*
X322883241Y21951668D01*
X322883163Y21951666D01*
X322882802Y21951658D01*
X322870385Y21951376D01*
X322870386Y21951375D01*
X322799524Y21949757D01*
X322747450Y21939401D01*
X322747449Y21939402D01*
X322747444Y21939400D01*
X322606760Y21911424D01*
X322606746Y21911420D01*
X322527448Y21878578D01*
X322527425Y21878567D01*
X322425167Y21836216D01*
X322261737Y21727023D01*
X322209969Y21675258D01*
X322209968Y21675259D01*
X322192244Y21657534D01*
X322192243Y21657532D01*
X322122759Y21588051D01*
X322013559Y21424625D01*
X321971205Y21322381D01*
X321971201Y21322365D01*
X321938345Y21243048D01*
X321938343Y21243041D01*
X321899999Y21050271D01*
X321899999Y21050270D01*
X321897800Y20952020D01*
X321297800Y20952020D01*
X321297800Y21214493D01*
X321298279Y21225475D01*
X321317045Y21439972D01*
X321320859Y21461601D01*
X321375155Y21664240D01*
X321382667Y21684879D01*
X321471327Y21875011D01*
X321482309Y21894032D01*
X321602640Y22065882D01*
X321616758Y22082706D01*
X321765094Y22231042D01*
X321781918Y22245160D01*
X321953768Y22365491D01*
X321972789Y22376473D01*
X322162921Y22465133D01*
X322183560Y22472645D01*
X322386199Y22526941D01*
X322407828Y22530755D01*
X322622325Y22549521D01*
X322633307Y22550000D01*
X352362293Y22550000D01*
X352373275Y22549521D01*
G37*
G36*
X386107028Y5904208D02*
G01*
X386263911Y5886532D01*
X386291419Y5880253D01*
X386433706Y5830465D01*
X386459127Y5818223D01*
X386586772Y5738018D01*
X386608831Y5720426D01*
X386715425Y5613832D01*
X386733017Y5591773D01*
X386813222Y5464128D01*
X386825464Y5438707D01*
X386875252Y5296420D01*
X386881531Y5268913D01*
X386899208Y5112030D01*
X386900000Y5097922D01*
X386900000Y2912079D01*
X386899208Y2897971D01*
X386881531Y2741088D01*
X386875252Y2713581D01*
X386825464Y2571294D01*
X386813222Y2545873D01*
X386733017Y2418228D01*
X386715425Y2396169D01*
X386608831Y2289575D01*
X386586772Y2271983D01*
X386459127Y2191778D01*
X386433706Y2179536D01*
X386291419Y2129748D01*
X386263912Y2123469D01*
X386107029Y2105792D01*
X386092921Y2105000D01*
X383907079Y2105000D01*
X383892971Y2105792D01*
X383736087Y2123469D01*
X383708580Y2129748D01*
X383566293Y2179536D01*
X383540872Y2191778D01*
X383413227Y2271983D01*
X383391168Y2289575D01*
X383284574Y2396169D01*
X383266982Y2418228D01*
X383186777Y2545873D01*
X383174535Y2571294D01*
X383124747Y2713581D01*
X383118468Y2741089D01*
X383100792Y2897972D01*
X383100000Y2912079D01*
X383100000Y5097922D01*
X383100792Y5112029D01*
X383118468Y5268912D01*
X383124747Y5296420D01*
X383174535Y5438707D01*
X383186777Y5464128D01*
X383266982Y5591773D01*
X383284574Y5613832D01*
X383391168Y5720426D01*
X383413227Y5738018D01*
X383540872Y5818223D01*
X383566293Y5830465D01*
X383708580Y5880253D01*
X383736088Y5886532D01*
X383892972Y5904208D01*
X383907079Y5905000D01*
X386092921Y5905000D01*
X386107028Y5904208D01*
G37*
G36*
X338607028Y-28600792D02*
G01*
X338763911Y-28618468D01*
X338791419Y-28624747D01*
X338933706Y-28674535D01*
X338959127Y-28686777D01*
X339086772Y-28766982D01*
X339108831Y-28784574D01*
X339215425Y-28891168D01*
X339233017Y-28913227D01*
X339313222Y-29040872D01*
X339325464Y-29066293D01*
X339375252Y-29208580D01*
X339381531Y-29236087D01*
X339399208Y-29392970D01*
X339400000Y-29407078D01*
X339400000Y-31592921D01*
X339399208Y-31607029D01*
X339381531Y-31763912D01*
X339375252Y-31791419D01*
X339325464Y-31933706D01*
X339313222Y-31959127D01*
X339233017Y-32086772D01*
X339215425Y-32108831D01*
X339108831Y-32215425D01*
X339086772Y-32233017D01*
X338959127Y-32313222D01*
X338933706Y-32325464D01*
X338791419Y-32375252D01*
X338763912Y-32381531D01*
X338607029Y-32399208D01*
X338592921Y-32400000D01*
X336407079Y-32400000D01*
X336392971Y-32399208D01*
X336236087Y-32381531D01*
X336208580Y-32375252D01*
X336066293Y-32325464D01*
X336040872Y-32313222D01*
X335913227Y-32233017D01*
X335891168Y-32215425D01*
X335784574Y-32108831D01*
X335766982Y-32086772D01*
X335686777Y-31959127D01*
X335674535Y-31933706D01*
X335624747Y-31791419D01*
X335618468Y-31763911D01*
X335600792Y-31607028D01*
X335600000Y-31592921D01*
X335600000Y-29407078D01*
X335600792Y-29392971D01*
X335618468Y-29236088D01*
X335624747Y-29208580D01*
X335674535Y-29066293D01*
X335686777Y-29040872D01*
X335766982Y-28913227D01*
X335784574Y-28891168D01*
X335891168Y-28784574D01*
X335913227Y-28766982D01*
X336040872Y-28686777D01*
X336066293Y-28674535D01*
X336208580Y-28624747D01*
X336236088Y-28618468D01*
X336392972Y-28600792D01*
X336407079Y-28600000D01*
X338592921Y-28600000D01*
X338607028Y-28600792D01*
G37*
G36*
X363607028Y-28600792D02*
G01*
X363763911Y-28618468D01*
X363791419Y-28624747D01*
X363933706Y-28674535D01*
X363959127Y-28686777D01*
X364086772Y-28766982D01*
X364108831Y-28784574D01*
X364215425Y-28891168D01*
X364233017Y-28913227D01*
X364313222Y-29040872D01*
X364325464Y-29066293D01*
X364375252Y-29208580D01*
X364381531Y-29236087D01*
X364399208Y-29392970D01*
X364400000Y-29407078D01*
X364400000Y-31592921D01*
X364399208Y-31607029D01*
X364381531Y-31763912D01*
X364375252Y-31791419D01*
X364325464Y-31933706D01*
X364313222Y-31959127D01*
X364233017Y-32086772D01*
X364215425Y-32108831D01*
X364108831Y-32215425D01*
X364086772Y-32233017D01*
X363959127Y-32313222D01*
X363933706Y-32325464D01*
X363791419Y-32375252D01*
X363763912Y-32381531D01*
X363607029Y-32399208D01*
X363592921Y-32400000D01*
X361407079Y-32400000D01*
X361392971Y-32399208D01*
X361236087Y-32381531D01*
X361208580Y-32375252D01*
X361066293Y-32325464D01*
X361040872Y-32313222D01*
X360913227Y-32233017D01*
X360891168Y-32215425D01*
X360784574Y-32108831D01*
X360766982Y-32086772D01*
X360686777Y-31959127D01*
X360674535Y-31933706D01*
X360624747Y-31791419D01*
X360618468Y-31763911D01*
X360600792Y-31607028D01*
X360600000Y-31592921D01*
X360600000Y-29407078D01*
X360600792Y-29392971D01*
X360618468Y-29236088D01*
X360624747Y-29208580D01*
X360674535Y-29066293D01*
X360686777Y-29040872D01*
X360766982Y-28913227D01*
X360784574Y-28891168D01*
X360891168Y-28784574D01*
X360913227Y-28766982D01*
X361040872Y-28686777D01*
X361066293Y-28674535D01*
X361208580Y-28624747D01*
X361236088Y-28618468D01*
X361392972Y-28600792D01*
X361407079Y-28600000D01*
X363592921Y-28600000D01*
X363607028Y-28600792D01*
G37*
G36*
X386107028Y-2095792D02*
G01*
X386263911Y-2113468D01*
X386291419Y-2119747D01*
X386433706Y-2169535D01*
X386459127Y-2181777D01*
X386586772Y-2261982D01*
X386608831Y-2279574D01*
X386715425Y-2386168D01*
X386733017Y-2408227D01*
X386813222Y-2535872D01*
X386825464Y-2561293D01*
X386875252Y-2703580D01*
X386881531Y-2731087D01*
X386899208Y-2887970D01*
X386900000Y-2902078D01*
X386900000Y-5087921D01*
X386899208Y-5102029D01*
X386881531Y-5258912D01*
X386875252Y-5286419D01*
X386825464Y-5428706D01*
X386813222Y-5454127D01*
X386733017Y-5581772D01*
X386715425Y-5603831D01*
X386608831Y-5710425D01*
X386586772Y-5728017D01*
X386459127Y-5808222D01*
X386433706Y-5820464D01*
X386291419Y-5870252D01*
X386263912Y-5876531D01*
X386107029Y-5894208D01*
X386092921Y-5895000D01*
X383907079Y-5895000D01*
X383892971Y-5894208D01*
X383736087Y-5876531D01*
X383708580Y-5870252D01*
X383566293Y-5820464D01*
X383540872Y-5808222D01*
X383413227Y-5728017D01*
X383391168Y-5710425D01*
X383284574Y-5603831D01*
X383266982Y-5581772D01*
X383186777Y-5454127D01*
X383174535Y-5428706D01*
X383124747Y-5286419D01*
X383118468Y-5258911D01*
X383100792Y-5102028D01*
X383100000Y-5087921D01*
X383100000Y-2902078D01*
X383100792Y-2887971D01*
X383118468Y-2731088D01*
X383124747Y-2703580D01*
X383174535Y-2561293D01*
X383186777Y-2535872D01*
X383266982Y-2408227D01*
X383284574Y-2386168D01*
X383391168Y-2279574D01*
X383413227Y-2261982D01*
X383540872Y-2181777D01*
X383566293Y-2169535D01*
X383708580Y-2119747D01*
X383736088Y-2113468D01*
X383892972Y-2095792D01*
X383907079Y-2095000D01*
X386092921Y-2095000D01*
X386107028Y-2095792D01*
G37*
M02*
