%TF.GenerationSoftware,KiCad,Pcbnew,9.0.6-9.0.6~ubuntu24.04.1*%
%TF.CreationDate,2025-11-16T17:23:56+08:00*%
%TF.ProjectId,ksoloti_gills_panel,6b736f6c-6f74-4695-9f67-696c6c735f70,v0.6*%
%TF.SameCoordinates,Original*%
%TF.FileFunction,Legend,Top*%
%TF.FilePolarity,Positive*%
%FSLAX46Y46*%
G04 Gerber Fmt 4.6, Leading zero omitted, Abs format (unit mm)*
G04 Created by KiCad (PCBNEW 9.0.6-9.0.6~ubuntu24.04.1) date 2025-11-16 17:23:56*
%MOMM*%
%LPD*%
G01*
G04 APERTURE LIST*
%ADD10C,0.200000*%
%ADD11C,0.150000*%
%ADD12C,0.500000*%
%ADD13C,0.700000*%
%ADD14C,0.600000*%
%ADD15C,0.250000*%
%ADD16C,0.000000*%
%ADD17C,0.300000*%
%ADD18C,3.750000*%
%ADD19C,2.000000*%
%ADD20C,5.000000*%
%ADD21C,13.000000*%
%ADD22C,7.200000*%
%ADD23C,18.000000*%
%ADD24C,7.500000*%
%ADD25C,8.000000*%
%ADD26C,1.700000*%
G04 APERTURE END LIST*
D10*
X-61457458Y177699141D02*
X-60600315Y177699141D01*
X-60600315Y177699141D02*
X-60428886Y177641998D01*
X-60428886Y177641998D02*
X-60314600Y177527712D01*
X-60314600Y177527712D02*
X-60257458Y177356284D01*
X-60257458Y177356284D02*
X-60257458Y177241998D01*
X-60257458Y178841998D02*
X-60257458Y178270570D01*
X-60257458Y178270570D02*
X-61457458Y178270570D01*
X-60371743Y179927713D02*
X-60314600Y179870570D01*
X-60314600Y179870570D02*
X-60257458Y179699142D01*
X-60257458Y179699142D02*
X-60257458Y179584856D01*
X-60257458Y179584856D02*
X-60314600Y179413427D01*
X-60314600Y179413427D02*
X-60428886Y179299142D01*
X-60428886Y179299142D02*
X-60543172Y179241999D01*
X-60543172Y179241999D02*
X-60771743Y179184856D01*
X-60771743Y179184856D02*
X-60943172Y179184856D01*
X-60943172Y179184856D02*
X-61171743Y179241999D01*
X-61171743Y179241999D02*
X-61286029Y179299142D01*
X-61286029Y179299142D02*
X-61400315Y179413427D01*
X-61400315Y179413427D02*
X-61457458Y179584856D01*
X-61457458Y179584856D02*
X-61457458Y179699142D01*
X-61457458Y179699142D02*
X-61400315Y179870570D01*
X-61400315Y179870570D02*
X-61343172Y179927713D01*
X-61457458Y180784856D02*
X-60600315Y180784856D01*
X-60600315Y180784856D02*
X-60428886Y180727713D01*
X-60428886Y180727713D02*
X-60314600Y180613427D01*
X-60314600Y180613427D02*
X-60257458Y180441999D01*
X-60257458Y180441999D02*
X-60257458Y180327713D01*
X-60257458Y181927713D02*
X-60257458Y181356285D01*
X-60257458Y181356285D02*
X-61457458Y181356285D01*
X-60371743Y183013428D02*
X-60314600Y182956285D01*
X-60314600Y182956285D02*
X-60257458Y182784857D01*
X-60257458Y182784857D02*
X-60257458Y182670571D01*
X-60257458Y182670571D02*
X-60314600Y182499142D01*
X-60314600Y182499142D02*
X-60428886Y182384857D01*
X-60428886Y182384857D02*
X-60543172Y182327714D01*
X-60543172Y182327714D02*
X-60771743Y182270571D01*
X-60771743Y182270571D02*
X-60943172Y182270571D01*
X-60943172Y182270571D02*
X-61171743Y182327714D01*
X-61171743Y182327714D02*
X-61286029Y182384857D01*
X-61286029Y182384857D02*
X-61400315Y182499142D01*
X-61400315Y182499142D02*
X-61457458Y182670571D01*
X-61457458Y182670571D02*
X-61457458Y182784857D01*
X-61457458Y182784857D02*
X-61400315Y182956285D01*
X-61400315Y182956285D02*
X-61343172Y183013428D01*
X-61457458Y183870571D02*
X-60600315Y183870571D01*
X-60600315Y183870571D02*
X-60428886Y183813428D01*
X-60428886Y183813428D02*
X-60314600Y183699142D01*
X-60314600Y183699142D02*
X-60257458Y183527714D01*
X-60257458Y183527714D02*
X-60257458Y183413428D01*
X-60257458Y185013428D02*
X-60257458Y184442000D01*
X-60257458Y184442000D02*
X-61457458Y184442000D01*
X-60371743Y186099143D02*
X-60314600Y186042000D01*
X-60314600Y186042000D02*
X-60257458Y185870572D01*
X-60257458Y185870572D02*
X-60257458Y185756286D01*
X-60257458Y185756286D02*
X-60314600Y185584857D01*
X-60314600Y185584857D02*
X-60428886Y185470572D01*
X-60428886Y185470572D02*
X-60543172Y185413429D01*
X-60543172Y185413429D02*
X-60771743Y185356286D01*
X-60771743Y185356286D02*
X-60943172Y185356286D01*
X-60943172Y185356286D02*
X-61171743Y185413429D01*
X-61171743Y185413429D02*
X-61286029Y185470572D01*
X-61286029Y185470572D02*
X-61400315Y185584857D01*
X-61400315Y185584857D02*
X-61457458Y185756286D01*
X-61457458Y185756286D02*
X-61457458Y185870572D01*
X-61457458Y185870572D02*
X-61400315Y186042000D01*
X-61400315Y186042000D02*
X-61343172Y186099143D01*
X-61457458Y186956286D02*
X-60600315Y186956286D01*
X-60600315Y186956286D02*
X-60428886Y186899143D01*
X-60428886Y186899143D02*
X-60314600Y186784857D01*
X-60314600Y186784857D02*
X-60257458Y186613429D01*
X-60257458Y186613429D02*
X-60257458Y186499143D01*
X-60257458Y188099143D02*
X-60257458Y187527715D01*
X-60257458Y187527715D02*
X-61457458Y187527715D01*
X-60371743Y189184858D02*
X-60314600Y189127715D01*
X-60314600Y189127715D02*
X-60257458Y188956287D01*
X-60257458Y188956287D02*
X-60257458Y188842001D01*
X-60257458Y188842001D02*
X-60314600Y188670572D01*
X-60314600Y188670572D02*
X-60428886Y188556287D01*
X-60428886Y188556287D02*
X-60543172Y188499144D01*
X-60543172Y188499144D02*
X-60771743Y188442001D01*
X-60771743Y188442001D02*
X-60943172Y188442001D01*
X-60943172Y188442001D02*
X-61171743Y188499144D01*
X-61171743Y188499144D02*
X-61286029Y188556287D01*
X-61286029Y188556287D02*
X-61400315Y188670572D01*
X-61400315Y188670572D02*
X-61457458Y188842001D01*
X-61457458Y188842001D02*
X-61457458Y188956287D01*
X-61457458Y188956287D02*
X-61400315Y189127715D01*
X-61400315Y189127715D02*
X-61343172Y189184858D01*
X47823714Y254603257D02*
X48109428Y253803257D01*
X48109428Y253803257D02*
X48395143Y254603257D01*
X49080857Y255003257D02*
X49195143Y255003257D01*
X49195143Y255003257D02*
X49309429Y254946114D01*
X49309429Y254946114D02*
X49366572Y254888971D01*
X49366572Y254888971D02*
X49423714Y254774685D01*
X49423714Y254774685D02*
X49480857Y254546114D01*
X49480857Y254546114D02*
X49480857Y254260400D01*
X49480857Y254260400D02*
X49423714Y254031828D01*
X49423714Y254031828D02*
X49366572Y253917542D01*
X49366572Y253917542D02*
X49309429Y253860400D01*
X49309429Y253860400D02*
X49195143Y253803257D01*
X49195143Y253803257D02*
X49080857Y253803257D01*
X49080857Y253803257D02*
X48966572Y253860400D01*
X48966572Y253860400D02*
X48909429Y253917542D01*
X48909429Y253917542D02*
X48852286Y254031828D01*
X48852286Y254031828D02*
X48795143Y254260400D01*
X48795143Y254260400D02*
X48795143Y254546114D01*
X48795143Y254546114D02*
X48852286Y254774685D01*
X48852286Y254774685D02*
X48909429Y254888971D01*
X48909429Y254888971D02*
X48966572Y254946114D01*
X48966572Y254946114D02*
X49080857Y255003257D01*
X49995143Y253917542D02*
X50052286Y253860400D01*
X50052286Y253860400D02*
X49995143Y253803257D01*
X49995143Y253803257D02*
X49938000Y253860400D01*
X49938000Y253860400D02*
X49995143Y253917542D01*
X49995143Y253917542D02*
X49995143Y253803257D01*
X51080858Y255003257D02*
X50852286Y255003257D01*
X50852286Y255003257D02*
X50738000Y254946114D01*
X50738000Y254946114D02*
X50680858Y254888971D01*
X50680858Y254888971D02*
X50566572Y254717542D01*
X50566572Y254717542D02*
X50509429Y254488971D01*
X50509429Y254488971D02*
X50509429Y254031828D01*
X50509429Y254031828D02*
X50566572Y253917542D01*
X50566572Y253917542D02*
X50623715Y253860400D01*
X50623715Y253860400D02*
X50738000Y253803257D01*
X50738000Y253803257D02*
X50966572Y253803257D01*
X50966572Y253803257D02*
X51080858Y253860400D01*
X51080858Y253860400D02*
X51138000Y253917542D01*
X51138000Y253917542D02*
X51195143Y254031828D01*
X51195143Y254031828D02*
X51195143Y254317542D01*
X51195143Y254317542D02*
X51138000Y254431828D01*
X51138000Y254431828D02*
X51080858Y254488971D01*
X51080858Y254488971D02*
X50966572Y254546114D01*
X50966572Y254546114D02*
X50738000Y254546114D01*
X50738000Y254546114D02*
X50623715Y254488971D01*
X50623715Y254488971D02*
X50566572Y254431828D01*
X50566572Y254431828D02*
X50509429Y254317542D01*
X44454941Y146097257D02*
X44454941Y145240114D01*
X44454941Y145240114D02*
X44397798Y145068685D01*
X44397798Y145068685D02*
X44283512Y144954400D01*
X44283512Y144954400D02*
X44112084Y144897257D01*
X44112084Y144897257D02*
X43997798Y144897257D01*
X45597798Y144897257D02*
X45026370Y144897257D01*
X45026370Y144897257D02*
X45026370Y146097257D01*
X46683513Y145011542D02*
X46626370Y144954400D01*
X46626370Y144954400D02*
X46454942Y144897257D01*
X46454942Y144897257D02*
X46340656Y144897257D01*
X46340656Y144897257D02*
X46169227Y144954400D01*
X46169227Y144954400D02*
X46054942Y145068685D01*
X46054942Y145068685D02*
X45997799Y145182971D01*
X45997799Y145182971D02*
X45940656Y145411542D01*
X45940656Y145411542D02*
X45940656Y145582971D01*
X45940656Y145582971D02*
X45997799Y145811542D01*
X45997799Y145811542D02*
X46054942Y145925828D01*
X46054942Y145925828D02*
X46169227Y146040114D01*
X46169227Y146040114D02*
X46340656Y146097257D01*
X46340656Y146097257D02*
X46454942Y146097257D01*
X46454942Y146097257D02*
X46626370Y146040114D01*
X46626370Y146040114D02*
X46683513Y145982971D01*
X47540656Y146097257D02*
X47540656Y145240114D01*
X47540656Y145240114D02*
X47483513Y145068685D01*
X47483513Y145068685D02*
X47369227Y144954400D01*
X47369227Y144954400D02*
X47197799Y144897257D01*
X47197799Y144897257D02*
X47083513Y144897257D01*
X48683513Y144897257D02*
X48112085Y144897257D01*
X48112085Y144897257D02*
X48112085Y146097257D01*
X49769228Y145011542D02*
X49712085Y144954400D01*
X49712085Y144954400D02*
X49540657Y144897257D01*
X49540657Y144897257D02*
X49426371Y144897257D01*
X49426371Y144897257D02*
X49254942Y144954400D01*
X49254942Y144954400D02*
X49140657Y145068685D01*
X49140657Y145068685D02*
X49083514Y145182971D01*
X49083514Y145182971D02*
X49026371Y145411542D01*
X49026371Y145411542D02*
X49026371Y145582971D01*
X49026371Y145582971D02*
X49083514Y145811542D01*
X49083514Y145811542D02*
X49140657Y145925828D01*
X49140657Y145925828D02*
X49254942Y146040114D01*
X49254942Y146040114D02*
X49426371Y146097257D01*
X49426371Y146097257D02*
X49540657Y146097257D01*
X49540657Y146097257D02*
X49712085Y146040114D01*
X49712085Y146040114D02*
X49769228Y145982971D01*
X50626371Y146097257D02*
X50626371Y145240114D01*
X50626371Y145240114D02*
X50569228Y145068685D01*
X50569228Y145068685D02*
X50454942Y144954400D01*
X50454942Y144954400D02*
X50283514Y144897257D01*
X50283514Y144897257D02*
X50169228Y144897257D01*
X51769228Y144897257D02*
X51197800Y144897257D01*
X51197800Y144897257D02*
X51197800Y146097257D01*
X52854943Y145011542D02*
X52797800Y144954400D01*
X52797800Y144954400D02*
X52626372Y144897257D01*
X52626372Y144897257D02*
X52512086Y144897257D01*
X52512086Y144897257D02*
X52340657Y144954400D01*
X52340657Y144954400D02*
X52226372Y145068685D01*
X52226372Y145068685D02*
X52169229Y145182971D01*
X52169229Y145182971D02*
X52112086Y145411542D01*
X52112086Y145411542D02*
X52112086Y145582971D01*
X52112086Y145582971D02*
X52169229Y145811542D01*
X52169229Y145811542D02*
X52226372Y145925828D01*
X52226372Y145925828D02*
X52340657Y146040114D01*
X52340657Y146040114D02*
X52512086Y146097257D01*
X52512086Y146097257D02*
X52626372Y146097257D01*
X52626372Y146097257D02*
X52797800Y146040114D01*
X52797800Y146040114D02*
X52854943Y145982971D01*
X53712086Y146097257D02*
X53712086Y145240114D01*
X53712086Y145240114D02*
X53654943Y145068685D01*
X53654943Y145068685D02*
X53540657Y144954400D01*
X53540657Y144954400D02*
X53369229Y144897257D01*
X53369229Y144897257D02*
X53254943Y144897257D01*
X54854943Y144897257D02*
X54283515Y144897257D01*
X54283515Y144897257D02*
X54283515Y146097257D01*
X55940658Y145011542D02*
X55883515Y144954400D01*
X55883515Y144954400D02*
X55712087Y144897257D01*
X55712087Y144897257D02*
X55597801Y144897257D01*
X55597801Y144897257D02*
X55426372Y144954400D01*
X55426372Y144954400D02*
X55312087Y145068685D01*
X55312087Y145068685D02*
X55254944Y145182971D01*
X55254944Y145182971D02*
X55197801Y145411542D01*
X55197801Y145411542D02*
X55197801Y145582971D01*
X55197801Y145582971D02*
X55254944Y145811542D01*
X55254944Y145811542D02*
X55312087Y145925828D01*
X55312087Y145925828D02*
X55426372Y146040114D01*
X55426372Y146040114D02*
X55597801Y146097257D01*
X55597801Y146097257D02*
X55712087Y146097257D01*
X55712087Y146097257D02*
X55883515Y146040114D01*
X55883515Y146040114D02*
X55940658Y145982971D01*
X51879285Y104933742D02*
X51593571Y105733742D01*
X51593571Y105733742D02*
X51307856Y104933742D01*
X50622142Y104533742D02*
X50507856Y104533742D01*
X50507856Y104533742D02*
X50393570Y104590885D01*
X50393570Y104590885D02*
X50336428Y104648028D01*
X50336428Y104648028D02*
X50279285Y104762314D01*
X50279285Y104762314D02*
X50222142Y104990885D01*
X50222142Y104990885D02*
X50222142Y105276600D01*
X50222142Y105276600D02*
X50279285Y105505171D01*
X50279285Y105505171D02*
X50336428Y105619457D01*
X50336428Y105619457D02*
X50393570Y105676600D01*
X50393570Y105676600D02*
X50507856Y105733742D01*
X50507856Y105733742D02*
X50622142Y105733742D01*
X50622142Y105733742D02*
X50736428Y105676600D01*
X50736428Y105676600D02*
X50793570Y105619457D01*
X50793570Y105619457D02*
X50850713Y105505171D01*
X50850713Y105505171D02*
X50907856Y105276600D01*
X50907856Y105276600D02*
X50907856Y104990885D01*
X50907856Y104990885D02*
X50850713Y104762314D01*
X50850713Y104762314D02*
X50793570Y104648028D01*
X50793570Y104648028D02*
X50736428Y104590885D01*
X50736428Y104590885D02*
X50622142Y104533742D01*
X49707856Y105619457D02*
X49650713Y105676600D01*
X49650713Y105676600D02*
X49707856Y105733742D01*
X49707856Y105733742D02*
X49764999Y105676600D01*
X49764999Y105676600D02*
X49707856Y105619457D01*
X49707856Y105619457D02*
X49707856Y105733742D01*
X48622142Y104533742D02*
X48850713Y104533742D01*
X48850713Y104533742D02*
X48964999Y104590885D01*
X48964999Y104590885D02*
X49022142Y104648028D01*
X49022142Y104648028D02*
X49136427Y104819457D01*
X49136427Y104819457D02*
X49193570Y105048028D01*
X49193570Y105048028D02*
X49193570Y105505171D01*
X49193570Y105505171D02*
X49136427Y105619457D01*
X49136427Y105619457D02*
X49079284Y105676600D01*
X49079284Y105676600D02*
X48964999Y105733742D01*
X48964999Y105733742D02*
X48736427Y105733742D01*
X48736427Y105733742D02*
X48622142Y105676600D01*
X48622142Y105676600D02*
X48564999Y105619457D01*
X48564999Y105619457D02*
X48507856Y105505171D01*
X48507856Y105505171D02*
X48507856Y105219457D01*
X48507856Y105219457D02*
X48564999Y105105171D01*
X48564999Y105105171D02*
X48622142Y105048028D01*
X48622142Y105048028D02*
X48736427Y104990885D01*
X48736427Y104990885D02*
X48964999Y104990885D01*
X48964999Y104990885D02*
X49079284Y105048028D01*
X49079284Y105048028D02*
X49136427Y105105171D01*
X49136427Y105105171D02*
X49193570Y105219457D01*
X48297714Y149226257D02*
X48583428Y148426257D01*
X48583428Y148426257D02*
X48869143Y149226257D01*
X49554857Y149626257D02*
X49669143Y149626257D01*
X49669143Y149626257D02*
X49783429Y149569114D01*
X49783429Y149569114D02*
X49840572Y149511971D01*
X49840572Y149511971D02*
X49897714Y149397685D01*
X49897714Y149397685D02*
X49954857Y149169114D01*
X49954857Y149169114D02*
X49954857Y148883400D01*
X49954857Y148883400D02*
X49897714Y148654828D01*
X49897714Y148654828D02*
X49840572Y148540542D01*
X49840572Y148540542D02*
X49783429Y148483400D01*
X49783429Y148483400D02*
X49669143Y148426257D01*
X49669143Y148426257D02*
X49554857Y148426257D01*
X49554857Y148426257D02*
X49440572Y148483400D01*
X49440572Y148483400D02*
X49383429Y148540542D01*
X49383429Y148540542D02*
X49326286Y148654828D01*
X49326286Y148654828D02*
X49269143Y148883400D01*
X49269143Y148883400D02*
X49269143Y149169114D01*
X49269143Y149169114D02*
X49326286Y149397685D01*
X49326286Y149397685D02*
X49383429Y149511971D01*
X49383429Y149511971D02*
X49440572Y149569114D01*
X49440572Y149569114D02*
X49554857Y149626257D01*
X50469143Y148540542D02*
X50526286Y148483400D01*
X50526286Y148483400D02*
X50469143Y148426257D01*
X50469143Y148426257D02*
X50412000Y148483400D01*
X50412000Y148483400D02*
X50469143Y148540542D01*
X50469143Y148540542D02*
X50469143Y148426257D01*
X51554858Y149626257D02*
X51326286Y149626257D01*
X51326286Y149626257D02*
X51212000Y149569114D01*
X51212000Y149569114D02*
X51154858Y149511971D01*
X51154858Y149511971D02*
X51040572Y149340542D01*
X51040572Y149340542D02*
X50983429Y149111971D01*
X50983429Y149111971D02*
X50983429Y148654828D01*
X50983429Y148654828D02*
X51040572Y148540542D01*
X51040572Y148540542D02*
X51097715Y148483400D01*
X51097715Y148483400D02*
X51212000Y148426257D01*
X51212000Y148426257D02*
X51440572Y148426257D01*
X51440572Y148426257D02*
X51554858Y148483400D01*
X51554858Y148483400D02*
X51612000Y148540542D01*
X51612000Y148540542D02*
X51669143Y148654828D01*
X51669143Y148654828D02*
X51669143Y148940542D01*
X51669143Y148940542D02*
X51612000Y149054828D01*
X51612000Y149054828D02*
X51554858Y149111971D01*
X51554858Y149111971D02*
X51440572Y149169114D01*
X51440572Y149169114D02*
X51212000Y149169114D01*
X51212000Y149169114D02*
X51097715Y149111971D01*
X51097715Y149111971D02*
X51040572Y149054828D01*
X51040572Y149054828D02*
X50983429Y148940542D01*
X165322257Y209740285D02*
X164522257Y209454571D01*
X164522257Y209454571D02*
X165322257Y209168856D01*
X165722257Y208483142D02*
X165722257Y208368856D01*
X165722257Y208368856D02*
X165665114Y208254570D01*
X165665114Y208254570D02*
X165607971Y208197428D01*
X165607971Y208197428D02*
X165493685Y208140285D01*
X165493685Y208140285D02*
X165265114Y208083142D01*
X165265114Y208083142D02*
X164979400Y208083142D01*
X164979400Y208083142D02*
X164750828Y208140285D01*
X164750828Y208140285D02*
X164636542Y208197428D01*
X164636542Y208197428D02*
X164579400Y208254570D01*
X164579400Y208254570D02*
X164522257Y208368856D01*
X164522257Y208368856D02*
X164522257Y208483142D01*
X164522257Y208483142D02*
X164579400Y208597428D01*
X164579400Y208597428D02*
X164636542Y208654570D01*
X164636542Y208654570D02*
X164750828Y208711713D01*
X164750828Y208711713D02*
X164979400Y208768856D01*
X164979400Y208768856D02*
X165265114Y208768856D01*
X165265114Y208768856D02*
X165493685Y208711713D01*
X165493685Y208711713D02*
X165607971Y208654570D01*
X165607971Y208654570D02*
X165665114Y208597428D01*
X165665114Y208597428D02*
X165722257Y208483142D01*
X164636542Y207568856D02*
X164579400Y207511713D01*
X164579400Y207511713D02*
X164522257Y207568856D01*
X164522257Y207568856D02*
X164579400Y207625999D01*
X164579400Y207625999D02*
X164636542Y207568856D01*
X164636542Y207568856D02*
X164522257Y207568856D01*
X165722257Y206483142D02*
X165722257Y206711713D01*
X165722257Y206711713D02*
X165665114Y206825999D01*
X165665114Y206825999D02*
X165607971Y206883142D01*
X165607971Y206883142D02*
X165436542Y206997427D01*
X165436542Y206997427D02*
X165207971Y207054570D01*
X165207971Y207054570D02*
X164750828Y207054570D01*
X164750828Y207054570D02*
X164636542Y206997427D01*
X164636542Y206997427D02*
X164579400Y206940284D01*
X164579400Y206940284D02*
X164522257Y206825999D01*
X164522257Y206825999D02*
X164522257Y206597427D01*
X164522257Y206597427D02*
X164579400Y206483142D01*
X164579400Y206483142D02*
X164636542Y206425999D01*
X164636542Y206425999D02*
X164750828Y206368856D01*
X164750828Y206368856D02*
X165036542Y206368856D01*
X165036542Y206368856D02*
X165150828Y206425999D01*
X165150828Y206425999D02*
X165207971Y206483142D01*
X165207971Y206483142D02*
X165265114Y206597427D01*
X165265114Y206597427D02*
X165265114Y206825999D01*
X165265114Y206825999D02*
X165207971Y206940284D01*
X165207971Y206940284D02*
X165150828Y206997427D01*
X165150828Y206997427D02*
X165036542Y207054570D01*
X-64484258Y181546714D02*
X-63684258Y181832428D01*
X-63684258Y181832428D02*
X-64484258Y182118143D01*
X-64884258Y182803857D02*
X-64884258Y182918143D01*
X-64884258Y182918143D02*
X-64827115Y183032429D01*
X-64827115Y183032429D02*
X-64769972Y183089572D01*
X-64769972Y183089572D02*
X-64655686Y183146714D01*
X-64655686Y183146714D02*
X-64427115Y183203857D01*
X-64427115Y183203857D02*
X-64141400Y183203857D01*
X-64141400Y183203857D02*
X-63912829Y183146714D01*
X-63912829Y183146714D02*
X-63798543Y183089572D01*
X-63798543Y183089572D02*
X-63741400Y183032429D01*
X-63741400Y183032429D02*
X-63684258Y182918143D01*
X-63684258Y182918143D02*
X-63684258Y182803857D01*
X-63684258Y182803857D02*
X-63741400Y182689572D01*
X-63741400Y182689572D02*
X-63798543Y182632429D01*
X-63798543Y182632429D02*
X-63912829Y182575286D01*
X-63912829Y182575286D02*
X-64141400Y182518143D01*
X-64141400Y182518143D02*
X-64427115Y182518143D01*
X-64427115Y182518143D02*
X-64655686Y182575286D01*
X-64655686Y182575286D02*
X-64769972Y182632429D01*
X-64769972Y182632429D02*
X-64827115Y182689572D01*
X-64827115Y182689572D02*
X-64884258Y182803857D01*
X-63798543Y183718143D02*
X-63741400Y183775286D01*
X-63741400Y183775286D02*
X-63684258Y183718143D01*
X-63684258Y183718143D02*
X-63741400Y183661000D01*
X-63741400Y183661000D02*
X-63798543Y183718143D01*
X-63798543Y183718143D02*
X-63684258Y183718143D01*
X-64884258Y184803858D02*
X-64884258Y184575286D01*
X-64884258Y184575286D02*
X-64827115Y184461000D01*
X-64827115Y184461000D02*
X-64769972Y184403858D01*
X-64769972Y184403858D02*
X-64598543Y184289572D01*
X-64598543Y184289572D02*
X-64369972Y184232429D01*
X-64369972Y184232429D02*
X-63912829Y184232429D01*
X-63912829Y184232429D02*
X-63798543Y184289572D01*
X-63798543Y184289572D02*
X-63741400Y184346715D01*
X-63741400Y184346715D02*
X-63684258Y184461000D01*
X-63684258Y184461000D02*
X-63684258Y184689572D01*
X-63684258Y184689572D02*
X-63741400Y184803858D01*
X-63741400Y184803858D02*
X-63798543Y184861000D01*
X-63798543Y184861000D02*
X-63912829Y184918143D01*
X-63912829Y184918143D02*
X-64198543Y184918143D01*
X-64198543Y184918143D02*
X-64312829Y184861000D01*
X-64312829Y184861000D02*
X-64369972Y184803858D01*
X-64369972Y184803858D02*
X-64427115Y184689572D01*
X-64427115Y184689572D02*
X-64427115Y184461000D01*
X-64427115Y184461000D02*
X-64369972Y184346715D01*
X-64369972Y184346715D02*
X-64312829Y184289572D01*
X-64312829Y184289572D02*
X-64198543Y184232429D01*
X55540658Y107786742D02*
X55540658Y108643885D01*
X55540658Y108643885D02*
X55597801Y108815314D01*
X55597801Y108815314D02*
X55712087Y108929600D01*
X55712087Y108929600D02*
X55883515Y108986742D01*
X55883515Y108986742D02*
X55997801Y108986742D01*
X54397801Y108986742D02*
X54969229Y108986742D01*
X54969229Y108986742D02*
X54969229Y107786742D01*
X53312086Y108872457D02*
X53369229Y108929600D01*
X53369229Y108929600D02*
X53540657Y108986742D01*
X53540657Y108986742D02*
X53654943Y108986742D01*
X53654943Y108986742D02*
X53826372Y108929600D01*
X53826372Y108929600D02*
X53940657Y108815314D01*
X53940657Y108815314D02*
X53997800Y108701028D01*
X53997800Y108701028D02*
X54054943Y108472457D01*
X54054943Y108472457D02*
X54054943Y108301028D01*
X54054943Y108301028D02*
X53997800Y108072457D01*
X53997800Y108072457D02*
X53940657Y107958171D01*
X53940657Y107958171D02*
X53826372Y107843885D01*
X53826372Y107843885D02*
X53654943Y107786742D01*
X53654943Y107786742D02*
X53540657Y107786742D01*
X53540657Y107786742D02*
X53369229Y107843885D01*
X53369229Y107843885D02*
X53312086Y107901028D01*
X52454943Y107786742D02*
X52454943Y108643885D01*
X52454943Y108643885D02*
X52512086Y108815314D01*
X52512086Y108815314D02*
X52626372Y108929600D01*
X52626372Y108929600D02*
X52797800Y108986742D01*
X52797800Y108986742D02*
X52912086Y108986742D01*
X51312086Y108986742D02*
X51883514Y108986742D01*
X51883514Y108986742D02*
X51883514Y107786742D01*
X50226371Y108872457D02*
X50283514Y108929600D01*
X50283514Y108929600D02*
X50454942Y108986742D01*
X50454942Y108986742D02*
X50569228Y108986742D01*
X50569228Y108986742D02*
X50740657Y108929600D01*
X50740657Y108929600D02*
X50854942Y108815314D01*
X50854942Y108815314D02*
X50912085Y108701028D01*
X50912085Y108701028D02*
X50969228Y108472457D01*
X50969228Y108472457D02*
X50969228Y108301028D01*
X50969228Y108301028D02*
X50912085Y108072457D01*
X50912085Y108072457D02*
X50854942Y107958171D01*
X50854942Y107958171D02*
X50740657Y107843885D01*
X50740657Y107843885D02*
X50569228Y107786742D01*
X50569228Y107786742D02*
X50454942Y107786742D01*
X50454942Y107786742D02*
X50283514Y107843885D01*
X50283514Y107843885D02*
X50226371Y107901028D01*
X49369228Y107786742D02*
X49369228Y108643885D01*
X49369228Y108643885D02*
X49426371Y108815314D01*
X49426371Y108815314D02*
X49540657Y108929600D01*
X49540657Y108929600D02*
X49712085Y108986742D01*
X49712085Y108986742D02*
X49826371Y108986742D01*
X48226371Y108986742D02*
X48797799Y108986742D01*
X48797799Y108986742D02*
X48797799Y107786742D01*
X47140656Y108872457D02*
X47197799Y108929600D01*
X47197799Y108929600D02*
X47369227Y108986742D01*
X47369227Y108986742D02*
X47483513Y108986742D01*
X47483513Y108986742D02*
X47654942Y108929600D01*
X47654942Y108929600D02*
X47769227Y108815314D01*
X47769227Y108815314D02*
X47826370Y108701028D01*
X47826370Y108701028D02*
X47883513Y108472457D01*
X47883513Y108472457D02*
X47883513Y108301028D01*
X47883513Y108301028D02*
X47826370Y108072457D01*
X47826370Y108072457D02*
X47769227Y107958171D01*
X47769227Y107958171D02*
X47654942Y107843885D01*
X47654942Y107843885D02*
X47483513Y107786742D01*
X47483513Y107786742D02*
X47369227Y107786742D01*
X47369227Y107786742D02*
X47197799Y107843885D01*
X47197799Y107843885D02*
X47140656Y107901028D01*
X46283513Y107786742D02*
X46283513Y108643885D01*
X46283513Y108643885D02*
X46340656Y108815314D01*
X46340656Y108815314D02*
X46454942Y108929600D01*
X46454942Y108929600D02*
X46626370Y108986742D01*
X46626370Y108986742D02*
X46740656Y108986742D01*
X45140656Y108986742D02*
X45712084Y108986742D01*
X45712084Y108986742D02*
X45712084Y107786742D01*
X44054941Y108872457D02*
X44112084Y108929600D01*
X44112084Y108929600D02*
X44283512Y108986742D01*
X44283512Y108986742D02*
X44397798Y108986742D01*
X44397798Y108986742D02*
X44569227Y108929600D01*
X44569227Y108929600D02*
X44683512Y108815314D01*
X44683512Y108815314D02*
X44740655Y108701028D01*
X44740655Y108701028D02*
X44797798Y108472457D01*
X44797798Y108472457D02*
X44797798Y108301028D01*
X44797798Y108301028D02*
X44740655Y108072457D01*
X44740655Y108072457D02*
X44683512Y107958171D01*
X44683512Y107958171D02*
X44569227Y107843885D01*
X44569227Y107843885D02*
X44397798Y107786742D01*
X44397798Y107786742D02*
X44283512Y107786742D01*
X44283512Y107786742D02*
X44112084Y107843885D01*
X44112084Y107843885D02*
X44054941Y107901028D01*
D11*
X17331132Y105286875D02*
X17140656Y105286875D01*
X17140656Y105286875D02*
X17045418Y105334494D01*
X17045418Y105334494D02*
X16950180Y105429732D01*
X16950180Y105429732D02*
X16902561Y105620208D01*
X16902561Y105620208D02*
X16902561Y105953541D01*
X16902561Y105953541D02*
X16950180Y106144017D01*
X16950180Y106144017D02*
X17045418Y106239256D01*
X17045418Y106239256D02*
X17140656Y106286875D01*
X17140656Y106286875D02*
X17331132Y106286875D01*
X17331132Y106286875D02*
X17426370Y106239256D01*
X17426370Y106239256D02*
X17521608Y106144017D01*
X17521608Y106144017D02*
X17569227Y105953541D01*
X17569227Y105953541D02*
X17569227Y105620208D01*
X17569227Y105620208D02*
X17521608Y105429732D01*
X17521608Y105429732D02*
X17426370Y105334494D01*
X17426370Y105334494D02*
X17331132Y105286875D01*
X16473989Y106286875D02*
X16473989Y105286875D01*
X16473989Y105286875D02*
X16093037Y105286875D01*
X16093037Y105286875D02*
X15997799Y105334494D01*
X15997799Y105334494D02*
X15950180Y105382113D01*
X15950180Y105382113D02*
X15902561Y105477351D01*
X15902561Y105477351D02*
X15902561Y105620208D01*
X15902561Y105620208D02*
X15950180Y105715446D01*
X15950180Y105715446D02*
X15997799Y105763065D01*
X15997799Y105763065D02*
X16093037Y105810684D01*
X16093037Y105810684D02*
X16473989Y105810684D01*
X15616846Y105286875D02*
X15045418Y105286875D01*
X15331132Y106286875D02*
X15331132Y105286875D01*
X14712084Y106286875D02*
X14712084Y105286875D01*
X14045418Y105286875D02*
X13854942Y105286875D01*
X13854942Y105286875D02*
X13759704Y105334494D01*
X13759704Y105334494D02*
X13664466Y105429732D01*
X13664466Y105429732D02*
X13616847Y105620208D01*
X13616847Y105620208D02*
X13616847Y105953541D01*
X13616847Y105953541D02*
X13664466Y106144017D01*
X13664466Y106144017D02*
X13759704Y106239256D01*
X13759704Y106239256D02*
X13854942Y106286875D01*
X13854942Y106286875D02*
X14045418Y106286875D01*
X14045418Y106286875D02*
X14140656Y106239256D01*
X14140656Y106239256D02*
X14235894Y106144017D01*
X14235894Y106144017D02*
X14283513Y105953541D01*
X14283513Y105953541D02*
X14283513Y105620208D01*
X14283513Y105620208D02*
X14235894Y105429732D01*
X14235894Y105429732D02*
X14140656Y105334494D01*
X14140656Y105334494D02*
X14045418Y105286875D01*
X13188275Y106286875D02*
X13188275Y105286875D01*
X13188275Y105286875D02*
X12616847Y106286875D01*
X12616847Y106286875D02*
X12616847Y105286875D01*
X12188275Y106001160D02*
X11712085Y106001160D01*
X12283513Y106286875D02*
X11950180Y105286875D01*
X11950180Y105286875D02*
X11616847Y106286875D01*
X10807323Y106286875D02*
X11283513Y106286875D01*
X11283513Y106286875D02*
X11283513Y105286875D01*
X10473989Y106191636D02*
X10426370Y106239256D01*
X10426370Y106239256D02*
X10473989Y106286875D01*
X10473989Y106286875D02*
X10521608Y106239256D01*
X10521608Y106239256D02*
X10473989Y106191636D01*
X10473989Y106191636D02*
X10473989Y106286875D01*
X10473989Y105667827D02*
X10426370Y105715446D01*
X10426370Y105715446D02*
X10473989Y105763065D01*
X10473989Y105763065D02*
X10521608Y105715446D01*
X10521608Y105715446D02*
X10473989Y105667827D01*
X10473989Y105667827D02*
X10473989Y105763065D01*
X18093037Y107896819D02*
X18093037Y106896819D01*
X18093037Y106896819D02*
X17854942Y106896819D01*
X17854942Y106896819D02*
X17712085Y106944438D01*
X17712085Y106944438D02*
X17616847Y107039676D01*
X17616847Y107039676D02*
X17569228Y107134914D01*
X17569228Y107134914D02*
X17521609Y107325390D01*
X17521609Y107325390D02*
X17521609Y107468247D01*
X17521609Y107468247D02*
X17569228Y107658723D01*
X17569228Y107658723D02*
X17616847Y107753961D01*
X17616847Y107753961D02*
X17712085Y107849200D01*
X17712085Y107849200D02*
X17854942Y107896819D01*
X17854942Y107896819D02*
X18093037Y107896819D01*
X16521609Y107896819D02*
X16854942Y107420628D01*
X17093037Y107896819D02*
X17093037Y106896819D01*
X17093037Y106896819D02*
X16712085Y106896819D01*
X16712085Y106896819D02*
X16616847Y106944438D01*
X16616847Y106944438D02*
X16569228Y106992057D01*
X16569228Y106992057D02*
X16521609Y107087295D01*
X16521609Y107087295D02*
X16521609Y107230152D01*
X16521609Y107230152D02*
X16569228Y107325390D01*
X16569228Y107325390D02*
X16616847Y107373009D01*
X16616847Y107373009D02*
X16712085Y107420628D01*
X16712085Y107420628D02*
X17093037Y107420628D01*
X16093037Y107896819D02*
X16093037Y106896819D01*
X15140657Y107896819D02*
X15616847Y107896819D01*
X15616847Y107896819D02*
X15616847Y106896819D01*
X14331133Y107896819D02*
X14807323Y107896819D01*
X14807323Y107896819D02*
X14807323Y106896819D01*
X13235894Y107896819D02*
X13235894Y106896819D01*
X13235894Y107373009D02*
X12664466Y107373009D01*
X12664466Y107896819D02*
X12664466Y106896819D01*
X11997799Y106896819D02*
X11807323Y106896819D01*
X11807323Y106896819D02*
X11712085Y106944438D01*
X11712085Y106944438D02*
X11616847Y107039676D01*
X11616847Y107039676D02*
X11569228Y107230152D01*
X11569228Y107230152D02*
X11569228Y107563485D01*
X11569228Y107563485D02*
X11616847Y107753961D01*
X11616847Y107753961D02*
X11712085Y107849200D01*
X11712085Y107849200D02*
X11807323Y107896819D01*
X11807323Y107896819D02*
X11997799Y107896819D01*
X11997799Y107896819D02*
X12093037Y107849200D01*
X12093037Y107849200D02*
X12188275Y107753961D01*
X12188275Y107753961D02*
X12235894Y107563485D01*
X12235894Y107563485D02*
X12235894Y107230152D01*
X12235894Y107230152D02*
X12188275Y107039676D01*
X12188275Y107039676D02*
X12093037Y106944438D01*
X12093037Y106944438D02*
X11997799Y106896819D01*
X10664466Y107896819D02*
X11140656Y107896819D01*
X11140656Y107896819D02*
X11140656Y106896819D01*
X10331132Y107373009D02*
X9997799Y107373009D01*
X9854942Y107896819D02*
X10331132Y107896819D01*
X10331132Y107896819D02*
X10331132Y106896819D01*
X10331132Y106896819D02*
X9854942Y106896819D01*
X20045418Y109506763D02*
X20045418Y108506763D01*
X20045418Y108506763D02*
X19664466Y108506763D01*
X19664466Y108506763D02*
X19569228Y108554382D01*
X19569228Y108554382D02*
X19521609Y108602001D01*
X19521609Y108602001D02*
X19473990Y108697239D01*
X19473990Y108697239D02*
X19473990Y108840096D01*
X19473990Y108840096D02*
X19521609Y108935334D01*
X19521609Y108935334D02*
X19569228Y108982953D01*
X19569228Y108982953D02*
X19664466Y109030572D01*
X19664466Y109030572D02*
X20045418Y109030572D01*
X19045418Y109506763D02*
X19045418Y108506763D01*
X19045418Y108982953D02*
X18473990Y108982953D01*
X18473990Y109506763D02*
X18473990Y108506763D01*
X17807323Y108506763D02*
X17616847Y108506763D01*
X17616847Y108506763D02*
X17521609Y108554382D01*
X17521609Y108554382D02*
X17426371Y108649620D01*
X17426371Y108649620D02*
X17378752Y108840096D01*
X17378752Y108840096D02*
X17378752Y109173429D01*
X17378752Y109173429D02*
X17426371Y109363905D01*
X17426371Y109363905D02*
X17521609Y109459144D01*
X17521609Y109459144D02*
X17616847Y109506763D01*
X17616847Y109506763D02*
X17807323Y109506763D01*
X17807323Y109506763D02*
X17902561Y109459144D01*
X17902561Y109459144D02*
X17997799Y109363905D01*
X17997799Y109363905D02*
X18045418Y109173429D01*
X18045418Y109173429D02*
X18045418Y108840096D01*
X18045418Y108840096D02*
X17997799Y108649620D01*
X17997799Y108649620D02*
X17902561Y108554382D01*
X17902561Y108554382D02*
X17807323Y108506763D01*
X16950180Y109506763D02*
X16950180Y108506763D01*
X16950180Y108506763D02*
X16378752Y109506763D01*
X16378752Y109506763D02*
X16378752Y108506763D01*
X15902561Y108982953D02*
X15569228Y108982953D01*
X15426371Y109506763D02*
X15902561Y109506763D01*
X15902561Y109506763D02*
X15902561Y108506763D01*
X15902561Y108506763D02*
X15426371Y108506763D01*
X15045418Y109459144D02*
X14902561Y109506763D01*
X14902561Y109506763D02*
X14664466Y109506763D01*
X14664466Y109506763D02*
X14569228Y109459144D01*
X14569228Y109459144D02*
X14521609Y109411524D01*
X14521609Y109411524D02*
X14473990Y109316286D01*
X14473990Y109316286D02*
X14473990Y109221048D01*
X14473990Y109221048D02*
X14521609Y109125810D01*
X14521609Y109125810D02*
X14569228Y109078191D01*
X14569228Y109078191D02*
X14664466Y109030572D01*
X14664466Y109030572D02*
X14854942Y108982953D01*
X14854942Y108982953D02*
X14950180Y108935334D01*
X14950180Y108935334D02*
X14997799Y108887715D01*
X14997799Y108887715D02*
X15045418Y108792477D01*
X15045418Y108792477D02*
X15045418Y108697239D01*
X15045418Y108697239D02*
X14997799Y108602001D01*
X14997799Y108602001D02*
X14950180Y108554382D01*
X14950180Y108554382D02*
X14854942Y108506763D01*
X14854942Y108506763D02*
X14616847Y108506763D01*
X14616847Y108506763D02*
X14473990Y108554382D01*
X13426370Y108506763D02*
X13093037Y109506763D01*
X13093037Y109506763D02*
X12759704Y108506763D01*
X12235894Y108506763D02*
X12045418Y108506763D01*
X12045418Y108506763D02*
X11950180Y108554382D01*
X11950180Y108554382D02*
X11854942Y108649620D01*
X11854942Y108649620D02*
X11807323Y108840096D01*
X11807323Y108840096D02*
X11807323Y109173429D01*
X11807323Y109173429D02*
X11854942Y109363905D01*
X11854942Y109363905D02*
X11950180Y109459144D01*
X11950180Y109459144D02*
X12045418Y109506763D01*
X12045418Y109506763D02*
X12235894Y109506763D01*
X12235894Y109506763D02*
X12331132Y109459144D01*
X12331132Y109459144D02*
X12426370Y109363905D01*
X12426370Y109363905D02*
X12473989Y109173429D01*
X12473989Y109173429D02*
X12473989Y108840096D01*
X12473989Y108840096D02*
X12426370Y108649620D01*
X12426370Y108649620D02*
X12331132Y108554382D01*
X12331132Y108554382D02*
X12235894Y108506763D01*
X10902561Y109506763D02*
X11378751Y109506763D01*
X11378751Y109506763D02*
X11378751Y108506763D01*
X10569227Y108506763D02*
X10569227Y109316286D01*
X10569227Y109316286D02*
X10521608Y109411524D01*
X10521608Y109411524D02*
X10473989Y109459144D01*
X10473989Y109459144D02*
X10378751Y109506763D01*
X10378751Y109506763D02*
X10188275Y109506763D01*
X10188275Y109506763D02*
X10093037Y109459144D01*
X10093037Y109459144D02*
X10045418Y109411524D01*
X10045418Y109411524D02*
X9997799Y109316286D01*
X9997799Y109316286D02*
X9997799Y108506763D01*
X9521608Y109506763D02*
X9521608Y108506763D01*
X9521608Y108506763D02*
X9188275Y109221048D01*
X9188275Y109221048D02*
X8854942Y108506763D01*
X8854942Y108506763D02*
X8854942Y109506763D01*
X8378751Y108982953D02*
X8045418Y108982953D01*
X7902561Y109506763D02*
X8378751Y109506763D01*
X8378751Y109506763D02*
X8378751Y108506763D01*
X8378751Y108506763D02*
X7902561Y108506763D01*
D10*
X43954941Y257497257D02*
X43954941Y256640114D01*
X43954941Y256640114D02*
X43897798Y256468685D01*
X43897798Y256468685D02*
X43783512Y256354400D01*
X43783512Y256354400D02*
X43612084Y256297257D01*
X43612084Y256297257D02*
X43497798Y256297257D01*
X45097798Y256297257D02*
X44526370Y256297257D01*
X44526370Y256297257D02*
X44526370Y257497257D01*
X46183513Y256411542D02*
X46126370Y256354400D01*
X46126370Y256354400D02*
X45954942Y256297257D01*
X45954942Y256297257D02*
X45840656Y256297257D01*
X45840656Y256297257D02*
X45669227Y256354400D01*
X45669227Y256354400D02*
X45554942Y256468685D01*
X45554942Y256468685D02*
X45497799Y256582971D01*
X45497799Y256582971D02*
X45440656Y256811542D01*
X45440656Y256811542D02*
X45440656Y256982971D01*
X45440656Y256982971D02*
X45497799Y257211542D01*
X45497799Y257211542D02*
X45554942Y257325828D01*
X45554942Y257325828D02*
X45669227Y257440114D01*
X45669227Y257440114D02*
X45840656Y257497257D01*
X45840656Y257497257D02*
X45954942Y257497257D01*
X45954942Y257497257D02*
X46126370Y257440114D01*
X46126370Y257440114D02*
X46183513Y257382971D01*
X47040656Y257497257D02*
X47040656Y256640114D01*
X47040656Y256640114D02*
X46983513Y256468685D01*
X46983513Y256468685D02*
X46869227Y256354400D01*
X46869227Y256354400D02*
X46697799Y256297257D01*
X46697799Y256297257D02*
X46583513Y256297257D01*
X48183513Y256297257D02*
X47612085Y256297257D01*
X47612085Y256297257D02*
X47612085Y257497257D01*
X49269228Y256411542D02*
X49212085Y256354400D01*
X49212085Y256354400D02*
X49040657Y256297257D01*
X49040657Y256297257D02*
X48926371Y256297257D01*
X48926371Y256297257D02*
X48754942Y256354400D01*
X48754942Y256354400D02*
X48640657Y256468685D01*
X48640657Y256468685D02*
X48583514Y256582971D01*
X48583514Y256582971D02*
X48526371Y256811542D01*
X48526371Y256811542D02*
X48526371Y256982971D01*
X48526371Y256982971D02*
X48583514Y257211542D01*
X48583514Y257211542D02*
X48640657Y257325828D01*
X48640657Y257325828D02*
X48754942Y257440114D01*
X48754942Y257440114D02*
X48926371Y257497257D01*
X48926371Y257497257D02*
X49040657Y257497257D01*
X49040657Y257497257D02*
X49212085Y257440114D01*
X49212085Y257440114D02*
X49269228Y257382971D01*
X50126371Y257497257D02*
X50126371Y256640114D01*
X50126371Y256640114D02*
X50069228Y256468685D01*
X50069228Y256468685D02*
X49954942Y256354400D01*
X49954942Y256354400D02*
X49783514Y256297257D01*
X49783514Y256297257D02*
X49669228Y256297257D01*
X51269228Y256297257D02*
X50697800Y256297257D01*
X50697800Y256297257D02*
X50697800Y257497257D01*
X52354943Y256411542D02*
X52297800Y256354400D01*
X52297800Y256354400D02*
X52126372Y256297257D01*
X52126372Y256297257D02*
X52012086Y256297257D01*
X52012086Y256297257D02*
X51840657Y256354400D01*
X51840657Y256354400D02*
X51726372Y256468685D01*
X51726372Y256468685D02*
X51669229Y256582971D01*
X51669229Y256582971D02*
X51612086Y256811542D01*
X51612086Y256811542D02*
X51612086Y256982971D01*
X51612086Y256982971D02*
X51669229Y257211542D01*
X51669229Y257211542D02*
X51726372Y257325828D01*
X51726372Y257325828D02*
X51840657Y257440114D01*
X51840657Y257440114D02*
X52012086Y257497257D01*
X52012086Y257497257D02*
X52126372Y257497257D01*
X52126372Y257497257D02*
X52297800Y257440114D01*
X52297800Y257440114D02*
X52354943Y257382971D01*
X53212086Y257497257D02*
X53212086Y256640114D01*
X53212086Y256640114D02*
X53154943Y256468685D01*
X53154943Y256468685D02*
X53040657Y256354400D01*
X53040657Y256354400D02*
X52869229Y256297257D01*
X52869229Y256297257D02*
X52754943Y256297257D01*
X54354943Y256297257D02*
X53783515Y256297257D01*
X53783515Y256297257D02*
X53783515Y257497257D01*
X55440658Y256411542D02*
X55383515Y256354400D01*
X55383515Y256354400D02*
X55212087Y256297257D01*
X55212087Y256297257D02*
X55097801Y256297257D01*
X55097801Y256297257D02*
X54926372Y256354400D01*
X54926372Y256354400D02*
X54812087Y256468685D01*
X54812087Y256468685D02*
X54754944Y256582971D01*
X54754944Y256582971D02*
X54697801Y256811542D01*
X54697801Y256811542D02*
X54697801Y256982971D01*
X54697801Y256982971D02*
X54754944Y257211542D01*
X54754944Y257211542D02*
X54812087Y257325828D01*
X54812087Y257325828D02*
X54926372Y257440114D01*
X54926372Y257440114D02*
X55097801Y257497257D01*
X55097801Y257497257D02*
X55212087Y257497257D01*
X55212087Y257497257D02*
X55383515Y257440114D01*
X55383515Y257440114D02*
X55440658Y257382971D01*
X162453057Y213284858D02*
X161595914Y213284858D01*
X161595914Y213284858D02*
X161424485Y213342001D01*
X161424485Y213342001D02*
X161310200Y213456287D01*
X161310200Y213456287D02*
X161253057Y213627715D01*
X161253057Y213627715D02*
X161253057Y213742001D01*
X161253057Y212142001D02*
X161253057Y212713429D01*
X161253057Y212713429D02*
X162453057Y212713429D01*
X161367342Y211056286D02*
X161310200Y211113429D01*
X161310200Y211113429D02*
X161253057Y211284857D01*
X161253057Y211284857D02*
X161253057Y211399143D01*
X161253057Y211399143D02*
X161310200Y211570572D01*
X161310200Y211570572D02*
X161424485Y211684857D01*
X161424485Y211684857D02*
X161538771Y211742000D01*
X161538771Y211742000D02*
X161767342Y211799143D01*
X161767342Y211799143D02*
X161938771Y211799143D01*
X161938771Y211799143D02*
X162167342Y211742000D01*
X162167342Y211742000D02*
X162281628Y211684857D01*
X162281628Y211684857D02*
X162395914Y211570572D01*
X162395914Y211570572D02*
X162453057Y211399143D01*
X162453057Y211399143D02*
X162453057Y211284857D01*
X162453057Y211284857D02*
X162395914Y211113429D01*
X162395914Y211113429D02*
X162338771Y211056286D01*
X162453057Y210199143D02*
X161595914Y210199143D01*
X161595914Y210199143D02*
X161424485Y210256286D01*
X161424485Y210256286D02*
X161310200Y210370572D01*
X161310200Y210370572D02*
X161253057Y210542000D01*
X161253057Y210542000D02*
X161253057Y210656286D01*
X161253057Y209056286D02*
X161253057Y209627714D01*
X161253057Y209627714D02*
X162453057Y209627714D01*
X161367342Y207970571D02*
X161310200Y208027714D01*
X161310200Y208027714D02*
X161253057Y208199142D01*
X161253057Y208199142D02*
X161253057Y208313428D01*
X161253057Y208313428D02*
X161310200Y208484857D01*
X161310200Y208484857D02*
X161424485Y208599142D01*
X161424485Y208599142D02*
X161538771Y208656285D01*
X161538771Y208656285D02*
X161767342Y208713428D01*
X161767342Y208713428D02*
X161938771Y208713428D01*
X161938771Y208713428D02*
X162167342Y208656285D01*
X162167342Y208656285D02*
X162281628Y208599142D01*
X162281628Y208599142D02*
X162395914Y208484857D01*
X162395914Y208484857D02*
X162453057Y208313428D01*
X162453057Y208313428D02*
X162453057Y208199142D01*
X162453057Y208199142D02*
X162395914Y208027714D01*
X162395914Y208027714D02*
X162338771Y207970571D01*
X162453057Y207113428D02*
X161595914Y207113428D01*
X161595914Y207113428D02*
X161424485Y207170571D01*
X161424485Y207170571D02*
X161310200Y207284857D01*
X161310200Y207284857D02*
X161253057Y207456285D01*
X161253057Y207456285D02*
X161253057Y207570571D01*
X161253057Y205970571D02*
X161253057Y206541999D01*
X161253057Y206541999D02*
X162453057Y206541999D01*
X161367342Y204884856D02*
X161310200Y204941999D01*
X161310200Y204941999D02*
X161253057Y205113427D01*
X161253057Y205113427D02*
X161253057Y205227713D01*
X161253057Y205227713D02*
X161310200Y205399142D01*
X161310200Y205399142D02*
X161424485Y205513427D01*
X161424485Y205513427D02*
X161538771Y205570570D01*
X161538771Y205570570D02*
X161767342Y205627713D01*
X161767342Y205627713D02*
X161938771Y205627713D01*
X161938771Y205627713D02*
X162167342Y205570570D01*
X162167342Y205570570D02*
X162281628Y205513427D01*
X162281628Y205513427D02*
X162395914Y205399142D01*
X162395914Y205399142D02*
X162453057Y205227713D01*
X162453057Y205227713D02*
X162453057Y205113427D01*
X162453057Y205113427D02*
X162395914Y204941999D01*
X162395914Y204941999D02*
X162338771Y204884856D01*
X162453057Y204027713D02*
X161595914Y204027713D01*
X161595914Y204027713D02*
X161424485Y204084856D01*
X161424485Y204084856D02*
X161310200Y204199142D01*
X161310200Y204199142D02*
X161253057Y204370570D01*
X161253057Y204370570D02*
X161253057Y204484856D01*
X161253057Y202884856D02*
X161253057Y203456284D01*
X161253057Y203456284D02*
X162453057Y203456284D01*
X161367342Y201799141D02*
X161310200Y201856284D01*
X161310200Y201856284D02*
X161253057Y202027712D01*
X161253057Y202027712D02*
X161253057Y202141998D01*
X161253057Y202141998D02*
X161310200Y202313427D01*
X161310200Y202313427D02*
X161424485Y202427712D01*
X161424485Y202427712D02*
X161538771Y202484855D01*
X161538771Y202484855D02*
X161767342Y202541998D01*
X161767342Y202541998D02*
X161938771Y202541998D01*
X161938771Y202541998D02*
X162167342Y202484855D01*
X162167342Y202484855D02*
X162281628Y202427712D01*
X162281628Y202427712D02*
X162395914Y202313427D01*
X162395914Y202313427D02*
X162453057Y202141998D01*
X162453057Y202141998D02*
X162453057Y202027712D01*
X162453057Y202027712D02*
X162395914Y201856284D01*
X162395914Y201856284D02*
X162338771Y201799141D01*
D12*
X384227176Y16026028D02*
X383828217Y15638015D01*
D13*
X400000000Y17565712D02*
X400000000Y14070455D01*
D14*
X333300000Y-50000000D02*
G75*
G02*
X332700000Y-50000000I-300000J0D01*
G01*
X332700000Y-50000000D02*
G75*
G02*
X333300000Y-50000000I300000J0D01*
G01*
D12*
X385025092Y16026028D02*
X384227176Y16026028D01*
D14*
X354300000Y-56928203D02*
G75*
G02*
X353700000Y-56928203I-300000J0D01*
G01*
X353700000Y-56928203D02*
G75*
G02*
X354300000Y-56928203I300000J0D01*
G01*
D15*
X295375000Y-37595000D02*
G75*
G02*
X295375000Y-33144972I38J2225014D01*
G01*
X304625000Y-33145000D02*
G75*
G02*
X304625000Y-37594972I38J-2224986D01*
G01*
D12*
X377703228Y15247909D02*
X377304271Y15635919D01*
D14*
X358300000Y-25000000D02*
G75*
G02*
X357700000Y-25000000I-300000J0D01*
G01*
X357700000Y-25000000D02*
G75*
G02*
X358300000Y-25000000I300000J0D01*
G01*
X292300000Y0D02*
G75*
G02*
X291700000Y0I-300000J0D01*
G01*
X291700000Y0D02*
G75*
G02*
X292300000Y0I300000J0D01*
G01*
X357228203Y-54000000D02*
G75*
G02*
X356628203Y-54000000I-300000J0D01*
G01*
X356628203Y-54000000D02*
G75*
G02*
X357228203Y-54000000I300000J0D01*
G01*
D15*
X395375000Y-62595000D02*
G75*
G02*
X395375000Y-58144972I38J2225014D01*
G01*
D14*
X296300000Y-6928203D02*
G75*
G02*
X295700000Y-6928203I-300000J0D01*
G01*
X295700000Y-6928203D02*
G75*
G02*
X296300000Y-6928203I300000J0D01*
G01*
X367300000Y-25000000D02*
G75*
G02*
X366700000Y-25000000I-300000J0D01*
G01*
X366700000Y-25000000D02*
G75*
G02*
X367300000Y-25000000I300000J0D01*
G01*
X382228203Y-21000000D02*
G75*
G02*
X381628203Y-21000000I-300000J0D01*
G01*
X381628203Y-21000000D02*
G75*
G02*
X382228203Y-21000000I300000J0D01*
G01*
X296300000Y-56928203D02*
G75*
G02*
X295700000Y-56928203I-300000J0D01*
G01*
X295700000Y-56928203D02*
G75*
G02*
X296300000Y-56928203I300000J0D01*
G01*
D15*
X369525029Y-9144986D02*
G75*
G02*
X369525029Y-13594986I9J-2225000D01*
G01*
D13*
X396734566Y16401685D02*
X397333005Y16401685D01*
D12*
X382230219Y14471875D02*
X383030301Y14471875D01*
D14*
X307228203Y-46000000D02*
G75*
G02*
X306628203Y-46000000I-300000J0D01*
G01*
X306628203Y-46000000D02*
G75*
G02*
X307228203Y-46000000I300000J0D01*
G01*
D15*
X345375000Y-33145000D02*
X354625000Y-33145000D01*
D14*
X383300000Y-50000000D02*
G75*
G02*
X382700000Y-50000000I-300000J0D01*
G01*
X382700000Y-50000000D02*
G75*
G02*
X383300000Y-50000000I300000J0D01*
G01*
X304300000Y-31928203D02*
G75*
G02*
X303700000Y-31928203I-300000J0D01*
G01*
X303700000Y-31928203D02*
G75*
G02*
X304300000Y-31928203I300000J0D01*
G01*
D12*
X380235430Y14471875D02*
X381033347Y14471875D01*
D14*
X392300000Y-50000000D02*
G75*
G02*
X391700000Y-50000000I-300000J0D01*
G01*
X391700000Y-50000000D02*
G75*
G02*
X392300000Y-50000000I300000J0D01*
G01*
X407228203Y4000000D02*
G75*
G02*
X406628203Y4000000I-300000J0D01*
G01*
X406628203Y4000000D02*
G75*
G02*
X407228203Y4000000I300000J0D01*
G01*
D13*
X397333010Y16401685D02*
X397333010Y14070455D01*
D12*
X382629175Y16802046D02*
X382629175Y14471875D01*
D15*
X360275026Y-47094986D02*
G75*
G02*
X360275026Y-42644986I-1988J2225000D01*
G01*
D13*
X393905773Y15795474D02*
X395137439Y15795474D01*
D15*
X379625000Y-37595000D02*
X370375000Y-37595000D01*
D14*
X292300000Y-50000000D02*
G75*
G02*
X291700000Y-50000000I-300000J0D01*
G01*
X291700000Y-50000000D02*
G75*
G02*
X292300000Y-50000000I300000J0D01*
G01*
X304300000Y-18071797D02*
G75*
G02*
X303700000Y-18071797I-300000J0D01*
G01*
X303700000Y-18071797D02*
G75*
G02*
X304300000Y-18071797I300000J0D01*
G01*
D15*
X360275029Y-13594986D02*
G75*
G02*
X360275029Y-9144986I9J2225000D01*
G01*
D14*
X354300000Y-31928203D02*
G75*
G02*
X353700000Y-31928203I-300000J0D01*
G01*
X353700000Y-31928203D02*
G75*
G02*
X354300000Y-31928203I300000J0D01*
G01*
X400300000Y-42000000D02*
G75*
G02*
X399700000Y-42000000I-300000J0D01*
G01*
X399700000Y-42000000D02*
G75*
G02*
X400300000Y-42000000I300000J0D01*
G01*
X343371797Y-21000000D02*
G75*
G02*
X342771797Y-21000000I-300000J0D01*
G01*
X342771797Y-21000000D02*
G75*
G02*
X343371797Y-21000000I300000J0D01*
G01*
D15*
X404625000Y-58145000D02*
G75*
G02*
X404625000Y-62594972I38J-2224986D01*
G01*
D14*
X392300000Y0D02*
G75*
G02*
X391700000Y0I-300000J0D01*
G01*
X391700000Y0D02*
G75*
G02*
X392300000Y0I300000J0D01*
G01*
X308300000Y-25000000D02*
G75*
G02*
X307700000Y-25000000I-300000J0D01*
G01*
X307700000Y-25000000D02*
G75*
G02*
X308300000Y-25000000I300000J0D01*
G01*
D13*
X394539005Y17565712D02*
X393342127Y17565712D01*
D14*
X296300000Y6928203D02*
G75*
G02*
X295700000Y6928203I-300000J0D01*
G01*
X295700000Y6928203D02*
G75*
G02*
X296300000Y6928203I300000J0D01*
G01*
D12*
X387819959Y14471875D02*
X388617878Y14471875D01*
X378501145Y14471888D02*
X378900103Y14859898D01*
D15*
X364625026Y-42644986D02*
G75*
G02*
X364625000Y-47094986I-288J-2225000D01*
G01*
X320375000Y-33145000D02*
X329625000Y-33145000D01*
D14*
X379300000Y-43071797D02*
G75*
G02*
X378700000Y-43071797I-300000J0D01*
G01*
X378700000Y-43071797D02*
G75*
G02*
X379300000Y-43071797I300000J0D01*
G01*
X332228203Y-54000000D02*
G75*
G02*
X331628203Y-54000000I-300000J0D01*
G01*
X331628203Y-54000000D02*
G75*
G02*
X332228203Y-54000000I300000J0D01*
G01*
X379300000Y-31928203D02*
G75*
G02*
X378700000Y-31928203I-300000J0D01*
G01*
X378700000Y-31928203D02*
G75*
G02*
X379300000Y-31928203I300000J0D01*
G01*
X304300000Y-56928203D02*
G75*
G02*
X303700000Y-56928203I-300000J0D01*
G01*
X303700000Y-56928203D02*
G75*
G02*
X304300000Y-56928203I300000J0D01*
G01*
X318371797Y-21000000D02*
G75*
G02*
X317771797Y-21000000I-300000J0D01*
G01*
X317771797Y-21000000D02*
G75*
G02*
X318371797Y-21000000I300000J0D01*
G01*
X296300000Y-31928203D02*
G75*
G02*
X295700000Y-31928203I-300000J0D01*
G01*
X295700000Y-31928203D02*
G75*
G02*
X296300000Y-31928203I300000J0D01*
G01*
D13*
X402121134Y14081378D02*
X403321258Y14081378D01*
D14*
X346300000Y-43071797D02*
G75*
G02*
X345700000Y-43071797I-300000J0D01*
G01*
X345700000Y-43071797D02*
G75*
G02*
X346300000Y-43071797I300000J0D01*
G01*
D16*
G36*
X288093515Y-58620026D02*
G01*
X288182098Y-58626007D01*
X288268971Y-58635976D01*
X288354135Y-58649933D01*
X288437591Y-58667877D01*
X288519337Y-58689809D01*
X288599375Y-58715729D01*
X288677703Y-58745636D01*
X288754322Y-58779531D01*
X288829233Y-58817414D01*
X288902434Y-58859284D01*
X288973927Y-58905141D01*
X289043711Y-58954987D01*
X289111785Y-59008820D01*
X289178151Y-59066640D01*
X289242807Y-59128449D01*
X289304616Y-59193105D01*
X289362436Y-59259471D01*
X289416269Y-59327545D01*
X289466114Y-59397329D01*
X289511972Y-59468821D01*
X289553842Y-59542023D01*
X289591725Y-59616933D01*
X289625620Y-59693553D01*
X289655527Y-59771881D01*
X289681446Y-59851919D01*
X289703378Y-59933665D01*
X289721323Y-60017120D01*
X289735279Y-60102285D01*
X289745249Y-60189158D01*
X289751230Y-60277740D01*
X289753224Y-60368032D01*
X289753224Y-61535032D01*
X289752558Y-61564839D01*
X289750562Y-61594106D01*
X289747232Y-61622833D01*
X289742569Y-61651018D01*
X289736572Y-61678662D01*
X289729239Y-61705766D01*
X289720569Y-61732328D01*
X289710562Y-61758349D01*
X289699216Y-61783829D01*
X289686531Y-61808768D01*
X289672504Y-61833166D01*
X289657136Y-61857022D01*
X289640425Y-61880337D01*
X289622370Y-61903110D01*
X289602970Y-61925342D01*
X289582224Y-61947032D01*
X289560534Y-61967778D01*
X289538302Y-61987178D01*
X289515529Y-62005233D01*
X289492214Y-62021944D01*
X289468358Y-62037312D01*
X289443960Y-62051339D01*
X289419022Y-62064024D01*
X289393542Y-62075370D01*
X289367520Y-62085377D01*
X289340958Y-62094047D01*
X289313855Y-62101380D01*
X289286210Y-62107377D01*
X289258025Y-62112040D01*
X289229299Y-62115369D01*
X289200032Y-62117366D01*
X289170224Y-62118032D01*
X288786224Y-62118032D01*
X288586557Y-61918031D01*
X288586557Y-60760032D01*
X288786224Y-60559865D01*
X289315724Y-60559865D01*
X289315724Y-60368032D01*
X289314229Y-60300313D01*
X289309743Y-60233876D01*
X289302266Y-60168721D01*
X289291798Y-60104848D01*
X289278340Y-60042257D01*
X289261891Y-59980947D01*
X289242451Y-59920919D01*
X289220021Y-59862172D01*
X289194600Y-59804708D01*
X289166188Y-59748525D01*
X289134785Y-59693624D01*
X289100392Y-59640004D01*
X289063008Y-59587667D01*
X289022633Y-59536611D01*
X288979267Y-59486837D01*
X288932911Y-59438344D01*
X288884419Y-59391988D01*
X288834645Y-59348622D01*
X288783589Y-59308248D01*
X288731251Y-59270864D01*
X288677632Y-59236470D01*
X288622731Y-59205068D01*
X288566548Y-59176656D01*
X288509083Y-59151235D01*
X288450337Y-59128804D01*
X288390309Y-59109365D01*
X288328999Y-59092916D01*
X288266407Y-59079457D01*
X288202534Y-59068990D01*
X288137379Y-59061513D01*
X288070942Y-59057027D01*
X288003224Y-59055532D01*
X287935505Y-59057027D01*
X287869069Y-59061513D01*
X287803914Y-59068990D01*
X287740040Y-59079457D01*
X287677449Y-59092916D01*
X287616139Y-59109365D01*
X287556111Y-59128804D01*
X287497365Y-59151235D01*
X287439900Y-59176656D01*
X287383717Y-59205068D01*
X287328816Y-59236470D01*
X287275197Y-59270864D01*
X287222859Y-59308248D01*
X287171803Y-59348622D01*
X287122029Y-59391988D01*
X287073536Y-59438344D01*
X287027180Y-59486837D01*
X286983815Y-59536611D01*
X286943440Y-59587667D01*
X286906056Y-59640004D01*
X286871663Y-59693624D01*
X286840260Y-59748525D01*
X286811848Y-59804708D01*
X286786427Y-59862172D01*
X286763997Y-59920919D01*
X286744557Y-59980947D01*
X286728108Y-60042256D01*
X286714650Y-60104848D01*
X286704182Y-60168721D01*
X286696705Y-60233876D01*
X286692219Y-60300313D01*
X286690724Y-60368032D01*
X286690724Y-60559865D01*
X287220224Y-60559865D01*
X287419891Y-60760032D01*
X287419891Y-61918032D01*
X287220224Y-62118032D01*
X286836224Y-62118032D01*
X286806416Y-62117366D01*
X286777149Y-62115370D01*
X286748423Y-62112040D01*
X286720238Y-62107378D01*
X286692593Y-62101380D01*
X286665490Y-62094047D01*
X286638928Y-62085378D01*
X286612906Y-62075370D01*
X286587426Y-62064024D01*
X286562487Y-62051339D01*
X286538090Y-62037312D01*
X286514234Y-62021944D01*
X286490919Y-62005233D01*
X286468146Y-61987178D01*
X286445914Y-61967778D01*
X286424224Y-61947032D01*
X286403478Y-61925342D01*
X286384078Y-61903110D01*
X286366023Y-61880337D01*
X286349312Y-61857022D01*
X286333944Y-61833166D01*
X286319917Y-61808768D01*
X286307231Y-61783830D01*
X286295885Y-61758349D01*
X286285878Y-61732328D01*
X286277209Y-61705766D01*
X286269876Y-61678662D01*
X286263878Y-61651018D01*
X286259215Y-61622833D01*
X286255886Y-61594106D01*
X286253889Y-61564839D01*
X286253224Y-61535032D01*
X286253224Y-60368032D01*
X286255218Y-60277741D01*
X286261199Y-60189158D01*
X286271168Y-60102285D01*
X286285125Y-60017121D01*
X286303069Y-59933665D01*
X286325001Y-59851919D01*
X286350921Y-59771881D01*
X286380828Y-59693553D01*
X286414723Y-59616933D01*
X286452605Y-59542023D01*
X286494476Y-59468821D01*
X286540333Y-59397329D01*
X286590179Y-59327545D01*
X286644012Y-59259471D01*
X286701832Y-59193105D01*
X286763641Y-59128449D01*
X286828297Y-59066640D01*
X286894663Y-59008820D01*
X286962737Y-58954987D01*
X287032521Y-58905141D01*
X287104013Y-58859284D01*
X287177215Y-58817414D01*
X287252125Y-58779531D01*
X287328745Y-58745636D01*
X287407073Y-58715729D01*
X287487111Y-58689809D01*
X287568857Y-58667877D01*
X287652312Y-58649933D01*
X287737477Y-58635976D01*
X287824350Y-58626007D01*
X287912933Y-58620026D01*
X288003224Y-58618032D01*
X288093515Y-58620026D01*
G37*
D14*
X393371797Y-46000000D02*
G75*
G02*
X392771797Y-46000000I-300000J0D01*
G01*
X392771797Y-46000000D02*
G75*
G02*
X393371797Y-46000000I300000J0D01*
G01*
D15*
X404625000Y-33145000D02*
G75*
G02*
X404625000Y-37594972I38J-2224986D01*
G01*
D13*
X392743697Y14652469D02*
X393342140Y14070450D01*
D15*
X379625000Y-58145000D02*
G75*
G02*
X379625000Y-62594972I38J-2224986D01*
G01*
D14*
X396300000Y-56928203D02*
G75*
G02*
X395700000Y-56928203I-300000J0D01*
G01*
X395700000Y-56928203D02*
G75*
G02*
X396300000Y-56928203I300000J0D01*
G01*
D12*
X381033347Y16026028D02*
X380235430Y16026028D01*
D15*
X339625000Y-47095000D02*
X335275026Y-47094986D01*
D13*
X399401566Y17565712D02*
X400000000Y17565712D01*
D15*
X304625000Y-58145000D02*
G75*
G02*
X304625000Y-62594972I38J-2224986D01*
G01*
D12*
X386623087Y14861993D02*
X387022040Y14473985D01*
D14*
X357228203Y-46000000D02*
G75*
G02*
X356628203Y-46000000I-300000J0D01*
G01*
X356628203Y-46000000D02*
G75*
G02*
X357228203Y-46000000I300000J0D01*
G01*
X368371797Y-46000000D02*
G75*
G02*
X367771797Y-46000000I-300000J0D01*
G01*
X367771797Y-46000000D02*
G75*
G02*
X368371797Y-46000000I300000J0D01*
G01*
D15*
X354625000Y-33145000D02*
G75*
G02*
X354625000Y-37594972I38J-2224986D01*
G01*
D17*
X277542857Y22492600D02*
X278457143Y22492600D01*
D15*
X369525029Y7405014D02*
X360275029Y7405014D01*
X370375000Y-62595000D02*
G75*
G02*
X370375000Y-58144972I38J2225014D01*
G01*
X339625026Y-42644986D02*
G75*
G02*
X339625000Y-47094986I-288J-2225000D01*
G01*
D14*
X318371797Y-54000000D02*
G75*
G02*
X317771797Y-54000000I-300000J0D01*
G01*
X317771797Y-54000000D02*
G75*
G02*
X318371797Y-54000000I300000J0D01*
G01*
D15*
X360275029Y7405014D02*
G75*
G02*
X360275029Y11855014I9J2225000D01*
G01*
D13*
X397333010Y18147726D02*
X397333010Y17565707D01*
D14*
X350300000Y-42000000D02*
G75*
G02*
X349700000Y-42000000I-300000J0D01*
G01*
X349700000Y-42000000D02*
G75*
G02*
X350300000Y-42000000I300000J0D01*
G01*
X408300000Y-25000000D02*
G75*
G02*
X407700000Y-25000000I-300000J0D01*
G01*
X407700000Y-25000000D02*
G75*
G02*
X408300000Y-25000000I300000J0D01*
G01*
D15*
X369525029Y11855014D02*
G75*
G02*
X369525029Y7405014I9J-2225000D01*
G01*
X360275029Y11855014D02*
X369525029Y11855014D01*
D12*
X381432303Y15638015D02*
X381033347Y16026028D01*
D14*
X342300000Y-50000000D02*
G75*
G02*
X341700000Y-50000000I-300000J0D01*
G01*
X341700000Y-50000000D02*
G75*
G02*
X342300000Y-50000000I300000J0D01*
G01*
X304300000Y-6928203D02*
G75*
G02*
X303700000Y-6928203I-300000J0D01*
G01*
X303700000Y-6928203D02*
G75*
G02*
X304300000Y-6928203I300000J0D01*
G01*
D12*
X378900103Y14859898D02*
X378501145Y15247909D01*
D14*
X317300000Y-25000000D02*
G75*
G02*
X316700000Y-25000000I-300000J0D01*
G01*
X316700000Y-25000000D02*
G75*
G02*
X317300000Y-25000000I300000J0D01*
G01*
X375300000Y-42000000D02*
G75*
G02*
X374700000Y-42000000I-300000J0D01*
G01*
X374700000Y-42000000D02*
G75*
G02*
X375300000Y-42000000I300000J0D01*
G01*
X393371797Y-21000000D02*
G75*
G02*
X392771797Y-21000000I-300000J0D01*
G01*
X392771797Y-21000000D02*
G75*
G02*
X393371797Y-21000000I300000J0D01*
G01*
D12*
X383828217Y15638015D02*
X383828217Y14859884D01*
D15*
X320375000Y-62595000D02*
G75*
G02*
X320375000Y-58144972I38J2225014D01*
G01*
D14*
X307228203Y-29000000D02*
G75*
G02*
X306628203Y-29000000I-300000J0D01*
G01*
X306628203Y-29000000D02*
G75*
G02*
X307228203Y-29000000I300000J0D01*
G01*
D15*
X345375000Y-37595000D02*
G75*
G02*
X345375000Y-33144972I38J2225014D01*
G01*
D14*
X393371797Y-29000000D02*
G75*
G02*
X392771797Y-29000000I-300000J0D01*
G01*
X392771797Y-29000000D02*
G75*
G02*
X393371797Y-29000000I300000J0D01*
G01*
X371300000Y-43071797D02*
G75*
G02*
X370700000Y-43071797I-300000J0D01*
G01*
X370700000Y-43071797D02*
G75*
G02*
X371300000Y-43071797I300000J0D01*
G01*
X329300000Y-31928203D02*
G75*
G02*
X328700000Y-31928203I-300000J0D01*
G01*
X328700000Y-31928203D02*
G75*
G02*
X329300000Y-31928203I300000J0D01*
G01*
X382228203Y-29000000D02*
G75*
G02*
X381628203Y-29000000I-300000J0D01*
G01*
X381628203Y-29000000D02*
G75*
G02*
X382228203Y-29000000I300000J0D01*
G01*
D12*
X386224131Y16026025D02*
X387022046Y16026025D01*
X385025092Y14471875D02*
X385424048Y14859887D01*
D14*
X396300000Y-18071797D02*
G75*
G02*
X395700000Y-18071797I-300000J0D01*
G01*
X395700000Y-18071797D02*
G75*
G02*
X396300000Y-18071797I300000J0D01*
G01*
D15*
X320375000Y-58145000D02*
X329625000Y-58145000D01*
D14*
X357228203Y-21000000D02*
G75*
G02*
X356628203Y-21000000I-300000J0D01*
G01*
X356628203Y-21000000D02*
G75*
G02*
X357228203Y-21000000I300000J0D01*
G01*
X408300000Y-50000000D02*
G75*
G02*
X407700000Y-50000000I-300000J0D01*
G01*
X407700000Y-50000000D02*
G75*
G02*
X408300000Y-50000000I300000J0D01*
G01*
D15*
X354625000Y-58145000D02*
G75*
G02*
X354625000Y-62594972I38J-2224986D01*
G01*
D14*
X379300000Y-18071797D02*
G75*
G02*
X378700000Y-18071797I-300000J0D01*
G01*
X378700000Y-18071797D02*
G75*
G02*
X379300000Y-18071797I300000J0D01*
G01*
X300300000Y8000000D02*
G75*
G02*
X299700000Y8000000I-300000J0D01*
G01*
X299700000Y8000000D02*
G75*
G02*
X300300000Y8000000I300000J0D01*
G01*
X307228203Y-54000000D02*
G75*
G02*
X306628203Y-54000000I-300000J0D01*
G01*
X306628203Y-54000000D02*
G75*
G02*
X307228203Y-54000000I300000J0D01*
G01*
D12*
X374755126Y14471875D02*
X374755126Y16802046D01*
D15*
X404625000Y-62595000D02*
X395375000Y-62595000D01*
D12*
X380235430Y16026028D02*
X379834305Y15638015D01*
D14*
X368371797Y-21000000D02*
G75*
G02*
X367771797Y-21000000I-300000J0D01*
G01*
X367771797Y-21000000D02*
G75*
G02*
X368371797Y-21000000I300000J0D01*
G01*
D12*
X386623087Y16804155D02*
X386623087Y14861993D01*
D14*
X293371797Y-21000000D02*
G75*
G02*
X292771797Y-21000000I-300000J0D01*
G01*
X292771797Y-21000000D02*
G75*
G02*
X293371797Y-21000000I300000J0D01*
G01*
X404300000Y-6928203D02*
G75*
G02*
X403700000Y-6928203I-300000J0D01*
G01*
X403700000Y-6928203D02*
G75*
G02*
X404300000Y-6928203I300000J0D01*
G01*
D12*
X377304271Y15635919D02*
X377703228Y16023928D01*
X387819959Y16026028D02*
X388218918Y16026028D01*
D14*
X308300000Y-50000000D02*
G75*
G02*
X307700000Y-50000000I-300000J0D01*
G01*
X307700000Y-50000000D02*
G75*
G02*
X308300000Y-50000000I300000J0D01*
G01*
X329300000Y-18071797D02*
G75*
G02*
X328700000Y-18071797I-300000J0D01*
G01*
X328700000Y-18071797D02*
G75*
G02*
X329300000Y-18071797I300000J0D01*
G01*
X317300000Y-50000000D02*
G75*
G02*
X316700000Y-50000000I-300000J0D01*
G01*
X316700000Y-50000000D02*
G75*
G02*
X317300000Y-50000000I300000J0D01*
G01*
D15*
X360275029Y-9144986D02*
X369525029Y-9144986D01*
D14*
X400300000Y8000000D02*
G75*
G02*
X399700000Y8000000I-300000J0D01*
G01*
X399700000Y8000000D02*
G75*
G02*
X400300000Y8000000I300000J0D01*
G01*
D12*
X388218921Y17190055D02*
X388218921Y16802043D01*
D14*
X343371797Y-46000000D02*
G75*
G02*
X342771797Y-46000000I-300000J0D01*
G01*
X342771797Y-46000000D02*
G75*
G02*
X343371797Y-46000000I300000J0D01*
G01*
D12*
X374755126Y15247897D02*
X376350956Y16802046D01*
D14*
X318371797Y-29000000D02*
G75*
G02*
X317771797Y-29000000I-300000J0D01*
G01*
X317771797Y-29000000D02*
G75*
G02*
X318371797Y-29000000I300000J0D01*
G01*
D15*
X370375000Y-58145000D02*
X379625000Y-58145000D01*
X379625000Y-62595000D02*
X370375000Y-62595000D01*
D12*
X385424048Y14859884D02*
X385424048Y15638015D01*
D14*
X404300000Y-56928203D02*
G75*
G02*
X403700000Y-56928203I-300000J0D01*
G01*
X403700000Y-56928203D02*
G75*
G02*
X404300000Y-56928203I300000J0D01*
G01*
D15*
X295375000Y-33145000D02*
X304625000Y-33145000D01*
D14*
X354300000Y-43071797D02*
G75*
G02*
X353700000Y-43071797I-300000J0D01*
G01*
X353700000Y-43071797D02*
G75*
G02*
X354300000Y-43071797I300000J0D01*
G01*
X293371797Y-46000000D02*
G75*
G02*
X292771797Y-46000000I-300000J0D01*
G01*
X292771797Y-46000000D02*
G75*
G02*
X293371797Y-46000000I300000J0D01*
G01*
X350300000Y-17000000D02*
G75*
G02*
X349700000Y-17000000I-300000J0D01*
G01*
X349700000Y-17000000D02*
G75*
G02*
X350300000Y-17000000I300000J0D01*
G01*
X379300000Y-56928203D02*
G75*
G02*
X378700000Y-56928203I-300000J0D01*
G01*
X378700000Y-56928203D02*
G75*
G02*
X379300000Y-56928203I300000J0D01*
G01*
D15*
X295375000Y-62595000D02*
G75*
G02*
X295375000Y-58144972I38J2225014D01*
G01*
X370375000Y-33145000D02*
X379625000Y-33145000D01*
X354625000Y-62595000D02*
X345375000Y-62595000D01*
X364625000Y-47095000D02*
X360275026Y-47094986D01*
D13*
X406530876Y15234486D02*
X405334000Y15234486D01*
D12*
X381033347Y14471875D02*
X381432303Y14859887D01*
D15*
X304625000Y-62595000D02*
X295375000Y-62595000D01*
X369525029Y-13594986D02*
X360275029Y-13594986D01*
D14*
X393371797Y-54000000D02*
G75*
G02*
X392771797Y-54000000I-300000J0D01*
G01*
X392771797Y-54000000D02*
G75*
G02*
X393371797Y-54000000I300000J0D01*
G01*
D12*
X388218921Y16026028D02*
X388218921Y14471875D01*
D13*
X394539005Y14070455D02*
X395137439Y14652474D01*
D14*
X354300000Y-18071797D02*
G75*
G02*
X353700000Y-18071797I-300000J0D01*
G01*
X353700000Y-18071797D02*
G75*
G02*
X354300000Y-18071797I300000J0D01*
G01*
X396300000Y-43071797D02*
G75*
G02*
X395700000Y-43071797I-300000J0D01*
G01*
X395700000Y-43071797D02*
G75*
G02*
X396300000Y-43071797I300000J0D01*
G01*
X382228203Y-46000000D02*
G75*
G02*
X381628203Y-46000000I-300000J0D01*
G01*
X381628203Y-46000000D02*
G75*
G02*
X382228203Y-46000000I300000J0D01*
G01*
X382228203Y-54000000D02*
G75*
G02*
X381628203Y-54000000I-300000J0D01*
G01*
X381628203Y-54000000D02*
G75*
G02*
X382228203Y-54000000I300000J0D01*
G01*
D13*
X393342127Y14070455D02*
X394539005Y14070455D01*
D15*
X360275026Y-42644986D02*
X364625026Y-42644986D01*
D14*
X304300000Y6928203D02*
G75*
G02*
X303700000Y6928203I-300000J0D01*
G01*
X303700000Y6928203D02*
G75*
G02*
X304300000Y6928203I300000J0D01*
G01*
X408300000Y0D02*
G75*
G02*
X407700000Y0I-300000J0D01*
G01*
X407700000Y0D02*
G75*
G02*
X408300000Y0I300000J0D01*
G01*
X346300000Y-31928203D02*
G75*
G02*
X345700000Y-31928203I-300000J0D01*
G01*
X345700000Y-31928203D02*
G75*
G02*
X346300000Y-31928203I300000J0D01*
G01*
D15*
X335275026Y-42644986D02*
X339625026Y-42644986D01*
X329625000Y-37595000D02*
X320375000Y-37595000D01*
D13*
X399401566Y14070455D02*
X400601690Y14070455D01*
D14*
X293371797Y-54000000D02*
G75*
G02*
X292771797Y-54000000I-300000J0D01*
G01*
X292771797Y-54000000D02*
G75*
G02*
X293371797Y-54000000I300000J0D01*
G01*
X393371797Y-4000000D02*
G75*
G02*
X392771797Y-4000000I-300000J0D01*
G01*
X392771797Y-4000000D02*
G75*
G02*
X393371797Y-4000000I300000J0D01*
G01*
D12*
X379834305Y15638015D02*
X379834305Y14859884D01*
D14*
X396300000Y-31928203D02*
G75*
G02*
X395700000Y-31928203I-300000J0D01*
G01*
X395700000Y-31928203D02*
G75*
G02*
X396300000Y-31928203I300000J0D01*
G01*
D12*
X379834305Y14859884D02*
X380235430Y14471872D01*
D14*
X404300000Y-18071797D02*
G75*
G02*
X403700000Y-18071797I-300000J0D01*
G01*
X403700000Y-18071797D02*
G75*
G02*
X404300000Y-18071797I300000J0D01*
G01*
D13*
X402719568Y17576635D02*
X402719568Y14081378D01*
D15*
X345375000Y-58145000D02*
X354625000Y-58145000D01*
X304625000Y-37595000D02*
X295375000Y-37595000D01*
D14*
X407228203Y-46000000D02*
G75*
G02*
X406628203Y-46000000I-300000J0D01*
G01*
X406628203Y-46000000D02*
G75*
G02*
X407228203Y-46000000I300000J0D01*
G01*
X357228203Y-29000000D02*
G75*
G02*
X356628203Y-29000000I-300000J0D01*
G01*
X356628203Y-29000000D02*
G75*
G02*
X357228203Y-29000000I300000J0D01*
G01*
D13*
X402121134Y17576635D02*
X402719568Y17576635D01*
D14*
X407228203Y-29000000D02*
G75*
G02*
X406628203Y-29000000I-300000J0D01*
G01*
X406628203Y-29000000D02*
G75*
G02*
X407228203Y-29000000I300000J0D01*
G01*
D15*
X320375000Y-37595000D02*
G75*
G02*
X320375000Y-33144972I38J2225014D01*
G01*
D12*
X375263125Y15518026D02*
X376350956Y14471875D01*
D13*
X404735566Y14070455D02*
X406530876Y14070455D01*
D14*
X407228203Y-54000000D02*
G75*
G02*
X406628203Y-54000000I-300000J0D01*
G01*
X406628203Y-54000000D02*
G75*
G02*
X407228203Y-54000000I300000J0D01*
G01*
X371300000Y-31928203D02*
G75*
G02*
X370700000Y-31928203I-300000J0D01*
G01*
X370700000Y-31928203D02*
G75*
G02*
X371300000Y-31928203I300000J0D01*
G01*
X293371797Y-4000000D02*
G75*
G02*
X292771797Y-4000000I-300000J0D01*
G01*
X292771797Y-4000000D02*
G75*
G02*
X293371797Y-4000000I300000J0D01*
G01*
X318371797Y-46000000D02*
G75*
G02*
X317771797Y-46000000I-300000J0D01*
G01*
X317771797Y-46000000D02*
G75*
G02*
X318371797Y-46000000I300000J0D01*
G01*
X321300000Y-18071797D02*
G75*
G02*
X320700000Y-18071797I-300000J0D01*
G01*
X320700000Y-18071797D02*
G75*
G02*
X321300000Y-18071797I300000J0D01*
G01*
X407228203Y-21000000D02*
G75*
G02*
X406628203Y-21000000I-300000J0D01*
G01*
X406628203Y-21000000D02*
G75*
G02*
X407228203Y-21000000I300000J0D01*
G01*
D13*
X405334000Y16398514D02*
X407129313Y16398514D01*
X395137439Y16983693D02*
X394539005Y17565712D01*
D14*
X321300000Y-31928203D02*
G75*
G02*
X320700000Y-31928203I-300000J0D01*
G01*
X320700000Y-31928203D02*
G75*
G02*
X321300000Y-31928203I300000J0D01*
G01*
X367300000Y-50000000D02*
G75*
G02*
X366700000Y-50000000I-300000J0D01*
G01*
X366700000Y-50000000D02*
G75*
G02*
X367300000Y-50000000I300000J0D01*
G01*
D12*
X384227176Y14471875D02*
X385025092Y14471875D01*
X383828217Y14859884D02*
X384227176Y14471872D01*
D15*
X379625000Y-33145000D02*
G75*
G02*
X379625000Y-37594972I38J-2224986D01*
G01*
D12*
X381432303Y14859884D02*
X381432303Y15638015D01*
D14*
X404300000Y6928203D02*
G75*
G02*
X403700000Y6928203I-300000J0D01*
G01*
X403700000Y6928203D02*
G75*
G02*
X404300000Y6928203I300000J0D01*
G01*
D17*
X283542857Y22492600D02*
X284457143Y22492600D01*
X284000000Y22035458D02*
X284000000Y22949743D01*
D14*
X392300000Y-25000000D02*
G75*
G02*
X391700000Y-25000000I-300000J0D01*
G01*
X391700000Y-25000000D02*
G75*
G02*
X392300000Y-25000000I300000J0D01*
G01*
X368371797Y-54000000D02*
G75*
G02*
X367771797Y-54000000I-300000J0D01*
G01*
X367771797Y-54000000D02*
G75*
G02*
X368371797Y-54000000I300000J0D01*
G01*
D12*
X377703228Y16023928D02*
X378900103Y16023928D01*
D14*
X325300000Y-42000000D02*
G75*
G02*
X324700000Y-42000000I-300000J0D01*
G01*
X324700000Y-42000000D02*
G75*
G02*
X325300000Y-42000000I300000J0D01*
G01*
D13*
X407129313Y14652467D02*
X406530876Y15234486D01*
D12*
X385424048Y15638015D02*
X385025092Y16026028D01*
D15*
X329625000Y-62595000D02*
X320375000Y-62595000D01*
X395375000Y-33145000D02*
X404625000Y-33145000D01*
X329625000Y-58145000D02*
G75*
G02*
X329625000Y-62594972I38J-2224986D01*
G01*
D14*
X300300000Y-42000000D02*
G75*
G02*
X299700000Y-42000000I-300000J0D01*
G01*
X299700000Y-42000000D02*
G75*
G02*
X300300000Y-42000000I300000J0D01*
G01*
X400300000Y-17000000D02*
G75*
G02*
X399700000Y-17000000I-300000J0D01*
G01*
X399700000Y-17000000D02*
G75*
G02*
X400300000Y-17000000I300000J0D01*
G01*
D13*
X404735566Y15816501D02*
X405334000Y16398514D01*
D15*
X370375000Y-37595000D02*
G75*
G02*
X370375000Y-33144972I38J2225014D01*
G01*
D14*
X396300000Y6928203D02*
G75*
G02*
X395700000Y6928203I-300000J0D01*
G01*
X395700000Y6928203D02*
G75*
G02*
X396300000Y6928203I300000J0D01*
G01*
X307228203Y-21000000D02*
G75*
G02*
X306628203Y-21000000I-300000J0D01*
G01*
X306628203Y-21000000D02*
G75*
G02*
X307228203Y-21000000I300000J0D01*
G01*
X307228203Y-4000000D02*
G75*
G02*
X306628203Y-4000000I-300000J0D01*
G01*
X306628203Y-4000000D02*
G75*
G02*
X307228203Y-4000000I300000J0D01*
G01*
D13*
X396734566Y14070455D02*
X397931444Y14070455D01*
D15*
X345375000Y-62595000D02*
G75*
G02*
X345375000Y-58144972I38J2225014D01*
G01*
D14*
X368371797Y-29000000D02*
G75*
G02*
X367771797Y-29000000I-300000J0D01*
G01*
X367771797Y-29000000D02*
G75*
G02*
X368371797Y-29000000I300000J0D01*
G01*
X329300000Y-56928203D02*
G75*
G02*
X328700000Y-56928203I-300000J0D01*
G01*
X328700000Y-56928203D02*
G75*
G02*
X329300000Y-56928203I300000J0D01*
G01*
X404300000Y-43071797D02*
G75*
G02*
X403700000Y-43071797I-300000J0D01*
G01*
X403700000Y-43071797D02*
G75*
G02*
X404300000Y-43071797I300000J0D01*
G01*
D15*
X354625000Y-37595000D02*
X345375000Y-37595000D01*
D14*
X346300000Y-18071797D02*
G75*
G02*
X345700000Y-18071797I-300000J0D01*
G01*
X345700000Y-18071797D02*
G75*
G02*
X346300000Y-18071797I300000J0D01*
G01*
X292300000Y-25000000D02*
G75*
G02*
X291700000Y-25000000I-300000J0D01*
G01*
X291700000Y-25000000D02*
G75*
G02*
X292300000Y-25000000I300000J0D01*
G01*
D13*
X395137439Y15795474D02*
X395137439Y14652474D01*
D14*
X325300000Y-17000000D02*
G75*
G02*
X324700000Y-17000000I-300000J0D01*
G01*
X324700000Y-17000000D02*
G75*
G02*
X325300000Y-17000000I300000J0D01*
G01*
X343371797Y-54000000D02*
G75*
G02*
X342771797Y-54000000I-300000J0D01*
G01*
X342771797Y-54000000D02*
G75*
G02*
X343371797Y-54000000I300000J0D01*
G01*
D15*
X295375000Y-58145000D02*
X304625000Y-58145000D01*
D14*
X333300000Y-25000000D02*
G75*
G02*
X332700000Y-25000000I-300000J0D01*
G01*
X332700000Y-25000000D02*
G75*
G02*
X333300000Y-25000000I300000J0D01*
G01*
X393371797Y4000000D02*
G75*
G02*
X392771797Y4000000I-300000J0D01*
G01*
X392771797Y4000000D02*
G75*
G02*
X393371797Y4000000I300000J0D01*
G01*
X375300000Y-17000000D02*
G75*
G02*
X374700000Y-17000000I-300000J0D01*
G01*
X374700000Y-17000000D02*
G75*
G02*
X375300000Y-17000000I300000J0D01*
G01*
X308300000Y0D02*
G75*
G02*
X307700000Y0I-300000J0D01*
G01*
X307700000Y0D02*
G75*
G02*
X308300000Y0I300000J0D01*
G01*
D12*
X382230219Y16802046D02*
X382629175Y16802046D01*
D14*
X332228203Y-46000000D02*
G75*
G02*
X331628203Y-46000000I-300000J0D01*
G01*
X331628203Y-46000000D02*
G75*
G02*
X332228203Y-46000000I300000J0D01*
G01*
X396300000Y-6928203D02*
G75*
G02*
X395700000Y-6928203I-300000J0D01*
G01*
X395700000Y-6928203D02*
G75*
G02*
X396300000Y-6928203I300000J0D01*
G01*
X407228203Y-4000000D02*
G75*
G02*
X406628203Y-4000000I-300000J0D01*
G01*
X406628203Y-4000000D02*
G75*
G02*
X407228203Y-4000000I300000J0D01*
G01*
X293371797Y-29000000D02*
G75*
G02*
X292771797Y-29000000I-300000J0D01*
G01*
X292771797Y-29000000D02*
G75*
G02*
X293371797Y-29000000I300000J0D01*
G01*
D13*
X405334000Y15234486D02*
X404735566Y15816501D01*
D14*
X296300000Y-43071797D02*
G75*
G02*
X295700000Y-43071797I-300000J0D01*
G01*
X295700000Y-43071797D02*
G75*
G02*
X296300000Y-43071797I300000J0D01*
G01*
X346300000Y-56928203D02*
G75*
G02*
X345700000Y-56928203I-300000J0D01*
G01*
X345700000Y-56928203D02*
G75*
G02*
X346300000Y-56928203I300000J0D01*
G01*
X358300000Y-50000000D02*
G75*
G02*
X357700000Y-50000000I-300000J0D01*
G01*
X357700000Y-50000000D02*
G75*
G02*
X358300000Y-50000000I300000J0D01*
G01*
X296300000Y-18071797D02*
G75*
G02*
X295700000Y-18071797I-300000J0D01*
G01*
X295700000Y-18071797D02*
G75*
G02*
X296300000Y-18071797I300000J0D01*
G01*
X332228203Y-29000000D02*
G75*
G02*
X331628203Y-29000000I-300000J0D01*
G01*
X331628203Y-29000000D02*
G75*
G02*
X332228203Y-29000000I300000J0D01*
G01*
D15*
X335275026Y-47094986D02*
G75*
G02*
X335275026Y-42644986I-1988J2225000D01*
G01*
D14*
X293371797Y4000000D02*
G75*
G02*
X292771797Y4000000I-300000J0D01*
G01*
X292771797Y4000000D02*
G75*
G02*
X293371797Y4000000I300000J0D01*
G01*
D15*
X395375000Y-37595000D02*
G75*
G02*
X395375000Y-33144972I38J2225014D01*
G01*
D14*
X371300000Y-18071797D02*
G75*
G02*
X370700000Y-18071797I-300000J0D01*
G01*
X370700000Y-18071797D02*
G75*
G02*
X371300000Y-18071797I300000J0D01*
G01*
D15*
X404625000Y-37595000D02*
X395375000Y-37595000D01*
D13*
X393342127Y17565712D02*
X392743692Y16983693D01*
D12*
X377304271Y14471888D02*
X378501145Y14471888D01*
D14*
X343371797Y-29000000D02*
G75*
G02*
X342771797Y-29000000I-300000J0D01*
G01*
X342771797Y-29000000D02*
G75*
G02*
X343371797Y-29000000I300000J0D01*
G01*
X371300000Y-56928203D02*
G75*
G02*
X370700000Y-56928203I-300000J0D01*
G01*
X370700000Y-56928203D02*
G75*
G02*
X371300000Y-56928203I300000J0D01*
G01*
X383300000Y-25000000D02*
G75*
G02*
X382700000Y-25000000I-300000J0D01*
G01*
X382700000Y-25000000D02*
G75*
G02*
X383300000Y-25000000I300000J0D01*
G01*
D15*
X329625000Y-33145000D02*
G75*
G02*
X329625000Y-37594972I38J-2224986D01*
G01*
D14*
X321300000Y-43071797D02*
G75*
G02*
X320700000Y-43071797I-300000J0D01*
G01*
X320700000Y-43071797D02*
G75*
G02*
X321300000Y-43071797I300000J0D01*
G01*
X300300000Y-17000000D02*
G75*
G02*
X299700000Y-17000000I-300000J0D01*
G01*
X299700000Y-17000000D02*
G75*
G02*
X300300000Y-17000000I300000J0D01*
G01*
D12*
X378501145Y15247909D02*
X377703228Y15247909D01*
D14*
X329300000Y-43071797D02*
G75*
G02*
X328700000Y-43071797I-300000J0D01*
G01*
X328700000Y-43071797D02*
G75*
G02*
X329300000Y-43071797I300000J0D01*
G01*
X304300000Y-43071797D02*
G75*
G02*
X303700000Y-43071797I-300000J0D01*
G01*
X303700000Y-43071797D02*
G75*
G02*
X304300000Y-43071797I300000J0D01*
G01*
X332228203Y-21000000D02*
G75*
G02*
X331628203Y-21000000I-300000J0D01*
G01*
X331628203Y-21000000D02*
G75*
G02*
X332228203Y-21000000I300000J0D01*
G01*
D13*
X406530876Y14070455D02*
X407129313Y14652467D01*
D14*
X321300000Y-56928203D02*
G75*
G02*
X320700000Y-56928203I-300000J0D01*
G01*
X320700000Y-56928203D02*
G75*
G02*
X321300000Y-56928203I300000J0D01*
G01*
D13*
X392743697Y16983693D02*
X392743697Y14652469D01*
D14*
X307228203Y4000000D02*
G75*
G02*
X306628203Y4000000I-300000J0D01*
G01*
X306628203Y4000000D02*
G75*
G02*
X307228203Y4000000I300000J0D01*
G01*
D15*
X395375000Y-58145000D02*
X404625000Y-58145000D01*
D14*
X342300000Y-25000000D02*
G75*
G02*
X341700000Y-25000000I-300000J0D01*
G01*
X341700000Y-25000000D02*
G75*
G02*
X342300000Y-25000000I300000J0D01*
G01*
X404300000Y-31928203D02*
G75*
G02*
X403700000Y-31928203I-300000J0D01*
G01*
X403700000Y-31928203D02*
G75*
G02*
X404300000Y-31928203I300000J0D01*
G01*
D16*
%TO.C,kibuzzard-65054AC3*%
G36*
X395923856Y-9437676D02*
G01*
X396007215Y-9567660D01*
X396046776Y-9761224D01*
X396054193Y-9876727D01*
X396056666Y-10000000D01*
X396054193Y-10122920D01*
X396046776Y-10237363D01*
X396007215Y-10430927D01*
X395922443Y-10562324D01*
X395779742Y-10610362D01*
X395635629Y-10562324D01*
X395552269Y-10432340D01*
X395512709Y-10238776D01*
X395505291Y-10123273D01*
X395502819Y-10000000D01*
X395505291Y-9877080D01*
X395512709Y-9762637D01*
X395552269Y-9569073D01*
X395635629Y-9437676D01*
X395779742Y-9389638D01*
X395923856Y-9437676D01*
G37*
G36*
X402988231Y-9437676D02*
G01*
X403071590Y-9567660D01*
X403111151Y-9761224D01*
X403118568Y-9876727D01*
X403121041Y-10000000D01*
X403118568Y-10122920D01*
X403111151Y-10237363D01*
X403071590Y-10430927D01*
X402986818Y-10562324D01*
X402844117Y-10610362D01*
X402700004Y-10562324D01*
X402616644Y-10432340D01*
X402577084Y-10238776D01*
X402569666Y-10123273D01*
X402567194Y-10000000D01*
X402569666Y-9877080D01*
X402577084Y-9762637D01*
X402616644Y-9569073D01*
X402700004Y-9437676D01*
X402844117Y-9389638D01*
X402988231Y-9437676D01*
G37*
G36*
X404997800Y-8505815D02*
G01*
X405143547Y-8527434D01*
X405286473Y-8563235D01*
X405425202Y-8612873D01*
X405558398Y-8675870D01*
X405684777Y-8751619D01*
X405803123Y-8839390D01*
X405912296Y-8938339D01*
X406011245Y-9047512D01*
X406099016Y-9165858D01*
X406174765Y-9292238D01*
X406237762Y-9425433D01*
X406287400Y-9564162D01*
X406323201Y-9707088D01*
X406344821Y-9852836D01*
X406352051Y-10000000D01*
X406344821Y-10147164D01*
X406323201Y-10292912D01*
X406287400Y-10435838D01*
X406237762Y-10574567D01*
X406174765Y-10707762D01*
X406099016Y-10834142D01*
X406011245Y-10952488D01*
X405912296Y-11061661D01*
X405803123Y-11160610D01*
X405684777Y-11248381D01*
X405558398Y-11324130D01*
X405425202Y-11387127D01*
X405286473Y-11436765D01*
X405143547Y-11472566D01*
X404997800Y-11494185D01*
X404850635Y-11501415D01*
X404850400Y-11501415D01*
X402846943Y-11501415D01*
X401250394Y-11501415D01*
X400021193Y-11501415D01*
X398780689Y-11501415D01*
X397186966Y-11501415D01*
X395782568Y-11501415D01*
X395149600Y-11501415D01*
X395149365Y-11501415D01*
X395002200Y-11494185D01*
X394856453Y-11472566D01*
X394713527Y-11436765D01*
X394574798Y-11387127D01*
X394441602Y-11324130D01*
X394315223Y-11248381D01*
X394196877Y-11160610D01*
X394087704Y-11061661D01*
X393988755Y-10952488D01*
X393900984Y-10834142D01*
X393825235Y-10707762D01*
X393762238Y-10574567D01*
X393712600Y-10435838D01*
X393676799Y-10292912D01*
X393655179Y-10147164D01*
X393647949Y-10000000D01*
X395149600Y-10000000D01*
X395159755Y-10212196D01*
X395190220Y-10396665D01*
X395240995Y-10553405D01*
X395312081Y-10682419D01*
X395436571Y-10810362D01*
X395593400Y-10887129D01*
X395782568Y-10912717D01*
X395967184Y-10887129D01*
X396121658Y-10810362D01*
X396245991Y-10682419D01*
X396317695Y-10553405D01*
X396368911Y-10396665D01*
X396394507Y-10243014D01*
X396596384Y-10243014D01*
X396603448Y-10388541D01*
X396624642Y-10519938D01*
X396662789Y-10635087D01*
X396720717Y-10731869D01*
X396902978Y-10866092D01*
X397031196Y-10901061D01*
X397186966Y-10912717D01*
X397345208Y-10901061D01*
X397475192Y-10866092D01*
X397579745Y-10809224D01*
X397661692Y-10731869D01*
X397721739Y-10635087D01*
X397760593Y-10519938D01*
X397781786Y-10388541D01*
X397788851Y-10243014D01*
X397788851Y-9415070D01*
X397969699Y-9415070D01*
X398430296Y-9415070D01*
X398430296Y-10875982D01*
X398780689Y-10875982D01*
X398780689Y-10127159D01*
X399766876Y-10127159D01*
X399788069Y-10235950D01*
X399844584Y-10315071D01*
X399925118Y-10364522D01*
X400021193Y-10381476D01*
X400196390Y-10316484D01*
X400272685Y-10127159D01*
X400196390Y-9943485D01*
X400021193Y-9878493D01*
X399925118Y-9895447D01*
X399844584Y-9943485D01*
X399788069Y-10021193D01*
X399766876Y-10127159D01*
X398780689Y-10127159D01*
X398780689Y-9415070D01*
X399241286Y-9415070D01*
X399241286Y-9126843D01*
X400761540Y-9126843D01*
X400794036Y-9285085D01*
X400840661Y-9482888D01*
X400878023Y-9630926D01*
X400918526Y-9784929D01*
X400962168Y-9944898D01*
X401008322Y-10108006D01*
X401056360Y-10271429D01*
X401106281Y-10435165D01*
X401180457Y-10668290D01*
X401250394Y-10875982D01*
X401609265Y-10875982D01*
X401663268Y-10725433D01*
X401716015Y-10571429D01*
X401767507Y-10413972D01*
X401816957Y-10255730D01*
X401863582Y-10099372D01*
X401891758Y-10000000D01*
X402213975Y-10000000D01*
X402224130Y-10212196D01*
X402254595Y-10396665D01*
X402305370Y-10553405D01*
X402376456Y-10682419D01*
X402500946Y-10810362D01*
X402657775Y-10887129D01*
X402846943Y-10912717D01*
X403031559Y-10887129D01*
X403053989Y-10875982D01*
X403751183Y-10875982D01*
X404850400Y-10875982D01*
X404850400Y-10587756D01*
X404101576Y-10587756D01*
X404101576Y-9126843D01*
X403751183Y-9126843D01*
X403751183Y-10875982D01*
X403053989Y-10875982D01*
X403186033Y-10810362D01*
X403310366Y-10682419D01*
X403382070Y-10553405D01*
X403433286Y-10396665D01*
X403464016Y-10212196D01*
X403474260Y-10000000D01*
X403464193Y-9787804D01*
X403433993Y-9603335D01*
X403383659Y-9446595D01*
X403313192Y-9317581D01*
X403189487Y-9189638D01*
X403033129Y-9112871D01*
X402844117Y-9087283D01*
X402660758Y-9112871D01*
X402506283Y-9189638D01*
X402380694Y-9317581D01*
X402307755Y-9446595D01*
X402255655Y-9603335D01*
X402224395Y-9787804D01*
X402213975Y-10000000D01*
X401891758Y-10000000D01*
X401907381Y-9944898D01*
X401967428Y-9719898D01*
X402020411Y-9505494D01*
X402065976Y-9306278D01*
X402103771Y-9126843D01*
X401739249Y-9126843D01*
X401713817Y-9273782D01*
X401682734Y-9443327D01*
X401647412Y-9626648D01*
X401609265Y-9814913D01*
X401568291Y-10004239D01*
X401524492Y-10190738D01*
X401479280Y-10365581D01*
X401434068Y-10519938D01*
X401388503Y-10363462D01*
X401342231Y-10187912D01*
X401297019Y-10001413D01*
X401254633Y-9812088D01*
X401215426Y-9624175D01*
X401179751Y-9441914D01*
X401150080Y-9273429D01*
X401128887Y-9126843D01*
X400761540Y-9126843D01*
X399241286Y-9126843D01*
X397969699Y-9126843D01*
X397969699Y-9415070D01*
X397788851Y-9415070D01*
X397788851Y-9126843D01*
X397441283Y-9126843D01*
X397441283Y-10217583D01*
X397429980Y-10402669D01*
X397390420Y-10524177D01*
X397314125Y-10590582D01*
X397192617Y-10610362D01*
X397071110Y-10590582D01*
X396996228Y-10525589D01*
X396958080Y-10405495D01*
X396946777Y-10220408D01*
X396946777Y-9126843D01*
X396596384Y-9126843D01*
X396596384Y-10243014D01*
X396394507Y-10243014D01*
X396399641Y-10212196D01*
X396409885Y-10000000D01*
X396399818Y-9787804D01*
X396369618Y-9603335D01*
X396319284Y-9446595D01*
X396248817Y-9317581D01*
X396125112Y-9189638D01*
X395968754Y-9112871D01*
X395779742Y-9087283D01*
X395596383Y-9112871D01*
X395441908Y-9189638D01*
X395316319Y-9317581D01*
X395243380Y-9446595D01*
X395191280Y-9603335D01*
X395160020Y-9787804D01*
X395149600Y-10000000D01*
X393647949Y-10000000D01*
X393655179Y-9852836D01*
X393676799Y-9707088D01*
X393712600Y-9564162D01*
X393762238Y-9425433D01*
X393825235Y-9292238D01*
X393900984Y-9165858D01*
X393988755Y-9047512D01*
X394087704Y-8938339D01*
X394196877Y-8839390D01*
X394315223Y-8751619D01*
X394441602Y-8675870D01*
X394574798Y-8612873D01*
X394713527Y-8563235D01*
X394856453Y-8527434D01*
X395002200Y-8505815D01*
X395149365Y-8498585D01*
X395149600Y-8498585D01*
X404850400Y-8498585D01*
X404850635Y-8498585D01*
X404997800Y-8505815D01*
G37*
%TO.C,kibuzzard-65054AD4*%
G36*
X422321860Y-36108754D02*
G01*
X422435950Y-36124649D01*
X422623863Y-36195292D01*
X422748196Y-36325277D01*
X422793408Y-36524492D01*
X422793408Y-36555575D01*
X422790582Y-36586659D01*
X421615070Y-36586659D01*
X421608005Y-36535795D01*
X421606592Y-36484932D01*
X421656043Y-36295606D01*
X421787441Y-36179751D01*
X421976766Y-36120410D01*
X422197174Y-36103455D01*
X422321860Y-36108754D01*
G37*
G36*
X423684461Y-32695601D02*
G01*
X423684461Y-33551803D01*
X423684461Y-35521351D01*
X423684461Y-36561227D01*
X423684461Y-38347101D01*
X423684461Y-38564684D01*
X423684461Y-39847574D01*
X423684461Y-39847810D01*
X423677313Y-39993312D01*
X423655937Y-40137414D01*
X423620540Y-40278726D01*
X423571463Y-40415888D01*
X423509177Y-40547580D01*
X423434284Y-40672532D01*
X423347504Y-40789541D01*
X423249672Y-40897482D01*
X423141732Y-40995313D01*
X423024722Y-41082094D01*
X422899770Y-41156987D01*
X422768078Y-41219272D01*
X422630916Y-41268350D01*
X422489604Y-41303747D01*
X422345503Y-41325122D01*
X422200000Y-41332270D01*
X422054497Y-41325122D01*
X421910396Y-41303747D01*
X421769084Y-41268350D01*
X421631922Y-41219272D01*
X421500230Y-41156987D01*
X421375278Y-41082094D01*
X421258268Y-40995313D01*
X421150328Y-40897482D01*
X421052496Y-40789541D01*
X420965716Y-40672532D01*
X420890823Y-40547580D01*
X420828537Y-40415888D01*
X420779460Y-40278726D01*
X420744063Y-40137414D01*
X420722687Y-39993312D01*
X420715539Y-39847810D01*
X420715539Y-39847574D01*
X420715539Y-38669236D01*
X421324017Y-38669236D01*
X421324017Y-38957463D01*
X421473782Y-39008326D01*
X421667346Y-39070493D01*
X421882103Y-39141137D01*
X422098273Y-39211780D01*
X421894819Y-39276773D01*
X421677236Y-39344591D01*
X421476608Y-39408170D01*
X421324017Y-39457621D01*
X421324017Y-39745847D01*
X421515462Y-39764568D01*
X421722448Y-39781169D01*
X421940737Y-39795651D01*
X422166091Y-39808014D01*
X422395683Y-39818963D01*
X422626688Y-39829207D01*
X422854161Y-39838744D01*
X423073157Y-39847574D01*
X423073157Y-39528264D01*
X421713971Y-39542393D01*
X422454318Y-39336113D01*
X422454318Y-39081796D01*
X421713971Y-38867039D01*
X423073157Y-38883993D01*
X423073157Y-38564684D01*
X422849569Y-38571042D01*
X422630927Y-38578812D01*
X422415463Y-38588349D01*
X422201413Y-38600006D01*
X421987009Y-38614134D01*
X421770486Y-38631089D01*
X421550077Y-38649809D01*
X421324017Y-38669236D01*
X420715539Y-38669236D01*
X420715539Y-37236581D01*
X421324017Y-37236581D01*
X421324017Y-38347101D01*
X421612244Y-38347101D01*
X421612244Y-37965625D01*
X422784930Y-37965625D01*
X422784930Y-38347101D01*
X423073157Y-38347101D01*
X423073157Y-37236581D01*
X422784930Y-37236581D01*
X422784930Y-37615232D01*
X421612244Y-37615232D01*
X421612244Y-37236581D01*
X421324017Y-37236581D01*
X420715539Y-37236581D01*
X420715539Y-36516015D01*
X421304237Y-36516015D01*
X421312714Y-36710992D01*
X421346623Y-36934226D01*
X423053377Y-36934226D01*
X423085873Y-36743488D01*
X423095763Y-36561227D01*
X423083400Y-36390622D01*
X423046312Y-36234853D01*
X422982380Y-36096744D01*
X422889483Y-35979122D01*
X422766210Y-35883400D01*
X422611147Y-35810990D01*
X422422175Y-35765425D01*
X422197174Y-35750237D01*
X421977119Y-35764012D01*
X421791679Y-35805339D01*
X421638382Y-35871391D01*
X421514756Y-35959342D01*
X421420446Y-36069193D01*
X421355101Y-36200944D01*
X421316953Y-36351062D01*
X421304237Y-36516015D01*
X420715539Y-36516015D01*
X420715539Y-34410831D01*
X421324017Y-34410831D01*
X421324017Y-35521351D01*
X421612244Y-35521351D01*
X421612244Y-35139875D01*
X422784930Y-35139875D01*
X422784930Y-35521351D01*
X423073157Y-35521351D01*
X423073157Y-34410831D01*
X422784930Y-34410831D01*
X422784930Y-34789482D01*
X421612244Y-34789482D01*
X421612244Y-34410831D01*
X421324017Y-34410831D01*
X420715539Y-34410831D01*
X420715539Y-33551803D01*
X422075667Y-33551803D01*
X422092622Y-33647879D01*
X422140659Y-33728413D01*
X422218367Y-33784928D01*
X422324333Y-33806121D01*
X422433124Y-33784928D01*
X422512245Y-33728413D01*
X422561696Y-33647879D01*
X422578651Y-33551803D01*
X422513658Y-33376607D01*
X422324333Y-33300311D01*
X422140659Y-33376607D01*
X422075667Y-33551803D01*
X420715539Y-33551803D01*
X420715539Y-31585081D01*
X421324017Y-31585081D01*
X421324017Y-32695601D01*
X421612244Y-32695601D01*
X421612244Y-32314125D01*
X422784930Y-32314125D01*
X422784930Y-32695601D01*
X423073157Y-32695601D01*
X423073157Y-31585081D01*
X422784930Y-31585081D01*
X422784930Y-31963732D01*
X421612244Y-31963732D01*
X421612244Y-31585081D01*
X421324017Y-31585081D01*
X420715539Y-31585081D01*
X420715539Y-30152426D01*
X421324017Y-30152426D01*
X421324017Y-30466084D01*
X422400628Y-30466084D01*
X422290424Y-30515888D01*
X422163265Y-30574876D01*
X422025510Y-30641281D01*
X421883516Y-30713337D01*
X421739050Y-30789279D01*
X421593877Y-30867341D01*
X421453649Y-30946462D01*
X421324017Y-31025583D01*
X421324017Y-31305332D01*
X423073157Y-31305332D01*
X423073157Y-30991674D01*
X421911773Y-30991674D01*
X422105651Y-30886650D01*
X422299215Y-30786336D01*
X422492465Y-30690731D01*
X422685715Y-30599836D01*
X422879279Y-30513651D01*
X423073157Y-30432175D01*
X423073157Y-30152426D01*
X421324017Y-30152426D01*
X420715539Y-30152426D01*
X420715539Y-30152190D01*
X420722687Y-30006688D01*
X420744063Y-29862586D01*
X420779460Y-29721274D01*
X420828537Y-29584112D01*
X420890823Y-29452420D01*
X420965716Y-29327468D01*
X421052496Y-29210459D01*
X421150328Y-29102518D01*
X421258268Y-29004687D01*
X421375278Y-28917906D01*
X421500230Y-28843013D01*
X421631921Y-28780728D01*
X421769084Y-28731650D01*
X421910396Y-28696253D01*
X422054497Y-28674878D01*
X422200000Y-28667730D01*
X422345503Y-28674878D01*
X422489604Y-28696253D01*
X422630916Y-28731650D01*
X422768079Y-28780728D01*
X422899770Y-28843013D01*
X423024722Y-28917906D01*
X423141732Y-29004687D01*
X423249672Y-29102518D01*
X423347504Y-29210459D01*
X423434284Y-29327468D01*
X423509177Y-29452420D01*
X423571463Y-29584112D01*
X423620540Y-29721274D01*
X423655937Y-29862586D01*
X423677313Y-30006688D01*
X423684461Y-30152190D01*
X423684461Y-30152426D01*
X423684461Y-30432175D01*
X423684461Y-32695601D01*
G37*
%TO.C,kibuzzard-65054B42*%
G36*
X380413894Y5456222D02*
G01*
X380555938Y5435151D01*
X380695233Y5400260D01*
X380830437Y5351883D01*
X380960248Y5290487D01*
X381083416Y5216662D01*
X381198756Y5131121D01*
X381305155Y5034686D01*
X381401590Y4928287D01*
X381487131Y4812948D01*
X381560955Y4689780D01*
X381622351Y4559968D01*
X381670728Y4424764D01*
X381705620Y4285469D01*
X381726690Y4143425D01*
X381733736Y4000000D01*
X381726690Y3856575D01*
X381705620Y3714531D01*
X381670728Y3575236D01*
X381622351Y3440032D01*
X381560955Y3310220D01*
X381487131Y3187052D01*
X381401590Y3071713D01*
X381305155Y2965314D01*
X381198756Y2868879D01*
X381083416Y2783338D01*
X380960248Y2709513D01*
X380830437Y2648117D01*
X380695233Y2599740D01*
X380555938Y2564849D01*
X380413894Y2543778D01*
X380270468Y2536732D01*
X380270233Y2536732D01*
X378860184Y2536732D01*
X377760967Y2536732D01*
X377760732Y2536732D01*
X377617306Y2543778D01*
X377475262Y2564849D01*
X377335967Y2599740D01*
X377200763Y2648117D01*
X377070952Y2709513D01*
X376947784Y2783338D01*
X376832444Y2868879D01*
X376726045Y2965314D01*
X376629610Y3071713D01*
X376589771Y3125430D01*
X377760967Y3125430D01*
X378860184Y3125430D01*
X378860184Y3413657D01*
X378111360Y3413657D01*
X378111360Y4510048D01*
X379108850Y4510048D01*
X379221880Y4221821D01*
X379394251Y4291052D01*
X379575099Y4391366D01*
X379575099Y3413657D01*
X379207751Y3413657D01*
X379207751Y3125430D01*
X380270233Y3125430D01*
X380270233Y3413657D01*
X379922666Y3413657D01*
X379922666Y4874570D01*
X379685303Y4874570D01*
X379563796Y4764365D01*
X379414031Y4662638D01*
X379255789Y4575040D01*
X379108850Y4510048D01*
X378111360Y4510048D01*
X378111360Y4874570D01*
X377760967Y4874570D01*
X377760967Y3125430D01*
X376589771Y3125430D01*
X376544069Y3187052D01*
X376470245Y3310220D01*
X376408849Y3440032D01*
X376360472Y3575236D01*
X376325580Y3714531D01*
X376304510Y3856575D01*
X376297464Y4000000D01*
X376304510Y4143425D01*
X376325580Y4285469D01*
X376360472Y4424764D01*
X376408849Y4559968D01*
X376470245Y4689780D01*
X376544069Y4812948D01*
X376629610Y4928287D01*
X376726045Y5034686D01*
X376832444Y5131121D01*
X376947784Y5216662D01*
X377070952Y5290487D01*
X377200763Y5351883D01*
X377335967Y5400260D01*
X377475262Y5435151D01*
X377617306Y5456222D01*
X377760732Y5463268D01*
X377760967Y5463268D01*
X380270233Y5463268D01*
X380270468Y5463268D01*
X380413894Y5456222D01*
G37*
%TO.C,kibuzzard-650552CB*%
G36*
X342275043Y27041131D02*
G01*
X342390898Y26909734D01*
X342450239Y26720409D01*
X342467194Y26500000D01*
X342461895Y26375314D01*
X342446001Y26261224D01*
X342375357Y26073312D01*
X342245372Y25948979D01*
X342046157Y25903767D01*
X342015074Y25903767D01*
X341983990Y25906592D01*
X341983990Y27082105D01*
X342034854Y27089169D01*
X342085717Y27090582D01*
X342275043Y27041131D01*
G37*
G36*
X342967812Y27994185D02*
G01*
X343113559Y27972566D01*
X343256486Y27936765D01*
X343395215Y27887127D01*
X343528410Y27824130D01*
X343654789Y27748381D01*
X343773136Y27660610D01*
X343882309Y27561661D01*
X343981257Y27452488D01*
X344069029Y27334142D01*
X344144778Y27207762D01*
X344207775Y27074567D01*
X344257413Y26935838D01*
X344293214Y26792912D01*
X344314833Y26647164D01*
X344322063Y26500000D01*
X344314833Y26352836D01*
X344293214Y26207088D01*
X344257413Y26064162D01*
X344207775Y25925433D01*
X344144778Y25792238D01*
X344069029Y25665858D01*
X343981257Y25547512D01*
X343882309Y25438339D01*
X343773136Y25339390D01*
X343654789Y25251619D01*
X343528410Y25175870D01*
X343395215Y25112873D01*
X343256486Y25063235D01*
X343113559Y25027434D01*
X342967812Y25005815D01*
X342820648Y24998585D01*
X342820412Y24998585D01*
X342009422Y24998585D01*
X340726532Y24998585D01*
X340183988Y24998585D01*
X340183752Y24998585D01*
X340036588Y25005815D01*
X339890841Y25027434D01*
X339747914Y25063235D01*
X339609185Y25112873D01*
X339475990Y25175870D01*
X339349611Y25251619D01*
X339231264Y25339390D01*
X339122091Y25438339D01*
X339023143Y25547512D01*
X338935371Y25665858D01*
X338902864Y25720093D01*
X340183988Y25720093D01*
X340378964Y25633908D01*
X340530848Y25598939D01*
X340726532Y25587283D01*
X340924805Y25602196D01*
X341086344Y25646937D01*
X341211148Y25721506D01*
X341330889Y25883633D01*
X341370803Y26101569D01*
X341358793Y26233320D01*
X341322765Y26340345D01*
X341199845Y26498587D01*
X341035951Y26600314D01*
X340864993Y26669545D01*
X340756202Y26711931D01*
X340657301Y26764208D01*
X340585244Y26832026D01*
X340556987Y26921037D01*
X340587756Y27032497D01*
X340680064Y27099373D01*
X340833910Y27121665D01*
X341033126Y27093408D01*
X341189955Y27025590D01*
X341291682Y27294036D01*
X341152344Y27350551D01*
X341636423Y27350551D01*
X341636423Y25643798D01*
X341827161Y25611302D01*
X342009422Y25601412D01*
X342180027Y25613774D01*
X342335796Y25650862D01*
X342473905Y25714795D01*
X342591527Y25807691D01*
X342687249Y25930965D01*
X342759659Y26086028D01*
X342805224Y26275000D01*
X342820412Y26500000D01*
X342806637Y26720055D01*
X342765310Y26905495D01*
X342699258Y27058792D01*
X342611307Y27182419D01*
X342501456Y27276728D01*
X342369705Y27342074D01*
X342219587Y27380221D01*
X342054634Y27392937D01*
X341859657Y27384460D01*
X341636423Y27350551D01*
X341152344Y27350551D01*
X341089641Y27375983D01*
X340959303Y27403534D01*
X340808478Y27412717D01*
X340635323Y27397333D01*
X340488855Y27351179D01*
X340369074Y27274256D01*
X340249333Y27108949D01*
X340209419Y26889954D01*
X340254631Y26682261D01*
X340369074Y26542386D01*
X340523078Y26449137D01*
X340686971Y26384144D01*
X340805653Y26334694D01*
X340913031Y26275353D01*
X340992152Y26200471D01*
X341023235Y26104395D01*
X341010520Y26021035D01*
X340963895Y25947566D01*
X340872058Y25896702D01*
X340726532Y25878335D01*
X340585597Y25888225D01*
X340467976Y25917896D01*
X340285715Y26002668D01*
X340183988Y25720093D01*
X338902864Y25720093D01*
X338859622Y25792238D01*
X338796625Y25925433D01*
X338746987Y26064162D01*
X338711186Y26207088D01*
X338689567Y26352836D01*
X338682337Y26500000D01*
X338689567Y26647164D01*
X338711186Y26792912D01*
X338746987Y26935838D01*
X338796625Y27074567D01*
X338859622Y27207762D01*
X338935371Y27334142D01*
X339023143Y27452488D01*
X339122091Y27561661D01*
X339231264Y27660610D01*
X339349611Y27748381D01*
X339475990Y27824130D01*
X339609185Y27887127D01*
X339747914Y27936765D01*
X339890841Y27972566D01*
X340036588Y27994185D01*
X340183752Y28001415D01*
X340183988Y28001415D01*
X342820412Y28001415D01*
X342820648Y28001415D01*
X342967812Y27994185D01*
G37*
%TO.C,kibuzzard-65054B39*%
G36*
X363240347Y-26176609D02*
G01*
X362844742Y-26176609D01*
X362929514Y-26015542D01*
X363029828Y-25853061D01*
X363135794Y-25699058D01*
X363240347Y-25560596D01*
X363240347Y-26176609D01*
G37*
G36*
X363920900Y-24543778D02*
G01*
X364062944Y-24564849D01*
X364202239Y-24599740D01*
X364337443Y-24648117D01*
X364467254Y-24709513D01*
X364590422Y-24783338D01*
X364705762Y-24868879D01*
X364812161Y-24965314D01*
X364908596Y-25071713D01*
X364994137Y-25187052D01*
X365067961Y-25310220D01*
X365129357Y-25440032D01*
X365177734Y-25575236D01*
X365212626Y-25714531D01*
X365233696Y-25856575D01*
X365240742Y-26000000D01*
X365233696Y-26143425D01*
X365212626Y-26285469D01*
X365177734Y-26424764D01*
X365129357Y-26559968D01*
X365067961Y-26689780D01*
X364994137Y-26812948D01*
X364908596Y-26928287D01*
X364812161Y-27034686D01*
X364705762Y-27131121D01*
X364590422Y-27216662D01*
X364467254Y-27290487D01*
X364337443Y-27351883D01*
X364202239Y-27400260D01*
X364062944Y-27435151D01*
X363920900Y-27456222D01*
X363777474Y-27463268D01*
X363777239Y-27463268D01*
X363587914Y-27463268D01*
X362321978Y-27463268D01*
X361222761Y-27463268D01*
X361222526Y-27463268D01*
X361079100Y-27456222D01*
X360937056Y-27435151D01*
X360797761Y-27400260D01*
X360662557Y-27351883D01*
X360532746Y-27290487D01*
X360409578Y-27216662D01*
X360294238Y-27131121D01*
X360187839Y-27034686D01*
X360091404Y-26928287D01*
X360051565Y-26874570D01*
X361222761Y-26874570D01*
X362321978Y-26874570D01*
X362321978Y-26586343D01*
X361573154Y-26586343D01*
X361573154Y-26207693D01*
X362511303Y-26207693D01*
X362511303Y-26462010D01*
X363240347Y-26462010D01*
X363240347Y-26874570D01*
X363587914Y-26874570D01*
X363587914Y-26462010D01*
X363777239Y-26462010D01*
X363777239Y-26176609D01*
X363587914Y-26176609D01*
X363587914Y-25125430D01*
X363277081Y-25125430D01*
X363164051Y-25245878D01*
X363051021Y-25381161D01*
X362940817Y-25524921D01*
X362836264Y-25670800D01*
X362738776Y-25815973D01*
X362649765Y-25957614D01*
X362572763Y-26090071D01*
X362511303Y-26207693D01*
X361573154Y-26207693D01*
X361573154Y-25125430D01*
X361222761Y-25125430D01*
X361222761Y-26874570D01*
X360051565Y-26874570D01*
X360005863Y-26812948D01*
X359932039Y-26689780D01*
X359870643Y-26559968D01*
X359822266Y-26424764D01*
X359787374Y-26285469D01*
X359766304Y-26143425D01*
X359759258Y-26000000D01*
X359766304Y-25856575D01*
X359787374Y-25714531D01*
X359822266Y-25575236D01*
X359870643Y-25440032D01*
X359932039Y-25310220D01*
X360005863Y-25187052D01*
X360091404Y-25071713D01*
X360187839Y-24965314D01*
X360294238Y-24868879D01*
X360409578Y-24783338D01*
X360532746Y-24709513D01*
X360662557Y-24648117D01*
X360797761Y-24599740D01*
X360937056Y-24564849D01*
X361079100Y-24543778D01*
X361222526Y-24536732D01*
X361222761Y-24536732D01*
X363777239Y-24536732D01*
X363777474Y-24536732D01*
X363920900Y-24543778D01*
G37*
%TO.C,kibuzzard-65054AB1*%
G36*
X410158789Y27074334D02*
G01*
X410256984Y27025590D01*
X410320563Y26942230D01*
X410341756Y26822136D01*
X410262635Y26625746D01*
X410158789Y26573823D01*
X410005492Y26556515D01*
X409929197Y26556515D01*
X409929197Y27082105D01*
X409985712Y27089169D01*
X410033750Y27090582D01*
X410158789Y27074334D01*
G37*
G36*
X413105340Y27062324D02*
G01*
X413188700Y26932340D01*
X413228260Y26738776D01*
X413235678Y26623273D01*
X413238150Y26500000D01*
X413235678Y26377080D01*
X413228260Y26262637D01*
X413188700Y26069073D01*
X413103927Y25937676D01*
X412961227Y25889638D01*
X412817113Y25937676D01*
X412733754Y26067660D01*
X412694193Y26261224D01*
X412686776Y26376727D01*
X412684303Y26500000D01*
X412686776Y26622920D01*
X412694193Y26737363D01*
X412733754Y26930927D01*
X412817113Y27062324D01*
X412961227Y27110362D01*
X413105340Y27062324D01*
G37*
G36*
X416570170Y27994185D02*
G01*
X416715917Y27972566D01*
X416858844Y27936765D01*
X416997573Y27887127D01*
X417130768Y27824130D01*
X417257147Y27748381D01*
X417375494Y27660610D01*
X417484667Y27561661D01*
X417583615Y27452488D01*
X417671387Y27334142D01*
X417747136Y27207762D01*
X417810133Y27074567D01*
X417859771Y26935838D01*
X417895572Y26792912D01*
X417917191Y26647164D01*
X417924421Y26500000D01*
X417917191Y26352836D01*
X417895572Y26207088D01*
X417859771Y26064162D01*
X417810133Y25925433D01*
X417747136Y25792238D01*
X417671387Y25665858D01*
X417583615Y25547512D01*
X417484667Y25438339D01*
X417375494Y25339390D01*
X417257147Y25251619D01*
X417130768Y25175870D01*
X416997573Y25112873D01*
X416858844Y25063235D01*
X416715917Y25027434D01*
X416570170Y25005815D01*
X416423006Y24998585D01*
X416422770Y24998585D01*
X415962173Y24998585D01*
X414368450Y24998585D01*
X412964052Y24998585D01*
X411551177Y24998585D01*
X410810831Y24998585D01*
X409581630Y24998585D01*
X409581394Y24998585D01*
X409434230Y25005815D01*
X409288483Y25027434D01*
X409145556Y25063235D01*
X409006827Y25112873D01*
X408873632Y25175870D01*
X408747253Y25251619D01*
X408628906Y25339390D01*
X408519733Y25438339D01*
X408420785Y25547512D01*
X408333013Y25665858D01*
X408257264Y25792238D01*
X408194267Y25925433D01*
X408144629Y26064162D01*
X408108828Y26207088D01*
X408087209Y26352836D01*
X408079979Y26500000D01*
X408087209Y26647164D01*
X408108828Y26792912D01*
X408144629Y26935838D01*
X408194267Y27074567D01*
X408257264Y27207762D01*
X408333013Y27334142D01*
X408343087Y27347725D01*
X409581630Y27347725D01*
X409581630Y25624018D01*
X409929197Y25624018D01*
X409929197Y26268289D01*
X410110045Y26268289D01*
X410205767Y26108280D01*
X410295132Y25950392D01*
X410376019Y25790384D01*
X410446309Y25624018D01*
X410810831Y25624018D01*
X410730297Y25809104D01*
X410632809Y26004081D01*
X410528256Y26190580D01*
X410426529Y26353061D01*
X410457162Y26372841D01*
X411296860Y26372841D01*
X411318053Y26264050D01*
X411374568Y26184929D01*
X411455102Y26135478D01*
X411551177Y26118524D01*
X411726374Y26183516D01*
X411802669Y26372841D01*
X411749849Y26500000D01*
X412331084Y26500000D01*
X412341239Y26287804D01*
X412371705Y26103335D01*
X412422480Y25946595D01*
X412493565Y25817581D01*
X412618055Y25689638D01*
X412774884Y25612871D01*
X412964052Y25587283D01*
X413148668Y25612871D01*
X413303142Y25689638D01*
X413427475Y25817581D01*
X413499179Y25946595D01*
X413550396Y26103335D01*
X413575992Y26256986D01*
X413777868Y26256986D01*
X413784933Y26111459D01*
X413806126Y25980062D01*
X413844274Y25864913D01*
X413902201Y25768131D01*
X414084462Y25633908D01*
X414212681Y25598939D01*
X414368450Y25587283D01*
X414526692Y25598939D01*
X414656677Y25633908D01*
X414761229Y25690776D01*
X414843176Y25768131D01*
X414903223Y25864913D01*
X414942077Y25980062D01*
X414963271Y26111459D01*
X414970335Y26256986D01*
X414970335Y27084930D01*
X415151183Y27084930D01*
X415611780Y27084930D01*
X415611780Y25624018D01*
X415962173Y25624018D01*
X415962173Y27084930D01*
X416422770Y27084930D01*
X416422770Y27373157D01*
X415151183Y27373157D01*
X415151183Y27084930D01*
X414970335Y27084930D01*
X414970335Y27373157D01*
X414622768Y27373157D01*
X414622768Y26282417D01*
X414611465Y26097331D01*
X414571904Y25975823D01*
X414495609Y25909418D01*
X414374102Y25889638D01*
X414252594Y25909418D01*
X414177712Y25974411D01*
X414139564Y26094505D01*
X414128261Y26279592D01*
X414128261Y27373157D01*
X413777868Y27373157D01*
X413777868Y26256986D01*
X413575992Y26256986D01*
X413581126Y26287804D01*
X413591369Y26500000D01*
X413581302Y26712196D01*
X413551102Y26896665D01*
X413500768Y27053405D01*
X413430301Y27182419D01*
X413306596Y27310362D01*
X413150238Y27387129D01*
X412961227Y27412717D01*
X412777867Y27387129D01*
X412623393Y27310362D01*
X412497804Y27182419D01*
X412424864Y27053405D01*
X412372764Y26896665D01*
X412341504Y26712196D01*
X412331084Y26500000D01*
X411749849Y26500000D01*
X411726374Y26556515D01*
X411551177Y26621507D01*
X411455102Y26604553D01*
X411374568Y26556515D01*
X411318053Y26478807D01*
X411296860Y26372841D01*
X410457162Y26372841D01*
X410550155Y26432888D01*
X410632809Y26542386D01*
X410679434Y26673784D01*
X410694975Y26819310D01*
X410683319Y26956712D01*
X410648350Y27075040D01*
X410514127Y27254475D01*
X410418052Y27315935D01*
X410305022Y27359028D01*
X410176450Y27384460D01*
X410033750Y27392937D01*
X409934848Y27390111D01*
X409816167Y27383047D01*
X409693247Y27368918D01*
X409581630Y27347725D01*
X408343087Y27347725D01*
X408420785Y27452488D01*
X408519733Y27561661D01*
X408628906Y27660610D01*
X408747253Y27748381D01*
X408873632Y27824130D01*
X409006827Y27887127D01*
X409145556Y27936765D01*
X409288483Y27972566D01*
X409434230Y27994185D01*
X409581394Y28001415D01*
X409581630Y28001415D01*
X416422770Y28001415D01*
X416423006Y28001415D01*
X416570170Y27994185D01*
G37*
%TO.C,kibuzzard-65054ACE*%
G36*
X422324686Y-16844862D02*
G01*
X422438776Y-16860756D01*
X422626688Y-16931400D01*
X422751021Y-17061385D01*
X422796233Y-17260600D01*
X422796233Y-17291683D01*
X422793408Y-17322766D01*
X421617895Y-17322766D01*
X421610831Y-17271903D01*
X421609418Y-17221039D01*
X421658869Y-17031714D01*
X421790266Y-16915858D01*
X421979591Y-16856518D01*
X422200000Y-16839563D01*
X422324686Y-16844862D01*
G37*
G36*
X422322920Y-12603411D02*
G01*
X422437363Y-12610828D01*
X422630927Y-12650389D01*
X422762324Y-12735161D01*
X422810362Y-12877862D01*
X422762324Y-13021975D01*
X422632340Y-13105335D01*
X422438776Y-13144895D01*
X422323273Y-13152313D01*
X422200000Y-13154785D01*
X422077080Y-13152313D01*
X421962637Y-13144895D01*
X421769073Y-13105335D01*
X421637676Y-13021975D01*
X421589638Y-12877862D01*
X421637676Y-12733748D01*
X421767660Y-12650389D01*
X421961224Y-12610828D01*
X422076727Y-12603411D01*
X422200000Y-12600938D01*
X422322920Y-12603411D01*
G37*
G36*
X423701415Y-11470638D02*
G01*
X423701415Y-12875036D01*
X423701415Y-14287911D01*
X423701415Y-16257459D01*
X423701415Y-17297335D01*
X423701415Y-19083209D01*
X423701415Y-19300791D01*
X423701415Y-20583682D01*
X423701415Y-20583917D01*
X423694185Y-20731082D01*
X423672566Y-20876829D01*
X423636765Y-21019755D01*
X423587127Y-21158484D01*
X423524130Y-21291680D01*
X423448381Y-21418059D01*
X423360610Y-21536405D01*
X423261661Y-21645578D01*
X423152488Y-21744527D01*
X423034142Y-21832299D01*
X422907762Y-21908047D01*
X422774567Y-21971044D01*
X422635838Y-22020682D01*
X422492912Y-22056483D01*
X422347164Y-22078103D01*
X422200000Y-22085333D01*
X422052836Y-22078103D01*
X421907088Y-22056483D01*
X421764162Y-22020682D01*
X421625433Y-21971044D01*
X421492238Y-21908047D01*
X421365858Y-21832299D01*
X421247512Y-21744527D01*
X421138339Y-21645578D01*
X421039390Y-21536405D01*
X420951619Y-21418059D01*
X420875870Y-21291680D01*
X420812873Y-21158484D01*
X420763235Y-21019755D01*
X420727434Y-20876829D01*
X420705815Y-20731082D01*
X420698585Y-20583917D01*
X420698585Y-20583682D01*
X420698585Y-19405344D01*
X421326843Y-19405344D01*
X421326843Y-19693571D01*
X421476608Y-19744434D01*
X421670172Y-19806601D01*
X421884929Y-19877245D01*
X422101099Y-19947888D01*
X421897645Y-20012881D01*
X421680062Y-20080699D01*
X421479434Y-20144278D01*
X421326843Y-20193729D01*
X421326843Y-20481955D01*
X421518288Y-20500676D01*
X421725274Y-20517277D01*
X421943563Y-20531759D01*
X422168917Y-20544121D01*
X422398509Y-20555071D01*
X422629514Y-20565315D01*
X422856987Y-20574852D01*
X423075982Y-20583682D01*
X423075982Y-20264372D01*
X421716797Y-20278501D01*
X422457143Y-20072221D01*
X422457143Y-19817904D01*
X421716797Y-19603147D01*
X423075982Y-19620101D01*
X423075982Y-19300791D01*
X422852395Y-19307149D01*
X422633753Y-19314920D01*
X422418289Y-19324457D01*
X422204239Y-19336113D01*
X421989835Y-19350242D01*
X421773312Y-19367197D01*
X421552903Y-19385917D01*
X421326843Y-19405344D01*
X420698585Y-19405344D01*
X420698585Y-17972689D01*
X421326843Y-17972689D01*
X421326843Y-19083209D01*
X421615070Y-19083209D01*
X421615070Y-18701732D01*
X422787756Y-18701732D01*
X422787756Y-19083209D01*
X423075982Y-19083209D01*
X423075982Y-17972689D01*
X422787756Y-17972689D01*
X422787756Y-18351339D01*
X421615070Y-18351339D01*
X421615070Y-17972689D01*
X421326843Y-17972689D01*
X420698585Y-17972689D01*
X420698585Y-17252123D01*
X421307063Y-17252123D01*
X421315540Y-17447099D01*
X421349449Y-17670334D01*
X423056202Y-17670334D01*
X423088698Y-17479596D01*
X423098588Y-17297335D01*
X423086226Y-17126730D01*
X423049138Y-16970961D01*
X422985205Y-16832852D01*
X422892309Y-16715230D01*
X422769035Y-16619508D01*
X422613972Y-16547098D01*
X422425000Y-16501533D01*
X422200000Y-16486344D01*
X421979945Y-16500120D01*
X421794505Y-16541447D01*
X421641208Y-16607499D01*
X421517581Y-16695450D01*
X421423272Y-16805301D01*
X421357926Y-16937052D01*
X421319779Y-17087170D01*
X421307063Y-17252123D01*
X420698585Y-17252123D01*
X420698585Y-15146939D01*
X421326843Y-15146939D01*
X421326843Y-16257459D01*
X421615070Y-16257459D01*
X421615070Y-15875982D01*
X422787756Y-15875982D01*
X422787756Y-16257459D01*
X423075982Y-16257459D01*
X423075982Y-15146939D01*
X422787756Y-15146939D01*
X422787756Y-15525589D01*
X421615070Y-15525589D01*
X421615070Y-15146939D01*
X421326843Y-15146939D01*
X420698585Y-15146939D01*
X420698585Y-14287911D01*
X422078493Y-14287911D01*
X422095447Y-14383986D01*
X422143485Y-14464520D01*
X422221193Y-14521035D01*
X422327159Y-14542228D01*
X422435950Y-14521035D01*
X422515071Y-14464520D01*
X422564522Y-14383986D01*
X422581476Y-14287911D01*
X422516484Y-14112714D01*
X422327159Y-14036419D01*
X422143485Y-14112714D01*
X422078493Y-14287911D01*
X420698585Y-14287911D01*
X420698585Y-12877862D01*
X421287283Y-12877862D01*
X421312871Y-13061222D01*
X421389638Y-13215696D01*
X421517581Y-13341285D01*
X421646595Y-13414224D01*
X421803335Y-13466324D01*
X421987804Y-13497584D01*
X422200000Y-13508004D01*
X422412196Y-13497849D01*
X422596665Y-13467384D01*
X422753405Y-13416609D01*
X422882419Y-13345523D01*
X423010362Y-13221033D01*
X423087129Y-13064204D01*
X423112717Y-12875036D01*
X423087129Y-12690420D01*
X423010362Y-12535946D01*
X422882419Y-12411613D01*
X422753405Y-12339910D01*
X422596665Y-12288693D01*
X422412196Y-12257963D01*
X422200000Y-12247719D01*
X421987804Y-12257786D01*
X421803335Y-12287986D01*
X421646595Y-12338320D01*
X421517581Y-12408787D01*
X421389638Y-12532492D01*
X421312871Y-12688850D01*
X421287283Y-12877862D01*
X420698585Y-12877862D01*
X420698585Y-10868753D01*
X421326843Y-10868753D01*
X421326843Y-11216321D01*
X422417583Y-11216321D01*
X422602669Y-11227624D01*
X422724177Y-11267184D01*
X422790582Y-11343479D01*
X422810362Y-11464987D01*
X422790582Y-11586494D01*
X422725589Y-11661376D01*
X422605495Y-11699524D01*
X422420408Y-11710827D01*
X421326843Y-11710827D01*
X421326843Y-12061220D01*
X422443014Y-12061220D01*
X422588541Y-12054156D01*
X422719938Y-12032962D01*
X422835087Y-11994815D01*
X422931869Y-11936887D01*
X423066092Y-11754626D01*
X423101061Y-11626408D01*
X423112717Y-11470638D01*
X423101061Y-11312396D01*
X423066092Y-11182412D01*
X423009224Y-11077859D01*
X422931869Y-10995912D01*
X422835087Y-10935865D01*
X422719938Y-10897011D01*
X422588541Y-10875818D01*
X422443014Y-10868753D01*
X421326843Y-10868753D01*
X420698585Y-10868753D01*
X420698585Y-9416318D01*
X421326843Y-9416318D01*
X421326843Y-10687905D01*
X421615070Y-10687905D01*
X421615070Y-10227308D01*
X423075982Y-10227308D01*
X423075982Y-9876915D01*
X421615070Y-9876915D01*
X421615070Y-9416318D01*
X421326843Y-9416318D01*
X420698585Y-9416318D01*
X420698585Y-9416083D01*
X420705815Y-9268918D01*
X420727434Y-9123171D01*
X420763235Y-8980245D01*
X420812873Y-8841516D01*
X420875870Y-8708320D01*
X420951619Y-8581941D01*
X421039390Y-8463595D01*
X421138339Y-8354422D01*
X421247512Y-8255473D01*
X421365858Y-8167701D01*
X421492238Y-8091953D01*
X421625433Y-8028956D01*
X421764162Y-7979318D01*
X421907088Y-7943517D01*
X422052836Y-7921897D01*
X422200000Y-7914667D01*
X422347164Y-7921897D01*
X422492912Y-7943517D01*
X422635838Y-7979318D01*
X422774567Y-8028956D01*
X422907762Y-8091953D01*
X423034142Y-8167701D01*
X423152488Y-8255473D01*
X423261661Y-8354422D01*
X423360610Y-8463595D01*
X423448381Y-8581941D01*
X423524130Y-8708320D01*
X423587127Y-8841516D01*
X423636765Y-8980245D01*
X423672566Y-9123171D01*
X423694185Y-9268918D01*
X423701415Y-9416083D01*
X423701415Y-9416318D01*
X423701415Y-9876915D01*
X423701415Y-11470638D01*
G37*
%TO.C,kibuzzard-64F89A84*%
G36*
X326445832Y-505815D02*
G01*
X326591579Y-527434D01*
X326734505Y-563235D01*
X326873234Y-612873D01*
X327006430Y-675870D01*
X327132809Y-751619D01*
X327251155Y-839390D01*
X327360328Y-938339D01*
X327459277Y-1047512D01*
X327547049Y-1165858D01*
X327622798Y-1292238D01*
X327685794Y-1425433D01*
X327735432Y-1564162D01*
X327771233Y-1707088D01*
X327792853Y-1852836D01*
X327800083Y-2000000D01*
X327792853Y-2147164D01*
X327771233Y-2292912D01*
X327735432Y-2435838D01*
X327685794Y-2574567D01*
X327622798Y-2707762D01*
X327547049Y-2834142D01*
X327459277Y-2952488D01*
X327360328Y-3061661D01*
X327251155Y-3160610D01*
X327132809Y-3248381D01*
X327006430Y-3324130D01*
X326873234Y-3387127D01*
X326734505Y-3436765D01*
X326591579Y-3472566D01*
X326445832Y-3494185D01*
X326298668Y-3501415D01*
X326298432Y-3501415D01*
X324244112Y-3501415D01*
X323701568Y-3501415D01*
X323701332Y-3501415D01*
X323554168Y-3494185D01*
X323408421Y-3472566D01*
X323265495Y-3436765D01*
X323126766Y-3387127D01*
X322993570Y-3324130D01*
X322867191Y-3248381D01*
X322748845Y-3160610D01*
X322639672Y-3061661D01*
X322540723Y-2952488D01*
X322452951Y-2834142D01*
X322420444Y-2779907D01*
X323701568Y-2779907D01*
X323896545Y-2866092D01*
X324048429Y-2901061D01*
X324244112Y-2912717D01*
X324442385Y-2897804D01*
X324603924Y-2853063D01*
X324728728Y-2778494D01*
X324848469Y-2616367D01*
X324888383Y-2398431D01*
X324876373Y-2266680D01*
X324840345Y-2159655D01*
X324717425Y-2001413D01*
X324553532Y-1899686D01*
X324382574Y-1830455D01*
X324273782Y-1788069D01*
X324174881Y-1735792D01*
X324102824Y-1667974D01*
X324074567Y-1578963D01*
X324098749Y-1491365D01*
X325137049Y-1491365D01*
X325250079Y-1779591D01*
X325422450Y-1710361D01*
X325603298Y-1610046D01*
X325603298Y-2587756D01*
X325235950Y-2587756D01*
X325235950Y-2875982D01*
X326298432Y-2875982D01*
X326298432Y-2587756D01*
X325950865Y-2587756D01*
X325950865Y-1126843D01*
X325713502Y-1126843D01*
X325591995Y-1237047D01*
X325442230Y-1338774D01*
X325283988Y-1426373D01*
X325137049Y-1491365D01*
X324098749Y-1491365D01*
X324105336Y-1467503D01*
X324197644Y-1400627D01*
X324351490Y-1378335D01*
X324550706Y-1406592D01*
X324707535Y-1474410D01*
X324809262Y-1205964D01*
X324607221Y-1124017D01*
X324476883Y-1096466D01*
X324326059Y-1087283D01*
X324152903Y-1102667D01*
X324006435Y-1148821D01*
X323886655Y-1225744D01*
X323766913Y-1391051D01*
X323727000Y-1610046D01*
X323772212Y-1817739D01*
X323886655Y-1957614D01*
X324040658Y-2050863D01*
X324204551Y-2115856D01*
X324323233Y-2165306D01*
X324430611Y-2224647D01*
X324509732Y-2299529D01*
X324540816Y-2395605D01*
X324528100Y-2478965D01*
X324481475Y-2552434D01*
X324389638Y-2603298D01*
X324244112Y-2621665D01*
X324103178Y-2611775D01*
X323985556Y-2582104D01*
X323803295Y-2497332D01*
X323701568Y-2779907D01*
X322420444Y-2779907D01*
X322377202Y-2707762D01*
X322314206Y-2574567D01*
X322264568Y-2435838D01*
X322228767Y-2292912D01*
X322207147Y-2147164D01*
X322199917Y-2000000D01*
X322207147Y-1852836D01*
X322228767Y-1707088D01*
X322264568Y-1564162D01*
X322314206Y-1425433D01*
X322377202Y-1292238D01*
X322452951Y-1165858D01*
X322540723Y-1047512D01*
X322639672Y-938339D01*
X322748845Y-839390D01*
X322867191Y-751619D01*
X322993570Y-675870D01*
X323126766Y-612873D01*
X323265495Y-563235D01*
X323408421Y-527434D01*
X323554168Y-505815D01*
X323701332Y-498585D01*
X323701568Y-498585D01*
X326298432Y-498585D01*
X326298668Y-498585D01*
X326445832Y-505815D01*
G37*
%TO.C,kibuzzard-650552D5*%
G36*
X372411618Y27062324D02*
G01*
X372494978Y26932340D01*
X372534538Y26738776D01*
X372541956Y26623273D01*
X372544429Y26500000D01*
X372541956Y26377080D01*
X372534538Y26262637D01*
X372494978Y26069073D01*
X372410205Y25937676D01*
X372267505Y25889638D01*
X372123392Y25937676D01*
X372040032Y26067660D01*
X372000472Y26261224D01*
X371993054Y26376727D01*
X371990582Y26500000D01*
X371993054Y26622920D01*
X372000472Y26737363D01*
X372040032Y26930927D01*
X372123392Y27062324D01*
X372267505Y27110362D01*
X372411618Y27062324D01*
G37*
G36*
X375876449Y27994185D02*
G01*
X376022196Y27972566D01*
X376165122Y27936765D01*
X376303851Y27887127D01*
X376437046Y27824130D01*
X376563426Y27748381D01*
X376681772Y27660610D01*
X376790945Y27561661D01*
X376889894Y27452488D01*
X376977665Y27334142D01*
X377053414Y27207762D01*
X377116411Y27074567D01*
X377166049Y26935838D01*
X377201850Y26792912D01*
X377223470Y26647164D01*
X377230699Y26500000D01*
X377223470Y26352836D01*
X377201850Y26207088D01*
X377166049Y26064162D01*
X377116411Y25925433D01*
X377053414Y25792238D01*
X376977665Y25665858D01*
X376889894Y25547512D01*
X376790945Y25438339D01*
X376681772Y25339390D01*
X376563426Y25251619D01*
X376437046Y25175870D01*
X376303851Y25112873D01*
X376165122Y25063235D01*
X376022196Y25027434D01*
X375876449Y25005815D01*
X375729284Y24998585D01*
X375729049Y24998585D01*
X375268452Y24998585D01*
X373629517Y24998585D01*
X372270331Y24998585D01*
X371433909Y24998585D01*
X370275351Y24998585D01*
X370275116Y24998585D01*
X370127951Y25005815D01*
X369982204Y25027434D01*
X369839278Y25063235D01*
X369700549Y25112873D01*
X369567354Y25175870D01*
X369440974Y25251619D01*
X369322628Y25339390D01*
X369213455Y25438339D01*
X369114506Y25547512D01*
X369057766Y25624018D01*
X370275351Y25624018D01*
X370622919Y25624018D01*
X370622919Y26395447D01*
X371086342Y26395447D01*
X371086342Y25624018D01*
X371433909Y25624018D01*
X371433909Y26500000D01*
X371637363Y26500000D01*
X371647518Y26287804D01*
X371677983Y26103335D01*
X371728758Y25946595D01*
X371799843Y25817581D01*
X371924333Y25689638D01*
X372081162Y25612871D01*
X372270331Y25587283D01*
X372454946Y25612871D01*
X372609421Y25689638D01*
X372639017Y25720093D01*
X373086973Y25720093D01*
X373281949Y25633908D01*
X373433833Y25598939D01*
X373629517Y25587283D01*
X373827790Y25602196D01*
X373989329Y25646937D01*
X374114133Y25721506D01*
X374233874Y25883633D01*
X374273788Y26101569D01*
X374261778Y26233320D01*
X374225750Y26340345D01*
X374102830Y26498587D01*
X373938936Y26600314D01*
X373767978Y26669545D01*
X373659187Y26711931D01*
X373560286Y26764208D01*
X373488229Y26832026D01*
X373459972Y26921037D01*
X373490741Y27032497D01*
X373583049Y27099373D01*
X373736895Y27121665D01*
X373936110Y27093408D01*
X374092940Y27025590D01*
X374115427Y27084930D01*
X374457461Y27084930D01*
X374918059Y27084930D01*
X374918059Y25624018D01*
X375268452Y25624018D01*
X375268452Y27084930D01*
X375729049Y27084930D01*
X375729049Y27373157D01*
X374457461Y27373157D01*
X374457461Y27084930D01*
X374115427Y27084930D01*
X374194667Y27294036D01*
X373992625Y27375983D01*
X373862288Y27403534D01*
X373711463Y27412717D01*
X373538308Y27397333D01*
X373391840Y27351179D01*
X373272059Y27274256D01*
X373152318Y27108949D01*
X373112404Y26889954D01*
X373157616Y26682261D01*
X373272059Y26542386D01*
X373426063Y26449137D01*
X373589956Y26384144D01*
X373708638Y26334694D01*
X373816016Y26275353D01*
X373895137Y26200471D01*
X373926220Y26104395D01*
X373913504Y26021035D01*
X373866880Y25947566D01*
X373775043Y25896702D01*
X373629517Y25878335D01*
X373488582Y25888225D01*
X373370960Y25917896D01*
X373188700Y26002668D01*
X373086973Y25720093D01*
X372639017Y25720093D01*
X372733754Y25817581D01*
X372805457Y25946595D01*
X372856674Y26103335D01*
X372887404Y26287804D01*
X372897647Y26500000D01*
X372887581Y26712196D01*
X372857380Y26896665D01*
X372807047Y27053405D01*
X372736580Y27182419D01*
X372612874Y27310362D01*
X372456516Y27387129D01*
X372267505Y27412717D01*
X372084145Y27387129D01*
X371929671Y27310362D01*
X371804082Y27182419D01*
X371731142Y27053405D01*
X371679043Y26896665D01*
X371647783Y26712196D01*
X371637363Y26500000D01*
X371433909Y26500000D01*
X371433909Y27373157D01*
X371086342Y27373157D01*
X371086342Y26683674D01*
X370622919Y26683674D01*
X370622919Y27373157D01*
X370275351Y27373157D01*
X370275351Y25624018D01*
X369057766Y25624018D01*
X369026735Y25665858D01*
X368950986Y25792238D01*
X368887989Y25925433D01*
X368838351Y26064162D01*
X368802550Y26207088D01*
X368780930Y26352836D01*
X368773701Y26500000D01*
X368780930Y26647164D01*
X368802550Y26792912D01*
X368838351Y26935838D01*
X368887989Y27074567D01*
X368950986Y27207762D01*
X369026735Y27334142D01*
X369114506Y27452488D01*
X369213455Y27561661D01*
X369322628Y27660610D01*
X369440974Y27748381D01*
X369567354Y27824130D01*
X369700549Y27887127D01*
X369839278Y27936765D01*
X369982204Y27972566D01*
X370127951Y27994185D01*
X370275116Y28001415D01*
X370275351Y28001415D01*
X375729049Y28001415D01*
X375729284Y28001415D01*
X375876449Y27994185D01*
G37*
%TO.C,kibuzzard-65054A9D*%
G36*
X299806304Y27956222D02*
G01*
X299948348Y27935151D01*
X300087643Y27900260D01*
X300222847Y27851883D01*
X300352659Y27790487D01*
X300475827Y27716662D01*
X300591166Y27631121D01*
X300697566Y27534686D01*
X300794000Y27428287D01*
X300879542Y27312948D01*
X300953366Y27189780D01*
X301014762Y27059968D01*
X301063139Y26924764D01*
X301098030Y26785469D01*
X301119101Y26643425D01*
X301126147Y26500000D01*
X301119101Y26356575D01*
X301098030Y26214531D01*
X301063139Y26075236D01*
X301014762Y25940032D01*
X300953366Y25810220D01*
X300879542Y25687052D01*
X300794000Y25571713D01*
X300697566Y25465314D01*
X300591166Y25368879D01*
X300475827Y25283338D01*
X300352659Y25209513D01*
X300222847Y25148117D01*
X300087643Y25099740D01*
X299948348Y25064849D01*
X299806304Y25043778D01*
X299662879Y25036732D01*
X299662644Y25036732D01*
X299382894Y25036732D01*
X297119469Y25036732D01*
X296263266Y25036732D01*
X295440973Y25036732D01*
X294341756Y25036732D01*
X294341521Y25036732D01*
X294198096Y25043778D01*
X294056052Y25064849D01*
X293916757Y25099740D01*
X293781553Y25148117D01*
X293651741Y25209513D01*
X293528573Y25283338D01*
X293413234Y25368879D01*
X293306834Y25465314D01*
X293210400Y25571713D01*
X293170560Y25625430D01*
X294341756Y25625430D01*
X295440973Y25625430D01*
X295440973Y25913657D01*
X294692149Y25913657D01*
X294692149Y26374254D01*
X296008949Y26374254D01*
X296030142Y26265463D01*
X296086657Y26186342D01*
X296167191Y26136891D01*
X296263266Y26119937D01*
X296438463Y26184929D01*
X296514758Y26374254D01*
X296438463Y26557928D01*
X296263266Y26622920D01*
X296167191Y26605966D01*
X296086657Y26557928D01*
X296030142Y26480220D01*
X296008949Y26374254D01*
X294692149Y26374254D01*
X294692149Y27086343D01*
X297119469Y27086343D01*
X297500945Y27086343D01*
X297500945Y25913657D01*
X297119469Y25913657D01*
X297119469Y25625430D01*
X298229988Y25625430D01*
X298509738Y25625430D01*
X298823396Y25625430D01*
X298823396Y26786814D01*
X298928420Y26592936D01*
X299028734Y26399372D01*
X299124338Y26206122D01*
X299215233Y26012872D01*
X299301419Y25819308D01*
X299382894Y25625430D01*
X299662644Y25625430D01*
X299662644Y27374570D01*
X299348985Y27374570D01*
X299348985Y26297959D01*
X299299182Y26408163D01*
X299240194Y26535322D01*
X299173789Y26673077D01*
X299101732Y26815071D01*
X299025790Y26959538D01*
X298947729Y27104710D01*
X298868608Y27244938D01*
X298789487Y27374570D01*
X298509738Y27374570D01*
X298509738Y25625430D01*
X298229988Y25625430D01*
X298229988Y25913657D01*
X297851338Y25913657D01*
X297851338Y27086343D01*
X298229988Y27086343D01*
X298229988Y27374570D01*
X297119469Y27374570D01*
X297119469Y27086343D01*
X294692149Y27086343D01*
X294692149Y27374570D01*
X294341756Y27374570D01*
X294341756Y25625430D01*
X293170560Y25625430D01*
X293124858Y25687052D01*
X293051034Y25810220D01*
X292989638Y25940032D01*
X292941261Y26075236D01*
X292906370Y26214531D01*
X292885299Y26356575D01*
X292878253Y26500000D01*
X292885299Y26643425D01*
X292906370Y26785469D01*
X292941261Y26924764D01*
X292989638Y27059968D01*
X293051034Y27189780D01*
X293124858Y27312948D01*
X293210400Y27428287D01*
X293306834Y27534686D01*
X293413234Y27631121D01*
X293528573Y27716662D01*
X293651741Y27790487D01*
X293781553Y27851883D01*
X293916757Y27900260D01*
X294056052Y27935151D01*
X294198096Y27956222D01*
X294341521Y27963268D01*
X294341756Y27963268D01*
X299662644Y27963268D01*
X299662879Y27963268D01*
X299806304Y27956222D01*
G37*
%TO.C,kibuzzard-64F89A08*%
G36*
X281139875Y27075040D02*
G01*
X281206280Y26926688D01*
X281169545Y26775511D01*
X281045212Y26632810D01*
X280906044Y26699215D01*
X280816326Y26762795D01*
X280751334Y26923863D01*
X280820565Y27073627D01*
X280980220Y27124491D01*
X281139875Y27075040D01*
G37*
G36*
X281045212Y26326216D02*
G01*
X281165306Y26255573D01*
X281233124Y26177865D01*
X281254317Y26078963D01*
X281179435Y25933437D01*
X280977394Y25872683D01*
X280786656Y25930611D01*
X280706122Y26101569D01*
X280748508Y26255573D01*
X280870015Y26401099D01*
X281045212Y26326216D01*
G37*
G36*
X283890742Y27038305D02*
G01*
X284006598Y26906908D01*
X284065939Y26717583D01*
X284082893Y26497174D01*
X284077595Y26372488D01*
X284061700Y26258398D01*
X283991056Y26070486D01*
X283861072Y25946153D01*
X283661856Y25900941D01*
X283630773Y25900941D01*
X283599690Y25903767D01*
X283599690Y27079279D01*
X283650553Y27086343D01*
X283701417Y27087756D01*
X283890742Y27038305D01*
G37*
G36*
X276853212Y27082105D02*
G01*
X276932333Y26986029D01*
X276974719Y26854632D01*
X276987435Y26711931D01*
X276986022Y26648352D01*
X276981783Y26593250D01*
X276885708Y26562167D01*
X276772678Y26550864D01*
X276646932Y26568524D01*
X276563572Y26621507D01*
X276501406Y26824961D01*
X276514122Y26937991D01*
X276553682Y27031241D01*
X276624326Y27094820D01*
X276730292Y27118839D01*
X276853212Y27082105D01*
G37*
G36*
X285985361Y27996998D02*
G01*
X286131382Y27975337D01*
X286274578Y27939469D01*
X286413568Y27889737D01*
X286547014Y27826622D01*
X286673631Y27750731D01*
X286792200Y27662794D01*
X286901578Y27563659D01*
X287000713Y27454280D01*
X287088650Y27335711D01*
X287164542Y27209094D01*
X287227657Y27075648D01*
X287277388Y26936658D01*
X287313257Y26793463D01*
X287334917Y26647441D01*
X287342160Y26500000D01*
X287334917Y26352559D01*
X287313257Y26206537D01*
X287277388Y26063342D01*
X287227657Y25924352D01*
X287164542Y25790906D01*
X287088650Y25664289D01*
X287000713Y25545720D01*
X286901578Y25436341D01*
X286792200Y25337206D01*
X286673631Y25249269D01*
X286547014Y25173378D01*
X286413568Y25110263D01*
X286274578Y25060531D01*
X286131382Y25024663D01*
X285985361Y25003002D01*
X285837919Y24995759D01*
X285837684Y24995759D01*
X285348829Y24995759D01*
X283625122Y24995759D01*
X282212247Y24995759D01*
X280971742Y24995759D01*
X280157926Y24995759D01*
X278541597Y24995759D01*
X276280997Y24995759D01*
X276162316Y24995759D01*
X276162081Y24995759D01*
X276014639Y25003002D01*
X275868618Y25024663D01*
X275725422Y25060531D01*
X275586432Y25110263D01*
X275452986Y25173378D01*
X275326369Y25249269D01*
X275207800Y25337206D01*
X275098422Y25436341D01*
X274999287Y25545720D01*
X274911350Y25664289D01*
X274835458Y25790906D01*
X274772343Y25924352D01*
X274722612Y26063342D01*
X274686743Y26206537D01*
X274665083Y26352559D01*
X274657840Y26500000D01*
X274665083Y26647441D01*
X274686743Y26793463D01*
X274693217Y26819310D01*
X276162316Y26819310D01*
X276193399Y26603140D01*
X276292300Y26426531D01*
X276467497Y26306436D01*
X276586178Y26273587D01*
X276727466Y26262637D01*
X276925268Y26310675D01*
X276825661Y26134419D01*
X276673777Y26012558D01*
X276483745Y25940855D01*
X276269694Y25915070D01*
X276280997Y25615540D01*
X276507411Y25632848D01*
X276711924Y25684771D01*
X276891359Y25769897D01*
X277042537Y25886812D01*
X277163691Y26035517D01*
X277232769Y26175039D01*
X277767342Y26175039D01*
X278541597Y26175039D01*
X278541597Y26516955D01*
X277767342Y26516955D01*
X277767342Y26175039D01*
X277232769Y26175039D01*
X277253055Y26216012D01*
X277308158Y26426884D01*
X277326525Y26666719D01*
X277309257Y26884930D01*
X277275163Y27005809D01*
X278996543Y27005809D01*
X279109573Y26717583D01*
X279281944Y26786814D01*
X279462792Y26887128D01*
X279462792Y25909418D01*
X279095444Y25909418D01*
X279095444Y25621192D01*
X280157926Y25621192D01*
X280157926Y25909418D01*
X279810359Y25909418D01*
X279810359Y26059183D01*
X280381161Y26059183D01*
X280423547Y25859968D01*
X280543641Y25710203D01*
X280730141Y25616953D01*
X280844937Y25592581D01*
X280971742Y25584457D01*
X281127865Y25595760D01*
X281257143Y25629669D01*
X281445056Y25744112D01*
X281549608Y25900941D01*
X281582104Y26073312D01*
X281565503Y26200471D01*
X281515699Y26316326D01*
X281425629Y26422292D01*
X281288226Y26519780D01*
X281398431Y26608438D01*
X281474726Y26716170D01*
X281519232Y26834498D01*
X281534067Y26954946D01*
X281496979Y27142858D01*
X281385715Y27288384D01*
X281232685Y27370331D01*
X281723392Y27370331D01*
X281755888Y27212089D01*
X281802513Y27014287D01*
X281839876Y26866249D01*
X281880378Y26712245D01*
X281924020Y26552276D01*
X281970174Y26389168D01*
X282018212Y26225745D01*
X282068133Y26062009D01*
X282142309Y25828884D01*
X282212247Y25621192D01*
X282571117Y25621192D01*
X282625120Y25771741D01*
X282677868Y25925745D01*
X282729359Y26083202D01*
X282778810Y26241444D01*
X282825434Y26397802D01*
X282869234Y26552276D01*
X282929281Y26777277D01*
X282982264Y26991681D01*
X283027829Y27190896D01*
X283060862Y27347725D01*
X283252123Y27347725D01*
X283252123Y25640972D01*
X283442861Y25608476D01*
X283625122Y25598586D01*
X283795726Y25610948D01*
X283951496Y25648036D01*
X284089604Y25711969D01*
X284207226Y25804865D01*
X284302949Y25928139D01*
X284375358Y26083202D01*
X284420924Y26272174D01*
X284436112Y26497174D01*
X284588702Y26497174D01*
X284600889Y26290718D01*
X284637447Y26109340D01*
X284698377Y25953041D01*
X284783679Y25821820D01*
X284933130Y25689952D01*
X285121513Y25610831D01*
X285348829Y25584457D01*
X285503186Y25593994D01*
X285638469Y25622605D01*
X285837684Y25705964D01*
X285750086Y25980062D01*
X285607385Y25917896D01*
X285382738Y25886812D01*
X285181050Y25926726D01*
X285045061Y26046467D01*
X284987761Y26168445D01*
X284953381Y26321507D01*
X284941921Y26505652D01*
X284951458Y26663894D01*
X284980069Y26793878D01*
X285078970Y26978965D01*
X285217432Y27077866D01*
X285377087Y27107536D01*
X285587605Y27077866D01*
X285744434Y27005809D01*
X285834858Y27282733D01*
X285776930Y27316642D01*
X285682268Y27359028D01*
X285550870Y27394350D01*
X285382738Y27409892D01*
X285217079Y27394703D01*
X285064841Y27349138D01*
X284929205Y27274256D01*
X284813350Y27171116D01*
X284719040Y27040778D01*
X284648043Y26884302D01*
X284603538Y26702748D01*
X284588702Y26497174D01*
X284436112Y26497174D01*
X284422336Y26717230D01*
X284381010Y26902669D01*
X284314958Y27055966D01*
X284227006Y27179593D01*
X284117155Y27273902D01*
X283985405Y27339248D01*
X283835287Y27377395D01*
X283670334Y27390111D01*
X283475357Y27381634D01*
X283252123Y27347725D01*
X283060862Y27347725D01*
X283065623Y27370331D01*
X282701101Y27370331D01*
X282675670Y27223392D01*
X282644586Y27053847D01*
X282609265Y26870526D01*
X282571117Y26682261D01*
X282530144Y26492936D01*
X282486344Y26306436D01*
X282441132Y26131593D01*
X282395920Y25977236D01*
X282350355Y26133712D01*
X282304084Y26309262D01*
X282258872Y26495761D01*
X282216485Y26685087D01*
X282177278Y26872999D01*
X282141603Y27055260D01*
X282111933Y27223745D01*
X282090739Y27370331D01*
X281723392Y27370331D01*
X281232685Y27370331D01*
X281211578Y27381634D01*
X280985871Y27412717D01*
X280840345Y27400708D01*
X280720251Y27364680D01*
X280547880Y27243172D01*
X280453217Y27077866D01*
X280423547Y26901257D01*
X280468759Y26697803D01*
X280533751Y26604553D01*
X280638304Y26516955D01*
X280523155Y26419819D01*
X280443327Y26309262D01*
X280396702Y26188108D01*
X280381161Y26059183D01*
X279810359Y26059183D01*
X279810359Y27370331D01*
X279572996Y27370331D01*
X279451489Y27260127D01*
X279301724Y27158400D01*
X279143482Y27070802D01*
X278996543Y27005809D01*
X277275163Y27005809D01*
X277257451Y27068604D01*
X277171109Y27217741D01*
X277052113Y27327631D01*
X276902349Y27393565D01*
X276721814Y27415543D01*
X276589711Y27401767D01*
X276475974Y27360441D01*
X276302191Y27219153D01*
X276197638Y27027002D01*
X276162316Y26819310D01*
X274693217Y26819310D01*
X274722612Y26936658D01*
X274772343Y27075648D01*
X274835458Y27209094D01*
X274911350Y27335711D01*
X274999287Y27454280D01*
X275098422Y27563659D01*
X275207800Y27662794D01*
X275326369Y27750731D01*
X275452986Y27826622D01*
X275586432Y27889737D01*
X275725422Y27939469D01*
X275868618Y27975337D01*
X276014639Y27996998D01*
X276162081Y28004241D01*
X276162316Y28004241D01*
X285837684Y28004241D01*
X285837919Y28004241D01*
X285985361Y27996998D01*
G37*
%TO.C,kibuzzard-65054B46*%
G36*
X380404471Y-2524093D02*
G01*
X380548435Y-2545449D01*
X380689613Y-2580812D01*
X380826645Y-2629843D01*
X380958211Y-2692069D01*
X381083044Y-2766891D01*
X381199943Y-2853589D01*
X381307780Y-2951327D01*
X381405519Y-3059164D01*
X381492216Y-3176063D01*
X381567038Y-3300896D01*
X381629265Y-3432462D01*
X381678295Y-3569494D01*
X381713659Y-3710672D01*
X381735014Y-3854636D01*
X381742155Y-4000000D01*
X381735014Y-4145364D01*
X381713659Y-4289328D01*
X381678295Y-4430506D01*
X381629265Y-4567538D01*
X381567038Y-4699104D01*
X381492216Y-4823937D01*
X381405519Y-4940836D01*
X381307780Y-5048673D01*
X381199943Y-5146411D01*
X381083044Y-5233109D01*
X380958211Y-5307931D01*
X380826645Y-5370157D01*
X380689613Y-5419188D01*
X380548435Y-5454551D01*
X380404471Y-5475907D01*
X380259107Y-5483048D01*
X380258872Y-5483048D01*
X378840345Y-5483048D01*
X377741128Y-5483048D01*
X377740893Y-5483048D01*
X377595529Y-5475907D01*
X377451565Y-5454551D01*
X377310387Y-5419188D01*
X377173355Y-5370157D01*
X377041789Y-5307931D01*
X376916956Y-5233109D01*
X376800057Y-5146411D01*
X376692220Y-5048673D01*
X376594481Y-4940836D01*
X376560005Y-4894350D01*
X377741128Y-4894350D01*
X378840345Y-4894350D01*
X378840345Y-4606123D01*
X378091521Y-4606123D01*
X378091521Y-3337362D01*
X379074882Y-3337362D01*
X379247253Y-3580376D01*
X379425275Y-3447566D01*
X379597646Y-3408005D01*
X379761540Y-3465933D01*
X379826532Y-3631240D01*
X379774256Y-3781004D01*
X379641445Y-3933595D01*
X379558086Y-4014482D01*
X379469075Y-4098901D01*
X379380063Y-4188619D01*
X379296704Y-4285401D01*
X379223234Y-4390307D01*
X379163894Y-4504396D01*
X379124686Y-4628729D01*
X379111617Y-4764365D01*
X379110204Y-4823706D01*
X379117269Y-4894350D01*
X380258872Y-4894350D01*
X380258872Y-4606123D01*
X379507222Y-4606123D01*
X379536893Y-4512874D01*
X379608949Y-4412560D01*
X379699373Y-4316484D01*
X379784146Y-4235950D01*
X379928259Y-4094663D01*
X380055418Y-3942072D01*
X380145842Y-3779591D01*
X380179751Y-3605808D01*
X380134539Y-3386812D01*
X380013031Y-3229983D01*
X379837835Y-3136733D01*
X379631555Y-3105650D01*
X379484263Y-3119779D01*
X379336264Y-3162165D01*
X379196743Y-3234222D01*
X379074882Y-3337362D01*
X378091521Y-3337362D01*
X378091521Y-3145211D01*
X377741128Y-3145211D01*
X377741128Y-4894350D01*
X376560005Y-4894350D01*
X376507784Y-4823937D01*
X376432962Y-4699104D01*
X376370735Y-4567538D01*
X376321705Y-4430506D01*
X376286341Y-4289328D01*
X376264986Y-4145364D01*
X376257845Y-4000000D01*
X376264986Y-3854636D01*
X376286341Y-3710672D01*
X376321705Y-3569494D01*
X376370735Y-3432462D01*
X376432962Y-3300896D01*
X376507784Y-3176063D01*
X376594481Y-3059164D01*
X376692220Y-2951327D01*
X376800057Y-2853589D01*
X376916956Y-2766891D01*
X377041789Y-2692069D01*
X377173355Y-2629843D01*
X377310387Y-2580812D01*
X377451565Y-2545449D01*
X377595529Y-2524093D01*
X377740893Y-2516952D01*
X377741128Y-2516952D01*
X380258872Y-2516952D01*
X380259107Y-2516952D01*
X380404471Y-2524093D01*
G37*
D11*
%TO.C,REF\u002A\u002A*%
X279000000Y22475000D02*
X279900000Y22475000D01*
X281000000Y22475000D02*
X283000000Y22475000D01*
X281750000Y21800000D02*
G75*
G02*
X281675000Y23225000I-750000J675000D01*
G01*
X278925000Y22475000D02*
G75*
G02*
X277075000Y22475000I-925000J0D01*
G01*
X277075000Y22475000D02*
G75*
G02*
X278925000Y22475000I925000J0D01*
G01*
D12*
X281175000Y22475000D02*
G75*
G02*
X280825000Y22475000I-175000J0D01*
G01*
X280825000Y22475000D02*
G75*
G02*
X281175000Y22475000I175000J0D01*
G01*
D11*
X284925000Y22475000D02*
G75*
G02*
X283075000Y22475000I-925000J0D01*
G01*
X283075000Y22475000D02*
G75*
G02*
X284925000Y22475000I925000J0D01*
G01*
D16*
%TO.C,kibuzzard-65054AA4*%
G36*
X312894897Y27065856D02*
G01*
X312993092Y27017112D01*
X313056671Y26933753D01*
X313077864Y26813658D01*
X312998743Y26617269D01*
X312894897Y26565345D01*
X312741600Y26548038D01*
X312665305Y26548038D01*
X312665305Y27073627D01*
X312721820Y27080692D01*
X312769858Y27082104D01*
X312894897Y27065856D01*
G37*
G36*
X317831293Y27966064D02*
G01*
X317974297Y27944851D01*
X318114533Y27909724D01*
X318250651Y27861020D01*
X318381340Y27799209D01*
X318505341Y27724886D01*
X318621459Y27638766D01*
X318728578Y27541680D01*
X318825664Y27434561D01*
X318911784Y27318443D01*
X318986107Y27194442D01*
X319047918Y27063753D01*
X319096622Y26927635D01*
X319131749Y26787399D01*
X319152962Y26644395D01*
X319160056Y26500000D01*
X319152962Y26355605D01*
X319131749Y26212601D01*
X319096622Y26072365D01*
X319047918Y25936247D01*
X318986107Y25805558D01*
X318911784Y25681557D01*
X318825664Y25565439D01*
X318728578Y25458320D01*
X318621459Y25361234D01*
X318505341Y25275114D01*
X318381340Y25200791D01*
X318250651Y25138980D01*
X318114533Y25090276D01*
X317974297Y25055149D01*
X317831293Y25033936D01*
X317686898Y25026842D01*
X317686663Y25026842D01*
X317406913Y25026842D01*
X315143488Y25026842D01*
X314287285Y25026842D01*
X313546939Y25026842D01*
X312317738Y25026842D01*
X312317502Y25026842D01*
X312173107Y25033936D01*
X312030103Y25055149D01*
X311889867Y25090276D01*
X311753749Y25138980D01*
X311623060Y25200791D01*
X311499060Y25275114D01*
X311382941Y25361234D01*
X311275822Y25458320D01*
X311178736Y25565439D01*
X311092616Y25681557D01*
X311018293Y25805558D01*
X310956482Y25936247D01*
X310907778Y26072365D01*
X310872651Y26212601D01*
X310851438Y26355605D01*
X310844344Y26500000D01*
X310851438Y26644395D01*
X310872651Y26787399D01*
X310907778Y26927635D01*
X310956482Y27063753D01*
X311018293Y27194442D01*
X311092616Y27318443D01*
X311108046Y27339248D01*
X312317738Y27339248D01*
X312317738Y25615540D01*
X312665305Y25615540D01*
X312665305Y26259811D01*
X312846153Y26259811D01*
X312941875Y26099803D01*
X313031239Y25941914D01*
X313112126Y25781906D01*
X313182417Y25615540D01*
X313546939Y25615540D01*
X313466405Y25800627D01*
X313368917Y25995604D01*
X313264364Y26182103D01*
X313162637Y26344584D01*
X313193270Y26364364D01*
X314032968Y26364364D01*
X314054161Y26255573D01*
X314110676Y26176452D01*
X314191210Y26127001D01*
X314287285Y26110046D01*
X314462482Y26175039D01*
X314538777Y26364364D01*
X314462482Y26548038D01*
X314287285Y26613030D01*
X314191210Y26596075D01*
X314110676Y26548038D01*
X314054161Y26470330D01*
X314032968Y26364364D01*
X313193270Y26364364D01*
X313286263Y26424411D01*
X313368917Y26533909D01*
X313415541Y26665306D01*
X313431083Y26810833D01*
X313419427Y26948235D01*
X313384458Y27066563D01*
X313377060Y27076453D01*
X315143488Y27076453D01*
X315524964Y27076453D01*
X315524964Y25903767D01*
X315143488Y25903767D01*
X315143488Y25615540D01*
X316254007Y25615540D01*
X316533757Y25615540D01*
X316847415Y25615540D01*
X316847415Y26776924D01*
X316952438Y26583046D01*
X317052753Y26389482D01*
X317148357Y26196232D01*
X317239252Y26002982D01*
X317325437Y25809418D01*
X317406913Y25615540D01*
X317686663Y25615540D01*
X317686663Y27364680D01*
X317373004Y27364680D01*
X317373004Y26288069D01*
X317323200Y26398273D01*
X317264213Y26525432D01*
X317197808Y26663187D01*
X317125751Y26805181D01*
X317049809Y26949647D01*
X316971748Y27094820D01*
X316892627Y27235048D01*
X316813506Y27364680D01*
X316533757Y27364680D01*
X316533757Y25615540D01*
X316254007Y25615540D01*
X316254007Y25903767D01*
X315875357Y25903767D01*
X315875357Y27076453D01*
X316254007Y27076453D01*
X316254007Y27364680D01*
X315143488Y27364680D01*
X315143488Y27076453D01*
X313377060Y27076453D01*
X313250235Y27245998D01*
X313154160Y27307458D01*
X313041130Y27350551D01*
X312912558Y27375983D01*
X312769858Y27384460D01*
X312670956Y27381634D01*
X312552275Y27374570D01*
X312429355Y27360441D01*
X312317738Y27339248D01*
X311108046Y27339248D01*
X311178736Y27434561D01*
X311275822Y27541680D01*
X311382941Y27638766D01*
X311499060Y27724886D01*
X311623060Y27799209D01*
X311753749Y27861020D01*
X311889867Y27909724D01*
X312030103Y27944851D01*
X312173107Y27966064D01*
X312317502Y27973158D01*
X312317738Y27973158D01*
X317686663Y27973158D01*
X317686898Y27973158D01*
X317831293Y27966064D01*
G37*
%TO.C,kibuzzard-65054B1D*%
G36*
X355880768Y27074334D02*
G01*
X355978963Y27025590D01*
X356042542Y26942230D01*
X356063736Y26822136D01*
X355984615Y26625746D01*
X355880768Y26573823D01*
X355727471Y26556515D01*
X355651176Y26556515D01*
X355651176Y27082105D01*
X355707691Y27089169D01*
X355755729Y27090582D01*
X355880768Y27074334D01*
G37*
G36*
X360119393Y27074334D02*
G01*
X360217588Y27025590D01*
X360281167Y26942230D01*
X360302361Y26822136D01*
X360223240Y26625746D01*
X360119393Y26573823D01*
X359966096Y26556515D01*
X359889801Y26556515D01*
X359889801Y27082105D01*
X359946316Y27089169D01*
X359994354Y27090582D01*
X360119393Y27074334D01*
G37*
G36*
X353122483Y27074687D02*
G01*
X353219618Y27027002D01*
X353282138Y26941170D01*
X353302978Y26810833D01*
X353281785Y26673430D01*
X353218205Y26583360D01*
X353112946Y26533556D01*
X352966714Y26516955D01*
X352825426Y26516955D01*
X352825426Y27082105D01*
X352911611Y27089169D01*
X352997797Y27090582D01*
X353122483Y27074687D01*
G37*
G36*
X358773983Y27074687D02*
G01*
X358871118Y27027002D01*
X358933638Y26941170D01*
X358954478Y26810833D01*
X358933285Y26673430D01*
X358869705Y26583360D01*
X358764446Y26533556D01*
X358618214Y26516955D01*
X358476926Y26516955D01*
X358476926Y27082105D01*
X358563111Y27089169D01*
X358649297Y27090582D01*
X358773983Y27074687D01*
G37*
G36*
X361653069Y27062324D02*
G01*
X361736429Y26932340D01*
X361775989Y26738776D01*
X361783407Y26623273D01*
X361785879Y26500000D01*
X361783407Y26377080D01*
X361775989Y26262637D01*
X361736429Y26069073D01*
X361651656Y25937676D01*
X361508956Y25889638D01*
X361364843Y25937676D01*
X361281483Y26067660D01*
X361241922Y26261224D01*
X361234505Y26376727D01*
X361232032Y26500000D01*
X361234505Y26622920D01*
X361241922Y26737363D01*
X361281483Y26930927D01*
X361364843Y27062324D01*
X361508956Y27110362D01*
X361653069Y27062324D01*
G37*
G36*
X363673941Y27994185D02*
G01*
X363819688Y27972566D01*
X363962615Y27936765D01*
X364101343Y27887127D01*
X364234539Y27824130D01*
X364360918Y27748381D01*
X364479264Y27660610D01*
X364588438Y27561661D01*
X364687386Y27452488D01*
X364775158Y27334142D01*
X364850907Y27207762D01*
X364913903Y27074567D01*
X364963541Y26935838D01*
X364999343Y26792912D01*
X365020962Y26647164D01*
X365028192Y26500000D01*
X365020962Y26352836D01*
X364999343Y26207088D01*
X364963541Y26064162D01*
X364913903Y25925433D01*
X364850907Y25792238D01*
X364775158Y25665858D01*
X364687386Y25547512D01*
X364588438Y25438339D01*
X364479264Y25339390D01*
X364360918Y25251619D01*
X364234539Y25175870D01*
X364101343Y25112873D01*
X363962615Y25063235D01*
X363819688Y25027434D01*
X363673941Y25005815D01*
X363526777Y24998585D01*
X363526541Y24998585D01*
X363006603Y24998585D01*
X361511782Y24998585D01*
X360771435Y24998585D01*
X358476926Y24998585D01*
X357657459Y24998585D01*
X356532810Y24998585D01*
X354987125Y24998585D01*
X352825426Y24998585D01*
X352477859Y24998585D01*
X352477623Y24998585D01*
X352330459Y25005815D01*
X352184712Y25027434D01*
X352041785Y25063235D01*
X351903057Y25112873D01*
X351769861Y25175870D01*
X351643482Y25251619D01*
X351525136Y25339390D01*
X351415962Y25438339D01*
X351317014Y25547512D01*
X351229242Y25665858D01*
X351153493Y25792238D01*
X351090497Y25925433D01*
X351040859Y26064162D01*
X351005057Y26207088D01*
X350983438Y26352836D01*
X350976208Y26500000D01*
X350983438Y26647164D01*
X351005057Y26792912D01*
X351040859Y26935838D01*
X351090497Y27074567D01*
X351153493Y27207762D01*
X351229242Y27334142D01*
X351241412Y27350551D01*
X352477859Y27350551D01*
X352477859Y25624018D01*
X352825426Y25624018D01*
X352825426Y26214599D01*
X352949759Y26214599D01*
X353158708Y26230141D01*
X353333433Y26276766D01*
X353473936Y26354474D01*
X353576762Y26467033D01*
X353638457Y26618211D01*
X353659022Y26808007D01*
X353638614Y26995919D01*
X353577389Y27145213D01*
X353475349Y27255888D01*
X353336259Y27332026D01*
X353181064Y27373157D01*
X353803136Y27373157D01*
X353809493Y27157340D01*
X353817264Y26933753D01*
X353826801Y26706986D01*
X353838457Y26481633D01*
X353852233Y26258398D01*
X353868128Y26037990D01*
X353886495Y25824999D01*
X353907688Y25624018D01*
X354195915Y25624018D01*
X354255256Y25809811D01*
X354320248Y26011145D01*
X354386653Y26212480D01*
X354450232Y26398273D01*
X354512399Y26207182D01*
X354574565Y26006907D01*
X354636732Y25808751D01*
X354698898Y25624018D01*
X354987125Y25624018D01*
X355005845Y25824646D01*
X355022447Y26036577D01*
X355036929Y26255926D01*
X355049291Y26478807D01*
X355059888Y26704160D01*
X355069072Y26930927D01*
X355077549Y27155221D01*
X355085037Y27347725D01*
X355303609Y27347725D01*
X355303609Y25624018D01*
X355651176Y25624018D01*
X355651176Y26268289D01*
X355832024Y26268289D01*
X355927746Y26108280D01*
X356017111Y25950392D01*
X356097998Y25790384D01*
X356168288Y25624018D01*
X356532810Y25624018D01*
X356452276Y25809104D01*
X356354788Y26004081D01*
X356257363Y26177865D01*
X356883203Y26177865D01*
X357657459Y26177865D01*
X357657459Y26519780D01*
X356883203Y26519780D01*
X356883203Y26177865D01*
X356257363Y26177865D01*
X356250235Y26190580D01*
X356148508Y26353061D01*
X356272135Y26432888D01*
X356354788Y26542386D01*
X356401413Y26673784D01*
X356416954Y26819310D01*
X356405298Y26956712D01*
X356370329Y27075040D01*
X356236106Y27254475D01*
X356140031Y27315935D01*
X356049236Y27350551D01*
X358129359Y27350551D01*
X358129359Y25624018D01*
X358476926Y25624018D01*
X358476926Y26214599D01*
X358601259Y26214599D01*
X358810208Y26230141D01*
X358984933Y26276766D01*
X359125436Y26354474D01*
X359228262Y26467033D01*
X359289957Y26618211D01*
X359310522Y26808007D01*
X359290114Y26995919D01*
X359228889Y27145213D01*
X359126849Y27255888D01*
X358987759Y27332026D01*
X358928524Y27347725D01*
X359542234Y27347725D01*
X359542234Y25624018D01*
X359889801Y25624018D01*
X359889801Y26268289D01*
X360070649Y26268289D01*
X360166371Y26108280D01*
X360255736Y25950392D01*
X360336623Y25790384D01*
X360406913Y25624018D01*
X360771435Y25624018D01*
X360690901Y25809104D01*
X360593413Y26004081D01*
X360488860Y26190580D01*
X360387133Y26353061D01*
X360510760Y26432888D01*
X360561419Y26500000D01*
X360878814Y26500000D01*
X360888969Y26287804D01*
X360919434Y26103335D01*
X360970209Y25946595D01*
X361041294Y25817581D01*
X361165784Y25689638D01*
X361322613Y25612871D01*
X361511782Y25587283D01*
X361696397Y25612871D01*
X361850872Y25689638D01*
X361975205Y25817581D01*
X362046908Y25946595D01*
X362098125Y26103335D01*
X362128855Y26287804D01*
X362139098Y26500000D01*
X362291689Y26500000D01*
X362304404Y26287716D01*
X362342552Y26102982D01*
X362404012Y25946153D01*
X362486665Y25817581D01*
X362589452Y25717267D01*
X362711312Y25645211D01*
X362850834Y25601765D01*
X363006603Y25587283D01*
X363179327Y25594347D01*
X363324500Y25615540D01*
X363518064Y25666404D01*
X363518064Y26539561D01*
X363170497Y26539561D01*
X363170497Y25900941D01*
X363102679Y25892464D01*
X363034861Y25889638D01*
X362866022Y25926726D01*
X362743809Y26037990D01*
X362688863Y26155259D01*
X362655896Y26309262D01*
X362644907Y26500000D01*
X362650912Y26629631D01*
X362668926Y26747253D01*
X362748047Y26939404D01*
X362887922Y27065150D01*
X363097027Y27110362D01*
X363283527Y27079279D01*
X363436117Y27008635D01*
X363526541Y27285559D01*
X363468613Y27319468D01*
X363371125Y27361854D01*
X363231250Y27397176D01*
X363048990Y27412717D01*
X362895693Y27398235D01*
X362752286Y27354789D01*
X362623008Y27282380D01*
X362512097Y27181006D01*
X362420967Y27051374D01*
X362351029Y26894192D01*
X362306524Y26710165D01*
X362291689Y26500000D01*
X362139098Y26500000D01*
X362129031Y26712196D01*
X362098831Y26896665D01*
X362048497Y27053405D01*
X361978030Y27182419D01*
X361854325Y27310362D01*
X361697967Y27387129D01*
X361508956Y27412717D01*
X361325596Y27387129D01*
X361171122Y27310362D01*
X361045533Y27182419D01*
X360972593Y27053405D01*
X360920493Y26896665D01*
X360889233Y26712196D01*
X360878814Y26500000D01*
X360561419Y26500000D01*
X360593413Y26542386D01*
X360640038Y26673784D01*
X360655579Y26819310D01*
X360643923Y26956712D01*
X360608954Y27075040D01*
X360474731Y27254475D01*
X360378656Y27315935D01*
X360265626Y27359028D01*
X360137054Y27384460D01*
X359994354Y27392937D01*
X359895453Y27390111D01*
X359776771Y27383047D01*
X359653851Y27368918D01*
X359542234Y27347725D01*
X358928524Y27347725D01*
X358815388Y27377709D01*
X358609736Y27392937D01*
X358499532Y27390111D01*
X358372373Y27383047D01*
X358243802Y27370331D01*
X358129359Y27350551D01*
X356049236Y27350551D01*
X356027001Y27359028D01*
X355898429Y27384460D01*
X355755729Y27392937D01*
X355656828Y27390111D01*
X355538146Y27383047D01*
X355415226Y27368918D01*
X355303609Y27347725D01*
X355085037Y27347725D01*
X355086026Y27373157D01*
X354763891Y27373157D01*
X354764597Y27203259D01*
X354766716Y27027002D01*
X354769542Y26848627D01*
X354772368Y26672371D01*
X354775194Y26498940D01*
X354778019Y26329042D01*
X354780139Y26166208D01*
X354780845Y26013971D01*
X354717266Y26240031D01*
X354657925Y26446311D01*
X354608474Y26621507D01*
X354574565Y26754318D01*
X354320248Y26754318D01*
X354280687Y26615856D01*
X354225585Y26423705D01*
X354163419Y26211774D01*
X354105491Y26013971D01*
X354106197Y26166208D01*
X354108316Y26329042D01*
X354111142Y26499294D01*
X354113968Y26673784D01*
X354116794Y26850746D01*
X354119620Y27028415D01*
X354122445Y27203612D01*
X354125271Y27373157D01*
X353803136Y27373157D01*
X353181064Y27373157D01*
X353163888Y27377709D01*
X352958236Y27392937D01*
X352848032Y27390111D01*
X352720873Y27383047D01*
X352592302Y27370331D01*
X352477859Y27350551D01*
X351241412Y27350551D01*
X351317014Y27452488D01*
X351415962Y27561661D01*
X351525136Y27660610D01*
X351643482Y27748381D01*
X351769861Y27824130D01*
X351903057Y27887127D01*
X352041785Y27936765D01*
X352184712Y27972566D01*
X352330459Y27994185D01*
X352477623Y28001415D01*
X352477859Y28001415D01*
X363526541Y28001415D01*
X363526777Y28001415D01*
X363673941Y27994185D01*
G37*
%TO.C,kibuzzard-65082BDC*%
G36*
X395081321Y27062324D02*
G01*
X395164681Y26932340D01*
X395204241Y26738776D01*
X395211659Y26623273D01*
X395214131Y26500000D01*
X395211659Y26377080D01*
X395204241Y26262637D01*
X395164681Y26069073D01*
X395079908Y25937676D01*
X394937208Y25889638D01*
X394793095Y25937676D01*
X394709735Y26067660D01*
X394670174Y26261224D01*
X394662757Y26376727D01*
X394660284Y26500000D01*
X394662757Y26622920D01*
X394670174Y26737363D01*
X394709735Y26930927D01*
X394793095Y27062324D01*
X394937208Y27110362D01*
X395081321Y27062324D01*
G37*
G36*
X398546151Y27994185D02*
G01*
X398691899Y27972566D01*
X398834825Y27936765D01*
X398973554Y27887127D01*
X399106749Y27824130D01*
X399233129Y27748381D01*
X399351475Y27660610D01*
X399460648Y27561661D01*
X399559597Y27452488D01*
X399647368Y27334142D01*
X399723117Y27207762D01*
X399786114Y27074567D01*
X399835752Y26935838D01*
X399871553Y26792912D01*
X399893172Y26647164D01*
X399900402Y26500000D01*
X399893172Y26352836D01*
X399871553Y26207088D01*
X399835752Y26064162D01*
X399786114Y25925433D01*
X399723117Y25792238D01*
X399647368Y25665858D01*
X399559597Y25547512D01*
X399460648Y25438339D01*
X399351475Y25339390D01*
X399233129Y25251619D01*
X399106749Y25175870D01*
X398973554Y25112873D01*
X398834825Y25063235D01*
X398691899Y25027434D01*
X398546151Y25005815D01*
X398398987Y24998585D01*
X398398752Y24998585D01*
X397938154Y24998585D01*
X396344431Y24998585D01*
X394940034Y24998585D01*
X393527159Y24998585D01*
X392704865Y24998585D01*
X391605649Y24998585D01*
X391605413Y24998585D01*
X391458249Y25005815D01*
X391312501Y25027434D01*
X391169575Y25063235D01*
X391030846Y25112873D01*
X390897651Y25175870D01*
X390771271Y25251619D01*
X390652925Y25339390D01*
X390543752Y25438339D01*
X390444803Y25547512D01*
X390388063Y25624018D01*
X391605649Y25624018D01*
X392704865Y25624018D01*
X392704865Y25912244D01*
X391956042Y25912244D01*
X391956042Y26372841D01*
X393272841Y26372841D01*
X393294034Y26264050D01*
X393350549Y26184929D01*
X393431083Y26135478D01*
X393527159Y26118524D01*
X393702355Y26183516D01*
X393778650Y26372841D01*
X393725830Y26500000D01*
X394307066Y26500000D01*
X394317221Y26287804D01*
X394347686Y26103335D01*
X394398461Y25946595D01*
X394469546Y25817581D01*
X394594036Y25689638D01*
X394750865Y25612871D01*
X394940034Y25587283D01*
X395124649Y25612871D01*
X395279124Y25689638D01*
X395403457Y25817581D01*
X395475160Y25946595D01*
X395526377Y26103335D01*
X395551973Y26256986D01*
X395753850Y26256986D01*
X395760914Y26111459D01*
X395782107Y25980062D01*
X395820255Y25864913D01*
X395878183Y25768131D01*
X396060443Y25633908D01*
X396188662Y25598939D01*
X396344431Y25587283D01*
X396502673Y25598939D01*
X396632658Y25633908D01*
X396737211Y25690776D01*
X396819157Y25768131D01*
X396879204Y25864913D01*
X396918059Y25980062D01*
X396939252Y26111459D01*
X396946316Y26256986D01*
X396946316Y27084930D01*
X397127164Y27084930D01*
X397587761Y27084930D01*
X397587761Y25624018D01*
X397938154Y25624018D01*
X397938154Y27084930D01*
X398398752Y27084930D01*
X398398752Y27373157D01*
X397127164Y27373157D01*
X397127164Y27084930D01*
X396946316Y27084930D01*
X396946316Y27373157D01*
X396598749Y27373157D01*
X396598749Y26282417D01*
X396587446Y26097331D01*
X396547885Y25975823D01*
X396471590Y25909418D01*
X396350083Y25889638D01*
X396228576Y25909418D01*
X396153693Y25974411D01*
X396115546Y26094505D01*
X396104243Y26279592D01*
X396104243Y27373157D01*
X395753850Y27373157D01*
X395753850Y26256986D01*
X395551973Y26256986D01*
X395557107Y26287804D01*
X395567350Y26500000D01*
X395557283Y26712196D01*
X395527083Y26896665D01*
X395476749Y27053405D01*
X395406282Y27182419D01*
X395282577Y27310362D01*
X395126219Y27387129D01*
X394937208Y27412717D01*
X394753848Y27387129D01*
X394599374Y27310362D01*
X394473785Y27182419D01*
X394400845Y27053405D01*
X394348745Y26896665D01*
X394317485Y26712196D01*
X394307066Y26500000D01*
X393725830Y26500000D01*
X393702355Y26556515D01*
X393527159Y26621507D01*
X393431083Y26604553D01*
X393350549Y26556515D01*
X393294034Y26478807D01*
X393272841Y26372841D01*
X391956042Y26372841D01*
X391956042Y27373157D01*
X391605649Y27373157D01*
X391605649Y25624018D01*
X390388063Y25624018D01*
X390357032Y25665858D01*
X390281283Y25792238D01*
X390218286Y25925433D01*
X390168648Y26064162D01*
X390132847Y26207088D01*
X390111228Y26352836D01*
X390103998Y26500000D01*
X390111228Y26647164D01*
X390132847Y26792912D01*
X390168648Y26935838D01*
X390218286Y27074567D01*
X390281283Y27207762D01*
X390357032Y27334142D01*
X390444803Y27452488D01*
X390543752Y27561661D01*
X390652925Y27660610D01*
X390771271Y27748381D01*
X390897651Y27824130D01*
X391030846Y27887127D01*
X391169575Y27936765D01*
X391312501Y27972566D01*
X391458249Y27994185D01*
X391605413Y28001415D01*
X391605649Y28001415D01*
X398398752Y28001415D01*
X398398987Y28001415D01*
X398546151Y27994185D01*
G37*
%TO.C,kibuzzard-65054B35*%
G36*
X338890730Y-24505815D02*
G01*
X339036477Y-24527434D01*
X339179403Y-24563235D01*
X339318132Y-24612873D01*
X339451328Y-24675870D01*
X339577707Y-24751619D01*
X339696053Y-24839390D01*
X339805226Y-24938339D01*
X339904175Y-25047512D01*
X339991947Y-25165858D01*
X340067695Y-25292238D01*
X340130692Y-25425433D01*
X340180330Y-25564162D01*
X340216131Y-25707088D01*
X340237751Y-25852836D01*
X340244981Y-26000000D01*
X340237751Y-26147164D01*
X340216131Y-26292912D01*
X340180330Y-26435838D01*
X340130692Y-26574567D01*
X340067695Y-26707762D01*
X339991947Y-26834142D01*
X339904175Y-26952488D01*
X339805226Y-27061661D01*
X339696053Y-27160610D01*
X339577707Y-27248381D01*
X339451328Y-27324130D01*
X339318132Y-27387127D01*
X339179403Y-27436765D01*
X339036477Y-27472566D01*
X338890730Y-27494185D01*
X338743565Y-27501415D01*
X338743330Y-27501415D01*
X338070802Y-27501415D01*
X337355887Y-27501415D01*
X336256670Y-27501415D01*
X336256435Y-27501415D01*
X336109270Y-27494185D01*
X335963523Y-27472566D01*
X335820597Y-27436765D01*
X335681868Y-27387127D01*
X335548672Y-27324130D01*
X335422293Y-27248381D01*
X335303947Y-27160610D01*
X335194774Y-27061661D01*
X335095825Y-26952488D01*
X335039084Y-26875982D01*
X336256670Y-26875982D01*
X337355887Y-26875982D01*
X337355887Y-26816642D01*
X337584773Y-26816642D01*
X337672371Y-26847725D01*
X337795291Y-26878808D01*
X337933753Y-26902827D01*
X338070802Y-26912717D01*
X338233989Y-26902474D01*
X338373157Y-26871744D01*
X338489012Y-26822293D01*
X338582262Y-26755888D01*
X338703770Y-26579279D01*
X338743330Y-26356044D01*
X338724609Y-26214051D01*
X338668448Y-26093250D01*
X338578377Y-25996468D01*
X338457929Y-25926530D01*
X338616171Y-25779591D01*
X338675512Y-25578963D01*
X338641603Y-25383986D01*
X338537050Y-25227157D01*
X338357615Y-25124017D01*
X338239287Y-25096466D01*
X338101885Y-25087283D01*
X337951767Y-25100352D01*
X337817897Y-25139559D01*
X337615856Y-25242699D01*
X337740189Y-25497016D01*
X337908321Y-25416483D01*
X338104710Y-25383986D01*
X338264365Y-25439089D01*
X338322293Y-25590266D01*
X338295449Y-25697645D01*
X338226218Y-25765463D01*
X338130142Y-25802197D01*
X338022764Y-25813500D01*
X337892779Y-25813500D01*
X337892779Y-26101727D01*
X338000158Y-26101727D01*
X338154868Y-26115503D01*
X338279907Y-26156829D01*
X338362560Y-26232771D01*
X338390111Y-26350393D01*
X338318055Y-26539718D01*
X338219507Y-26596940D01*
X338067976Y-26616014D01*
X337934106Y-26608243D01*
X337820723Y-26584930D01*
X337652591Y-26525589D01*
X337584773Y-26816642D01*
X337355887Y-26816642D01*
X337355887Y-26587756D01*
X336607063Y-26587756D01*
X336607063Y-25126843D01*
X336256670Y-25126843D01*
X336256670Y-26875982D01*
X335039084Y-26875982D01*
X335008053Y-26834142D01*
X334932305Y-26707762D01*
X334869308Y-26574567D01*
X334819670Y-26435838D01*
X334783869Y-26292912D01*
X334762249Y-26147164D01*
X334755019Y-26000000D01*
X334762249Y-25852836D01*
X334783869Y-25707088D01*
X334819670Y-25564162D01*
X334869308Y-25425433D01*
X334932305Y-25292238D01*
X335008053Y-25165858D01*
X335095825Y-25047512D01*
X335194774Y-24938339D01*
X335303947Y-24839390D01*
X335422293Y-24751619D01*
X335548672Y-24675870D01*
X335681868Y-24612873D01*
X335820597Y-24563235D01*
X335963523Y-24527434D01*
X336109270Y-24505815D01*
X336256435Y-24498585D01*
X336256670Y-24498585D01*
X338743330Y-24498585D01*
X338743565Y-24498585D01*
X338890730Y-24505815D01*
G37*
%TO.C,kibuzzard-64F89A88*%
G36*
X351450071Y-505815D02*
G01*
X351595818Y-527434D01*
X351738744Y-563235D01*
X351877473Y-612873D01*
X352010668Y-675870D01*
X352137048Y-751619D01*
X352255394Y-839390D01*
X352364567Y-938339D01*
X352463516Y-1047512D01*
X352551287Y-1165858D01*
X352627036Y-1292238D01*
X352690033Y-1425433D01*
X352739671Y-1564162D01*
X352775472Y-1707088D01*
X352797092Y-1852836D01*
X352804321Y-2000000D01*
X352797092Y-2147164D01*
X352775472Y-2292912D01*
X352739671Y-2435838D01*
X352690033Y-2574567D01*
X352627036Y-2707762D01*
X352551287Y-2834142D01*
X352463516Y-2952488D01*
X352364567Y-3061661D01*
X352255394Y-3160610D01*
X352137048Y-3248381D01*
X352010668Y-3324130D01*
X351877473Y-3387127D01*
X351738744Y-3436765D01*
X351595818Y-3472566D01*
X351450071Y-3494185D01*
X351302906Y-3501415D01*
X351302671Y-3501415D01*
X349239873Y-3501415D01*
X348697329Y-3501415D01*
X348697094Y-3501415D01*
X348549929Y-3494185D01*
X348404182Y-3472566D01*
X348261256Y-3436765D01*
X348122527Y-3387127D01*
X347989332Y-3324130D01*
X347862952Y-3248381D01*
X347744606Y-3160610D01*
X347635433Y-3061661D01*
X347536484Y-2952488D01*
X347448713Y-2834142D01*
X347416206Y-2779907D01*
X348697329Y-2779907D01*
X348892306Y-2866092D01*
X349044190Y-2901061D01*
X349239873Y-2912717D01*
X349438147Y-2897804D01*
X349599685Y-2853063D01*
X349724489Y-2778494D01*
X349844231Y-2616367D01*
X349884144Y-2398431D01*
X349872135Y-2266680D01*
X349836107Y-2159655D01*
X349713186Y-2001413D01*
X349549293Y-1899686D01*
X349378335Y-1830455D01*
X349269544Y-1788069D01*
X349170642Y-1735792D01*
X349098586Y-1667974D01*
X349070328Y-1578963D01*
X349101098Y-1467503D01*
X349193405Y-1400627D01*
X349347252Y-1378335D01*
X349546467Y-1406592D01*
X349703296Y-1474410D01*
X349762191Y-1318994D01*
X350118682Y-1318994D01*
X350291052Y-1562009D01*
X350469075Y-1429198D01*
X350641445Y-1389638D01*
X350805339Y-1447566D01*
X350870331Y-1612872D01*
X350818055Y-1762637D01*
X350685244Y-1915227D01*
X350601885Y-1996115D01*
X350512874Y-2080534D01*
X350423863Y-2170251D01*
X350340503Y-2267033D01*
X350267033Y-2371939D01*
X350207693Y-2486029D01*
X350168485Y-2610362D01*
X350155416Y-2745998D01*
X350154003Y-2805339D01*
X350161068Y-2875982D01*
X351302671Y-2875982D01*
X351302671Y-2587756D01*
X350551021Y-2587756D01*
X350580692Y-2494506D01*
X350652748Y-2394192D01*
X350743172Y-2298117D01*
X350827945Y-2217583D01*
X350972058Y-2076295D01*
X351099217Y-1923705D01*
X351189641Y-1761224D01*
X351223550Y-1587440D01*
X351178338Y-1368445D01*
X351056831Y-1211616D01*
X350881634Y-1118366D01*
X350675354Y-1087283D01*
X350528062Y-1101411D01*
X350380063Y-1143798D01*
X350240542Y-1215854D01*
X350118682Y-1318994D01*
X349762191Y-1318994D01*
X349805023Y-1205964D01*
X349602982Y-1124017D01*
X349472644Y-1096466D01*
X349321820Y-1087283D01*
X349148664Y-1102667D01*
X349002196Y-1148821D01*
X348882416Y-1225744D01*
X348762675Y-1391051D01*
X348722761Y-1610046D01*
X348767973Y-1817739D01*
X348882416Y-1957614D01*
X349036419Y-2050863D01*
X349200313Y-2115856D01*
X349318994Y-2165306D01*
X349426373Y-2224647D01*
X349505494Y-2299529D01*
X349536577Y-2395605D01*
X349523861Y-2478965D01*
X349477236Y-2552434D01*
X349385399Y-2603298D01*
X349239873Y-2621665D01*
X349098939Y-2611775D01*
X348981317Y-2582104D01*
X348799056Y-2497332D01*
X348697329Y-2779907D01*
X347416206Y-2779907D01*
X347372964Y-2707762D01*
X347309967Y-2574567D01*
X347260329Y-2435838D01*
X347224528Y-2292912D01*
X347202908Y-2147164D01*
X347195679Y-2000000D01*
X347202908Y-1852836D01*
X347224528Y-1707088D01*
X347260329Y-1564162D01*
X347309967Y-1425433D01*
X347372964Y-1292238D01*
X347448713Y-1165858D01*
X347536484Y-1047512D01*
X347635433Y-938339D01*
X347744606Y-839390D01*
X347862952Y-751619D01*
X347989332Y-675870D01*
X348122527Y-612873D01*
X348261256Y-563235D01*
X348404182Y-527434D01*
X348549929Y-505815D01*
X348697094Y-498585D01*
X348697329Y-498585D01*
X351302671Y-498585D01*
X351302906Y-498585D01*
X351450071Y-505815D01*
G37*
%TO.C,kibuzzard-65054AB7*%
G36*
X302243646Y-9437676D02*
G01*
X302327005Y-9567660D01*
X302366566Y-9761224D01*
X302373983Y-9876727D01*
X302376456Y-10000000D01*
X302373983Y-10122920D01*
X302366566Y-10237363D01*
X302327005Y-10430927D01*
X302242233Y-10562324D01*
X302099532Y-10610362D01*
X301955419Y-10562324D01*
X301872059Y-10432340D01*
X301832499Y-10238776D01*
X301825081Y-10123273D01*
X301822609Y-10000000D01*
X301825081Y-9877080D01*
X301832499Y-9762637D01*
X301872059Y-9569073D01*
X301955419Y-9437676D01*
X302099532Y-9389638D01*
X302243646Y-9437676D01*
G37*
G36*
X304253215Y-8505815D02*
G01*
X304398962Y-8527434D01*
X304541888Y-8563235D01*
X304680617Y-8612873D01*
X304813812Y-8675870D01*
X304940192Y-8751619D01*
X305058538Y-8839390D01*
X305167711Y-8938339D01*
X305266660Y-9047512D01*
X305354431Y-9165858D01*
X305430180Y-9292238D01*
X305493177Y-9425433D01*
X305542815Y-9564162D01*
X305578616Y-9707088D01*
X305600236Y-9852836D01*
X305607465Y-10000000D01*
X305600236Y-10147164D01*
X305578616Y-10292912D01*
X305542815Y-10435838D01*
X305493177Y-10574567D01*
X305430180Y-10707762D01*
X305354431Y-10834142D01*
X305266660Y-10952488D01*
X305167711Y-11061661D01*
X305058538Y-11160610D01*
X304940192Y-11248381D01*
X304813812Y-11324130D01*
X304680617Y-11387127D01*
X304541888Y-11436765D01*
X304398962Y-11472566D01*
X304253215Y-11494185D01*
X304106050Y-11501415D01*
X304105815Y-11501415D01*
X302102358Y-11501415D01*
X300505809Y-11501415D01*
X299276608Y-11501415D01*
X298157611Y-11501415D01*
X295894185Y-11501415D01*
X295893950Y-11501415D01*
X295746785Y-11494185D01*
X295601038Y-11472566D01*
X295458112Y-11436765D01*
X295319383Y-11387127D01*
X295186188Y-11324130D01*
X295059808Y-11248381D01*
X294941462Y-11160610D01*
X294832289Y-11061661D01*
X294733340Y-10952488D01*
X294645569Y-10834142D01*
X294569820Y-10707762D01*
X294506823Y-10574567D01*
X294457185Y-10435838D01*
X294421384Y-10292912D01*
X294399764Y-10147164D01*
X294392535Y-10000000D01*
X294399764Y-9852836D01*
X294421384Y-9707088D01*
X294457185Y-9564162D01*
X294506823Y-9425433D01*
X294511724Y-9415070D01*
X295894185Y-9415070D01*
X296275662Y-9415070D01*
X296275662Y-10587756D01*
X295894185Y-10587756D01*
X295894185Y-10875982D01*
X297004705Y-10875982D01*
X297284454Y-10875982D01*
X297598113Y-10875982D01*
X297598113Y-9714599D01*
X297703136Y-9908477D01*
X297803450Y-10102041D01*
X297899055Y-10295291D01*
X297989950Y-10488541D01*
X298076135Y-10682105D01*
X298157611Y-10875982D01*
X298437360Y-10875982D01*
X298437360Y-10127159D01*
X299022291Y-10127159D01*
X299043484Y-10235950D01*
X299099999Y-10315071D01*
X299180533Y-10364522D01*
X299276608Y-10381476D01*
X299451805Y-10316484D01*
X299528100Y-10127159D01*
X299451805Y-9943485D01*
X299276608Y-9878493D01*
X299180533Y-9895447D01*
X299099999Y-9943485D01*
X299043484Y-10021193D01*
X299022291Y-10127159D01*
X298437360Y-10127159D01*
X298437360Y-9126843D01*
X300016955Y-9126843D01*
X300049451Y-9285085D01*
X300096076Y-9482888D01*
X300133438Y-9630926D01*
X300173941Y-9784929D01*
X300217583Y-9944898D01*
X300263737Y-10108006D01*
X300311774Y-10271429D01*
X300361696Y-10435165D01*
X300435872Y-10668290D01*
X300505809Y-10875982D01*
X300864680Y-10875982D01*
X300918683Y-10725433D01*
X300971430Y-10571429D01*
X301022922Y-10413972D01*
X301072372Y-10255730D01*
X301118997Y-10099372D01*
X301147173Y-10000000D01*
X301469390Y-10000000D01*
X301479545Y-10212196D01*
X301510010Y-10396665D01*
X301560785Y-10553405D01*
X301631871Y-10682419D01*
X301756361Y-10810362D01*
X301913190Y-10887129D01*
X302102358Y-10912717D01*
X302286974Y-10887129D01*
X302309404Y-10875982D01*
X303006598Y-10875982D01*
X304105815Y-10875982D01*
X304105815Y-10587756D01*
X303356991Y-10587756D01*
X303356991Y-9126843D01*
X303006598Y-9126843D01*
X303006598Y-10875982D01*
X302309404Y-10875982D01*
X302441448Y-10810362D01*
X302565781Y-10682419D01*
X302637484Y-10553405D01*
X302688701Y-10396665D01*
X302719431Y-10212196D01*
X302729675Y-10000000D01*
X302719608Y-9787804D01*
X302689408Y-9603335D01*
X302639074Y-9446595D01*
X302568607Y-9317581D01*
X302444902Y-9189638D01*
X302288544Y-9112871D01*
X302099532Y-9087283D01*
X301916172Y-9112871D01*
X301761698Y-9189638D01*
X301636109Y-9317581D01*
X301563170Y-9446595D01*
X301511070Y-9603335D01*
X301479810Y-9787804D01*
X301469390Y-10000000D01*
X301147173Y-10000000D01*
X301162796Y-9944898D01*
X301222843Y-9719898D01*
X301275826Y-9505494D01*
X301321391Y-9306278D01*
X301359186Y-9126843D01*
X300994664Y-9126843D01*
X300969232Y-9273782D01*
X300938149Y-9443327D01*
X300902827Y-9626648D01*
X300864680Y-9814913D01*
X300823706Y-10004239D01*
X300779907Y-10190738D01*
X300734695Y-10365581D01*
X300689483Y-10519938D01*
X300643918Y-10363462D01*
X300597646Y-10187912D01*
X300552434Y-10001413D01*
X300510048Y-9812088D01*
X300470841Y-9624175D01*
X300435166Y-9441914D01*
X300405495Y-9273429D01*
X300384302Y-9126843D01*
X300016955Y-9126843D01*
X298437360Y-9126843D01*
X298123702Y-9126843D01*
X298123702Y-10203454D01*
X298073898Y-10093250D01*
X298014911Y-9966091D01*
X297948506Y-9828336D01*
X297876449Y-9686342D01*
X297800507Y-9541875D01*
X297722446Y-9396702D01*
X297643325Y-9256475D01*
X297564204Y-9126843D01*
X297284454Y-9126843D01*
X297284454Y-10875982D01*
X297004705Y-10875982D01*
X297004705Y-10587756D01*
X296626055Y-10587756D01*
X296626055Y-9415070D01*
X297004705Y-9415070D01*
X297004705Y-9126843D01*
X295894185Y-9126843D01*
X295894185Y-9415070D01*
X294511724Y-9415070D01*
X294569820Y-9292238D01*
X294645569Y-9165858D01*
X294733340Y-9047512D01*
X294832289Y-8938339D01*
X294941462Y-8839390D01*
X295059808Y-8751619D01*
X295186188Y-8675870D01*
X295319383Y-8612873D01*
X295458112Y-8563235D01*
X295601038Y-8527434D01*
X295746785Y-8505815D01*
X295893950Y-8498585D01*
X295894185Y-8498585D01*
X304105815Y-8498585D01*
X304106050Y-8498585D01*
X304253215Y-8505815D01*
G37*
%TD*%
%LPC*%
G36*
X156797800Y223742000D02*
G01*
X157797800Y223742000D01*
X157797800Y221742000D01*
X156797800Y221742000D01*
X156797800Y223742000D01*
G37*
G36*
X-57802200Y206742000D02*
G01*
X-56802200Y206742000D01*
X-56802200Y204742000D01*
X-57802200Y204742000D01*
X-57802200Y206742000D01*
G37*
G36*
X156797800Y161742000D02*
G01*
X157797800Y161742000D01*
X157797800Y159742000D01*
X156797800Y159742000D01*
X156797800Y161742000D01*
G37*
G36*
X-2302200Y138242000D02*
G01*
X-302200Y138242000D01*
X-302200Y137242000D01*
X-2302200Y137242000D01*
X-2302200Y138242000D01*
G37*
G36*
X123997800Y161942000D02*
G01*
X124997800Y161942000D01*
X124997800Y159942000D01*
X123997800Y159942000D01*
X123997800Y161942000D01*
G37*
G36*
X117497800Y113442000D02*
G01*
X119497800Y113442000D01*
X119497800Y112442000D01*
X117497800Y112442000D01*
X117497800Y113442000D01*
G37*
G36*
X-19702200Y229242000D02*
G01*
X-17702200Y229242000D01*
X-17702200Y228242000D01*
X-19702200Y228242000D01*
X-19702200Y229242000D01*
G37*
G36*
X117697800Y138242000D02*
G01*
X119697800Y138242000D01*
X119697800Y137242000D01*
X117697800Y137242000D01*
X117697800Y138242000D01*
G37*
G36*
X100497800Y253842000D02*
G01*
X102497800Y253842000D01*
X102497800Y252842000D01*
X100497800Y252842000D01*
X100497800Y253842000D01*
G37*
G36*
X-57802200Y144742000D02*
G01*
X-56802200Y144742000D01*
X-56802200Y142742000D01*
X-57802200Y142742000D01*
X-57802200Y144742000D01*
G37*
G36*
X-25002200Y144542000D02*
G01*
X-24002200Y144542000D01*
X-24002200Y142542000D01*
X-25002200Y142542000D01*
X-25002200Y144542000D01*
G37*
G36*
X123997800Y223942000D02*
G01*
X124997800Y223942000D01*
X124997800Y221942000D01*
X123997800Y221942000D01*
X123997800Y223942000D01*
G37*
G36*
X100297800Y229242000D02*
G01*
X102297800Y229242000D01*
X102297800Y228242000D01*
X100297800Y228242000D01*
X100297800Y229242000D01*
G37*
G36*
X40497800Y253842000D02*
G01*
X42497800Y253842000D01*
X42497800Y252842000D01*
X40497800Y252842000D01*
X40497800Y253842000D01*
G37*
G36*
X-2502200Y113442000D02*
G01*
X-502200Y113442000D01*
X-502200Y112442000D01*
X-2502200Y112442000D01*
X-2502200Y113442000D01*
G37*
G36*
X57697800Y138242000D02*
G01*
X59697800Y138242000D01*
X59697800Y137242000D01*
X57697800Y137242000D01*
X57697800Y138242000D01*
G37*
G36*
X40297800Y229242000D02*
G01*
X42297800Y229242000D01*
X42297800Y228242000D01*
X40297800Y228242000D01*
X40297800Y229242000D01*
G37*
D18*
X15872800Y99942000D02*
G75*
G02*
X12122800Y99942000I-1875000J0D01*
G01*
X12122800Y99942000D02*
G75*
G02*
X15872800Y99942000I1875000J0D01*
G01*
G36*
X-25002200Y206542000D02*
G01*
X-24002200Y206542000D01*
X-24002200Y204542000D01*
X-25002200Y204542000D01*
X-25002200Y206542000D01*
G37*
G36*
X57497800Y113442000D02*
G01*
X59497800Y113442000D01*
X59497800Y112442000D01*
X57497800Y112442000D01*
X57497800Y113442000D01*
G37*
G36*
X-19502200Y253842000D02*
G01*
X-17502200Y253842000D01*
X-17502200Y252842000D01*
X-19502200Y252842000D01*
X-19502200Y253842000D01*
G37*
D19*
%TO.C,REF\u002A\u002A10*%
X72997800Y158742000D03*
%TD*%
%TO.C,REF\u002A\u002A5*%
X76997800Y154742000D03*
%TD*%
%TO.C,REF\u002A\u002A2*%
X72997800Y150742000D03*
%TD*%
%TO.C,REF\u002A\u002A13*%
X76997800Y162742000D03*
%TD*%
%TO.C,REF\u002A\u002A9*%
X76997800Y158742000D03*
%TD*%
D20*
%TO.C,*%
X-21002200Y202742000D03*
%TD*%
%TO.C,*%
X120997800Y202742000D03*
%TD*%
D19*
%TO.C,REF\u002A\u002A12*%
X80997800Y162742000D03*
%TD*%
%TO.C,*%
X-76602200Y183242000D03*
%TD*%
%TO.C,REF\u002A\u002A7*%
X68997800Y154742000D03*
%TD*%
%TO.C,REF\u002A\u002A1*%
X76997800Y150742000D03*
%TD*%
%TO.C,*%
X-72602200Y183242000D03*
%TD*%
%TO.C,REF\u002A\u002A15*%
X68997800Y162742000D03*
%TD*%
%TO.C,REF\u002A\u002A3*%
X68997800Y150742000D03*
%TD*%
D20*
%TO.C,*%
X-21002200Y140742000D03*
%TD*%
D19*
%TO.C,REF\u002A\u002A14*%
X72997800Y162742000D03*
%TD*%
%TO.C,*%
X-68602200Y187242000D03*
%TD*%
%TO.C,REF\u002A\u002A*%
X80997800Y150742000D03*
%TD*%
%TO.C,REF\u002A\u002A11*%
X68997800Y158742000D03*
%TD*%
D20*
%TO.C,*%
X120997800Y140742000D03*
%TD*%
D19*
%TO.C,*%
X-72602200Y187242000D03*
%TD*%
%TO.C,*%
X-68602200Y179242000D03*
%TD*%
%TO.C,*%
X-68602200Y183242000D03*
%TD*%
%TO.C,*%
X-76602200Y179242000D03*
%TD*%
%TO.C,*%
X-76602200Y187242000D03*
%TD*%
%TO.C,REF\u002A\u002A6*%
X72997800Y154742000D03*
%TD*%
%TO.C,REF\u002A\u002A4*%
X80997800Y154742000D03*
%TD*%
%TO.C,*%
X-72602200Y179242000D03*
%TD*%
%TO.C,REF\u002A\u002A8*%
X80997800Y158742000D03*
%TD*%
D21*
%TO.C,REF\u002A\u002A*%
X-3088011Y266342000D03*
%TD*%
%TO.C,REF\u002A\u002A*%
X112911989Y266342000D03*
%TD*%
%TO.C,REF\u002A\u002A*%
X-10002200Y99942000D03*
%TD*%
D22*
%TO.C,REF\u002A\u002A*%
X53911989Y276992000D03*
%TD*%
D23*
%TO.C,REF\u002A\u002A*%
X166697800Y185042000D03*
%TD*%
D22*
%TO.C,REF\u002A\u002A*%
X73911989Y276992000D03*
%TD*%
D23*
%TO.C,REF\u002A\u002A*%
X166697800Y165042000D03*
%TD*%
D21*
%TO.C,REF\u002A\u002A*%
X94911989Y266342000D03*
%TD*%
D22*
%TO.C,REF\u002A\u002A*%
X63911989Y276992000D03*
%TD*%
D21*
%TO.C,REF\u002A\u002A*%
X14911989Y266342000D03*
%TD*%
D24*
%TO.C,REF\u002A\u002A*%
X362500000Y-37500000D03*
%TD*%
D25*
%TO.C,REF\u002A\u002A*%
X300000000Y0D03*
%TD*%
%TO.C,REF\u002A\u002A*%
X325000000Y-50000000D03*
%TD*%
D20*
%TO.C,MH8*%
X380997800Y25742000D03*
%TD*%
D25*
%TO.C,REF\u002A\u002A*%
X365000000Y-900000D03*
%TD*%
%TO.C,REF\u002A\u002A*%
X400000000Y-50000000D03*
%TD*%
%TO.C,REF\u002A\u002A*%
X375000000Y-25000000D03*
%TD*%
%TO.C,REF\u002A\u002A*%
X350000000Y-25000000D03*
%TD*%
%TO.C,REF\u002A\u002A*%
X300000000Y-50000000D03*
%TD*%
%TO.C,REF\u002A\u002A*%
X325000000Y-25000000D03*
%TD*%
D24*
%TO.C,REF\u002A\u002A*%
X350000000Y-9000000D03*
%TD*%
D25*
%TO.C,REF\u002A\u002A*%
X400000000Y-25000000D03*
%TD*%
D20*
%TO.C,MH6*%
X278997800Y-59258000D03*
%TD*%
D24*
%TO.C,REF\u002A\u002A*%
X325000000Y-9000000D03*
%TD*%
D25*
%TO.C,REF\u002A\u002A*%
X350000000Y-50000000D03*
%TD*%
D20*
%TO.C,MH7*%
X420997800Y-59258000D03*
%TD*%
%TO.C,MH8*%
X420997800Y2742000D03*
%TD*%
D25*
%TO.C,REF\u002A\u002A*%
X375000000Y-50000000D03*
%TD*%
D24*
%TO.C,REF\u002A\u002A*%
X337500000Y-37500000D03*
%TD*%
D25*
%TO.C,REF\u002A\u002A*%
X400000000Y0D03*
%TD*%
%TO.C,REF\u002A\u002A*%
X300000000Y-25000000D03*
%TD*%
D26*
%TO.C,REF\u002A\u002A*%
X312500000Y-39500000D03*
%TD*%
D20*
%TO.C,MH5*%
X278997800Y2742000D03*
%TD*%
G36*
X352373275Y22549521D02*
G01*
X352587771Y22530755D01*
X352609400Y22526941D01*
X352812039Y22472645D01*
X352832678Y22465133D01*
X353022810Y22376473D01*
X353041831Y22365491D01*
X353213681Y22245160D01*
X353230505Y22231042D01*
X353378841Y22082706D01*
X353392959Y22065882D01*
X353513290Y21894032D01*
X353524272Y21875011D01*
X353612932Y21684879D01*
X353620444Y21664240D01*
X353674740Y21461601D01*
X353678553Y21439972D01*
X353697320Y21225475D01*
X353697800Y21214493D01*
X353697800Y5485508D01*
X353697320Y5474526D01*
X353678553Y5260029D01*
X353674740Y5238400D01*
X353620444Y5035761D01*
X353612932Y5015122D01*
X353524272Y4824990D01*
X353513290Y4805969D01*
X353392959Y4634119D01*
X353378841Y4617295D01*
X353230505Y4468959D01*
X353213681Y4454841D01*
X353041831Y4334510D01*
X353022810Y4323528D01*
X352832678Y4234868D01*
X352812039Y4227356D01*
X352609400Y4173060D01*
X352587771Y4169247D01*
X352373275Y4150480D01*
X352362293Y4150000D01*
X322633307Y4150000D01*
X322622325Y4150480D01*
X322407828Y4169247D01*
X322386199Y4173060D01*
X322183560Y4227356D01*
X322162921Y4234868D01*
X321972789Y4323528D01*
X321953768Y4334510D01*
X321781918Y4454841D01*
X321765094Y4468959D01*
X321616758Y4617295D01*
X321602640Y4634119D01*
X321482309Y4805969D01*
X321471327Y4824990D01*
X321382667Y5015122D01*
X321375155Y5035761D01*
X321320859Y5238400D01*
X321317045Y5260029D01*
X321298279Y5474526D01*
X321297800Y5485508D01*
X321297800Y20952020D01*
X321897800Y20952020D01*
X321897800Y5751996D01*
X321900209Y5653747D01*
X321900210Y5653738D01*
X321938547Y5461011D01*
X321938548Y5461010D01*
X322013747Y5279464D01*
X322122922Y5116068D01*
X322261872Y4977116D01*
X322425265Y4867936D01*
X322511906Y4832045D01*
X322520034Y4828335D01*
X322520879Y4827913D01*
X322525428Y4826444D01*
X322606809Y4792732D01*
X322606814Y4792731D01*
X322799537Y4754389D01*
X322799544Y4754388D01*
X322846794Y4753240D01*
X322846844Y4753238D01*
X322883142Y4752356D01*
X322883220Y4752355D01*
X322897810Y4752000D01*
X352097799Y4752000D01*
X352111514Y4752314D01*
X352111592Y4752315D01*
X352196069Y4754246D01*
X352260930Y4767145D01*
X352260938Y4767148D01*
X352296321Y4774183D01*
X352296357Y4774191D01*
X352388837Y4792582D01*
X352388845Y4792584D01*
X352466328Y4824677D01*
X352493833Y4832554D01*
X352495437Y4832822D01*
X352507836Y4841868D01*
X352570428Y4867792D01*
X352651727Y4922110D01*
X352652366Y4922534D01*
X352661902Y4928823D01*
X352662468Y4929287D01*
X352733853Y4976981D01*
X352733854Y4976982D01*
X352872835Y5115957D01*
X352872836Y5115958D01*
X352933470Y5206697D01*
X352933476Y5206708D01*
X352982035Y5279377D01*
X352982036Y5279379D01*
X353057254Y5460961D01*
X353057255Y5460965D01*
X353076436Y5557379D01*
X353087219Y5611592D01*
X353087220Y5611603D01*
X353095600Y5653727D01*
X353096650Y5700686D01*
X353096654Y5700764D01*
X353097468Y5737128D01*
X353097467Y5737134D01*
X353097800Y5751987D01*
X353097800Y20952011D01*
X353097455Y20967143D01*
X353097455Y20967148D01*
X353096638Y21003003D01*
X353096636Y21003072D01*
X353095561Y21050268D01*
X353057233Y21243042D01*
X353021346Y21329693D01*
X353018223Y21338060D01*
X353010551Y21361075D01*
X353005932Y21366912D01*
X352982029Y21424628D01*
X352982024Y21424636D01*
X352927643Y21506026D01*
X352927438Y21506333D01*
X352923461Y21512323D01*
X352923235Y21512621D01*
X352872833Y21588055D01*
X352803351Y21657537D01*
X352803353Y21657540D01*
X352803328Y21657560D01*
X352801363Y21659526D01*
X352801317Y21659570D01*
X352733856Y21727030D01*
X352733857Y21727030D01*
X352570438Y21836212D01*
X352570430Y21836216D01*
X352477667Y21874632D01*
X352477665Y21874633D01*
X352388843Y21911417D01*
X352388844Y21911417D01*
X352292467Y21930577D01*
X352292464Y21930577D01*
X352245788Y21939857D01*
X352245788Y21939858D01*
X352245778Y21939859D01*
X352196072Y21949739D01*
X352196075Y21949739D01*
X352097785Y21952000D01*
X322897789Y21952000D01*
X322883240Y21951669D01*
X322883241Y21951668D01*
X322883163Y21951666D01*
X322882802Y21951658D01*
X322870385Y21951376D01*
X322870386Y21951375D01*
X322799524Y21949757D01*
X322747450Y21939401D01*
X322747449Y21939402D01*
X322747444Y21939400D01*
X322606760Y21911424D01*
X322606746Y21911420D01*
X322527448Y21878578D01*
X322527425Y21878567D01*
X322425167Y21836216D01*
X322261737Y21727023D01*
X322209969Y21675258D01*
X322209968Y21675259D01*
X322192244Y21657534D01*
X322192243Y21657532D01*
X322122759Y21588051D01*
X322013559Y21424625D01*
X321971205Y21322381D01*
X321971201Y21322365D01*
X321938345Y21243048D01*
X321938343Y21243041D01*
X321899999Y21050271D01*
X321899999Y21050270D01*
X321897800Y20952020D01*
X321297800Y20952020D01*
X321297800Y21214493D01*
X321298279Y21225475D01*
X321317045Y21439972D01*
X321320859Y21461601D01*
X321375155Y21664240D01*
X321382667Y21684879D01*
X321471327Y21875011D01*
X321482309Y21894032D01*
X321602640Y22065882D01*
X321616758Y22082706D01*
X321765094Y22231042D01*
X321781918Y22245160D01*
X321953768Y22365491D01*
X321972789Y22376473D01*
X322162921Y22465133D01*
X322183560Y22472645D01*
X322386199Y22526941D01*
X322407828Y22530755D01*
X322622325Y22549521D01*
X322633307Y22550000D01*
X352362293Y22550000D01*
X352373275Y22549521D01*
G37*
G36*
X386107028Y5904208D02*
G01*
X386263911Y5886532D01*
X386291419Y5880253D01*
X386433706Y5830465D01*
X386459127Y5818223D01*
X386586772Y5738018D01*
X386608831Y5720426D01*
X386715425Y5613832D01*
X386733017Y5591773D01*
X386813222Y5464128D01*
X386825464Y5438707D01*
X386875252Y5296420D01*
X386881531Y5268913D01*
X386899208Y5112030D01*
X386900000Y5097922D01*
X386900000Y2912079D01*
X386899208Y2897971D01*
X386881531Y2741088D01*
X386875252Y2713581D01*
X386825464Y2571294D01*
X386813222Y2545873D01*
X386733017Y2418228D01*
X386715425Y2396169D01*
X386608831Y2289575D01*
X386586772Y2271983D01*
X386459127Y2191778D01*
X386433706Y2179536D01*
X386291419Y2129748D01*
X386263912Y2123469D01*
X386107029Y2105792D01*
X386092921Y2105000D01*
X383907079Y2105000D01*
X383892971Y2105792D01*
X383736087Y2123469D01*
X383708580Y2129748D01*
X383566293Y2179536D01*
X383540872Y2191778D01*
X383413227Y2271983D01*
X383391168Y2289575D01*
X383284574Y2396169D01*
X383266982Y2418228D01*
X383186777Y2545873D01*
X383174535Y2571294D01*
X383124747Y2713581D01*
X383118468Y2741089D01*
X383100792Y2897972D01*
X383100000Y2912079D01*
X383100000Y5097922D01*
X383100792Y5112029D01*
X383118468Y5268912D01*
X383124747Y5296420D01*
X383174535Y5438707D01*
X383186777Y5464128D01*
X383266982Y5591773D01*
X383284574Y5613832D01*
X383391168Y5720426D01*
X383413227Y5738018D01*
X383540872Y5818223D01*
X383566293Y5830465D01*
X383708580Y5880253D01*
X383736088Y5886532D01*
X383892972Y5904208D01*
X383907079Y5905000D01*
X386092921Y5905000D01*
X386107028Y5904208D01*
G37*
G36*
X338607028Y-28600792D02*
G01*
X338763911Y-28618468D01*
X338791419Y-28624747D01*
X338933706Y-28674535D01*
X338959127Y-28686777D01*
X339086772Y-28766982D01*
X339108831Y-28784574D01*
X339215425Y-28891168D01*
X339233017Y-28913227D01*
X339313222Y-29040872D01*
X339325464Y-29066293D01*
X339375252Y-29208580D01*
X339381531Y-29236087D01*
X339399208Y-29392970D01*
X339400000Y-29407078D01*
X339400000Y-31592921D01*
X339399208Y-31607029D01*
X339381531Y-31763912D01*
X339375252Y-31791419D01*
X339325464Y-31933706D01*
X339313222Y-31959127D01*
X339233017Y-32086772D01*
X339215425Y-32108831D01*
X339108831Y-32215425D01*
X339086772Y-32233017D01*
X338959127Y-32313222D01*
X338933706Y-32325464D01*
X338791419Y-32375252D01*
X338763912Y-32381531D01*
X338607029Y-32399208D01*
X338592921Y-32400000D01*
X336407079Y-32400000D01*
X336392971Y-32399208D01*
X336236087Y-32381531D01*
X336208580Y-32375252D01*
X336066293Y-32325464D01*
X336040872Y-32313222D01*
X335913227Y-32233017D01*
X335891168Y-32215425D01*
X335784574Y-32108831D01*
X335766982Y-32086772D01*
X335686777Y-31959127D01*
X335674535Y-31933706D01*
X335624747Y-31791419D01*
X335618468Y-31763911D01*
X335600792Y-31607028D01*
X335600000Y-31592921D01*
X335600000Y-29407078D01*
X335600792Y-29392971D01*
X335618468Y-29236088D01*
X335624747Y-29208580D01*
X335674535Y-29066293D01*
X335686777Y-29040872D01*
X335766982Y-28913227D01*
X335784574Y-28891168D01*
X335891168Y-28784574D01*
X335913227Y-28766982D01*
X336040872Y-28686777D01*
X336066293Y-28674535D01*
X336208580Y-28624747D01*
X336236088Y-28618468D01*
X336392972Y-28600792D01*
X336407079Y-28600000D01*
X338592921Y-28600000D01*
X338607028Y-28600792D01*
G37*
G36*
X363607028Y-28600792D02*
G01*
X363763911Y-28618468D01*
X363791419Y-28624747D01*
X363933706Y-28674535D01*
X363959127Y-28686777D01*
X364086772Y-28766982D01*
X364108831Y-28784574D01*
X364215425Y-28891168D01*
X364233017Y-28913227D01*
X364313222Y-29040872D01*
X364325464Y-29066293D01*
X364375252Y-29208580D01*
X364381531Y-29236087D01*
X364399208Y-29392970D01*
X364400000Y-29407078D01*
X364400000Y-31592921D01*
X364399208Y-31607029D01*
X364381531Y-31763912D01*
X364375252Y-31791419D01*
X364325464Y-31933706D01*
X364313222Y-31959127D01*
X364233017Y-32086772D01*
X364215425Y-32108831D01*
X364108831Y-32215425D01*
X364086772Y-32233017D01*
X363959127Y-32313222D01*
X363933706Y-32325464D01*
X363791419Y-32375252D01*
X363763912Y-32381531D01*
X363607029Y-32399208D01*
X363592921Y-32400000D01*
X361407079Y-32400000D01*
X361392971Y-32399208D01*
X361236087Y-32381531D01*
X361208580Y-32375252D01*
X361066293Y-32325464D01*
X361040872Y-32313222D01*
X360913227Y-32233017D01*
X360891168Y-32215425D01*
X360784574Y-32108831D01*
X360766982Y-32086772D01*
X360686777Y-31959127D01*
X360674535Y-31933706D01*
X360624747Y-31791419D01*
X360618468Y-31763911D01*
X360600792Y-31607028D01*
X360600000Y-31592921D01*
X360600000Y-29407078D01*
X360600792Y-29392971D01*
X360618468Y-29236088D01*
X360624747Y-29208580D01*
X360674535Y-29066293D01*
X360686777Y-29040872D01*
X360766982Y-28913227D01*
X360784574Y-28891168D01*
X360891168Y-28784574D01*
X360913227Y-28766982D01*
X361040872Y-28686777D01*
X361066293Y-28674535D01*
X361208580Y-28624747D01*
X361236088Y-28618468D01*
X361392972Y-28600792D01*
X361407079Y-28600000D01*
X363592921Y-28600000D01*
X363607028Y-28600792D01*
G37*
G36*
X386107028Y-2095792D02*
G01*
X386263911Y-2113468D01*
X386291419Y-2119747D01*
X386433706Y-2169535D01*
X386459127Y-2181777D01*
X386586772Y-2261982D01*
X386608831Y-2279574D01*
X386715425Y-2386168D01*
X386733017Y-2408227D01*
X386813222Y-2535872D01*
X386825464Y-2561293D01*
X386875252Y-2703580D01*
X386881531Y-2731087D01*
X386899208Y-2887970D01*
X386900000Y-2902078D01*
X386900000Y-5087921D01*
X386899208Y-5102029D01*
X386881531Y-5258912D01*
X386875252Y-5286419D01*
X386825464Y-5428706D01*
X386813222Y-5454127D01*
X386733017Y-5581772D01*
X386715425Y-5603831D01*
X386608831Y-5710425D01*
X386586772Y-5728017D01*
X386459127Y-5808222D01*
X386433706Y-5820464D01*
X386291419Y-5870252D01*
X386263912Y-5876531D01*
X386107029Y-5894208D01*
X386092921Y-5895000D01*
X383907079Y-5895000D01*
X383892971Y-5894208D01*
X383736087Y-5876531D01*
X383708580Y-5870252D01*
X383566293Y-5820464D01*
X383540872Y-5808222D01*
X383413227Y-5728017D01*
X383391168Y-5710425D01*
X383284574Y-5603831D01*
X383266982Y-5581772D01*
X383186777Y-5454127D01*
X383174535Y-5428706D01*
X383124747Y-5286419D01*
X383118468Y-5258911D01*
X383100792Y-5102028D01*
X383100000Y-5087921D01*
X383100000Y-2902078D01*
X383100792Y-2887971D01*
X383118468Y-2731088D01*
X383124747Y-2703580D01*
X383174535Y-2561293D01*
X383186777Y-2535872D01*
X383266982Y-2408227D01*
X383284574Y-2386168D01*
X383391168Y-2279574D01*
X383413227Y-2261982D01*
X383540872Y-2181777D01*
X383566293Y-2169535D01*
X383708580Y-2119747D01*
X383736088Y-2113468D01*
X383892972Y-2095792D01*
X383907079Y-2095000D01*
X386092921Y-2095000D01*
X386107028Y-2095792D01*
G37*
%LPD*%
M02*
