%TF.GenerationSoftware,KiCad,Pcbnew,9.0.6-9.0.6~ubuntu24.04.1*%
%TF.CreationDate,2025-11-16T17:23:56+08:00*%
%TF.ProjectId,ksoloti_gills_panel,6b736f6c-6f74-4695-9f67-696c6c735f70,v0.6*%
%TF.SameCoordinates,Original*%
%TF.FileFunction,Profile,NP*%
%FSLAX46Y46*%
G04 Gerber Fmt 4.6, Leading zero omitted, Abs format (unit mm)*
G04 Created by KiCad (PCBNEW 9.0.6-9.0.6~ubuntu24.04.1) date 2025-11-16 17:23:56*
%MOMM*%
%LPD*%
G01*
G04 APERTURE LIST*
%TA.AperFunction,Profile*%
%ADD10C,0.050000*%
%TD*%
%TA.AperFunction,Profile*%
%ADD11C,0.100000*%
%TD*%
G04 APERTURE END LIST*
D10*
X126697800Y284442000D02*
X126697800Y252842000D01*
X100997800Y251242000D02*
G75*
G02*
X99997824Y252242000I38J1000014D01*
G01*
X156797800Y162242000D02*
X156797800Y204242000D01*
X90527989Y276142000D02*
X90527989Y278142000D01*
X68511989Y259842000D02*
X77511989Y259842000D01*
X-15002200Y284442000D02*
X-15002200Y286042000D01*
X-15088011Y262342000D02*
G75*
G02*
X-16088011Y261342063I-999951J14D01*
G01*
X99997800Y113442000D02*
X59997800Y113442000D01*
X-26702200Y284442000D02*
X-15002200Y284442000D01*
D11*
X126997800Y233242000D02*
G75*
G02*
X128997824Y231242000I138J-1999886D01*
G01*
D10*
X-55200000Y143242000D02*
G75*
G02*
X-56200000Y142242052I-999962J14D01*
G01*
X39997800Y113442000D02*
X-2200Y113442000D01*
X-56202200Y204242000D02*
X-56802200Y204242000D01*
X104283989Y278142000D02*
X104283989Y276142000D01*
X-56200000Y162242000D02*
G75*
G02*
X-55199976Y161242000I38J-999986D01*
G01*
X-20002200Y113442000D02*
X-26702200Y113442000D01*
X96155989Y278142000D02*
X96155989Y276142000D01*
X32811989Y260142000D02*
G75*
G02*
X31811924Y261142000I49J1000114D01*
G01*
X-88402200Y167242000D02*
X-88402200Y199242000D01*
X114997800Y284442000D02*
X126697800Y284442000D01*
X114911989Y276142000D02*
X114911989Y278142000D01*
D11*
X-27002200Y133242000D02*
G75*
G02*
X-29002176Y135242000I38J2000014D01*
G01*
D10*
X-1002200Y115042000D02*
G75*
G02*
X-2176Y114042000I38J-999986D01*
G01*
D11*
X128997800Y135242000D02*
G75*
G02*
X126997800Y133241952I-2000062J14D01*
G01*
D10*
X90527989Y276142000D02*
G75*
G02*
X88027989Y276142000I-1250000J0D01*
G01*
X99997800Y114042000D02*
G75*
G02*
X100997800Y115041952I999938J14D01*
G01*
X189997800Y219242000D02*
X189997800Y199242000D01*
X155197800Y161242000D02*
G75*
G02*
X156197800Y162242052I1000038J14D01*
G01*
X63511989Y260842000D02*
G75*
G02*
X62511989Y259842063I-1000051J114D01*
G01*
X-56802200Y224242000D02*
X-56202200Y224242000D01*
X-20002200Y114042000D02*
G75*
G02*
X-19002200Y115041952I999938J14D01*
G01*
X31811989Y262742000D02*
G75*
G02*
X32811989Y263742063I1000149J-86D01*
G01*
X114997800Y286042000D02*
X114997800Y284442000D01*
X114997800Y80242000D02*
X94997800Y80242000D01*
X39997800Y80242000D02*
X39997800Y81842000D01*
X-15002200Y286042000D02*
X4997800Y286042000D01*
X-56200000Y142242000D02*
X-56802200Y142242000D01*
X-15002200Y80242000D02*
X-15002200Y81842000D01*
X52511989Y264442000D02*
X52511989Y260879893D01*
X-56802200Y137242000D02*
X-88402200Y137242000D01*
X189997800Y147242000D02*
X188397800Y147242000D01*
X67511989Y264442000D02*
X67511989Y260879893D01*
X-55202200Y223242000D02*
X-55202200Y205242000D01*
X59997800Y81842000D02*
X59997800Y80242000D01*
X118997800Y115042000D02*
G75*
G02*
X119997824Y114042000I38J-999986D01*
G01*
X99797800Y231142000D02*
X120197800Y231142000D01*
X120197800Y229242000D01*
X99797800Y229242000D01*
X99797800Y231142000D01*
X98655989Y276142000D02*
G75*
G02*
X96155989Y276142000I-1250000J0D01*
G01*
X59997800Y252242000D02*
G75*
G02*
X58997800Y251242052I-999962J14D01*
G01*
X106783989Y276142000D02*
G75*
G02*
X104283989Y276142000I-1250000J0D01*
G01*
X-26702200Y81842000D02*
X-26702200Y113442000D01*
D11*
X-27002200Y133242000D02*
X126997800Y133242000D01*
D10*
X67511989Y264442000D02*
G75*
G02*
X68511989Y265442063I999949J114D01*
G01*
X31811989Y261142000D02*
X31811989Y262742000D01*
X-56802200Y224242000D02*
X-56802200Y229242000D01*
X-88402200Y219242000D02*
X-88402200Y229242000D01*
X39997800Y114042000D02*
G75*
G02*
X40997800Y115041952I999938J14D01*
G01*
X-56202200Y224242000D02*
G75*
G02*
X-55202176Y223242000I38J-999986D01*
G01*
X-56802200Y162242000D02*
X-56200000Y162242000D01*
X77511989Y265442000D02*
X68511989Y265442000D01*
D11*
X128997800Y135242000D02*
X128997800Y231242000D01*
D10*
X156797800Y204242000D02*
X156197800Y204242000D01*
X99797800Y137242000D02*
X120197800Y137242000D01*
X120197800Y135342000D01*
X99797800Y135342000D01*
X99797800Y137242000D01*
X-56802200Y229242000D02*
X-88402200Y229242000D01*
X188397800Y219242000D02*
X189997800Y219242000D01*
X94997800Y284442000D02*
X94997800Y286042000D01*
X58997800Y115042000D02*
G75*
G02*
X59997824Y114042000I38J-999986D01*
G01*
X-19002200Y251242000D02*
G75*
G02*
X-20002176Y252242000I38J1000014D01*
G01*
X48811989Y263742000D02*
X32811989Y263742000D01*
X124997800Y162442000D02*
X126897800Y162442000D01*
X126897800Y142042000D01*
X124997800Y142042000D01*
X124997800Y162442000D01*
X-2200Y114042000D02*
X-2200Y113442000D01*
X88027989Y278142000D02*
G75*
G02*
X90527989Y278142000I1250000J0D01*
G01*
X-20002200Y113442000D02*
X-20002200Y114042000D01*
X39997800Y81842000D02*
X4997800Y81842000D01*
X188397800Y199242000D02*
X188397800Y167242000D01*
X59997800Y80242000D02*
X39997800Y80242000D01*
X-25088011Y272342000D02*
G75*
G02*
X-24088011Y273342063I1000049J14D01*
G01*
X119997800Y252842000D02*
X119997800Y252242000D01*
X62511989Y265442000D02*
X53511989Y265442000D01*
X-90002200Y219242000D02*
X-88402200Y219242000D01*
X-20002200Y252842000D02*
X-26702200Y252842000D01*
X156797800Y224242000D02*
X156797800Y229242000D01*
X-88402200Y137242000D02*
X-88402200Y147242000D01*
X-2200Y252842000D02*
X-2200Y252242000D01*
X114997800Y81842000D02*
X114997800Y80242000D01*
X48811989Y263742000D02*
G75*
G02*
X49811924Y262742000I49J-999886D01*
G01*
X59997800Y252842000D02*
X59997800Y252242000D01*
X63511989Y260842000D02*
X63511989Y264442000D01*
X59997800Y284442000D02*
X94997800Y284442000D01*
X78511989Y260842000D02*
G75*
G02*
X77511989Y259842063I-1000051J114D01*
G01*
X156197800Y162242000D02*
X156797800Y162242000D01*
X-90002200Y147242000D02*
X-90002200Y167242000D01*
X-26702200Y252842000D02*
X-26702200Y284442000D01*
X94997800Y286042000D02*
X114997800Y286042000D01*
X59997800Y252842000D02*
X99997800Y252842000D01*
X99997800Y113442000D02*
X99997800Y114042000D01*
X-15088011Y272342000D02*
X-15088011Y262342000D01*
X156197800Y224242000D02*
X156797800Y224242000D01*
X49811989Y261142000D02*
G75*
G02*
X48811989Y260142063I-999851J-86D01*
G01*
X39997800Y286042000D02*
X59997800Y286042000D01*
X-20202200Y231142000D02*
X197800Y231142000D01*
X197800Y229242000D01*
X-20202200Y229242000D01*
X-20202200Y231142000D01*
X49811989Y261142000D02*
X49811989Y262742000D01*
X189997800Y167242000D02*
X189997800Y147242000D01*
X-24088011Y261342000D02*
G75*
G02*
X-25087976Y262342000I49J1000014D01*
G01*
X98655989Y276142000D02*
X98655989Y278142000D01*
X39997800Y284442000D02*
X39997800Y286042000D01*
X4997800Y80242000D02*
X-15002200Y80242000D01*
X68511989Y259842000D02*
G75*
G02*
X67511919Y260879893I38249J1037614D01*
G01*
X-19002200Y115042000D02*
X-1002200Y115042000D01*
X156797800Y229242000D02*
X188397800Y229242000D01*
X-56802200Y142242000D02*
X-56802200Y137242000D01*
X155197800Y223242000D02*
G75*
G02*
X156197800Y224242052I1000038J14D01*
G01*
X104283989Y278142000D02*
G75*
G02*
X106783989Y278142000I1250000J0D01*
G01*
X53511989Y259842000D02*
G75*
G02*
X52511919Y260879893I38249J1037614D01*
G01*
X-2200Y252242000D02*
G75*
G02*
X-1002200Y251242052I-999962J14D01*
G01*
X126697800Y113442000D02*
X126697800Y81842000D01*
X39997800Y252242000D02*
X39997800Y252842000D01*
X-55202200Y205242000D02*
G75*
G02*
X-56202200Y204242052I-999962J14D01*
G01*
X4997800Y286042000D02*
X4997800Y284442000D01*
X156197800Y204242000D02*
G75*
G02*
X155197824Y205242000I38J1000014D01*
G01*
X94997800Y81842000D02*
X59997800Y81842000D01*
X119997800Y113442000D02*
X126697800Y113442000D01*
X99997800Y252242000D02*
X99997800Y252842000D01*
X-24088011Y273342000D02*
X-16088011Y273342000D01*
X39797800Y137242000D02*
X60197800Y137242000D01*
X60197800Y135342000D01*
X39797800Y135342000D01*
X39797800Y137242000D01*
X189997800Y199242000D02*
X188397800Y199242000D01*
X-26902200Y224442000D02*
X-25002200Y224442000D01*
X-25002200Y204042000D01*
X-26902200Y204042000D01*
X-26902200Y224442000D01*
X112411989Y278142000D02*
X112411989Y276142000D01*
X188397800Y147242000D02*
X188397800Y137242000D01*
X156197800Y142242000D02*
G75*
G02*
X155197824Y143242000I38J1000014D01*
G01*
X188397800Y167242000D02*
X189997800Y167242000D01*
X-16088011Y261342000D02*
X-24088011Y261342000D01*
X155197800Y205242000D02*
X155197800Y223242000D01*
X-20202200Y137242000D02*
X197800Y137242000D01*
X197800Y135342000D01*
X-20202200Y135342000D01*
X-20202200Y137242000D01*
X77511989Y265442000D02*
G75*
G02*
X78511924Y264442000I49J-999886D01*
G01*
X4997800Y284442000D02*
X39997800Y284442000D01*
X-25088011Y262342000D02*
X-25088011Y272342000D01*
X118997800Y251242000D02*
X100997800Y251242000D01*
X39797800Y231142000D02*
X60197800Y231142000D01*
X60197800Y229242000D01*
X39797800Y229242000D01*
X39797800Y231142000D01*
X106783989Y276142000D02*
X106783989Y278142000D01*
X62511989Y265442000D02*
G75*
G02*
X63511924Y264442000I49J-999886D01*
G01*
X58997800Y251242000D02*
X40997800Y251242000D01*
X119997800Y114042000D02*
X119997800Y113442000D01*
X52511989Y264442000D02*
G75*
G02*
X53511989Y265442063I1000149J-86D01*
G01*
X53511989Y259842000D02*
X62511989Y259842000D01*
X119997800Y252842000D02*
X126697800Y252842000D01*
X114911989Y276142000D02*
G75*
G02*
X112411989Y276142000I-1250000J0D01*
G01*
X40997800Y115042000D02*
X58997800Y115042000D01*
X40997800Y251242000D02*
G75*
G02*
X39997824Y252242000I38J1000014D01*
G01*
X-15002200Y81842000D02*
X-26702200Y81842000D01*
X-1002200Y251242000D02*
X-19002200Y251242000D01*
X59997800Y114042000D02*
X59997800Y113442000D01*
X188397800Y229242000D02*
X188397800Y219242000D01*
X94997800Y80242000D02*
X94997800Y81842000D01*
X-88402200Y147242000D02*
X-90002200Y147242000D01*
X124997800Y224442000D02*
X126897800Y224442000D01*
X126897800Y204042000D01*
X124997800Y204042000D01*
X124997800Y224442000D01*
X88027989Y278142000D02*
X88027989Y276142000D01*
X155197800Y143242000D02*
X155197800Y161242000D01*
X96155989Y278142000D02*
G75*
G02*
X98655989Y278142000I1250000J0D01*
G01*
X119997800Y252242000D02*
G75*
G02*
X118997800Y251242052I-999962J14D01*
G01*
X59997800Y286042000D02*
X59997800Y284442000D01*
D11*
X-29002200Y135242000D02*
X-29002200Y231242000D01*
D10*
X126697800Y81842000D02*
X114997800Y81842000D01*
D11*
X-29002200Y231242000D02*
G75*
G02*
X-27002200Y233242052I2000038J14D01*
G01*
D10*
X-55200000Y161242000D02*
X-55200000Y143242000D01*
X-20002200Y252242000D02*
X-20002200Y252842000D01*
X-2200Y252842000D02*
X39997800Y252842000D01*
X78511989Y260842000D02*
X78511989Y264442000D01*
X156797800Y137242000D02*
X188397800Y137242000D01*
X4997800Y81842000D02*
X4997800Y80242000D01*
X-26902200Y162442000D02*
X-25002200Y162442000D01*
X-25002200Y142042000D01*
X-26902200Y142042000D01*
X-26902200Y162442000D01*
X-16088011Y273342000D02*
G75*
G02*
X-15088076Y272342000I49J-999886D01*
G01*
X-90002200Y199242000D02*
X-90002200Y219242000D01*
X156797800Y142242000D02*
X156197800Y142242000D01*
X112411989Y278142000D02*
G75*
G02*
X114911989Y278142000I1250000J0D01*
G01*
X39997800Y113442000D02*
X39997800Y114042000D01*
X-90002200Y167242000D02*
X-88402200Y167242000D01*
X32811989Y260142000D02*
X48811989Y260142000D01*
X100997800Y115042000D02*
X118997800Y115042000D01*
X-88402200Y199242000D02*
X-90002200Y199242000D01*
X156797800Y142242000D02*
X156797800Y137242000D01*
D11*
X126997800Y233242000D02*
X-27002200Y233242000D01*
D10*
X-56802200Y204242000D02*
X-56802200Y162242000D01*
D11*
X353097800Y20952000D02*
X353097800Y5752000D01*
X272997800Y-66758000D02*
G75*
G02*
X270997824Y-64758000I38J2000014D01*
G01*
X428997800Y-64758000D02*
G75*
G02*
X426997800Y-66758048I-2000062J14D01*
G01*
D10*
X394797800Y31142000D02*
X415197800Y31142000D01*
X415197800Y29242000D01*
X394797800Y29242000D01*
X394797800Y31142000D01*
X424997800Y19442000D02*
X426897800Y19442000D01*
X426897800Y-958000D01*
X424997800Y-958000D01*
X424997800Y19442000D01*
D11*
X322897800Y4752000D02*
G75*
G02*
X321897824Y5752000I38J1000014D01*
G01*
D10*
X273097800Y-32558000D02*
X274997800Y-32558000D01*
X274997800Y-52958000D01*
X273097800Y-52958000D01*
X273097800Y-32558000D01*
D11*
X428997800Y-64758000D02*
X428997800Y31242000D01*
X270997800Y-64758000D02*
X270997800Y31242000D01*
X270997800Y31242000D02*
G75*
G02*
X272997800Y33242052I2000038J14D01*
G01*
X272997800Y-66758000D02*
X426997800Y-66758000D01*
D10*
X339797800Y-62758000D02*
X360197800Y-62758000D01*
X360197800Y-64658000D01*
X339797800Y-64658000D01*
X339797800Y-62758000D01*
D11*
X353097800Y5752000D02*
G75*
G02*
X352097800Y4752052I-999962J14D01*
G01*
D10*
X339797800Y31142000D02*
X360197800Y31142000D01*
X360197800Y29242000D01*
X339797800Y29242000D01*
X339797800Y31142000D01*
D11*
X321897800Y20952000D02*
G75*
G02*
X322897800Y21951952I999938J14D01*
G01*
X352097800Y21952000D02*
G75*
G02*
X353097824Y20952000I138J-999886D01*
G01*
D10*
X394797800Y-62758000D02*
X415197800Y-62758000D01*
X415197800Y-64658000D01*
X394797800Y-64658000D01*
X394797800Y-62758000D01*
D11*
X352097800Y4752000D02*
X322897800Y4752000D01*
X321897800Y5752000D02*
X321897800Y20952000D01*
D10*
X284797800Y31142000D02*
X305197800Y31142000D01*
X305197800Y29242000D01*
X284797800Y29242000D01*
X284797800Y31142000D01*
X284797800Y-62758000D02*
X305197800Y-62758000D01*
X305197800Y-64658000D01*
X284797800Y-64658000D01*
X284797800Y-62758000D01*
D11*
X322897800Y21952000D02*
X352097800Y21952000D01*
X426997800Y33242000D02*
G75*
G02*
X428997824Y31242000I38J-1999986D01*
G01*
D10*
X273097800Y19442000D02*
X274997800Y19442000D01*
X274997800Y-958000D01*
X273097800Y-958000D01*
X273097800Y19442000D01*
D11*
X426997800Y33242000D02*
X272997800Y33242000D01*
D10*
X424997800Y-32558000D02*
X426897800Y-32558000D01*
X426897800Y-52958000D01*
X424997800Y-52958000D01*
X424997800Y-32558000D01*
M02*
