M48
; DRILL file {KiCad 9.0.6-9.0.6~ubuntu24.04.1} date 2025-11-16T17:23:56+0800
; FORMAT={-:-/ absolute / inch / decimal}
; #@! TF.CreationDate,2025-11-16T17:23:56+08:00
; #@! TF.GenerationSoftware,Kicad,Pcbnew,9.0.6-9.0.6~ubuntu24.04.1
; #@! TF.FileFunction,Plated,1,2,PTH
FMAT,2
INCH
; #@! TA.AperFunction,Plated,PTH,ComponentDrill
T1C0.1260
; #@! TA.AperFunction,Plated,PTH,ComponentDrill
T2C0.2441
; #@! TA.AperFunction,Plated,PTH,ComponentDrill
T3C0.2559
; #@! TA.AperFunction,Plated,PTH,ComponentDrill
T4C0.2756
; #@! TA.AperFunction,Plated,PTH,ComponentDrill
T5C0.4724
; #@! TA.AperFunction,Plated,PTH,ComponentDrill
T6C0.6693
%
G90
G05
T1
X-0.8269Y7.982
X-0.8269Y5.541
X4.7637Y7.982
X4.7637Y5.541
X10.9842Y0.108
X10.9842Y-2.333
X14.9999Y1.0135
X16.5747Y0.108
X16.5747Y-2.333
T2
X2.1225Y10.9052
X2.5162Y10.9052
X2.9099Y10.9052
T3
X12.7953Y-0.3543
X13.2874Y-1.4764
X13.7795Y-0.3543
X14.2717Y-1.4764
T4
X11.811Y0.0
X11.811Y-0.9843
X11.811Y-1.9685
X12.7953Y-0.9843
X12.7953Y-1.9685
X13.7795Y-0.9843
X13.7795Y-1.9685
X14.3701Y-0.0354
X14.7638Y-0.9843
X14.7638Y-1.9685
X15.748Y0.0
X15.748Y-0.9843
X15.748Y-1.9685
T5
X-0.3938Y3.9347
X-0.1216Y10.4859
X0.5871Y10.4859
X3.7367Y10.4859
X4.4454Y10.4859
T6
X6.5629Y7.2851
X6.5629Y6.4977
M30
