%TF.GenerationSoftware,KiCad,Pcbnew,9.0.6-9.0.6~ubuntu24.04.1*%
%TF.CreationDate,2025-11-16T17:23:56+08:00*%
%TF.ProjectId,ksoloti_gills_panel,6b736f6c-6f74-4695-9f67-696c6c735f70,v0.6*%
%TF.SameCoordinates,Original*%
%TF.FileFunction,Legend,Bot*%
%TF.FilePolarity,Positive*%
%FSLAX46Y46*%
G04 Gerber Fmt 4.6, Leading zero omitted, Abs format (unit mm)*
G04 Created by KiCad (PCBNEW 9.0.6-9.0.6~ubuntu24.04.1) date 2025-11-16 17:23:56*
%MOMM*%
%LPD*%
G01*
G04 APERTURE LIST*
%ADD10C,0.250000*%
%ADD11C,0.500000*%
%ADD12C,0.700000*%
%ADD13C,0.000000*%
%ADD14C,0.300000*%
%ADD15C,0.200000*%
%ADD16C,0.150000*%
%ADD17C,2.000000*%
%ADD18C,5.000000*%
%ADD19C,13.000000*%
%ADD20C,7.200000*%
%ADD21C,18.000000*%
%ADD22C,7.500000*%
%ADD23C,8.000000*%
%ADD24C,1.700000*%
G04 APERTURE END LIST*
D10*
X87501563Y281265088D02*
X87302087Y281071082D01*
X104899476Y280100000D02*
X104699999Y280294005D01*
X40070445Y266244959D02*
X39770967Y265950954D01*
X105298434Y281264031D02*
X104899476Y281264031D01*
X39770967Y265374933D02*
X39770967Y265950954D01*
X104899476Y281264031D02*
X104699999Y281070024D01*
X55500521Y282664029D02*
X55301042Y282470024D01*
D11*
X37135247Y277620131D02*
X36337331Y277620131D01*
D10*
X74058343Y266975987D02*
X74058343Y267753062D01*
X113700000Y281072114D02*
X113500522Y281266120D01*
X71963167Y266975986D02*
X71963167Y267169992D01*
D12*
X23430979Y275664558D02*
X24627857Y275664558D01*
D11*
X33143502Y276065978D02*
X33143502Y277620131D01*
D10*
X74566343Y266781982D02*
X74566343Y267947067D01*
X103472223Y257088462D02*
X103472223Y258059543D01*
D12*
X24029413Y279159810D02*
X24029413Y279741829D01*
D10*
X115298434Y281265086D02*
X114899481Y281265086D01*
X55701539Y266974931D02*
X55701539Y267362941D01*
X58688144Y267363996D02*
X58296061Y266781982D01*
X113500522Y281266120D02*
X113101564Y281266120D01*
X96195522Y281070049D02*
X96195522Y280100024D01*
X88701564Y280682015D02*
X89100521Y280682015D01*
X72761083Y266975986D02*
X72561603Y266781980D01*
X96602088Y280294005D02*
X96801564Y280099998D01*
X106501044Y281072113D02*
X106501044Y280878108D01*
D12*
X18642855Y279170738D02*
X19241289Y279170738D01*
D10*
X65001042Y281500000D02*
X65798957Y281500000D01*
X72162647Y267363996D02*
X72561603Y267363996D01*
D11*
X43659195Y277618031D02*
X44058152Y277230022D01*
D10*
X104699999Y280294005D02*
X104699999Y280488011D01*
X70738385Y267947065D02*
X71536301Y267947065D01*
X56299975Y267946011D02*
X55901018Y267946011D01*
X88502086Y280294005D02*
X88502086Y280488011D01*
D11*
X37135247Y276065975D02*
X37534206Y276453987D01*
D10*
X54400000Y282664030D02*
X54001041Y282080959D01*
D12*
X26823418Y275664558D02*
X28020296Y275664558D01*
D10*
X97200522Y281265086D02*
X96801564Y281265086D01*
D11*
X44058152Y277230022D02*
X43659195Y276842012D01*
D12*
X14831547Y275664558D02*
X16626857Y275664558D01*
D10*
X74058343Y267753062D02*
X73858864Y267947068D01*
X73459907Y267947068D02*
X73260427Y267753062D01*
X87501563Y280100000D02*
X87900521Y280100000D01*
X105497915Y281070024D02*
X105298434Y281264031D01*
D11*
X41528118Y276453987D02*
X41528118Y277232118D01*
D10*
X88099999Y281071082D02*
X87900521Y281265088D01*
D11*
X35938375Y277232118D02*
X35938375Y276453987D01*
D10*
X52299478Y282664029D02*
X52498957Y282470024D01*
X52498957Y282470025D02*
X52498957Y281500000D01*
X75364258Y267947067D02*
X75364258Y266781982D01*
D11*
X35938375Y276453990D02*
X36337331Y276065978D01*
D12*
X16028423Y277992617D02*
X16626857Y277410604D01*
D10*
X59865822Y267946014D02*
X59566343Y267652009D01*
X103671701Y256894455D02*
X104070659Y256894455D01*
X57597237Y266780926D02*
X57796716Y266974933D01*
D13*
G36*
X73503021Y282302045D02*
G01*
X73507581Y282301703D01*
X73512102Y282301139D01*
X73516576Y282300356D01*
X73520997Y282299358D01*
X73525356Y282298146D01*
X73529645Y282296725D01*
X73533858Y282295097D01*
X73537987Y282293265D01*
X73542023Y282291234D01*
X73545960Y282289005D01*
X73549790Y282286583D01*
X73553505Y282283969D01*
X73557098Y282281168D01*
X73560561Y282278182D01*
X73563887Y282275015D01*
X73567054Y282271690D01*
X73570040Y282268226D01*
X73572841Y282264633D01*
X73575455Y282260918D01*
X73577878Y282257088D01*
X73580106Y282253151D01*
X73582138Y282249114D01*
X73583969Y282244986D01*
X73585597Y282240773D01*
X73587019Y282236483D01*
X73588230Y282232124D01*
X73589229Y282227703D01*
X73590012Y282223229D01*
X73590576Y282218708D01*
X73590918Y282214148D01*
X73591034Y282209557D01*
X73591034Y282015529D01*
X73590913Y282010763D01*
X73590556Y282006061D01*
X73589967Y282001426D01*
X73589153Y281996866D01*
X73588119Y281992386D01*
X73586871Y281987992D01*
X73585415Y281983689D01*
X73583757Y281979484D01*
X73581902Y281975382D01*
X73579857Y281971389D01*
X73577627Y281967511D01*
X73575219Y281963753D01*
X73572637Y281960123D01*
X73569888Y281956624D01*
X73566977Y281953264D01*
X73563911Y281950048D01*
X73560695Y281946982D01*
X73557335Y281944071D01*
X73553837Y281941322D01*
X73550206Y281938740D01*
X73546449Y281936332D01*
X73542571Y281934102D01*
X73538578Y281932057D01*
X73534476Y281930202D01*
X73530270Y281928544D01*
X73525968Y281927088D01*
X73521573Y281925840D01*
X73517093Y281924806D01*
X73512533Y281923992D01*
X73507898Y281923403D01*
X73503195Y281923045D01*
X73498430Y281922925D01*
X73298958Y281922925D01*
X73296676Y281922955D01*
X73294398Y281923041D01*
X73292124Y281923182D01*
X73289857Y281923380D01*
X73287596Y281923633D01*
X73285344Y281923942D01*
X73283100Y281924305D01*
X73280866Y281924724D01*
X73278643Y281925197D01*
X73276433Y281925724D01*
X73274235Y281926306D01*
X73272051Y281926942D01*
X73269882Y281927632D01*
X73267729Y281928376D01*
X73265593Y281929173D01*
X73263475Y281930023D01*
X73261381Y281930920D01*
X73259312Y281931866D01*
X73257268Y281932863D01*
X73255251Y281933908D01*
X73253262Y281935002D01*
X73251301Y281936144D01*
X73249369Y281937333D01*
X73247466Y281938569D01*
X73245595Y281939851D01*
X73243756Y281941179D01*
X73241949Y281942552D01*
X73240175Y281943970D01*
X73238436Y281945431D01*
X73236732Y281946936D01*
X73235063Y281948483D01*
X73233432Y281950073D01*
X73231842Y281951705D01*
X73230295Y281953373D01*
X73228790Y281955077D01*
X73227329Y281956816D01*
X73225911Y281958589D01*
X73224538Y281960396D01*
X73223211Y281962235D01*
X73221928Y281964106D01*
X73220692Y281966008D01*
X73219503Y281967940D01*
X73218361Y281969901D01*
X73217268Y281971890D01*
X73216222Y281973907D01*
X73215226Y281975950D01*
X73214279Y281978019D01*
X73213382Y281980113D01*
X73212538Y281982228D01*
X73211747Y281984361D01*
X73211009Y281986510D01*
X73210325Y281988676D01*
X73209694Y281990856D01*
X73209118Y281993050D01*
X73208595Y281995257D01*
X73208126Y281997475D01*
X73207712Y281999705D01*
X73207352Y282001944D01*
X73207048Y282004192D01*
X73206798Y282006448D01*
X73206603Y282008710D01*
X73206464Y282010979D01*
X73206381Y282013252D01*
X73206354Y282015529D01*
X73206354Y282209557D01*
X73206474Y282214322D01*
X73206832Y282219025D01*
X73207421Y282223659D01*
X73208235Y282228219D01*
X73209269Y282232699D01*
X73210517Y282237094D01*
X73211973Y282241397D01*
X73213631Y282245602D01*
X73215486Y282249704D01*
X73217531Y282253697D01*
X73219761Y282257575D01*
X73222169Y282261332D01*
X73224751Y282264963D01*
X73227500Y282268461D01*
X73230411Y282271821D01*
X73233477Y282275037D01*
X73236693Y282278103D01*
X73240053Y282281014D01*
X73243552Y282283763D01*
X73247182Y282286345D01*
X73250940Y282288754D01*
X73254818Y282290984D01*
X73258811Y282293029D01*
X73262913Y282294883D01*
X73267118Y282296541D01*
X73271421Y282297997D01*
X73275815Y282299245D01*
X73280295Y282300279D01*
X73284855Y282301094D01*
X73289490Y282301682D01*
X73294192Y282302040D01*
X73298958Y282302161D01*
X73498430Y282302161D01*
X73503021Y282302045D01*
G37*
D10*
X90302085Y280099999D02*
X91100000Y280099999D01*
X107282799Y258058490D02*
X106983321Y257764485D01*
D11*
X38733248Y276065978D02*
X38733248Y278396149D01*
D10*
X62000000Y281500000D02*
X62797915Y281500000D01*
X75000000Y281522925D02*
X75797915Y281522925D01*
X89100521Y281264031D02*
X88701563Y281264031D01*
X101005713Y256894458D02*
X101005713Y258058489D01*
X103699476Y280100000D02*
X104098434Y280100000D01*
X57198280Y267946014D02*
X56998800Y267752008D01*
X60364258Y266781982D02*
X60364258Y267946014D01*
X103500000Y280294007D02*
X103699476Y280100000D01*
D11*
X37534206Y276453987D02*
X37534206Y277232118D01*
X46607297Y278396149D02*
X46607297Y276065978D01*
D10*
X89300002Y280294005D02*
X89100521Y280099999D01*
X106501044Y280878108D02*
X107298957Y280101033D01*
X104899477Y280682015D02*
X105298434Y280682015D01*
D12*
X28618726Y276246572D02*
X28618726Y278577796D01*
D11*
X34340377Y277620128D02*
X35138292Y277620128D01*
D10*
X75000000Y282686955D02*
X75598436Y282686955D01*
X98798959Y280100000D02*
X98798959Y281265086D01*
X72598434Y282688011D02*
X72199481Y282688011D01*
D12*
X24029413Y275664558D02*
X24029413Y277995788D01*
D10*
X104814700Y257088462D02*
X104814700Y257865537D01*
X75797915Y282104939D02*
X75199479Y282104939D01*
X56098956Y282470024D02*
X55899478Y282664029D01*
X97400002Y280294005D02*
X97400002Y281071080D01*
X104270138Y257088462D02*
X104270138Y258059543D01*
X104699999Y280488011D02*
X104899476Y280682015D01*
X106700525Y281266119D02*
X106501044Y281072113D01*
X102147701Y258059540D02*
X102945617Y258059540D01*
D11*
X32744545Y276065978D02*
X33542464Y276065978D01*
D10*
X98798959Y281265086D02*
X99197915Y280877075D01*
X98400000Y280100000D02*
X99197915Y280100000D01*
D11*
X36337331Y277620131D02*
X35938375Y277232118D01*
D10*
X55701539Y266974931D02*
X55901018Y266780926D01*
D11*
X41528118Y277232118D02*
X41126993Y277620131D01*
D10*
X56098957Y281692949D02*
X56098957Y282470024D01*
X87302087Y280294007D02*
X87501563Y280100000D01*
X73459907Y266781980D02*
X73858864Y266781980D01*
X96195522Y280682038D02*
X95597085Y280682038D01*
X59566343Y267558003D02*
X59765822Y267363998D01*
X72000000Y282300000D02*
X72797913Y281522925D01*
X40568882Y265080927D02*
X40070445Y265080927D01*
X75797915Y282492950D02*
X75797915Y281522925D01*
X56998800Y266974933D02*
X57198280Y266780926D01*
D13*
G36*
X106143723Y280872877D02*
G01*
X106148283Y280872535D01*
X106152804Y280871971D01*
X106157278Y280871188D01*
X106161699Y280870190D01*
X106166058Y280868978D01*
X106170347Y280867557D01*
X106174560Y280865929D01*
X106178689Y280864097D01*
X106182725Y280862066D01*
X106186662Y280859837D01*
X106190492Y280857415D01*
X106194207Y280854801D01*
X106197800Y280852000D01*
X106201263Y280849014D01*
X106204589Y280845847D01*
X106207756Y280842522D01*
X106210742Y280839058D01*
X106213543Y280835465D01*
X106216157Y280831750D01*
X106218580Y280827920D01*
X106220808Y280823983D01*
X106222840Y280819946D01*
X106224671Y280815818D01*
X106226299Y280811605D01*
X106227721Y280807315D01*
X106228932Y280802956D01*
X106229931Y280798535D01*
X106230714Y280794061D01*
X106231278Y280789540D01*
X106231620Y280784980D01*
X106231736Y280780389D01*
X106231736Y280586361D01*
X106231615Y280581595D01*
X106231258Y280576893D01*
X106230669Y280572258D01*
X106229855Y280567698D01*
X106228821Y280563218D01*
X106227573Y280558824D01*
X106226117Y280554521D01*
X106224459Y280550316D01*
X106222604Y280546214D01*
X106220559Y280542221D01*
X106218329Y280538343D01*
X106215921Y280534585D01*
X106213339Y280530955D01*
X106210590Y280527456D01*
X106207679Y280524096D01*
X106204613Y280520880D01*
X106201397Y280517814D01*
X106198037Y280514903D01*
X106194539Y280512154D01*
X106190908Y280509572D01*
X106187151Y280507164D01*
X106183273Y280504934D01*
X106179280Y280502889D01*
X106175178Y280501034D01*
X106170972Y280499376D01*
X106166670Y280497920D01*
X106162275Y280496672D01*
X106157795Y280495638D01*
X106153235Y280494824D01*
X106148600Y280494235D01*
X106143897Y280493877D01*
X106139132Y280493757D01*
X105939660Y280493757D01*
X105937378Y280493787D01*
X105935100Y280493873D01*
X105932826Y280494014D01*
X105930559Y280494212D01*
X105928298Y280494465D01*
X105926046Y280494774D01*
X105923802Y280495137D01*
X105921568Y280495556D01*
X105919345Y280496029D01*
X105917135Y280496556D01*
X105914937Y280497138D01*
X105912753Y280497774D01*
X105910584Y280498464D01*
X105908431Y280499208D01*
X105906295Y280500005D01*
X105904177Y280500855D01*
X105902083Y280501752D01*
X105900014Y280502698D01*
X105897970Y280503695D01*
X105895953Y280504740D01*
X105893964Y280505834D01*
X105892003Y280506976D01*
X105890071Y280508165D01*
X105888168Y280509401D01*
X105886297Y280510683D01*
X105884458Y280512011D01*
X105882651Y280513384D01*
X105880877Y280514802D01*
X105879138Y280516263D01*
X105877434Y280517768D01*
X105875765Y280519315D01*
X105874134Y280520905D01*
X105872544Y280522537D01*
X105870997Y280524205D01*
X105869492Y280525909D01*
X105868031Y280527648D01*
X105866613Y280529421D01*
X105865240Y280531228D01*
X105863913Y280533067D01*
X105862630Y280534938D01*
X105861394Y280536840D01*
X105860205Y280538772D01*
X105859063Y280540733D01*
X105857970Y280542722D01*
X105856924Y280544739D01*
X105855928Y280546782D01*
X105854981Y280548851D01*
X105854084Y280550945D01*
X105853240Y280553060D01*
X105852449Y280555193D01*
X105851711Y280557342D01*
X105851027Y280559508D01*
X105850396Y280561688D01*
X105849820Y280563882D01*
X105849297Y280566089D01*
X105848828Y280568307D01*
X105848414Y280570537D01*
X105848054Y280572776D01*
X105847750Y280575024D01*
X105847500Y280577280D01*
X105847305Y280579542D01*
X105847166Y280581811D01*
X105847083Y280584084D01*
X105847056Y280586361D01*
X105847056Y280780389D01*
X105847176Y280785154D01*
X105847534Y280789857D01*
X105848123Y280794491D01*
X105848937Y280799051D01*
X105849971Y280803531D01*
X105851219Y280807926D01*
X105852675Y280812229D01*
X105854333Y280816434D01*
X105856188Y280820536D01*
X105858233Y280824529D01*
X105860463Y280828407D01*
X105862871Y280832164D01*
X105865453Y280835795D01*
X105868202Y280839293D01*
X105871113Y280842653D01*
X105874179Y280845869D01*
X105877395Y280848935D01*
X105880755Y280851846D01*
X105884254Y280854595D01*
X105887884Y280857177D01*
X105891642Y280859586D01*
X105895520Y280861816D01*
X105899513Y280863861D01*
X105903615Y280865715D01*
X105907820Y280867373D01*
X105912123Y280868829D01*
X105916517Y280870077D01*
X105920997Y280871111D01*
X105925557Y280871926D01*
X105930192Y280872514D01*
X105934894Y280872872D01*
X105939660Y280872993D01*
X106139132Y280872993D01*
X106143723Y280872877D01*
G37*
G36*
X114402391Y280870008D02*
G01*
X114406951Y280869666D01*
X114411472Y280869102D01*
X114415946Y280868319D01*
X114420367Y280867321D01*
X114424726Y280866109D01*
X114429015Y280864688D01*
X114433228Y280863060D01*
X114437357Y280861228D01*
X114441393Y280859197D01*
X114445330Y280856968D01*
X114449160Y280854546D01*
X114452875Y280851932D01*
X114456468Y280849131D01*
X114459931Y280846145D01*
X114463257Y280842978D01*
X114466424Y280839653D01*
X114469410Y280836189D01*
X114472211Y280832596D01*
X114474825Y280828881D01*
X114477248Y280825051D01*
X114479476Y280821114D01*
X114481508Y280817077D01*
X114483339Y280812949D01*
X114484967Y280808736D01*
X114486389Y280804446D01*
X114487600Y280800087D01*
X114488599Y280795666D01*
X114489382Y280791192D01*
X114489946Y280786671D01*
X114490288Y280782111D01*
X114490404Y280777520D01*
X114490404Y280583492D01*
X114490283Y280578726D01*
X114489926Y280574024D01*
X114489337Y280569389D01*
X114488523Y280564829D01*
X114487489Y280560349D01*
X114486241Y280555955D01*
X114484785Y280551652D01*
X114483127Y280547447D01*
X114481272Y280543345D01*
X114479227Y280539352D01*
X114476997Y280535474D01*
X114474589Y280531716D01*
X114472007Y280528086D01*
X114469258Y280524587D01*
X114466347Y280521227D01*
X114463281Y280518011D01*
X114460065Y280514945D01*
X114456705Y280512034D01*
X114453207Y280509285D01*
X114449576Y280506703D01*
X114445819Y280504295D01*
X114441941Y280502065D01*
X114437948Y280500020D01*
X114433846Y280498165D01*
X114429640Y280496507D01*
X114425338Y280495051D01*
X114420943Y280493803D01*
X114416463Y280492769D01*
X114411903Y280491955D01*
X114407268Y280491366D01*
X114402565Y280491008D01*
X114397800Y280490888D01*
X114198328Y280490888D01*
X114196046Y280490918D01*
X114193768Y280491004D01*
X114191494Y280491145D01*
X114189227Y280491343D01*
X114186966Y280491596D01*
X114184714Y280491905D01*
X114182470Y280492268D01*
X114180236Y280492687D01*
X114178013Y280493160D01*
X114175803Y280493687D01*
X114173605Y280494269D01*
X114171421Y280494905D01*
X114169252Y280495595D01*
X114167099Y280496339D01*
X114164963Y280497136D01*
X114162845Y280497986D01*
X114160751Y280498883D01*
X114158682Y280499829D01*
X114156638Y280500826D01*
X114154621Y280501871D01*
X114152632Y280502965D01*
X114150671Y280504107D01*
X114148739Y280505296D01*
X114146836Y280506532D01*
X114144965Y280507814D01*
X114143126Y280509142D01*
X114141319Y280510515D01*
X114139545Y280511933D01*
X114137806Y280513394D01*
X114136102Y280514899D01*
X114134433Y280516446D01*
X114132802Y280518036D01*
X114131212Y280519668D01*
X114129665Y280521336D01*
X114128160Y280523040D01*
X114126699Y280524779D01*
X114125281Y280526552D01*
X114123908Y280528359D01*
X114122581Y280530198D01*
X114121298Y280532069D01*
X114120062Y280533971D01*
X114118873Y280535903D01*
X114117731Y280537864D01*
X114116638Y280539853D01*
X114115592Y280541870D01*
X114114596Y280543913D01*
X114113649Y280545982D01*
X114112752Y280548076D01*
X114111908Y280550191D01*
X114111117Y280552324D01*
X114110379Y280554473D01*
X114109695Y280556639D01*
X114109064Y280558819D01*
X114108488Y280561013D01*
X114107965Y280563220D01*
X114107496Y280565438D01*
X114107082Y280567668D01*
X114106722Y280569907D01*
X114106418Y280572155D01*
X114106168Y280574411D01*
X114105973Y280576673D01*
X114105834Y280578942D01*
X114105751Y280581215D01*
X114105724Y280583492D01*
X114105724Y280777520D01*
X114105844Y280782285D01*
X114106202Y280786988D01*
X114106791Y280791622D01*
X114107605Y280796182D01*
X114108639Y280800662D01*
X114109887Y280805057D01*
X114111343Y280809360D01*
X114113001Y280813565D01*
X114114856Y280817667D01*
X114116901Y280821660D01*
X114119131Y280825538D01*
X114121539Y280829295D01*
X114124121Y280832926D01*
X114126870Y280836424D01*
X114129781Y280839784D01*
X114132847Y280843000D01*
X114136063Y280846066D01*
X114139423Y280848977D01*
X114142922Y280851726D01*
X114146552Y280854308D01*
X114150310Y280856717D01*
X114154188Y280858947D01*
X114158181Y280860992D01*
X114162283Y280862846D01*
X114166488Y280864504D01*
X114170791Y280865960D01*
X114175185Y280867208D01*
X114179665Y280868242D01*
X114184225Y280869057D01*
X114188860Y280869645D01*
X114193562Y280870003D01*
X114198328Y280870124D01*
X114397800Y280870124D01*
X114402391Y280870008D01*
G37*
D10*
X103699476Y281265088D02*
X103500000Y281071082D01*
X89100519Y280682015D02*
X89299999Y280876020D01*
X63801042Y281500000D02*
X64598957Y282665085D01*
D12*
X26224984Y276246577D02*
X26224984Y277389577D01*
D10*
X8695138Y258058490D02*
X8196702Y258058490D01*
X72761081Y267558001D02*
X72761081Y267752005D01*
X95996043Y281264054D02*
X96195522Y281070049D01*
X107375404Y257476472D02*
X106983321Y256894458D01*
X112495522Y280683072D02*
X111897085Y280683072D01*
D12*
X28020283Y275664553D02*
X28618726Y276246572D01*
D10*
X40568882Y266244959D02*
X40568882Y265080927D01*
D13*
G36*
X89999830Y280870008D02*
G01*
X90004390Y280869666D01*
X90008911Y280869102D01*
X90013385Y280868319D01*
X90017806Y280867321D01*
X90022165Y280866109D01*
X90026454Y280864688D01*
X90030667Y280863060D01*
X90034796Y280861228D01*
X90038832Y280859197D01*
X90042769Y280856968D01*
X90046599Y280854546D01*
X90050314Y280851932D01*
X90053907Y280849131D01*
X90057370Y280846145D01*
X90060696Y280842978D01*
X90063863Y280839653D01*
X90066849Y280836189D01*
X90069650Y280832596D01*
X90072264Y280828881D01*
X90074687Y280825051D01*
X90076915Y280821114D01*
X90078947Y280817077D01*
X90080778Y280812949D01*
X90082406Y280808736D01*
X90083828Y280804446D01*
X90085039Y280800087D01*
X90086038Y280795666D01*
X90086821Y280791192D01*
X90087385Y280786671D01*
X90087727Y280782111D01*
X90087843Y280777520D01*
X90087843Y280583492D01*
X90087722Y280578726D01*
X90087365Y280574024D01*
X90086776Y280569389D01*
X90085962Y280564829D01*
X90084928Y280560349D01*
X90083680Y280555955D01*
X90082224Y280551652D01*
X90080566Y280547447D01*
X90078711Y280543345D01*
X90076666Y280539352D01*
X90074436Y280535474D01*
X90072028Y280531716D01*
X90069446Y280528086D01*
X90066697Y280524587D01*
X90063786Y280521227D01*
X90060720Y280518011D01*
X90057504Y280514945D01*
X90054144Y280512034D01*
X90050646Y280509285D01*
X90047015Y280506703D01*
X90043258Y280504295D01*
X90039380Y280502065D01*
X90035387Y280500020D01*
X90031285Y280498165D01*
X90027079Y280496507D01*
X90022777Y280495051D01*
X90018382Y280493803D01*
X90013902Y280492769D01*
X90009342Y280491955D01*
X90004707Y280491366D01*
X90000004Y280491008D01*
X89995239Y280490888D01*
X89795767Y280490888D01*
X89793485Y280490918D01*
X89791207Y280491004D01*
X89788933Y280491145D01*
X89786666Y280491343D01*
X89784405Y280491596D01*
X89782153Y280491905D01*
X89779909Y280492268D01*
X89777675Y280492687D01*
X89775452Y280493160D01*
X89773242Y280493687D01*
X89771044Y280494269D01*
X89768860Y280494905D01*
X89766691Y280495595D01*
X89764538Y280496339D01*
X89762402Y280497136D01*
X89760284Y280497986D01*
X89758190Y280498883D01*
X89756121Y280499829D01*
X89754077Y280500826D01*
X89752060Y280501871D01*
X89750071Y280502965D01*
X89748110Y280504107D01*
X89746178Y280505296D01*
X89744275Y280506532D01*
X89742404Y280507814D01*
X89740565Y280509142D01*
X89738758Y280510515D01*
X89736984Y280511933D01*
X89735245Y280513394D01*
X89733541Y280514899D01*
X89731872Y280516446D01*
X89730241Y280518036D01*
X89728651Y280519668D01*
X89727104Y280521336D01*
X89725599Y280523040D01*
X89724138Y280524779D01*
X89722720Y280526552D01*
X89721347Y280528359D01*
X89720020Y280530198D01*
X89718737Y280532069D01*
X89717501Y280533971D01*
X89716312Y280535903D01*
X89715170Y280537864D01*
X89714077Y280539853D01*
X89713031Y280541870D01*
X89712035Y280543913D01*
X89711088Y280545982D01*
X89710191Y280548076D01*
X89709347Y280550191D01*
X89708556Y280552324D01*
X89707818Y280554473D01*
X89707134Y280556639D01*
X89706503Y280558819D01*
X89705927Y280561013D01*
X89705404Y280563220D01*
X89704935Y280565438D01*
X89704521Y280567668D01*
X89704161Y280569907D01*
X89703857Y280572155D01*
X89703607Y280574411D01*
X89703412Y280576673D01*
X89703273Y280578942D01*
X89703190Y280581215D01*
X89703163Y280583492D01*
X89703163Y280777520D01*
X89703283Y280782285D01*
X89703641Y280786988D01*
X89704230Y280791622D01*
X89705044Y280796182D01*
X89706078Y280800662D01*
X89707326Y280805057D01*
X89708782Y280809360D01*
X89710440Y280813565D01*
X89712295Y280817667D01*
X89714340Y280821660D01*
X89716570Y280825538D01*
X89718978Y280829295D01*
X89721560Y280832926D01*
X89724309Y280836424D01*
X89727220Y280839784D01*
X89730286Y280843000D01*
X89733502Y280846066D01*
X89736862Y280848977D01*
X89740361Y280851726D01*
X89743991Y280854308D01*
X89747749Y280856717D01*
X89751627Y280858947D01*
X89755620Y280860992D01*
X89759722Y280862846D01*
X89763927Y280864504D01*
X89768230Y280865960D01*
X89772624Y280867208D01*
X89777104Y280868242D01*
X89781664Y280869057D01*
X89786299Y280869645D01*
X89791001Y280870003D01*
X89795767Y280870124D01*
X89995239Y280870124D01*
X89999830Y280870008D01*
G37*
D10*
X41070084Y265468939D02*
X41269562Y265662943D01*
X106501044Y280101033D02*
X107298959Y280101033D01*
X51701042Y282664030D02*
X52299478Y282664030D01*
X111697607Y281265088D02*
X112296043Y281265088D01*
X56499454Y266974931D02*
X56499454Y267752006D01*
X104297914Y280294007D02*
X104297914Y281071082D01*
X115497913Y281071080D02*
X115298434Y281265086D01*
D12*
X21362423Y275664558D02*
X21362423Y279159815D01*
D10*
X54001041Y282080959D02*
X54001041Y281498945D01*
X57796716Y267752008D02*
X57597237Y267946014D01*
X75598436Y282686954D02*
X75797915Y282492949D01*
D12*
X21362423Y279159815D02*
X21960857Y279159815D01*
D10*
X107182799Y257476474D02*
X107781236Y257476474D01*
X105497912Y280876020D02*
X105497912Y281070024D01*
D11*
X37534206Y277232118D02*
X37135247Y277620131D01*
D10*
X8096701Y257476474D02*
X8695138Y257476474D01*
D12*
X26224984Y276246577D02*
X26823418Y275664558D01*
D10*
X55301041Y282080959D02*
X55701084Y282080959D01*
X114700000Y280100000D02*
X115497915Y280100000D01*
X88701563Y280100000D02*
X88502086Y280294005D01*
X41868000Y266050952D02*
X41668520Y266244959D01*
D11*
X42861278Y276842012D02*
X42462320Y276454001D01*
D10*
X3255713Y256894458D02*
X3255713Y258058489D01*
X104814700Y257088462D02*
X105014180Y256894455D01*
X58495539Y267363998D02*
X59093976Y267363998D01*
X41269562Y265080928D02*
X41070084Y265274933D01*
D11*
X40329076Y276065978D02*
X41126993Y276065978D01*
D10*
X73260427Y266975987D02*
X73260427Y267753062D01*
D12*
X16028423Y276828589D02*
X14831547Y276828589D01*
D10*
X114700000Y280877075D02*
X115497913Y280100000D01*
D11*
X40329076Y277620131D02*
X39930120Y277232118D01*
D10*
X96801563Y281264031D02*
X96602086Y281070024D01*
X4722222Y257282469D02*
X5520138Y258059545D01*
X105413137Y258059543D02*
X105014180Y258059543D01*
D11*
X45011467Y276065978D02*
X46099298Y277112129D01*
D13*
G36*
X63504063Y282279120D02*
G01*
X63508623Y282278778D01*
X63513144Y282278214D01*
X63517618Y282277431D01*
X63522039Y282276433D01*
X63526398Y282275221D01*
X63530687Y282273800D01*
X63534900Y282272172D01*
X63539029Y282270340D01*
X63543065Y282268309D01*
X63547002Y282266080D01*
X63550832Y282263658D01*
X63554547Y282261044D01*
X63558140Y282258243D01*
X63561603Y282255257D01*
X63564929Y282252090D01*
X63568096Y282248765D01*
X63571082Y282245301D01*
X63573883Y282241708D01*
X63576497Y282237993D01*
X63578920Y282234163D01*
X63581148Y282230226D01*
X63583180Y282226189D01*
X63585011Y282222061D01*
X63586639Y282217848D01*
X63588061Y282213558D01*
X63589272Y282209199D01*
X63590271Y282204778D01*
X63591054Y282200304D01*
X63591618Y282195783D01*
X63591960Y282191223D01*
X63592076Y282186632D01*
X63592076Y281992604D01*
X63591955Y281987838D01*
X63591598Y281983136D01*
X63591009Y281978501D01*
X63590195Y281973941D01*
X63589161Y281969461D01*
X63587913Y281965067D01*
X63586457Y281960764D01*
X63584799Y281956559D01*
X63582944Y281952457D01*
X63580899Y281948464D01*
X63578669Y281944586D01*
X63576261Y281940828D01*
X63573679Y281937198D01*
X63570930Y281933699D01*
X63568019Y281930339D01*
X63564953Y281927123D01*
X63561737Y281924057D01*
X63558377Y281921146D01*
X63554879Y281918397D01*
X63551248Y281915815D01*
X63547491Y281913407D01*
X63543613Y281911177D01*
X63539620Y281909132D01*
X63535518Y281907277D01*
X63531312Y281905619D01*
X63527010Y281904163D01*
X63522615Y281902915D01*
X63518135Y281901881D01*
X63513575Y281901067D01*
X63508940Y281900478D01*
X63504237Y281900120D01*
X63499472Y281900000D01*
X63300000Y281900000D01*
X63297718Y281900030D01*
X63295440Y281900116D01*
X63293166Y281900257D01*
X63290899Y281900455D01*
X63288638Y281900708D01*
X63286386Y281901017D01*
X63284142Y281901380D01*
X63281908Y281901799D01*
X63279685Y281902272D01*
X63277475Y281902799D01*
X63275277Y281903381D01*
X63273093Y281904017D01*
X63270924Y281904707D01*
X63268771Y281905451D01*
X63266635Y281906248D01*
X63264517Y281907098D01*
X63262423Y281907995D01*
X63260354Y281908941D01*
X63258310Y281909938D01*
X63256293Y281910983D01*
X63254304Y281912077D01*
X63252343Y281913219D01*
X63250411Y281914408D01*
X63248508Y281915644D01*
X63246637Y281916926D01*
X63244798Y281918254D01*
X63242991Y281919627D01*
X63241217Y281921045D01*
X63239478Y281922506D01*
X63237774Y281924011D01*
X63236105Y281925558D01*
X63234474Y281927148D01*
X63232884Y281928780D01*
X63231337Y281930448D01*
X63229832Y281932152D01*
X63228371Y281933891D01*
X63226953Y281935664D01*
X63225580Y281937471D01*
X63224253Y281939310D01*
X63222970Y281941181D01*
X63221734Y281943083D01*
X63220545Y281945015D01*
X63219403Y281946976D01*
X63218310Y281948965D01*
X63217264Y281950982D01*
X63216268Y281953025D01*
X63215321Y281955094D01*
X63214424Y281957188D01*
X63213580Y281959303D01*
X63212789Y281961436D01*
X63212051Y281963585D01*
X63211367Y281965751D01*
X63210736Y281967931D01*
X63210160Y281970125D01*
X63209637Y281972332D01*
X63209168Y281974550D01*
X63208754Y281976780D01*
X63208394Y281979019D01*
X63208090Y281981267D01*
X63207840Y281983523D01*
X63207645Y281985785D01*
X63207506Y281988054D01*
X63207423Y281990327D01*
X63207396Y281992604D01*
X63207396Y282186632D01*
X63207516Y282191397D01*
X63207874Y282196100D01*
X63208463Y282200734D01*
X63209277Y282205294D01*
X63210311Y282209774D01*
X63211559Y282214169D01*
X63213015Y282218472D01*
X63214673Y282222677D01*
X63216528Y282226779D01*
X63218573Y282230772D01*
X63220803Y282234650D01*
X63223211Y282238407D01*
X63225793Y282242038D01*
X63228542Y282245536D01*
X63231453Y282248896D01*
X63234519Y282252112D01*
X63237735Y282255178D01*
X63241095Y282258089D01*
X63244594Y282260838D01*
X63248224Y282263420D01*
X63251982Y282265829D01*
X63255860Y282268059D01*
X63259853Y282270104D01*
X63263955Y282271958D01*
X63268160Y282273616D01*
X63272463Y282275072D01*
X63276857Y282276320D01*
X63281337Y282277354D01*
X63285897Y282278169D01*
X63290532Y282278757D01*
X63295234Y282279115D01*
X63300000Y282279236D01*
X63499472Y282279236D01*
X63504063Y282279120D01*
G37*
D10*
X8695138Y256894458D02*
X8695138Y258058490D01*
X59093976Y266781982D02*
X59093976Y267946014D01*
X87900521Y281265088D02*
X87501563Y281265088D01*
X4722222Y256894458D02*
X4722222Y258059545D01*
X6085405Y256892690D02*
X6477806Y256892690D01*
X57198280Y266780926D02*
X57597237Y266780926D01*
X58296061Y267558003D02*
X58296061Y267652009D01*
X7897223Y257670479D02*
X8096701Y257476474D01*
X7897223Y257670479D02*
X7897223Y257764485D01*
X40070445Y265080928D02*
X39770967Y265374933D01*
D12*
X18041165Y275675481D02*
X19241289Y275675481D01*
D10*
X72000000Y282494005D02*
X72000000Y282300000D01*
D12*
X26224984Y277389577D02*
X27456650Y277389577D01*
D10*
X89299999Y280876020D02*
X89299999Y281070024D01*
X41269562Y266244959D02*
X41070084Y266050952D01*
D12*
X26823418Y279159815D02*
X26224984Y278577796D01*
D10*
X59566343Y267558003D02*
X59566343Y267652009D01*
X113700002Y280295039D02*
X113700002Y281072114D01*
X54798957Y282081487D02*
X54001041Y282080959D01*
X62398959Y281500000D02*
X62398959Y282665086D01*
X72000000Y281522925D02*
X72797915Y281522925D01*
X72761083Y267752005D02*
X72561603Y267946012D01*
D11*
X41126993Y276065975D02*
X41528118Y276453987D01*
X45011467Y278396149D02*
X46607297Y276842000D01*
D10*
X55901018Y266780926D02*
X56299975Y266780926D01*
D13*
G36*
X106423223Y257612776D02*
G01*
X106427783Y257612434D01*
X106432304Y257611870D01*
X106436779Y257611087D01*
X106441199Y257610088D01*
X106445558Y257608877D01*
X106449848Y257607455D01*
X106454060Y257605827D01*
X106458189Y257603996D01*
X106462225Y257601964D01*
X106466162Y257599735D01*
X106469992Y257597312D01*
X106473708Y257594699D01*
X106477301Y257591898D01*
X106480764Y257588912D01*
X106484089Y257585745D01*
X106487256Y257582419D01*
X106490242Y257578956D01*
X106493043Y257575363D01*
X106495657Y257571648D01*
X106498079Y257567818D01*
X106500308Y257563880D01*
X106502340Y257559844D01*
X106504171Y257555715D01*
X106505799Y257551502D01*
X106507220Y257547213D01*
X106508432Y257542854D01*
X106509431Y257538433D01*
X106510214Y257533959D01*
X106510778Y257529438D01*
X106511120Y257524878D01*
X106511236Y257520288D01*
X106511236Y257326258D01*
X106511116Y257321493D01*
X106510758Y257316790D01*
X106510169Y257312156D01*
X106509355Y257307596D01*
X106508321Y257303115D01*
X106507073Y257298721D01*
X106505617Y257294418D01*
X106503959Y257290213D01*
X106502105Y257286111D01*
X106500060Y257282118D01*
X106497830Y257278240D01*
X106495421Y257274483D01*
X106492839Y257270852D01*
X106490090Y257267354D01*
X106487180Y257263994D01*
X106484113Y257260778D01*
X106480897Y257257711D01*
X106477537Y257254801D01*
X106474039Y257252052D01*
X106470408Y257249470D01*
X106466651Y257247061D01*
X106462773Y257244831D01*
X106458780Y257242786D01*
X106454678Y257240932D01*
X106450473Y257239274D01*
X106446170Y257237818D01*
X106441776Y257236570D01*
X106437295Y257235536D01*
X106432735Y257234721D01*
X106428100Y257234132D01*
X106423398Y257233775D01*
X106418632Y257233654D01*
X106219160Y257233654D01*
X106216878Y257233684D01*
X106214600Y257233771D01*
X106212327Y257233913D01*
X106210059Y257234110D01*
X106207799Y257234364D01*
X106205546Y257234672D01*
X106203302Y257235036D01*
X106201068Y257235454D01*
X106198845Y257235927D01*
X106196634Y257236455D01*
X106194436Y257237037D01*
X106192252Y257237673D01*
X106190083Y257238362D01*
X106187930Y257239106D01*
X106185794Y257239903D01*
X106183676Y257240753D01*
X106181582Y257241649D01*
X106179513Y257242596D01*
X106177470Y257243592D01*
X106175453Y257244638D01*
X106173464Y257245732D01*
X106171502Y257246874D01*
X106169571Y257248063D01*
X106167669Y257249299D01*
X106165797Y257250581D01*
X106163958Y257251909D01*
X106162151Y257253282D01*
X106160377Y257254700D01*
X106158638Y257256161D01*
X106156934Y257257666D01*
X106155266Y257259213D01*
X106153634Y257260803D01*
X106152044Y257262434D01*
X106150497Y257264102D01*
X106148992Y257265806D01*
X106147531Y257267546D01*
X106146113Y257269319D01*
X106144741Y257271126D01*
X106143413Y257272965D01*
X106142131Y257274836D01*
X106140895Y257276738D01*
X106139706Y257278670D01*
X106138564Y257280631D01*
X106137470Y257282621D01*
X106136424Y257284637D01*
X106135428Y257286681D01*
X106134481Y257288750D01*
X106133584Y257290844D01*
X106132740Y257292959D01*
X106131949Y257295092D01*
X106131212Y257297242D01*
X106130527Y257299407D01*
X106129897Y257301587D01*
X106129320Y257303781D01*
X106128797Y257305988D01*
X106128328Y257308207D01*
X106127914Y257310436D01*
X106127555Y257312675D01*
X106127250Y257314923D01*
X106127000Y257317179D01*
X106126806Y257319441D01*
X106126667Y257321709D01*
X106126583Y257323982D01*
X106126556Y257326258D01*
X106126556Y257520288D01*
X106126677Y257525053D01*
X106127034Y257529756D01*
X106127623Y257534390D01*
X106128437Y257538951D01*
X106129472Y257543431D01*
X106130719Y257547825D01*
X106132175Y257552128D01*
X106133833Y257556333D01*
X106135688Y257560436D01*
X106137733Y257564428D01*
X106139963Y257568306D01*
X106142372Y257572064D01*
X106144953Y257575694D01*
X106147703Y257579193D01*
X106150613Y257582553D01*
X106153679Y257585769D01*
X106156896Y257588835D01*
X106160256Y257591746D01*
X106163754Y257594495D01*
X106167385Y257597076D01*
X106171142Y257599485D01*
X106175020Y257601715D01*
X106179013Y257603760D01*
X106183115Y257605614D01*
X106187320Y257607272D01*
X106191623Y257608728D01*
X106196017Y257609976D01*
X106200497Y257611010D01*
X106205058Y257611825D01*
X106209692Y257612414D01*
X106214395Y257612771D01*
X106219160Y257612892D01*
X106418632Y257612892D01*
X106423223Y257612776D01*
G37*
D10*
X112902088Y280295039D02*
X113101564Y280101032D01*
X55901018Y267946011D02*
X55701539Y267752006D01*
X65798957Y282470025D02*
X65798957Y281500000D01*
X65001042Y282664030D02*
X65599478Y282664030D01*
X105298432Y280682015D02*
X105497912Y280876020D01*
D11*
X34340383Y276068088D02*
X34739336Y276456096D01*
D10*
X57796716Y266974933D02*
X57796716Y267752008D01*
D11*
X41126993Y277620131D02*
X40329076Y277620131D01*
X33143502Y278396146D02*
X33143502Y278784158D01*
D10*
X72162645Y266781981D02*
X71963167Y266975986D01*
X51701042Y281500000D02*
X52498957Y281500000D01*
X52498957Y282082014D02*
X51900521Y282082014D01*
X52901042Y282664030D02*
X53698958Y282664030D01*
X107781236Y258058490D02*
X107282800Y258058490D01*
X105612616Y257088462D02*
X105612616Y257865537D01*
X55500521Y281498944D02*
X55899478Y281498944D01*
D11*
X43659195Y276842012D02*
X42861278Y276842012D01*
D10*
X63801042Y282665085D02*
X64598957Y281500000D01*
X73858864Y266781980D02*
X74058343Y266975987D01*
X105014180Y256894455D02*
X105413137Y256894455D01*
X72561603Y267946012D02*
X72162645Y267946012D01*
D13*
G36*
X101774466Y257622244D02*
G01*
X101779026Y257621902D01*
X101783547Y257621338D01*
X101788022Y257620555D01*
X101792442Y257619556D01*
X101796801Y257618345D01*
X101801091Y257616923D01*
X101805303Y257615295D01*
X101809432Y257613464D01*
X101813468Y257611432D01*
X101817405Y257609203D01*
X101821235Y257606780D01*
X101824951Y257604167D01*
X101828544Y257601366D01*
X101832007Y257598380D01*
X101835332Y257595213D01*
X101838499Y257591887D01*
X101841485Y257588424D01*
X101844286Y257584831D01*
X101846900Y257581116D01*
X101849322Y257577286D01*
X101851551Y257573348D01*
X101853583Y257569312D01*
X101855414Y257565183D01*
X101857042Y257560970D01*
X101858463Y257556681D01*
X101859675Y257552322D01*
X101860674Y257547901D01*
X101861457Y257543427D01*
X101862021Y257538906D01*
X101862363Y257534346D01*
X101862479Y257529756D01*
X101862479Y257335726D01*
X101862359Y257330961D01*
X101862001Y257326258D01*
X101861412Y257321624D01*
X101860598Y257317064D01*
X101859564Y257312583D01*
X101858316Y257308189D01*
X101856860Y257303886D01*
X101855202Y257299681D01*
X101853348Y257295579D01*
X101851303Y257291586D01*
X101849073Y257287708D01*
X101846664Y257283951D01*
X101844082Y257280320D01*
X101841333Y257276822D01*
X101838423Y257273462D01*
X101835356Y257270246D01*
X101832140Y257267179D01*
X101828780Y257264269D01*
X101825282Y257261520D01*
X101821651Y257258938D01*
X101817894Y257256529D01*
X101814016Y257254299D01*
X101810023Y257252254D01*
X101805921Y257250400D01*
X101801716Y257248742D01*
X101797413Y257247286D01*
X101793019Y257246038D01*
X101788538Y257245004D01*
X101783978Y257244189D01*
X101779343Y257243600D01*
X101774641Y257243243D01*
X101769875Y257243122D01*
X101570403Y257243122D01*
X101568121Y257243152D01*
X101565843Y257243239D01*
X101563570Y257243381D01*
X101561302Y257243578D01*
X101559042Y257243832D01*
X101556789Y257244140D01*
X101554545Y257244504D01*
X101552311Y257244922D01*
X101550088Y257245395D01*
X101547877Y257245923D01*
X101545679Y257246505D01*
X101543495Y257247141D01*
X101541326Y257247830D01*
X101539173Y257248574D01*
X101537037Y257249371D01*
X101534919Y257250221D01*
X101532825Y257251117D01*
X101530756Y257252064D01*
X101528713Y257253060D01*
X101526696Y257254106D01*
X101524707Y257255200D01*
X101522745Y257256342D01*
X101520814Y257257531D01*
X101518912Y257258767D01*
X101517040Y257260049D01*
X101515201Y257261377D01*
X101513394Y257262750D01*
X101511620Y257264168D01*
X101509881Y257265629D01*
X101508177Y257267134D01*
X101506509Y257268681D01*
X101504877Y257270271D01*
X101503287Y257271902D01*
X101501740Y257273570D01*
X101500235Y257275274D01*
X101498774Y257277014D01*
X101497356Y257278787D01*
X101495984Y257280594D01*
X101494656Y257282433D01*
X101493374Y257284304D01*
X101492138Y257286206D01*
X101490949Y257288138D01*
X101489807Y257290099D01*
X101488713Y257292089D01*
X101487667Y257294105D01*
X101486671Y257296149D01*
X101485724Y257298218D01*
X101484827Y257300312D01*
X101483983Y257302427D01*
X101483192Y257304560D01*
X101482455Y257306710D01*
X101481770Y257308875D01*
X101481140Y257311055D01*
X101480563Y257313249D01*
X101480040Y257315456D01*
X101479571Y257317675D01*
X101479157Y257319904D01*
X101478798Y257322143D01*
X101478493Y257324391D01*
X101478243Y257326647D01*
X101478049Y257328909D01*
X101477910Y257331177D01*
X101477826Y257333450D01*
X101477799Y257335726D01*
X101477799Y257529756D01*
X101477920Y257534521D01*
X101478277Y257539224D01*
X101478866Y257543858D01*
X101479680Y257548419D01*
X101480715Y257552899D01*
X101481962Y257557293D01*
X101483418Y257561596D01*
X101485076Y257565801D01*
X101486931Y257569904D01*
X101488976Y257573896D01*
X101491206Y257577774D01*
X101493615Y257581532D01*
X101496196Y257585162D01*
X101498946Y257588661D01*
X101501856Y257592021D01*
X101504922Y257595237D01*
X101508139Y257598303D01*
X101511499Y257601214D01*
X101514997Y257603963D01*
X101518628Y257606544D01*
X101522385Y257608953D01*
X101526263Y257611183D01*
X101530256Y257613228D01*
X101534358Y257615082D01*
X101538563Y257616740D01*
X101542866Y257618196D01*
X101547260Y257619444D01*
X101551740Y257620478D01*
X101556301Y257621293D01*
X101560935Y257621882D01*
X101565638Y257622239D01*
X101570403Y257622360D01*
X101769875Y257622360D01*
X101774466Y257622244D01*
G37*
D10*
X88100001Y280294007D02*
X88100001Y281071082D01*
X41668520Y266244959D02*
X41269562Y266244959D01*
X74566343Y267363998D02*
X75364258Y267363998D01*
X6282138Y256892690D02*
X6282138Y258035521D01*
X104098434Y281265088D02*
X103699476Y281265088D01*
X57597237Y267946014D02*
X57198280Y267946014D01*
X72797913Y282494005D02*
X72598434Y282688011D01*
D11*
X36337331Y276065978D02*
X37135247Y276065978D01*
D10*
X113101563Y281265065D02*
X112902086Y281071058D01*
X105497915Y280294005D02*
X105298434Y280099999D01*
X58595539Y267946014D02*
X58296061Y267652009D01*
D11*
X34739336Y276456096D02*
X34739336Y278398258D01*
D10*
X104070659Y256894455D02*
X104270138Y257088462D01*
D11*
X38332122Y276065978D02*
X39132204Y276065978D01*
D10*
X55899478Y282664029D02*
X55500521Y282664029D01*
X107298957Y281072113D02*
X107099478Y281266119D01*
X113500522Y280101032D02*
X113700002Y280295039D01*
D11*
X42861278Y276065991D02*
X44058152Y276065991D01*
D10*
X72199481Y282688011D02*
X72000000Y282494005D01*
X41070084Y265274933D02*
X41070084Y265468939D01*
X89300002Y281070024D02*
X89100521Y281264031D01*
X41868000Y265274933D02*
X41668520Y265080927D01*
X41668519Y265662943D02*
X41867998Y265856948D01*
X55701538Y267362941D02*
X56101581Y267362941D01*
X71963167Y267169992D02*
X72162645Y267363996D01*
D11*
X42462320Y277618031D02*
X43659195Y277618031D01*
D10*
X88701563Y281264031D02*
X88502086Y281070024D01*
X56499453Y267752006D02*
X56299975Y267946011D01*
X106983321Y257670479D02*
X106983321Y257764485D01*
X100207799Y256894458D02*
X101005713Y256894458D01*
X73800000Y282688010D02*
X74597915Y281522925D01*
X107099478Y281266119D02*
X106700525Y281266119D01*
X105413137Y256894455D02*
X105612616Y257088462D01*
D12*
X28020296Y279159815D02*
X26823418Y279159815D01*
D10*
X103472223Y257088462D02*
X103671701Y256894455D01*
D13*
G36*
X98099830Y280870008D02*
G01*
X98104390Y280869666D01*
X98108911Y280869102D01*
X98113385Y280868319D01*
X98117806Y280867321D01*
X98122165Y280866109D01*
X98126454Y280864688D01*
X98130667Y280863060D01*
X98134796Y280861228D01*
X98138832Y280859197D01*
X98142769Y280856968D01*
X98146599Y280854546D01*
X98150314Y280851932D01*
X98153907Y280849131D01*
X98157370Y280846145D01*
X98160696Y280842978D01*
X98163863Y280839653D01*
X98166849Y280836189D01*
X98169650Y280832596D01*
X98172264Y280828881D01*
X98174687Y280825051D01*
X98176915Y280821114D01*
X98178947Y280817077D01*
X98180778Y280812949D01*
X98182406Y280808736D01*
X98183828Y280804446D01*
X98185039Y280800087D01*
X98186038Y280795666D01*
X98186821Y280791192D01*
X98187385Y280786671D01*
X98187727Y280782111D01*
X98187843Y280777520D01*
X98187843Y280583492D01*
X98187722Y280578726D01*
X98187365Y280574024D01*
X98186776Y280569389D01*
X98185962Y280564829D01*
X98184928Y280560349D01*
X98183680Y280555955D01*
X98182224Y280551652D01*
X98180566Y280547447D01*
X98178711Y280543345D01*
X98176666Y280539352D01*
X98174436Y280535474D01*
X98172028Y280531716D01*
X98169446Y280528086D01*
X98166697Y280524587D01*
X98163786Y280521227D01*
X98160720Y280518011D01*
X98157504Y280514945D01*
X98154144Y280512034D01*
X98150646Y280509285D01*
X98147015Y280506703D01*
X98143258Y280504295D01*
X98139380Y280502065D01*
X98135387Y280500020D01*
X98131285Y280498165D01*
X98127079Y280496507D01*
X98122777Y280495051D01*
X98118382Y280493803D01*
X98113902Y280492769D01*
X98109342Y280491955D01*
X98104707Y280491366D01*
X98100004Y280491008D01*
X98095239Y280490888D01*
X97895767Y280490888D01*
X97893485Y280490918D01*
X97891207Y280491004D01*
X97888933Y280491145D01*
X97886666Y280491343D01*
X97884405Y280491596D01*
X97882153Y280491905D01*
X97879909Y280492268D01*
X97877675Y280492687D01*
X97875452Y280493160D01*
X97873242Y280493687D01*
X97871044Y280494269D01*
X97868860Y280494905D01*
X97866691Y280495595D01*
X97864538Y280496339D01*
X97862402Y280497136D01*
X97860284Y280497986D01*
X97858190Y280498883D01*
X97856121Y280499829D01*
X97854077Y280500826D01*
X97852060Y280501871D01*
X97850071Y280502965D01*
X97848110Y280504107D01*
X97846178Y280505296D01*
X97844275Y280506532D01*
X97842404Y280507814D01*
X97840565Y280509142D01*
X97838758Y280510515D01*
X97836984Y280511933D01*
X97835245Y280513394D01*
X97833541Y280514899D01*
X97831872Y280516446D01*
X97830241Y280518036D01*
X97828651Y280519668D01*
X97827104Y280521336D01*
X97825599Y280523040D01*
X97824138Y280524779D01*
X97822720Y280526552D01*
X97821347Y280528359D01*
X97820020Y280530198D01*
X97818737Y280532069D01*
X97817501Y280533971D01*
X97816312Y280535903D01*
X97815170Y280537864D01*
X97814077Y280539853D01*
X97813031Y280541870D01*
X97812035Y280543913D01*
X97811088Y280545982D01*
X97810191Y280548076D01*
X97809347Y280550191D01*
X97808556Y280552324D01*
X97807818Y280554473D01*
X97807134Y280556639D01*
X97806503Y280558819D01*
X97805927Y280561013D01*
X97805404Y280563220D01*
X97804935Y280565438D01*
X97804521Y280567668D01*
X97804161Y280569907D01*
X97803857Y280572155D01*
X97803607Y280574411D01*
X97803412Y280576673D01*
X97803273Y280578942D01*
X97803190Y280581215D01*
X97803163Y280583492D01*
X97803163Y280777520D01*
X97803283Y280782285D01*
X97803641Y280786988D01*
X97804230Y280791622D01*
X97805044Y280796182D01*
X97806078Y280800662D01*
X97807326Y280805057D01*
X97808782Y280809360D01*
X97810440Y280813565D01*
X97812295Y280817667D01*
X97814340Y280821660D01*
X97816570Y280825538D01*
X97818978Y280829295D01*
X97821560Y280832926D01*
X97824309Y280836424D01*
X97827220Y280839784D01*
X97830286Y280843000D01*
X97833502Y280846066D01*
X97836862Y280848977D01*
X97840361Y280851726D01*
X97843991Y280854308D01*
X97847749Y280856717D01*
X97851627Y280858947D01*
X97855620Y280860992D01*
X97859722Y280862846D01*
X97863927Y280864504D01*
X97868230Y280865960D01*
X97872624Y280867208D01*
X97877104Y280868242D01*
X97881664Y280869057D01*
X97886299Y280869645D01*
X97891001Y280870003D01*
X97895767Y280870124D01*
X98095239Y280870124D01*
X98099830Y280870008D01*
G37*
D10*
X73800000Y281522925D02*
X74597915Y282688010D01*
X55301042Y281692949D02*
X55301042Y282080959D01*
X41867998Y265856948D02*
X41867998Y266050952D01*
X6085405Y258060257D02*
X6477806Y258060257D01*
X97200522Y280099998D02*
X97400002Y280294005D01*
X88502086Y280488011D02*
X88701563Y280682015D01*
X2457799Y256894458D02*
X3255713Y256894458D01*
X104098434Y280100000D02*
X104297914Y280294007D01*
X106983321Y257670479D02*
X107182799Y257476474D01*
X8196701Y258058490D02*
X7897223Y257764485D01*
X65798957Y282082014D02*
X65200521Y282082014D01*
D12*
X14233110Y276246570D02*
X14831547Y275664558D01*
D10*
X60364258Y267946014D02*
X59865822Y267946014D01*
X112296043Y281265088D02*
X112495522Y281071083D01*
X72162645Y267946012D02*
X71963167Y267752005D01*
X56998800Y266974933D02*
X56998800Y267752008D01*
X102546659Y258059540D02*
X102546659Y256894455D01*
X89100521Y280099999D02*
X88701563Y280099999D01*
X105612616Y257865537D02*
X105413137Y258059543D01*
X62398959Y282665086D02*
X62797915Y282277075D01*
X53300000Y282664030D02*
X53300000Y281498945D01*
X56299976Y266780926D02*
X56499454Y266974931D01*
X90701044Y281265085D02*
X91100000Y280877074D01*
D12*
X14831547Y276828589D02*
X14233110Y276246570D01*
D10*
X59093976Y267946014D02*
X58595540Y267946014D01*
X96602088Y280294005D02*
X96602088Y281071080D01*
X59765822Y267363998D02*
X60364258Y267363998D01*
X97400000Y281071080D02*
X97200522Y281265086D01*
X104297912Y281071082D02*
X104098434Y281265088D01*
X58296061Y267558003D02*
X58495539Y267363998D01*
X113101564Y280101032D02*
X113500522Y280101032D01*
D11*
X39930120Y276453990D02*
X40329076Y276065978D01*
D12*
X20760733Y275664558D02*
X21960857Y275664558D01*
D10*
X105298434Y280099999D02*
X104899476Y280099999D01*
D13*
G36*
X4024466Y257622244D02*
G01*
X4029026Y257621902D01*
X4033547Y257621338D01*
X4038022Y257620555D01*
X4042442Y257619556D01*
X4046801Y257618345D01*
X4051091Y257616923D01*
X4055303Y257615295D01*
X4059432Y257613464D01*
X4063468Y257611432D01*
X4067405Y257609203D01*
X4071235Y257606780D01*
X4074951Y257604167D01*
X4078544Y257601366D01*
X4082007Y257598380D01*
X4085332Y257595213D01*
X4088499Y257591887D01*
X4091485Y257588424D01*
X4094286Y257584831D01*
X4096900Y257581116D01*
X4099322Y257577286D01*
X4101551Y257573348D01*
X4103583Y257569312D01*
X4105414Y257565183D01*
X4107042Y257560970D01*
X4108463Y257556681D01*
X4109675Y257552322D01*
X4110674Y257547901D01*
X4111457Y257543427D01*
X4112021Y257538906D01*
X4112363Y257534346D01*
X4112479Y257529756D01*
X4112479Y257335726D01*
X4112359Y257330961D01*
X4112001Y257326258D01*
X4111412Y257321624D01*
X4110598Y257317064D01*
X4109564Y257312583D01*
X4108316Y257308189D01*
X4106860Y257303886D01*
X4105202Y257299681D01*
X4103348Y257295579D01*
X4101303Y257291586D01*
X4099073Y257287708D01*
X4096664Y257283951D01*
X4094082Y257280320D01*
X4091333Y257276822D01*
X4088423Y257273462D01*
X4085356Y257270246D01*
X4082140Y257267179D01*
X4078780Y257264269D01*
X4075282Y257261520D01*
X4071651Y257258938D01*
X4067894Y257256529D01*
X4064016Y257254299D01*
X4060023Y257252254D01*
X4055921Y257250400D01*
X4051716Y257248742D01*
X4047413Y257247286D01*
X4043019Y257246038D01*
X4038538Y257245004D01*
X4033978Y257244189D01*
X4029343Y257243600D01*
X4024641Y257243243D01*
X4019875Y257243122D01*
X3820403Y257243122D01*
X3818121Y257243152D01*
X3815843Y257243239D01*
X3813570Y257243381D01*
X3811302Y257243578D01*
X3809042Y257243832D01*
X3806789Y257244140D01*
X3804545Y257244504D01*
X3802311Y257244922D01*
X3800088Y257245395D01*
X3797877Y257245923D01*
X3795679Y257246505D01*
X3793495Y257247141D01*
X3791326Y257247830D01*
X3789173Y257248574D01*
X3787037Y257249371D01*
X3784919Y257250221D01*
X3782825Y257251117D01*
X3780756Y257252064D01*
X3778713Y257253060D01*
X3776696Y257254106D01*
X3774707Y257255200D01*
X3772745Y257256342D01*
X3770814Y257257531D01*
X3768912Y257258767D01*
X3767040Y257260049D01*
X3765201Y257261377D01*
X3763394Y257262750D01*
X3761620Y257264168D01*
X3759881Y257265629D01*
X3758177Y257267134D01*
X3756509Y257268681D01*
X3754877Y257270271D01*
X3753287Y257271902D01*
X3751740Y257273570D01*
X3750235Y257275274D01*
X3748774Y257277014D01*
X3747356Y257278787D01*
X3745984Y257280594D01*
X3744656Y257282433D01*
X3743374Y257284304D01*
X3742138Y257286206D01*
X3740949Y257288138D01*
X3739807Y257290099D01*
X3738713Y257292089D01*
X3737667Y257294105D01*
X3736671Y257296149D01*
X3735724Y257298218D01*
X3734827Y257300312D01*
X3733983Y257302427D01*
X3733192Y257304560D01*
X3732455Y257306710D01*
X3731770Y257308875D01*
X3731140Y257311055D01*
X3730563Y257313249D01*
X3730040Y257315456D01*
X3729571Y257317675D01*
X3729157Y257319904D01*
X3728798Y257322143D01*
X3728493Y257324391D01*
X3728243Y257326647D01*
X3728049Y257328909D01*
X3727910Y257331177D01*
X3727826Y257333450D01*
X3727799Y257335726D01*
X3727799Y257529756D01*
X3727920Y257534521D01*
X3728277Y257539224D01*
X3728866Y257543858D01*
X3729680Y257548419D01*
X3730715Y257552899D01*
X3731962Y257557293D01*
X3733418Y257561596D01*
X3735076Y257565801D01*
X3736931Y257569904D01*
X3738976Y257573896D01*
X3741206Y257577774D01*
X3743615Y257581532D01*
X3746196Y257585162D01*
X3748946Y257588661D01*
X3751856Y257592021D01*
X3754922Y257595237D01*
X3758139Y257598303D01*
X3761499Y257601214D01*
X3764997Y257603963D01*
X3768628Y257606544D01*
X3772385Y257608953D01*
X3776263Y257611183D01*
X3780256Y257613228D01*
X3784358Y257615082D01*
X3788563Y257616740D01*
X3792866Y257618196D01*
X3797260Y257619444D01*
X3801740Y257620478D01*
X3806301Y257621293D01*
X3810935Y257621882D01*
X3815638Y257622239D01*
X3820403Y257622360D01*
X4019875Y257622360D01*
X4024466Y257622244D01*
G37*
D10*
X95397607Y281264054D02*
X95996043Y281264054D01*
X55899479Y281498944D02*
X56098957Y281692949D01*
X112495522Y281071083D02*
X112495522Y280101058D01*
X54798957Y282081487D02*
X54798957Y281499473D01*
X87900521Y280100000D02*
X88100001Y280294007D01*
X73858864Y267947068D02*
X73459907Y267947068D01*
X8289306Y257476472D02*
X7897223Y256894458D01*
X105014180Y258059543D02*
X104814700Y257865537D01*
D11*
X38733248Y278396149D02*
X39132204Y278396149D01*
D10*
X72561603Y266781980D02*
X72162645Y266781980D01*
D11*
X39930120Y277232118D02*
X39930120Y276453987D01*
D12*
X16626857Y277410604D02*
X16028423Y276828589D01*
X18642855Y275675481D02*
X18642855Y279170738D01*
D10*
X73260427Y266975987D02*
X73459907Y266781980D01*
D12*
X24029418Y277995788D02*
X24627857Y277995788D01*
D10*
X41668520Y265080927D02*
X41269562Y265080927D01*
X54400000Y282664030D02*
X54798957Y282081487D01*
X96801564Y280099998D02*
X97200522Y280099998D01*
D13*
G36*
X7337125Y257612776D02*
G01*
X7341685Y257612434D01*
X7346206Y257611870D01*
X7350681Y257611087D01*
X7355101Y257610088D01*
X7359460Y257608877D01*
X7363750Y257607455D01*
X7367962Y257605827D01*
X7372091Y257603996D01*
X7376127Y257601964D01*
X7380064Y257599735D01*
X7383894Y257597312D01*
X7387610Y257594699D01*
X7391203Y257591898D01*
X7394666Y257588912D01*
X7397991Y257585745D01*
X7401158Y257582419D01*
X7404144Y257578956D01*
X7406945Y257575363D01*
X7409559Y257571648D01*
X7411981Y257567818D01*
X7414210Y257563880D01*
X7416242Y257559844D01*
X7418073Y257555715D01*
X7419701Y257551502D01*
X7421122Y257547213D01*
X7422334Y257542854D01*
X7423333Y257538433D01*
X7424116Y257533959D01*
X7424680Y257529438D01*
X7425022Y257524878D01*
X7425138Y257520288D01*
X7425138Y257326258D01*
X7425018Y257321493D01*
X7424660Y257316790D01*
X7424071Y257312156D01*
X7423257Y257307596D01*
X7422223Y257303115D01*
X7420975Y257298721D01*
X7419519Y257294418D01*
X7417861Y257290213D01*
X7416007Y257286111D01*
X7413962Y257282118D01*
X7411732Y257278240D01*
X7409323Y257274483D01*
X7406741Y257270852D01*
X7403992Y257267354D01*
X7401082Y257263994D01*
X7398015Y257260778D01*
X7394799Y257257711D01*
X7391439Y257254801D01*
X7387941Y257252052D01*
X7384310Y257249470D01*
X7380553Y257247061D01*
X7376675Y257244831D01*
X7372682Y257242786D01*
X7368580Y257240932D01*
X7364375Y257239274D01*
X7360072Y257237818D01*
X7355678Y257236570D01*
X7351197Y257235536D01*
X7346637Y257234721D01*
X7342002Y257234132D01*
X7337300Y257233775D01*
X7332534Y257233654D01*
X7133062Y257233654D01*
X7130780Y257233684D01*
X7128502Y257233771D01*
X7126229Y257233913D01*
X7123961Y257234110D01*
X7121701Y257234364D01*
X7119448Y257234672D01*
X7117204Y257235036D01*
X7114970Y257235454D01*
X7112747Y257235927D01*
X7110536Y257236455D01*
X7108338Y257237037D01*
X7106154Y257237673D01*
X7103985Y257238362D01*
X7101832Y257239106D01*
X7099696Y257239903D01*
X7097578Y257240753D01*
X7095484Y257241649D01*
X7093415Y257242596D01*
X7091372Y257243592D01*
X7089355Y257244638D01*
X7087366Y257245732D01*
X7085404Y257246874D01*
X7083473Y257248063D01*
X7081571Y257249299D01*
X7079699Y257250581D01*
X7077860Y257251909D01*
X7076053Y257253282D01*
X7074279Y257254700D01*
X7072540Y257256161D01*
X7070836Y257257666D01*
X7069168Y257259213D01*
X7067536Y257260803D01*
X7065946Y257262434D01*
X7064399Y257264102D01*
X7062894Y257265806D01*
X7061433Y257267546D01*
X7060015Y257269319D01*
X7058643Y257271126D01*
X7057315Y257272965D01*
X7056033Y257274836D01*
X7054797Y257276738D01*
X7053608Y257278670D01*
X7052466Y257280631D01*
X7051372Y257282621D01*
X7050326Y257284637D01*
X7049330Y257286681D01*
X7048383Y257288750D01*
X7047486Y257290844D01*
X7046642Y257292959D01*
X7045851Y257295092D01*
X7045114Y257297242D01*
X7044429Y257299407D01*
X7043799Y257301587D01*
X7043222Y257303781D01*
X7042699Y257305988D01*
X7042230Y257308207D01*
X7041816Y257310436D01*
X7041457Y257312675D01*
X7041152Y257314923D01*
X7040902Y257317179D01*
X7040708Y257319441D01*
X7040569Y257321709D01*
X7040485Y257323982D01*
X7040458Y257326258D01*
X7040458Y257520288D01*
X7040579Y257525053D01*
X7040936Y257529756D01*
X7041525Y257534390D01*
X7042339Y257538951D01*
X7043374Y257543431D01*
X7044621Y257547825D01*
X7046077Y257552128D01*
X7047735Y257556333D01*
X7049590Y257560436D01*
X7051635Y257564428D01*
X7053865Y257568306D01*
X7056274Y257572064D01*
X7058855Y257575694D01*
X7061605Y257579193D01*
X7064515Y257582553D01*
X7067581Y257585769D01*
X7070798Y257588835D01*
X7074158Y257591746D01*
X7077656Y257594495D01*
X7081287Y257597076D01*
X7085044Y257599485D01*
X7088922Y257601715D01*
X7092915Y257603760D01*
X7097017Y257605614D01*
X7101222Y257607272D01*
X7105525Y257608728D01*
X7109919Y257609976D01*
X7114399Y257611010D01*
X7118960Y257611825D01*
X7123594Y257612414D01*
X7128297Y257612771D01*
X7133062Y257612892D01*
X7332534Y257612892D01*
X7337125Y257612776D01*
G37*
D10*
X114899481Y281265086D02*
X114700000Y281071080D01*
X55301042Y281692949D02*
X55500521Y281498944D01*
X5520138Y258059543D02*
X5520138Y256894458D01*
X71137343Y267947065D02*
X71137343Y266781980D01*
X41269564Y265662943D02*
X41668520Y265662943D01*
X72561602Y267363996D02*
X72761081Y267558001D01*
D12*
X14233110Y277992617D02*
X16028423Y277992617D01*
D10*
X40568882Y266244959D02*
X40070445Y266244959D01*
X114700000Y281071080D02*
X114700000Y280877075D01*
X65599478Y282664029D02*
X65798957Y282470024D01*
D11*
X33143505Y277620131D02*
X33542464Y277620131D01*
D10*
X90701044Y280099999D02*
X90701044Y281265085D01*
D12*
X28618731Y278577796D02*
X28020296Y279159815D01*
D10*
X112902088Y280295039D02*
X112902088Y281072114D01*
X107781236Y256894458D02*
X107781236Y258058490D01*
D11*
X42462320Y276454001D02*
X42861278Y276065991D01*
D14*
X-22680869Y275784600D02*
X-23595154Y275784600D01*
X-23138012Y275327457D02*
X-23138012Y276241742D01*
X-16680869Y275784600D02*
X-17595154Y275784600D01*
D15*
X343263658Y-481742D02*
X343263658Y-1338885D01*
X343263658Y-1338885D02*
X343320801Y-1510314D01*
X343320801Y-1510314D02*
X343435087Y-1624600D01*
X343435087Y-1624600D02*
X343606515Y-1681742D01*
X343606515Y-1681742D02*
X343720801Y-1681742D01*
X342120801Y-1681742D02*
X342692229Y-1681742D01*
X342692229Y-1681742D02*
X342692229Y-481742D01*
X341035086Y-1567457D02*
X341092229Y-1624600D01*
X341092229Y-1624600D02*
X341263657Y-1681742D01*
X341263657Y-1681742D02*
X341377943Y-1681742D01*
X341377943Y-1681742D02*
X341549372Y-1624600D01*
X341549372Y-1624600D02*
X341663657Y-1510314D01*
X341663657Y-1510314D02*
X341720800Y-1396028D01*
X341720800Y-1396028D02*
X341777943Y-1167457D01*
X341777943Y-1167457D02*
X341777943Y-996028D01*
X341777943Y-996028D02*
X341720800Y-767457D01*
X341720800Y-767457D02*
X341663657Y-653171D01*
X341663657Y-653171D02*
X341549372Y-538885D01*
X341549372Y-538885D02*
X341377943Y-481742D01*
X341377943Y-481742D02*
X341263657Y-481742D01*
X341263657Y-481742D02*
X341092229Y-538885D01*
X341092229Y-538885D02*
X341035086Y-596028D01*
X340177943Y-481742D02*
X340177943Y-1338885D01*
X340177943Y-1338885D02*
X340235086Y-1510314D01*
X340235086Y-1510314D02*
X340349372Y-1624600D01*
X340349372Y-1624600D02*
X340520800Y-1681742D01*
X340520800Y-1681742D02*
X340635086Y-1681742D01*
X339035086Y-1681742D02*
X339606514Y-1681742D01*
X339606514Y-1681742D02*
X339606514Y-481742D01*
X337949371Y-1567457D02*
X338006514Y-1624600D01*
X338006514Y-1624600D02*
X338177942Y-1681742D01*
X338177942Y-1681742D02*
X338292228Y-1681742D01*
X338292228Y-1681742D02*
X338463657Y-1624600D01*
X338463657Y-1624600D02*
X338577942Y-1510314D01*
X338577942Y-1510314D02*
X338635085Y-1396028D01*
X338635085Y-1396028D02*
X338692228Y-1167457D01*
X338692228Y-1167457D02*
X338692228Y-996028D01*
X338692228Y-996028D02*
X338635085Y-767457D01*
X338635085Y-767457D02*
X338577942Y-653171D01*
X338577942Y-653171D02*
X338463657Y-538885D01*
X338463657Y-538885D02*
X338292228Y-481742D01*
X338292228Y-481742D02*
X338177942Y-481742D01*
X338177942Y-481742D02*
X338006514Y-538885D01*
X338006514Y-538885D02*
X337949371Y-596028D01*
X337092228Y-481742D02*
X337092228Y-1338885D01*
X337092228Y-1338885D02*
X337149371Y-1510314D01*
X337149371Y-1510314D02*
X337263657Y-1624600D01*
X337263657Y-1624600D02*
X337435085Y-1681742D01*
X337435085Y-1681742D02*
X337549371Y-1681742D01*
X335949371Y-1681742D02*
X336520799Y-1681742D01*
X336520799Y-1681742D02*
X336520799Y-481742D01*
X334863656Y-1567457D02*
X334920799Y-1624600D01*
X334920799Y-1624600D02*
X335092227Y-1681742D01*
X335092227Y-1681742D02*
X335206513Y-1681742D01*
X335206513Y-1681742D02*
X335377942Y-1624600D01*
X335377942Y-1624600D02*
X335492227Y-1510314D01*
X335492227Y-1510314D02*
X335549370Y-1396028D01*
X335549370Y-1396028D02*
X335606513Y-1167457D01*
X335606513Y-1167457D02*
X335606513Y-996028D01*
X335606513Y-996028D02*
X335549370Y-767457D01*
X335549370Y-767457D02*
X335492227Y-653171D01*
X335492227Y-653171D02*
X335377942Y-538885D01*
X335377942Y-538885D02*
X335206513Y-481742D01*
X335206513Y-481742D02*
X335092227Y-481742D01*
X335092227Y-481742D02*
X334920799Y-538885D01*
X334920799Y-538885D02*
X334863656Y-596028D01*
X334006513Y-481742D02*
X334006513Y-1338885D01*
X334006513Y-1338885D02*
X334063656Y-1510314D01*
X334063656Y-1510314D02*
X334177942Y-1624600D01*
X334177942Y-1624600D02*
X334349370Y-1681742D01*
X334349370Y-1681742D02*
X334463656Y-1681742D01*
X332863656Y-1681742D02*
X333435084Y-1681742D01*
X333435084Y-1681742D02*
X333435084Y-481742D01*
X331777941Y-1567457D02*
X331835084Y-1624600D01*
X331835084Y-1624600D02*
X332006512Y-1681742D01*
X332006512Y-1681742D02*
X332120798Y-1681742D01*
X332120798Y-1681742D02*
X332292227Y-1624600D01*
X332292227Y-1624600D02*
X332406512Y-1510314D01*
X332406512Y-1510314D02*
X332463655Y-1396028D01*
X332463655Y-1396028D02*
X332520798Y-1167457D01*
X332520798Y-1167457D02*
X332520798Y-996028D01*
X332520798Y-996028D02*
X332463655Y-767457D01*
X332463655Y-767457D02*
X332406512Y-653171D01*
X332406512Y-653171D02*
X332292227Y-538885D01*
X332292227Y-538885D02*
X332120798Y-481742D01*
X332120798Y-481742D02*
X332006512Y-481742D01*
X332006512Y-481742D02*
X331835084Y-538885D01*
X331835084Y-538885D02*
X331777941Y-596028D01*
X339433285Y-4951742D02*
X339147571Y-5751742D01*
X339147571Y-5751742D02*
X338861856Y-4951742D01*
X338176142Y-4551742D02*
X338061856Y-4551742D01*
X338061856Y-4551742D02*
X337947570Y-4608885D01*
X337947570Y-4608885D02*
X337890428Y-4666028D01*
X337890428Y-4666028D02*
X337833285Y-4780314D01*
X337833285Y-4780314D02*
X337776142Y-5008885D01*
X337776142Y-5008885D02*
X337776142Y-5294600D01*
X337776142Y-5294600D02*
X337833285Y-5523171D01*
X337833285Y-5523171D02*
X337890428Y-5637457D01*
X337890428Y-5637457D02*
X337947570Y-5694600D01*
X337947570Y-5694600D02*
X338061856Y-5751742D01*
X338061856Y-5751742D02*
X338176142Y-5751742D01*
X338176142Y-5751742D02*
X338290428Y-5694600D01*
X338290428Y-5694600D02*
X338347570Y-5637457D01*
X338347570Y-5637457D02*
X338404713Y-5523171D01*
X338404713Y-5523171D02*
X338461856Y-5294600D01*
X338461856Y-5294600D02*
X338461856Y-5008885D01*
X338461856Y-5008885D02*
X338404713Y-4780314D01*
X338404713Y-4780314D02*
X338347570Y-4666028D01*
X338347570Y-4666028D02*
X338290428Y-4608885D01*
X338290428Y-4608885D02*
X338176142Y-4551742D01*
X337261856Y-5637457D02*
X337204713Y-5694600D01*
X337204713Y-5694600D02*
X337261856Y-5751742D01*
X337261856Y-5751742D02*
X337318999Y-5694600D01*
X337318999Y-5694600D02*
X337261856Y-5637457D01*
X337261856Y-5637457D02*
X337261856Y-5751742D01*
X336176142Y-4551742D02*
X336404713Y-4551742D01*
X336404713Y-4551742D02*
X336518999Y-4608885D01*
X336518999Y-4608885D02*
X336576142Y-4666028D01*
X336576142Y-4666028D02*
X336690427Y-4837457D01*
X336690427Y-4837457D02*
X336747570Y-5066028D01*
X336747570Y-5066028D02*
X336747570Y-5523171D01*
X336747570Y-5523171D02*
X336690427Y-5637457D01*
X336690427Y-5637457D02*
X336633284Y-5694600D01*
X336633284Y-5694600D02*
X336518999Y-5751742D01*
X336518999Y-5751742D02*
X336290427Y-5751742D01*
X336290427Y-5751742D02*
X336176142Y-5694600D01*
X336176142Y-5694600D02*
X336118999Y-5637457D01*
X336118999Y-5637457D02*
X336061856Y-5523171D01*
X336061856Y-5523171D02*
X336061856Y-5237457D01*
X336061856Y-5237457D02*
X336118999Y-5123171D01*
X336118999Y-5123171D02*
X336176142Y-5066028D01*
X336176142Y-5066028D02*
X336290427Y-5008885D01*
X336290427Y-5008885D02*
X336518999Y-5008885D01*
X336518999Y-5008885D02*
X336633284Y-5066028D01*
X336633284Y-5066028D02*
X336690427Y-5123171D01*
X336690427Y-5123171D02*
X336747570Y-5237457D01*
D16*
%TO.C,REF\u002A\u002A*%
X-22138011Y275767000D02*
X-20138011Y275767000D01*
X-19038011Y275767000D02*
X-18138011Y275767000D01*
X-20813011Y276517000D02*
G75*
G02*
X-20888011Y275092000I675000J-750000D01*
G01*
X-22213011Y275767000D02*
G75*
G02*
X-24063011Y275767000I-925000J0D01*
G01*
X-24063011Y275767000D02*
G75*
G02*
X-22213011Y275767000I925000J0D01*
G01*
D11*
X-19963011Y275767000D02*
G75*
G02*
X-20313011Y275767000I-175000J0D01*
G01*
X-20313011Y275767000D02*
G75*
G02*
X-19963011Y275767000I175000J0D01*
G01*
D16*
X-16213011Y275767000D02*
G75*
G02*
X-18063011Y275767000I-925000J0D01*
G01*
X-18063011Y275767000D02*
G75*
G02*
X-16213011Y275767000I925000J0D01*
G01*
%TD*%
%LPC*%
G36*
X357697800Y29242000D02*
G01*
X359697800Y29242000D01*
X359697800Y28242000D01*
X357697800Y28242000D01*
X357697800Y29242000D01*
G37*
G36*
X412697800Y29242000D02*
G01*
X414697800Y29242000D01*
X414697800Y28242000D01*
X412697800Y28242000D01*
X412697800Y29242000D01*
G37*
G36*
X274997800Y-33058000D02*
G01*
X275997800Y-33058000D01*
X275997800Y-35058000D01*
X274997800Y-35058000D01*
X274997800Y-33058000D01*
G37*
G36*
X340297800Y-61758000D02*
G01*
X342297800Y-61758000D01*
X342297800Y-62758000D01*
X340297800Y-62758000D01*
X340297800Y-61758000D01*
G37*
G36*
X423997800Y-50458000D02*
G01*
X424997800Y-50458000D01*
X424997800Y-52458000D01*
X423997800Y-52458000D01*
X423997800Y-50458000D01*
G37*
G36*
X302697800Y29242000D02*
G01*
X304697800Y29242000D01*
X304697800Y28242000D01*
X302697800Y28242000D01*
X302697800Y29242000D01*
G37*
G36*
X423997800Y1542000D02*
G01*
X424997800Y1542000D01*
X424997800Y-458000D01*
X423997800Y-458000D01*
X423997800Y1542000D01*
G37*
G36*
X274997800Y18942000D02*
G01*
X275997800Y18942000D01*
X275997800Y16942000D01*
X274997800Y16942000D01*
X274997800Y18942000D01*
G37*
G36*
X285297800Y-61758000D02*
G01*
X287297800Y-61758000D01*
X287297800Y-62758000D01*
X285297800Y-62758000D01*
X285297800Y-61758000D01*
G37*
G36*
X395297800Y-61758000D02*
G01*
X397297800Y-61758000D01*
X397297800Y-62758000D01*
X395297800Y-62758000D01*
X395297800Y-61758000D01*
G37*
D17*
%TO.C,REF\u002A\u002A10*%
X72997800Y158742000D03*
%TD*%
%TO.C,REF\u002A\u002A5*%
X76997800Y154742000D03*
%TD*%
%TO.C,REF\u002A\u002A2*%
X72997800Y150742000D03*
%TD*%
%TO.C,REF\u002A\u002A13*%
X76997800Y162742000D03*
%TD*%
%TO.C,REF\u002A\u002A9*%
X76997800Y158742000D03*
%TD*%
D18*
%TO.C,*%
X-21002200Y202742000D03*
%TD*%
%TO.C,*%
X120997800Y202742000D03*
%TD*%
D17*
%TO.C,REF\u002A\u002A12*%
X80997800Y162742000D03*
%TD*%
%TO.C,*%
X-76602200Y183242000D03*
%TD*%
%TO.C,REF\u002A\u002A7*%
X68997800Y154742000D03*
%TD*%
%TO.C,REF\u002A\u002A1*%
X76997800Y150742000D03*
%TD*%
%TO.C,*%
X-72602200Y183242000D03*
%TD*%
%TO.C,REF\u002A\u002A15*%
X68997800Y162742000D03*
%TD*%
%TO.C,REF\u002A\u002A3*%
X68997800Y150742000D03*
%TD*%
D18*
%TO.C,*%
X-21002200Y140742000D03*
%TD*%
D17*
%TO.C,REF\u002A\u002A14*%
X72997800Y162742000D03*
%TD*%
%TO.C,*%
X-68602200Y187242000D03*
%TD*%
%TO.C,REF\u002A\u002A*%
X80997800Y150742000D03*
%TD*%
%TO.C,REF\u002A\u002A11*%
X68997800Y158742000D03*
%TD*%
D18*
%TO.C,*%
X120997800Y140742000D03*
%TD*%
D17*
%TO.C,*%
X-72602200Y187242000D03*
%TD*%
%TO.C,*%
X-68602200Y179242000D03*
%TD*%
%TO.C,*%
X-68602200Y183242000D03*
%TD*%
%TO.C,*%
X-76602200Y179242000D03*
%TD*%
%TO.C,*%
X-76602200Y187242000D03*
%TD*%
%TO.C,REF\u002A\u002A6*%
X72997800Y154742000D03*
%TD*%
%TO.C,REF\u002A\u002A4*%
X80997800Y154742000D03*
%TD*%
%TO.C,*%
X-72602200Y179242000D03*
%TD*%
%TO.C,REF\u002A\u002A8*%
X80997800Y158742000D03*
%TD*%
D19*
%TO.C,REF\u002A\u002A*%
X-3088011Y266342000D03*
%TD*%
%TO.C,REF\u002A\u002A*%
X112911989Y266342000D03*
%TD*%
%TO.C,REF\u002A\u002A*%
X-10002200Y99942000D03*
%TD*%
D20*
%TO.C,REF\u002A\u002A*%
X53911989Y276992000D03*
%TD*%
D21*
%TO.C,REF\u002A\u002A*%
X166697800Y185042000D03*
%TD*%
D20*
%TO.C,REF\u002A\u002A*%
X73911989Y276992000D03*
%TD*%
D21*
%TO.C,REF\u002A\u002A*%
X166697800Y165042000D03*
%TD*%
D19*
%TO.C,REF\u002A\u002A*%
X94911989Y266342000D03*
%TD*%
D20*
%TO.C,REF\u002A\u002A*%
X63911989Y276992000D03*
%TD*%
D19*
%TO.C,REF\u002A\u002A*%
X14911989Y266342000D03*
%TD*%
D22*
%TO.C,REF\u002A\u002A*%
X362500000Y-37500000D03*
%TD*%
D23*
%TO.C,REF\u002A\u002A*%
X300000000Y0D03*
%TD*%
%TO.C,REF\u002A\u002A*%
X325000000Y-50000000D03*
%TD*%
D18*
%TO.C,MH8*%
X380997800Y25742000D03*
%TD*%
D23*
%TO.C,REF\u002A\u002A*%
X365000000Y-900000D03*
%TD*%
%TO.C,REF\u002A\u002A*%
X400000000Y-50000000D03*
%TD*%
%TO.C,REF\u002A\u002A*%
X375000000Y-25000000D03*
%TD*%
%TO.C,REF\u002A\u002A*%
X350000000Y-25000000D03*
%TD*%
%TO.C,REF\u002A\u002A*%
X300000000Y-50000000D03*
%TD*%
%TO.C,REF\u002A\u002A*%
X325000000Y-25000000D03*
%TD*%
D22*
%TO.C,REF\u002A\u002A*%
X350000000Y-9000000D03*
%TD*%
D23*
%TO.C,REF\u002A\u002A*%
X400000000Y-25000000D03*
%TD*%
D18*
%TO.C,MH6*%
X278997800Y-59258000D03*
%TD*%
D22*
%TO.C,REF\u002A\u002A*%
X325000000Y-9000000D03*
%TD*%
D23*
%TO.C,REF\u002A\u002A*%
X350000000Y-50000000D03*
%TD*%
D18*
%TO.C,MH7*%
X420997800Y-59258000D03*
%TD*%
%TO.C,MH8*%
X420997800Y2742000D03*
%TD*%
D23*
%TO.C,REF\u002A\u002A*%
X375000000Y-50000000D03*
%TD*%
D22*
%TO.C,REF\u002A\u002A*%
X337500000Y-37500000D03*
%TD*%
D23*
%TO.C,REF\u002A\u002A*%
X400000000Y0D03*
%TD*%
%TO.C,REF\u002A\u002A*%
X300000000Y-25000000D03*
%TD*%
D24*
%TO.C,REF\u002A\u002A*%
X312500000Y-39500000D03*
%TD*%
D18*
%TO.C,MH5*%
X278997800Y2742000D03*
%TD*%
G36*
X386107028Y5904208D02*
G01*
X386263911Y5886532D01*
X386291419Y5880253D01*
X386433706Y5830465D01*
X386459127Y5818223D01*
X386586772Y5738018D01*
X386608831Y5720426D01*
X386715425Y5613832D01*
X386733017Y5591773D01*
X386813222Y5464128D01*
X386825464Y5438707D01*
X386875252Y5296420D01*
X386881531Y5268913D01*
X386899208Y5112030D01*
X386900000Y5097922D01*
X386900000Y2912079D01*
X386899208Y2897971D01*
X386881531Y2741088D01*
X386875252Y2713581D01*
X386825464Y2571294D01*
X386813222Y2545873D01*
X386733017Y2418228D01*
X386715425Y2396169D01*
X386608831Y2289575D01*
X386586772Y2271983D01*
X386459127Y2191778D01*
X386433706Y2179536D01*
X386291419Y2129748D01*
X386263912Y2123469D01*
X386107029Y2105792D01*
X386092921Y2105000D01*
X383907079Y2105000D01*
X383892971Y2105792D01*
X383736087Y2123469D01*
X383708580Y2129748D01*
X383566293Y2179536D01*
X383540872Y2191778D01*
X383413227Y2271983D01*
X383391168Y2289575D01*
X383284574Y2396169D01*
X383266982Y2418228D01*
X383186777Y2545873D01*
X383174535Y2571294D01*
X383124747Y2713581D01*
X383118468Y2741089D01*
X383100792Y2897972D01*
X383100000Y2912079D01*
X383100000Y5097922D01*
X383100792Y5112029D01*
X383118468Y5268912D01*
X383124747Y5296420D01*
X383174535Y5438707D01*
X383186777Y5464128D01*
X383266982Y5591773D01*
X383284574Y5613832D01*
X383391168Y5720426D01*
X383413227Y5738018D01*
X383540872Y5818223D01*
X383566293Y5830465D01*
X383708580Y5880253D01*
X383736088Y5886532D01*
X383892972Y5904208D01*
X383907079Y5905000D01*
X386092921Y5905000D01*
X386107028Y5904208D01*
G37*
G36*
X338607028Y-28600792D02*
G01*
X338763911Y-28618468D01*
X338791419Y-28624747D01*
X338933706Y-28674535D01*
X338959127Y-28686777D01*
X339086772Y-28766982D01*
X339108831Y-28784574D01*
X339215425Y-28891168D01*
X339233017Y-28913227D01*
X339313222Y-29040872D01*
X339325464Y-29066293D01*
X339375252Y-29208580D01*
X339381531Y-29236087D01*
X339399208Y-29392970D01*
X339400000Y-29407078D01*
X339400000Y-31592921D01*
X339399208Y-31607029D01*
X339381531Y-31763912D01*
X339375252Y-31791419D01*
X339325464Y-31933706D01*
X339313222Y-31959127D01*
X339233017Y-32086772D01*
X339215425Y-32108831D01*
X339108831Y-32215425D01*
X339086772Y-32233017D01*
X338959127Y-32313222D01*
X338933706Y-32325464D01*
X338791419Y-32375252D01*
X338763912Y-32381531D01*
X338607029Y-32399208D01*
X338592921Y-32400000D01*
X336407079Y-32400000D01*
X336392971Y-32399208D01*
X336236087Y-32381531D01*
X336208580Y-32375252D01*
X336066293Y-32325464D01*
X336040872Y-32313222D01*
X335913227Y-32233017D01*
X335891168Y-32215425D01*
X335784574Y-32108831D01*
X335766982Y-32086772D01*
X335686777Y-31959127D01*
X335674535Y-31933706D01*
X335624747Y-31791419D01*
X335618468Y-31763911D01*
X335600792Y-31607028D01*
X335600000Y-31592921D01*
X335600000Y-29407078D01*
X335600792Y-29392971D01*
X335618468Y-29236088D01*
X335624747Y-29208580D01*
X335674535Y-29066293D01*
X335686777Y-29040872D01*
X335766982Y-28913227D01*
X335784574Y-28891168D01*
X335891168Y-28784574D01*
X335913227Y-28766982D01*
X336040872Y-28686777D01*
X336066293Y-28674535D01*
X336208580Y-28624747D01*
X336236088Y-28618468D01*
X336392972Y-28600792D01*
X336407079Y-28600000D01*
X338592921Y-28600000D01*
X338607028Y-28600792D01*
G37*
G36*
X363607028Y-28600792D02*
G01*
X363763911Y-28618468D01*
X363791419Y-28624747D01*
X363933706Y-28674535D01*
X363959127Y-28686777D01*
X364086772Y-28766982D01*
X364108831Y-28784574D01*
X364215425Y-28891168D01*
X364233017Y-28913227D01*
X364313222Y-29040872D01*
X364325464Y-29066293D01*
X364375252Y-29208580D01*
X364381531Y-29236087D01*
X364399208Y-29392970D01*
X364400000Y-29407078D01*
X364400000Y-31592921D01*
X364399208Y-31607029D01*
X364381531Y-31763912D01*
X364375252Y-31791419D01*
X364325464Y-31933706D01*
X364313222Y-31959127D01*
X364233017Y-32086772D01*
X364215425Y-32108831D01*
X364108831Y-32215425D01*
X364086772Y-32233017D01*
X363959127Y-32313222D01*
X363933706Y-32325464D01*
X363791419Y-32375252D01*
X363763912Y-32381531D01*
X363607029Y-32399208D01*
X363592921Y-32400000D01*
X361407079Y-32400000D01*
X361392971Y-32399208D01*
X361236087Y-32381531D01*
X361208580Y-32375252D01*
X361066293Y-32325464D01*
X361040872Y-32313222D01*
X360913227Y-32233017D01*
X360891168Y-32215425D01*
X360784574Y-32108831D01*
X360766982Y-32086772D01*
X360686777Y-31959127D01*
X360674535Y-31933706D01*
X360624747Y-31791419D01*
X360618468Y-31763911D01*
X360600792Y-31607028D01*
X360600000Y-31592921D01*
X360600000Y-29407078D01*
X360600792Y-29392971D01*
X360618468Y-29236088D01*
X360624747Y-29208580D01*
X360674535Y-29066293D01*
X360686777Y-29040872D01*
X360766982Y-28913227D01*
X360784574Y-28891168D01*
X360891168Y-28784574D01*
X360913227Y-28766982D01*
X361040872Y-28686777D01*
X361066293Y-28674535D01*
X361208580Y-28624747D01*
X361236088Y-28618468D01*
X361392972Y-28600792D01*
X361407079Y-28600000D01*
X363592921Y-28600000D01*
X363607028Y-28600792D01*
G37*
G36*
X386107028Y-2095792D02*
G01*
X386263911Y-2113468D01*
X386291419Y-2119747D01*
X386433706Y-2169535D01*
X386459127Y-2181777D01*
X386586772Y-2261982D01*
X386608831Y-2279574D01*
X386715425Y-2386168D01*
X386733017Y-2408227D01*
X386813222Y-2535872D01*
X386825464Y-2561293D01*
X386875252Y-2703580D01*
X386881531Y-2731087D01*
X386899208Y-2887970D01*
X386900000Y-2902078D01*
X386900000Y-5087921D01*
X386899208Y-5102029D01*
X386881531Y-5258912D01*
X386875252Y-5286419D01*
X386825464Y-5428706D01*
X386813222Y-5454127D01*
X386733017Y-5581772D01*
X386715425Y-5603831D01*
X386608831Y-5710425D01*
X386586772Y-5728017D01*
X386459127Y-5808222D01*
X386433706Y-5820464D01*
X386291419Y-5870252D01*
X386263912Y-5876531D01*
X386107029Y-5894208D01*
X386092921Y-5895000D01*
X383907079Y-5895000D01*
X383892971Y-5894208D01*
X383736087Y-5876531D01*
X383708580Y-5870252D01*
X383566293Y-5820464D01*
X383540872Y-5808222D01*
X383413227Y-5728017D01*
X383391168Y-5710425D01*
X383284574Y-5603831D01*
X383266982Y-5581772D01*
X383186777Y-5454127D01*
X383174535Y-5428706D01*
X383124747Y-5286419D01*
X383118468Y-5258911D01*
X383100792Y-5102028D01*
X383100000Y-5087921D01*
X383100000Y-2902078D01*
X383100792Y-2887971D01*
X383118468Y-2731088D01*
X383124747Y-2703580D01*
X383174535Y-2561293D01*
X383186777Y-2535872D01*
X383266982Y-2408227D01*
X383284574Y-2386168D01*
X383391168Y-2279574D01*
X383413227Y-2261982D01*
X383540872Y-2181777D01*
X383566293Y-2169535D01*
X383708580Y-2119747D01*
X383736088Y-2113468D01*
X383892972Y-2095792D01*
X383907079Y-2095000D01*
X386092921Y-2095000D01*
X386107028Y-2095792D01*
G37*
%LPD*%
M02*
