%TF.GenerationSoftware,KiCad,Pcbnew,9.0.6-9.0.6~ubuntu24.04.1*%
%TF.CreationDate,2025-11-16T17:23:56+08:00*%
%TF.ProjectId,ksoloti_gills_panel,6b736f6c-6f74-4695-9f67-696c6c735f70,v0.6*%
%TF.SameCoordinates,Original*%
%TF.FileFunction,Soldermask,Bot*%
%TF.FilePolarity,Negative*%
%FSLAX46Y46*%
G04 Gerber Fmt 4.6, Leading zero omitted, Abs format (unit mm)*
G04 Created by KiCad (PCBNEW 9.0.6-9.0.6~ubuntu24.04.1) date 2025-11-16 17:23:56*
%MOMM*%
%LPD*%
G01*
G04 APERTURE LIST*
%ADD10C,2.000000*%
%ADD11C,5.000000*%
%ADD12C,13.000000*%
%ADD13C,7.200000*%
%ADD14C,18.000000*%
%ADD15C,7.500000*%
%ADD16C,8.000000*%
%ADD17C,1.700000*%
G04 APERTURE END LIST*
G36*
X357697800Y29242000D02*
G01*
X359697800Y29242000D01*
X359697800Y28242000D01*
X357697800Y28242000D01*
X357697800Y29242000D01*
G37*
G36*
X412697800Y29242000D02*
G01*
X414697800Y29242000D01*
X414697800Y28242000D01*
X412697800Y28242000D01*
X412697800Y29242000D01*
G37*
G36*
X274997800Y-33058000D02*
G01*
X275997800Y-33058000D01*
X275997800Y-35058000D01*
X274997800Y-35058000D01*
X274997800Y-33058000D01*
G37*
G36*
X340297800Y-61758000D02*
G01*
X342297800Y-61758000D01*
X342297800Y-62758000D01*
X340297800Y-62758000D01*
X340297800Y-61758000D01*
G37*
G36*
X423997800Y-50458000D02*
G01*
X424997800Y-50458000D01*
X424997800Y-52458000D01*
X423997800Y-52458000D01*
X423997800Y-50458000D01*
G37*
G36*
X302697800Y29242000D02*
G01*
X304697800Y29242000D01*
X304697800Y28242000D01*
X302697800Y28242000D01*
X302697800Y29242000D01*
G37*
G36*
X423997800Y1542000D02*
G01*
X424997800Y1542000D01*
X424997800Y-458000D01*
X423997800Y-458000D01*
X423997800Y1542000D01*
G37*
G36*
X274997800Y18942000D02*
G01*
X275997800Y18942000D01*
X275997800Y16942000D01*
X274997800Y16942000D01*
X274997800Y18942000D01*
G37*
G36*
X285297800Y-61758000D02*
G01*
X287297800Y-61758000D01*
X287297800Y-62758000D01*
X285297800Y-62758000D01*
X285297800Y-61758000D01*
G37*
G36*
X395297800Y-61758000D02*
G01*
X397297800Y-61758000D01*
X397297800Y-62758000D01*
X395297800Y-62758000D01*
X395297800Y-61758000D01*
G37*
D10*
%TO.C,REF\u002A\u002A10*%
X72997800Y158742000D03*
%TD*%
%TO.C,REF\u002A\u002A5*%
X76997800Y154742000D03*
%TD*%
%TO.C,REF\u002A\u002A2*%
X72997800Y150742000D03*
%TD*%
%TO.C,REF\u002A\u002A13*%
X76997800Y162742000D03*
%TD*%
%TO.C,REF\u002A\u002A9*%
X76997800Y158742000D03*
%TD*%
D11*
%TO.C,*%
X-21002200Y202742000D03*
%TD*%
%TO.C,*%
X120997800Y202742000D03*
%TD*%
D10*
%TO.C,REF\u002A\u002A12*%
X80997800Y162742000D03*
%TD*%
%TO.C,*%
X-76602200Y183242000D03*
%TD*%
%TO.C,REF\u002A\u002A7*%
X68997800Y154742000D03*
%TD*%
%TO.C,REF\u002A\u002A1*%
X76997800Y150742000D03*
%TD*%
%TO.C,*%
X-72602200Y183242000D03*
%TD*%
%TO.C,REF\u002A\u002A15*%
X68997800Y162742000D03*
%TD*%
%TO.C,REF\u002A\u002A3*%
X68997800Y150742000D03*
%TD*%
D11*
%TO.C,*%
X-21002200Y140742000D03*
%TD*%
D10*
%TO.C,REF\u002A\u002A14*%
X72997800Y162742000D03*
%TD*%
%TO.C,*%
X-68602200Y187242000D03*
%TD*%
%TO.C,REF\u002A\u002A*%
X80997800Y150742000D03*
%TD*%
%TO.C,REF\u002A\u002A11*%
X68997800Y158742000D03*
%TD*%
D11*
%TO.C,*%
X120997800Y140742000D03*
%TD*%
D10*
%TO.C,*%
X-72602200Y187242000D03*
%TD*%
%TO.C,*%
X-68602200Y179242000D03*
%TD*%
%TO.C,*%
X-68602200Y183242000D03*
%TD*%
%TO.C,*%
X-76602200Y179242000D03*
%TD*%
%TO.C,*%
X-76602200Y187242000D03*
%TD*%
%TO.C,REF\u002A\u002A6*%
X72997800Y154742000D03*
%TD*%
%TO.C,REF\u002A\u002A4*%
X80997800Y154742000D03*
%TD*%
%TO.C,*%
X-72602200Y179242000D03*
%TD*%
%TO.C,REF\u002A\u002A8*%
X80997800Y158742000D03*
%TD*%
D12*
%TO.C,REF\u002A\u002A*%
X-3088011Y266342000D03*
%TD*%
%TO.C,REF\u002A\u002A*%
X112911989Y266342000D03*
%TD*%
%TO.C,REF\u002A\u002A*%
X-10002200Y99942000D03*
%TD*%
D13*
%TO.C,REF\u002A\u002A*%
X53911989Y276992000D03*
%TD*%
D14*
%TO.C,REF\u002A\u002A*%
X166697800Y185042000D03*
%TD*%
D13*
%TO.C,REF\u002A\u002A*%
X73911989Y276992000D03*
%TD*%
D14*
%TO.C,REF\u002A\u002A*%
X166697800Y165042000D03*
%TD*%
D12*
%TO.C,REF\u002A\u002A*%
X94911989Y266342000D03*
%TD*%
D13*
%TO.C,REF\u002A\u002A*%
X63911989Y276992000D03*
%TD*%
D12*
%TO.C,REF\u002A\u002A*%
X14911989Y266342000D03*
%TD*%
D15*
%TO.C,REF\u002A\u002A*%
X362500000Y-37500000D03*
%TD*%
D16*
%TO.C,REF\u002A\u002A*%
X300000000Y0D03*
%TD*%
%TO.C,REF\u002A\u002A*%
X325000000Y-50000000D03*
%TD*%
D11*
%TO.C,MH8*%
X380997800Y25742000D03*
%TD*%
D16*
%TO.C,REF\u002A\u002A*%
X365000000Y-900000D03*
%TD*%
%TO.C,REF\u002A\u002A*%
X400000000Y-50000000D03*
%TD*%
%TO.C,REF\u002A\u002A*%
X375000000Y-25000000D03*
%TD*%
%TO.C,REF\u002A\u002A*%
X350000000Y-25000000D03*
%TD*%
%TO.C,REF\u002A\u002A*%
X300000000Y-50000000D03*
%TD*%
%TO.C,REF\u002A\u002A*%
X325000000Y-25000000D03*
%TD*%
D15*
%TO.C,REF\u002A\u002A*%
X350000000Y-9000000D03*
%TD*%
D16*
%TO.C,REF\u002A\u002A*%
X400000000Y-25000000D03*
%TD*%
D11*
%TO.C,MH6*%
X278997800Y-59258000D03*
%TD*%
D15*
%TO.C,REF\u002A\u002A*%
X325000000Y-9000000D03*
%TD*%
D16*
%TO.C,REF\u002A\u002A*%
X350000000Y-50000000D03*
%TD*%
D11*
%TO.C,MH7*%
X420997800Y-59258000D03*
%TD*%
%TO.C,MH8*%
X420997800Y2742000D03*
%TD*%
D16*
%TO.C,REF\u002A\u002A*%
X375000000Y-50000000D03*
%TD*%
D15*
%TO.C,REF\u002A\u002A*%
X337500000Y-37500000D03*
%TD*%
D16*
%TO.C,REF\u002A\u002A*%
X400000000Y0D03*
%TD*%
%TO.C,REF\u002A\u002A*%
X300000000Y-25000000D03*
%TD*%
D17*
%TO.C,REF\u002A\u002A*%
X312500000Y-39500000D03*
%TD*%
D11*
%TO.C,MH5*%
X278997800Y2742000D03*
%TD*%
G36*
X386107028Y5904208D02*
G01*
X386263911Y5886532D01*
X386291419Y5880253D01*
X386433706Y5830465D01*
X386459127Y5818223D01*
X386586772Y5738018D01*
X386608831Y5720426D01*
X386715425Y5613832D01*
X386733017Y5591773D01*
X386813222Y5464128D01*
X386825464Y5438707D01*
X386875252Y5296420D01*
X386881531Y5268913D01*
X386899208Y5112030D01*
X386900000Y5097922D01*
X386900000Y2912079D01*
X386899208Y2897971D01*
X386881531Y2741088D01*
X386875252Y2713581D01*
X386825464Y2571294D01*
X386813222Y2545873D01*
X386733017Y2418228D01*
X386715425Y2396169D01*
X386608831Y2289575D01*
X386586772Y2271983D01*
X386459127Y2191778D01*
X386433706Y2179536D01*
X386291419Y2129748D01*
X386263912Y2123469D01*
X386107029Y2105792D01*
X386092921Y2105000D01*
X383907079Y2105000D01*
X383892971Y2105792D01*
X383736087Y2123469D01*
X383708580Y2129748D01*
X383566293Y2179536D01*
X383540872Y2191778D01*
X383413227Y2271983D01*
X383391168Y2289575D01*
X383284574Y2396169D01*
X383266982Y2418228D01*
X383186777Y2545873D01*
X383174535Y2571294D01*
X383124747Y2713581D01*
X383118468Y2741089D01*
X383100792Y2897972D01*
X383100000Y2912079D01*
X383100000Y5097922D01*
X383100792Y5112029D01*
X383118468Y5268912D01*
X383124747Y5296420D01*
X383174535Y5438707D01*
X383186777Y5464128D01*
X383266982Y5591773D01*
X383284574Y5613832D01*
X383391168Y5720426D01*
X383413227Y5738018D01*
X383540872Y5818223D01*
X383566293Y5830465D01*
X383708580Y5880253D01*
X383736088Y5886532D01*
X383892972Y5904208D01*
X383907079Y5905000D01*
X386092921Y5905000D01*
X386107028Y5904208D01*
G37*
G36*
X338607028Y-28600792D02*
G01*
X338763911Y-28618468D01*
X338791419Y-28624747D01*
X338933706Y-28674535D01*
X338959127Y-28686777D01*
X339086772Y-28766982D01*
X339108831Y-28784574D01*
X339215425Y-28891168D01*
X339233017Y-28913227D01*
X339313222Y-29040872D01*
X339325464Y-29066293D01*
X339375252Y-29208580D01*
X339381531Y-29236087D01*
X339399208Y-29392970D01*
X339400000Y-29407078D01*
X339400000Y-31592921D01*
X339399208Y-31607029D01*
X339381531Y-31763912D01*
X339375252Y-31791419D01*
X339325464Y-31933706D01*
X339313222Y-31959127D01*
X339233017Y-32086772D01*
X339215425Y-32108831D01*
X339108831Y-32215425D01*
X339086772Y-32233017D01*
X338959127Y-32313222D01*
X338933706Y-32325464D01*
X338791419Y-32375252D01*
X338763912Y-32381531D01*
X338607029Y-32399208D01*
X338592921Y-32400000D01*
X336407079Y-32400000D01*
X336392971Y-32399208D01*
X336236087Y-32381531D01*
X336208580Y-32375252D01*
X336066293Y-32325464D01*
X336040872Y-32313222D01*
X335913227Y-32233017D01*
X335891168Y-32215425D01*
X335784574Y-32108831D01*
X335766982Y-32086772D01*
X335686777Y-31959127D01*
X335674535Y-31933706D01*
X335624747Y-31791419D01*
X335618468Y-31763911D01*
X335600792Y-31607028D01*
X335600000Y-31592921D01*
X335600000Y-29407078D01*
X335600792Y-29392971D01*
X335618468Y-29236088D01*
X335624747Y-29208580D01*
X335674535Y-29066293D01*
X335686777Y-29040872D01*
X335766982Y-28913227D01*
X335784574Y-28891168D01*
X335891168Y-28784574D01*
X335913227Y-28766982D01*
X336040872Y-28686777D01*
X336066293Y-28674535D01*
X336208580Y-28624747D01*
X336236088Y-28618468D01*
X336392972Y-28600792D01*
X336407079Y-28600000D01*
X338592921Y-28600000D01*
X338607028Y-28600792D01*
G37*
G36*
X363607028Y-28600792D02*
G01*
X363763911Y-28618468D01*
X363791419Y-28624747D01*
X363933706Y-28674535D01*
X363959127Y-28686777D01*
X364086772Y-28766982D01*
X364108831Y-28784574D01*
X364215425Y-28891168D01*
X364233017Y-28913227D01*
X364313222Y-29040872D01*
X364325464Y-29066293D01*
X364375252Y-29208580D01*
X364381531Y-29236087D01*
X364399208Y-29392970D01*
X364400000Y-29407078D01*
X364400000Y-31592921D01*
X364399208Y-31607029D01*
X364381531Y-31763912D01*
X364375252Y-31791419D01*
X364325464Y-31933706D01*
X364313222Y-31959127D01*
X364233017Y-32086772D01*
X364215425Y-32108831D01*
X364108831Y-32215425D01*
X364086772Y-32233017D01*
X363959127Y-32313222D01*
X363933706Y-32325464D01*
X363791419Y-32375252D01*
X363763912Y-32381531D01*
X363607029Y-32399208D01*
X363592921Y-32400000D01*
X361407079Y-32400000D01*
X361392971Y-32399208D01*
X361236087Y-32381531D01*
X361208580Y-32375252D01*
X361066293Y-32325464D01*
X361040872Y-32313222D01*
X360913227Y-32233017D01*
X360891168Y-32215425D01*
X360784574Y-32108831D01*
X360766982Y-32086772D01*
X360686777Y-31959127D01*
X360674535Y-31933706D01*
X360624747Y-31791419D01*
X360618468Y-31763911D01*
X360600792Y-31607028D01*
X360600000Y-31592921D01*
X360600000Y-29407078D01*
X360600792Y-29392971D01*
X360618468Y-29236088D01*
X360624747Y-29208580D01*
X360674535Y-29066293D01*
X360686777Y-29040872D01*
X360766982Y-28913227D01*
X360784574Y-28891168D01*
X360891168Y-28784574D01*
X360913227Y-28766982D01*
X361040872Y-28686777D01*
X361066293Y-28674535D01*
X361208580Y-28624747D01*
X361236088Y-28618468D01*
X361392972Y-28600792D01*
X361407079Y-28600000D01*
X363592921Y-28600000D01*
X363607028Y-28600792D01*
G37*
G36*
X386107028Y-2095792D02*
G01*
X386263911Y-2113468D01*
X386291419Y-2119747D01*
X386433706Y-2169535D01*
X386459127Y-2181777D01*
X386586772Y-2261982D01*
X386608831Y-2279574D01*
X386715425Y-2386168D01*
X386733017Y-2408227D01*
X386813222Y-2535872D01*
X386825464Y-2561293D01*
X386875252Y-2703580D01*
X386881531Y-2731087D01*
X386899208Y-2887970D01*
X386900000Y-2902078D01*
X386900000Y-5087921D01*
X386899208Y-5102029D01*
X386881531Y-5258912D01*
X386875252Y-5286419D01*
X386825464Y-5428706D01*
X386813222Y-5454127D01*
X386733017Y-5581772D01*
X386715425Y-5603831D01*
X386608831Y-5710425D01*
X386586772Y-5728017D01*
X386459127Y-5808222D01*
X386433706Y-5820464D01*
X386291419Y-5870252D01*
X386263912Y-5876531D01*
X386107029Y-5894208D01*
X386092921Y-5895000D01*
X383907079Y-5895000D01*
X383892971Y-5894208D01*
X383736087Y-5876531D01*
X383708580Y-5870252D01*
X383566293Y-5820464D01*
X383540872Y-5808222D01*
X383413227Y-5728017D01*
X383391168Y-5710425D01*
X383284574Y-5603831D01*
X383266982Y-5581772D01*
X383186777Y-5454127D01*
X383174535Y-5428706D01*
X383124747Y-5286419D01*
X383118468Y-5258911D01*
X383100792Y-5102028D01*
X383100000Y-5087921D01*
X383100000Y-2902078D01*
X383100792Y-2887971D01*
X383118468Y-2731088D01*
X383124747Y-2703580D01*
X383174535Y-2561293D01*
X383186777Y-2535872D01*
X383266982Y-2408227D01*
X383284574Y-2386168D01*
X383391168Y-2279574D01*
X383413227Y-2261982D01*
X383540872Y-2181777D01*
X383566293Y-2169535D01*
X383708580Y-2119747D01*
X383736088Y-2113468D01*
X383892972Y-2095792D01*
X383907079Y-2095000D01*
X386092921Y-2095000D01*
X386107028Y-2095792D01*
G37*
M02*
