M48
; DRILL file {KiCad 9.0.6-9.0.6~ubuntu24.04.1} date 2025-11-16T17:23:56+0800
; FORMAT={-:-/ absolute / inch / decimal}
; #@! TF.CreationDate,2025-11-16T17:23:56+08:00
; #@! TF.GenerationSoftware,Kicad,Pcbnew,9.0.6-9.0.6~ubuntu24.04.1
; #@! TF.FileFunction,NonPlated,1,2,NPTH
FMAT,2
INCH
; #@! TA.AperFunction,NonPlated,NPTH,ComponentDrill
T1C0.0669
; #@! TA.AperFunction,NonPlated,NPTH,ComponentDrill
T2C0.0787
%
G90
G05
T1
X12.3031Y-1.5551
T2
X-3.0158Y7.3717
X-3.0158Y7.2143
X-3.0158Y7.0568
X-2.8584Y7.3717
X-2.8584Y7.2143
X-2.8584Y7.0568
X-2.7009Y7.3717
X-2.7009Y7.2143
X-2.7009Y7.0568
X2.7164Y6.4072
X2.7164Y6.2497
X2.7164Y6.0922
X2.7164Y5.9347
X2.8739Y6.4072
X2.8739Y6.2497
X2.8739Y6.0922
X2.8739Y5.9347
X3.0314Y6.4072
X3.0314Y6.2497
X3.0314Y6.0922
X3.0314Y5.9347
X3.1889Y6.4072
X3.1889Y6.2497
X3.1889Y6.0922
X3.1889Y5.9347
M30
