%TF.GenerationSoftware,KiCad,Pcbnew,9.0.6-9.0.6~ubuntu24.04.1*%
%TF.CreationDate,2025-11-16T17:23:56+08:00*%
%TF.ProjectId,ksoloti_gills_panel,6b736f6c-6f74-4695-9f67-696c6c735f70,v0.6*%
%TF.SameCoordinates,Original*%
%TF.FileFunction,Copper,L2,Bot*%
%TF.FilePolarity,Positive*%
%FSLAX46Y46*%
G04 Gerber Fmt 4.6, Leading zero omitted, Abs format (unit mm)*
G04 Created by KiCad (PCBNEW 9.0.6-9.0.6~ubuntu24.04.1) date 2025-11-16 17:23:56*
%MOMM*%
%LPD*%
G01*
G04 APERTURE LIST*
%TA.AperFunction,ComponentPad*%
%ADD10C,5.000000*%
%TD*%
%TA.AperFunction,ComponentPad*%
%ADD11C,13.000000*%
%TD*%
%TA.AperFunction,ComponentPad*%
%ADD12C,7.200000*%
%TD*%
%TA.AperFunction,ComponentPad*%
%ADD13C,18.000000*%
%TD*%
%TA.AperFunction,ComponentPad*%
%ADD14C,7.500000*%
%TD*%
%TA.AperFunction,ComponentPad*%
%ADD15C,8.000000*%
%TD*%
%TA.AperFunction,Conductor*%
%ADD16C,0.050000*%
%TD*%
%TA.AperFunction,Conductor*%
%ADD17C,0.100000*%
%TD*%
G04 APERTURE END LIST*
D10*
%TO.P,,1,1*%
%TO.N,g*%
X-21002200Y202742000D03*
%TD*%
%TO.P,,1,1*%
%TO.N,g*%
X120997800Y202742000D03*
%TD*%
%TO.P,,1,1*%
%TO.N,g*%
X-21002200Y140742000D03*
%TD*%
%TO.P,,1,1*%
%TO.N,g*%
X120997800Y140742000D03*
%TD*%
D11*
%TO.P,REF\u002A\u002A,*%
%TO.N,g*%
X-3088011Y266342000D03*
%TD*%
%TO.P,REF\u002A\u002A,*%
%TO.N,g*%
X112911989Y266342000D03*
%TD*%
%TO.P,REF\u002A\u002A,*%
%TO.N,g*%
X-10002200Y99942000D03*
%TD*%
D12*
%TO.P,REF\u002A\u002A,*%
%TO.N,g*%
X53911989Y276992000D03*
%TD*%
D13*
%TO.P,REF\u002A\u002A,*%
%TO.N,g*%
X166697800Y185042000D03*
%TD*%
D12*
%TO.P,REF\u002A\u002A,*%
%TO.N,g*%
X73911989Y276992000D03*
%TD*%
D13*
%TO.P,REF\u002A\u002A,*%
%TO.N,g*%
X166697800Y165042000D03*
%TD*%
D11*
%TO.P,REF\u002A\u002A,*%
%TO.N,g*%
X94911989Y266342000D03*
%TD*%
D12*
%TO.P,REF\u002A\u002A,*%
%TO.N,g*%
X63911989Y276992000D03*
%TD*%
D11*
%TO.P,REF\u002A\u002A,*%
%TO.N,g*%
X14911989Y266342000D03*
%TD*%
D14*
%TO.P,REF\u002A\u002A,*%
%TO.N,g*%
X362500000Y-37500000D03*
%TD*%
D15*
%TO.P,REF\u002A\u002A,*%
%TO.N,g*%
X300000000Y0D03*
%TD*%
%TO.P,REF\u002A\u002A,*%
%TO.N,g*%
X325000000Y-50000000D03*
%TD*%
D10*
%TO.P,MH8,1,1*%
%TO.N,g*%
X380997800Y25742000D03*
%TD*%
D15*
%TO.P,REF\u002A\u002A,*%
%TO.N,g*%
X365000000Y-900000D03*
%TD*%
%TO.P,REF\u002A\u002A,*%
%TO.N,g*%
X400000000Y-50000000D03*
%TD*%
%TO.P,REF\u002A\u002A,*%
%TO.N,g*%
X375000000Y-25000000D03*
%TD*%
%TO.P,REF\u002A\u002A,*%
%TO.N,g*%
X350000000Y-25000000D03*
%TD*%
%TO.P,REF\u002A\u002A,*%
%TO.N,g*%
X300000000Y-50000000D03*
%TD*%
%TO.P,REF\u002A\u002A,*%
%TO.N,g*%
X325000000Y-25000000D03*
%TD*%
D14*
%TO.P,REF\u002A\u002A,*%
%TO.N,g*%
X350000000Y-9000000D03*
%TD*%
D15*
%TO.P,REF\u002A\u002A,*%
%TO.N,g*%
X400000000Y-25000000D03*
%TD*%
D10*
%TO.P,MH6,1,1*%
%TO.N,g*%
X278997800Y-59258000D03*
%TD*%
D14*
%TO.P,REF\u002A\u002A,*%
%TO.N,g*%
X325000000Y-9000000D03*
%TD*%
D15*
%TO.P,REF\u002A\u002A,*%
%TO.N,g*%
X350000000Y-50000000D03*
%TD*%
D10*
%TO.P,MH7,1,1*%
%TO.N,g*%
X420997800Y-59258000D03*
%TD*%
%TO.P,MH8,1,1*%
%TO.N,g*%
X420997800Y2742000D03*
%TD*%
D15*
%TO.P,REF\u002A\u002A,*%
%TO.N,g*%
X375000000Y-50000000D03*
%TD*%
D14*
%TO.P,REF\u002A\u002A,*%
%TO.N,g*%
X337500000Y-37500000D03*
%TD*%
D15*
%TO.P,REF\u002A\u002A,*%
%TO.N,g*%
X400000000Y0D03*
%TD*%
%TO.P,REF\u002A\u002A,*%
%TO.N,g*%
X300000000Y-25000000D03*
%TD*%
D10*
%TO.P,MH5,1,1*%
%TO.N,g*%
X278997800Y2742000D03*
%TD*%
D16*
%TO.N,*%
X-595002200Y81842000D02*
X-595002200Y80242000D01*
X-688402200Y167242000D02*
X-688402200Y199242000D01*
D17*
X-173000000Y-66758000D02*
X-327000000Y-66758000D01*
D16*
X-615002200Y80242000D02*
X-615002200Y81842000D01*
D17*
X-171000000Y-64758000D02*
X-171000000Y31242000D01*
D16*
X-540002200Y80242000D02*
X-560002200Y80242000D01*
X-600002200Y252842000D02*
X-600002200Y252242000D01*
X-499002200Y115042000D02*
X-481002200Y115042000D01*
X-540002200Y81842000D02*
X-540002200Y80242000D01*
X-473302200Y113442000D02*
X-473302200Y81842000D01*
X-560002200Y80242000D02*
X-560002200Y81842000D01*
X-480002200Y252842000D02*
X-473302200Y252842000D01*
X-443802200Y224242000D02*
X-443202200Y224242000D01*
D17*
X-627000000Y33242000D02*
X-473000000Y33242000D01*
D16*
X-540002200Y252842000D02*
X-500002200Y252842000D01*
X-656802200Y229242000D02*
X-688402200Y229242000D01*
X-688402200Y199242000D02*
X-690002200Y199242000D01*
X-655200000Y161242000D02*
X-655200000Y143242000D01*
X-411602200Y199242000D02*
X-411602200Y167242000D01*
X-688402200Y219242000D02*
X-688402200Y229242000D01*
X-505002200Y286042000D02*
X-485002200Y286042000D01*
X-443202200Y142242000D02*
X-443802200Y142242000D01*
D17*
X-629000000Y135242000D02*
X-629000000Y231242000D01*
D16*
X-444802200Y205242000D02*
X-444802200Y223242000D01*
X-620002200Y113442000D02*
X-620002200Y114042000D01*
D17*
X-327000000Y33242000D02*
X-173000000Y33242000D01*
D16*
X-505002200Y80242000D02*
X-505002200Y81842000D01*
X-480002200Y252842000D02*
X-480002200Y252242000D01*
X-620002200Y113442000D02*
X-626702200Y113442000D01*
X-410002200Y219242000D02*
X-410002200Y199242000D01*
X-626702200Y252842000D02*
X-626702200Y284442000D01*
X-443202200Y204242000D02*
X-443802200Y204242000D01*
X-541002200Y251242000D02*
X-559002200Y251242000D01*
X-656802200Y224242000D02*
X-656202200Y224242000D01*
X-500002200Y113442000D02*
X-540002200Y113442000D01*
X-410002200Y199242000D02*
X-411602200Y199242000D01*
X-500002200Y113442000D02*
X-500002200Y114042000D01*
X-690002200Y167242000D02*
X-688402200Y167242000D01*
X-485002200Y80242000D02*
X-505002200Y80242000D01*
X-443202200Y142242000D02*
X-443202200Y137242000D01*
X-626702200Y284442000D02*
X-615002200Y284442000D01*
X-560002200Y113442000D02*
X-560002200Y114042000D01*
X-690002200Y147242000D02*
X-690002200Y167242000D01*
X-656200000Y142242000D02*
X-656800000Y142242000D01*
X-615002200Y286042000D02*
X-595002200Y286042000D01*
X-411602200Y229242000D02*
X-411602200Y219242000D01*
X-411602200Y219242000D02*
X-410002200Y219242000D01*
X-444802200Y143242000D02*
X-444802200Y161242000D01*
D17*
X-473000000Y133242000D02*
X-627000000Y133242000D01*
D16*
X-443202200Y137242000D02*
X-411602200Y137242000D01*
X-505002200Y81842000D02*
X-540002200Y81842000D01*
X-473302200Y284442000D02*
X-473302200Y252842000D01*
X-485002200Y284442000D02*
X-473302200Y284442000D01*
X-656802200Y137242000D02*
X-688402200Y137242000D01*
X-595002200Y284442000D02*
X-560002200Y284442000D01*
X-560002200Y81842000D02*
X-595002200Y81842000D01*
X-595002200Y80242000D02*
X-615002200Y80242000D01*
D17*
X-471000000Y135242000D02*
X-471000000Y231242000D01*
X-627000000Y233242000D02*
X-473000000Y233242000D01*
D16*
X-690002200Y219242000D02*
X-688402200Y219242000D01*
X-600002200Y114042000D02*
X-600002200Y113442000D01*
X-626702200Y81842000D02*
X-626702200Y113442000D01*
X-688402200Y147242000D02*
X-690002200Y147242000D01*
X-411602200Y167242000D02*
X-410002200Y167242000D01*
X-540002200Y286042000D02*
X-540002200Y284442000D01*
X-619002200Y115042000D02*
X-601002200Y115042000D01*
X-656202200Y204242000D02*
X-656802200Y204242000D01*
D17*
X-629000000Y-64758000D02*
X-629000000Y31242000D01*
D16*
X-443202200Y224242000D02*
X-443202200Y229242000D01*
X-480002200Y113442000D02*
X-473302200Y113442000D01*
D17*
X-473000000Y-66758000D02*
X-627000000Y-66758000D01*
D16*
X-443202200Y162242000D02*
X-443202200Y204242000D01*
X-410002200Y147242000D02*
X-411602200Y147242000D01*
X-620002200Y252842000D02*
X-626702200Y252842000D01*
X-540002200Y284442000D02*
X-505002200Y284442000D01*
X-410002200Y167242000D02*
X-410002200Y147242000D01*
X-615002200Y81842000D02*
X-626702200Y81842000D01*
X-655202200Y223242000D02*
X-655202200Y205242000D01*
X-559002200Y115042000D02*
X-541002200Y115042000D01*
X-480002200Y114042000D02*
X-480002200Y113442000D01*
X-500002200Y252242000D02*
X-500002200Y252842000D01*
X-560002200Y286042000D02*
X-540002200Y286042000D01*
X-688402200Y137242000D02*
X-688402200Y147242000D01*
X-595002200Y286042000D02*
X-595002200Y284442000D01*
D17*
X-329000000Y-64758000D02*
X-329000000Y31242000D01*
D16*
X-656802200Y224242000D02*
X-656802200Y229242000D01*
X-443802200Y162242000D02*
X-443202200Y162242000D01*
X-473302200Y81842000D02*
X-485002200Y81842000D01*
X-560002200Y284442000D02*
X-560002200Y286042000D01*
X-540002200Y252842000D02*
X-540002200Y252242000D01*
X-560002200Y113442000D02*
X-600002200Y113442000D01*
X-505002200Y284442000D02*
X-505002200Y286042000D01*
X-690002200Y199242000D02*
X-690002200Y219242000D01*
X-615002200Y284442000D02*
X-615002200Y286042000D01*
X-540002200Y114042000D02*
X-540002200Y113442000D01*
D17*
X-471000000Y-64758000D02*
X-471000000Y31242000D01*
D16*
X-601002200Y251242000D02*
X-619002200Y251242000D01*
X-481002200Y251242000D02*
X-499002200Y251242000D01*
X-485002200Y81842000D02*
X-485002200Y80242000D01*
X-560002200Y252242000D02*
X-560002200Y252842000D01*
X-656802200Y142242000D02*
X-656802200Y137242000D01*
X-485002200Y286042000D02*
X-485002200Y284442000D01*
X-620002200Y252242000D02*
X-620002200Y252842000D01*
X-600002200Y252842000D02*
X-560002200Y252842000D01*
X-411602200Y147242000D02*
X-411602200Y137242000D01*
X-656802200Y162242000D02*
X-656202200Y162242000D01*
X-443202200Y229242000D02*
X-411602200Y229242000D01*
X-656802200Y204242000D02*
X-656802200Y162242000D01*
X-600002200Y252242000D02*
G75*
G02*
X-601002200Y251242000I-999979J-21D01*
G01*
D17*
X-473000000Y133242000D02*
G75*
G03*
X-471000000Y135242000I-55J2000055D01*
G01*
X-171000000Y31242000D02*
G75*
G03*
X-173000000Y33242000I-2000019J-19D01*
G01*
D16*
X-480002200Y252242000D02*
G75*
G02*
X-481002200Y251242000I-999979J-21D01*
G01*
X-619002200Y251242000D02*
G75*
G02*
X-620002200Y252242000I56J1000056D01*
G01*
D17*
X-471000000Y31242000D02*
G75*
G03*
X-473000000Y33242000I-2000019J-19D01*
G01*
D16*
X-500002200Y114042000D02*
G75*
G02*
X-499002200Y115042000I999950J50D01*
G01*
X-559002200Y251242000D02*
G75*
G02*
X-560002200Y252242000I56J1000056D01*
G01*
D17*
X-473000000Y-66758000D02*
G75*
G03*
X-471000000Y-64758000I-55J2000055D01*
G01*
D16*
X-655202200Y205242000D02*
G75*
G02*
X-656202200Y204242000I-999979J-21D01*
G01*
X-656202200Y224242000D02*
G75*
G02*
X-655202200Y223242000I54J-999946D01*
G01*
X-541002200Y115042000D02*
G75*
G02*
X-540002200Y114042000I54J-999946D01*
G01*
X-560002200Y114042000D02*
G75*
G02*
X-559002200Y115042000I999950J50D01*
G01*
X-443802200Y204242000D02*
G75*
G02*
X-444802200Y205242000I56J1000056D01*
G01*
X-601002200Y115042000D02*
G75*
G02*
X-600002200Y114042000I54J-999946D01*
G01*
X-499002200Y251242000D02*
G75*
G02*
X-500002200Y252242000I56J1000056D01*
G01*
X-444802200Y223242000D02*
G75*
G02*
X-443802200Y224242000I1000020J-20D01*
G01*
D17*
X-329000000Y-64758000D02*
G75*
G03*
X-327000000Y-66758000I2000051J51D01*
G01*
D16*
X-655200000Y143242000D02*
G75*
G02*
X-656200000Y142242000I-999979J-21D01*
G01*
X-620002200Y114042000D02*
G75*
G02*
X-619002200Y115042000I999950J50D01*
G01*
X-444802200Y161242000D02*
G75*
G02*
X-443802200Y162242000I1000020J-20D01*
G01*
D17*
X-627000000Y33242000D02*
G75*
G03*
X-629000000Y31242000I-61J-1999939D01*
G01*
X-173000000Y-66758000D02*
G75*
G03*
X-171000000Y-64758000I-55J2000055D01*
G01*
X-471000000Y231242000D02*
G75*
G03*
X-473000000Y233242000I-2000019J-19D01*
G01*
X-629000000Y-64758000D02*
G75*
G03*
X-627000000Y-66758000I2000051J51D01*
G01*
X-629000000Y135242000D02*
G75*
G03*
X-627000000Y133242000I2000051J51D01*
G01*
D16*
X-656200000Y162242000D02*
G75*
G02*
X-655200000Y161242000I54J-999946D01*
G01*
X-540002200Y252242000D02*
G75*
G02*
X-541002200Y251242000I-999979J-21D01*
G01*
X-481002200Y115042000D02*
G75*
G02*
X-480002200Y114042000I54J-999946D01*
G01*
D17*
X-627000000Y233242000D02*
G75*
G03*
X-629000000Y231242000I-61J-1999939D01*
G01*
D16*
X-443802200Y142242000D02*
G75*
G02*
X-444802200Y143242000I56J1000056D01*
G01*
D17*
X-327000000Y33242000D02*
G75*
G03*
X-329000000Y31242000I-61J-1999939D01*
G01*
%TD*%
%TA.AperFunction,Conductor*%
%TO.N,g*%
G36*
X126998258Y233241470D02*
G01*
X127234862Y233225976D01*
X127235938Y233225864D01*
X127291613Y233217863D01*
X127292353Y233217736D01*
X127499458Y233176551D01*
X127500671Y233176253D01*
X127546565Y233162779D01*
X127547121Y233162603D01*
X127755970Y233091719D01*
X127757285Y233091197D01*
X127783259Y233079336D01*
X127783636Y233079157D01*
X127996757Y232974067D01*
X127998343Y232973152D01*
X128214298Y232828863D01*
X128215751Y232827748D01*
X128411019Y232656507D01*
X128412314Y232655212D01*
X128583557Y232459946D01*
X128584672Y232458493D01*
X128728964Y232242540D01*
X128729879Y232240954D01*
X128834968Y232027843D01*
X128835147Y232027467D01*
X128847013Y232001483D01*
X128847535Y232000167D01*
X128918421Y231791322D01*
X128918597Y231790766D01*
X128932072Y231744870D01*
X128932370Y231743657D01*
X128973557Y231536548D01*
X128973684Y231535809D01*
X128981685Y231480144D01*
X128981797Y231479067D01*
X128997270Y231242811D01*
X128997300Y231241896D01*
X128997300Y135242458D01*
X128997270Y135241542D01*
X128981880Y135006787D01*
X128981768Y135005711D01*
X128973122Y134945572D01*
X128972995Y134944833D01*
X128932634Y134741926D01*
X128932336Y134740713D01*
X128917442Y134689990D01*
X128917266Y134689434D01*
X128847937Y134485196D01*
X128847415Y134483880D01*
X128832958Y134452224D01*
X128832779Y134451848D01*
X128729822Y134243069D01*
X128728907Y134241483D01*
X128584617Y134025534D01*
X128583502Y134024081D01*
X128412263Y133828816D01*
X128410968Y133827521D01*
X128215703Y133656274D01*
X128214250Y133655160D01*
X127998309Y133510867D01*
X127996736Y133509959D01*
X127815071Y133420367D01*
X127787956Y133406995D01*
X127787580Y133406816D01*
X127755910Y133392352D01*
X127754596Y133391830D01*
X127550349Y133322493D01*
X127549842Y133322332D01*
X127499059Y133307419D01*
X127497892Y133307132D01*
X127294927Y133266755D01*
X127294221Y133266635D01*
X127234066Y133257984D01*
X127233056Y133257878D01*
X126999000Y133242530D01*
X126998084Y133242500D01*
X-27001742Y133242500D01*
X-27002658Y133242530D01*
X-27238376Y133257984D01*
X-27239405Y133258092D01*
X-27297331Y133266422D01*
X-27297987Y133266534D01*
X-27503069Y133307329D01*
X-27504227Y133307614D01*
X-27552641Y133321830D01*
X-27553096Y133321974D01*
X-27759682Y133392105D01*
X-27760962Y133392613D01*
X-27789839Y133405801D01*
X-27790110Y133405930D01*
X-28001130Y133509995D01*
X-28002690Y133510896D01*
X-28218641Y133655193D01*
X-28220083Y133656299D01*
X-28415366Y133827561D01*
X-28416632Y133828827D01*
X-28587890Y134024111D01*
X-28588992Y134025546D01*
X-28733293Y134241508D01*
X-28734198Y134243078D01*
X-28838275Y134454125D01*
X-28838364Y134454313D01*
X-28851579Y134483249D01*
X-28852079Y134484510D01*
X-28922213Y134691119D01*
X-28922364Y134691594D01*
X-28936565Y134739959D01*
X-28936850Y134741119D01*
X-28977646Y134946207D01*
X-28977752Y134946825D01*
X-28986090Y135004815D01*
X-28986197Y135005851D01*
X-29001671Y135241911D01*
X-29001700Y135242821D01*
X-29001700Y137242208D01*
X-20202700Y137242208D01*
X-20202700Y135341792D01*
X-20202408Y135341500D01*
X-20202407Y135341500D01*
X198008Y135341500D01*
X198300Y135341792D01*
X198300Y137242208D01*
X39797300Y137242208D01*
X39797300Y135341792D01*
X39797592Y135341500D01*
X39797593Y135341500D01*
X60198008Y135341500D01*
X60198300Y135341792D01*
X60198300Y137242208D01*
X99797300Y137242208D01*
X99797300Y135341792D01*
X99797592Y135341500D01*
X99797593Y135341500D01*
X120198008Y135341500D01*
X120198300Y135341792D01*
X120198300Y137242208D01*
X120198008Y137242500D01*
X120198007Y137242500D01*
X99798007Y137242500D01*
X99797593Y137242500D01*
X99797592Y137242500D01*
X99797300Y137242208D01*
X60198300Y137242208D01*
X60198008Y137242500D01*
X60198007Y137242500D01*
X39798007Y137242500D01*
X39797593Y137242500D01*
X39797592Y137242500D01*
X39797300Y137242208D01*
X198300Y137242208D01*
X198008Y137242500D01*
X198007Y137242500D01*
X-20201993Y137242500D01*
X-20202407Y137242500D01*
X-20202408Y137242500D01*
X-20202700Y137242208D01*
X-29001700Y137242208D01*
X-29001700Y162442208D01*
X-26902700Y162442208D01*
X-26902700Y142041792D01*
X-26902408Y142041500D01*
X-26902407Y142041500D01*
X-25001992Y142041500D01*
X-25001700Y142041792D01*
X-25001700Y150840416D01*
X67747300Y150840416D01*
X67747300Y150643583D01*
X67778091Y150449173D01*
X67838916Y150261972D01*
X67928274Y150086598D01*
X67928284Y150086582D01*
X68043970Y149927355D01*
X68043977Y149927347D01*
X68183147Y149788177D01*
X68183155Y149788170D01*
X68342382Y149672484D01*
X68342398Y149672474D01*
X68517772Y149583116D01*
X68704973Y149522291D01*
X68899383Y149491500D01*
X69096217Y149491500D01*
X69290626Y149522291D01*
X69477827Y149583116D01*
X69653201Y149672474D01*
X69653205Y149672476D01*
X69653209Y149672479D01*
X69653217Y149672484D01*
X69812444Y149788170D01*
X69812452Y149788177D01*
X69951622Y149927347D01*
X69951629Y149927355D01*
X70067315Y150086582D01*
X70067317Y150086586D01*
X70067324Y150086595D01*
X70112004Y150174285D01*
X70156683Y150261972D01*
X70156684Y150261975D01*
X70217509Y150449174D01*
X70248300Y150643583D01*
X70248300Y150840416D01*
X71747300Y150840416D01*
X71747300Y150643583D01*
X71778091Y150449173D01*
X71838916Y150261972D01*
X71928274Y150086598D01*
X71928284Y150086582D01*
X72043970Y149927355D01*
X72043977Y149927347D01*
X72183147Y149788177D01*
X72183155Y149788170D01*
X72342382Y149672484D01*
X72342398Y149672474D01*
X72517772Y149583116D01*
X72704973Y149522291D01*
X72899383Y149491500D01*
X73096217Y149491500D01*
X73290626Y149522291D01*
X73477827Y149583116D01*
X73653201Y149672474D01*
X73653205Y149672476D01*
X73653209Y149672479D01*
X73653217Y149672484D01*
X73812444Y149788170D01*
X73812452Y149788177D01*
X73951622Y149927347D01*
X73951629Y149927355D01*
X74067315Y150086582D01*
X74067317Y150086586D01*
X74067324Y150086595D01*
X74112004Y150174285D01*
X74156683Y150261972D01*
X74156684Y150261975D01*
X74217509Y150449174D01*
X74248300Y150643583D01*
X74248300Y150840416D01*
X75747300Y150840416D01*
X75747300Y150643583D01*
X75778091Y150449173D01*
X75838916Y150261972D01*
X75928274Y150086598D01*
X75928284Y150086582D01*
X76043970Y149927355D01*
X76043977Y149927347D01*
X76183147Y149788177D01*
X76183155Y149788170D01*
X76342382Y149672484D01*
X76342398Y149672474D01*
X76517772Y149583116D01*
X76704973Y149522291D01*
X76899383Y149491500D01*
X77096217Y149491500D01*
X77290626Y149522291D01*
X77477827Y149583116D01*
X77653201Y149672474D01*
X77653205Y149672476D01*
X77653209Y149672479D01*
X77653217Y149672484D01*
X77812444Y149788170D01*
X77812452Y149788177D01*
X77951622Y149927347D01*
X77951629Y149927355D01*
X78067315Y150086582D01*
X78067317Y150086586D01*
X78067324Y150086595D01*
X78112004Y150174285D01*
X78156683Y150261972D01*
X78156684Y150261975D01*
X78217509Y150449174D01*
X78248300Y150643583D01*
X78248300Y150840416D01*
X79747300Y150840416D01*
X79747300Y150643583D01*
X79778091Y150449173D01*
X79838916Y150261972D01*
X79928274Y150086598D01*
X79928284Y150086582D01*
X80043970Y149927355D01*
X80043977Y149927347D01*
X80183147Y149788177D01*
X80183155Y149788170D01*
X80342382Y149672484D01*
X80342398Y149672474D01*
X80517772Y149583116D01*
X80704973Y149522291D01*
X80899383Y149491500D01*
X81096217Y149491500D01*
X81290626Y149522291D01*
X81477827Y149583116D01*
X81653201Y149672474D01*
X81653205Y149672476D01*
X81653209Y149672479D01*
X81653217Y149672484D01*
X81812444Y149788170D01*
X81812452Y149788177D01*
X81951622Y149927347D01*
X81951629Y149927355D01*
X82067315Y150086582D01*
X82067317Y150086586D01*
X82067324Y150086595D01*
X82112004Y150174285D01*
X82156683Y150261972D01*
X82156684Y150261975D01*
X82217509Y150449174D01*
X82248300Y150643583D01*
X82248300Y150840417D01*
X82217509Y151034826D01*
X82156684Y151222025D01*
X82067324Y151397405D01*
X81951628Y151556646D01*
X81812446Y151695828D01*
X81653205Y151811524D01*
X81477825Y151900884D01*
X81290626Y151961709D01*
X81096217Y151992500D01*
X80899383Y151992500D01*
X80704974Y151961709D01*
X80517775Y151900884D01*
X80517772Y151900883D01*
X80430085Y151856204D01*
X80342395Y151811524D01*
X80342386Y151811517D01*
X80342382Y151811515D01*
X80183155Y151695829D01*
X80183147Y151695822D01*
X80043977Y151556652D01*
X80043970Y151556644D01*
X79928284Y151397417D01*
X79928274Y151397401D01*
X79838916Y151222027D01*
X79778091Y151034826D01*
X79747300Y150840416D01*
X78248300Y150840416D01*
X78248300Y150840417D01*
X78217509Y151034826D01*
X78156684Y151222025D01*
X78067324Y151397405D01*
X77951628Y151556646D01*
X77812446Y151695828D01*
X77653205Y151811524D01*
X77477825Y151900884D01*
X77290626Y151961709D01*
X77096217Y151992500D01*
X76899383Y151992500D01*
X76704974Y151961709D01*
X76517775Y151900884D01*
X76517772Y151900883D01*
X76430085Y151856204D01*
X76342395Y151811524D01*
X76342386Y151811517D01*
X76342382Y151811515D01*
X76183155Y151695829D01*
X76183147Y151695822D01*
X76043977Y151556652D01*
X76043970Y151556644D01*
X75928284Y151397417D01*
X75928274Y151397401D01*
X75838916Y151222027D01*
X75778091Y151034826D01*
X75747300Y150840416D01*
X74248300Y150840416D01*
X74248300Y150840417D01*
X74217509Y151034826D01*
X74156684Y151222025D01*
X74067324Y151397405D01*
X73951628Y151556646D01*
X73812446Y151695828D01*
X73653205Y151811524D01*
X73477825Y151900884D01*
X73290626Y151961709D01*
X73096217Y151992500D01*
X72899383Y151992500D01*
X72704974Y151961709D01*
X72517775Y151900884D01*
X72517772Y151900883D01*
X72430085Y151856204D01*
X72342395Y151811524D01*
X72342386Y151811517D01*
X72342382Y151811515D01*
X72183155Y151695829D01*
X72183147Y151695822D01*
X72043977Y151556652D01*
X72043970Y151556644D01*
X71928284Y151397417D01*
X71928274Y151397401D01*
X71838916Y151222027D01*
X71778091Y151034826D01*
X71747300Y150840416D01*
X70248300Y150840416D01*
X70248300Y150840417D01*
X70217509Y151034826D01*
X70156684Y151222025D01*
X70067324Y151397405D01*
X69951628Y151556646D01*
X69812446Y151695828D01*
X69653205Y151811524D01*
X69477825Y151900884D01*
X69290626Y151961709D01*
X69096217Y151992500D01*
X68899383Y151992500D01*
X68704974Y151961709D01*
X68517775Y151900884D01*
X68517772Y151900883D01*
X68430085Y151856204D01*
X68342395Y151811524D01*
X68342386Y151811517D01*
X68342382Y151811515D01*
X68183155Y151695829D01*
X68183147Y151695822D01*
X68043977Y151556652D01*
X68043970Y151556644D01*
X67928284Y151397417D01*
X67928274Y151397401D01*
X67838916Y151222027D01*
X67778091Y151034826D01*
X67747300Y150840416D01*
X-25001700Y150840416D01*
X-25001700Y154840416D01*
X67747300Y154840416D01*
X67747300Y154643583D01*
X67778091Y154449173D01*
X67838916Y154261972D01*
X67928274Y154086598D01*
X67928284Y154086582D01*
X68043970Y153927355D01*
X68043977Y153927347D01*
X68183147Y153788177D01*
X68183155Y153788170D01*
X68342382Y153672484D01*
X68342398Y153672474D01*
X68517772Y153583116D01*
X68704973Y153522291D01*
X68899383Y153491500D01*
X69096217Y153491500D01*
X69290626Y153522291D01*
X69477827Y153583116D01*
X69653201Y153672474D01*
X69653205Y153672476D01*
X69653209Y153672479D01*
X69653217Y153672484D01*
X69812444Y153788170D01*
X69812452Y153788177D01*
X69951622Y153927347D01*
X69951629Y153927355D01*
X70067315Y154086582D01*
X70067317Y154086586D01*
X70067324Y154086595D01*
X70112004Y154174285D01*
X70156683Y154261972D01*
X70156684Y154261975D01*
X70217509Y154449174D01*
X70248300Y154643583D01*
X70248300Y154840416D01*
X71747300Y154840416D01*
X71747300Y154643583D01*
X71778091Y154449173D01*
X71838916Y154261972D01*
X71928274Y154086598D01*
X71928284Y154086582D01*
X72043970Y153927355D01*
X72043977Y153927347D01*
X72183147Y153788177D01*
X72183155Y153788170D01*
X72342382Y153672484D01*
X72342398Y153672474D01*
X72517772Y153583116D01*
X72704973Y153522291D01*
X72899383Y153491500D01*
X73096217Y153491500D01*
X73290626Y153522291D01*
X73477827Y153583116D01*
X73653201Y153672474D01*
X73653205Y153672476D01*
X73653209Y153672479D01*
X73653217Y153672484D01*
X73812444Y153788170D01*
X73812452Y153788177D01*
X73951622Y153927347D01*
X73951629Y153927355D01*
X74067315Y154086582D01*
X74067317Y154086586D01*
X74067324Y154086595D01*
X74112004Y154174285D01*
X74156683Y154261972D01*
X74156684Y154261975D01*
X74217509Y154449174D01*
X74248300Y154643583D01*
X74248300Y154840416D01*
X75747300Y154840416D01*
X75747300Y154643583D01*
X75778091Y154449173D01*
X75838916Y154261972D01*
X75928274Y154086598D01*
X75928284Y154086582D01*
X76043970Y153927355D01*
X76043977Y153927347D01*
X76183147Y153788177D01*
X76183155Y153788170D01*
X76342382Y153672484D01*
X76342398Y153672474D01*
X76517772Y153583116D01*
X76704973Y153522291D01*
X76899383Y153491500D01*
X77096217Y153491500D01*
X77290626Y153522291D01*
X77477827Y153583116D01*
X77653201Y153672474D01*
X77653205Y153672476D01*
X77653209Y153672479D01*
X77653217Y153672484D01*
X77812444Y153788170D01*
X77812452Y153788177D01*
X77951622Y153927347D01*
X77951629Y153927355D01*
X78067315Y154086582D01*
X78067317Y154086586D01*
X78067324Y154086595D01*
X78112004Y154174285D01*
X78156683Y154261972D01*
X78156684Y154261975D01*
X78217509Y154449174D01*
X78248300Y154643583D01*
X78248300Y154840416D01*
X79747300Y154840416D01*
X79747300Y154643583D01*
X79778091Y154449173D01*
X79838916Y154261972D01*
X79928274Y154086598D01*
X79928284Y154086582D01*
X80043970Y153927355D01*
X80043977Y153927347D01*
X80183147Y153788177D01*
X80183155Y153788170D01*
X80342382Y153672484D01*
X80342398Y153672474D01*
X80517772Y153583116D01*
X80704973Y153522291D01*
X80899383Y153491500D01*
X81096217Y153491500D01*
X81290626Y153522291D01*
X81477827Y153583116D01*
X81653201Y153672474D01*
X81653205Y153672476D01*
X81653209Y153672479D01*
X81653217Y153672484D01*
X81812444Y153788170D01*
X81812452Y153788177D01*
X81951622Y153927347D01*
X81951629Y153927355D01*
X82067315Y154086582D01*
X82067317Y154086586D01*
X82067324Y154086595D01*
X82112004Y154174285D01*
X82156683Y154261972D01*
X82156684Y154261975D01*
X82217509Y154449174D01*
X82248300Y154643583D01*
X82248300Y154840417D01*
X82217509Y155034826D01*
X82156684Y155222025D01*
X82067324Y155397405D01*
X81951628Y155556646D01*
X81812446Y155695828D01*
X81653205Y155811524D01*
X81477825Y155900884D01*
X81290626Y155961709D01*
X81096217Y155992500D01*
X80899383Y155992500D01*
X80704974Y155961709D01*
X80517775Y155900884D01*
X80517772Y155900883D01*
X80430085Y155856204D01*
X80342395Y155811524D01*
X80342386Y155811517D01*
X80342382Y155811515D01*
X80183155Y155695829D01*
X80183147Y155695822D01*
X80043977Y155556652D01*
X80043970Y155556644D01*
X79928284Y155397417D01*
X79928274Y155397401D01*
X79838916Y155222027D01*
X79778091Y155034826D01*
X79747300Y154840416D01*
X78248300Y154840416D01*
X78248300Y154840417D01*
X78217509Y155034826D01*
X78156684Y155222025D01*
X78067324Y155397405D01*
X77951628Y155556646D01*
X77812446Y155695828D01*
X77653205Y155811524D01*
X77477825Y155900884D01*
X77290626Y155961709D01*
X77096217Y155992500D01*
X76899383Y155992500D01*
X76704974Y155961709D01*
X76517775Y155900884D01*
X76517772Y155900883D01*
X76430085Y155856204D01*
X76342395Y155811524D01*
X76342386Y155811517D01*
X76342382Y155811515D01*
X76183155Y155695829D01*
X76183147Y155695822D01*
X76043977Y155556652D01*
X76043970Y155556644D01*
X75928284Y155397417D01*
X75928274Y155397401D01*
X75838916Y155222027D01*
X75778091Y155034826D01*
X75747300Y154840416D01*
X74248300Y154840416D01*
X74248300Y154840417D01*
X74217509Y155034826D01*
X74156684Y155222025D01*
X74067324Y155397405D01*
X73951628Y155556646D01*
X73812446Y155695828D01*
X73653205Y155811524D01*
X73477825Y155900884D01*
X73290626Y155961709D01*
X73096217Y155992500D01*
X72899383Y155992500D01*
X72704974Y155961709D01*
X72517775Y155900884D01*
X72517772Y155900883D01*
X72430085Y155856204D01*
X72342395Y155811524D01*
X72342386Y155811517D01*
X72342382Y155811515D01*
X72183155Y155695829D01*
X72183147Y155695822D01*
X72043977Y155556652D01*
X72043970Y155556644D01*
X71928284Y155397417D01*
X71928274Y155397401D01*
X71838916Y155222027D01*
X71778091Y155034826D01*
X71747300Y154840416D01*
X70248300Y154840416D01*
X70248300Y154840417D01*
X70217509Y155034826D01*
X70156684Y155222025D01*
X70067324Y155397405D01*
X69951628Y155556646D01*
X69812446Y155695828D01*
X69653205Y155811524D01*
X69477825Y155900884D01*
X69290626Y155961709D01*
X69096217Y155992500D01*
X68899383Y155992500D01*
X68704974Y155961709D01*
X68517775Y155900884D01*
X68517772Y155900883D01*
X68430085Y155856204D01*
X68342395Y155811524D01*
X68342386Y155811517D01*
X68342382Y155811515D01*
X68183155Y155695829D01*
X68183147Y155695822D01*
X68043977Y155556652D01*
X68043970Y155556644D01*
X67928284Y155397417D01*
X67928274Y155397401D01*
X67838916Y155222027D01*
X67778091Y155034826D01*
X67747300Y154840416D01*
X-25001700Y154840416D01*
X-25001700Y158840416D01*
X67747300Y158840416D01*
X67747300Y158643583D01*
X67778091Y158449173D01*
X67838916Y158261972D01*
X67928274Y158086598D01*
X67928284Y158086582D01*
X68043970Y157927355D01*
X68043977Y157927347D01*
X68183147Y157788177D01*
X68183155Y157788170D01*
X68342382Y157672484D01*
X68342398Y157672474D01*
X68517772Y157583116D01*
X68704973Y157522291D01*
X68899383Y157491500D01*
X69096217Y157491500D01*
X69290626Y157522291D01*
X69477827Y157583116D01*
X69653201Y157672474D01*
X69653205Y157672476D01*
X69653209Y157672479D01*
X69653217Y157672484D01*
X69812444Y157788170D01*
X69812452Y157788177D01*
X69951622Y157927347D01*
X69951629Y157927355D01*
X70067315Y158086582D01*
X70067317Y158086586D01*
X70067324Y158086595D01*
X70112004Y158174285D01*
X70156683Y158261972D01*
X70156684Y158261975D01*
X70217509Y158449174D01*
X70248300Y158643583D01*
X70248300Y158840416D01*
X71747300Y158840416D01*
X71747300Y158643583D01*
X71778091Y158449173D01*
X71838916Y158261972D01*
X71928274Y158086598D01*
X71928284Y158086582D01*
X72043970Y157927355D01*
X72043977Y157927347D01*
X72183147Y157788177D01*
X72183155Y157788170D01*
X72342382Y157672484D01*
X72342398Y157672474D01*
X72517772Y157583116D01*
X72704973Y157522291D01*
X72899383Y157491500D01*
X73096217Y157491500D01*
X73290626Y157522291D01*
X73477827Y157583116D01*
X73653201Y157672474D01*
X73653205Y157672476D01*
X73653209Y157672479D01*
X73653217Y157672484D01*
X73812444Y157788170D01*
X73812452Y157788177D01*
X73951622Y157927347D01*
X73951629Y157927355D01*
X74067315Y158086582D01*
X74067317Y158086586D01*
X74067324Y158086595D01*
X74112004Y158174285D01*
X74156683Y158261972D01*
X74156684Y158261975D01*
X74217509Y158449174D01*
X74248300Y158643583D01*
X74248300Y158840416D01*
X75747300Y158840416D01*
X75747300Y158643583D01*
X75778091Y158449173D01*
X75838916Y158261972D01*
X75928274Y158086598D01*
X75928284Y158086582D01*
X76043970Y157927355D01*
X76043977Y157927347D01*
X76183147Y157788177D01*
X76183155Y157788170D01*
X76342382Y157672484D01*
X76342398Y157672474D01*
X76517772Y157583116D01*
X76704973Y157522291D01*
X76899383Y157491500D01*
X77096217Y157491500D01*
X77290626Y157522291D01*
X77477827Y157583116D01*
X77653201Y157672474D01*
X77653205Y157672476D01*
X77653209Y157672479D01*
X77653217Y157672484D01*
X77812444Y157788170D01*
X77812452Y157788177D01*
X77951622Y157927347D01*
X77951629Y157927355D01*
X78067315Y158086582D01*
X78067317Y158086586D01*
X78067324Y158086595D01*
X78112004Y158174285D01*
X78156683Y158261972D01*
X78156684Y158261975D01*
X78217509Y158449174D01*
X78248300Y158643583D01*
X78248300Y158840416D01*
X79747300Y158840416D01*
X79747300Y158643583D01*
X79778091Y158449173D01*
X79838916Y158261972D01*
X79928274Y158086598D01*
X79928284Y158086582D01*
X80043970Y157927355D01*
X80043977Y157927347D01*
X80183147Y157788177D01*
X80183155Y157788170D01*
X80342382Y157672484D01*
X80342398Y157672474D01*
X80517772Y157583116D01*
X80704973Y157522291D01*
X80899383Y157491500D01*
X81096217Y157491500D01*
X81290626Y157522291D01*
X81477827Y157583116D01*
X81653201Y157672474D01*
X81653205Y157672476D01*
X81653209Y157672479D01*
X81653217Y157672484D01*
X81812444Y157788170D01*
X81812452Y157788177D01*
X81951622Y157927347D01*
X81951629Y157927355D01*
X82067315Y158086582D01*
X82067317Y158086586D01*
X82067324Y158086595D01*
X82112004Y158174285D01*
X82156683Y158261972D01*
X82156684Y158261975D01*
X82217509Y158449174D01*
X82248300Y158643583D01*
X82248300Y158840417D01*
X82217509Y159034826D01*
X82156684Y159222025D01*
X82067324Y159397405D01*
X81951628Y159556646D01*
X81812446Y159695828D01*
X81653205Y159811524D01*
X81477825Y159900884D01*
X81290626Y159961709D01*
X81096217Y159992500D01*
X80899383Y159992500D01*
X80704974Y159961709D01*
X80517775Y159900884D01*
X80517772Y159900883D01*
X80430085Y159856204D01*
X80342395Y159811524D01*
X80342386Y159811517D01*
X80342382Y159811515D01*
X80183155Y159695829D01*
X80183147Y159695822D01*
X80043977Y159556652D01*
X80043970Y159556644D01*
X79928284Y159397417D01*
X79928274Y159397401D01*
X79838916Y159222027D01*
X79778091Y159034826D01*
X79747300Y158840416D01*
X78248300Y158840416D01*
X78248300Y158840417D01*
X78217509Y159034826D01*
X78156684Y159222025D01*
X78067324Y159397405D01*
X77951628Y159556646D01*
X77812446Y159695828D01*
X77653205Y159811524D01*
X77477825Y159900884D01*
X77290626Y159961709D01*
X77096217Y159992500D01*
X76899383Y159992500D01*
X76704974Y159961709D01*
X76517775Y159900884D01*
X76517772Y159900883D01*
X76430085Y159856204D01*
X76342395Y159811524D01*
X76342386Y159811517D01*
X76342382Y159811515D01*
X76183155Y159695829D01*
X76183147Y159695822D01*
X76043977Y159556652D01*
X76043970Y159556644D01*
X75928284Y159397417D01*
X75928274Y159397401D01*
X75838916Y159222027D01*
X75778091Y159034826D01*
X75747300Y158840416D01*
X74248300Y158840416D01*
X74248300Y158840417D01*
X74217509Y159034826D01*
X74156684Y159222025D01*
X74067324Y159397405D01*
X73951628Y159556646D01*
X73812446Y159695828D01*
X73653205Y159811524D01*
X73477825Y159900884D01*
X73290626Y159961709D01*
X73096217Y159992500D01*
X72899383Y159992500D01*
X72704974Y159961709D01*
X72517775Y159900884D01*
X72517772Y159900883D01*
X72430085Y159856204D01*
X72342395Y159811524D01*
X72342386Y159811517D01*
X72342382Y159811515D01*
X72183155Y159695829D01*
X72183147Y159695822D01*
X72043977Y159556652D01*
X72043970Y159556644D01*
X71928284Y159397417D01*
X71928274Y159397401D01*
X71838916Y159222027D01*
X71778091Y159034826D01*
X71747300Y158840416D01*
X70248300Y158840416D01*
X70248300Y158840417D01*
X70217509Y159034826D01*
X70156684Y159222025D01*
X70067324Y159397405D01*
X69951628Y159556646D01*
X69812446Y159695828D01*
X69653205Y159811524D01*
X69477825Y159900884D01*
X69290626Y159961709D01*
X69096217Y159992500D01*
X68899383Y159992500D01*
X68704974Y159961709D01*
X68517775Y159900884D01*
X68517772Y159900883D01*
X68430085Y159856204D01*
X68342395Y159811524D01*
X68342386Y159811517D01*
X68342382Y159811515D01*
X68183155Y159695829D01*
X68183147Y159695822D01*
X68043977Y159556652D01*
X68043970Y159556644D01*
X67928284Y159397417D01*
X67928274Y159397401D01*
X67838916Y159222027D01*
X67778091Y159034826D01*
X67747300Y158840416D01*
X-25001700Y158840416D01*
X-25001700Y162442208D01*
X-25001992Y162442500D01*
X-25001993Y162442500D01*
X-26901993Y162442500D01*
X-26902407Y162442500D01*
X-26902408Y162442500D01*
X-26902700Y162442208D01*
X-29001700Y162442208D01*
X-29001700Y162840416D01*
X67747300Y162840416D01*
X67747300Y162643583D01*
X67778091Y162449173D01*
X67838916Y162261972D01*
X67928274Y162086598D01*
X67928284Y162086582D01*
X68043970Y161927355D01*
X68043977Y161927347D01*
X68183147Y161788177D01*
X68183155Y161788170D01*
X68342382Y161672484D01*
X68342398Y161672474D01*
X68517772Y161583116D01*
X68704973Y161522291D01*
X68899383Y161491500D01*
X69096217Y161491500D01*
X69290626Y161522291D01*
X69477827Y161583116D01*
X69653201Y161672474D01*
X69653205Y161672476D01*
X69653209Y161672479D01*
X69653217Y161672484D01*
X69812444Y161788170D01*
X69812452Y161788177D01*
X69951622Y161927347D01*
X69951629Y161927355D01*
X70067315Y162086582D01*
X70067317Y162086586D01*
X70067324Y162086595D01*
X70112004Y162174285D01*
X70156683Y162261972D01*
X70156684Y162261975D01*
X70217509Y162449174D01*
X70248300Y162643583D01*
X70248300Y162840416D01*
X71747300Y162840416D01*
X71747300Y162643583D01*
X71778091Y162449173D01*
X71838916Y162261972D01*
X71928274Y162086598D01*
X71928284Y162086582D01*
X72043970Y161927355D01*
X72043977Y161927347D01*
X72183147Y161788177D01*
X72183155Y161788170D01*
X72342382Y161672484D01*
X72342398Y161672474D01*
X72517772Y161583116D01*
X72704973Y161522291D01*
X72899383Y161491500D01*
X73096217Y161491500D01*
X73290626Y161522291D01*
X73477827Y161583116D01*
X73653201Y161672474D01*
X73653205Y161672476D01*
X73653209Y161672479D01*
X73653217Y161672484D01*
X73812444Y161788170D01*
X73812452Y161788177D01*
X73951622Y161927347D01*
X73951629Y161927355D01*
X74067315Y162086582D01*
X74067317Y162086586D01*
X74067324Y162086595D01*
X74112004Y162174285D01*
X74156683Y162261972D01*
X74156684Y162261975D01*
X74217509Y162449174D01*
X74248300Y162643583D01*
X74248300Y162840416D01*
X75747300Y162840416D01*
X75747300Y162643583D01*
X75778091Y162449173D01*
X75838916Y162261972D01*
X75928274Y162086598D01*
X75928284Y162086582D01*
X76043970Y161927355D01*
X76043977Y161927347D01*
X76183147Y161788177D01*
X76183155Y161788170D01*
X76342382Y161672484D01*
X76342398Y161672474D01*
X76517772Y161583116D01*
X76704973Y161522291D01*
X76899383Y161491500D01*
X77096217Y161491500D01*
X77290626Y161522291D01*
X77477827Y161583116D01*
X77653201Y161672474D01*
X77653205Y161672476D01*
X77653209Y161672479D01*
X77653217Y161672484D01*
X77812444Y161788170D01*
X77812452Y161788177D01*
X77951622Y161927347D01*
X77951629Y161927355D01*
X78067315Y162086582D01*
X78067317Y162086586D01*
X78067324Y162086595D01*
X78112004Y162174285D01*
X78156683Y162261972D01*
X78156684Y162261975D01*
X78217509Y162449174D01*
X78248300Y162643583D01*
X78248300Y162840416D01*
X79747300Y162840416D01*
X79747300Y162643583D01*
X79778091Y162449173D01*
X79838916Y162261972D01*
X79928274Y162086598D01*
X79928284Y162086582D01*
X80043970Y161927355D01*
X80043977Y161927347D01*
X80183147Y161788177D01*
X80183155Y161788170D01*
X80342382Y161672484D01*
X80342398Y161672474D01*
X80517772Y161583116D01*
X80704973Y161522291D01*
X80899383Y161491500D01*
X81096217Y161491500D01*
X81290626Y161522291D01*
X81477827Y161583116D01*
X81653201Y161672474D01*
X81653205Y161672476D01*
X81653209Y161672479D01*
X81653217Y161672484D01*
X81812444Y161788170D01*
X81812452Y161788177D01*
X81951622Y161927347D01*
X81951629Y161927355D01*
X82067315Y162086582D01*
X82067317Y162086586D01*
X82067324Y162086595D01*
X82112004Y162174285D01*
X82156683Y162261972D01*
X82215246Y162442208D01*
X124997300Y162442208D01*
X124997300Y142041792D01*
X124997592Y142041500D01*
X124997593Y142041500D01*
X126898008Y142041500D01*
X126898300Y142041792D01*
X126898300Y162442208D01*
X126898008Y162442500D01*
X126898007Y162442500D01*
X124998007Y162442500D01*
X124997593Y162442500D01*
X124997592Y162442500D01*
X124997300Y162442208D01*
X82215246Y162442208D01*
X82217508Y162449171D01*
X82217509Y162449174D01*
X82248300Y162643583D01*
X82248300Y162840417D01*
X82217509Y163034826D01*
X82156684Y163222025D01*
X82067324Y163397405D01*
X81951628Y163556646D01*
X81812446Y163695828D01*
X81653205Y163811524D01*
X81477825Y163900884D01*
X81290626Y163961709D01*
X81096217Y163992500D01*
X80899383Y163992500D01*
X80704974Y163961709D01*
X80517775Y163900884D01*
X80517772Y163900883D01*
X80430085Y163856204D01*
X80342395Y163811524D01*
X80342386Y163811517D01*
X80342382Y163811515D01*
X80183155Y163695829D01*
X80183147Y163695822D01*
X80043977Y163556652D01*
X80043970Y163556644D01*
X79928284Y163397417D01*
X79928274Y163397401D01*
X79838916Y163222027D01*
X79778091Y163034826D01*
X79747300Y162840416D01*
X78248300Y162840416D01*
X78248300Y162840417D01*
X78217509Y163034826D01*
X78156684Y163222025D01*
X78067324Y163397405D01*
X77951628Y163556646D01*
X77812446Y163695828D01*
X77653205Y163811524D01*
X77477825Y163900884D01*
X77290626Y163961709D01*
X77096217Y163992500D01*
X76899383Y163992500D01*
X76704974Y163961709D01*
X76517775Y163900884D01*
X76517772Y163900883D01*
X76430085Y163856204D01*
X76342395Y163811524D01*
X76342386Y163811517D01*
X76342382Y163811515D01*
X76183155Y163695829D01*
X76183147Y163695822D01*
X76043977Y163556652D01*
X76043970Y163556644D01*
X75928284Y163397417D01*
X75928274Y163397401D01*
X75838916Y163222027D01*
X75778091Y163034826D01*
X75747300Y162840416D01*
X74248300Y162840416D01*
X74248300Y162840417D01*
X74217509Y163034826D01*
X74156684Y163222025D01*
X74067324Y163397405D01*
X73951628Y163556646D01*
X73812446Y163695828D01*
X73653205Y163811524D01*
X73477825Y163900884D01*
X73290626Y163961709D01*
X73096217Y163992500D01*
X72899383Y163992500D01*
X72704974Y163961709D01*
X72517775Y163900884D01*
X72517772Y163900883D01*
X72430085Y163856204D01*
X72342395Y163811524D01*
X72342386Y163811517D01*
X72342382Y163811515D01*
X72183155Y163695829D01*
X72183147Y163695822D01*
X72043977Y163556652D01*
X72043970Y163556644D01*
X71928284Y163397417D01*
X71928274Y163397401D01*
X71838916Y163222027D01*
X71778091Y163034826D01*
X71747300Y162840416D01*
X70248300Y162840416D01*
X70248300Y162840417D01*
X70217509Y163034826D01*
X70156684Y163222025D01*
X70067324Y163397405D01*
X69951628Y163556646D01*
X69812446Y163695828D01*
X69653205Y163811524D01*
X69477825Y163900884D01*
X69290626Y163961709D01*
X69096217Y163992500D01*
X68899383Y163992500D01*
X68704974Y163961709D01*
X68517775Y163900884D01*
X68517772Y163900883D01*
X68430085Y163856204D01*
X68342395Y163811524D01*
X68342386Y163811517D01*
X68342382Y163811515D01*
X68183155Y163695829D01*
X68183147Y163695822D01*
X68043977Y163556652D01*
X68043970Y163556644D01*
X67928284Y163397417D01*
X67928274Y163397401D01*
X67838916Y163222027D01*
X67778091Y163034826D01*
X67747300Y162840416D01*
X-29001700Y162840416D01*
X-29001700Y224442208D01*
X-26902700Y224442208D01*
X-26902700Y204041792D01*
X-26902408Y204041500D01*
X-26902407Y204041500D01*
X-25001992Y204041500D01*
X-25001700Y204041792D01*
X-25001700Y224442208D01*
X124997300Y224442208D01*
X124997300Y204041792D01*
X124997592Y204041500D01*
X124997593Y204041500D01*
X126898008Y204041500D01*
X126898300Y204041792D01*
X126898300Y224442208D01*
X126898008Y224442500D01*
X126898007Y224442500D01*
X124998007Y224442500D01*
X124997593Y224442500D01*
X124997592Y224442500D01*
X124997300Y224442208D01*
X-25001700Y224442208D01*
X-25001992Y224442500D01*
X-25001993Y224442500D01*
X-26901993Y224442500D01*
X-26902407Y224442500D01*
X-26902408Y224442500D01*
X-26902700Y224442208D01*
X-29001700Y224442208D01*
X-29001700Y231142208D01*
X-20202700Y231142208D01*
X-20202700Y229241792D01*
X-20202408Y229241500D01*
X-20202407Y229241500D01*
X198008Y229241500D01*
X198300Y229241792D01*
X198300Y231142208D01*
X39797300Y231142208D01*
X39797300Y229241792D01*
X39797592Y229241500D01*
X39797593Y229241500D01*
X60198008Y229241500D01*
X60198300Y229241792D01*
X60198300Y231142208D01*
X99797300Y231142208D01*
X99797300Y229241792D01*
X99797592Y229241500D01*
X99797593Y229241500D01*
X120198008Y229241500D01*
X120198300Y229241792D01*
X120198300Y231142208D01*
X120198008Y231142500D01*
X120198007Y231142500D01*
X99798007Y231142500D01*
X99797593Y231142500D01*
X99797592Y231142500D01*
X99797300Y231142208D01*
X60198300Y231142208D01*
X60198008Y231142500D01*
X60198007Y231142500D01*
X39798007Y231142500D01*
X39797593Y231142500D01*
X39797592Y231142500D01*
X39797300Y231142208D01*
X198300Y231142208D01*
X198008Y231142500D01*
X198007Y231142500D01*
X-20201993Y231142500D01*
X-20202407Y231142500D01*
X-20202408Y231142500D01*
X-20202700Y231142208D01*
X-29001700Y231142208D01*
X-29001700Y231241542D01*
X-29001670Y231242457D01*
X-28993107Y231373123D01*
X-28986289Y231477170D01*
X-28986180Y231478212D01*
X-28977505Y231538551D01*
X-28977392Y231539208D01*
X-28937045Y231742054D01*
X-28936759Y231743221D01*
X-28921811Y231794132D01*
X-28921655Y231794625D01*
X-28852354Y231998784D01*
X-28851844Y232000070D01*
X-28837289Y232031942D01*
X-28837146Y232032243D01*
X-28734231Y232240939D01*
X-28733317Y232242523D01*
X-28589027Y232458474D01*
X-28587912Y232459927D01*
X-28416672Y232655192D01*
X-28415377Y232656487D01*
X-28220112Y232827735D01*
X-28218659Y232828849D01*
X-28002722Y232973139D01*
X-28001136Y232974055D01*
X-28001111Y232974067D01*
X-27792489Y233076952D01*
X-27792113Y233077131D01*
X-27760279Y233091669D01*
X-27758963Y233092191D01*
X-27554876Y233161473D01*
X-27554321Y233161649D01*
X-27503438Y233176591D01*
X-27502224Y233176889D01*
X-27299424Y233217232D01*
X-27298686Y233217358D01*
X-27238450Y233226020D01*
X-27237373Y233226133D01*
X-27003451Y233241470D01*
X-27002535Y233241500D01*
X-27002407Y233241500D01*
X-27002200Y233241500D01*
X-27001700Y233241500D01*
X126997300Y233241500D01*
X126997343Y233241500D01*
X126998258Y233241470D01*
G37*
%TD.AperFunction*%
%TD*%
%TA.AperFunction,Conductor*%
%TO.N,g*%
G36*
X-1001594Y115041447D02*
G01*
X-843445Y115027615D01*
X-841934Y115027399D01*
X-806408Y115020334D01*
X-805516Y115020126D01*
X-667311Y114983099D01*
X-665577Y114982510D01*
X-643539Y114973382D01*
X-642980Y114973136D01*
X-503550Y114908123D01*
X-501436Y114906903D01*
X-360720Y114808376D01*
X-358851Y114806808D01*
X-237383Y114685343D01*
X-235814Y114683473D01*
X-137286Y114542763D01*
X-136066Y114540650D01*
X-71041Y114401199D01*
X-70795Y114400640D01*
X-61676Y114378626D01*
X-61087Y114376891D01*
X-24054Y114238681D01*
X-23846Y114237789D01*
X-16780Y114202267D01*
X-16564Y114200756D01*
X-2753Y114042875D01*
X-2700Y114041655D01*
X-2700Y113441792D01*
X-2408Y113441500D01*
X-2407Y113441500D01*
X39998008Y113441500D01*
X39998300Y113441792D01*
X39998300Y114041385D01*
X39998353Y114042605D01*
X40005957Y114129531D01*
X40012246Y114201427D01*
X40012457Y114202901D01*
X40019191Y114236756D01*
X40019385Y114237586D01*
X40056848Y114377406D01*
X40057435Y114379133D01*
X40065735Y114399170D01*
X40065981Y114399729D01*
X40066406Y114400640D01*
X40131689Y114540636D01*
X40132907Y114542746D01*
X40231433Y114683451D01*
X40233002Y114685321D01*
X40354467Y114806780D01*
X40356336Y114808348D01*
X40497044Y114906866D01*
X40499158Y114908087D01*
X40640096Y114973800D01*
X40640655Y114974045D01*
X40660656Y114982329D01*
X40662390Y114982918D01*
X40802173Y115020366D01*
X40803065Y115020574D01*
X40836882Y115027299D01*
X40838394Y115027515D01*
X40997745Y115041447D01*
X40998964Y115041500D01*
X58997186Y115041500D01*
X58998406Y115041447D01*
X59156555Y115027615D01*
X59158066Y115027399D01*
X59193592Y115020334D01*
X59194484Y115020126D01*
X59332689Y114983099D01*
X59334423Y114982510D01*
X59356461Y114973382D01*
X59357020Y114973136D01*
X59496450Y114908123D01*
X59498564Y114906903D01*
X59639280Y114808376D01*
X59641149Y114806808D01*
X59762617Y114685343D01*
X59764186Y114683473D01*
X59862714Y114542763D01*
X59863934Y114540650D01*
X59928959Y114401199D01*
X59929205Y114400640D01*
X59938324Y114378626D01*
X59938913Y114376891D01*
X59975946Y114238681D01*
X59976154Y114237789D01*
X59983220Y114202267D01*
X59983436Y114200756D01*
X59997247Y114042875D01*
X59997300Y114041655D01*
X59997300Y113441792D01*
X59997592Y113441500D01*
X59997593Y113441500D01*
X99998008Y113441500D01*
X99998300Y113441792D01*
X99998300Y114041385D01*
X99998353Y114042605D01*
X100005957Y114129531D01*
X100012246Y114201427D01*
X100012457Y114202901D01*
X100019191Y114236756D01*
X100019385Y114237586D01*
X100056848Y114377406D01*
X100057435Y114379133D01*
X100065735Y114399170D01*
X100065981Y114399729D01*
X100066406Y114400640D01*
X100131689Y114540636D01*
X100132907Y114542746D01*
X100231433Y114683451D01*
X100233002Y114685321D01*
X100354467Y114806780D01*
X100356336Y114808348D01*
X100497044Y114906866D01*
X100499158Y114908087D01*
X100640096Y114973800D01*
X100640655Y114974045D01*
X100660656Y114982329D01*
X100662390Y114982918D01*
X100802173Y115020366D01*
X100803065Y115020574D01*
X100836882Y115027299D01*
X100838394Y115027515D01*
X100997745Y115041447D01*
X100998964Y115041500D01*
X118997186Y115041500D01*
X118998406Y115041447D01*
X119156555Y115027615D01*
X119158066Y115027399D01*
X119193592Y115020334D01*
X119194484Y115020126D01*
X119332689Y114983099D01*
X119334423Y114982510D01*
X119356461Y114973382D01*
X119357020Y114973136D01*
X119496450Y114908123D01*
X119498564Y114906903D01*
X119639280Y114808376D01*
X119641149Y114806808D01*
X119762617Y114685343D01*
X119764186Y114683473D01*
X119862714Y114542763D01*
X119863934Y114540650D01*
X119928959Y114401199D01*
X119929205Y114400640D01*
X119938324Y114378626D01*
X119938913Y114376891D01*
X119975946Y114238681D01*
X119976154Y114237789D01*
X119983220Y114202267D01*
X119983436Y114200756D01*
X119997247Y114042875D01*
X119997300Y114041655D01*
X119997300Y113441792D01*
X119997592Y113441500D01*
X119997593Y113441500D01*
X119998007Y113441500D01*
X126683300Y113441500D01*
X126693199Y113437399D01*
X126697300Y113427500D01*
X126697300Y81856500D01*
X126693199Y81846601D01*
X126683300Y81842500D01*
X114997592Y81842500D01*
X114997300Y81842208D01*
X114997300Y80256500D01*
X114993199Y80246601D01*
X114983300Y80242500D01*
X95012300Y80242500D01*
X95002401Y80246601D01*
X94998300Y80256500D01*
X94998300Y81842208D01*
X94998008Y81842500D01*
X94998007Y81842500D01*
X59998007Y81842500D01*
X59997593Y81842500D01*
X59997592Y81842500D01*
X59997300Y81842208D01*
X59997300Y80256500D01*
X59993199Y80246601D01*
X59983300Y80242500D01*
X40012300Y80242500D01*
X40002401Y80246601D01*
X39998300Y80256500D01*
X39998300Y81842208D01*
X39998008Y81842500D01*
X39998007Y81842500D01*
X4998007Y81842500D01*
X4997593Y81842500D01*
X4997592Y81842500D01*
X4997300Y81842208D01*
X4997300Y80256500D01*
X4993199Y80246601D01*
X4983300Y80242500D01*
X-14987700Y80242500D01*
X-14997599Y80246601D01*
X-15001700Y80256500D01*
X-15001700Y81842208D01*
X-15001992Y81842500D01*
X-15001993Y81842500D01*
X-26687700Y81842500D01*
X-26697599Y81846601D01*
X-26701700Y81856500D01*
X-26701700Y113427500D01*
X-26697599Y113437399D01*
X-26687700Y113441500D01*
X-20001992Y113441500D01*
X-20001700Y113441792D01*
X-20001700Y114041385D01*
X-20001647Y114042605D01*
X-19994043Y114129531D01*
X-19987754Y114201427D01*
X-19987543Y114202901D01*
X-19980809Y114236756D01*
X-19980615Y114237586D01*
X-19943152Y114377406D01*
X-19942565Y114379133D01*
X-19934265Y114399170D01*
X-19934019Y114399729D01*
X-19933594Y114400640D01*
X-19868311Y114540636D01*
X-19867093Y114542746D01*
X-19768567Y114683451D01*
X-19766998Y114685321D01*
X-19645533Y114806780D01*
X-19643664Y114808348D01*
X-19502956Y114906866D01*
X-19500842Y114908087D01*
X-19359904Y114973800D01*
X-19359345Y114974045D01*
X-19339344Y114982329D01*
X-19337610Y114982918D01*
X-19197827Y115020366D01*
X-19196935Y115020574D01*
X-19163118Y115027299D01*
X-19161606Y115027515D01*
X-19002255Y115041447D01*
X-19001036Y115041500D01*
X-1002814Y115041500D01*
X-1001594Y115041447D01*
G37*
%TD.AperFunction*%
%TD*%
%TA.AperFunction,Conductor*%
%TO.N,g*%
G36*
X-56806801Y229237399D02*
G01*
X-56802700Y229227500D01*
X-56802700Y224241792D01*
X-56802408Y224241500D01*
X-56802407Y224241500D01*
X-56801993Y224241500D01*
X-56202814Y224241500D01*
X-56201594Y224241447D01*
X-56043445Y224227615D01*
X-56041934Y224227399D01*
X-56006408Y224220334D01*
X-56005516Y224220126D01*
X-55867311Y224183099D01*
X-55865577Y224182510D01*
X-55843539Y224173382D01*
X-55842980Y224173136D01*
X-55703550Y224108123D01*
X-55701436Y224106903D01*
X-55560720Y224008376D01*
X-55558851Y224006808D01*
X-55437383Y223885343D01*
X-55435814Y223883473D01*
X-55337286Y223742763D01*
X-55336066Y223740650D01*
X-55271041Y223601199D01*
X-55270795Y223600640D01*
X-55261676Y223578626D01*
X-55261087Y223576891D01*
X-55224054Y223438681D01*
X-55223846Y223437789D01*
X-55216780Y223402267D01*
X-55216564Y223400756D01*
X-55202753Y223242875D01*
X-55202700Y223241655D01*
X-55202700Y205242614D01*
X-55202753Y205241394D01*
X-55216653Y205082557D01*
X-55216869Y205081046D01*
X-55223573Y205047342D01*
X-55223781Y205046449D01*
X-55261268Y204906561D01*
X-55261857Y204904827D01*
X-55270091Y204884949D01*
X-55270337Y204884390D01*
X-55336097Y204743373D01*
X-55337317Y204741260D01*
X-55435843Y204600557D01*
X-55437412Y204598687D01*
X-55558876Y204477229D01*
X-55560745Y204475661D01*
X-55701456Y204377141D01*
X-55703570Y204375921D01*
X-55844601Y204310162D01*
X-55845094Y204309945D01*
X-55865040Y204301683D01*
X-55866758Y204301101D01*
X-56006668Y204263617D01*
X-56007509Y204263421D01*
X-56041273Y204256706D01*
X-56042731Y204256497D01*
X-56202198Y204242552D01*
X-56203400Y204242500D01*
X-56802408Y204242500D01*
X-56802700Y204242208D01*
X-56802700Y162241792D01*
X-56802408Y162241500D01*
X-56802407Y162241500D01*
X-56801993Y162241500D01*
X-56200614Y162241500D01*
X-56199394Y162241447D01*
X-56041245Y162227615D01*
X-56039734Y162227399D01*
X-56004208Y162220334D01*
X-56003316Y162220126D01*
X-55865111Y162183099D01*
X-55863377Y162182510D01*
X-55841339Y162173382D01*
X-55840780Y162173136D01*
X-55701350Y162108123D01*
X-55699236Y162106903D01*
X-55558520Y162008376D01*
X-55556651Y162006808D01*
X-55435183Y161885343D01*
X-55433614Y161883473D01*
X-55335086Y161742763D01*
X-55333866Y161740650D01*
X-55268841Y161601199D01*
X-55268595Y161600640D01*
X-55259476Y161578626D01*
X-55258887Y161576891D01*
X-55221854Y161438681D01*
X-55221646Y161437789D01*
X-55214580Y161402267D01*
X-55214364Y161400756D01*
X-55200553Y161242875D01*
X-55200500Y161241655D01*
X-55200500Y143242614D01*
X-55200553Y143241394D01*
X-55214453Y143082557D01*
X-55214669Y143081046D01*
X-55221373Y143047342D01*
X-55221581Y143046449D01*
X-55259068Y142906561D01*
X-55259657Y142904827D01*
X-55267891Y142884949D01*
X-55268137Y142884390D01*
X-55333897Y142743373D01*
X-55335117Y142741260D01*
X-55433643Y142600557D01*
X-55435212Y142598687D01*
X-55556676Y142477229D01*
X-55558545Y142475661D01*
X-55699256Y142377141D01*
X-55701370Y142375921D01*
X-55842401Y142310162D01*
X-55842894Y142309945D01*
X-55862840Y142301683D01*
X-55864558Y142301101D01*
X-56004468Y142263617D01*
X-56005309Y142263421D01*
X-56039073Y142256706D01*
X-56040531Y142256497D01*
X-56199998Y142242552D01*
X-56201200Y142242500D01*
X-56802408Y142242500D01*
X-56802700Y142242208D01*
X-56802700Y137256500D01*
X-56806801Y137246601D01*
X-56816700Y137242500D01*
X-88387700Y137242500D01*
X-88397599Y137246601D01*
X-88401700Y137256500D01*
X-88401700Y147242208D01*
X-88401992Y147242500D01*
X-88401993Y147242500D01*
X-89987700Y147242500D01*
X-89997599Y147246601D01*
X-90001700Y147256500D01*
X-90001700Y167227500D01*
X-89997599Y167237399D01*
X-89987700Y167241500D01*
X-88401992Y167241500D01*
X-88401700Y167241792D01*
X-88401700Y179340416D01*
X-77852700Y179340416D01*
X-77852700Y179143583D01*
X-77821909Y178949173D01*
X-77761084Y178761972D01*
X-77671726Y178586598D01*
X-77671716Y178586582D01*
X-77556030Y178427355D01*
X-77556023Y178427347D01*
X-77416853Y178288177D01*
X-77416845Y178288170D01*
X-77257618Y178172484D01*
X-77257602Y178172474D01*
X-77082228Y178083116D01*
X-76895027Y178022291D01*
X-76700617Y177991500D01*
X-76503783Y177991500D01*
X-76309374Y178022291D01*
X-76122173Y178083116D01*
X-75946799Y178172474D01*
X-75946795Y178172476D01*
X-75946791Y178172479D01*
X-75946783Y178172484D01*
X-75787556Y178288170D01*
X-75787548Y178288177D01*
X-75648378Y178427347D01*
X-75648371Y178427355D01*
X-75532685Y178586582D01*
X-75532683Y178586586D01*
X-75532676Y178586595D01*
X-75487996Y178674285D01*
X-75443317Y178761972D01*
X-75443316Y178761975D01*
X-75382491Y178949174D01*
X-75351700Y179143583D01*
X-75351700Y179340416D01*
X-73852700Y179340416D01*
X-73852700Y179143583D01*
X-73821909Y178949173D01*
X-73761084Y178761972D01*
X-73671726Y178586598D01*
X-73671716Y178586582D01*
X-73556030Y178427355D01*
X-73556023Y178427347D01*
X-73416853Y178288177D01*
X-73416845Y178288170D01*
X-73257618Y178172484D01*
X-73257602Y178172474D01*
X-73082228Y178083116D01*
X-72895027Y178022291D01*
X-72700617Y177991500D01*
X-72503783Y177991500D01*
X-72309374Y178022291D01*
X-72122173Y178083116D01*
X-71946799Y178172474D01*
X-71946795Y178172476D01*
X-71946791Y178172479D01*
X-71946783Y178172484D01*
X-71787556Y178288170D01*
X-71787548Y178288177D01*
X-71648378Y178427347D01*
X-71648371Y178427355D01*
X-71532685Y178586582D01*
X-71532683Y178586586D01*
X-71532676Y178586595D01*
X-71487996Y178674285D01*
X-71443317Y178761972D01*
X-71443316Y178761975D01*
X-71382491Y178949174D01*
X-71351700Y179143583D01*
X-71351700Y179340416D01*
X-69852700Y179340416D01*
X-69852700Y179143583D01*
X-69821909Y178949173D01*
X-69761084Y178761972D01*
X-69671726Y178586598D01*
X-69671716Y178586582D01*
X-69556030Y178427355D01*
X-69556023Y178427347D01*
X-69416853Y178288177D01*
X-69416845Y178288170D01*
X-69257618Y178172484D01*
X-69257602Y178172474D01*
X-69082228Y178083116D01*
X-68895027Y178022291D01*
X-68700617Y177991500D01*
X-68503783Y177991500D01*
X-68309374Y178022291D01*
X-68122173Y178083116D01*
X-67946799Y178172474D01*
X-67946795Y178172476D01*
X-67946791Y178172479D01*
X-67946783Y178172484D01*
X-67787556Y178288170D01*
X-67787548Y178288177D01*
X-67648378Y178427347D01*
X-67648371Y178427355D01*
X-67532685Y178586582D01*
X-67532683Y178586586D01*
X-67532676Y178586595D01*
X-67487996Y178674285D01*
X-67443317Y178761972D01*
X-67443316Y178761975D01*
X-67382491Y178949174D01*
X-67351700Y179143583D01*
X-67351700Y179340417D01*
X-67382491Y179534826D01*
X-67443316Y179722025D01*
X-67532676Y179897405D01*
X-67648372Y180056646D01*
X-67787554Y180195828D01*
X-67946795Y180311524D01*
X-68122175Y180400884D01*
X-68309374Y180461709D01*
X-68503783Y180492500D01*
X-68700617Y180492500D01*
X-68895026Y180461709D01*
X-69082225Y180400884D01*
X-69082228Y180400883D01*
X-69169915Y180356204D01*
X-69257605Y180311524D01*
X-69257614Y180311517D01*
X-69257618Y180311515D01*
X-69416845Y180195829D01*
X-69416853Y180195822D01*
X-69556023Y180056652D01*
X-69556030Y180056644D01*
X-69671716Y179897417D01*
X-69671726Y179897401D01*
X-69761084Y179722027D01*
X-69821909Y179534826D01*
X-69852700Y179340416D01*
X-71351700Y179340416D01*
X-71351700Y179340417D01*
X-71382491Y179534826D01*
X-71443316Y179722025D01*
X-71532676Y179897405D01*
X-71648372Y180056646D01*
X-71787554Y180195828D01*
X-71946795Y180311524D01*
X-72122175Y180400884D01*
X-72309374Y180461709D01*
X-72503783Y180492500D01*
X-72700617Y180492500D01*
X-72895026Y180461709D01*
X-73082225Y180400884D01*
X-73082228Y180400883D01*
X-73169915Y180356204D01*
X-73257605Y180311524D01*
X-73257614Y180311517D01*
X-73257618Y180311515D01*
X-73416845Y180195829D01*
X-73416853Y180195822D01*
X-73556023Y180056652D01*
X-73556030Y180056644D01*
X-73671716Y179897417D01*
X-73671726Y179897401D01*
X-73761084Y179722027D01*
X-73821909Y179534826D01*
X-73852700Y179340416D01*
X-75351700Y179340416D01*
X-75351700Y179340417D01*
X-75382491Y179534826D01*
X-75443316Y179722025D01*
X-75532676Y179897405D01*
X-75648372Y180056646D01*
X-75787554Y180195828D01*
X-75946795Y180311524D01*
X-76122175Y180400884D01*
X-76309374Y180461709D01*
X-76503783Y180492500D01*
X-76700617Y180492500D01*
X-76895026Y180461709D01*
X-77082225Y180400884D01*
X-77082228Y180400883D01*
X-77169915Y180356204D01*
X-77257605Y180311524D01*
X-77257614Y180311517D01*
X-77257618Y180311515D01*
X-77416845Y180195829D01*
X-77416853Y180195822D01*
X-77556023Y180056652D01*
X-77556030Y180056644D01*
X-77671716Y179897417D01*
X-77671726Y179897401D01*
X-77761084Y179722027D01*
X-77821909Y179534826D01*
X-77852700Y179340416D01*
X-88401700Y179340416D01*
X-88401700Y183340416D01*
X-77852700Y183340416D01*
X-77852700Y183143583D01*
X-77821909Y182949173D01*
X-77761084Y182761972D01*
X-77671726Y182586598D01*
X-77671716Y182586582D01*
X-77556030Y182427355D01*
X-77556023Y182427347D01*
X-77416853Y182288177D01*
X-77416845Y182288170D01*
X-77257618Y182172484D01*
X-77257602Y182172474D01*
X-77082228Y182083116D01*
X-76895027Y182022291D01*
X-76700617Y181991500D01*
X-76503783Y181991500D01*
X-76309374Y182022291D01*
X-76122173Y182083116D01*
X-75946799Y182172474D01*
X-75946795Y182172476D01*
X-75946791Y182172479D01*
X-75946783Y182172484D01*
X-75787556Y182288170D01*
X-75787548Y182288177D01*
X-75648378Y182427347D01*
X-75648371Y182427355D01*
X-75532685Y182586582D01*
X-75532683Y182586586D01*
X-75532676Y182586595D01*
X-75487996Y182674285D01*
X-75443317Y182761972D01*
X-75443316Y182761975D01*
X-75382491Y182949174D01*
X-75351700Y183143583D01*
X-75351700Y183340416D01*
X-73852700Y183340416D01*
X-73852700Y183143583D01*
X-73821909Y182949173D01*
X-73761084Y182761972D01*
X-73671726Y182586598D01*
X-73671716Y182586582D01*
X-73556030Y182427355D01*
X-73556023Y182427347D01*
X-73416853Y182288177D01*
X-73416845Y182288170D01*
X-73257618Y182172484D01*
X-73257602Y182172474D01*
X-73082228Y182083116D01*
X-72895027Y182022291D01*
X-72700617Y181991500D01*
X-72503783Y181991500D01*
X-72309374Y182022291D01*
X-72122173Y182083116D01*
X-71946799Y182172474D01*
X-71946795Y182172476D01*
X-71946791Y182172479D01*
X-71946783Y182172484D01*
X-71787556Y182288170D01*
X-71787548Y182288177D01*
X-71648378Y182427347D01*
X-71648371Y182427355D01*
X-71532685Y182586582D01*
X-71532683Y182586586D01*
X-71532676Y182586595D01*
X-71487996Y182674285D01*
X-71443317Y182761972D01*
X-71443316Y182761975D01*
X-71382491Y182949174D01*
X-71351700Y183143583D01*
X-71351700Y183340416D01*
X-69852700Y183340416D01*
X-69852700Y183143583D01*
X-69821909Y182949173D01*
X-69761084Y182761972D01*
X-69671726Y182586598D01*
X-69671716Y182586582D01*
X-69556030Y182427355D01*
X-69556023Y182427347D01*
X-69416853Y182288177D01*
X-69416845Y182288170D01*
X-69257618Y182172484D01*
X-69257602Y182172474D01*
X-69082228Y182083116D01*
X-68895027Y182022291D01*
X-68700617Y181991500D01*
X-68503783Y181991500D01*
X-68309374Y182022291D01*
X-68122173Y182083116D01*
X-67946799Y182172474D01*
X-67946795Y182172476D01*
X-67946791Y182172479D01*
X-67946783Y182172484D01*
X-67787556Y182288170D01*
X-67787548Y182288177D01*
X-67648378Y182427347D01*
X-67648371Y182427355D01*
X-67532685Y182586582D01*
X-67532683Y182586586D01*
X-67532676Y182586595D01*
X-67487996Y182674285D01*
X-67443317Y182761972D01*
X-67443316Y182761975D01*
X-67382491Y182949174D01*
X-67351700Y183143583D01*
X-67351700Y183340417D01*
X-67382491Y183534826D01*
X-67443316Y183722025D01*
X-67532676Y183897405D01*
X-67648372Y184056646D01*
X-67787554Y184195828D01*
X-67946795Y184311524D01*
X-68122175Y184400884D01*
X-68309374Y184461709D01*
X-68503783Y184492500D01*
X-68700617Y184492500D01*
X-68895026Y184461709D01*
X-69082225Y184400884D01*
X-69082228Y184400883D01*
X-69169915Y184356204D01*
X-69257605Y184311524D01*
X-69257614Y184311517D01*
X-69257618Y184311515D01*
X-69416845Y184195829D01*
X-69416853Y184195822D01*
X-69556023Y184056652D01*
X-69556030Y184056644D01*
X-69671716Y183897417D01*
X-69671726Y183897401D01*
X-69761084Y183722027D01*
X-69821909Y183534826D01*
X-69852700Y183340416D01*
X-71351700Y183340416D01*
X-71351700Y183340417D01*
X-71382491Y183534826D01*
X-71443316Y183722025D01*
X-71532676Y183897405D01*
X-71648372Y184056646D01*
X-71787554Y184195828D01*
X-71946795Y184311524D01*
X-72122175Y184400884D01*
X-72309374Y184461709D01*
X-72503783Y184492500D01*
X-72700617Y184492500D01*
X-72895026Y184461709D01*
X-73082225Y184400884D01*
X-73082228Y184400883D01*
X-73169915Y184356204D01*
X-73257605Y184311524D01*
X-73257614Y184311517D01*
X-73257618Y184311515D01*
X-73416845Y184195829D01*
X-73416853Y184195822D01*
X-73556023Y184056652D01*
X-73556030Y184056644D01*
X-73671716Y183897417D01*
X-73671726Y183897401D01*
X-73761084Y183722027D01*
X-73821909Y183534826D01*
X-73852700Y183340416D01*
X-75351700Y183340416D01*
X-75351700Y183340417D01*
X-75382491Y183534826D01*
X-75443316Y183722025D01*
X-75532676Y183897405D01*
X-75648372Y184056646D01*
X-75787554Y184195828D01*
X-75946795Y184311524D01*
X-76122175Y184400884D01*
X-76309374Y184461709D01*
X-76503783Y184492500D01*
X-76700617Y184492500D01*
X-76895026Y184461709D01*
X-77082225Y184400884D01*
X-77082228Y184400883D01*
X-77169915Y184356204D01*
X-77257605Y184311524D01*
X-77257614Y184311517D01*
X-77257618Y184311515D01*
X-77416845Y184195829D01*
X-77416853Y184195822D01*
X-77556023Y184056652D01*
X-77556030Y184056644D01*
X-77671716Y183897417D01*
X-77671726Y183897401D01*
X-77761084Y183722027D01*
X-77821909Y183534826D01*
X-77852700Y183340416D01*
X-88401700Y183340416D01*
X-88401700Y187340416D01*
X-77852700Y187340416D01*
X-77852700Y187143583D01*
X-77821909Y186949173D01*
X-77761084Y186761972D01*
X-77671726Y186586598D01*
X-77671716Y186586582D01*
X-77556030Y186427355D01*
X-77556023Y186427347D01*
X-77416853Y186288177D01*
X-77416845Y186288170D01*
X-77257618Y186172484D01*
X-77257602Y186172474D01*
X-77082228Y186083116D01*
X-76895027Y186022291D01*
X-76700617Y185991500D01*
X-76503783Y185991500D01*
X-76309374Y186022291D01*
X-76122173Y186083116D01*
X-75946799Y186172474D01*
X-75946795Y186172476D01*
X-75946791Y186172479D01*
X-75946783Y186172484D01*
X-75787556Y186288170D01*
X-75787548Y186288177D01*
X-75648378Y186427347D01*
X-75648371Y186427355D01*
X-75532685Y186586582D01*
X-75532683Y186586586D01*
X-75532676Y186586595D01*
X-75487996Y186674285D01*
X-75443317Y186761972D01*
X-75443316Y186761975D01*
X-75382491Y186949174D01*
X-75351700Y187143583D01*
X-75351700Y187340416D01*
X-73852700Y187340416D01*
X-73852700Y187143583D01*
X-73821909Y186949173D01*
X-73761084Y186761972D01*
X-73671726Y186586598D01*
X-73671716Y186586582D01*
X-73556030Y186427355D01*
X-73556023Y186427347D01*
X-73416853Y186288177D01*
X-73416845Y186288170D01*
X-73257618Y186172484D01*
X-73257602Y186172474D01*
X-73082228Y186083116D01*
X-72895027Y186022291D01*
X-72700617Y185991500D01*
X-72503783Y185991500D01*
X-72309374Y186022291D01*
X-72122173Y186083116D01*
X-71946799Y186172474D01*
X-71946795Y186172476D01*
X-71946791Y186172479D01*
X-71946783Y186172484D01*
X-71787556Y186288170D01*
X-71787548Y186288177D01*
X-71648378Y186427347D01*
X-71648371Y186427355D01*
X-71532685Y186586582D01*
X-71532683Y186586586D01*
X-71532676Y186586595D01*
X-71487996Y186674285D01*
X-71443317Y186761972D01*
X-71443316Y186761975D01*
X-71382491Y186949174D01*
X-71351700Y187143583D01*
X-71351700Y187340416D01*
X-69852700Y187340416D01*
X-69852700Y187143583D01*
X-69821909Y186949173D01*
X-69761084Y186761972D01*
X-69671726Y186586598D01*
X-69671716Y186586582D01*
X-69556030Y186427355D01*
X-69556023Y186427347D01*
X-69416853Y186288177D01*
X-69416845Y186288170D01*
X-69257618Y186172484D01*
X-69257602Y186172474D01*
X-69082228Y186083116D01*
X-68895027Y186022291D01*
X-68700617Y185991500D01*
X-68503783Y185991500D01*
X-68309374Y186022291D01*
X-68122173Y186083116D01*
X-67946799Y186172474D01*
X-67946795Y186172476D01*
X-67946791Y186172479D01*
X-67946783Y186172484D01*
X-67787556Y186288170D01*
X-67787548Y186288177D01*
X-67648378Y186427347D01*
X-67648371Y186427355D01*
X-67532685Y186586582D01*
X-67532683Y186586586D01*
X-67532676Y186586595D01*
X-67487996Y186674285D01*
X-67443317Y186761972D01*
X-67443316Y186761975D01*
X-67382491Y186949174D01*
X-67351700Y187143583D01*
X-67351700Y187340417D01*
X-67382491Y187534826D01*
X-67443316Y187722025D01*
X-67532676Y187897405D01*
X-67648372Y188056646D01*
X-67787554Y188195828D01*
X-67946795Y188311524D01*
X-68122175Y188400884D01*
X-68309374Y188461709D01*
X-68503783Y188492500D01*
X-68700617Y188492500D01*
X-68895026Y188461709D01*
X-69082225Y188400884D01*
X-69082228Y188400883D01*
X-69169915Y188356204D01*
X-69257605Y188311524D01*
X-69257614Y188311517D01*
X-69257618Y188311515D01*
X-69416845Y188195829D01*
X-69416853Y188195822D01*
X-69556023Y188056652D01*
X-69556030Y188056644D01*
X-69671716Y187897417D01*
X-69671726Y187897401D01*
X-69761084Y187722027D01*
X-69821909Y187534826D01*
X-69852700Y187340416D01*
X-71351700Y187340416D01*
X-71351700Y187340417D01*
X-71382491Y187534826D01*
X-71443316Y187722025D01*
X-71532676Y187897405D01*
X-71648372Y188056646D01*
X-71787554Y188195828D01*
X-71946795Y188311524D01*
X-72122175Y188400884D01*
X-72309374Y188461709D01*
X-72503783Y188492500D01*
X-72700617Y188492500D01*
X-72895026Y188461709D01*
X-73082225Y188400884D01*
X-73082228Y188400883D01*
X-73169915Y188356204D01*
X-73257605Y188311524D01*
X-73257614Y188311517D01*
X-73257618Y188311515D01*
X-73416845Y188195829D01*
X-73416853Y188195822D01*
X-73556023Y188056652D01*
X-73556030Y188056644D01*
X-73671716Y187897417D01*
X-73671726Y187897401D01*
X-73761084Y187722027D01*
X-73821909Y187534826D01*
X-73852700Y187340416D01*
X-75351700Y187340416D01*
X-75351700Y187340417D01*
X-75382491Y187534826D01*
X-75443316Y187722025D01*
X-75532676Y187897405D01*
X-75648372Y188056646D01*
X-75787554Y188195828D01*
X-75946795Y188311524D01*
X-76122175Y188400884D01*
X-76309374Y188461709D01*
X-76503783Y188492500D01*
X-76700617Y188492500D01*
X-76895026Y188461709D01*
X-77082225Y188400884D01*
X-77082228Y188400883D01*
X-77169915Y188356204D01*
X-77257605Y188311524D01*
X-77257614Y188311517D01*
X-77257618Y188311515D01*
X-77416845Y188195829D01*
X-77416853Y188195822D01*
X-77556023Y188056652D01*
X-77556030Y188056644D01*
X-77671716Y187897417D01*
X-77671726Y187897401D01*
X-77761084Y187722027D01*
X-77821909Y187534826D01*
X-77852700Y187340416D01*
X-88401700Y187340416D01*
X-88401700Y199242208D01*
X-88401992Y199242500D01*
X-88401993Y199242500D01*
X-89987700Y199242500D01*
X-89997599Y199246601D01*
X-90001700Y199256500D01*
X-90001700Y219227500D01*
X-89997599Y219237399D01*
X-89987700Y219241500D01*
X-88401992Y219241500D01*
X-88401700Y219241792D01*
X-88401700Y229227500D01*
X-88397599Y229237399D01*
X-88387700Y229241500D01*
X-56816700Y229241500D01*
X-56806801Y229237399D01*
G37*
%TD.AperFunction*%
%TD*%
%TA.AperFunction,Conductor*%
%TO.N,g*%
G36*
X4993199Y286037399D02*
G01*
X4997300Y286027500D01*
X4997300Y284441792D01*
X4997592Y284441500D01*
X4997593Y284441500D01*
X39998008Y284441500D01*
X39998300Y284441792D01*
X39998300Y286027500D01*
X40002401Y286037399D01*
X40012300Y286041500D01*
X59983300Y286041500D01*
X59993199Y286037399D01*
X59997300Y286027500D01*
X59997300Y284441792D01*
X59997592Y284441500D01*
X59997593Y284441500D01*
X94998008Y284441500D01*
X94998300Y284441792D01*
X94998300Y286027500D01*
X95002401Y286037399D01*
X95012300Y286041500D01*
X114983300Y286041500D01*
X114993199Y286037399D01*
X114997300Y286027500D01*
X114997300Y284441792D01*
X114997592Y284441500D01*
X114997593Y284441500D01*
X114998007Y284441500D01*
X126683300Y284441500D01*
X126693199Y284437399D01*
X126697300Y284427500D01*
X126697300Y252856500D01*
X126693199Y252846601D01*
X126683300Y252842500D01*
X119997592Y252842500D01*
X119997300Y252842208D01*
X119997300Y252242614D01*
X119997247Y252241394D01*
X119983347Y252082557D01*
X119983131Y252081046D01*
X119976427Y252047342D01*
X119976219Y252046449D01*
X119938732Y251906561D01*
X119938143Y251904827D01*
X119929909Y251884949D01*
X119929663Y251884390D01*
X119863903Y251743373D01*
X119862683Y251741260D01*
X119764157Y251600557D01*
X119762588Y251598687D01*
X119641124Y251477229D01*
X119639255Y251475661D01*
X119498544Y251377141D01*
X119496430Y251375921D01*
X119355399Y251310162D01*
X119354906Y251309945D01*
X119334960Y251301683D01*
X119333242Y251301101D01*
X119193332Y251263617D01*
X119192491Y251263421D01*
X119158727Y251256706D01*
X119157269Y251256497D01*
X118997802Y251242552D01*
X118996600Y251242500D01*
X100998415Y251242500D01*
X100997194Y251242553D01*
X100840033Y251256307D01*
X100838579Y251256515D01*
X100800331Y251264124D01*
X100799546Y251264308D01*
X100663733Y251300703D01*
X100662016Y251301286D01*
X100636811Y251311727D01*
X100636373Y251311920D01*
X100499164Y251375906D01*
X100497067Y251377117D01*
X100356348Y251475652D01*
X100354491Y251477210D01*
X100233019Y251598687D01*
X100231461Y251600543D01*
X100132929Y251741264D01*
X100131718Y251743361D01*
X100067744Y251880554D01*
X100067527Y251881048D01*
X100057102Y251906214D01*
X100056521Y251907924D01*
X100020132Y252043728D01*
X100019939Y252044556D01*
X100012338Y252082767D01*
X100012127Y252084245D01*
X99998352Y252241674D01*
X99998300Y252242883D01*
X99998300Y252842208D01*
X99998008Y252842500D01*
X99998007Y252842500D01*
X59998007Y252842500D01*
X59997593Y252842500D01*
X59997592Y252842500D01*
X59997300Y252842208D01*
X59997300Y252242614D01*
X59997247Y252241394D01*
X59983347Y252082557D01*
X59983131Y252081046D01*
X59976427Y252047342D01*
X59976219Y252046449D01*
X59938732Y251906561D01*
X59938143Y251904827D01*
X59929909Y251884949D01*
X59929663Y251884390D01*
X59863903Y251743373D01*
X59862683Y251741260D01*
X59764157Y251600557D01*
X59762588Y251598687D01*
X59641124Y251477229D01*
X59639255Y251475661D01*
X59498544Y251377141D01*
X59496430Y251375921D01*
X59355399Y251310162D01*
X59354906Y251309945D01*
X59334960Y251301683D01*
X59333242Y251301101D01*
X59193332Y251263617D01*
X59192491Y251263421D01*
X59158727Y251256706D01*
X59157269Y251256497D01*
X58997802Y251242552D01*
X58996600Y251242500D01*
X40998415Y251242500D01*
X40997194Y251242553D01*
X40840033Y251256307D01*
X40838579Y251256515D01*
X40800331Y251264124D01*
X40799546Y251264308D01*
X40663733Y251300703D01*
X40662016Y251301286D01*
X40636811Y251311727D01*
X40636373Y251311920D01*
X40499164Y251375906D01*
X40497067Y251377117D01*
X40356348Y251475652D01*
X40354491Y251477210D01*
X40233019Y251598687D01*
X40231461Y251600543D01*
X40132929Y251741264D01*
X40131718Y251743361D01*
X40067744Y251880554D01*
X40067527Y251881048D01*
X40057102Y251906214D01*
X40056521Y251907924D01*
X40020132Y252043728D01*
X40019939Y252044556D01*
X40012338Y252082767D01*
X40012127Y252084245D01*
X39998352Y252241674D01*
X39998300Y252242883D01*
X39998300Y252842208D01*
X39998008Y252842500D01*
X39998007Y252842500D01*
X-1993Y252842500D01*
X-2407Y252842500D01*
X-2408Y252842500D01*
X-2700Y252842208D01*
X-2700Y252242614D01*
X-2753Y252241394D01*
X-16653Y252082557D01*
X-16869Y252081046D01*
X-23573Y252047342D01*
X-23781Y252046449D01*
X-61268Y251906561D01*
X-61857Y251904827D01*
X-70091Y251884949D01*
X-70337Y251884390D01*
X-136097Y251743373D01*
X-137317Y251741260D01*
X-235843Y251600557D01*
X-237412Y251598687D01*
X-358876Y251477229D01*
X-360745Y251475661D01*
X-501456Y251377141D01*
X-503570Y251375921D01*
X-644601Y251310162D01*
X-645094Y251309945D01*
X-665040Y251301683D01*
X-666758Y251301101D01*
X-806668Y251263617D01*
X-807509Y251263421D01*
X-841273Y251256706D01*
X-842731Y251256497D01*
X-1002198Y251242552D01*
X-1003400Y251242500D01*
X-19001585Y251242500D01*
X-19002806Y251242553D01*
X-19159967Y251256307D01*
X-19161421Y251256515D01*
X-19199669Y251264124D01*
X-19200454Y251264308D01*
X-19336267Y251300703D01*
X-19337984Y251301286D01*
X-19363189Y251311727D01*
X-19363627Y251311920D01*
X-19500836Y251375906D01*
X-19502933Y251377117D01*
X-19643652Y251475652D01*
X-19645509Y251477210D01*
X-19766981Y251598687D01*
X-19768539Y251600543D01*
X-19867071Y251741264D01*
X-19868282Y251743361D01*
X-19932256Y251880554D01*
X-19932473Y251881048D01*
X-19942898Y251906214D01*
X-19943479Y251907924D01*
X-19979868Y252043728D01*
X-19980061Y252044556D01*
X-19987662Y252082767D01*
X-19987873Y252084245D01*
X-20001648Y252241674D01*
X-20001700Y252242883D01*
X-20001700Y252842208D01*
X-20001992Y252842500D01*
X-20001993Y252842500D01*
X-26687700Y252842500D01*
X-26697599Y252846601D01*
X-26701700Y252856500D01*
X-26701700Y261147704D01*
X31811423Y261147704D01*
X31811432Y261054468D01*
X31841850Y260882060D01*
X31841851Y260882056D01*
X31851925Y260854384D01*
X31852295Y260853365D01*
X31852760Y260851033D01*
X31855939Y260843359D01*
X31856054Y260843044D01*
X31856054Y260843043D01*
X31901738Y260717559D01*
X31901740Y260717554D01*
X31923649Y260679610D01*
X31924458Y260677971D01*
X31927970Y260669496D01*
X31927971Y260669494D01*
X31938896Y260653147D01*
X31939380Y260652370D01*
X31989280Y260565954D01*
X31989287Y260565943D01*
X32027496Y260520411D01*
X32028412Y260519191D01*
X32037146Y260506121D01*
X32037149Y260506118D01*
X32051263Y260492005D01*
X32052088Y260491106D01*
X32101818Y260431847D01*
X32161070Y260382129D01*
X32161969Y260381305D01*
X32176094Y260367182D01*
X32189165Y260358447D01*
X32190384Y260357532D01*
X32235922Y260319325D01*
X32235936Y260319315D01*
X32322325Y260269439D01*
X32323102Y260268956D01*
X32339478Y260258014D01*
X32339481Y260258013D01*
X32347954Y260254502D01*
X32349593Y260253694D01*
X32387545Y260231785D01*
X32387544Y260231785D01*
X32513029Y260186111D01*
X32513030Y260186110D01*
X32513353Y260185992D01*
X32521019Y260182817D01*
X32523346Y260182354D01*
X32524357Y260181986D01*
X32524365Y260181984D01*
X32552050Y260171908D01*
X32552049Y260171908D01*
X32724457Y260141503D01*
X32724454Y260141503D01*
X32811778Y260141500D01*
X32811781Y260141500D01*
X32811782Y260141500D01*
X48814823Y260141500D01*
X48815131Y260141561D01*
X48899520Y260141551D01*
X48899521Y260141551D01*
X48936396Y260148048D01*
X49071928Y260171929D01*
X49097834Y260181355D01*
X49097835Y260181355D01*
X49098847Y260181723D01*
X49103046Y260182558D01*
X49116818Y260188261D01*
X49117131Y260188375D01*
X49117146Y260188381D01*
X49236444Y260231790D01*
X49272478Y260252591D01*
X49274119Y260253400D01*
X49284643Y260257759D01*
X49301403Y260268956D01*
X49304678Y260271144D01*
X49305451Y260271625D01*
X49388055Y260319308D01*
X49388060Y260319311D01*
X49415444Y260342287D01*
X49431587Y260355831D01*
X49432798Y260356739D01*
X49448077Y260366947D01*
X49464546Y260383415D01*
X49465446Y260384240D01*
X49522171Y260431834D01*
X49536475Y260448880D01*
X49569777Y260488566D01*
X49570590Y260489453D01*
X49587064Y260505926D01*
X49591571Y260512671D01*
X49597274Y260521205D01*
X49598190Y260522426D01*
X49606946Y260532861D01*
X49634704Y260565940D01*
X49682402Y260648556D01*
X49682881Y260649326D01*
X49696260Y260669347D01*
X49696261Y260669350D01*
X49696263Y260669353D01*
X49700621Y260679876D01*
X49701427Y260681508D01*
X49722234Y260717547D01*
X49722234Y260717548D01*
X49722236Y260717551D01*
X49765763Y260837155D01*
X49771476Y260850946D01*
X49772309Y260855143D01*
X49782106Y260882061D01*
X49782729Y260885593D01*
X52511420Y260885593D01*
X52511424Y260791140D01*
X52511425Y260791134D01*
X52541490Y260616195D01*
X52541493Y260616184D01*
X52551022Y260589306D01*
X52551023Y260589305D01*
X52551372Y260588317D01*
X52552097Y260584583D01*
X52557051Y260572296D01*
X52557156Y260572001D01*
X52557155Y260571999D01*
X52600798Y260448886D01*
X52600801Y260448880D01*
X52621762Y260411505D01*
X52622534Y260409894D01*
X52626626Y260399749D01*
X52626634Y260399733D01*
X52639233Y260380295D01*
X52639696Y260379530D01*
X52687634Y260294059D01*
X52687640Y260294051D01*
X52724412Y260248725D01*
X52725287Y260247521D01*
X52735023Y260232501D01*
X52735029Y260232494D01*
X52750775Y260216152D01*
X52751565Y260215259D01*
X52799474Y260156209D01*
X52856709Y260106138D01*
X52857572Y260105316D01*
X52873317Y260088977D01*
X52887962Y260078693D01*
X52889134Y260077773D01*
X52933076Y260039333D01*
X53016692Y259988268D01*
X53017440Y259987778D01*
X53036428Y259974445D01*
X53046420Y259969978D01*
X53048001Y259969146D01*
X53084570Y259946814D01*
X53084574Y259946812D01*
X53205999Y259898624D01*
X53206313Y259898499D01*
X53218373Y259893108D01*
X53222065Y259892248D01*
X53223043Y259891861D01*
X53223043Y259891860D01*
X53249561Y259881338D01*
X53249566Y259881336D01*
X53423272Y259844799D01*
X53423277Y259844798D01*
X53509456Y259841594D01*
X53509459Y259841594D01*
X53511773Y259841507D01*
X53511782Y259841500D01*
X53511965Y259841500D01*
X53512205Y259841491D01*
X53512220Y259841491D01*
X53517410Y259841303D01*
X53517917Y259841500D01*
X62514816Y259841500D01*
X62515132Y259841563D01*
X62599516Y259841566D01*
X62771911Y259871969D01*
X62799195Y259881900D01*
X62800202Y259882266D01*
X62802959Y259882815D01*
X62812001Y259886560D01*
X62812280Y259886662D01*
X62812294Y259886668D01*
X62936410Y259931845D01*
X62936413Y259931846D01*
X62973921Y259953502D01*
X62975563Y259954312D01*
X62984497Y259958013D01*
X62984499Y259958014D01*
X63001706Y259969511D01*
X63002458Y259969978D01*
X63050321Y259997611D01*
X63088011Y260019371D01*
X63111800Y260039332D01*
X63133100Y260057204D01*
X63134316Y260058116D01*
X63147881Y260067179D01*
X63162532Y260081829D01*
X63163432Y260082654D01*
X63222117Y260131895D01*
X63271347Y260190561D01*
X63272172Y260191462D01*
X63286832Y260206121D01*
X63295896Y260219684D01*
X63296810Y260220903D01*
X63334636Y260265979D01*
X63334637Y260265981D01*
X63334643Y260265988D01*
X63384036Y260351528D01*
X63384514Y260352296D01*
X63388013Y260357532D01*
X63396009Y260369497D01*
X63399714Y260378441D01*
X63400516Y260380068D01*
X63413186Y260402011D01*
X63422180Y260417585D01*
X63448344Y260489453D01*
X63467464Y260541972D01*
X63471218Y260551032D01*
X63471766Y260553791D01*
X63482065Y260582079D01*
X63512480Y260754472D01*
X63512489Y260842000D01*
X63512489Y260842500D01*
X63512489Y260885593D01*
X67511420Y260885593D01*
X67511424Y260791140D01*
X67511425Y260791134D01*
X67541490Y260616195D01*
X67541493Y260616184D01*
X67551022Y260589306D01*
X67551023Y260589305D01*
X67551372Y260588317D01*
X67552097Y260584583D01*
X67557051Y260572296D01*
X67557156Y260572001D01*
X67557155Y260571999D01*
X67600798Y260448886D01*
X67600801Y260448880D01*
X67621762Y260411505D01*
X67622534Y260409894D01*
X67626626Y260399749D01*
X67626634Y260399733D01*
X67639233Y260380295D01*
X67639696Y260379530D01*
X67687634Y260294059D01*
X67687640Y260294051D01*
X67724412Y260248725D01*
X67725287Y260247521D01*
X67735023Y260232501D01*
X67735029Y260232494D01*
X67750775Y260216152D01*
X67751565Y260215259D01*
X67799474Y260156209D01*
X67856709Y260106138D01*
X67857572Y260105316D01*
X67873317Y260088977D01*
X67887962Y260078693D01*
X67889134Y260077773D01*
X67933076Y260039333D01*
X68016692Y259988268D01*
X68017440Y259987778D01*
X68036428Y259974445D01*
X68046420Y259969978D01*
X68048001Y259969146D01*
X68084570Y259946814D01*
X68084574Y259946812D01*
X68205999Y259898624D01*
X68206313Y259898499D01*
X68218373Y259893108D01*
X68222065Y259892248D01*
X68223043Y259891861D01*
X68223043Y259891860D01*
X68249561Y259881338D01*
X68249566Y259881336D01*
X68423272Y259844799D01*
X68423277Y259844798D01*
X68509456Y259841594D01*
X68509459Y259841594D01*
X68511773Y259841507D01*
X68511782Y259841500D01*
X68511965Y259841500D01*
X68512205Y259841491D01*
X68512220Y259841491D01*
X68517410Y259841303D01*
X68517917Y259841500D01*
X77514816Y259841500D01*
X77515132Y259841563D01*
X77599516Y259841566D01*
X77771911Y259871969D01*
X77799195Y259881900D01*
X77800202Y259882266D01*
X77802959Y259882815D01*
X77812001Y259886560D01*
X77812280Y259886662D01*
X77812294Y259886668D01*
X77936410Y259931845D01*
X77936413Y259931846D01*
X77973921Y259953502D01*
X77975563Y259954312D01*
X77984497Y259958013D01*
X77984499Y259958014D01*
X78001706Y259969511D01*
X78002458Y259969978D01*
X78050321Y259997611D01*
X78088011Y260019371D01*
X78111800Y260039332D01*
X78133100Y260057204D01*
X78134316Y260058116D01*
X78147881Y260067179D01*
X78162532Y260081829D01*
X78163432Y260082654D01*
X78222117Y260131895D01*
X78271347Y260190561D01*
X78272172Y260191462D01*
X78286832Y260206121D01*
X78295896Y260219684D01*
X78296810Y260220903D01*
X78334636Y260265979D01*
X78334637Y260265981D01*
X78334643Y260265988D01*
X78384036Y260351528D01*
X78384514Y260352296D01*
X78388013Y260357532D01*
X78396009Y260369497D01*
X78399714Y260378441D01*
X78400516Y260380068D01*
X78413186Y260402011D01*
X78422180Y260417585D01*
X78448344Y260489453D01*
X78467464Y260541972D01*
X78471218Y260551032D01*
X78471766Y260553791D01*
X78482065Y260582079D01*
X78512480Y260754472D01*
X78512489Y260842000D01*
X78512489Y260842500D01*
X78512489Y264442207D01*
X78512489Y264444853D01*
X78512424Y264445175D01*
X78512433Y264529531D01*
X78482050Y264701938D01*
X78472112Y264729246D01*
X78471361Y264733034D01*
X78466204Y264745483D01*
X78422188Y264866448D01*
X78401130Y264902925D01*
X78400339Y264904531D01*
X78396163Y264914617D01*
X78383289Y264933885D01*
X78382843Y264934603D01*
X78334665Y265018062D01*
X78297759Y265062048D01*
X78296880Y265063220D01*
X78286981Y265078038D01*
X78270994Y265094026D01*
X78270222Y265094868D01*
X78222143Y265152173D01*
X78164840Y265200257D01*
X78163977Y265201048D01*
X78148012Y265217015D01*
X78133201Y265226911D01*
X78132013Y265227803D01*
X78088039Y265264704D01*
X78004569Y265312895D01*
X78003871Y265313329D01*
X77984598Y265326208D01*
X77974502Y265330389D01*
X77972908Y265331175D01*
X77936431Y265352236D01*
X77815475Y265396258D01*
X77803020Y265401418D01*
X77799232Y265402170D01*
X77771925Y265412109D01*
X77599520Y265442503D01*
X77511989Y265442500D01*
X68517851Y265442500D01*
X68517698Y265442563D01*
X68498408Y265442563D01*
X68424452Y265442567D01*
X68424446Y265442566D01*
X68400175Y265438287D01*
X68252036Y265412171D01*
X68224728Y265402232D01*
X68220939Y265401479D01*
X68208485Y265396320D01*
X68087519Y265352295D01*
X68087517Y265352294D01*
X68087514Y265352293D01*
X68071012Y265342764D01*
X68051047Y265331237D01*
X68049419Y265330435D01*
X68039349Y265326264D01*
X68039343Y265326260D01*
X68039341Y265326259D01*
X68020120Y265313416D01*
X68019351Y265312937D01*
X67992402Y265297378D01*
X67935903Y265264759D01*
X67923340Y265254216D01*
X67891928Y265227858D01*
X67890728Y265226956D01*
X67875925Y265217065D01*
X67859970Y265201109D01*
X67859069Y265200284D01*
X67801789Y265152218D01*
X67774022Y265119124D01*
X67753719Y265094926D01*
X67752894Y265094026D01*
X67736946Y265078077D01*
X67727069Y265063293D01*
X67726153Y265062071D01*
X67689259Y265018099D01*
X67689256Y265018094D01*
X67641082Y264934644D01*
X67640598Y264933866D01*
X67627761Y264914652D01*
X67627758Y264914647D01*
X67623587Y264904577D01*
X67622778Y264902936D01*
X67601730Y264866475D01*
X67601730Y264866474D01*
X67601727Y264866469D01*
X67557811Y264745783D01*
X67557696Y264745468D01*
X67552555Y264733053D01*
X67551802Y264729270D01*
X67551435Y264728259D01*
X67541865Y264701960D01*
X67511479Y264529536D01*
X67511489Y264442000D01*
X67511489Y260885760D01*
X67511420Y260885593D01*
X63512489Y260885593D01*
X63512489Y264442207D01*
X63512489Y264444853D01*
X63512424Y264445175D01*
X63512433Y264529531D01*
X63482050Y264701938D01*
X63472112Y264729246D01*
X63471361Y264733034D01*
X63466204Y264745483D01*
X63422188Y264866448D01*
X63401130Y264902925D01*
X63400339Y264904531D01*
X63396163Y264914617D01*
X63383289Y264933885D01*
X63382843Y264934603D01*
X63334665Y265018062D01*
X63297759Y265062048D01*
X63296880Y265063220D01*
X63286981Y265078038D01*
X63270994Y265094026D01*
X63270222Y265094868D01*
X63222143Y265152173D01*
X63164840Y265200257D01*
X63163977Y265201048D01*
X63148012Y265217015D01*
X63133201Y265226911D01*
X63132013Y265227803D01*
X63088039Y265264704D01*
X63004569Y265312895D01*
X63003871Y265313329D01*
X62984598Y265326208D01*
X62974502Y265330389D01*
X62972908Y265331175D01*
X62936431Y265352236D01*
X62815475Y265396258D01*
X62803020Y265401418D01*
X62799232Y265402170D01*
X62771925Y265412109D01*
X62599520Y265442503D01*
X62511989Y265442500D01*
X53517851Y265442500D01*
X53517696Y265442563D01*
X53511989Y265442562D01*
X53511989Y265442563D01*
X53424457Y265442551D01*
X53252055Y265412130D01*
X53223768Y265401831D01*
X53221007Y265401282D01*
X53211935Y265397523D01*
X53087554Y265352238D01*
X53050031Y265330570D01*
X53048417Y265329774D01*
X53039464Y265326065D01*
X53022255Y265314565D01*
X53021504Y265314098D01*
X52935950Y265264695D01*
X52935943Y265264689D01*
X52935941Y265264688D01*
X52890873Y265226868D01*
X52889653Y265225952D01*
X52876079Y265216881D01*
X52861417Y265202218D01*
X52860518Y265201395D01*
X52860105Y265201048D01*
X52801849Y265152162D01*
X52752607Y265093476D01*
X52751782Y265092576D01*
X52737132Y265077925D01*
X52728063Y265064354D01*
X52727148Y265063134D01*
X52689319Y265018049D01*
X52639936Y264932516D01*
X52639453Y264931738D01*
X52628034Y264914647D01*
X52627956Y264914531D01*
X52624251Y264905588D01*
X52623441Y264903947D01*
X52601788Y264866443D01*
X52556607Y264742328D01*
X52556608Y264742328D01*
X52556504Y264742044D01*
X52552752Y264732985D01*
X52552202Y264730225D01*
X52551837Y264729220D01*
X52551836Y264729216D01*
X52541905Y264701933D01*
X52511495Y264529530D01*
X52511489Y264442207D01*
X52511489Y260885760D01*
X52511420Y260885593D01*
X49782729Y260885593D01*
X49812495Y261054468D01*
X49812489Y261142000D01*
X49812489Y261142500D01*
X49812489Y262742207D01*
X49812489Y262744853D01*
X49812424Y262745175D01*
X49812433Y262829531D01*
X49782050Y263001938D01*
X49772258Y263028847D01*
X49771423Y263033053D01*
X49765695Y263046882D01*
X49722188Y263166448D01*
X49701376Y263202498D01*
X49700584Y263204107D01*
X49696220Y263214647D01*
X49682792Y263234744D01*
X49682360Y263235440D01*
X49634665Y263318062D01*
X49598145Y263361588D01*
X49597252Y263362779D01*
X49587031Y263378079D01*
X49570553Y263394557D01*
X49569728Y263395458D01*
X49522143Y263452173D01*
X49465394Y263499792D01*
X49464563Y263500554D01*
X49448053Y263517066D01*
X49432742Y263527296D01*
X49431556Y263528187D01*
X49388039Y263564704D01*
X49305422Y263612403D01*
X49304732Y263612832D01*
X49284629Y263626265D01*
X49274085Y263630632D01*
X49272464Y263631431D01*
X49247478Y263645857D01*
X49236435Y263652234D01*
X49236433Y263652234D01*
X49236431Y263652236D01*
X49116860Y263695754D01*
X49103039Y263701480D01*
X49098834Y263702315D01*
X49071925Y263712109D01*
X48899520Y263742503D01*
X48811989Y263742500D01*
X32817851Y263742500D01*
X32817696Y263742563D01*
X32811989Y263742562D01*
X32811989Y263742563D01*
X32724457Y263742551D01*
X32552055Y263712130D01*
X32523374Y263701687D01*
X32521025Y263701221D01*
X32513297Y263698018D01*
X32387554Y263652238D01*
X32349618Y263630332D01*
X32347984Y263629526D01*
X32344738Y263628182D01*
X32339499Y263626012D01*
X32339495Y263626010D01*
X32339493Y263626009D01*
X32323094Y263615050D01*
X32322327Y263614573D01*
X32235950Y263564695D01*
X32190420Y263526488D01*
X32189213Y263525582D01*
X32176119Y263516832D01*
X32176117Y263516830D01*
X32161970Y263502682D01*
X32161069Y263501857D01*
X32101849Y263452162D01*
X32052143Y263392923D01*
X32051318Y263392023D01*
X32037180Y263377884D01*
X32028434Y263364795D01*
X32027525Y263363583D01*
X32025839Y263361573D01*
X31989320Y263318050D01*
X31941223Y263234744D01*
X31939453Y263231679D01*
X31938973Y263230906D01*
X31928013Y263214503D01*
X31928011Y263214499D01*
X31928010Y263214497D01*
X31924493Y263206008D01*
X31923683Y263204367D01*
X31901788Y263166443D01*
X31856115Y263040975D01*
X31856008Y263040682D01*
X31852812Y263032966D01*
X31852345Y263030619D01*
X31851978Y263029611D01*
X31851976Y263029604D01*
X31841905Y263001935D01*
X31811495Y262829530D01*
X31811489Y262742207D01*
X31811489Y261147864D01*
X31811423Y261147704D01*
X-26701700Y261147704D01*
X-26701700Y272429534D01*
X-25088512Y272429534D01*
X-25088511Y272342000D01*
X-25088511Y262339152D01*
X-25088476Y262338972D01*
X-25088476Y262254470D01*
X-25058076Y262082069D01*
X-25048224Y262055000D01*
X-25047857Y262053991D01*
X-25047264Y262051011D01*
X-25043205Y262041211D01*
X-25043093Y262040904D01*
X-25043093Y262040903D01*
X-24998203Y261917569D01*
X-24976676Y261880279D01*
X-24975867Y261878639D01*
X-24972063Y261869457D01*
X-24960281Y261851822D01*
X-24959798Y261851045D01*
X-24910673Y261765959D01*
X-24873044Y261721113D01*
X-24872129Y261719892D01*
X-24862891Y261706066D01*
X-24862889Y261706064D01*
X-24847954Y261691127D01*
X-24847130Y261690227D01*
X-24798149Y261631855D01*
X-24798141Y261631846D01*
X-24739776Y261582871D01*
X-24738876Y261582046D01*
X-24723944Y261567113D01*
X-24723941Y261567111D01*
X-24710108Y261557866D01*
X-24708888Y261556951D01*
X-24664040Y261519319D01*
X-24578968Y261470200D01*
X-24578191Y261469717D01*
X-24560550Y261457930D01*
X-24551362Y261454124D01*
X-24549721Y261453314D01*
X-24512444Y261431791D01*
X-24512445Y261431791D01*
X-24389125Y261386900D01*
X-24388791Y261386778D01*
X-24378999Y261382722D01*
X-24376025Y261382130D01*
X-24375016Y261381763D01*
X-24375008Y261381761D01*
X-24347941Y261371909D01*
X-24175538Y261341503D01*
X-24175543Y261341503D01*
X-24088222Y261341500D01*
X-24088219Y261341500D01*
X-24088218Y261341500D01*
X-16085180Y261341500D01*
X-16084870Y261341561D01*
X-16000499Y261341558D01*
X-16000481Y261341558D01*
X-16000476Y261341558D01*
X-15856813Y261366884D01*
X-15828079Y261371950D01*
X-15828077Y261371950D01*
X-15802173Y261381376D01*
X-15802173Y261381377D01*
X-15801160Y261381745D01*
X-15796965Y261382580D01*
X-15783183Y261388288D01*
X-15782881Y261388398D01*
X-15663648Y261431790D01*
X-15663574Y261431817D01*
X-15651121Y261439006D01*
X-15627530Y261452624D01*
X-15625889Y261453433D01*
X-15615376Y261457788D01*
X-15595354Y261471165D01*
X-15594577Y261471649D01*
X-15511964Y261519341D01*
X-15511958Y261519346D01*
X-15468434Y261555863D01*
X-15467214Y261556779D01*
X-15451951Y261566977D01*
X-15435498Y261583429D01*
X-15434598Y261584254D01*
X-15414083Y261601467D01*
X-15377856Y261631863D01*
X-15330253Y261688591D01*
X-15329429Y261689491D01*
X-15312968Y261705950D01*
X-15302766Y261721217D01*
X-15301850Y261722438D01*
X-15265324Y261765966D01*
X-15217627Y261848576D01*
X-15217143Y261849354D01*
X-15215494Y261851822D01*
X-15203766Y261869373D01*
X-15199412Y261879884D01*
X-15198602Y261881526D01*
X-15177794Y261917563D01*
X-15177793Y261917566D01*
X-15147729Y262000161D01*
X-15134251Y262037190D01*
X-15128547Y262050957D01*
X-15127714Y262055148D01*
X-15117914Y262082070D01*
X-15087512Y262254470D01*
X-15087511Y262342000D01*
X-15087511Y262342500D01*
X-15087511Y272342207D01*
X-15087511Y272344853D01*
X-15087576Y272345175D01*
X-15087567Y272429531D01*
X-15117950Y272601938D01*
X-15127742Y272628847D01*
X-15128577Y272633053D01*
X-15134305Y272646882D01*
X-15177812Y272766448D01*
X-15198624Y272802498D01*
X-15199416Y272804107D01*
X-15202604Y272811805D01*
X-15203778Y272814643D01*
X-15203779Y272814644D01*
X-15203780Y272814647D01*
X-15217208Y272834744D01*
X-15217640Y272835440D01*
X-15265335Y272918062D01*
X-15301855Y272961588D01*
X-15302748Y272962779D01*
X-15312969Y272978079D01*
X-15329447Y272994557D01*
X-15330272Y272995458D01*
X-15377857Y273052173D01*
X-15434606Y273099792D01*
X-15435437Y273100554D01*
X-15451947Y273117066D01*
X-15467258Y273127296D01*
X-15468444Y273128187D01*
X-15511961Y273164704D01*
X-15594578Y273212403D01*
X-15595268Y273212832D01*
X-15615371Y273226265D01*
X-15625915Y273230632D01*
X-15627536Y273231431D01*
X-15652522Y273245857D01*
X-15663565Y273252234D01*
X-15663567Y273252234D01*
X-15663569Y273252236D01*
X-15783140Y273295754D01*
X-15796961Y273301480D01*
X-15801166Y273302315D01*
X-15828075Y273312109D01*
X-16000480Y273342503D01*
X-16088011Y273342500D01*
X-24082149Y273342500D01*
X-24082302Y273342562D01*
X-24088011Y273342561D01*
X-24088011Y273342563D01*
X-24175546Y273342559D01*
X-24347954Y273312151D01*
X-24375625Y273302078D01*
X-24375625Y273302079D01*
X-24376633Y273301712D01*
X-24378986Y273301244D01*
X-24386720Y273298040D01*
X-24387006Y273297936D01*
X-24432791Y273281269D01*
X-24512463Y273252267D01*
X-24550413Y273230354D01*
X-24552016Y273229564D01*
X-24559980Y273226265D01*
X-24560528Y273226038D01*
X-24565777Y273222530D01*
X-24576935Y273215074D01*
X-24577694Y273214602D01*
X-24664075Y273164726D01*
X-24664081Y273164721D01*
X-24664084Y273164719D01*
X-24664104Y273164702D01*
X-24707600Y273128201D01*
X-24709600Y273126523D01*
X-24710804Y273125619D01*
X-24723907Y273116863D01*
X-24723910Y273116860D01*
X-24738057Y273102712D01*
X-24738958Y273101887D01*
X-24798180Y273052191D01*
X-24847880Y272992958D01*
X-24848705Y272992058D01*
X-24862854Y272977908D01*
X-24871600Y272964817D01*
X-24872512Y272963601D01*
X-24873201Y272962779D01*
X-24910710Y272918075D01*
X-24910715Y272918067D01*
X-24960575Y272831704D01*
X-24961058Y272830927D01*
X-24972016Y272814526D01*
X-24975537Y272806026D01*
X-24976346Y272804386D01*
X-24992041Y272777198D01*
X-24998241Y272766458D01*
X-24998241Y272766457D01*
X-24998242Y272766455D01*
X-25043904Y272640992D01*
X-25043905Y272640991D01*
X-25044009Y272640706D01*
X-25047210Y272632977D01*
X-25047677Y272630629D01*
X-25048044Y272629621D01*
X-25048046Y272629614D01*
X-25058116Y272601944D01*
X-25088512Y272429534D01*
X-26701700Y272429534D01*
X-26701700Y278245620D01*
X88027489Y278245620D01*
X88027489Y276038379D01*
X88061597Y275833975D01*
X88061600Y275833964D01*
X88128886Y275637965D01*
X88128887Y275637961D01*
X88128889Y275637958D01*
X88128892Y275637953D01*
X88227526Y275455693D01*
X88250447Y275426244D01*
X88251044Y275425476D01*
X88252093Y275423660D01*
X88257125Y275417662D01*
X88257315Y275417419D01*
X88257317Y275417417D01*
X88354814Y275292156D01*
X88354815Y275292154D01*
X88387653Y275261924D01*
X88388322Y275261307D01*
X88392417Y275256428D01*
X88406038Y275244998D01*
X88406294Y275244763D01*
X88507284Y275151796D01*
X88507289Y275151793D01*
X88550967Y275123256D01*
X88552307Y275122262D01*
X88559642Y275116108D01*
X88559657Y275116098D01*
X88578817Y275105036D01*
X88579474Y275104632D01*
X88680769Y275038453D01*
X88680772Y275038451D01*
X88735733Y275014342D01*
X88737107Y275013646D01*
X88748704Y275006952D01*
X88748716Y275006946D01*
X88771068Y274998810D01*
X88771902Y274998476D01*
X88870558Y274955203D01*
X88870559Y274955202D01*
X88870561Y274955202D01*
X88882189Y274952257D01*
X88936689Y274938455D01*
X88938039Y274938039D01*
X88953847Y274932286D01*
X88977049Y274928195D01*
X88978055Y274927980D01*
X89071458Y274904328D01*
X89148072Y274897979D01*
X89149347Y274897814D01*
X89163713Y274895281D01*
X89168836Y274894378D01*
X89168837Y274894378D01*
X89190957Y274894378D01*
X89192113Y274894330D01*
X89277987Y274887214D01*
X89277989Y274887214D01*
X89277991Y274887214D01*
X89363865Y274894330D01*
X89365021Y274894378D01*
X89387141Y274894378D01*
X89387142Y274894378D01*
X89397943Y274896282D01*
X89406629Y274897814D01*
X89407904Y274897979D01*
X89467313Y274902902D01*
X89484520Y274904328D01*
X89524957Y274914568D01*
X89577921Y274927980D01*
X89578927Y274928195D01*
X89602130Y274932286D01*
X89617936Y274938039D01*
X89619287Y274938455D01*
X89685417Y274955202D01*
X89784078Y274998478D01*
X89784913Y274998813D01*
X89807271Y275006951D01*
X89807273Y275006952D01*
X89818868Y275013646D01*
X89820236Y275014339D01*
X89837252Y275021803D01*
X89875201Y275038449D01*
X89875202Y275038449D01*
X89875205Y275038451D01*
X89875208Y275038453D01*
X89976502Y275104632D01*
X89977159Y275105036D01*
X89996324Y275116101D01*
X89996331Y275116105D01*
X90003668Y275122261D01*
X90005009Y275123256D01*
X90048688Y275151793D01*
X90048693Y275151796D01*
X90149670Y275244752D01*
X90149916Y275244978D01*
X90163561Y275256428D01*
X90167658Y275261311D01*
X90201165Y275292157D01*
X90298828Y275417634D01*
X90303885Y275423660D01*
X90304939Y275425485D01*
X90305021Y275425590D01*
X90328454Y275455697D01*
X90427089Y275637958D01*
X90494379Y275833968D01*
X90528489Y276038381D01*
X90528489Y276142000D01*
X90528489Y276142500D01*
X90528489Y278142207D01*
X90528489Y278245619D01*
X90528489Y278245620D01*
X96155489Y278245620D01*
X96155489Y276038379D01*
X96189597Y275833975D01*
X96189600Y275833964D01*
X96256886Y275637965D01*
X96256887Y275637961D01*
X96256889Y275637958D01*
X96256892Y275637953D01*
X96355526Y275455693D01*
X96378447Y275426244D01*
X96379044Y275425476D01*
X96380093Y275423660D01*
X96385125Y275417662D01*
X96385315Y275417419D01*
X96385317Y275417417D01*
X96482814Y275292156D01*
X96482815Y275292154D01*
X96515653Y275261924D01*
X96516322Y275261307D01*
X96520417Y275256428D01*
X96534038Y275244998D01*
X96534294Y275244763D01*
X96635284Y275151796D01*
X96635289Y275151793D01*
X96678967Y275123256D01*
X96680307Y275122262D01*
X96687642Y275116108D01*
X96687657Y275116098D01*
X96706817Y275105036D01*
X96707474Y275104632D01*
X96808769Y275038453D01*
X96808772Y275038451D01*
X96863733Y275014342D01*
X96865107Y275013646D01*
X96876704Y275006952D01*
X96876716Y275006946D01*
X96899068Y274998810D01*
X96899902Y274998476D01*
X96998558Y274955203D01*
X96998559Y274955202D01*
X96998561Y274955202D01*
X97010189Y274952257D01*
X97064689Y274938455D01*
X97066039Y274938039D01*
X97081847Y274932286D01*
X97105049Y274928195D01*
X97106055Y274927980D01*
X97199458Y274904328D01*
X97276072Y274897979D01*
X97277347Y274897814D01*
X97291713Y274895281D01*
X97296836Y274894378D01*
X97296837Y274894378D01*
X97318957Y274894378D01*
X97320113Y274894330D01*
X97405987Y274887214D01*
X97405989Y274887214D01*
X97405991Y274887214D01*
X97491865Y274894330D01*
X97493021Y274894378D01*
X97515141Y274894378D01*
X97515142Y274894378D01*
X97525943Y274896282D01*
X97534629Y274897814D01*
X97535904Y274897979D01*
X97595313Y274902902D01*
X97612520Y274904328D01*
X97652957Y274914568D01*
X97705921Y274927980D01*
X97706927Y274928195D01*
X97730130Y274932286D01*
X97745936Y274938039D01*
X97747287Y274938455D01*
X97813417Y274955202D01*
X97912078Y274998478D01*
X97912913Y274998813D01*
X97935271Y275006951D01*
X97935273Y275006952D01*
X97946868Y275013646D01*
X97948236Y275014339D01*
X97965252Y275021803D01*
X98003201Y275038449D01*
X98003202Y275038449D01*
X98003205Y275038451D01*
X98003208Y275038453D01*
X98104502Y275104632D01*
X98105159Y275105036D01*
X98124324Y275116101D01*
X98124331Y275116105D01*
X98131668Y275122261D01*
X98133009Y275123256D01*
X98176688Y275151793D01*
X98176693Y275151796D01*
X98277670Y275244752D01*
X98277916Y275244978D01*
X98291561Y275256428D01*
X98295658Y275261311D01*
X98329165Y275292157D01*
X98426828Y275417634D01*
X98431885Y275423660D01*
X98432939Y275425485D01*
X98433021Y275425590D01*
X98456454Y275455697D01*
X98555089Y275637958D01*
X98622379Y275833968D01*
X98656489Y276038381D01*
X98656489Y276142000D01*
X98656489Y276142500D01*
X98656489Y278142207D01*
X98656489Y278245619D01*
X98656489Y278245620D01*
X104283489Y278245620D01*
X104283489Y276038379D01*
X104317597Y275833975D01*
X104317600Y275833964D01*
X104384886Y275637965D01*
X104384887Y275637961D01*
X104384889Y275637958D01*
X104384892Y275637953D01*
X104483526Y275455693D01*
X104506447Y275426244D01*
X104507044Y275425476D01*
X104508093Y275423660D01*
X104513125Y275417662D01*
X104513315Y275417419D01*
X104513317Y275417417D01*
X104610814Y275292156D01*
X104610815Y275292154D01*
X104643653Y275261924D01*
X104644322Y275261307D01*
X104648417Y275256428D01*
X104662038Y275244998D01*
X104662294Y275244763D01*
X104763284Y275151796D01*
X104763289Y275151793D01*
X104806967Y275123256D01*
X104808307Y275122262D01*
X104815642Y275116108D01*
X104815657Y275116098D01*
X104834817Y275105036D01*
X104835474Y275104632D01*
X104936769Y275038453D01*
X104936772Y275038451D01*
X104991733Y275014342D01*
X104993107Y275013646D01*
X105004704Y275006952D01*
X105004716Y275006946D01*
X105027068Y274998810D01*
X105027902Y274998476D01*
X105126558Y274955203D01*
X105126559Y274955202D01*
X105126561Y274955202D01*
X105138189Y274952257D01*
X105192689Y274938455D01*
X105194039Y274938039D01*
X105209847Y274932286D01*
X105233049Y274928195D01*
X105234055Y274927980D01*
X105327458Y274904328D01*
X105404072Y274897979D01*
X105405347Y274897814D01*
X105419713Y274895281D01*
X105424836Y274894378D01*
X105424837Y274894378D01*
X105446957Y274894378D01*
X105448113Y274894330D01*
X105533987Y274887214D01*
X105533989Y274887214D01*
X105533991Y274887214D01*
X105619865Y274894330D01*
X105621021Y274894378D01*
X105643141Y274894378D01*
X105643142Y274894378D01*
X105653943Y274896282D01*
X105662629Y274897814D01*
X105663904Y274897979D01*
X105723313Y274902902D01*
X105740520Y274904328D01*
X105780957Y274914568D01*
X105833921Y274927980D01*
X105834927Y274928195D01*
X105858130Y274932286D01*
X105873936Y274938039D01*
X105875287Y274938455D01*
X105941417Y274955202D01*
X106040078Y274998478D01*
X106040913Y274998813D01*
X106063271Y275006951D01*
X106063273Y275006952D01*
X106074868Y275013646D01*
X106076236Y275014339D01*
X106093252Y275021803D01*
X106131201Y275038449D01*
X106131202Y275038449D01*
X106131205Y275038451D01*
X106131208Y275038453D01*
X106232502Y275104632D01*
X106233159Y275105036D01*
X106252324Y275116101D01*
X106252331Y275116105D01*
X106259668Y275122261D01*
X106261009Y275123256D01*
X106304688Y275151793D01*
X106304693Y275151796D01*
X106405670Y275244752D01*
X106405916Y275244978D01*
X106419561Y275256428D01*
X106423658Y275261311D01*
X106457165Y275292157D01*
X106554828Y275417634D01*
X106559885Y275423660D01*
X106560939Y275425485D01*
X106561021Y275425590D01*
X106584454Y275455697D01*
X106683089Y275637958D01*
X106750379Y275833968D01*
X106784489Y276038381D01*
X106784489Y276142000D01*
X106784489Y276142500D01*
X106784489Y278142207D01*
X106784489Y278245619D01*
X106784489Y278245620D01*
X112411489Y278245620D01*
X112411489Y276038379D01*
X112445597Y275833975D01*
X112445600Y275833964D01*
X112512886Y275637965D01*
X112512887Y275637961D01*
X112512889Y275637958D01*
X112512892Y275637953D01*
X112611526Y275455693D01*
X112634447Y275426244D01*
X112635044Y275425476D01*
X112636093Y275423660D01*
X112641125Y275417662D01*
X112641315Y275417419D01*
X112641317Y275417417D01*
X112738814Y275292156D01*
X112738815Y275292154D01*
X112771653Y275261924D01*
X112772322Y275261307D01*
X112776417Y275256428D01*
X112790038Y275244998D01*
X112790294Y275244763D01*
X112891284Y275151796D01*
X112891289Y275151793D01*
X112934967Y275123256D01*
X112936307Y275122262D01*
X112943642Y275116108D01*
X112943657Y275116098D01*
X112962817Y275105036D01*
X112963474Y275104632D01*
X113064769Y275038453D01*
X113064772Y275038451D01*
X113119733Y275014342D01*
X113121107Y275013646D01*
X113132704Y275006952D01*
X113132716Y275006946D01*
X113155068Y274998810D01*
X113155902Y274998476D01*
X113254558Y274955203D01*
X113254559Y274955202D01*
X113254561Y274955202D01*
X113266189Y274952257D01*
X113320689Y274938455D01*
X113322039Y274938039D01*
X113337847Y274932286D01*
X113361049Y274928195D01*
X113362055Y274927980D01*
X113455458Y274904328D01*
X113532072Y274897979D01*
X113533347Y274897814D01*
X113547713Y274895281D01*
X113552836Y274894378D01*
X113552837Y274894378D01*
X113574957Y274894378D01*
X113576113Y274894330D01*
X113661987Y274887214D01*
X113661989Y274887214D01*
X113661991Y274887214D01*
X113747865Y274894330D01*
X113749021Y274894378D01*
X113771141Y274894378D01*
X113771142Y274894378D01*
X113781943Y274896282D01*
X113790629Y274897814D01*
X113791904Y274897979D01*
X113851313Y274902902D01*
X113868520Y274904328D01*
X113908957Y274914568D01*
X113961921Y274927980D01*
X113962927Y274928195D01*
X113986130Y274932286D01*
X114001936Y274938039D01*
X114003287Y274938455D01*
X114069417Y274955202D01*
X114168078Y274998478D01*
X114168913Y274998813D01*
X114191271Y275006951D01*
X114191273Y275006952D01*
X114202868Y275013646D01*
X114204236Y275014339D01*
X114221252Y275021803D01*
X114259201Y275038449D01*
X114259202Y275038449D01*
X114259205Y275038451D01*
X114259208Y275038453D01*
X114360502Y275104632D01*
X114361159Y275105036D01*
X114380324Y275116101D01*
X114380331Y275116105D01*
X114387668Y275122261D01*
X114389009Y275123256D01*
X114432688Y275151793D01*
X114432693Y275151796D01*
X114533670Y275244752D01*
X114533916Y275244978D01*
X114547561Y275256428D01*
X114551658Y275261311D01*
X114585165Y275292157D01*
X114682828Y275417634D01*
X114687885Y275423660D01*
X114688939Y275425485D01*
X114689021Y275425590D01*
X114712454Y275455697D01*
X114811089Y275637958D01*
X114878379Y275833968D01*
X114912489Y276038381D01*
X114912489Y276142000D01*
X114912489Y276142500D01*
X114912489Y278142207D01*
X114912489Y278245619D01*
X114878379Y278450032D01*
X114811089Y278646042D01*
X114712454Y278828303D01*
X114688934Y278858521D01*
X114687885Y278860340D01*
X114682837Y278866353D01*
X114585165Y278991843D01*
X114551656Y279022689D01*
X114547561Y279027572D01*
X114533915Y279039022D01*
X114432695Y279132202D01*
X114388973Y279160766D01*
X114387679Y279161728D01*
X114380329Y279167896D01*
X114361108Y279178992D01*
X114360547Y279179338D01*
X114259201Y279245551D01*
X114204215Y279269669D01*
X114202888Y279270341D01*
X114191271Y279277049D01*
X114168892Y279285194D01*
X114168111Y279285506D01*
X114069417Y279328798D01*
X114003265Y279345549D01*
X114001946Y279345956D01*
X113986131Y279351713D01*
X113962890Y279355810D01*
X113961964Y279356008D01*
X113868520Y279379672D01*
X113791872Y279386023D01*
X113790665Y279386179D01*
X113771142Y279389622D01*
X113771140Y279389622D01*
X113749021Y279389622D01*
X113747865Y279389670D01*
X113661991Y279396786D01*
X113661987Y279396786D01*
X113576113Y279389670D01*
X113574957Y279389622D01*
X113552838Y279389622D01*
X113552836Y279389622D01*
X113533314Y279386179D01*
X113532102Y279386023D01*
X113455458Y279379672D01*
X113362025Y279356011D01*
X113361075Y279355808D01*
X113337847Y279351713D01*
X113337841Y279351711D01*
X113322041Y279345960D01*
X113320704Y279345547D01*
X113254561Y279328798D01*
X113155887Y279285515D01*
X113155074Y279285190D01*
X113132707Y279277049D01*
X113121096Y279270345D01*
X113119755Y279269666D01*
X113064777Y279245551D01*
X112963456Y279179355D01*
X112962860Y279178987D01*
X112943649Y279167896D01*
X112943646Y279167893D01*
X112943645Y279167893D01*
X112936314Y279161741D01*
X112934976Y279160748D01*
X112920168Y279151073D01*
X112891288Y279132206D01*
X112891284Y279132203D01*
X112790306Y279039246D01*
X112790063Y279039022D01*
X112776417Y279027572D01*
X112772315Y279022684D01*
X112738813Y278991843D01*
X112697339Y278938558D01*
X112641315Y278866580D01*
X112641316Y278866580D01*
X112641150Y278866366D01*
X112636093Y278860340D01*
X112635041Y278858518D01*
X112611524Y278828303D01*
X112512889Y278646042D01*
X112512886Y278646035D01*
X112512886Y278646034D01*
X112445600Y278450035D01*
X112445597Y278450024D01*
X112411489Y278245620D01*
X106784489Y278245620D01*
X106750379Y278450032D01*
X106683089Y278646042D01*
X106584454Y278828303D01*
X106560934Y278858521D01*
X106559885Y278860340D01*
X106554837Y278866353D01*
X106457165Y278991843D01*
X106423656Y279022689D01*
X106419561Y279027572D01*
X106405915Y279039022D01*
X106304695Y279132202D01*
X106260973Y279160766D01*
X106259679Y279161728D01*
X106252329Y279167896D01*
X106233108Y279178992D01*
X106232547Y279179338D01*
X106131201Y279245551D01*
X106076215Y279269669D01*
X106074888Y279270341D01*
X106063271Y279277049D01*
X106040892Y279285194D01*
X106040111Y279285506D01*
X105941417Y279328798D01*
X105875265Y279345549D01*
X105873946Y279345956D01*
X105858131Y279351713D01*
X105834890Y279355810D01*
X105833964Y279356008D01*
X105740520Y279379672D01*
X105663872Y279386023D01*
X105662665Y279386179D01*
X105643142Y279389622D01*
X105643140Y279389622D01*
X105621021Y279389622D01*
X105619865Y279389670D01*
X105533991Y279396786D01*
X105533987Y279396786D01*
X105448113Y279389670D01*
X105446957Y279389622D01*
X105424838Y279389622D01*
X105424836Y279389622D01*
X105405314Y279386179D01*
X105404102Y279386023D01*
X105327458Y279379672D01*
X105234025Y279356011D01*
X105233075Y279355808D01*
X105209847Y279351713D01*
X105209841Y279351711D01*
X105194041Y279345960D01*
X105192704Y279345547D01*
X105126561Y279328798D01*
X105027887Y279285515D01*
X105027074Y279285190D01*
X105004707Y279277049D01*
X104993096Y279270345D01*
X104991755Y279269666D01*
X104936777Y279245551D01*
X104835456Y279179355D01*
X104834860Y279178987D01*
X104815649Y279167896D01*
X104815646Y279167893D01*
X104815645Y279167893D01*
X104808314Y279161741D01*
X104806976Y279160748D01*
X104792168Y279151073D01*
X104763288Y279132206D01*
X104763284Y279132203D01*
X104662306Y279039246D01*
X104662063Y279039022D01*
X104648417Y279027572D01*
X104644315Y279022684D01*
X104610813Y278991843D01*
X104569339Y278938558D01*
X104513315Y278866580D01*
X104513316Y278866580D01*
X104513150Y278866366D01*
X104508093Y278860340D01*
X104507041Y278858518D01*
X104483524Y278828303D01*
X104384889Y278646042D01*
X104384886Y278646035D01*
X104384886Y278646034D01*
X104317600Y278450035D01*
X104317597Y278450024D01*
X104283489Y278245620D01*
X98656489Y278245620D01*
X98622379Y278450032D01*
X98555089Y278646042D01*
X98456454Y278828303D01*
X98432934Y278858521D01*
X98431885Y278860340D01*
X98426837Y278866353D01*
X98329165Y278991843D01*
X98295656Y279022689D01*
X98291561Y279027572D01*
X98277915Y279039022D01*
X98176695Y279132202D01*
X98132973Y279160766D01*
X98131679Y279161728D01*
X98124329Y279167896D01*
X98105108Y279178992D01*
X98104547Y279179338D01*
X98003201Y279245551D01*
X97948215Y279269669D01*
X97946888Y279270341D01*
X97935271Y279277049D01*
X97912892Y279285194D01*
X97912111Y279285506D01*
X97813417Y279328798D01*
X97747265Y279345549D01*
X97745946Y279345956D01*
X97730131Y279351713D01*
X97706890Y279355810D01*
X97705964Y279356008D01*
X97612520Y279379672D01*
X97535872Y279386023D01*
X97534665Y279386179D01*
X97515142Y279389622D01*
X97515140Y279389622D01*
X97493021Y279389622D01*
X97491865Y279389670D01*
X97405991Y279396786D01*
X97405987Y279396786D01*
X97320113Y279389670D01*
X97318957Y279389622D01*
X97296838Y279389622D01*
X97296836Y279389622D01*
X97277314Y279386179D01*
X97276102Y279386023D01*
X97199458Y279379672D01*
X97106025Y279356011D01*
X97105075Y279355808D01*
X97081847Y279351713D01*
X97081841Y279351711D01*
X97066041Y279345960D01*
X97064704Y279345547D01*
X96998561Y279328798D01*
X96899887Y279285515D01*
X96899074Y279285190D01*
X96876707Y279277049D01*
X96865096Y279270345D01*
X96863755Y279269666D01*
X96808777Y279245551D01*
X96707456Y279179355D01*
X96706860Y279178987D01*
X96687649Y279167896D01*
X96687646Y279167893D01*
X96687645Y279167893D01*
X96680314Y279161741D01*
X96678976Y279160748D01*
X96664168Y279151073D01*
X96635288Y279132206D01*
X96635284Y279132203D01*
X96534306Y279039246D01*
X96534063Y279039022D01*
X96520417Y279027572D01*
X96516315Y279022684D01*
X96482813Y278991843D01*
X96441339Y278938558D01*
X96385315Y278866580D01*
X96385316Y278866580D01*
X96385150Y278866366D01*
X96380093Y278860340D01*
X96379041Y278858518D01*
X96355524Y278828303D01*
X96256889Y278646042D01*
X96256886Y278646035D01*
X96256886Y278646034D01*
X96189600Y278450035D01*
X96189597Y278450024D01*
X96155489Y278245620D01*
X90528489Y278245620D01*
X90494379Y278450032D01*
X90427089Y278646042D01*
X90328454Y278828303D01*
X90304934Y278858521D01*
X90303885Y278860340D01*
X90298837Y278866353D01*
X90201165Y278991843D01*
X90167656Y279022689D01*
X90163561Y279027572D01*
X90149915Y279039022D01*
X90048695Y279132202D01*
X90004973Y279160766D01*
X90003679Y279161728D01*
X89996329Y279167896D01*
X89977108Y279178992D01*
X89976547Y279179338D01*
X89875201Y279245551D01*
X89820215Y279269669D01*
X89818888Y279270341D01*
X89807271Y279277049D01*
X89784892Y279285194D01*
X89784111Y279285506D01*
X89685417Y279328798D01*
X89619265Y279345549D01*
X89617946Y279345956D01*
X89602131Y279351713D01*
X89578890Y279355810D01*
X89577964Y279356008D01*
X89484520Y279379672D01*
X89407872Y279386023D01*
X89406665Y279386179D01*
X89387142Y279389622D01*
X89387140Y279389622D01*
X89365021Y279389622D01*
X89363865Y279389670D01*
X89277991Y279396786D01*
X89277987Y279396786D01*
X89192113Y279389670D01*
X89190957Y279389622D01*
X89168838Y279389622D01*
X89168836Y279389622D01*
X89149314Y279386179D01*
X89148102Y279386023D01*
X89071458Y279379672D01*
X88978025Y279356011D01*
X88977075Y279355808D01*
X88953847Y279351713D01*
X88953841Y279351711D01*
X88938041Y279345960D01*
X88936704Y279345547D01*
X88870561Y279328798D01*
X88771887Y279285515D01*
X88771074Y279285190D01*
X88748707Y279277049D01*
X88737096Y279270345D01*
X88735755Y279269666D01*
X88680777Y279245551D01*
X88579456Y279179355D01*
X88578860Y279178987D01*
X88559649Y279167896D01*
X88559646Y279167893D01*
X88559645Y279167893D01*
X88552314Y279161741D01*
X88550976Y279160748D01*
X88536168Y279151073D01*
X88507288Y279132206D01*
X88507284Y279132203D01*
X88406306Y279039246D01*
X88406063Y279039022D01*
X88392417Y279027572D01*
X88388315Y279022684D01*
X88354813Y278991843D01*
X88313339Y278938558D01*
X88257315Y278866580D01*
X88257316Y278866580D01*
X88257150Y278866366D01*
X88252093Y278860340D01*
X88251041Y278858518D01*
X88227524Y278828303D01*
X88128889Y278646042D01*
X88128886Y278646035D01*
X88128886Y278646034D01*
X88061600Y278450035D01*
X88061597Y278450024D01*
X88027489Y278245620D01*
X-26701700Y278245620D01*
X-26701700Y284427500D01*
X-26697599Y284437399D01*
X-26687700Y284441500D01*
X-15001992Y284441500D01*
X-15001700Y284441792D01*
X-15001700Y286027500D01*
X-14997599Y286037399D01*
X-14987700Y286041500D01*
X4983300Y286041500D01*
X4993199Y286037399D01*
G37*
%TD.AperFunction*%
%TD*%
%TA.AperFunction,Conductor*%
%TO.N,g*%
G36*
X188393199Y229237399D02*
G01*
X188397300Y229227500D01*
X188397300Y219241792D01*
X188397592Y219241500D01*
X188397593Y219241500D01*
X188398007Y219241500D01*
X189983300Y219241500D01*
X189993199Y219237399D01*
X189997300Y219227500D01*
X189997300Y199256500D01*
X189993199Y199246601D01*
X189983300Y199242500D01*
X188397592Y199242500D01*
X188397300Y199242208D01*
X188397300Y167241792D01*
X188397592Y167241500D01*
X188397593Y167241500D01*
X189983300Y167241500D01*
X189993199Y167237399D01*
X189997300Y167227500D01*
X189997300Y147256500D01*
X189993199Y147246601D01*
X189983300Y147242500D01*
X188397592Y147242500D01*
X188397300Y147242208D01*
X188397300Y137256500D01*
X188393199Y137246601D01*
X188383300Y137242500D01*
X156812300Y137242500D01*
X156802401Y137246601D01*
X156798300Y137256500D01*
X156798300Y142242208D01*
X156798008Y142242500D01*
X156798007Y142242500D01*
X156198415Y142242500D01*
X156197194Y142242553D01*
X156040033Y142256307D01*
X156038579Y142256515D01*
X156000331Y142264124D01*
X155999546Y142264308D01*
X155863733Y142300703D01*
X155862016Y142301286D01*
X155836811Y142311727D01*
X155836373Y142311920D01*
X155699164Y142375906D01*
X155697067Y142377117D01*
X155556348Y142475652D01*
X155554491Y142477210D01*
X155433019Y142598686D01*
X155431461Y142600543D01*
X155332929Y142741264D01*
X155331718Y142743361D01*
X155267744Y142880554D01*
X155267527Y142881048D01*
X155257102Y142906214D01*
X155256521Y142907924D01*
X155220132Y143043728D01*
X155219939Y143044556D01*
X155212338Y143082767D01*
X155212127Y143084245D01*
X155198352Y143241674D01*
X155198300Y143242883D01*
X155198300Y161241385D01*
X155198353Y161242605D01*
X155199085Y161250974D01*
X155212039Y161399076D01*
X155212248Y161400537D01*
X155220213Y161440586D01*
X155220402Y161441393D01*
X155256337Y161575514D01*
X155256924Y161577244D01*
X155268243Y161604572D01*
X155268451Y161605043D01*
X155331683Y161740651D01*
X155332903Y161742765D01*
X155431429Y161883482D01*
X155432997Y161885351D01*
X155554460Y162006821D01*
X155556330Y162008390D01*
X155697039Y162106921D01*
X155699152Y162108141D01*
X155834733Y162171368D01*
X155835292Y162171614D01*
X155862550Y162182905D01*
X155864284Y162183494D01*
X155998367Y162219428D01*
X155999259Y162219636D01*
X156039237Y162227589D01*
X156040748Y162227805D01*
X156196601Y162241447D01*
X156197822Y162241500D01*
X156798008Y162241500D01*
X156798300Y162241792D01*
X156798300Y204242208D01*
X156798008Y204242500D01*
X156798007Y204242500D01*
X156198415Y204242500D01*
X156197194Y204242553D01*
X156040033Y204256307D01*
X156038579Y204256515D01*
X156000331Y204264124D01*
X155999546Y204264308D01*
X155863733Y204300703D01*
X155862016Y204301286D01*
X155836811Y204311727D01*
X155836373Y204311920D01*
X155699164Y204375906D01*
X155697067Y204377117D01*
X155556348Y204475652D01*
X155554491Y204477210D01*
X155433019Y204598686D01*
X155431461Y204600543D01*
X155332929Y204741264D01*
X155331718Y204743361D01*
X155267744Y204880554D01*
X155267527Y204881048D01*
X155257102Y204906214D01*
X155256521Y204907924D01*
X155220132Y205043728D01*
X155219939Y205044556D01*
X155212338Y205082767D01*
X155212127Y205084245D01*
X155198352Y205241674D01*
X155198300Y205242883D01*
X155198300Y223241385D01*
X155198353Y223242605D01*
X155199085Y223250974D01*
X155212039Y223399076D01*
X155212248Y223400537D01*
X155220213Y223440586D01*
X155220402Y223441393D01*
X155256337Y223575514D01*
X155256924Y223577244D01*
X155268243Y223604572D01*
X155268451Y223605043D01*
X155331683Y223740651D01*
X155332903Y223742765D01*
X155431429Y223883482D01*
X155432997Y223885351D01*
X155554460Y224006821D01*
X155556330Y224008390D01*
X155697039Y224106921D01*
X155699152Y224108141D01*
X155834733Y224171368D01*
X155835292Y224171614D01*
X155862550Y224182905D01*
X155864284Y224183494D01*
X155998367Y224219428D01*
X155999259Y224219636D01*
X156039237Y224227589D01*
X156040748Y224227805D01*
X156196601Y224241447D01*
X156197822Y224241500D01*
X156798008Y224241500D01*
X156798300Y224241792D01*
X156798300Y229227500D01*
X156802401Y229237399D01*
X156812300Y229241500D01*
X188383300Y229241500D01*
X188393199Y229237399D01*
G37*
%TD.AperFunction*%
%TD*%
%TA.AperFunction,Conductor*%
%TO.N,g*%
G36*
X426998257Y33241471D02*
G01*
X427234863Y33225967D01*
X427235938Y33225855D01*
X427291655Y33217846D01*
X427292288Y33217737D01*
X427499482Y33176527D01*
X427500635Y33176243D01*
X427546575Y33162755D01*
X427547087Y33162593D01*
X427755964Y33091691D01*
X427757257Y33091179D01*
X427783265Y33079302D01*
X427783608Y33079138D01*
X427862863Y33040055D01*
X427996736Y32974038D01*
X427998320Y32973124D01*
X428214246Y32828850D01*
X428214272Y32828833D01*
X428215724Y32827719D01*
X428410997Y32656472D01*
X428412276Y32655193D01*
X428492364Y32563871D01*
X428583526Y32459921D01*
X428584641Y32458468D01*
X428728934Y32242520D01*
X428729849Y32240934D01*
X428834945Y32027821D01*
X428835124Y32027445D01*
X428846986Y32001470D01*
X428847508Y32000154D01*
X428918401Y31791308D01*
X428918577Y31790753D01*
X428932052Y31744866D01*
X428932350Y31743652D01*
X428973547Y31536533D01*
X428973674Y31535794D01*
X428981673Y31480150D01*
X428981785Y31479074D01*
X428997270Y31242813D01*
X428997300Y31241897D01*
X428997300Y-64757541D01*
X428997270Y-64758457D01*
X428981880Y-64993211D01*
X428981768Y-64994287D01*
X428973122Y-65054426D01*
X428972995Y-65055165D01*
X428932634Y-65258072D01*
X428932336Y-65259285D01*
X428917442Y-65310008D01*
X428917266Y-65310564D01*
X428847937Y-65514802D01*
X428847415Y-65516118D01*
X428832958Y-65547774D01*
X428832779Y-65548150D01*
X428729822Y-65756930D01*
X428728907Y-65758516D01*
X428584617Y-65974465D01*
X428583502Y-65975918D01*
X428412263Y-66171183D01*
X428410968Y-66172478D01*
X428215703Y-66343725D01*
X428214250Y-66344839D01*
X427998315Y-66489128D01*
X427996729Y-66490044D01*
X427787956Y-66593003D01*
X427787580Y-66593182D01*
X427755910Y-66607646D01*
X427754594Y-66608168D01*
X427550374Y-66677497D01*
X427549819Y-66677673D01*
X427499081Y-66692573D01*
X427497868Y-66692871D01*
X427294942Y-66733240D01*
X427294203Y-66733366D01*
X427234100Y-66742010D01*
X427233023Y-66742123D01*
X426998984Y-66757470D01*
X426998068Y-66757500D01*
X272998258Y-66757500D01*
X272997342Y-66757470D01*
X272761648Y-66742016D01*
X272760571Y-66741903D01*
X272702711Y-66733583D01*
X272701973Y-66733457D01*
X272496956Y-66692674D01*
X272495742Y-66692376D01*
X272447412Y-66678184D01*
X272446857Y-66678008D01*
X272240337Y-66607900D01*
X272239021Y-66607378D01*
X272210208Y-66594219D01*
X272209832Y-66594040D01*
X271998884Y-66490011D01*
X271997298Y-66489095D01*
X271781365Y-66344809D01*
X271779912Y-66343695D01*
X271714004Y-66285895D01*
X271584642Y-66172445D01*
X271583361Y-66171164D01*
X271412116Y-65975895D01*
X271411002Y-65974444D01*
X271266724Y-65758516D01*
X271266712Y-65758497D01*
X271265798Y-65756913D01*
X271210455Y-65644688D01*
X271161759Y-65545942D01*
X271161614Y-65545637D01*
X271148427Y-65516763D01*
X271147916Y-65515475D01*
X271077797Y-65308911D01*
X271077625Y-65308366D01*
X271063438Y-65260051D01*
X271063148Y-65258869D01*
X271022357Y-65053805D01*
X271022246Y-65053162D01*
X271013911Y-64995189D01*
X271013802Y-64994143D01*
X270998329Y-64758089D01*
X270998300Y-64757178D01*
X270998300Y-62757792D01*
X284797300Y-62757792D01*
X284797300Y-64658208D01*
X284797592Y-64658500D01*
X284797593Y-64658500D01*
X305198008Y-64658500D01*
X305198300Y-64658208D01*
X305198300Y-62757792D01*
X339797300Y-62757792D01*
X339797300Y-64658208D01*
X339797592Y-64658500D01*
X339797593Y-64658500D01*
X360198008Y-64658500D01*
X360198300Y-64658208D01*
X360198300Y-62757792D01*
X394797300Y-62757792D01*
X394797300Y-64658208D01*
X394797592Y-64658500D01*
X394797593Y-64658500D01*
X415198008Y-64658500D01*
X415198300Y-64658208D01*
X415198300Y-62757792D01*
X415198008Y-62757500D01*
X415198007Y-62757500D01*
X394798007Y-62757500D01*
X394797593Y-62757500D01*
X394797592Y-62757500D01*
X394797300Y-62757792D01*
X360198300Y-62757792D01*
X360198008Y-62757500D01*
X360198007Y-62757500D01*
X339798007Y-62757500D01*
X339797593Y-62757500D01*
X339797592Y-62757500D01*
X339797300Y-62757792D01*
X305198300Y-62757792D01*
X305198008Y-62757500D01*
X305198007Y-62757500D01*
X284798007Y-62757500D01*
X284797593Y-62757500D01*
X284797592Y-62757500D01*
X284797300Y-62757792D01*
X270998300Y-62757792D01*
X270998300Y-32557792D01*
X273097300Y-32557792D01*
X273097300Y-52958208D01*
X273097592Y-52958500D01*
X273097593Y-52958500D01*
X274998008Y-52958500D01*
X274998300Y-52958208D01*
X274998300Y-39413389D01*
X311399500Y-39413389D01*
X311399500Y-39586610D01*
X311426598Y-39757701D01*
X311480127Y-39922447D01*
X311558766Y-40076784D01*
X311558776Y-40076800D01*
X311660584Y-40216926D01*
X311660591Y-40216934D01*
X311783065Y-40339408D01*
X311783073Y-40339415D01*
X311923199Y-40441223D01*
X311923203Y-40441225D01*
X311923212Y-40441232D01*
X312000383Y-40480552D01*
X312077552Y-40519872D01*
X312077554Y-40519872D01*
X312077555Y-40519873D01*
X312242299Y-40573402D01*
X312413389Y-40600500D01*
X312586611Y-40600500D01*
X312757701Y-40573402D01*
X312922445Y-40519873D01*
X313076788Y-40441232D01*
X313216928Y-40339414D01*
X313339414Y-40216928D01*
X313441232Y-40076788D01*
X313519873Y-39922445D01*
X313573402Y-39757701D01*
X313600500Y-39586611D01*
X313600500Y-39413389D01*
X313573402Y-39242299D01*
X313519873Y-39077555D01*
X313519872Y-39077554D01*
X313519872Y-39077552D01*
X313480552Y-39000383D01*
X313441232Y-38923212D01*
X313339414Y-38783072D01*
X313339408Y-38783065D01*
X313216934Y-38660591D01*
X313216926Y-38660584D01*
X313076800Y-38558776D01*
X313076792Y-38558771D01*
X313076788Y-38558768D01*
X313071223Y-38555932D01*
X312922447Y-38480127D01*
X312757701Y-38426598D01*
X312586611Y-38399500D01*
X312413389Y-38399500D01*
X312242298Y-38426598D01*
X312077552Y-38480127D01*
X311923215Y-38558766D01*
X311923199Y-38558776D01*
X311783073Y-38660584D01*
X311783065Y-38660591D01*
X311660591Y-38783065D01*
X311660584Y-38783073D01*
X311558776Y-38923199D01*
X311558766Y-38923215D01*
X311480127Y-39077552D01*
X311426598Y-39242298D01*
X311399500Y-39413389D01*
X274998300Y-39413389D01*
X274998300Y-32557792D01*
X424997300Y-32557792D01*
X424997300Y-52958208D01*
X424997592Y-52958500D01*
X424997593Y-52958500D01*
X426898008Y-52958500D01*
X426898300Y-52958208D01*
X426898300Y-32557792D01*
X426898008Y-32557500D01*
X426898007Y-32557500D01*
X424998007Y-32557500D01*
X424997593Y-32557500D01*
X424997592Y-32557500D01*
X424997300Y-32557792D01*
X274998300Y-32557792D01*
X274998008Y-32557500D01*
X274998007Y-32557500D01*
X273098007Y-32557500D01*
X273097593Y-32557500D01*
X273097592Y-32557500D01*
X273097300Y-32557792D01*
X270998300Y-32557792D01*
X270998300Y-29500000D01*
X336000000Y-29500000D01*
X336000000Y-31500000D01*
X336025000Y-31575000D01*
X336050000Y-31650002D01*
X336050001Y-31650003D01*
X336174999Y-31825000D01*
X336349996Y-31949998D01*
X336349997Y-31949999D01*
X336349999Y-31949999D01*
X336350000Y-31950000D01*
X336500000Y-32000000D01*
X336500002Y-32000000D01*
X338499998Y-32000000D01*
X338500000Y-32000000D01*
X338650000Y-31950000D01*
X338650000Y-31949999D01*
X338650002Y-31949999D01*
X338650003Y-31949998D01*
X338825000Y-31825000D01*
X338949998Y-31650003D01*
X338949999Y-31650002D01*
X338950000Y-31650000D01*
X339000000Y-31500000D01*
X339000000Y-29500000D01*
X361000000Y-29500000D01*
X361000000Y-31500000D01*
X361025000Y-31575000D01*
X361050000Y-31650002D01*
X361050001Y-31650003D01*
X361174999Y-31825000D01*
X361349996Y-31949998D01*
X361349997Y-31949999D01*
X361349999Y-31949999D01*
X361350000Y-31950000D01*
X361500000Y-32000000D01*
X361500002Y-32000000D01*
X363499998Y-32000000D01*
X363500000Y-32000000D01*
X363650000Y-31950000D01*
X363650000Y-31949999D01*
X363650002Y-31949999D01*
X363650003Y-31949998D01*
X363825000Y-31825000D01*
X363949998Y-31650003D01*
X363949999Y-31650002D01*
X363950000Y-31650000D01*
X364000000Y-31500000D01*
X364000000Y-29500000D01*
X363950000Y-29350000D01*
X363949999Y-29349999D01*
X363949999Y-29349997D01*
X363949998Y-29349996D01*
X363825000Y-29174999D01*
X363650003Y-29050001D01*
X363650002Y-29050000D01*
X363575000Y-29025000D01*
X363500000Y-29000000D01*
X361500000Y-29000000D01*
X361440000Y-29020000D01*
X361349997Y-29050000D01*
X361349996Y-29050001D01*
X361174999Y-29174999D01*
X361050001Y-29349996D01*
X361050000Y-29349997D01*
X361012500Y-29462500D01*
X361000000Y-29500000D01*
X339000000Y-29500000D01*
X338950000Y-29350000D01*
X338949999Y-29349999D01*
X338949999Y-29349997D01*
X338949998Y-29349996D01*
X338825000Y-29174999D01*
X338650003Y-29050001D01*
X338650002Y-29050000D01*
X338575000Y-29025000D01*
X338500000Y-29000000D01*
X336500000Y-29000000D01*
X336440000Y-29020000D01*
X336349997Y-29050000D01*
X336349996Y-29050001D01*
X336174999Y-29174999D01*
X336050001Y-29349996D01*
X336050000Y-29349997D01*
X336012500Y-29462500D01*
X336000000Y-29500000D01*
X270998300Y-29500000D01*
X270998300Y-2995000D01*
X383500000Y-2995000D01*
X383500000Y-4995000D01*
X383525000Y-5070000D01*
X383550000Y-5145002D01*
X383550001Y-5145003D01*
X383674999Y-5320000D01*
X383849996Y-5444998D01*
X383849997Y-5444999D01*
X383849999Y-5444999D01*
X383850000Y-5445000D01*
X384000000Y-5495000D01*
X384000002Y-5495000D01*
X385999998Y-5495000D01*
X386000000Y-5495000D01*
X386150000Y-5445000D01*
X386150000Y-5444999D01*
X386150002Y-5444999D01*
X386150003Y-5444998D01*
X386325000Y-5320000D01*
X386449998Y-5145003D01*
X386449999Y-5145002D01*
X386450000Y-5145000D01*
X386500000Y-4995000D01*
X386500000Y-2995000D01*
X386450000Y-2845000D01*
X386449999Y-2844999D01*
X386449999Y-2844997D01*
X386449998Y-2844996D01*
X386325000Y-2669999D01*
X386150003Y-2545001D01*
X386150002Y-2545000D01*
X386075000Y-2520000D01*
X386000000Y-2495000D01*
X384000000Y-2495000D01*
X383940000Y-2515000D01*
X383849997Y-2545000D01*
X383849996Y-2545001D01*
X383674999Y-2669999D01*
X383550001Y-2844996D01*
X383550000Y-2844997D01*
X383512500Y-2957500D01*
X383500000Y-2995000D01*
X270998300Y-2995000D01*
X270998300Y19442208D01*
X273097300Y19442208D01*
X273097300Y-958208D01*
X273097592Y-958500D01*
X273097593Y-958500D01*
X274998008Y-958500D01*
X274998300Y-958208D01*
X274998300Y19442208D01*
X274998008Y19442500D01*
X274998007Y19442500D01*
X273098007Y19442500D01*
X273097593Y19442500D01*
X273097592Y19442500D01*
X273097300Y19442208D01*
X270998300Y19442208D01*
X270998300Y21039531D01*
X321897299Y21039531D01*
X321897300Y20952000D01*
X321897300Y5749071D01*
X321897324Y5748950D01*
X321897324Y5664470D01*
X321927724Y5492069D01*
X321937601Y5464932D01*
X321937600Y5464932D01*
X321937968Y5463920D01*
X321938547Y5461012D01*
X321942514Y5451435D01*
X321957537Y5410160D01*
X321987599Y5327566D01*
X321987601Y5327560D01*
X322009163Y5290214D01*
X322009973Y5288573D01*
X322013748Y5279461D01*
X322025449Y5261949D01*
X322025932Y5261171D01*
X322075124Y5175967D01*
X322075131Y5175956D01*
X322112824Y5131035D01*
X322113729Y5129827D01*
X322122919Y5116071D01*
X322122921Y5116069D01*
X322122922Y5116068D01*
X322137783Y5101207D01*
X322138594Y5100322D01*
X322187657Y5041850D01*
X322246139Y4992776D01*
X322247018Y4991970D01*
X322261874Y4977114D01*
X322275625Y4967925D01*
X322276846Y4967009D01*
X322321762Y4929318D01*
X322372908Y4899788D01*
X322407010Y4880099D01*
X322407753Y4879637D01*
X322425264Y4867936D01*
X322434365Y4864166D01*
X322436004Y4863358D01*
X322445567Y4857837D01*
X322473361Y4841788D01*
X322473364Y4841787D01*
X322473366Y4841786D01*
X322597241Y4796696D01*
X322606813Y4792730D01*
X322609731Y4792150D01*
X322637868Y4781908D01*
X322810269Y4751503D01*
X322810271Y4751503D01*
X322894808Y4751502D01*
X322894812Y4751500D01*
X322897593Y4751500D01*
X352100694Y4751500D01*
X352100950Y4751552D01*
X352185330Y4751548D01*
X352357733Y4781941D01*
X352384727Y4791766D01*
X352388843Y4792583D01*
X352402371Y4798187D01*
X352522238Y4841810D01*
X352558376Y4862674D01*
X352559982Y4863466D01*
X352570430Y4867792D01*
X352590311Y4881076D01*
X352591048Y4881535D01*
X352673848Y4929336D01*
X352717484Y4965950D01*
X352718646Y4966821D01*
X352733855Y4976982D01*
X352750253Y4993380D01*
X352751097Y4994153D01*
X352764025Y5005000D01*
X383500000Y5005000D01*
X383500000Y3005000D01*
X383525000Y2930000D01*
X383550000Y2854998D01*
X383550001Y2854997D01*
X383674999Y2680000D01*
X383849996Y2555002D01*
X383849997Y2555001D01*
X383849999Y2555001D01*
X383850000Y2555000D01*
X384000000Y2505000D01*
X384000002Y2505000D01*
X385999998Y2505000D01*
X386000000Y2505000D01*
X386150000Y2555000D01*
X386150000Y2555001D01*
X386150002Y2555001D01*
X386150003Y2555002D01*
X386325000Y2680000D01*
X386449998Y2854997D01*
X386449999Y2854998D01*
X386450000Y2855000D01*
X386500000Y3005000D01*
X386500000Y5005000D01*
X386450000Y5155000D01*
X386449999Y5155001D01*
X386449999Y5155003D01*
X386449998Y5155004D01*
X386325000Y5330001D01*
X386150003Y5454999D01*
X386150002Y5455000D01*
X386075000Y5480000D01*
X386000000Y5505000D01*
X384000000Y5505000D01*
X383940000Y5485000D01*
X383849997Y5455000D01*
X383849996Y5454999D01*
X383674999Y5330001D01*
X383550001Y5155004D01*
X383550000Y5155003D01*
X383531229Y5098687D01*
X383500000Y5005000D01*
X352764025Y5005000D01*
X352807956Y5041860D01*
X352855674Y5098726D01*
X352856441Y5099562D01*
X352872837Y5115957D01*
X352882991Y5131155D01*
X352883881Y5132340D01*
X352920486Y5175961D01*
X352920488Y5175965D01*
X352920490Y5175967D01*
X352932477Y5196730D01*
X352968295Y5258765D01*
X352968733Y5259470D01*
X352982035Y5279376D01*
X352986361Y5289820D01*
X352987151Y5291423D01*
X353008020Y5327566D01*
X353051648Y5447428D01*
X353057254Y5460959D01*
X353058072Y5465077D01*
X353067897Y5492069D01*
X353098299Y5664470D01*
X353098300Y5752000D01*
X353098300Y5752500D01*
X353098300Y19442208D01*
X424997300Y19442208D01*
X424997300Y-958208D01*
X424997592Y-958500D01*
X424997593Y-958500D01*
X426898008Y-958500D01*
X426898300Y-958208D01*
X426898300Y19442208D01*
X426898008Y19442500D01*
X426898007Y19442500D01*
X424998007Y19442500D01*
X424997593Y19442500D01*
X424997592Y19442500D01*
X424997300Y19442208D01*
X353098300Y19442208D01*
X353098300Y20946177D01*
X353098323Y20946233D01*
X353098323Y20952000D01*
X353098324Y20952000D01*
X353098332Y21039536D01*
X353067946Y21211952D01*
X353067944Y21211958D01*
X353058323Y21238397D01*
X353058323Y21238398D01*
X353057956Y21239406D01*
X353057233Y21243043D01*
X353052283Y21254994D01*
X353008088Y21376439D01*
X353008079Y21376465D01*
X353008078Y21376466D01*
X353008077Y21376470D01*
X352987226Y21412588D01*
X352986939Y21413086D01*
X352986130Y21414727D01*
X352982028Y21424630D01*
X352969372Y21443571D01*
X352968904Y21444324D01*
X352920545Y21528090D01*
X352883500Y21572239D01*
X352882602Y21573437D01*
X352872837Y21588052D01*
X352857076Y21603812D01*
X352856258Y21604705D01*
X352854293Y21607046D01*
X352808011Y21662204D01*
X352750505Y21710455D01*
X352749622Y21711265D01*
X352733858Y21727028D01*
X352733857Y21727029D01*
X352733855Y21727031D01*
X352719251Y21736788D01*
X352718029Y21737704D01*
X352673895Y21774735D01*
X352673890Y21774738D01*
X352590135Y21823088D01*
X352589357Y21823572D01*
X352570433Y21836215D01*
X352570434Y21836215D01*
X352560525Y21840319D01*
X352558884Y21841128D01*
X352551256Y21845531D01*
X352522272Y21862263D01*
X352522269Y21862264D01*
X352522266Y21862266D01*
X352433706Y21894490D01*
X352400814Y21906459D01*
X352388844Y21911416D01*
X352385205Y21912140D01*
X352384190Y21912509D01*
X352384188Y21912511D01*
X352357758Y21922127D01*
X352357753Y21922128D01*
X352185336Y21952511D01*
X352185335Y21952511D01*
X352111802Y21952502D01*
X352101902Y21956601D01*
X352097800Y21966500D01*
X352097800Y29227500D01*
X352101901Y29237399D01*
X352111800Y29241500D01*
X360198008Y29241500D01*
X360198300Y29241792D01*
X360198300Y31142208D01*
X394797300Y31142208D01*
X394797300Y29241792D01*
X394797592Y29241500D01*
X394797593Y29241500D01*
X415198008Y29241500D01*
X415198300Y29241792D01*
X415198300Y31142208D01*
X415198008Y31142500D01*
X415198007Y31142500D01*
X394798007Y31142500D01*
X394797593Y31142500D01*
X394797592Y31142500D01*
X394797300Y31142208D01*
X360198300Y31142208D01*
X360198008Y31142500D01*
X360198007Y31142500D01*
X352111800Y31142500D01*
X352101901Y31146601D01*
X352097800Y31156500D01*
X352097800Y31952000D01*
X322897800Y31952000D01*
X322897800Y21966454D01*
X322893699Y21956555D01*
X322883800Y21952454D01*
X322883799Y21952454D01*
X322810381Y21952458D01*
X322810269Y21952458D01*
X322810268Y21952458D01*
X322810263Y21952458D01*
X322637866Y21922068D01*
X322637861Y21922067D01*
X322611858Y21912605D01*
X322611859Y21912604D01*
X322610847Y21912236D01*
X322606755Y21911422D01*
X322593310Y21905854D01*
X322593006Y21905743D01*
X322473359Y21862201D01*
X322473356Y21862200D01*
X322437210Y21841334D01*
X322435569Y21840525D01*
X322425167Y21836216D01*
X322425166Y21836216D01*
X322405344Y21822973D01*
X322404567Y21822490D01*
X322321752Y21774679D01*
X322321738Y21774669D01*
X322278111Y21738065D01*
X322276892Y21737150D01*
X322261738Y21727024D01*
X322245405Y21710692D01*
X322244505Y21709867D01*
X322187633Y21662148D01*
X322139915Y21605283D01*
X322139090Y21604383D01*
X322122759Y21588053D01*
X322122757Y21588050D01*
X322112635Y21572904D01*
X322111720Y21571684D01*
X322075100Y21528041D01*
X322027290Y21445233D01*
X322026807Y21444455D01*
X322013560Y21424629D01*
X322009252Y21414229D01*
X322008442Y21412588D01*
X321987573Y21376444D01*
X321987571Y21376438D01*
X321944020Y21256784D01*
X321943905Y21256470D01*
X321938344Y21243043D01*
X321937530Y21238955D01*
X321937163Y21237944D01*
X321927696Y21211934D01*
X321897299Y21039531D01*
X270998300Y21039531D01*
X270998300Y31142208D01*
X284797300Y31142208D01*
X284797300Y29241792D01*
X284797592Y29241500D01*
X284797593Y29241500D01*
X305198008Y29241500D01*
X305198300Y29241792D01*
X305198300Y31142208D01*
X305198008Y31142500D01*
X305198007Y31142500D01*
X284798007Y31142500D01*
X284797593Y31142500D01*
X284797592Y31142500D01*
X284797300Y31142208D01*
X270998300Y31142208D01*
X270998300Y31241543D01*
X270998330Y31242458D01*
X271006893Y31373121D01*
X271013712Y31477177D01*
X271013819Y31478208D01*
X271022496Y31538564D01*
X271022605Y31539194D01*
X271062957Y31742066D01*
X271063238Y31743212D01*
X271078198Y31794161D01*
X271078336Y31794598D01*
X271147651Y31998800D01*
X271148150Y32000058D01*
X271162733Y32031992D01*
X271162815Y32032165D01*
X271265772Y32240947D01*
X271266681Y32242520D01*
X271410979Y32458484D01*
X271412083Y32459921D01*
X271583334Y32655200D01*
X271584615Y32656481D01*
X271779893Y32827741D01*
X271781336Y32828847D01*
X271997290Y32973148D01*
X271998850Y32974049D01*
X272207658Y33077025D01*
X272207792Y33077089D01*
X272239739Y33091679D01*
X272241019Y33092187D01*
X272445166Y33161489D01*
X272445642Y33161640D01*
X272496586Y33176600D01*
X272497755Y33176887D01*
X272700613Y33217241D01*
X272701269Y33217353D01*
X272761584Y33226026D01*
X272762596Y33226132D01*
X272996534Y33241471D01*
X272997450Y33241500D01*
X272997593Y33241500D01*
X272997800Y33241500D01*
X272998300Y33241500D01*
X426997300Y33241500D01*
X426997343Y33241500D01*
X426998257Y33241471D01*
G37*
%TD.AperFunction*%
%TD*%
M02*
