M48
; DRILL file {KiCad 9.0.6-9.0.6~ubuntu24.04.1} date 2025-11-20T00:47:47+0800
; FORMAT={-:-/ absolute / inch / decimal}
; #@! TF.CreationDate,2025-11-20T00:47:47+08:00
; #@! TF.GenerationSoftware,Kicad,Pcbnew,9.0.6-9.0.6~ubuntu24.04.1
; #@! TF.FileFunction,Plated,1,2,PTH
FMAT,2
INCH
; #@! TA.AperFunction,Plated,PTH,ViaDrill
T1C0.0118
; #@! TA.AperFunction,Plated,PTH,ViaDrill
T2C0.0157
; #@! TA.AperFunction,Plated,PTH,ComponentDrill
T3C0.0197
; #@! TA.AperFunction,Plated,PTH,ComponentDrill
T4C0.0315
; #@! TA.AperFunction,Plated,PTH,ComponentDrill
T5C0.0394
%
G90
G05
T1
X-0.6627Y0.0238
X-0.6627Y-0.0262
X-0.6627Y-0.0762
X-0.6127Y0.0238
X-0.6127Y-0.0262
X-0.6127Y-0.0762
X-0.4652Y-0.2252
X-0.305Y0.095
X-0.305Y-0.375
X-0.2066Y0.095
X-0.2066Y-0.375
X-0.1081Y0.095
X-0.1081Y-0.375
X-0.0097Y-0.375
X0.035Y0.07
X0.0386Y0.355
X0.07Y0.105
X0.07Y0.07
X0.07Y0.035
X0.0887Y-0.375
X0.105Y0.07
X0.137Y0.355
X0.1871Y-0.375
X0.28Y0.095
X0.2856Y-0.375
X0.2931Y0.355
X0.3304Y0.0285
X0.384Y-0.375
X0.3916Y0.355
X0.49Y0.355
X0.6131Y0.355
X0.7116Y0.355
X0.7365Y-0.2767
X0.7407Y-0.1536
X0.7648Y0.0797
X0.775Y-0.095
X0.7897Y-0.2389
X0.81Y0.355
X0.8542Y-0.0608
X0.9227Y-0.1536
X0.9331Y0.355
X1.0316Y0.355
X1.055Y-0.375
X1.13Y0.355
X1.1534Y-0.375
X1.2519Y-0.375
X1.3Y-0.09
X1.3081Y0.355
X1.3503Y-0.375
X1.37Y-0.125
X1.37Y-0.22
X1.404Y0.0
X1.4066Y0.355
X1.505Y0.355
X1.515Y0.0187
X1.515Y-0.0797
X1.515Y-0.1781
X1.515Y-0.2766
T2
X-0.9Y-0.26
X-0.7703Y-0.2012
X-0.6988Y-0.2751
X-0.5414Y0.0899
X-0.2163Y-0.0601
X-0.2163Y-0.204
X0.1212Y-0.34
X0.2572Y-0.3389
X0.3113Y-0.2425
X0.505Y0.1
X0.9439Y-0.3419
X0.99Y0.01
X1.1597Y0.145
X1.4797Y-0.22
T3
X0.595Y0.005
T4
X0.1347Y0.2105
X0.2347Y0.3105
X0.3347Y0.2105
X0.4547Y0.2105
X0.5547Y0.3105
X0.6547Y0.2105
X0.7747Y0.2105
X0.8747Y0.3105
X0.9747Y0.2105
X1.0947Y0.2105
X1.1947Y0.3105
X1.2947Y0.2105
T5
X-0.1Y0.0
X-0.1Y-0.1
X-0.1Y-0.2
X0.0Y0.0
X0.0Y-0.1
X0.0Y-0.2
X1.4535Y0.2937
X1.4535Y0.1937
X1.4535Y0.0937
M30
