%TF.GenerationSoftware,KiCad,Pcbnew,9.0.6-9.0.6~ubuntu24.04.1*%
%TF.CreationDate,2025-11-20T00:47:47+08:00*%
%TF.ProjectId,ksoloti-gills-cv-expander,6b736f6c-6f74-4692-9d67-696c6c732d63,v0.3*%
%TF.SameCoordinates,Original*%
%TF.FileFunction,Soldermask,Top*%
%TF.FilePolarity,Negative*%
%FSLAX46Y46*%
G04 Gerber Fmt 4.6, Leading zero omitted, Abs format (unit mm)*
G04 Created by KiCad (PCBNEW 9.0.6-9.0.6~ubuntu24.04.1) date 2025-11-20 00:47:47*
%MOMM*%
%LPD*%
G01*
G04 APERTURE LIST*
G04 Aperture macros list*
%AMRoundRect*
0 Rectangle with rounded corners*
0 $1 Rounding radius*
0 $2 $3 $4 $5 $6 $7 $8 $9 X,Y pos of 4 corners*
0 Add a 4 corners polygon primitive as box body*
4,1,4,$2,$3,$4,$5,$6,$7,$8,$9,$2,$3,0*
0 Add four circle primitives for the rounded corners*
1,1,$1+$1,$2,$3*
1,1,$1+$1,$4,$5*
1,1,$1+$1,$6,$7*
1,1,$1+$1,$8,$9*
0 Add four rect primitives between the rounded corners*
20,1,$1+$1,$2,$3,$4,$5,0*
20,1,$1+$1,$4,$5,$6,$7,0*
20,1,$1+$1,$6,$7,$8,$9,0*
20,1,$1+$1,$8,$9,$2,$3,0*%
%AMFreePoly0*
4,1,9,3.862500,-0.866500,0.937500,-0.866500,0.937500,-0.450000,-0.937500,-0.450000,-0.937500,0.450000,0.937500,0.450000,0.937500,0.866500,3.862500,0.866500,3.862500,-0.866500,3.862500,-0.866500,$1*%
G04 Aperture macros list end*
%ADD10C,0.650000*%
%ADD11RoundRect,0.250000X0.250000X0.475000X-0.250000X0.475000X-0.250000X-0.475000X0.250000X-0.475000X0*%
%ADD12RoundRect,0.200000X0.200000X0.275000X-0.200000X0.275000X-0.200000X-0.275000X0.200000X-0.275000X0*%
%ADD13RoundRect,0.237500X0.237500X0.237500X-0.237500X0.237500X-0.237500X-0.237500X0.237500X-0.237500X0*%
%ADD14RoundRect,0.225000X0.225000X0.250000X-0.225000X0.250000X-0.225000X-0.250000X0.225000X-0.250000X0*%
%ADD15RoundRect,0.225000X-0.225000X-0.250000X0.225000X-0.250000X0.225000X0.250000X-0.225000X0.250000X0*%
%ADD16RoundRect,0.200000X-0.200000X-0.275000X0.200000X-0.275000X0.200000X0.275000X-0.200000X0.275000X0*%
%ADD17RoundRect,0.175000X-0.175000X0.325000X-0.175000X-0.325000X0.175000X-0.325000X0.175000X0.325000X0*%
%ADD18RoundRect,0.112500X-0.187500X-0.112500X0.187500X-0.112500X0.187500X0.112500X-0.187500X0.112500X0*%
%ADD19RoundRect,0.200000X-0.275000X0.200000X-0.275000X-0.200000X0.275000X-0.200000X0.275000X0.200000X0*%
%ADD20RoundRect,0.112500X0.187500X0.112500X-0.187500X0.112500X-0.187500X-0.112500X0.187500X-0.112500X0*%
%ADD21RoundRect,0.225000X-0.250000X0.225000X-0.250000X-0.225000X0.250000X-0.225000X0.250000X0.225000X0*%
%ADD22RoundRect,0.200000X0.275000X-0.200000X0.275000X0.200000X-0.275000X0.200000X-0.275000X-0.200000X0*%
%ADD23RoundRect,0.225000X0.250000X-0.225000X0.250000X0.225000X-0.250000X0.225000X-0.250000X-0.225000X0*%
%ADD24RoundRect,0.150000X-0.825000X-0.150000X0.825000X-0.150000X0.825000X0.150000X-0.825000X0.150000X0*%
%ADD25R,2.410000X3.810000*%
%ADD26RoundRect,0.250000X0.475000X-0.250000X0.475000X0.250000X-0.475000X0.250000X-0.475000X-0.250000X0*%
%ADD27RoundRect,0.225000X0.225000X-0.425000X0.225000X0.425000X-0.225000X0.425000X-0.225000X-0.425000X0*%
%ADD28FreePoly0,90.000000*%
%ADD29RoundRect,0.150000X0.825000X0.150000X-0.825000X0.150000X-0.825000X-0.150000X0.825000X-0.150000X0*%
%ADD30RoundRect,0.249999X-0.450001X-1.850001X0.450001X-1.850001X0.450001X1.850001X-0.450001X1.850001X0*%
%ADD31C,1.000000*%
%ADD32RoundRect,0.225000X-0.225000X0.425000X-0.225000X-0.425000X0.225000X-0.425000X0.225000X0.425000X0*%
%ADD33FreePoly0,270.000000*%
%ADD34C,1.440000*%
%ADD35R,1.700000X1.700000*%
%ADD36C,1.700000*%
G04 APERTURE END LIST*
%TO.C,FID1*%
D10*
X-22215000Y8000000D02*
G75*
G02*
X-22865000Y8000000I-325000J0D01*
G01*
X-22865000Y8000000D02*
G75*
G02*
X-22215000Y8000000I325000J0D01*
G01*
%TO.C,FID2*%
X37785000Y-9000000D02*
G75*
G02*
X37135000Y-9000000I-325000J0D01*
G01*
X37135000Y-9000000D02*
G75*
G02*
X37785000Y-9000000I325000J0D01*
G01*
%TD*%
D11*
%TO.C,C16*%
X12440000Y-7683000D03*
X10540000Y-7683000D03*
%TD*%
D12*
%TO.C,R14*%
X33847000Y-3156000D03*
X32197000Y-3156000D03*
%TD*%
D13*
%TO.C,JP1*%
X22540000Y2555000D03*
X21090000Y2555000D03*
%TD*%
D14*
%TO.C,C4*%
X16113000Y-6477000D03*
X14563000Y-6477000D03*
%TD*%
D11*
%TO.C,C1*%
X-21021000Y-5110000D03*
X-22921000Y-5110000D03*
%TD*%
D15*
%TO.C,C7*%
X25231000Y-8185000D03*
X26781000Y-8185000D03*
%TD*%
D16*
%TO.C,R13*%
X20990000Y-3105000D03*
X22640000Y-3105000D03*
%TD*%
%TO.C,R12*%
X32197000Y-4791000D03*
X33847000Y-4791000D03*
%TD*%
D15*
%TO.C,C18*%
X32247000Y-6442000D03*
X33797000Y-6442000D03*
%TD*%
D17*
%TO.C,U4*%
X16034000Y-2356000D03*
X14134000Y-2356000D03*
X15084000Y-4756000D03*
%TD*%
D11*
%TO.C,C15*%
X6750400Y-494800D03*
X4850400Y-494800D03*
%TD*%
D16*
%TO.C,R15*%
X21021000Y-8058000D03*
X22671000Y-8058000D03*
%TD*%
D18*
%TO.C,D2*%
X-11212000Y-4684000D03*
X-9112000Y-4684000D03*
%TD*%
D19*
%TO.C,R8*%
X22601000Y82000D03*
X22601000Y-1568000D03*
%TD*%
D20*
%TO.C,D1*%
X-9113200Y-2525000D03*
X-11213200Y-2525000D03*
%TD*%
D14*
%TO.C,C14*%
X12083099Y-5905000D03*
X10533099Y-5905000D03*
%TD*%
D21*
%TO.C,C12*%
X8950000Y-6146000D03*
X8950000Y-7696000D03*
%TD*%
D22*
%TO.C,R5*%
X-16196000Y-5782000D03*
X-16196000Y-4132000D03*
%TD*%
D14*
%TO.C,C8*%
X29597200Y-819000D03*
X28047200Y-819000D03*
%TD*%
D12*
%TO.C,R11*%
X22671000Y-4791000D03*
X21021000Y-4791000D03*
%TD*%
D19*
%TO.C,R9*%
X32126000Y209000D03*
X32126000Y-1441000D03*
%TD*%
D23*
%TO.C,C6*%
X-14605000Y-5745000D03*
X-14605000Y-4195000D03*
%TD*%
D14*
%TO.C,C2*%
X-21202800Y-3205000D03*
X-22752800Y-3205000D03*
%TD*%
D12*
%TO.C,R16*%
X33816000Y-8058000D03*
X32166000Y-8058000D03*
%TD*%
D24*
%TO.C,U1*%
X-18672800Y1240000D03*
X-18672800Y-30000D03*
X-18672800Y-1300000D03*
X-18672800Y-2570000D03*
X-13722800Y-2570000D03*
X-13722800Y-1300000D03*
X-13722800Y-30000D03*
X-13722800Y1240000D03*
D25*
X-16197800Y-665000D03*
%TD*%
D16*
%TO.C,R4*%
X-22802800Y1294000D03*
X-21152800Y1294000D03*
%TD*%
D14*
%TO.C,C13*%
X6372200Y-2323600D03*
X4822200Y-2323600D03*
%TD*%
D20*
%TO.C,D3*%
X-9112000Y-366000D03*
X-11212000Y-366000D03*
%TD*%
D14*
%TO.C,C3*%
X-21202800Y-1554000D03*
X-22752800Y-1554000D03*
%TD*%
D15*
%TO.C,C5*%
X-11192200Y1539000D03*
X-9642200Y1539000D03*
%TD*%
D26*
%TO.C,C9*%
X-6863000Y-5171000D03*
X-6863000Y-3271000D03*
%TD*%
D27*
%TO.C,U3*%
X8885000Y-4142651D03*
D28*
X10385000Y-3855151D03*
D27*
X11885000Y-4142651D03*
%TD*%
D29*
%TO.C,U5*%
X29909000Y-6442000D03*
X29909000Y-5172000D03*
X29909000Y-3902000D03*
X29909000Y-2632000D03*
X24959000Y-2632000D03*
X24959000Y-3902000D03*
X24959000Y-5172000D03*
X24959000Y-6442000D03*
%TD*%
D22*
%TO.C,R1*%
X17751000Y-6413000D03*
X17751000Y-4763000D03*
%TD*%
D19*
%TO.C,R7*%
X20823000Y106000D03*
X20823000Y-1544000D03*
%TD*%
D16*
%TO.C,R3*%
X14513000Y-8128000D03*
X16163000Y-8128000D03*
%TD*%
D26*
%TO.C,C10*%
X-6863000Y-1570000D03*
X-6863000Y330000D03*
%TD*%
D19*
%TO.C,R6*%
X-17783000Y-4132000D03*
X-17783000Y-5782000D03*
%TD*%
D30*
%TO.C,L1*%
X-18487000Y6000000D03*
X-14787000Y6000000D03*
%TD*%
D15*
%TO.C,C17*%
X21071000Y-6407000D03*
X22621000Y-6407000D03*
%TD*%
D31*
%TO.C,TP1*%
X15113000Y127000D03*
%TD*%
D22*
%TO.C,R2*%
X17751000Y-3238000D03*
X17751000Y-1588000D03*
%TD*%
D32*
%TO.C,U2*%
X6326800Y-4131000D03*
D33*
X4826800Y-4418500D03*
D32*
X3326800Y-4131000D03*
%TD*%
D19*
%TO.C,R10*%
X33909000Y209000D03*
X33909000Y-1441000D03*
%TD*%
D13*
%TO.C,JP2*%
X33786000Y2555000D03*
X32336000Y2555000D03*
%TD*%
D23*
%TO.C,C11*%
X3260400Y-2031800D03*
X3260400Y-481800D03*
%TD*%
D34*
%TO.C,TR4*%
X27806200Y5347200D03*
X30346200Y7887200D03*
X32886200Y5347200D03*
%TD*%
%TO.C,TR3*%
X19678200Y5347200D03*
X22218200Y7887200D03*
X24758200Y5347200D03*
%TD*%
D35*
%TO.C,J1*%
X0Y0D03*
D36*
X-2540000Y0D03*
X0Y-2540000D03*
X-2540000Y-2540000D03*
X0Y-5080000D03*
X-2540000Y-5080000D03*
%TD*%
D34*
%TO.C,TR1*%
X3422200Y5347200D03*
X5962200Y7887200D03*
X8502200Y5347200D03*
%TD*%
D35*
%TO.C,J2*%
X36920000Y7460000D03*
D36*
X36920000Y4920000D03*
X36920000Y2380000D03*
%TD*%
D34*
%TO.C,TR2*%
X11550200Y5347200D03*
X14090200Y7887200D03*
X16630200Y5347200D03*
%TD*%
M02*
