%TF.GenerationSoftware,KiCad,Pcbnew,9.0.6-9.0.6~ubuntu24.04.1*%
%TF.CreationDate,2025-11-20T00:47:47+08:00*%
%TF.ProjectId,ksoloti-gills-cv-expander,6b736f6c-6f74-4692-9d67-696c6c732d63,v0.3*%
%TF.SameCoordinates,Original*%
%TF.FileFunction,Legend,Bot*%
%TF.FilePolarity,Positive*%
%FSLAX46Y46*%
G04 Gerber Fmt 4.6, Leading zero omitted, Abs format (unit mm)*
G04 Created by KiCad (PCBNEW 9.0.6-9.0.6~ubuntu24.04.1) date 2025-11-20 00:47:47*
%MOMM*%
%LPD*%
G01*
G04 APERTURE LIST*
%ADD10C,0.150000*%
%ADD11C,1.000000*%
%ADD12C,0.200000*%
%ADD13C,0.120000*%
%ADD14C,0.650000*%
%ADD15C,1.152000*%
%ADD16C,1.000000*%
%ADD17C,1.440000*%
%ADD18R,1.700000X1.700000*%
%ADD19C,1.700000*%
G04 APERTURE END LIST*
D10*
X-3175000Y3175000D02*
X-1905000Y1905000D01*
X-3870000Y1330000D02*
X-3870000Y1838000D01*
X35590000Y8790000D02*
X38250000Y8790000D01*
X38250000Y6190000D01*
X35590000Y6190000D01*
X35590000Y8790000D01*
X-635000Y3175000D02*
X635000Y1905000D01*
X-194000Y3870000D02*
X-702000Y3870000D01*
X1330000Y3362000D02*
X1330000Y3870000D01*
X-1270000Y1330000D02*
X1330000Y1330000D01*
X1330000Y-1270000D01*
X-1270000Y-1270000D01*
X-1270000Y1330000D01*
X-3175000Y1905000D02*
X-1905000Y3175000D01*
D11*
X38735000Y7518000D02*
X34285000Y7518000D01*
D10*
X1330000Y1330000D02*
X1330000Y1838000D01*
X-3870000Y2346000D02*
X-3870000Y2854000D01*
X-635000Y1905000D02*
X635000Y3175000D01*
X822000Y3870000D02*
X314000Y3870000D01*
X15113000Y127000D02*
X13970000Y-1778000D01*
X1330000Y2346000D02*
X1330000Y2854000D01*
X4284398Y512562D02*
X4379636Y560181D01*
X4379636Y560181D02*
X4522493Y560181D01*
X4522493Y560181D02*
X4665350Y512562D01*
X4665350Y512562D02*
X4760588Y417324D01*
X4760588Y417324D02*
X4808207Y322086D01*
X4808207Y322086D02*
X4855826Y131610D01*
X4855826Y131610D02*
X4855826Y-11247D01*
X4855826Y-11247D02*
X4808207Y-201723D01*
X4808207Y-201723D02*
X4760588Y-296961D01*
X4760588Y-296961D02*
X4665350Y-392200D01*
X4665350Y-392200D02*
X4522493Y-439819D01*
X4522493Y-439819D02*
X4427255Y-439819D01*
X4427255Y-439819D02*
X4284398Y-392200D01*
X4284398Y-392200D02*
X4236779Y-344580D01*
X4236779Y-344580D02*
X4236779Y-11247D01*
X4236779Y-11247D02*
X4427255Y-11247D01*
X3808207Y-439819D02*
X3808207Y560181D01*
X3808207Y560181D02*
X3236779Y-439819D01*
X3236779Y-439819D02*
X3236779Y560181D01*
X2760588Y-439819D02*
X2760588Y560181D01*
X2760588Y560181D02*
X2522493Y560181D01*
X2522493Y560181D02*
X2379636Y512562D01*
X2379636Y512562D02*
X2284398Y417324D01*
X2284398Y417324D02*
X2236779Y322086D01*
X2236779Y322086D02*
X2189160Y131610D01*
X2189160Y131610D02*
X2189160Y-11247D01*
X2189160Y-11247D02*
X2236779Y-201723D01*
X2236779Y-201723D02*
X2284398Y-296961D01*
X2284398Y-296961D02*
X2379636Y-392200D01*
X2379636Y-392200D02*
X2522493Y-439819D01*
X2522493Y-439819D02*
X2760588Y-439819D01*
X37650332Y68134D02*
X36888428Y68134D01*
X37269380Y-312819D02*
X37269380Y449086D01*
X35888428Y-312819D02*
X36459856Y-312819D01*
X36174142Y-312819D02*
X36174142Y687181D01*
X36174142Y687181D02*
X36269380Y544324D01*
X36269380Y544324D02*
X36364618Y449086D01*
X36364618Y449086D02*
X36459856Y401467D01*
X35507475Y591943D02*
X35459856Y639562D01*
X35459856Y639562D02*
X35364618Y687181D01*
X35364618Y687181D02*
X35126523Y687181D01*
X35126523Y687181D02*
X35031285Y639562D01*
X35031285Y639562D02*
X34983666Y591943D01*
X34983666Y591943D02*
X34936047Y496705D01*
X34936047Y496705D02*
X34936047Y401467D01*
X34936047Y401467D02*
X34983666Y258610D01*
X34983666Y258610D02*
X35555094Y-312819D01*
X35555094Y-312819D02*
X34936047Y-312819D01*
X-13295981Y4009449D02*
X-12581696Y4009449D01*
X-12581696Y4009449D02*
X-12438839Y4057068D01*
X-12438839Y4057068D02*
X-12343600Y4152306D01*
X-12343600Y4152306D02*
X-12295981Y4295163D01*
X-12295981Y4295163D02*
X-12295981Y4390401D01*
X-12295981Y3057068D02*
X-12295981Y3533258D01*
X-12295981Y3533258D02*
X-13295981Y3533258D01*
X-12391220Y2152306D02*
X-12343600Y2199925D01*
X-12343600Y2199925D02*
X-12295981Y2342782D01*
X-12295981Y2342782D02*
X-12295981Y2438020D01*
X-12295981Y2438020D02*
X-12343600Y2580877D01*
X-12343600Y2580877D02*
X-12438839Y2676115D01*
X-12438839Y2676115D02*
X-12534077Y2723734D01*
X-12534077Y2723734D02*
X-12724553Y2771353D01*
X-12724553Y2771353D02*
X-12867410Y2771353D01*
X-12867410Y2771353D02*
X-13057886Y2723734D01*
X-13057886Y2723734D02*
X-13153124Y2676115D01*
X-13153124Y2676115D02*
X-13248362Y2580877D01*
X-13248362Y2580877D02*
X-13295981Y2438020D01*
X-13295981Y2438020D02*
X-13295981Y2342782D01*
X-13295981Y2342782D02*
X-13248362Y2199925D01*
X-13248362Y2199925D02*
X-13200743Y2152306D01*
X-13295981Y1438020D02*
X-12581696Y1438020D01*
X-12581696Y1438020D02*
X-12438839Y1485639D01*
X-12438839Y1485639D02*
X-12343600Y1580877D01*
X-12343600Y1580877D02*
X-12295981Y1723734D01*
X-12295981Y1723734D02*
X-12295981Y1818972D01*
X-12295981Y485639D02*
X-12295981Y961829D01*
X-12295981Y961829D02*
X-13295981Y961829D01*
X-12391220Y-419123D02*
X-12343600Y-371504D01*
X-12343600Y-371504D02*
X-12295981Y-228647D01*
X-12295981Y-228647D02*
X-12295981Y-133409D01*
X-12295981Y-133409D02*
X-12343600Y9448D01*
X-12343600Y9448D02*
X-12438839Y104686D01*
X-12438839Y104686D02*
X-12534077Y152305D01*
X-12534077Y152305D02*
X-12724553Y199924D01*
X-12724553Y199924D02*
X-12867410Y199924D01*
X-12867410Y199924D02*
X-13057886Y152305D01*
X-13057886Y152305D02*
X-13153124Y104686D01*
X-13153124Y104686D02*
X-13248362Y9448D01*
X-13248362Y9448D02*
X-13295981Y-133409D01*
X-13295981Y-133409D02*
X-13295981Y-228647D01*
X-13295981Y-228647D02*
X-13248362Y-371504D01*
X-13248362Y-371504D02*
X-13200743Y-419123D01*
X-13295981Y-1133409D02*
X-12581696Y-1133409D01*
X-12581696Y-1133409D02*
X-12438839Y-1085790D01*
X-12438839Y-1085790D02*
X-12343600Y-990552D01*
X-12343600Y-990552D02*
X-12295981Y-847695D01*
X-12295981Y-847695D02*
X-12295981Y-752457D01*
X-12295981Y-2085790D02*
X-12295981Y-1609600D01*
X-12295981Y-1609600D02*
X-13295981Y-1609600D01*
X-12391220Y-2990552D02*
X-12343600Y-2942933D01*
X-12343600Y-2942933D02*
X-12295981Y-2800076D01*
X-12295981Y-2800076D02*
X-12295981Y-2704838D01*
X-12295981Y-2704838D02*
X-12343600Y-2561981D01*
X-12343600Y-2561981D02*
X-12438839Y-2466743D01*
X-12438839Y-2466743D02*
X-12534077Y-2419124D01*
X-12534077Y-2419124D02*
X-12724553Y-2371505D01*
X-12724553Y-2371505D02*
X-12867410Y-2371505D01*
X-12867410Y-2371505D02*
X-13057886Y-2419124D01*
X-13057886Y-2419124D02*
X-13153124Y-2466743D01*
X-13153124Y-2466743D02*
X-13248362Y-2561981D01*
X-13248362Y-2561981D02*
X-13295981Y-2704838D01*
X-13295981Y-2704838D02*
X-13295981Y-2800076D01*
X-13295981Y-2800076D02*
X-13248362Y-2942933D01*
X-13248362Y-2942933D02*
X-13200743Y-2990552D01*
X-13295981Y-3704838D02*
X-12581696Y-3704838D01*
X-12581696Y-3704838D02*
X-12438839Y-3657219D01*
X-12438839Y-3657219D02*
X-12343600Y-3561981D01*
X-12343600Y-3561981D02*
X-12295981Y-3419124D01*
X-12295981Y-3419124D02*
X-12295981Y-3323886D01*
X-12295981Y-4657219D02*
X-12295981Y-4181029D01*
X-12295981Y-4181029D02*
X-13295981Y-4181029D01*
X-12391220Y-5561981D02*
X-12343600Y-5514362D01*
X-12343600Y-5514362D02*
X-12295981Y-5371505D01*
X-12295981Y-5371505D02*
X-12295981Y-5276267D01*
X-12295981Y-5276267D02*
X-12343600Y-5133410D01*
X-12343600Y-5133410D02*
X-12438839Y-5038172D01*
X-12438839Y-5038172D02*
X-12534077Y-4990553D01*
X-12534077Y-4990553D02*
X-12724553Y-4942934D01*
X-12724553Y-4942934D02*
X-12867410Y-4942934D01*
X-12867410Y-4942934D02*
X-13057886Y-4990553D01*
X-13057886Y-4990553D02*
X-13153124Y-5038172D01*
X-13153124Y-5038172D02*
X-13248362Y-5133410D01*
X-13248362Y-5133410D02*
X-13295981Y-5276267D01*
X-13295981Y-5276267D02*
X-13295981Y-5371505D01*
X-13295981Y-5371505D02*
X-13248362Y-5514362D01*
X-13248362Y-5514362D02*
X-13200743Y-5561981D01*
X-5310589Y-5392819D02*
X-4739161Y-5392819D01*
X-5024875Y-5392819D02*
X-5024875Y-4392819D01*
X-5024875Y-4392819D02*
X-4929637Y-4535676D01*
X-4929637Y-4535676D02*
X-4834399Y-4630914D01*
X-4834399Y-4630914D02*
X-4739161Y-4678533D01*
X-5739161Y-5392819D02*
X-5739161Y-4392819D01*
X-6215351Y-5392819D02*
X-6215351Y-4392819D01*
X-6215351Y-4392819D02*
X-6786779Y-5392819D01*
X-6786779Y-5392819D02*
X-6786779Y-4392819D01*
X-4786780Y-58866D02*
X-5548684Y-58866D01*
X-5167732Y-439819D02*
X-5167732Y322086D01*
X-6501065Y560181D02*
X-6024875Y560181D01*
X-6024875Y560181D02*
X-5977256Y83991D01*
X-5977256Y83991D02*
X-6024875Y131610D01*
X-6024875Y131610D02*
X-6120113Y179229D01*
X-6120113Y179229D02*
X-6358208Y179229D01*
X-6358208Y179229D02*
X-6453446Y131610D01*
X-6453446Y131610D02*
X-6501065Y83991D01*
X-6501065Y83991D02*
X-6548684Y-11247D01*
X-6548684Y-11247D02*
X-6548684Y-249342D01*
X-6548684Y-249342D02*
X-6501065Y-344580D01*
X-6501065Y-344580D02*
X-6453446Y-392200D01*
X-6453446Y-392200D02*
X-6358208Y-439819D01*
X-6358208Y-439819D02*
X-6120113Y-439819D01*
X-6120113Y-439819D02*
X-6024875Y-392200D01*
X-6024875Y-392200D02*
X-5977256Y-344580D01*
X-6834399Y560181D02*
X-7167732Y-439819D01*
X-7167732Y-439819D02*
X-7501065Y560181D01*
X23544904Y-4869009D02*
X23402047Y-4916628D01*
X23402047Y-4916628D02*
X23354428Y-4964247D01*
X23354428Y-4964247D02*
X23306809Y-5059485D01*
X23306809Y-5059485D02*
X23306809Y-5202342D01*
X23306809Y-5202342D02*
X23354428Y-5297580D01*
X23354428Y-5297580D02*
X23402047Y-5345200D01*
X23402047Y-5345200D02*
X23497285Y-5392819D01*
X23497285Y-5392819D02*
X23878237Y-5392819D01*
X23878237Y-5392819D02*
X23878237Y-4392819D01*
X23878237Y-4392819D02*
X23544904Y-4392819D01*
X23544904Y-4392819D02*
X23449666Y-4440438D01*
X23449666Y-4440438D02*
X23402047Y-4488057D01*
X23402047Y-4488057D02*
X23354428Y-4583295D01*
X23354428Y-4583295D02*
X23354428Y-4678533D01*
X23354428Y-4678533D02*
X23402047Y-4773771D01*
X23402047Y-4773771D02*
X23449666Y-4821390D01*
X23449666Y-4821390D02*
X23544904Y-4869009D01*
X23544904Y-4869009D02*
X23878237Y-4869009D01*
X22687761Y-4392819D02*
X22497285Y-4392819D01*
X22497285Y-4392819D02*
X22402047Y-4440438D01*
X22402047Y-4440438D02*
X22306809Y-4535676D01*
X22306809Y-4535676D02*
X22259190Y-4726152D01*
X22259190Y-4726152D02*
X22259190Y-5059485D01*
X22259190Y-5059485D02*
X22306809Y-5249961D01*
X22306809Y-5249961D02*
X22402047Y-5345200D01*
X22402047Y-5345200D02*
X22497285Y-5392819D01*
X22497285Y-5392819D02*
X22687761Y-5392819D01*
X22687761Y-5392819D02*
X22782999Y-5345200D01*
X22782999Y-5345200D02*
X22878237Y-5249961D01*
X22878237Y-5249961D02*
X22925856Y-5059485D01*
X22925856Y-5059485D02*
X22925856Y-4726152D01*
X22925856Y-4726152D02*
X22878237Y-4535676D01*
X22878237Y-4535676D02*
X22782999Y-4440438D01*
X22782999Y-4440438D02*
X22687761Y-4392819D01*
X21830618Y-4392819D02*
X21830618Y-5202342D01*
X21830618Y-5202342D02*
X21782999Y-5297580D01*
X21782999Y-5297580D02*
X21735380Y-5345200D01*
X21735380Y-5345200D02*
X21640142Y-5392819D01*
X21640142Y-5392819D02*
X21449666Y-5392819D01*
X21449666Y-5392819D02*
X21354428Y-5345200D01*
X21354428Y-5345200D02*
X21306809Y-5297580D01*
X21306809Y-5297580D02*
X21259190Y-5202342D01*
X21259190Y-5202342D02*
X21259190Y-4392819D01*
X20211571Y-5392819D02*
X20544904Y-4916628D01*
X20782999Y-5392819D02*
X20782999Y-4392819D01*
X20782999Y-4392819D02*
X20402047Y-4392819D01*
X20402047Y-4392819D02*
X20306809Y-4440438D01*
X20306809Y-4440438D02*
X20259190Y-4488057D01*
X20259190Y-4488057D02*
X20211571Y-4583295D01*
X20211571Y-4583295D02*
X20211571Y-4726152D01*
X20211571Y-4726152D02*
X20259190Y-4821390D01*
X20259190Y-4821390D02*
X20306809Y-4869009D01*
X20306809Y-4869009D02*
X20402047Y-4916628D01*
X20402047Y-4916628D02*
X20782999Y-4916628D01*
X19782999Y-5392819D02*
X19782999Y-4392819D01*
X19782999Y-4392819D02*
X19211571Y-5392819D01*
X19211571Y-5392819D02*
X19211571Y-4392819D01*
X18782999Y-5345200D02*
X18640142Y-5392819D01*
X18640142Y-5392819D02*
X18402047Y-5392819D01*
X18402047Y-5392819D02*
X18306809Y-5345200D01*
X18306809Y-5345200D02*
X18259190Y-5297580D01*
X18259190Y-5297580D02*
X18211571Y-5202342D01*
X18211571Y-5202342D02*
X18211571Y-5107104D01*
X18211571Y-5107104D02*
X18259190Y-5011866D01*
X18259190Y-5011866D02*
X18306809Y-4964247D01*
X18306809Y-4964247D02*
X18402047Y-4916628D01*
X18402047Y-4916628D02*
X18592523Y-4869009D01*
X18592523Y-4869009D02*
X18687761Y-4821390D01*
X18687761Y-4821390D02*
X18735380Y-4773771D01*
X18735380Y-4773771D02*
X18782999Y-4678533D01*
X18782999Y-4678533D02*
X18782999Y-4583295D01*
X18782999Y-4583295D02*
X18735380Y-4488057D01*
X18735380Y-4488057D02*
X18687761Y-4440438D01*
X18687761Y-4440438D02*
X18592523Y-4392819D01*
X18592523Y-4392819D02*
X18354428Y-4392819D01*
X18354428Y-4392819D02*
X18211571Y-4440438D01*
X17116332Y-4392819D02*
X16497285Y-4392819D01*
X16497285Y-4392819D02*
X16830618Y-4773771D01*
X16830618Y-4773771D02*
X16687761Y-4773771D01*
X16687761Y-4773771D02*
X16592523Y-4821390D01*
X16592523Y-4821390D02*
X16544904Y-4869009D01*
X16544904Y-4869009D02*
X16497285Y-4964247D01*
X16497285Y-4964247D02*
X16497285Y-5202342D01*
X16497285Y-5202342D02*
X16544904Y-5297580D01*
X16544904Y-5297580D02*
X16592523Y-5345200D01*
X16592523Y-5345200D02*
X16687761Y-5392819D01*
X16687761Y-5392819D02*
X16973475Y-5392819D01*
X16973475Y-5392819D02*
X17068713Y-5345200D01*
X17068713Y-5345200D02*
X17116332Y-5297580D01*
X16116332Y-4488057D02*
X16068713Y-4440438D01*
X16068713Y-4440438D02*
X15973475Y-4392819D01*
X15973475Y-4392819D02*
X15735380Y-4392819D01*
X15735380Y-4392819D02*
X15640142Y-4440438D01*
X15640142Y-4440438D02*
X15592523Y-4488057D01*
X15592523Y-4488057D02*
X15544904Y-4583295D01*
X15544904Y-4583295D02*
X15544904Y-4678533D01*
X15544904Y-4678533D02*
X15592523Y-4821390D01*
X15592523Y-4821390D02*
X16163951Y-5392819D01*
X16163951Y-5392819D02*
X15544904Y-5392819D01*
X14687761Y-4392819D02*
X14878237Y-4392819D01*
X14878237Y-4392819D02*
X14973475Y-4440438D01*
X14973475Y-4440438D02*
X15021094Y-4488057D01*
X15021094Y-4488057D02*
X15116332Y-4630914D01*
X15116332Y-4630914D02*
X15163951Y-4821390D01*
X15163951Y-4821390D02*
X15163951Y-5202342D01*
X15163951Y-5202342D02*
X15116332Y-5297580D01*
X15116332Y-5297580D02*
X15068713Y-5345200D01*
X15068713Y-5345200D02*
X14973475Y-5392819D01*
X14973475Y-5392819D02*
X14782999Y-5392819D01*
X14782999Y-5392819D02*
X14687761Y-5345200D01*
X14687761Y-5345200D02*
X14640142Y-5297580D01*
X14640142Y-5297580D02*
X14592523Y-5202342D01*
X14592523Y-5202342D02*
X14592523Y-4964247D01*
X14592523Y-4964247D02*
X14640142Y-4869009D01*
X14640142Y-4869009D02*
X14687761Y-4821390D01*
X14687761Y-4821390D02*
X14782999Y-4773771D01*
X14782999Y-4773771D02*
X14973475Y-4773771D01*
X14973475Y-4773771D02*
X15068713Y-4821390D01*
X15068713Y-4821390D02*
X15116332Y-4869009D01*
X15116332Y-4869009D02*
X15163951Y-4964247D01*
X13735380Y-4392819D02*
X13925856Y-4392819D01*
X13925856Y-4392819D02*
X14021094Y-4440438D01*
X14021094Y-4440438D02*
X14068713Y-4488057D01*
X14068713Y-4488057D02*
X14163951Y-4630914D01*
X14163951Y-4630914D02*
X14211570Y-4821390D01*
X14211570Y-4821390D02*
X14211570Y-5202342D01*
X14211570Y-5202342D02*
X14163951Y-5297580D01*
X14163951Y-5297580D02*
X14116332Y-5345200D01*
X14116332Y-5345200D02*
X14021094Y-5392819D01*
X14021094Y-5392819D02*
X13830618Y-5392819D01*
X13830618Y-5392819D02*
X13735380Y-5345200D01*
X13735380Y-5345200D02*
X13687761Y-5297580D01*
X13687761Y-5297580D02*
X13640142Y-5202342D01*
X13640142Y-5202342D02*
X13640142Y-4964247D01*
X13640142Y-4964247D02*
X13687761Y-4869009D01*
X13687761Y-4869009D02*
X13735380Y-4821390D01*
X13735380Y-4821390D02*
X13830618Y-4773771D01*
X13830618Y-4773771D02*
X14021094Y-4773771D01*
X14021094Y-4773771D02*
X14116332Y-4821390D01*
X14116332Y-4821390D02*
X14163951Y-4869009D01*
X14163951Y-4869009D02*
X14211570Y-4964247D01*
X13211570Y-5392819D02*
X13211570Y-4392819D01*
X13211570Y-4392819D02*
X12830618Y-4392819D01*
X12830618Y-4392819D02*
X12735380Y-4440438D01*
X12735380Y-4440438D02*
X12687761Y-4488057D01*
X12687761Y-4488057D02*
X12640142Y-4583295D01*
X12640142Y-4583295D02*
X12640142Y-4726152D01*
X12640142Y-4726152D02*
X12687761Y-4821390D01*
X12687761Y-4821390D02*
X12735380Y-4869009D01*
X12735380Y-4869009D02*
X12830618Y-4916628D01*
X12830618Y-4916628D02*
X13211570Y-4916628D01*
D12*
X-15810472Y8365857D02*
X-14810472Y8008714D01*
X-14810472Y8008714D02*
X-15810472Y7651571D01*
X-16310472Y6794428D02*
X-16310472Y6651571D01*
X-16310472Y6651571D02*
X-16239043Y6508714D01*
X-16239043Y6508714D02*
X-16167615Y6437285D01*
X-16167615Y6437285D02*
X-16024758Y6365857D01*
X-16024758Y6365857D02*
X-15739043Y6294428D01*
X-15739043Y6294428D02*
X-15381900Y6294428D01*
X-15381900Y6294428D02*
X-15096186Y6365857D01*
X-15096186Y6365857D02*
X-14953329Y6437285D01*
X-14953329Y6437285D02*
X-14881900Y6508714D01*
X-14881900Y6508714D02*
X-14810472Y6651571D01*
X-14810472Y6651571D02*
X-14810472Y6794428D01*
X-14810472Y6794428D02*
X-14881900Y6937285D01*
X-14881900Y6937285D02*
X-14953329Y7008714D01*
X-14953329Y7008714D02*
X-15096186Y7080143D01*
X-15096186Y7080143D02*
X-15381900Y7151571D01*
X-15381900Y7151571D02*
X-15739043Y7151571D01*
X-15739043Y7151571D02*
X-16024758Y7080143D01*
X-16024758Y7080143D02*
X-16167615Y7008714D01*
X-16167615Y7008714D02*
X-16239043Y6937285D01*
X-16239043Y6937285D02*
X-16310472Y6794428D01*
X-14953329Y5651572D02*
X-14881900Y5580143D01*
X-14881900Y5580143D02*
X-14810472Y5651572D01*
X-14810472Y5651572D02*
X-14881900Y5723000D01*
X-14881900Y5723000D02*
X-14953329Y5651572D01*
X-14953329Y5651572D02*
X-14810472Y5651572D01*
X-16310472Y5080143D02*
X-16310472Y4151571D01*
X-16310472Y4151571D02*
X-15739043Y4651571D01*
X-15739043Y4651571D02*
X-15739043Y4437286D01*
X-15739043Y4437286D02*
X-15667615Y4294428D01*
X-15667615Y4294428D02*
X-15596186Y4223000D01*
X-15596186Y4223000D02*
X-15453329Y4151571D01*
X-15453329Y4151571D02*
X-15096186Y4151571D01*
X-15096186Y4151571D02*
X-14953329Y4223000D01*
X-14953329Y4223000D02*
X-14881900Y4294428D01*
X-14881900Y4294428D02*
X-14810472Y4437286D01*
X-14810472Y4437286D02*
X-14810472Y4865857D01*
X-14810472Y4865857D02*
X-14881900Y5008714D01*
X-14881900Y5008714D02*
X-14953329Y5080143D01*
D10*
X4284397Y-4630057D02*
X4236778Y-4582438D01*
X4236778Y-4582438D02*
X4141540Y-4534819D01*
X4141540Y-4534819D02*
X3903445Y-4534819D01*
X3903445Y-4534819D02*
X3808207Y-4582438D01*
X3808207Y-4582438D02*
X3760588Y-4630057D01*
X3760588Y-4630057D02*
X3712969Y-4725295D01*
X3712969Y-4725295D02*
X3712969Y-4820533D01*
X3712969Y-4820533D02*
X3760588Y-4963390D01*
X3760588Y-4963390D02*
X4332016Y-5534819D01*
X4332016Y-5534819D02*
X3712969Y-5534819D01*
X3284397Y-5534819D02*
X3284397Y-4534819D01*
X2808207Y-5534819D02*
X2808207Y-4534819D01*
X2808207Y-4534819D02*
X2236779Y-5534819D01*
X2236779Y-5534819D02*
X2236779Y-4534819D01*
X-5310589Y-2979819D02*
X-4739161Y-2979819D01*
X-5024875Y-2979819D02*
X-5024875Y-1979819D01*
X-5024875Y-1979819D02*
X-4929637Y-2122676D01*
X-4929637Y-2122676D02*
X-4834399Y-2217914D01*
X-4834399Y-2217914D02*
X-4739161Y-2265533D01*
X-5929637Y-1979819D02*
X-6120113Y-1979819D01*
X-6120113Y-1979819D02*
X-6215351Y-2027438D01*
X-6215351Y-2027438D02*
X-6310589Y-2122676D01*
X-6310589Y-2122676D02*
X-6358208Y-2313152D01*
X-6358208Y-2313152D02*
X-6358208Y-2646485D01*
X-6358208Y-2646485D02*
X-6310589Y-2836961D01*
X-6310589Y-2836961D02*
X-6215351Y-2932200D01*
X-6215351Y-2932200D02*
X-6120113Y-2979819D01*
X-6120113Y-2979819D02*
X-5929637Y-2979819D01*
X-5929637Y-2979819D02*
X-5834399Y-2932200D01*
X-5834399Y-2932200D02*
X-5739161Y-2836961D01*
X-5739161Y-2836961D02*
X-5691542Y-2646485D01*
X-5691542Y-2646485D02*
X-5691542Y-2313152D01*
X-5691542Y-2313152D02*
X-5739161Y-2122676D01*
X-5739161Y-2122676D02*
X-5834399Y-2027438D01*
X-5834399Y-2027438D02*
X-5929637Y-1979819D01*
X-6786780Y-1979819D02*
X-6786780Y-2789342D01*
X-6786780Y-2789342D02*
X-6834399Y-2884580D01*
X-6834399Y-2884580D02*
X-6882018Y-2932200D01*
X-6882018Y-2932200D02*
X-6977256Y-2979819D01*
X-6977256Y-2979819D02*
X-7167732Y-2979819D01*
X-7167732Y-2979819D02*
X-7262970Y-2932200D01*
X-7262970Y-2932200D02*
X-7310589Y-2884580D01*
X-7310589Y-2884580D02*
X-7358208Y-2789342D01*
X-7358208Y-2789342D02*
X-7358208Y-1979819D01*
X-7691542Y-1979819D02*
X-8262970Y-1979819D01*
X-7977256Y-2979819D02*
X-7977256Y-1979819D01*
X5617731Y-2075057D02*
X5570112Y-2027438D01*
X5570112Y-2027438D02*
X5474874Y-1979819D01*
X5474874Y-1979819D02*
X5236779Y-1979819D01*
X5236779Y-1979819D02*
X5141541Y-2027438D01*
X5141541Y-2027438D02*
X5093922Y-2075057D01*
X5093922Y-2075057D02*
X5046303Y-2170295D01*
X5046303Y-2170295D02*
X5046303Y-2265533D01*
X5046303Y-2265533D02*
X5093922Y-2408390D01*
X5093922Y-2408390D02*
X5665350Y-2979819D01*
X5665350Y-2979819D02*
X5046303Y-2979819D01*
X4427255Y-1979819D02*
X4236779Y-1979819D01*
X4236779Y-1979819D02*
X4141541Y-2027438D01*
X4141541Y-2027438D02*
X4046303Y-2122676D01*
X4046303Y-2122676D02*
X3998684Y-2313152D01*
X3998684Y-2313152D02*
X3998684Y-2646485D01*
X3998684Y-2646485D02*
X4046303Y-2836961D01*
X4046303Y-2836961D02*
X4141541Y-2932200D01*
X4141541Y-2932200D02*
X4236779Y-2979819D01*
X4236779Y-2979819D02*
X4427255Y-2979819D01*
X4427255Y-2979819D02*
X4522493Y-2932200D01*
X4522493Y-2932200D02*
X4617731Y-2836961D01*
X4617731Y-2836961D02*
X4665350Y-2646485D01*
X4665350Y-2646485D02*
X4665350Y-2313152D01*
X4665350Y-2313152D02*
X4617731Y-2122676D01*
X4617731Y-2122676D02*
X4522493Y-2027438D01*
X4522493Y-2027438D02*
X4427255Y-1979819D01*
X3570112Y-1979819D02*
X3570112Y-2789342D01*
X3570112Y-2789342D02*
X3522493Y-2884580D01*
X3522493Y-2884580D02*
X3474874Y-2932200D01*
X3474874Y-2932200D02*
X3379636Y-2979819D01*
X3379636Y-2979819D02*
X3189160Y-2979819D01*
X3189160Y-2979819D02*
X3093922Y-2932200D01*
X3093922Y-2932200D02*
X3046303Y-2884580D01*
X3046303Y-2884580D02*
X2998684Y-2789342D01*
X2998684Y-2789342D02*
X2998684Y-1979819D01*
X2665350Y-1979819D02*
X2093922Y-1979819D01*
X2379636Y-2979819D02*
X2379636Y-1979819D01*
X36791732Y9171734D02*
X36029828Y9171734D01*
X35029828Y8790781D02*
X35601256Y8790781D01*
X35315542Y8790781D02*
X35315542Y9790781D01*
X35315542Y9790781D02*
X35410780Y9647924D01*
X35410780Y9647924D02*
X35506018Y9552686D01*
X35506018Y9552686D02*
X35601256Y9505067D01*
X34648875Y9695543D02*
X34601256Y9743162D01*
X34601256Y9743162D02*
X34506018Y9790781D01*
X34506018Y9790781D02*
X34267923Y9790781D01*
X34267923Y9790781D02*
X34172685Y9743162D01*
X34172685Y9743162D02*
X34125066Y9695543D01*
X34125066Y9695543D02*
X34077447Y9600305D01*
X34077447Y9600305D02*
X34077447Y9505067D01*
X34077447Y9505067D02*
X34125066Y9362210D01*
X34125066Y9362210D02*
X34696494Y8790781D01*
X34696494Y8790781D02*
X34077447Y8790781D01*
D12*
X-19954930Y8274280D02*
X-21454930Y8274280D01*
X-19954930Y7417137D02*
X-20812073Y8059994D01*
X-21454930Y7417137D02*
X-20597787Y8274280D01*
X-20026358Y6845708D02*
X-19954930Y6631422D01*
X-19954930Y6631422D02*
X-19954930Y6274280D01*
X-19954930Y6274280D02*
X-20026358Y6131422D01*
X-20026358Y6131422D02*
X-20097787Y6059994D01*
X-20097787Y6059994D02*
X-20240644Y5988565D01*
X-20240644Y5988565D02*
X-20383501Y5988565D01*
X-20383501Y5988565D02*
X-20526358Y6059994D01*
X-20526358Y6059994D02*
X-20597787Y6131422D01*
X-20597787Y6131422D02*
X-20669216Y6274280D01*
X-20669216Y6274280D02*
X-20740644Y6559994D01*
X-20740644Y6559994D02*
X-20812073Y6702851D01*
X-20812073Y6702851D02*
X-20883501Y6774280D01*
X-20883501Y6774280D02*
X-21026358Y6845708D01*
X-21026358Y6845708D02*
X-21169216Y6845708D01*
X-21169216Y6845708D02*
X-21312073Y6774280D01*
X-21312073Y6774280D02*
X-21383501Y6702851D01*
X-21383501Y6702851D02*
X-21454930Y6559994D01*
X-21454930Y6559994D02*
X-21454930Y6202851D01*
X-21454930Y6202851D02*
X-21383501Y5988565D01*
X-21454930Y5059994D02*
X-21454930Y4774280D01*
X-21454930Y4774280D02*
X-21383501Y4631423D01*
X-21383501Y4631423D02*
X-21240644Y4488566D01*
X-21240644Y4488566D02*
X-20954930Y4417137D01*
X-20954930Y4417137D02*
X-20454930Y4417137D01*
X-20454930Y4417137D02*
X-20169216Y4488566D01*
X-20169216Y4488566D02*
X-20026358Y4631423D01*
X-20026358Y4631423D02*
X-19954930Y4774280D01*
X-19954930Y4774280D02*
X-19954930Y5059994D01*
X-19954930Y5059994D02*
X-20026358Y5202851D01*
X-20026358Y5202851D02*
X-20169216Y5345709D01*
X-20169216Y5345709D02*
X-20454930Y5417137D01*
X-20454930Y5417137D02*
X-20954930Y5417137D01*
X-20954930Y5417137D02*
X-21240644Y5345709D01*
X-21240644Y5345709D02*
X-21383501Y5202851D01*
X-21383501Y5202851D02*
X-21454930Y5059994D01*
X-19954930Y3059994D02*
X-19954930Y3774280D01*
X-19954930Y3774280D02*
X-21454930Y3774280D01*
X-21454930Y2274279D02*
X-21454930Y1988565D01*
X-21454930Y1988565D02*
X-21383501Y1845708D01*
X-21383501Y1845708D02*
X-21240644Y1702851D01*
X-21240644Y1702851D02*
X-20954930Y1631422D01*
X-20954930Y1631422D02*
X-20454930Y1631422D01*
X-20454930Y1631422D02*
X-20169216Y1702851D01*
X-20169216Y1702851D02*
X-20026358Y1845708D01*
X-20026358Y1845708D02*
X-19954930Y1988565D01*
X-19954930Y1988565D02*
X-19954930Y2274279D01*
X-19954930Y2274279D02*
X-20026358Y2417136D01*
X-20026358Y2417136D02*
X-20169216Y2559994D01*
X-20169216Y2559994D02*
X-20454930Y2631422D01*
X-20454930Y2631422D02*
X-20954930Y2631422D01*
X-20954930Y2631422D02*
X-21240644Y2559994D01*
X-21240644Y2559994D02*
X-21383501Y2417136D01*
X-21383501Y2417136D02*
X-21454930Y2274279D01*
X-21454930Y1202850D02*
X-21454930Y345707D01*
X-19954930Y774279D02*
X-21454930Y774279D01*
X-19954930Y-154292D02*
X-21454930Y-154292D01*
X-21383501Y-2797150D02*
X-21454930Y-2654293D01*
X-21454930Y-2654293D02*
X-21454930Y-2440007D01*
X-21454930Y-2440007D02*
X-21383501Y-2225721D01*
X-21383501Y-2225721D02*
X-21240644Y-2082864D01*
X-21240644Y-2082864D02*
X-21097787Y-2011435D01*
X-21097787Y-2011435D02*
X-20812073Y-1940007D01*
X-20812073Y-1940007D02*
X-20597787Y-1940007D01*
X-20597787Y-1940007D02*
X-20312073Y-2011435D01*
X-20312073Y-2011435D02*
X-20169216Y-2082864D01*
X-20169216Y-2082864D02*
X-20026358Y-2225721D01*
X-20026358Y-2225721D02*
X-19954930Y-2440007D01*
X-19954930Y-2440007D02*
X-19954930Y-2582864D01*
X-19954930Y-2582864D02*
X-20026358Y-2797150D01*
X-20026358Y-2797150D02*
X-20097787Y-2868578D01*
X-20097787Y-2868578D02*
X-20597787Y-2868578D01*
X-20597787Y-2868578D02*
X-20597787Y-2582864D01*
X-19954930Y-3511435D02*
X-21454930Y-3511435D01*
X-19954930Y-4940007D02*
X-19954930Y-4225721D01*
X-19954930Y-4225721D02*
X-21454930Y-4225721D01*
X-19954930Y-6154293D02*
X-19954930Y-5440007D01*
X-19954930Y-5440007D02*
X-21454930Y-5440007D01*
X-20026358Y-6582865D02*
X-19954930Y-6797151D01*
X-19954930Y-6797151D02*
X-19954930Y-7154293D01*
X-19954930Y-7154293D02*
X-20026358Y-7297151D01*
X-20026358Y-7297151D02*
X-20097787Y-7368579D01*
X-20097787Y-7368579D02*
X-20240644Y-7440008D01*
X-20240644Y-7440008D02*
X-20383501Y-7440008D01*
X-20383501Y-7440008D02*
X-20526358Y-7368579D01*
X-20526358Y-7368579D02*
X-20597787Y-7297151D01*
X-20597787Y-7297151D02*
X-20669216Y-7154293D01*
X-20669216Y-7154293D02*
X-20740644Y-6868579D01*
X-20740644Y-6868579D02*
X-20812073Y-6725722D01*
X-20812073Y-6725722D02*
X-20883501Y-6654293D01*
X-20883501Y-6654293D02*
X-21026358Y-6582865D01*
X-21026358Y-6582865D02*
X-21169216Y-6582865D01*
X-21169216Y-6582865D02*
X-21312073Y-6654293D01*
X-21312073Y-6654293D02*
X-21383501Y-6725722D01*
X-21383501Y-6725722D02*
X-21454930Y-6868579D01*
X-21454930Y-6868579D02*
X-21454930Y-7225722D01*
X-21454930Y-7225722D02*
X-21383501Y-7440008D01*
X-17682871Y7417137D02*
X-17611442Y7488565D01*
X-17611442Y7488565D02*
X-17540014Y7702851D01*
X-17540014Y7702851D02*
X-17540014Y7845708D01*
X-17540014Y7845708D02*
X-17611442Y8059994D01*
X-17611442Y8059994D02*
X-17754300Y8202851D01*
X-17754300Y8202851D02*
X-17897157Y8274280D01*
X-17897157Y8274280D02*
X-18182871Y8345708D01*
X-18182871Y8345708D02*
X-18397157Y8345708D01*
X-18397157Y8345708D02*
X-18682871Y8274280D01*
X-18682871Y8274280D02*
X-18825728Y8202851D01*
X-18825728Y8202851D02*
X-18968585Y8059994D01*
X-18968585Y8059994D02*
X-19040014Y7845708D01*
X-19040014Y7845708D02*
X-19040014Y7702851D01*
X-19040014Y7702851D02*
X-18968585Y7488565D01*
X-18968585Y7488565D02*
X-18897157Y7417137D01*
X-19040014Y6988565D02*
X-17540014Y6488565D01*
X-17540014Y6488565D02*
X-19040014Y5988565D01*
X-18325728Y4345709D02*
X-18325728Y3845709D01*
X-17540014Y3631423D02*
X-17540014Y4345709D01*
X-17540014Y4345709D02*
X-19040014Y4345709D01*
X-19040014Y4345709D02*
X-19040014Y3631423D01*
X-19040014Y3131423D02*
X-17540014Y2131423D01*
X-19040014Y2131423D02*
X-17540014Y3131423D01*
X-17540014Y1559995D02*
X-19040014Y1559995D01*
X-19040014Y1559995D02*
X-19040014Y988566D01*
X-19040014Y988566D02*
X-18968585Y845709D01*
X-18968585Y845709D02*
X-18897157Y774280D01*
X-18897157Y774280D02*
X-18754300Y702852D01*
X-18754300Y702852D02*
X-18540014Y702852D01*
X-18540014Y702852D02*
X-18397157Y774280D01*
X-18397157Y774280D02*
X-18325728Y845709D01*
X-18325728Y845709D02*
X-18254300Y988566D01*
X-18254300Y988566D02*
X-18254300Y1559995D01*
X-17968585Y131423D02*
X-17968585Y-582863D01*
X-17540014Y274280D02*
X-19040014Y-225720D01*
X-19040014Y-225720D02*
X-17540014Y-725720D01*
X-17540014Y-1225719D02*
X-19040014Y-1225719D01*
X-19040014Y-1225719D02*
X-17540014Y-2082862D01*
X-17540014Y-2082862D02*
X-19040014Y-2082862D01*
X-17540014Y-2797148D02*
X-19040014Y-2797148D01*
X-19040014Y-2797148D02*
X-19040014Y-3154291D01*
X-19040014Y-3154291D02*
X-18968585Y-3368577D01*
X-18968585Y-3368577D02*
X-18825728Y-3511434D01*
X-18825728Y-3511434D02*
X-18682871Y-3582863D01*
X-18682871Y-3582863D02*
X-18397157Y-3654291D01*
X-18397157Y-3654291D02*
X-18182871Y-3654291D01*
X-18182871Y-3654291D02*
X-17897157Y-3582863D01*
X-17897157Y-3582863D02*
X-17754300Y-3511434D01*
X-17754300Y-3511434D02*
X-17611442Y-3368577D01*
X-17611442Y-3368577D02*
X-17540014Y-3154291D01*
X-17540014Y-3154291D02*
X-17540014Y-2797148D01*
X-18325728Y-4297148D02*
X-18325728Y-4797148D01*
X-17540014Y-5011434D02*
X-17540014Y-4297148D01*
X-17540014Y-4297148D02*
X-19040014Y-4297148D01*
X-19040014Y-4297148D02*
X-19040014Y-5011434D01*
X-17540014Y-6511434D02*
X-18254300Y-6011434D01*
X-17540014Y-5654291D02*
X-19040014Y-5654291D01*
X-19040014Y-5654291D02*
X-19040014Y-6225720D01*
X-19040014Y-6225720D02*
X-18968585Y-6368577D01*
X-18968585Y-6368577D02*
X-18897157Y-6440006D01*
X-18897157Y-6440006D02*
X-18754300Y-6511434D01*
X-18754300Y-6511434D02*
X-18540014Y-6511434D01*
X-18540014Y-6511434D02*
X-18397157Y-6440006D01*
X-18397157Y-6440006D02*
X-18325728Y-6368577D01*
X-18325728Y-6368577D02*
X-18254300Y-6225720D01*
X-18254300Y-6225720D02*
X-18254300Y-5654291D01*
D10*
X15382475Y-2963104D02*
X14906285Y-2963104D01*
X15477713Y-3248819D02*
X15144380Y-2248819D01*
X15144380Y-2248819D02*
X14811047Y-3248819D01*
X13906285Y-3248819D02*
X14239618Y-2772628D01*
X14477713Y-3248819D02*
X14477713Y-2248819D01*
X14477713Y-2248819D02*
X14096761Y-2248819D01*
X14096761Y-2248819D02*
X14001523Y-2296438D01*
X14001523Y-2296438D02*
X13953904Y-2344057D01*
X13953904Y-2344057D02*
X13906285Y-2439295D01*
X13906285Y-2439295D02*
X13906285Y-2582152D01*
X13906285Y-2582152D02*
X13953904Y-2677390D01*
X13953904Y-2677390D02*
X14001523Y-2725009D01*
X14001523Y-2725009D02*
X14096761Y-2772628D01*
X14096761Y-2772628D02*
X14477713Y-2772628D01*
X13477713Y-2725009D02*
X13144380Y-2725009D01*
X13001523Y-3248819D02*
X13477713Y-3248819D01*
X13477713Y-3248819D02*
X13477713Y-2248819D01*
X13477713Y-2248819D02*
X13001523Y-2248819D01*
X12239618Y-2725009D02*
X12572951Y-2725009D01*
X12572951Y-3248819D02*
X12572951Y-2248819D01*
X12572951Y-2248819D02*
X12096761Y-2248819D01*
X11715808Y-2867866D02*
X10953904Y-2867866D01*
X9953904Y-3248819D02*
X10525332Y-3248819D01*
X10239618Y-3248819D02*
X10239618Y-2248819D01*
X10239618Y-2248819D02*
X10334856Y-2391676D01*
X10334856Y-2391676D02*
X10430094Y-2486914D01*
X10430094Y-2486914D02*
X10525332Y-2534533D01*
X9334856Y-2248819D02*
X9239618Y-2248819D01*
X9239618Y-2248819D02*
X9144380Y-2296438D01*
X9144380Y-2296438D02*
X9096761Y-2344057D01*
X9096761Y-2344057D02*
X9049142Y-2439295D01*
X9049142Y-2439295D02*
X9001523Y-2629771D01*
X9001523Y-2629771D02*
X9001523Y-2867866D01*
X9001523Y-2867866D02*
X9049142Y-3058342D01*
X9049142Y-3058342D02*
X9096761Y-3153580D01*
X9096761Y-3153580D02*
X9144380Y-3201200D01*
X9144380Y-3201200D02*
X9239618Y-3248819D01*
X9239618Y-3248819D02*
X9334856Y-3248819D01*
X9334856Y-3248819D02*
X9430094Y-3201200D01*
X9430094Y-3201200D02*
X9477713Y-3153580D01*
X9477713Y-3153580D02*
X9525332Y-3058342D01*
X9525332Y-3058342D02*
X9572951Y-2867866D01*
X9572951Y-2867866D02*
X9572951Y-2629771D01*
X9572951Y-2629771D02*
X9525332Y-2439295D01*
X9525332Y-2439295D02*
X9477713Y-2344057D01*
X9477713Y-2344057D02*
X9430094Y-2296438D01*
X9430094Y-2296438D02*
X9334856Y-2248819D01*
X33117904Y1182381D02*
X32546476Y1182381D01*
X32832190Y182381D02*
X32832190Y1182381D01*
X31641714Y182381D02*
X31975047Y658572D01*
X32213142Y182381D02*
X32213142Y1182381D01*
X32213142Y1182381D02*
X31832190Y1182381D01*
X31832190Y1182381D02*
X31736952Y1134762D01*
X31736952Y1134762D02*
X31689333Y1087143D01*
X31689333Y1087143D02*
X31641714Y991905D01*
X31641714Y991905D02*
X31641714Y849048D01*
X31641714Y849048D02*
X31689333Y753810D01*
X31689333Y753810D02*
X31736952Y706191D01*
X31736952Y706191D02*
X31832190Y658572D01*
X31832190Y658572D02*
X32213142Y658572D01*
X30784571Y849048D02*
X30784571Y182381D01*
X31022666Y1230000D02*
X31260761Y515715D01*
X31260761Y515715D02*
X30641714Y515715D01*
X32498857Y-519419D02*
X32975047Y-519419D01*
X32975047Y-519419D02*
X33022666Y-995609D01*
X33022666Y-995609D02*
X32975047Y-947990D01*
X32975047Y-947990D02*
X32879809Y-900371D01*
X32879809Y-900371D02*
X32641714Y-900371D01*
X32641714Y-900371D02*
X32546476Y-947990D01*
X32546476Y-947990D02*
X32498857Y-995609D01*
X32498857Y-995609D02*
X32451238Y-1090847D01*
X32451238Y-1090847D02*
X32451238Y-1328942D01*
X32451238Y-1328942D02*
X32498857Y-1424180D01*
X32498857Y-1424180D02*
X32546476Y-1471800D01*
X32546476Y-1471800D02*
X32641714Y-1519419D01*
X32641714Y-1519419D02*
X32879809Y-1519419D01*
X32879809Y-1519419D02*
X32975047Y-1471800D01*
X32975047Y-1471800D02*
X33022666Y-1424180D01*
X31832190Y-519419D02*
X31736952Y-519419D01*
X31736952Y-519419D02*
X31641714Y-567038D01*
X31641714Y-567038D02*
X31594095Y-614657D01*
X31594095Y-614657D02*
X31546476Y-709895D01*
X31546476Y-709895D02*
X31498857Y-900371D01*
X31498857Y-900371D02*
X31498857Y-1138466D01*
X31498857Y-1138466D02*
X31546476Y-1328942D01*
X31546476Y-1328942D02*
X31594095Y-1424180D01*
X31594095Y-1424180D02*
X31641714Y-1471800D01*
X31641714Y-1471800D02*
X31736952Y-1519419D01*
X31736952Y-1519419D02*
X31832190Y-1519419D01*
X31832190Y-1519419D02*
X31927428Y-1471800D01*
X31927428Y-1471800D02*
X31975047Y-1424180D01*
X31975047Y-1424180D02*
X32022666Y-1328942D01*
X32022666Y-1328942D02*
X32070285Y-1138466D01*
X32070285Y-1138466D02*
X32070285Y-900371D01*
X32070285Y-900371D02*
X32022666Y-709895D01*
X32022666Y-709895D02*
X31975047Y-614657D01*
X31975047Y-614657D02*
X31927428Y-567038D01*
X31927428Y-567038D02*
X31832190Y-519419D01*
X31070285Y-1519419D02*
X31070285Y-519419D01*
X30975047Y-1138466D02*
X30689333Y-1519419D01*
X30689333Y-852752D02*
X31070285Y-1233704D01*
X25040704Y1131581D02*
X24469276Y1131581D01*
X24754990Y131581D02*
X24754990Y1131581D01*
X23564514Y131581D02*
X23897847Y607772D01*
X24135942Y131581D02*
X24135942Y1131581D01*
X24135942Y1131581D02*
X23754990Y1131581D01*
X23754990Y1131581D02*
X23659752Y1083962D01*
X23659752Y1083962D02*
X23612133Y1036343D01*
X23612133Y1036343D02*
X23564514Y941105D01*
X23564514Y941105D02*
X23564514Y798248D01*
X23564514Y798248D02*
X23612133Y703010D01*
X23612133Y703010D02*
X23659752Y655391D01*
X23659752Y655391D02*
X23754990Y607772D01*
X23754990Y607772D02*
X24135942Y607772D01*
X23231180Y1131581D02*
X22612133Y1131581D01*
X22612133Y1131581D02*
X22945466Y750629D01*
X22945466Y750629D02*
X22802609Y750629D01*
X22802609Y750629D02*
X22707371Y703010D01*
X22707371Y703010D02*
X22659752Y655391D01*
X22659752Y655391D02*
X22612133Y560153D01*
X22612133Y560153D02*
X22612133Y322058D01*
X22612133Y322058D02*
X22659752Y226820D01*
X22659752Y226820D02*
X22707371Y179200D01*
X22707371Y179200D02*
X22802609Y131581D01*
X22802609Y131581D02*
X23088323Y131581D01*
X23088323Y131581D02*
X23183561Y179200D01*
X23183561Y179200D02*
X23231180Y226820D01*
X24370857Y-468619D02*
X24847047Y-468619D01*
X24847047Y-468619D02*
X24894666Y-944809D01*
X24894666Y-944809D02*
X24847047Y-897190D01*
X24847047Y-897190D02*
X24751809Y-849571D01*
X24751809Y-849571D02*
X24513714Y-849571D01*
X24513714Y-849571D02*
X24418476Y-897190D01*
X24418476Y-897190D02*
X24370857Y-944809D01*
X24370857Y-944809D02*
X24323238Y-1040047D01*
X24323238Y-1040047D02*
X24323238Y-1278142D01*
X24323238Y-1278142D02*
X24370857Y-1373380D01*
X24370857Y-1373380D02*
X24418476Y-1421000D01*
X24418476Y-1421000D02*
X24513714Y-1468619D01*
X24513714Y-1468619D02*
X24751809Y-1468619D01*
X24751809Y-1468619D02*
X24847047Y-1421000D01*
X24847047Y-1421000D02*
X24894666Y-1373380D01*
X23704190Y-468619D02*
X23608952Y-468619D01*
X23608952Y-468619D02*
X23513714Y-516238D01*
X23513714Y-516238D02*
X23466095Y-563857D01*
X23466095Y-563857D02*
X23418476Y-659095D01*
X23418476Y-659095D02*
X23370857Y-849571D01*
X23370857Y-849571D02*
X23370857Y-1087666D01*
X23370857Y-1087666D02*
X23418476Y-1278142D01*
X23418476Y-1278142D02*
X23466095Y-1373380D01*
X23466095Y-1373380D02*
X23513714Y-1421000D01*
X23513714Y-1421000D02*
X23608952Y-1468619D01*
X23608952Y-1468619D02*
X23704190Y-1468619D01*
X23704190Y-1468619D02*
X23799428Y-1421000D01*
X23799428Y-1421000D02*
X23847047Y-1373380D01*
X23847047Y-1373380D02*
X23894666Y-1278142D01*
X23894666Y-1278142D02*
X23942285Y-1087666D01*
X23942285Y-1087666D02*
X23942285Y-849571D01*
X23942285Y-849571D02*
X23894666Y-659095D01*
X23894666Y-659095D02*
X23847047Y-563857D01*
X23847047Y-563857D02*
X23799428Y-516238D01*
X23799428Y-516238D02*
X23704190Y-468619D01*
X22942285Y-1468619D02*
X22942285Y-468619D01*
X22847047Y-1087666D02*
X22561333Y-1468619D01*
X22561333Y-801952D02*
X22942285Y-1182904D01*
X-936667Y-6820819D02*
X-936667Y-7535104D01*
X-936667Y-7535104D02*
X-889048Y-7677961D01*
X-889048Y-7677961D02*
X-793810Y-7773200D01*
X-793810Y-7773200D02*
X-650953Y-7820819D01*
X-650953Y-7820819D02*
X-555715Y-7820819D01*
X-1936667Y-7820819D02*
X-1365239Y-7820819D01*
X-1650953Y-7820819D02*
X-1650953Y-6820819D01*
X-1650953Y-6820819D02*
X-1555715Y-6963676D01*
X-1555715Y-6963676D02*
X-1460477Y-7058914D01*
X-1460477Y-7058914D02*
X-1365239Y-7106533D01*
X8881904Y1182381D02*
X8310476Y1182381D01*
X8596190Y182381D02*
X8596190Y1182381D01*
X7405714Y182381D02*
X7739047Y658572D01*
X7977142Y182381D02*
X7977142Y1182381D01*
X7977142Y1182381D02*
X7596190Y1182381D01*
X7596190Y1182381D02*
X7500952Y1134762D01*
X7500952Y1134762D02*
X7453333Y1087143D01*
X7453333Y1087143D02*
X7405714Y991905D01*
X7405714Y991905D02*
X7405714Y849048D01*
X7405714Y849048D02*
X7453333Y753810D01*
X7453333Y753810D02*
X7500952Y706191D01*
X7500952Y706191D02*
X7596190Y658572D01*
X7596190Y658572D02*
X7977142Y658572D01*
X6453333Y182381D02*
X7024761Y182381D01*
X6739047Y182381D02*
X6739047Y1182381D01*
X6739047Y1182381D02*
X6834285Y1039524D01*
X6834285Y1039524D02*
X6929523Y944286D01*
X6929523Y944286D02*
X7024761Y896667D01*
X8262857Y-519419D02*
X8739047Y-519419D01*
X8739047Y-519419D02*
X8786666Y-995609D01*
X8786666Y-995609D02*
X8739047Y-947990D01*
X8739047Y-947990D02*
X8643809Y-900371D01*
X8643809Y-900371D02*
X8405714Y-900371D01*
X8405714Y-900371D02*
X8310476Y-947990D01*
X8310476Y-947990D02*
X8262857Y-995609D01*
X8262857Y-995609D02*
X8215238Y-1090847D01*
X8215238Y-1090847D02*
X8215238Y-1328942D01*
X8215238Y-1328942D02*
X8262857Y-1424180D01*
X8262857Y-1424180D02*
X8310476Y-1471800D01*
X8310476Y-1471800D02*
X8405714Y-1519419D01*
X8405714Y-1519419D02*
X8643809Y-1519419D01*
X8643809Y-1519419D02*
X8739047Y-1471800D01*
X8739047Y-1471800D02*
X8786666Y-1424180D01*
X7596190Y-519419D02*
X7500952Y-519419D01*
X7500952Y-519419D02*
X7405714Y-567038D01*
X7405714Y-567038D02*
X7358095Y-614657D01*
X7358095Y-614657D02*
X7310476Y-709895D01*
X7310476Y-709895D02*
X7262857Y-900371D01*
X7262857Y-900371D02*
X7262857Y-1138466D01*
X7262857Y-1138466D02*
X7310476Y-1328942D01*
X7310476Y-1328942D02*
X7358095Y-1424180D01*
X7358095Y-1424180D02*
X7405714Y-1471800D01*
X7405714Y-1471800D02*
X7500952Y-1519419D01*
X7500952Y-1519419D02*
X7596190Y-1519419D01*
X7596190Y-1519419D02*
X7691428Y-1471800D01*
X7691428Y-1471800D02*
X7739047Y-1424180D01*
X7739047Y-1424180D02*
X7786666Y-1328942D01*
X7786666Y-1328942D02*
X7834285Y-1138466D01*
X7834285Y-1138466D02*
X7834285Y-900371D01*
X7834285Y-900371D02*
X7786666Y-709895D01*
X7786666Y-709895D02*
X7739047Y-614657D01*
X7739047Y-614657D02*
X7691428Y-567038D01*
X7691428Y-567038D02*
X7596190Y-519419D01*
X6834285Y-1519419D02*
X6834285Y-519419D01*
X6739047Y-1138466D02*
X6453333Y-1519419D01*
X6453333Y-852752D02*
X6834285Y-1233704D01*
X18457704Y1182381D02*
X17886276Y1182381D01*
X18171990Y182381D02*
X18171990Y1182381D01*
X16981514Y182381D02*
X17314847Y658572D01*
X17552942Y182381D02*
X17552942Y1182381D01*
X17552942Y1182381D02*
X17171990Y1182381D01*
X17171990Y1182381D02*
X17076752Y1134762D01*
X17076752Y1134762D02*
X17029133Y1087143D01*
X17029133Y1087143D02*
X16981514Y991905D01*
X16981514Y991905D02*
X16981514Y849048D01*
X16981514Y849048D02*
X17029133Y753810D01*
X17029133Y753810D02*
X17076752Y706191D01*
X17076752Y706191D02*
X17171990Y658572D01*
X17171990Y658572D02*
X17552942Y658572D01*
X16600561Y1087143D02*
X16552942Y1134762D01*
X16552942Y1134762D02*
X16457704Y1182381D01*
X16457704Y1182381D02*
X16219609Y1182381D01*
X16219609Y1182381D02*
X16124371Y1134762D01*
X16124371Y1134762D02*
X16076752Y1087143D01*
X16076752Y1087143D02*
X16029133Y991905D01*
X16029133Y991905D02*
X16029133Y896667D01*
X16029133Y896667D02*
X16076752Y753810D01*
X16076752Y753810D02*
X16648180Y182381D01*
X16648180Y182381D02*
X16029133Y182381D01*
X17787857Y-519419D02*
X18264047Y-519419D01*
X18264047Y-519419D02*
X18311666Y-995609D01*
X18311666Y-995609D02*
X18264047Y-947990D01*
X18264047Y-947990D02*
X18168809Y-900371D01*
X18168809Y-900371D02*
X17930714Y-900371D01*
X17930714Y-900371D02*
X17835476Y-947990D01*
X17835476Y-947990D02*
X17787857Y-995609D01*
X17787857Y-995609D02*
X17740238Y-1090847D01*
X17740238Y-1090847D02*
X17740238Y-1328942D01*
X17740238Y-1328942D02*
X17787857Y-1424180D01*
X17787857Y-1424180D02*
X17835476Y-1471800D01*
X17835476Y-1471800D02*
X17930714Y-1519419D01*
X17930714Y-1519419D02*
X18168809Y-1519419D01*
X18168809Y-1519419D02*
X18264047Y-1471800D01*
X18264047Y-1471800D02*
X18311666Y-1424180D01*
X17121190Y-519419D02*
X17025952Y-519419D01*
X17025952Y-519419D02*
X16930714Y-567038D01*
X16930714Y-567038D02*
X16883095Y-614657D01*
X16883095Y-614657D02*
X16835476Y-709895D01*
X16835476Y-709895D02*
X16787857Y-900371D01*
X16787857Y-900371D02*
X16787857Y-1138466D01*
X16787857Y-1138466D02*
X16835476Y-1328942D01*
X16835476Y-1328942D02*
X16883095Y-1424180D01*
X16883095Y-1424180D02*
X16930714Y-1471800D01*
X16930714Y-1471800D02*
X17025952Y-1519419D01*
X17025952Y-1519419D02*
X17121190Y-1519419D01*
X17121190Y-1519419D02*
X17216428Y-1471800D01*
X17216428Y-1471800D02*
X17264047Y-1424180D01*
X17264047Y-1424180D02*
X17311666Y-1328942D01*
X17311666Y-1328942D02*
X17359285Y-1138466D01*
X17359285Y-1138466D02*
X17359285Y-900371D01*
X17359285Y-900371D02*
X17311666Y-709895D01*
X17311666Y-709895D02*
X17264047Y-614657D01*
X17264047Y-614657D02*
X17216428Y-567038D01*
X17216428Y-567038D02*
X17121190Y-519419D01*
X16359285Y-1519419D02*
X16359285Y-519419D01*
X16264047Y-1138466D02*
X15978333Y-1519419D01*
X15978333Y-852752D02*
X16359285Y-1233704D01*
D13*
%TO.C,TR4*%
X26881200Y8812200D02*
X26881200Y5564200D01*
X26881200Y5130200D02*
X26881200Y1882200D01*
X26881200Y1882200D02*
X33811200Y1882200D01*
X27261200Y10332200D02*
X27261200Y8812200D01*
X27261200Y8812200D02*
X29261200Y8812200D01*
X28261200Y10332200D02*
X28261200Y9572200D01*
X29261200Y10332200D02*
X27261200Y10332200D01*
X29261200Y8812200D02*
X29261200Y10332200D01*
X30129200Y8812200D02*
X26881200Y8812200D01*
X33811200Y8812200D02*
X30563200Y8812200D01*
X33811200Y5564200D02*
X33811200Y8812200D01*
X33811200Y1882200D02*
X33811200Y5130200D01*
%TO.C,TR3*%
X18753200Y8812200D02*
X18753200Y5564200D01*
X18753200Y5130200D02*
X18753200Y1882200D01*
X18753200Y1882200D02*
X25683200Y1882200D01*
X19133200Y10332200D02*
X19133200Y8812200D01*
X19133200Y8812200D02*
X21133200Y8812200D01*
X20133200Y10332200D02*
X20133200Y9572200D01*
X21133200Y10332200D02*
X19133200Y10332200D01*
X21133200Y8812200D02*
X21133200Y10332200D01*
X22001200Y8812200D02*
X18753200Y8812200D01*
X25683200Y8812200D02*
X22435200Y8812200D01*
X25683200Y5564200D02*
X25683200Y8812200D01*
X25683200Y1882200D02*
X25683200Y5130200D01*
%TO.C,J1*%
X-3920000Y1380000D02*
X-3920000Y-6460000D01*
X-1270000Y1380000D02*
X-3920000Y1380000D01*
X-1270000Y-1270000D02*
X-1270000Y1380000D01*
X1380000Y1380000D02*
X0Y1380000D01*
X1380000Y0D02*
X1380000Y1380000D01*
X1380000Y-1270000D02*
X-1270000Y-1270000D01*
X1380000Y-1270000D02*
X1380000Y-6460000D01*
X1380000Y-6460000D02*
X-3920000Y-6460000D01*
%TO.C,TR1*%
X2497200Y8812200D02*
X2497200Y5564200D01*
X2497200Y5130200D02*
X2497200Y1882200D01*
X2497200Y1882200D02*
X9427200Y1882200D01*
X2877200Y10332200D02*
X2877200Y8812200D01*
X2877200Y8812200D02*
X4877200Y8812200D01*
X3877200Y10332200D02*
X3877200Y9572200D01*
X4877200Y10332200D02*
X2877200Y10332200D01*
X4877200Y8812200D02*
X4877200Y10332200D01*
X5745200Y8812200D02*
X2497200Y8812200D01*
X9427200Y8812200D02*
X6179200Y8812200D01*
X9427200Y5564200D02*
X9427200Y8812200D01*
X9427200Y1882200D02*
X9427200Y5130200D01*
%TO.C,J2*%
X35540000Y6190000D02*
X35540000Y1000000D01*
X38300000Y8840000D02*
X36920000Y8840000D01*
X38300000Y7460000D02*
X38300000Y8840000D01*
X38300000Y6190000D02*
X35540000Y6190000D01*
X38300000Y6190000D02*
X38300000Y1000000D01*
X38300000Y1000000D02*
X35540000Y1000000D01*
%TO.C,TR2*%
X10625200Y8812200D02*
X10625200Y5564200D01*
X10625200Y5130200D02*
X10625200Y1882200D01*
X10625200Y1882200D02*
X17555200Y1882200D01*
X11005200Y10332200D02*
X11005200Y8812200D01*
X11005200Y8812200D02*
X13005200Y8812200D01*
X12005200Y10332200D02*
X12005200Y9572200D01*
X13005200Y10332200D02*
X11005200Y10332200D01*
X13005200Y8812200D02*
X13005200Y10332200D01*
X13873200Y8812200D02*
X10625200Y8812200D01*
X17555200Y8812200D02*
X14307200Y8812200D01*
X17555200Y5564200D02*
X17555200Y8812200D01*
X17555200Y1882200D02*
X17555200Y5130200D01*
%TD*%
%LPC*%
%TO.C,FID1*%
D14*
X-22215000Y8000000D02*
G75*
G02*
X-22865000Y8000000I-325000J0D01*
G01*
X-22865000Y8000000D02*
G75*
G02*
X-22215000Y8000000I325000J0D01*
G01*
%TO.C,FID2*%
X37785000Y-9000000D02*
G75*
G02*
X37135000Y-9000000I-325000J0D01*
G01*
X37135000Y-9000000D02*
G75*
G02*
X37785000Y-9000000I325000J0D01*
G01*
%TD*%
D15*
%TO.C,FID1*%
X-22540000Y8000000D03*
%TD*%
%TO.C,FID2*%
X37460000Y-9000000D03*
%TD*%
D16*
%TO.C,TP1*%
X15113000Y127000D03*
%TD*%
D17*
%TO.C,TR4*%
X27806200Y5347200D03*
X30346200Y7887200D03*
X32886200Y5347200D03*
%TD*%
%TO.C,TR3*%
X19678200Y5347200D03*
X22218200Y7887200D03*
X24758200Y5347200D03*
%TD*%
D18*
%TO.C,J1*%
X0Y0D03*
D19*
X-2540000Y0D03*
X0Y-2540000D03*
X-2540000Y-2540000D03*
X0Y-5080000D03*
X-2540000Y-5080000D03*
%TD*%
D17*
%TO.C,TR1*%
X3422200Y5347200D03*
X5962200Y7887200D03*
X8502200Y5347200D03*
%TD*%
D18*
%TO.C,J2*%
X36920000Y7460000D03*
D19*
X36920000Y4920000D03*
X36920000Y2380000D03*
%TD*%
D17*
%TO.C,TR2*%
X11550200Y5347200D03*
X14090200Y7887200D03*
X16630200Y5347200D03*
%TD*%
%LPD*%
M02*
