%TF.GenerationSoftware,KiCad,Pcbnew,9.0.6-9.0.6~ubuntu24.04.1*%
%TF.CreationDate,2025-11-20T00:47:47+08:00*%
%TF.ProjectId,ksoloti-gills-cv-expander,6b736f6c-6f74-4692-9d67-696c6c732d63,v0.3*%
%TF.SameCoordinates,Original*%
%TF.FileFunction,Copper,L1,Top*%
%TF.FilePolarity,Positive*%
%FSLAX46Y46*%
G04 Gerber Fmt 4.6, Leading zero omitted, Abs format (unit mm)*
G04 Created by KiCad (PCBNEW 9.0.6-9.0.6~ubuntu24.04.1) date 2025-11-20 00:47:47*
%MOMM*%
%LPD*%
G01*
G04 APERTURE LIST*
G04 Aperture macros list*
%AMRoundRect*
0 Rectangle with rounded corners*
0 $1 Rounding radius*
0 $2 $3 $4 $5 $6 $7 $8 $9 X,Y pos of 4 corners*
0 Add a 4 corners polygon primitive as box body*
4,1,4,$2,$3,$4,$5,$6,$7,$8,$9,$2,$3,0*
0 Add four circle primitives for the rounded corners*
1,1,$1+$1,$2,$3*
1,1,$1+$1,$4,$5*
1,1,$1+$1,$6,$7*
1,1,$1+$1,$8,$9*
0 Add four rect primitives between the rounded corners*
20,1,$1+$1,$2,$3,$4,$5,0*
20,1,$1+$1,$4,$5,$6,$7,0*
20,1,$1+$1,$6,$7,$8,$9,0*
20,1,$1+$1,$8,$9,$2,$3,0*%
%AMFreePoly0*
4,1,9,3.862500,-0.866500,0.937500,-0.866500,0.937500,-0.450000,-0.937500,-0.450000,-0.937500,0.450000,0.937500,0.450000,0.937500,0.866500,3.862500,0.866500,3.862500,-0.866500,3.862500,-0.866500,$1*%
G04 Aperture macros list end*
%TA.AperFunction,SMDPad,CuDef*%
%ADD10RoundRect,0.250000X0.250000X0.475000X-0.250000X0.475000X-0.250000X-0.475000X0.250000X-0.475000X0*%
%TD*%
%TA.AperFunction,SMDPad,CuDef*%
%ADD11RoundRect,0.200000X0.200000X0.275000X-0.200000X0.275000X-0.200000X-0.275000X0.200000X-0.275000X0*%
%TD*%
%TA.AperFunction,SMDPad,CuDef*%
%ADD12RoundRect,0.237500X0.237500X0.237500X-0.237500X0.237500X-0.237500X-0.237500X0.237500X-0.237500X0*%
%TD*%
%TA.AperFunction,SMDPad,CuDef*%
%ADD13RoundRect,0.225000X0.225000X0.250000X-0.225000X0.250000X-0.225000X-0.250000X0.225000X-0.250000X0*%
%TD*%
%TA.AperFunction,SMDPad,CuDef*%
%ADD14RoundRect,0.225000X-0.225000X-0.250000X0.225000X-0.250000X0.225000X0.250000X-0.225000X0.250000X0*%
%TD*%
%TA.AperFunction,SMDPad,CuDef*%
%ADD15RoundRect,0.200000X-0.200000X-0.275000X0.200000X-0.275000X0.200000X0.275000X-0.200000X0.275000X0*%
%TD*%
%TA.AperFunction,SMDPad,CuDef*%
%ADD16RoundRect,0.175000X-0.175000X0.325000X-0.175000X-0.325000X0.175000X-0.325000X0.175000X0.325000X0*%
%TD*%
%TA.AperFunction,SMDPad,CuDef*%
%ADD17RoundRect,0.112500X-0.187500X-0.112500X0.187500X-0.112500X0.187500X0.112500X-0.187500X0.112500X0*%
%TD*%
%TA.AperFunction,SMDPad,CuDef*%
%ADD18RoundRect,0.200000X-0.275000X0.200000X-0.275000X-0.200000X0.275000X-0.200000X0.275000X0.200000X0*%
%TD*%
%TA.AperFunction,SMDPad,CuDef*%
%ADD19RoundRect,0.112500X0.187500X0.112500X-0.187500X0.112500X-0.187500X-0.112500X0.187500X-0.112500X0*%
%TD*%
%TA.AperFunction,SMDPad,CuDef*%
%ADD20RoundRect,0.225000X-0.250000X0.225000X-0.250000X-0.225000X0.250000X-0.225000X0.250000X0.225000X0*%
%TD*%
%TA.AperFunction,SMDPad,CuDef*%
%ADD21RoundRect,0.200000X0.275000X-0.200000X0.275000X0.200000X-0.275000X0.200000X-0.275000X-0.200000X0*%
%TD*%
%TA.AperFunction,SMDPad,CuDef*%
%ADD22RoundRect,0.225000X0.250000X-0.225000X0.250000X0.225000X-0.250000X0.225000X-0.250000X-0.225000X0*%
%TD*%
%TA.AperFunction,SMDPad,CuDef*%
%ADD23RoundRect,0.150000X-0.825000X-0.150000X0.825000X-0.150000X0.825000X0.150000X-0.825000X0.150000X0*%
%TD*%
%TA.AperFunction,HeatsinkPad*%
%ADD24R,2.410000X3.810000*%
%TD*%
%TA.AperFunction,SMDPad,CuDef*%
%ADD25RoundRect,0.250000X0.475000X-0.250000X0.475000X0.250000X-0.475000X0.250000X-0.475000X-0.250000X0*%
%TD*%
%TA.AperFunction,SMDPad,CuDef*%
%ADD26RoundRect,0.225000X0.225000X-0.425000X0.225000X0.425000X-0.225000X0.425000X-0.225000X-0.425000X0*%
%TD*%
%TA.AperFunction,SMDPad,CuDef*%
%ADD27FreePoly0,90.000000*%
%TD*%
%TA.AperFunction,SMDPad,CuDef*%
%ADD28RoundRect,0.150000X0.825000X0.150000X-0.825000X0.150000X-0.825000X-0.150000X0.825000X-0.150000X0*%
%TD*%
%TA.AperFunction,SMDPad,CuDef*%
%ADD29RoundRect,0.249999X-0.450001X-1.850001X0.450001X-1.850001X0.450001X1.850001X-0.450001X1.850001X0*%
%TD*%
%TA.AperFunction,ComponentPad*%
%ADD30C,1.000000*%
%TD*%
%TA.AperFunction,SMDPad,CuDef*%
%ADD31RoundRect,0.225000X-0.225000X0.425000X-0.225000X-0.425000X0.225000X-0.425000X0.225000X0.425000X0*%
%TD*%
%TA.AperFunction,SMDPad,CuDef*%
%ADD32FreePoly0,270.000000*%
%TD*%
%TA.AperFunction,ComponentPad*%
%ADD33C,1.440000*%
%TD*%
%TA.AperFunction,ComponentPad*%
%ADD34R,1.700000X1.700000*%
%TD*%
%TA.AperFunction,ComponentPad*%
%ADD35C,1.700000*%
%TD*%
%TA.AperFunction,ViaPad*%
%ADD36C,0.500000*%
%TD*%
%TA.AperFunction,ViaPad*%
%ADD37C,0.800000*%
%TD*%
%TA.AperFunction,Conductor*%
%ADD38C,0.400000*%
%TD*%
%TA.AperFunction,Conductor*%
%ADD39C,0.500000*%
%TD*%
%TA.AperFunction,Conductor*%
%ADD40C,0.250000*%
%TD*%
%TA.AperFunction,Conductor*%
%ADD41C,0.300000*%
%TD*%
G04 APERTURE END LIST*
D10*
%TO.P,C16,1*%
%TO.N,-12V*%
X12440000Y-7683000D03*
%TO.P,C16,2*%
%TO.N,GND*%
X10540000Y-7683000D03*
%TD*%
D11*
%TO.P,R14,1*%
%TO.N,Net-(R14-Pad1)*%
X33847000Y-3156000D03*
%TO.P,R14,2*%
%TO.N,Net-(U5A--)*%
X32197000Y-3156000D03*
%TD*%
D12*
%TO.P,JP1,1,A*%
%TO.N,Net-(JP1-A)*%
X22540000Y2555000D03*
%TO.P,JP1,2,B*%
%TO.N,Net-(JP1-B)*%
X21090000Y2555000D03*
%TD*%
D13*
%TO.P,C4,1*%
%TO.N,AREF_-10*%
X16113000Y-6477000D03*
%TO.P,C4,2*%
%TO.N,GND*%
X14563000Y-6477000D03*
%TD*%
D10*
%TO.P,C1,1*%
%TO.N,+5V*%
X-21021000Y-5110000D03*
%TO.P,C1,2*%
%TO.N,GND*%
X-22921000Y-5110000D03*
%TD*%
D14*
%TO.P,C7,1*%
%TO.N,+12V*%
X25231000Y-8185000D03*
%TO.P,C7,2*%
%TO.N,GND*%
X26781000Y-8185000D03*
%TD*%
D15*
%TO.P,R13,1*%
%TO.N,Net-(R13-Pad1)*%
X20990000Y-3105000D03*
%TO.P,R13,2*%
%TO.N,Net-(U5B--)*%
X22640000Y-3105000D03*
%TD*%
%TO.P,R12,1*%
%TO.N,Net-(U5A--)*%
X32197000Y-4791000D03*
%TO.P,R12,2*%
%TO.N,/CV_I2*%
X33847000Y-4791000D03*
%TD*%
D14*
%TO.P,C18,1*%
%TO.N,Net-(C18-Pad1)*%
X32247000Y-6442000D03*
%TO.P,C18,2*%
%TO.N,Net-(U5A--)*%
X33797000Y-6442000D03*
%TD*%
D16*
%TO.P,U4,1,REF*%
%TO.N,Net-(U4-REF)*%
X16034000Y-2356000D03*
%TO.P,U4,2,K*%
%TO.N,GND*%
X14134000Y-2356000D03*
%TO.P,U4,3,A*%
%TO.N,AREF_-10*%
X15084000Y-4756000D03*
%TD*%
D10*
%TO.P,C15,1*%
%TO.N,+12V*%
X6750400Y-494800D03*
%TO.P,C15,2*%
%TO.N,GND*%
X4850400Y-494800D03*
%TD*%
D15*
%TO.P,R15,1*%
%TO.N,/CV_O1*%
X21021000Y-8058000D03*
%TO.P,R15,2*%
%TO.N,Net-(C17-Pad1)*%
X22671000Y-8058000D03*
%TD*%
D17*
%TO.P,D2,1,K*%
%TO.N,Net-(D1-A)*%
X-11212000Y-4684000D03*
%TO.P,D2,2,A*%
%TO.N,-15V*%
X-9112000Y-4684000D03*
%TD*%
D18*
%TO.P,R8,1*%
%TO.N,Net-(JP1-A)*%
X22601000Y82000D03*
%TO.P,R8,2*%
%TO.N,AREF_-10*%
X22601000Y-1568000D03*
%TD*%
D19*
%TO.P,D1,1,K*%
%TO.N,GND*%
X-9113200Y-2525000D03*
%TO.P,D1,2,A*%
%TO.N,Net-(D1-A)*%
X-11213200Y-2525000D03*
%TD*%
D13*
%TO.P,C14,1*%
%TO.N,-12V*%
X12083099Y-5905000D03*
%TO.P,C14,2*%
%TO.N,GND*%
X10533099Y-5905000D03*
%TD*%
D20*
%TO.P,C12,1*%
%TO.N,-15V*%
X8950000Y-6146000D03*
%TO.P,C12,2*%
%TO.N,GND*%
X8950000Y-7696000D03*
%TD*%
D21*
%TO.P,R5,1*%
%TO.N,+15V*%
X-16196000Y-5782000D03*
%TO.P,R5,2*%
%TO.N,Net-(U1-FB)*%
X-16196000Y-4132000D03*
%TD*%
D13*
%TO.P,C8,1*%
%TO.N,GND*%
X29597200Y-819000D03*
%TO.P,C8,2*%
%TO.N,-12V*%
X28047200Y-819000D03*
%TD*%
D11*
%TO.P,R11,1*%
%TO.N,Net-(U5B--)*%
X22671000Y-4791000D03*
%TO.P,R11,2*%
%TO.N,/CV_I1*%
X21021000Y-4791000D03*
%TD*%
D18*
%TO.P,R9,1*%
%TO.N,Net-(JP2-B)*%
X32126000Y209000D03*
%TO.P,R9,2*%
%TO.N,AREF_-10*%
X32126000Y-1441000D03*
%TD*%
D22*
%TO.P,C6,1*%
%TO.N,+15V*%
X-14605000Y-5745000D03*
%TO.P,C6,2*%
%TO.N,Net-(U1-FB)*%
X-14605000Y-4195000D03*
%TD*%
D13*
%TO.P,C2,1*%
%TO.N,+5V*%
X-21202800Y-3205000D03*
%TO.P,C2,2*%
%TO.N,GND*%
X-22752800Y-3205000D03*
%TD*%
D11*
%TO.P,R16,1*%
%TO.N,/CV_O2*%
X33816000Y-8058000D03*
%TO.P,R16,2*%
%TO.N,Net-(C18-Pad1)*%
X32166000Y-8058000D03*
%TD*%
D23*
%TO.P,U1,1,EN*%
%TO.N,Net-(U1-EN)*%
X-18672800Y1240000D03*
%TO.P,U1,2,VIN*%
%TO.N,+5V*%
X-18672800Y-30000D03*
%TO.P,U1,3,FB*%
%TO.N,Net-(U1-FB)*%
X-18672800Y-1300000D03*
%TO.P,U1,4,NC*%
%TO.N,unconnected-(U1-NC-Pad4)*%
X-18672800Y-2570000D03*
%TO.P,U1,5,SW*%
%TO.N,Net-(D3-A)*%
X-13722800Y-2570000D03*
%TO.P,U1,6,SW*%
X-13722800Y-1300000D03*
%TO.P,U1,7,GND*%
%TO.N,GND*%
X-13722800Y-30000D03*
%TO.P,U1,8,GND*%
X-13722800Y1240000D03*
D24*
%TO.P,U1,9,GND*%
X-16197800Y-665000D03*
%TD*%
D15*
%TO.P,R4,1*%
%TO.N,+5V*%
X-22802800Y1294000D03*
%TO.P,R4,2*%
%TO.N,Net-(U1-EN)*%
X-21152800Y1294000D03*
%TD*%
D13*
%TO.P,C13,1*%
%TO.N,+12V*%
X6372200Y-2323600D03*
%TO.P,C13,2*%
%TO.N,GND*%
X4822200Y-2323600D03*
%TD*%
D19*
%TO.P,D3,1,K*%
%TO.N,+15V*%
X-9112000Y-366000D03*
%TO.P,D3,2,A*%
%TO.N,Net-(D3-A)*%
X-11212000Y-366000D03*
%TD*%
D13*
%TO.P,C3,1*%
%TO.N,+5V*%
X-21202800Y-1554000D03*
%TO.P,C3,2*%
%TO.N,GND*%
X-22752800Y-1554000D03*
%TD*%
D14*
%TO.P,C5,1*%
%TO.N,Net-(D3-A)*%
X-11192200Y1539000D03*
%TO.P,C5,2*%
%TO.N,Net-(D1-A)*%
X-9642200Y1539000D03*
%TD*%
D25*
%TO.P,C9,1*%
%TO.N,-15V*%
X-6863000Y-5171000D03*
%TO.P,C9,2*%
%TO.N,GND*%
X-6863000Y-3271000D03*
%TD*%
D26*
%TO.P,U3,1,GND*%
%TO.N,GND*%
X8885000Y-4142651D03*
D27*
%TO.P,U3,2,VI*%
%TO.N,-15V*%
X10385000Y-3855151D03*
D26*
%TO.P,U3,3,VO*%
%TO.N,-12V*%
X11885000Y-4142651D03*
%TD*%
D28*
%TO.P,U5,1*%
%TO.N,Net-(C18-Pad1)*%
X29909000Y-6442000D03*
%TO.P,U5,2,-*%
%TO.N,Net-(U5A--)*%
X29909000Y-5172000D03*
%TO.P,U5,3,+*%
%TO.N,GND*%
X29909000Y-3902000D03*
%TO.P,U5,4,V-*%
%TO.N,-12V*%
X29909000Y-2632000D03*
%TO.P,U5,5,+*%
%TO.N,GND*%
X24959000Y-2632000D03*
%TO.P,U5,6,-*%
%TO.N,Net-(U5B--)*%
X24959000Y-3902000D03*
%TO.P,U5,7*%
%TO.N,Net-(C17-Pad1)*%
X24959000Y-5172000D03*
%TO.P,U5,8,V+*%
%TO.N,+12V*%
X24959000Y-6442000D03*
%TD*%
D21*
%TO.P,R1,1*%
%TO.N,AREF_-10*%
X17751000Y-6413000D03*
%TO.P,R1,2*%
%TO.N,Net-(U4-REF)*%
X17751000Y-4763000D03*
%TD*%
D18*
%TO.P,R7,1*%
%TO.N,Net-(JP1-B)*%
X20823000Y106000D03*
%TO.P,R7,2*%
%TO.N,AREF_-10*%
X20823000Y-1544000D03*
%TD*%
D15*
%TO.P,R3,1*%
%TO.N,-12V*%
X14513000Y-8128000D03*
%TO.P,R3,2*%
%TO.N,AREF_-10*%
X16163000Y-8128000D03*
%TD*%
D25*
%TO.P,C10,1*%
%TO.N,+15V*%
X-6863000Y-1570000D03*
%TO.P,C10,2*%
%TO.N,GND*%
X-6863000Y330000D03*
%TD*%
D18*
%TO.P,R6,1*%
%TO.N,Net-(U1-FB)*%
X-17783000Y-4132000D03*
%TO.P,R6,2*%
%TO.N,GND*%
X-17783000Y-5782000D03*
%TD*%
D29*
%TO.P,L1,1,1*%
%TO.N,+5V*%
X-18487000Y6000000D03*
%TO.P,L1,2,2*%
%TO.N,Net-(D3-A)*%
X-14787000Y6000000D03*
%TD*%
D14*
%TO.P,C17,1*%
%TO.N,Net-(C17-Pad1)*%
X21071000Y-6407000D03*
%TO.P,C17,2*%
%TO.N,Net-(U5B--)*%
X22621000Y-6407000D03*
%TD*%
D30*
%TO.P,TP1,1,1*%
%TO.N,AREF_-10*%
X15113000Y127000D03*
%TD*%
D21*
%TO.P,R2,1*%
%TO.N,Net-(U4-REF)*%
X17751000Y-3238000D03*
%TO.P,R2,2*%
%TO.N,GND*%
X17751000Y-1588000D03*
%TD*%
D31*
%TO.P,U2,1,OUT*%
%TO.N,+12V*%
X6326800Y-4131000D03*
D32*
%TO.P,U2,2,GND*%
%TO.N,GND*%
X4826800Y-4418500D03*
D31*
%TO.P,U2,3,IN*%
%TO.N,+15V*%
X3326800Y-4131000D03*
%TD*%
D18*
%TO.P,R10,1*%
%TO.N,Net-(JP2-A)*%
X33909000Y209000D03*
%TO.P,R10,2*%
%TO.N,AREF_-10*%
X33909000Y-1441000D03*
%TD*%
D12*
%TO.P,JP2,1,A*%
%TO.N,Net-(JP2-A)*%
X33786000Y2555000D03*
%TO.P,JP2,2,B*%
%TO.N,Net-(JP2-B)*%
X32336000Y2555000D03*
%TD*%
D22*
%TO.P,C11,1*%
%TO.N,+15V*%
X3260400Y-2031800D03*
%TO.P,C11,2*%
%TO.N,GND*%
X3260400Y-481800D03*
%TD*%
D33*
%TO.P,TR4,1,1*%
%TO.N,Net-(JP2-A)*%
X27806200Y5347200D03*
%TO.P,TR4,2,2*%
X30346200Y7887200D03*
%TO.P,TR4,3,3*%
%TO.N,Net-(U5A--)*%
X32886200Y5347200D03*
%TD*%
%TO.P,TR3,1,1*%
%TO.N,Net-(R14-Pad1)*%
X19678200Y5347200D03*
%TO.P,TR3,2,2*%
%TO.N,/CV_O2*%
X22218200Y7887200D03*
%TO.P,TR3,3,3*%
X24758200Y5347200D03*
%TD*%
D34*
%TO.P,J1,1,Pin_1*%
%TO.N,GND*%
X0Y0D03*
D35*
%TO.P,J1,2,Pin_2*%
%TO.N,+5V*%
X-2540000Y0D03*
%TO.P,J1,3,Pin_3*%
%TO.N,/CV_O2*%
X0Y-2540000D03*
%TO.P,J1,4,Pin_4*%
%TO.N,/CV_O1*%
X-2540000Y-2540000D03*
%TO.P,J1,5,Pin_5*%
%TO.N,/CV_I2*%
X0Y-5080000D03*
%TO.P,J1,6,Pin_6*%
%TO.N,/CV_I1*%
X-2540000Y-5080000D03*
%TD*%
D33*
%TO.P,TR1,1,1*%
%TO.N,Net-(R13-Pad1)*%
X3422200Y5347200D03*
%TO.P,TR1,2,2*%
%TO.N,/CV_O1*%
X5962200Y7887200D03*
%TO.P,TR1,3,3*%
X8502200Y5347200D03*
%TD*%
D34*
%TO.P,J2,1,Pin_1*%
%TO.N,-12V*%
X36920000Y7460000D03*
D35*
%TO.P,J2,2,Pin_2*%
%TO.N,GND*%
X36920000Y4920000D03*
%TO.P,J2,3,Pin_3*%
%TO.N,+12V*%
X36920000Y2380000D03*
%TD*%
D33*
%TO.P,TR2,1,1*%
%TO.N,Net-(JP1-A)*%
X11550200Y5347200D03*
%TO.P,TR2,2,2*%
X14090200Y7887200D03*
%TO.P,TR2,3,3*%
%TO.N,Net-(U5B--)*%
X16630200Y5347200D03*
%TD*%
D36*
%TO.N,GND*%
X2253000Y-9525000D03*
X-2747000Y-9525000D03*
X18074000Y9017000D03*
X-15562800Y-665000D03*
X38481000Y-2025000D03*
X-247000Y-9525000D03*
X-16832800Y-665000D03*
X-2747000Y2413000D03*
X33227000Y9017000D03*
X28702000Y9017000D03*
X1778000Y889000D03*
X38227000Y9017000D03*
X20574000Y9017000D03*
X-7747000Y-9525000D03*
X35727000Y9017000D03*
X12446000Y9017000D03*
X-15562800Y-1935000D03*
X38481000Y-4525000D03*
X4753000Y-9525000D03*
X981000Y9017000D03*
X-7747000Y2413000D03*
X23702000Y9017000D03*
D37*
X-17749000Y-6987000D03*
D36*
X-15562800Y605000D03*
X29297000Y-9525000D03*
X889000Y1778000D03*
X9946000Y9017000D03*
X3481000Y9017000D03*
D37*
X-13751800Y2284000D03*
D36*
X1778000Y2667000D03*
X9753000Y-9525000D03*
X-5247000Y-9525000D03*
X-16832800Y-1935000D03*
X7446000Y9017000D03*
X26797000Y-9525000D03*
X2667000Y1778000D03*
X-16832800Y605000D03*
X38481000Y475000D03*
X31797000Y-9525000D03*
X26202000Y9017000D03*
X-5247000Y2413000D03*
D37*
X-22860000Y-6604000D03*
D36*
X15574000Y9017000D03*
X38481000Y-7025000D03*
X34297000Y-9525000D03*
X7253000Y-9525000D03*
X1778000Y1778000D03*
D37*
%TO.N,+5V*%
X-19564800Y-5110000D03*
D36*
%TO.N,AREF_-10*%
X33020000Y-2286000D03*
X21697000Y-1544000D03*
D37*
%TO.N,-15V*%
X7906000Y-6159000D03*
X-5495000Y-5181000D03*
%TO.N,+15V*%
X-5495000Y-1526000D03*
X3078800Y-8636000D03*
D36*
X-11816000Y-5719000D03*
D37*
%TO.N,+12V*%
X6531800Y-8609000D03*
X37584000Y-5588000D03*
X23974000Y-8685000D03*
%TO.N,-12V*%
X12827000Y2540000D03*
X25146000Y254000D03*
X29457200Y3684200D03*
D36*
%TO.N,/CV_O1*%
X8391200Y724400D03*
X20059468Y-6068268D03*
%TO.N,Net-(U5B--)*%
X23437000Y-3902000D03*
X18814400Y-3902000D03*
%TO.N,/CV_O2*%
X35662000Y0D03*
%TO.N,/CV_I1*%
X18707566Y-7028300D03*
%TO.N,/CV_I2*%
X34798000Y-5588000D03*
%TO.N,Net-(R13-Pad1)*%
X7112000Y2413000D03*
X19685000Y-2413000D03*
%TO.N,Net-(R14-Pad1)*%
X19426000Y2024200D03*
X34798000Y-3175000D03*
%TD*%
D38*
%TO.N,GND*%
X-22921000Y-6543000D02*
X-22921000Y-5110000D01*
X-13722800Y1240000D02*
X-13722800Y-30000D01*
X-22752800Y-4941800D02*
X-22921000Y-5110000D01*
X-17783000Y-5782000D02*
X-17783000Y-6953000D01*
X-13722800Y-30000D02*
X-15562800Y-30000D01*
X14563000Y-6775000D02*
X15338000Y-7550000D01*
X-22752800Y-1554000D02*
X-22752800Y-3205000D01*
X-22860000Y-6604000D02*
X-22921000Y-6543000D01*
X-13722800Y2255000D02*
X-13751800Y2284000D01*
X-15562800Y-30000D02*
X-16197800Y-665000D01*
X-17783000Y-6953000D02*
X-17749000Y-6987000D01*
X-22752800Y-3205000D02*
X-22752800Y-4941800D01*
X-13722800Y1240000D02*
X-13722800Y2255000D01*
D39*
%TO.N,+5V*%
X-21202800Y-30000D02*
X-18672800Y-30000D01*
D38*
X-21021000Y-5110000D02*
X-19564800Y-5110000D01*
D39*
X-22802800Y2924700D02*
X-22802800Y1294000D01*
X-21202800Y-1554000D02*
X-21202800Y-1287000D01*
D38*
X-21082000Y-3325800D02*
X-21082000Y-5049000D01*
D39*
X-21202800Y-1287000D02*
X-21202800Y-30000D01*
X-19727500Y6000000D02*
X-22802800Y2924700D01*
X-22802800Y1103000D02*
X-21669800Y-30000D01*
X-22802800Y1294000D02*
X-22802800Y1103000D01*
X-21669800Y-30000D02*
X-21202800Y-30000D01*
X-18487000Y6000000D02*
X-19727500Y6000000D01*
X-21202800Y-1554000D02*
X-21202800Y-3205000D01*
D40*
%TO.N,AREF_-10*%
X32126000Y-1441000D02*
X32937000Y-1441000D01*
X15084000Y-4756000D02*
X15678000Y-4756000D01*
X33020000Y-2286000D02*
X33020000Y-1524000D01*
X16113000Y-6477000D02*
X16113000Y-8078000D01*
X15084000Y98000D02*
X15113000Y127000D01*
X20823000Y-1544000D02*
X21697000Y-1544000D01*
X17751000Y-6413000D02*
X16177000Y-6413000D01*
X32937000Y-1441000D02*
X33909000Y-1441000D01*
X16113000Y-5191000D02*
X16113000Y-6477000D01*
X16113000Y-8078000D02*
X16163000Y-8128000D01*
X15084000Y-4756000D02*
X15084000Y98000D01*
X33020000Y-1524000D02*
X32937000Y-1441000D01*
X21697000Y-1544000D02*
X21721000Y-1568000D01*
X15678000Y-4756000D02*
X16113000Y-5191000D01*
X21721000Y-1568000D02*
X22601000Y-1568000D01*
D38*
%TO.N,Net-(D1-A)*%
X-11213200Y-2525000D02*
X-11212000Y-2526200D01*
X-9642200Y1539000D02*
X-10162000Y1019200D01*
X-11212000Y-2526200D02*
X-11212000Y-4684000D01*
X-10162000Y-1473800D02*
X-11213200Y-2525000D01*
X-10162000Y1019200D02*
X-10162000Y-1473800D01*
D39*
%TO.N,Net-(D3-A)*%
X-11192200Y-645200D02*
X-11192200Y1539000D01*
X-11847000Y-1300000D02*
X-11192200Y-645200D01*
X-13722800Y-1300000D02*
X-11847000Y-1300000D01*
X-14787000Y6000000D02*
X-13620000Y6000000D01*
X-11192200Y3572200D02*
X-11192200Y1539000D01*
X-13722800Y-1300000D02*
X-13722800Y-2570000D01*
X-13620000Y6000000D02*
X-11192200Y3572200D01*
D38*
%TO.N,-15V*%
X-5505000Y-5171000D02*
X-5495000Y-5181000D01*
X-8625000Y-5171000D02*
X-6863000Y-5171000D01*
X-9112000Y-4684000D02*
X-8625000Y-5171000D01*
X10385000Y-4507000D02*
X8885000Y-6007000D01*
X-6863000Y-5171000D02*
X-5505000Y-5171000D01*
X7845000Y-6159000D02*
X8745000Y-6159000D01*
D41*
%TO.N,Net-(U1-FB)*%
X-20199800Y-1619000D02*
X-20199800Y-3026850D01*
D40*
X-16196000Y-4132000D02*
X-17783000Y-4132000D01*
D41*
X-19094650Y-4132000D02*
X-17783000Y-4132000D01*
D40*
X-14605000Y-4195000D02*
X-16133000Y-4195000D01*
D41*
X-18672800Y-1300000D02*
X-19880800Y-1300000D01*
X-19880800Y-1300000D02*
X-20199800Y-1619000D01*
X-20199800Y-3026850D02*
X-19094650Y-4132000D01*
D38*
%TO.N,+15V*%
X-8306000Y-366000D02*
X-7057000Y-1615000D01*
X-9112000Y-366000D02*
X-8306000Y-366000D01*
D40*
X-14605000Y-5745000D02*
X-16159000Y-5745000D01*
X-16159000Y-5745000D02*
X-16196000Y-5782000D01*
D38*
X-5495000Y-1526000D02*
X-5584000Y-1615000D01*
X3326800Y-2098200D02*
X3260400Y-2031800D01*
D40*
X-14579000Y-5719000D02*
X-14605000Y-5745000D01*
X-11816000Y-5719000D02*
X-14579000Y-5719000D01*
D38*
X3326800Y-8388000D02*
X3326800Y-4131000D01*
X3326800Y-4131000D02*
X3326800Y-2098200D01*
X-5584000Y-1615000D02*
X-6863000Y-1615000D01*
X3078800Y-8636000D02*
X3326800Y-8388000D01*
%TO.N,+12V*%
X6326800Y-8404000D02*
X6326800Y-4131000D01*
X23974000Y-8685000D02*
X24474000Y-8185000D01*
X24474000Y-8185000D02*
X25231000Y-8185000D01*
X25231000Y-8185000D02*
X25231000Y-6455000D01*
X6552761Y-2003561D02*
X6552761Y-743239D01*
X37584000Y-5588000D02*
X37584000Y1716000D01*
X37584000Y1716000D02*
X36920000Y2380000D01*
X6372200Y-2323600D02*
X6372200Y-4085600D01*
X6531800Y-8609000D02*
X6326800Y-8404000D01*
X6372200Y-4085600D02*
X6326800Y-4131000D01*
%TO.N,-12V*%
X14068000Y-7683000D02*
X12567000Y-7683000D01*
X28047200Y-569000D02*
X28047200Y2274200D01*
X28047200Y-819000D02*
X28047200Y-1483000D01*
X12083099Y-5905000D02*
X12083099Y-4340750D01*
X28047200Y-1483000D02*
X29196200Y-2632000D01*
X26219000Y-819000D02*
X28047200Y-819000D01*
X12252000Y-6147552D02*
X12252000Y-7622000D01*
X12827000Y2540000D02*
X12036000Y1749000D01*
X28047200Y2274200D02*
X29457200Y3684200D01*
X14513000Y-8128000D02*
X14068000Y-7683000D01*
X25146000Y254000D02*
X26219000Y-819000D01*
X12036000Y1749000D02*
X12036000Y-3991651D01*
D40*
%TO.N,/CV_O1*%
X-1276491Y1173259D02*
X1300000Y3749750D01*
X20059468Y-7096468D02*
X21021000Y-8058000D01*
X1300000Y3749750D02*
X1300000Y6600000D01*
X-2540000Y-2540000D02*
X-1276491Y-1276491D01*
X8763000Y5086400D02*
X8763000Y1096200D01*
X8763000Y1096200D02*
X8391200Y724400D01*
X1300000Y6600000D02*
X2587200Y7887200D01*
X-1276491Y-1276491D02*
X-1276491Y1173259D01*
X8502200Y5347200D02*
X8763000Y5086400D01*
X2587200Y7887200D02*
X5962200Y7887200D01*
X20059468Y-6068268D02*
X20059468Y-7096468D01*
X5962200Y7887200D02*
X8502200Y5347200D01*
%TO.N,Net-(U5B--)*%
X24959000Y-3902000D02*
X23437000Y-3902000D01*
X22640000Y-4810000D02*
X22621000Y-4791000D01*
X22621000Y-4791000D02*
X22621000Y-3124000D01*
X18814400Y-3902000D02*
X18814400Y245600D01*
X22640000Y-6407000D02*
X22640000Y-4810000D01*
X16630200Y2429800D02*
X16630200Y5347200D01*
X18814400Y245600D02*
X16630200Y2429800D01*
X23437000Y-3902000D02*
X22640000Y-3105000D01*
%TO.N,/CV_O2*%
X35662000Y-6212000D02*
X35662000Y0D01*
X33816000Y-8058000D02*
X35662000Y-6212000D01*
X22218200Y7887200D02*
X24758200Y5347200D01*
%TO.N,Net-(U5A--)*%
X31305000Y-4791000D02*
X32197000Y-4791000D01*
X31237000Y-2085000D02*
X32197000Y-3045000D01*
X32197000Y-4791000D02*
X32197000Y-4842000D01*
X31237000Y3698000D02*
X31237000Y-2085000D01*
X30641500Y-5172000D02*
X31022500Y-4791000D01*
X32247000Y-4841000D02*
X32197000Y-4791000D01*
X32197000Y-3045000D02*
X32197000Y-4791000D01*
X31022500Y-4791000D02*
X31305000Y-4791000D01*
X32886200Y5347200D02*
X31237000Y3698000D01*
X32197000Y-4842000D02*
X33797000Y-6442000D01*
%TO.N,/CV_I1*%
X18707566Y-6311434D02*
X20228000Y-4791000D01*
X18707566Y-7028300D02*
X18707566Y-6311434D01*
X20228000Y-4791000D02*
X21021000Y-4791000D01*
%TO.N,/CV_I2*%
X34590000Y-5588000D02*
X33793000Y-4791000D01*
X34798000Y-5588000D02*
X34590000Y-5588000D01*
%TO.N,Net-(JP1-A)*%
X14090200Y7887200D02*
X19602700Y7887200D01*
X14090200Y7887200D02*
X11550200Y5347200D01*
X22515000Y4974900D02*
X22515000Y2301000D01*
X22515000Y2301000D02*
X22515000Y418000D01*
X19602700Y7887200D02*
X22515000Y4974900D01*
%TO.N,Net-(JP1-B)*%
X21115000Y2301000D02*
X20950000Y2136000D01*
X20950000Y2136000D02*
X20950000Y483000D01*
%TO.N,Net-(JP2-B)*%
X32361000Y2301000D02*
X32361000Y444000D01*
%TO.N,Net-(JP2-A)*%
X27806200Y5347200D02*
X30346200Y7887200D01*
X33761000Y2301000D02*
X33761000Y475000D01*
X34104626Y3517626D02*
X33761000Y3174000D01*
X30346200Y7887200D02*
X32493200Y7887200D01*
X32493200Y7887200D02*
X34104626Y6275774D01*
X34104626Y6275774D02*
X34104626Y3517626D01*
X33761000Y3174000D02*
X33761000Y2301000D01*
%TO.N,Net-(U4-REF)*%
X17751000Y-3238000D02*
X17751000Y-4763000D01*
X16614000Y-3238000D02*
X16034000Y-2658000D01*
X17751000Y-3238000D02*
X16614000Y-3238000D01*
%TO.N,Net-(R13-Pad1)*%
X19685000Y-2413000D02*
X20377000Y-3105000D01*
X20377000Y-3105000D02*
X20990000Y-3105000D01*
X6356400Y2413000D02*
X3422200Y5347200D01*
X7112000Y2413000D02*
X6356400Y2413000D01*
%TO.N,Net-(R14-Pad1)*%
X34798000Y-3175000D02*
X33866000Y-3175000D01*
X19426000Y2024200D02*
X19426000Y5095000D01*
X33866000Y-3175000D02*
X33847000Y-3156000D01*
X19426000Y5095000D02*
X19678200Y5347200D01*
%TO.N,Net-(C17-Pad1)*%
X21071000Y-6407000D02*
X21071000Y-6458000D01*
X23529336Y-5962664D02*
X24320000Y-5172000D01*
X23529336Y-7199664D02*
X23529336Y-5962664D01*
X22671000Y-8058000D02*
X23529336Y-7199664D01*
X21071000Y-6458000D02*
X22671000Y-8058000D01*
%TO.N,Net-(C18-Pad1)*%
X32247000Y-7977000D02*
X32166000Y-8058000D01*
X32247000Y-6442000D02*
X32247000Y-7977000D01*
X29909000Y-6442000D02*
X32247000Y-6442000D01*
D38*
%TO.N,Net-(U1-EN)*%
X-21098800Y1240000D02*
X-18672800Y1240000D01*
%TD*%
%TA.AperFunction,Conductor*%
%TO.N,GND*%
G36*
X38965512Y9998879D02*
G01*
X39055199Y9988774D01*
X39069707Y9986028D01*
X39083855Y9982237D01*
X39090922Y9980058D01*
X39150156Y9959331D01*
X39161241Y9954678D01*
X39194279Y9938386D01*
X39203166Y9933420D01*
X39241963Y9909042D01*
X39244291Y9907533D01*
X39257680Y9898587D01*
X39267956Y9890703D01*
X39292335Y9869323D01*
X39297063Y9864895D01*
X39324893Y9837065D01*
X39329322Y9832336D01*
X39350705Y9807953D01*
X39358585Y9797683D01*
X39367518Y9784315D01*
X39369031Y9781980D01*
X39393419Y9743166D01*
X39398384Y9734281D01*
X39414676Y9701243D01*
X39419330Y9690155D01*
X39440054Y9630928D01*
X39442235Y9623855D01*
X39446024Y9609715D01*
X39448775Y9595177D01*
X39458877Y9505530D01*
X39459500Y9494444D01*
X39459500Y-9495679D01*
X39459123Y-9504308D01*
X39446122Y-9652897D01*
X39444597Y-9663581D01*
X39438341Y-9695033D01*
X39436870Y-9701343D01*
X39402797Y-9828508D01*
X39398632Y-9840776D01*
X39390778Y-9859734D01*
X39389040Y-9863682D01*
X39330093Y-9990094D01*
X39325282Y-9999154D01*
X39322774Y-10003338D01*
X39318957Y-10009223D01*
X39230631Y-10135367D01*
X39219539Y-10148587D01*
X39108587Y-10259539D01*
X39095367Y-10270631D01*
X38969223Y-10358957D01*
X38963338Y-10362774D01*
X38959154Y-10365282D01*
X38950094Y-10370093D01*
X38823682Y-10429040D01*
X38819734Y-10430778D01*
X38800776Y-10438632D01*
X38788508Y-10442797D01*
X38661343Y-10476870D01*
X38655033Y-10478341D01*
X38623581Y-10484597D01*
X38612897Y-10486122D01*
X38464309Y-10499123D01*
X38455680Y-10499500D01*
X-9616904Y-10499500D01*
X-9675095Y-10480593D01*
X-9711059Y-10431093D01*
X-9715904Y-10400484D01*
X-9715898Y-10365282D01*
X-9715043Y-5204014D01*
X-9696126Y-5145830D01*
X-9646620Y-5109874D01*
X-9585435Y-5109884D01*
X-9551799Y-5130500D01*
X-9551586Y-5130208D01*
X-9547870Y-5132908D01*
X-9546042Y-5134028D01*
X-9545281Y-5134789D01*
X-9428715Y-5194182D01*
X-9332003Y-5209500D01*
X-9332003Y-5209499D01*
X-9332002Y-5209500D01*
X-9328130Y-5209805D01*
X-9328289Y-5211826D01*
X-9277272Y-5228304D01*
X-9265325Y-5238489D01*
X-8932314Y-5571500D01*
X-8932312Y-5571501D01*
X-8932310Y-5571503D01*
X-8818190Y-5637390D01*
X-8818192Y-5637390D01*
X-8818188Y-5637391D01*
X-8818186Y-5637392D01*
X-8690892Y-5671500D01*
X-8559108Y-5671500D01*
X-7888096Y-5671500D01*
X-7829905Y-5690407D01*
X-7809214Y-5710679D01*
X-7730922Y-5813922D01*
X-7610342Y-5905361D01*
X-7610341Y-5905361D01*
X-7610340Y-5905362D01*
X-7563313Y-5923907D01*
X-7469564Y-5960877D01*
X-7381102Y-5971500D01*
X-7381100Y-5971500D01*
X-6344900Y-5971500D01*
X-6344898Y-5971500D01*
X-6256436Y-5960877D01*
X-6115658Y-5905361D01*
X-5995078Y-5813922D01*
X-5988726Y-5805544D01*
X-5938502Y-5770602D01*
X-5877330Y-5771853D01*
X-5854841Y-5783046D01*
X-5826811Y-5801775D01*
X-5826809Y-5801775D01*
X-5826807Y-5801777D01*
X-5797481Y-5813924D01*
X-5699328Y-5854580D01*
X-5563993Y-5881500D01*
X-5563992Y-5881500D01*
X-5426008Y-5881500D01*
X-5426007Y-5881500D01*
X-5290672Y-5854580D01*
X-5163189Y-5801775D01*
X-5048458Y-5725114D01*
X-4950886Y-5627542D01*
X-4874225Y-5512811D01*
X-4821420Y-5385328D01*
X-4794500Y-5249993D01*
X-4794500Y-5112007D01*
X-4818878Y-4989450D01*
X-3690500Y-4989450D01*
X-3690500Y-5170549D01*
X-3662172Y-5349406D01*
X-3606212Y-5521637D01*
X-3526198Y-5678674D01*
X-3523996Y-5682994D01*
X-3417553Y-5829501D01*
X-3289501Y-5957553D01*
X-3142994Y-6063996D01*
X-2981639Y-6146211D01*
X-2809409Y-6202171D01*
X-2751316Y-6211372D01*
X-2630549Y-6230500D01*
X-2630546Y-6230500D01*
X-2449451Y-6230500D01*
X-2360023Y-6216335D01*
X-2270591Y-6202171D01*
X-2098361Y-6146211D01*
X-1937006Y-6063996D01*
X-1790499Y-5957553D01*
X-1662447Y-5829501D01*
X-1556004Y-5682994D01*
X-1473789Y-5521639D01*
X-1417829Y-5349409D01*
X-1395693Y-5209650D01*
X-1389500Y-5170549D01*
X-1389500Y-4989450D01*
X-1150500Y-4989450D01*
X-1150500Y-5170549D01*
X-1122172Y-5349406D01*
X-1066212Y-5521637D01*
X-986198Y-5678674D01*
X-983996Y-5682994D01*
X-877553Y-5829501D01*
X-749501Y-5957553D01*
X-602994Y-6063996D01*
X-441639Y-6146211D01*
X-269409Y-6202171D01*
X-211316Y-6211372D01*
X-90549Y-6230500D01*
X-90546Y-6230500D01*
X90549Y-6230500D01*
X179977Y-6216335D01*
X269409Y-6202171D01*
X441639Y-6146211D01*
X602994Y-6063996D01*
X749501Y-5957553D01*
X877553Y-5829501D01*
X983996Y-5682994D01*
X1066211Y-5521639D01*
X1122171Y-5349409D01*
X1144307Y-5209650D01*
X1150500Y-5170549D01*
X1150500Y-4989450D01*
X1124869Y-4827626D01*
X1122171Y-4810591D01*
X1066211Y-4638361D01*
X983996Y-4477006D01*
X877553Y-4330499D01*
X749501Y-4202447D01*
X602994Y-4096004D01*
X602993Y-4096003D01*
X602991Y-4096002D01*
X441637Y-4013788D01*
X269406Y-3957828D01*
X90549Y-3929500D01*
X90546Y-3929500D01*
X-90546Y-3929500D01*
X-90549Y-3929500D01*
X-269407Y-3957828D01*
X-441638Y-4013788D01*
X-602992Y-4096002D01*
X-667200Y-4142652D01*
X-749501Y-4202447D01*
X-877553Y-4330499D01*
X-924050Y-4394497D01*
X-983998Y-4477008D01*
X-1066212Y-4638362D01*
X-1122172Y-4810593D01*
X-1150500Y-4989450D01*
X-1389500Y-4989450D01*
X-1415131Y-4827626D01*
X-1417829Y-4810591D01*
X-1473789Y-4638361D01*
X-1556004Y-4477006D01*
X-1662447Y-4330499D01*
X-1790499Y-4202447D01*
X-1937006Y-4096004D01*
X-1937007Y-4096003D01*
X-1937009Y-4096002D01*
X-2098363Y-4013788D01*
X-2270594Y-3957828D01*
X-2449451Y-3929500D01*
X-2449454Y-3929500D01*
X-2630546Y-3929500D01*
X-2630549Y-3929500D01*
X-2809407Y-3957828D01*
X-2981638Y-4013788D01*
X-3142992Y-4096002D01*
X-3207200Y-4142652D01*
X-3289501Y-4202447D01*
X-3417553Y-4330499D01*
X-3464050Y-4394497D01*
X-3523998Y-4477008D01*
X-3606212Y-4638362D01*
X-3662172Y-4810593D01*
X-3690500Y-4989450D01*
X-4818878Y-4989450D01*
X-4821420Y-4976672D01*
X-4863062Y-4876138D01*
X-4874223Y-4849193D01*
X-4874229Y-4849182D01*
X-4950886Y-4734458D01*
X-5048459Y-4636885D01*
X-5163183Y-4560228D01*
X-5163194Y-4560222D01*
X-5290672Y-4507420D01*
X-5426005Y-4480500D01*
X-5426007Y-4480500D01*
X-5563993Y-4480500D01*
X-5563996Y-4480500D01*
X-5699328Y-4507420D01*
X-5699330Y-4507420D01*
X-5826808Y-4560223D01*
X-5826811Y-4560224D01*
X-5826811Y-4560225D01*
X-5843685Y-4571500D01*
X-5844775Y-4572228D01*
X-5903664Y-4588835D01*
X-5961067Y-4567656D01*
X-5978659Y-4549730D01*
X-5993819Y-4529739D01*
X-5995078Y-4528078D01*
X-6115658Y-4436639D01*
X-6115659Y-4436638D01*
X-6115661Y-4436637D01*
X-6158959Y-4419563D01*
X-6206156Y-4380627D01*
X-6221453Y-4321384D01*
X-6199007Y-4264465D01*
X-6153780Y-4233491D01*
X-6068876Y-4205356D01*
X-5919660Y-4113319D01*
X-5795681Y-3989340D01*
X-5703644Y-3840124D01*
X-5648494Y-3673693D01*
X-5638000Y-3570987D01*
X-5638000Y-3471001D01*
X-5638001Y-3471000D01*
X-8087998Y-3471000D01*
X-8087999Y-3471001D01*
X-8087999Y-3570986D01*
X-8077508Y-3673687D01*
X-8077505Y-3673699D01*
X-8022357Y-3840124D01*
X-7930320Y-3989340D01*
X-7806341Y-4113319D01*
X-7657125Y-4205356D01*
X-7572221Y-4233491D01*
X-7522931Y-4269742D01*
X-7504363Y-4328042D01*
X-7523608Y-4386122D01*
X-7567041Y-4419563D01*
X-7610342Y-4436638D01*
X-7610344Y-4436640D01*
X-7730919Y-4528075D01*
X-7730925Y-4528081D01*
X-7767782Y-4576685D01*
X-7803688Y-4624035D01*
X-7809212Y-4631319D01*
X-7859439Y-4666262D01*
X-7888096Y-4670500D01*
X-8376678Y-4670500D01*
X-8384276Y-4668031D01*
X-8392165Y-4669281D01*
X-8412821Y-4658756D01*
X-8434869Y-4651593D01*
X-8446682Y-4641504D01*
X-8482505Y-4605681D01*
X-8510282Y-4551164D01*
X-8510937Y-4542850D01*
X-8511196Y-4542871D01*
X-8511501Y-4538996D01*
X-8516774Y-4505704D01*
X-8526818Y-4442285D01*
X-8586211Y-4325719D01*
X-8678719Y-4233211D01*
X-8795285Y-4173818D01*
X-8842018Y-4166416D01*
X-8891996Y-4158500D01*
X-9332006Y-4158500D01*
X-9420167Y-4172464D01*
X-9428715Y-4173818D01*
X-9481619Y-4200774D01*
X-9545284Y-4233212D01*
X-9545286Y-4233214D01*
X-9545873Y-4233802D01*
X-9546613Y-4234178D01*
X-9551586Y-4237792D01*
X-9552159Y-4237003D01*
X-9600392Y-4261575D01*
X-9660823Y-4251999D01*
X-9704084Y-4208731D01*
X-9714870Y-4163783D01*
X-9714723Y-3277786D01*
X-9695807Y-3219603D01*
X-9646301Y-3183647D01*
X-9585116Y-3183657D01*
X-9565329Y-3192593D01*
X-9545885Y-3204092D01*
X-9397278Y-3247267D01*
X-9362549Y-3249999D01*
X-9313200Y-3249998D01*
X-9313200Y-2725001D01*
X-8913200Y-2725001D01*
X-8913200Y-3249998D01*
X-8913199Y-3249999D01*
X-8863853Y-3249999D01*
X-8829124Y-3247266D01*
X-8829123Y-3247266D01*
X-8680515Y-3204091D01*
X-8680511Y-3204090D01*
X-8547315Y-3125318D01*
X-8437882Y-3015885D01*
X-8359110Y-2882689D01*
X-8359109Y-2882687D01*
X-8315934Y-2734080D01*
X-8315220Y-2725000D01*
X-8913199Y-2725000D01*
X-8913200Y-2725001D01*
X-9313200Y-2725001D01*
X-9313200Y-1800001D01*
X-8913200Y-1800001D01*
X-8913200Y-2324999D01*
X-8913199Y-2325000D01*
X-8315220Y-2325000D01*
X-8315220Y-2324999D01*
X-8315934Y-2315919D01*
X-8359109Y-2167312D01*
X-8359110Y-2167310D01*
X-8437882Y-2034114D01*
X-8547315Y-1924681D01*
X-8680511Y-1845909D01*
X-8680515Y-1845908D01*
X-8829123Y-1802733D01*
X-8863852Y-1800000D01*
X-8913199Y-1800000D01*
X-8913200Y-1800001D01*
X-9313200Y-1800001D01*
X-9313200Y-1799999D01*
X-9362548Y-1800000D01*
X-9397277Y-1802733D01*
X-9397278Y-1802733D01*
X-9545886Y-1845908D01*
X-9545890Y-1845909D01*
X-9565082Y-1857259D01*
X-9575916Y-1859680D01*
X-9584898Y-1866204D01*
X-9605091Y-1866200D01*
X-9624794Y-1870604D01*
X-9634983Y-1866194D01*
X-9646083Y-1866193D01*
X-9662415Y-1854322D01*
X-9680947Y-1846303D01*
X-9686598Y-1836746D01*
X-9695577Y-1830221D01*
X-9701813Y-1811018D01*
X-9712091Y-1793637D01*
X-9714474Y-1772036D01*
X-9714466Y-1726154D01*
X-9701202Y-1676673D01*
X-9695608Y-1666986D01*
X-9680670Y-1611236D01*
X-9661500Y-1539693D01*
X-9661500Y-1407908D01*
X-9661500Y-919125D01*
X-9642593Y-860934D01*
X-9593093Y-824970D01*
X-9531907Y-824970D01*
X-9517560Y-830913D01*
X-9428715Y-876182D01*
X-9332003Y-891500D01*
X-8891998Y-891499D01*
X-8891995Y-891499D01*
X-8863866Y-887043D01*
X-8795285Y-876182D01*
X-8795278Y-876178D01*
X-8787871Y-873773D01*
X-8787505Y-874900D01*
X-8752515Y-866500D01*
X-8554322Y-866500D01*
X-8496131Y-885407D01*
X-8484318Y-895496D01*
X-7917496Y-1462318D01*
X-7889719Y-1516835D01*
X-7888500Y-1532322D01*
X-7888500Y-1863106D01*
X-7877877Y-1951565D01*
X-7822363Y-2092339D01*
X-7822362Y-2092341D01*
X-7822361Y-2092342D01*
X-7730922Y-2212922D01*
X-7727658Y-2215397D01*
X-7722970Y-2218952D01*
X-7688028Y-2269178D01*
X-7689281Y-2330351D01*
X-7726251Y-2379104D01*
X-7730816Y-2382097D01*
X-7806343Y-2428682D01*
X-7930320Y-2552659D01*
X-8022357Y-2701875D01*
X-8077507Y-2868306D01*
X-8088000Y-2971012D01*
X-8088000Y-3070999D01*
X-8087999Y-3071000D01*
X-5638002Y-3071000D01*
X-5638001Y-3070999D01*
X-5638001Y-2971013D01*
X-5648493Y-2868312D01*
X-5648496Y-2868300D01*
X-5703644Y-2701875D01*
X-5795681Y-2552659D01*
X-5919660Y-2428680D01*
X-5995184Y-2382097D01*
X-6034786Y-2335456D01*
X-6039409Y-2274446D01*
X-6017771Y-2232705D01*
X-6011110Y-2225078D01*
X-5995078Y-2212922D01*
X-5959460Y-2165952D01*
X-5957222Y-2163391D01*
X-5933756Y-2149368D01*
X-5911322Y-2133761D01*
X-5907759Y-2133833D01*
X-5904700Y-2132006D01*
X-5877482Y-2134453D01*
X-5850149Y-2135013D01*
X-5845494Y-2137330D01*
X-5843760Y-2137486D01*
X-5841879Y-2139129D01*
X-5831103Y-2144493D01*
X-5831097Y-2144484D01*
X-5830766Y-2144661D01*
X-5827665Y-2146204D01*
X-5826811Y-2146775D01*
X-5699328Y-2199580D01*
X-5563993Y-2226500D01*
X-5563992Y-2226500D01*
X-5426008Y-2226500D01*
X-5426007Y-2226500D01*
X-5290672Y-2199580D01*
X-5163189Y-2146775D01*
X-5048458Y-2070114D01*
X-4950886Y-1972542D01*
X-4874225Y-1857811D01*
X-4821420Y-1730328D01*
X-4794500Y-1594993D01*
X-4794500Y-1457007D01*
X-4821420Y-1321672D01*
X-4839905Y-1277044D01*
X-4874223Y-1194193D01*
X-4874229Y-1194182D01*
X-4950886Y-1079458D01*
X-5048459Y-981885D01*
X-5163183Y-905228D01*
X-5163194Y-905222D01*
X-5290672Y-852420D01*
X-5426005Y-825500D01*
X-5426007Y-825500D01*
X-5563993Y-825500D01*
X-5563996Y-825500D01*
X-5699328Y-852420D01*
X-5699330Y-852420D01*
X-5826807Y-905222D01*
X-5826819Y-905229D01*
X-5873225Y-936237D01*
X-5932114Y-952846D01*
X-5989517Y-931668D01*
X-5992383Y-929122D01*
X-6013129Y-913390D01*
X-6115658Y-835639D01*
X-6115659Y-835638D01*
X-6115661Y-835637D01*
X-6158959Y-818563D01*
X-6206156Y-779627D01*
X-6221453Y-720384D01*
X-6199007Y-663465D01*
X-6153780Y-632491D01*
X-6068876Y-604356D01*
X-5919660Y-512319D01*
X-5795681Y-388340D01*
X-5703644Y-239124D01*
X-5648494Y-72693D01*
X-5638000Y30013D01*
X-5638000Y90550D01*
X-3690500Y90550D01*
X-3690500Y-90549D01*
X-3662172Y-269406D01*
X-3606212Y-441637D01*
X-3528325Y-594499D01*
X-3523996Y-602994D01*
X-3417553Y-749501D01*
X-3289501Y-877553D01*
X-3142994Y-983996D01*
X-2981639Y-1066211D01*
X-2809409Y-1122171D01*
X-2737864Y-1133502D01*
X-2630549Y-1150500D01*
X-2630546Y-1150500D01*
X-2449451Y-1150500D01*
X-2342240Y-1133519D01*
X-2270591Y-1122171D01*
X-2098361Y-1066211D01*
X-1937006Y-983996D01*
X-1859180Y-927452D01*
X-1844272Y-922608D01*
X-1831584Y-913390D01*
X-1815903Y-913390D01*
X-1800992Y-908545D01*
X-1786080Y-913390D01*
X-1770398Y-913390D01*
X-1757712Y-922607D01*
X-1742801Y-927452D01*
X-1733586Y-940136D01*
X-1720898Y-949354D01*
X-1716053Y-964267D01*
X-1706837Y-976951D01*
X-1701991Y-1007545D01*
X-1701991Y-1059235D01*
X-1720898Y-1117426D01*
X-1730988Y-1129239D01*
X-2038238Y-1436488D01*
X-2092754Y-1464265D01*
X-2138833Y-1460639D01*
X-2270594Y-1417828D01*
X-2449451Y-1389500D01*
X-2449454Y-1389500D01*
X-2630546Y-1389500D01*
X-2630549Y-1389500D01*
X-2809407Y-1417828D01*
X-2981638Y-1473788D01*
X-3142992Y-1556002D01*
X-3209226Y-1604124D01*
X-3289501Y-1662447D01*
X-3417553Y-1790499D01*
X-3458097Y-1846303D01*
X-3523998Y-1937008D01*
X-3606212Y-2098362D01*
X-3662172Y-2270593D01*
X-3690500Y-2449450D01*
X-3690500Y-2630549D01*
X-3662172Y-2809406D01*
X-3606212Y-2981637D01*
X-3524230Y-3142536D01*
X-3523996Y-3142994D01*
X-3417553Y-3289501D01*
X-3289501Y-3417553D01*
X-3142994Y-3523996D01*
X-2981639Y-3606211D01*
X-2809409Y-3662171D01*
X-2738960Y-3673329D01*
X-2630549Y-3690500D01*
X-2630546Y-3690500D01*
X-2449451Y-3690500D01*
X-2343692Y-3673749D01*
X-2270591Y-3662171D01*
X-2098361Y-3606211D01*
X-1937006Y-3523996D01*
X-1790499Y-3417553D01*
X-1662447Y-3289501D01*
X-1556004Y-3142994D01*
X-1473789Y-2981639D01*
X-1417829Y-2809409D01*
X-1398537Y-2687606D01*
X-1389500Y-2630549D01*
X-1389500Y-2449450D01*
X-1408499Y-2329500D01*
X-1417829Y-2270591D01*
X-1460640Y-2138830D01*
X-1460640Y-2077646D01*
X-1436491Y-2038237D01*
X-936006Y-1537754D01*
X-879988Y-1440728D01*
X-875339Y-1423377D01*
X-873868Y-1421112D01*
X-873868Y-1418407D01*
X-857328Y-1395640D01*
X-842017Y-1372064D01*
X-839495Y-1371095D01*
X-837904Y-1368907D01*
X-811146Y-1360212D01*
X-784896Y-1350136D01*
X-779713Y-1350000D01*
X-611054Y-1350000D01*
X-552863Y-1368907D01*
X-516899Y-1418407D01*
X-516899Y-1479593D01*
X-552863Y-1529093D01*
X-566109Y-1537210D01*
X-602992Y-1556002D01*
X-669226Y-1604124D01*
X-749501Y-1662447D01*
X-877553Y-1790499D01*
X-918097Y-1846303D01*
X-983998Y-1937008D01*
X-1066212Y-2098362D01*
X-1122172Y-2270593D01*
X-1150500Y-2449450D01*
X-1150500Y-2630549D01*
X-1122172Y-2809406D01*
X-1066212Y-2981637D01*
X-984230Y-3142536D01*
X-983996Y-3142994D01*
X-877553Y-3289501D01*
X-749501Y-3417553D01*
X-602994Y-3523996D01*
X-441639Y-3606211D01*
X-269409Y-3662171D01*
X-198960Y-3673329D01*
X-90549Y-3690500D01*
X-90546Y-3690500D01*
X90549Y-3690500D01*
X196308Y-3673749D01*
X269409Y-3662171D01*
X441639Y-3606211D01*
X602994Y-3523996D01*
X749501Y-3417553D01*
X877553Y-3289501D01*
X983996Y-3142994D01*
X1066211Y-2981639D01*
X1122171Y-2809409D01*
X1141463Y-2687606D01*
X1150500Y-2630549D01*
X1150500Y-2449450D01*
X1131501Y-2329500D01*
X1122171Y-2270591D01*
X1066211Y-2098361D01*
X983996Y-1937006D01*
X877553Y-1790499D01*
X749501Y-1662447D01*
X602994Y-1556004D01*
X602993Y-1556003D01*
X602991Y-1556002D01*
X566109Y-1537210D01*
X522844Y-1493945D01*
X513273Y-1433513D01*
X541051Y-1378996D01*
X595567Y-1351219D01*
X611054Y-1350000D01*
X897824Y-1350000D01*
X957370Y-1343598D01*
X957381Y-1343596D01*
X1092088Y-1293353D01*
X1092090Y-1293352D01*
X1207184Y-1207192D01*
X1207192Y-1207184D01*
X1293352Y-1092090D01*
X1293353Y-1092088D01*
X1343596Y-957381D01*
X1343598Y-957370D01*
X1350000Y-897824D01*
X1350000Y-681801D01*
X2285401Y-681801D01*
X2285401Y-755122D01*
X2295542Y-854397D01*
X2295545Y-854409D01*
X2348854Y-1015287D01*
X2437825Y-1159529D01*
X2557667Y-1279371D01*
X2596512Y-1303331D01*
X2636113Y-1349973D01*
X2640736Y-1410983D01*
X2623423Y-1447411D01*
X2548037Y-1546823D01*
X2548034Y-1546827D01*
X2495041Y-1681208D01*
X2484900Y-1765651D01*
X2484900Y-2297948D01*
X2495041Y-2382391D01*
X2548034Y-2516772D01*
X2548035Y-2516774D01*
X2548036Y-2516775D01*
X2635322Y-2631878D01*
X2750425Y-2719164D01*
X2763619Y-2724367D01*
X2810816Y-2763303D01*
X2826300Y-2816464D01*
X2826300Y-3206237D01*
X2807393Y-3264428D01*
X2787120Y-3285120D01*
X2726726Y-3330918D01*
X2726722Y-3330922D01*
X2639434Y-3446027D01*
X2586441Y-3580408D01*
X2576300Y-3664851D01*
X2576300Y-4597148D01*
X2586441Y-4681591D01*
X2639434Y-4815972D01*
X2639435Y-4815974D01*
X2639436Y-4815975D01*
X2726722Y-4931078D01*
X2787119Y-4976878D01*
X2822061Y-5027104D01*
X2826300Y-5055762D01*
X2826300Y-7916223D01*
X2807393Y-7974414D01*
X2765187Y-8007686D01*
X2746994Y-8015222D01*
X2746990Y-8015223D01*
X2632258Y-8091886D01*
X2632254Y-8091889D01*
X2534685Y-8189458D01*
X2458028Y-8304182D01*
X2458022Y-8304193D01*
X2405220Y-8431670D01*
X2405220Y-8431672D01*
X2378300Y-8567004D01*
X2378300Y-8704995D01*
X2389349Y-8760541D01*
X2403861Y-8833498D01*
X2405220Y-8840327D01*
X2405220Y-8840329D01*
X2458022Y-8967806D01*
X2458028Y-8967817D01*
X2534685Y-9082541D01*
X2632258Y-9180114D01*
X2746982Y-9256771D01*
X2746993Y-9256777D01*
X2794083Y-9276282D01*
X2874472Y-9309580D01*
X3009807Y-9336500D01*
X3009808Y-9336500D01*
X3147792Y-9336500D01*
X3147793Y-9336500D01*
X3283128Y-9309580D01*
X3410611Y-9256775D01*
X3525342Y-9180114D01*
X3622914Y-9082542D01*
X3699575Y-8967811D01*
X3752380Y-8840328D01*
X3779300Y-8704993D01*
X3779300Y-8631774D01*
X3791195Y-8587385D01*
X3790708Y-8587184D01*
X3792241Y-8583481D01*
X3792566Y-8582269D01*
X3793192Y-8581186D01*
X3827300Y-8453892D01*
X3827300Y-8322108D01*
X3827300Y-5055762D01*
X3846207Y-4997571D01*
X3866481Y-4976878D01*
X3926878Y-4931078D01*
X4014164Y-4815975D01*
X4067159Y-4681590D01*
X4077300Y-4597144D01*
X4077300Y-3664856D01*
X4067159Y-3580410D01*
X4027117Y-3478872D01*
X4014165Y-3446027D01*
X4014164Y-3446026D01*
X4014164Y-3446025D01*
X3926878Y-3330922D01*
X3926873Y-3330918D01*
X3866480Y-3285120D01*
X3858091Y-3273062D01*
X3846207Y-3264428D01*
X3841056Y-3248575D01*
X3831538Y-3234894D01*
X3827300Y-3206237D01*
X3827300Y-3055498D01*
X3846207Y-2997307D01*
X3895707Y-2961343D01*
X3956893Y-2961343D01*
X4006393Y-2997307D01*
X4010561Y-3003526D01*
X4024627Y-3026331D01*
X4144470Y-3146174D01*
X4288712Y-3235145D01*
X4449596Y-3288456D01*
X4548877Y-3298599D01*
X4622199Y-3298598D01*
X4622200Y-3298598D01*
X4622200Y-1824664D01*
X5022200Y-1824664D01*
X5022200Y-3298598D01*
X5022201Y-3298599D01*
X5095522Y-3298599D01*
X5194797Y-3288457D01*
X5194809Y-3288454D01*
X5355687Y-3235145D01*
X5499929Y-3146174D01*
X5619773Y-3026330D01*
X5619773Y-3026329D01*
X5643733Y-2987487D01*
X5659196Y-2974357D01*
X5671455Y-2958192D01*
X5681987Y-2955006D01*
X5690374Y-2947886D01*
X5710603Y-2946353D01*
X5730021Y-2940481D01*
X5740412Y-2944094D01*
X5751385Y-2943263D01*
X5787811Y-2960575D01*
X5830109Y-2992651D01*
X5832519Y-2994478D01*
X5867461Y-3044704D01*
X5871700Y-3073362D01*
X5871700Y-3171809D01*
X5852793Y-3230000D01*
X5832520Y-3250692D01*
X5726726Y-3330918D01*
X5726722Y-3330922D01*
X5639434Y-3446027D01*
X5586441Y-3580408D01*
X5576300Y-3664851D01*
X5576300Y-4597148D01*
X5586441Y-4681591D01*
X5639434Y-4815972D01*
X5639435Y-4815974D01*
X5639436Y-4815975D01*
X5726722Y-4931078D01*
X5787119Y-4976878D01*
X5822061Y-5027104D01*
X5826300Y-5055762D01*
X5826300Y-8469892D01*
X5831200Y-8488182D01*
X5832671Y-8533108D01*
X5831301Y-8539997D01*
X5831300Y-8540009D01*
X5831300Y-8677995D01*
X5848004Y-8761968D01*
X5850953Y-8776797D01*
X5858220Y-8813327D01*
X5858220Y-8813329D01*
X5911022Y-8940806D01*
X5911028Y-8940817D01*
X5987685Y-9055541D01*
X6085258Y-9153114D01*
X6199982Y-9229771D01*
X6199993Y-9229777D01*
X6247083Y-9249282D01*
X6327472Y-9282580D01*
X6462807Y-9309500D01*
X6462808Y-9309500D01*
X6600792Y-9309500D01*
X6600793Y-9309500D01*
X6736128Y-9282580D01*
X6863611Y-9229775D01*
X6978342Y-9153114D01*
X7075914Y-9055542D01*
X7152575Y-8940811D01*
X7205380Y-8813328D01*
X7232300Y-8677993D01*
X7232300Y-8540007D01*
X7205380Y-8404672D01*
X7171181Y-8322108D01*
X7152577Y-8277193D01*
X7152571Y-8277182D01*
X7075914Y-8162458D01*
X6978345Y-8064889D01*
X6978342Y-8064886D01*
X6898325Y-8011420D01*
X6871298Y-7993361D01*
X6860422Y-7979565D01*
X6846207Y-7969237D01*
X6841948Y-7956131D01*
X6833419Y-7945311D01*
X6827300Y-7911046D01*
X6827300Y-7896001D01*
X7975001Y-7896001D01*
X7975001Y-7969322D01*
X7985142Y-8068597D01*
X7985145Y-8068609D01*
X8038454Y-8229487D01*
X8127425Y-8373729D01*
X8247270Y-8493574D01*
X8391512Y-8582545D01*
X8552396Y-8635856D01*
X8651677Y-8645999D01*
X8750000Y-8645999D01*
X8750000Y-7896001D01*
X9150000Y-7896001D01*
X9150000Y-8645998D01*
X9150001Y-8645999D01*
X9248322Y-8645999D01*
X9347597Y-8635857D01*
X9347609Y-8635854D01*
X9508483Y-8582547D01*
X9541708Y-8562053D01*
X9601161Y-8547596D01*
X9657757Y-8570845D01*
X9677943Y-8594340D01*
X9697682Y-8626342D01*
X9821659Y-8750319D01*
X9970875Y-8842356D01*
X10137306Y-8897506D01*
X10240013Y-8907999D01*
X10340000Y-8907999D01*
X10340000Y-7883001D01*
X10339999Y-7883000D01*
X10014602Y-7883000D01*
X9991480Y-7894781D01*
X9975993Y-7896000D01*
X9150001Y-7896000D01*
X9150000Y-7896001D01*
X8750000Y-7896001D01*
X8749999Y-7896000D01*
X7975002Y-7896000D01*
X7975001Y-7896001D01*
X6827300Y-7896001D01*
X6827300Y-6090004D01*
X7205500Y-6090004D01*
X7205500Y-6227995D01*
X7232420Y-6363327D01*
X7232420Y-6363329D01*
X7285222Y-6490806D01*
X7285228Y-6490817D01*
X7361885Y-6605541D01*
X7459458Y-6703114D01*
X7574182Y-6779771D01*
X7574193Y-6779777D01*
X7621283Y-6799282D01*
X7701672Y-6832580D01*
X7837007Y-6859500D01*
X7837008Y-6859500D01*
X7974992Y-6859500D01*
X7974993Y-6859500D01*
X8043378Y-6845897D01*
X8104139Y-6853089D01*
X8149069Y-6894621D01*
X8161006Y-6954630D01*
X8135390Y-7010196D01*
X8132699Y-7012995D01*
X8127431Y-7018262D01*
X8127425Y-7018270D01*
X8038454Y-7162512D01*
X7985143Y-7323396D01*
X7975000Y-7422676D01*
X7975000Y-7495999D01*
X7975001Y-7496000D01*
X9450398Y-7496000D01*
X9473520Y-7484219D01*
X9489007Y-7483000D01*
X10339999Y-7483000D01*
X10340000Y-7482999D01*
X10340000Y-6963730D01*
X10334318Y-6952579D01*
X10333099Y-6937092D01*
X10333099Y-6004000D01*
X10352006Y-5945809D01*
X10401506Y-5909845D01*
X10432099Y-5905000D01*
X10634099Y-5905000D01*
X10692290Y-5923907D01*
X10728254Y-5973407D01*
X10733099Y-6004000D01*
X10733099Y-6374269D01*
X10738781Y-6385421D01*
X10740000Y-6400908D01*
X10740000Y-8907998D01*
X10740001Y-8907999D01*
X10839986Y-8907999D01*
X10942687Y-8897507D01*
X10942699Y-8897504D01*
X11109124Y-8842356D01*
X11258340Y-8750319D01*
X11382319Y-8626340D01*
X11474356Y-8477124D01*
X11502491Y-8392220D01*
X11538742Y-8342930D01*
X11597042Y-8324362D01*
X11655122Y-8343607D01*
X11688563Y-8387041D01*
X11705637Y-8430339D01*
X11705638Y-8430341D01*
X11705639Y-8430342D01*
X11797078Y-8550922D01*
X11917658Y-8642361D01*
X11917659Y-8642361D01*
X11917660Y-8642362D01*
X11926883Y-8645999D01*
X12058436Y-8697877D01*
X12146898Y-8708500D01*
X12146900Y-8708500D01*
X12733100Y-8708500D01*
X12733102Y-8708500D01*
X12821564Y-8697877D01*
X12962342Y-8642361D01*
X13082922Y-8550922D01*
X13174361Y-8430342D01*
X13229877Y-8289564D01*
X13232143Y-8270695D01*
X13257855Y-8215174D01*
X13311290Y-8185369D01*
X13330437Y-8183500D01*
X13713501Y-8183500D01*
X13771692Y-8202407D01*
X13807656Y-8251907D01*
X13812501Y-8282500D01*
X13812501Y-8450872D01*
X13812826Y-8453892D01*
X13818908Y-8510480D01*
X13818909Y-8510485D01*
X13869202Y-8645329D01*
X13954236Y-8758919D01*
X13955454Y-8760546D01*
X13955457Y-8760548D01*
X13955458Y-8760549D01*
X14070670Y-8846797D01*
X14205511Y-8897089D01*
X14205512Y-8897089D01*
X14205517Y-8897091D01*
X14265127Y-8903500D01*
X14760872Y-8903499D01*
X14820483Y-8897091D01*
X14949725Y-8848887D01*
X14955329Y-8846797D01*
X14955329Y-8846796D01*
X14955331Y-8846796D01*
X15070546Y-8760546D01*
X15156796Y-8645331D01*
X15157904Y-8642362D01*
X15193249Y-8547596D01*
X15207091Y-8510483D01*
X15213500Y-8450873D01*
X15213499Y-7805128D01*
X15207091Y-7745517D01*
X15197055Y-7718608D01*
X15156797Y-7610670D01*
X15088908Y-7519982D01*
X15069171Y-7462067D01*
X15087245Y-7403612D01*
X15116188Y-7376393D01*
X15240730Y-7299573D01*
X15360572Y-7179731D01*
X15384531Y-7140888D01*
X15399322Y-7128329D01*
X15410760Y-7112652D01*
X15422095Y-7108993D01*
X15431172Y-7101287D01*
X15450518Y-7099820D01*
X15468988Y-7093860D01*
X15480026Y-7097584D01*
X15492182Y-7096663D01*
X15527141Y-7112883D01*
X15527916Y-7113449D01*
X15628025Y-7189364D01*
X15636611Y-7192750D01*
X15646849Y-7200219D01*
X15657709Y-7215229D01*
X15672005Y-7227018D01*
X15675892Y-7240361D01*
X15682715Y-7249790D01*
X15682687Y-7263679D01*
X15687500Y-7280196D01*
X15687500Y-7384478D01*
X15668593Y-7442669D01*
X15647830Y-7463730D01*
X15605459Y-7495449D01*
X15605450Y-7495458D01*
X15519202Y-7610670D01*
X15468910Y-7745511D01*
X15468908Y-7745522D01*
X15462500Y-7805129D01*
X15462500Y-8450866D01*
X15462500Y-8450869D01*
X15462501Y-8450872D01*
X15462826Y-8453892D01*
X15468908Y-8510480D01*
X15468909Y-8510485D01*
X15519202Y-8645329D01*
X15604236Y-8758919D01*
X15605454Y-8760546D01*
X15605457Y-8760548D01*
X15605458Y-8760549D01*
X15720670Y-8846797D01*
X15855511Y-8897089D01*
X15855512Y-8897089D01*
X15855517Y-8897091D01*
X15915127Y-8903500D01*
X16410872Y-8903499D01*
X16470483Y-8897091D01*
X16599725Y-8848887D01*
X16605329Y-8846797D01*
X16605329Y-8846796D01*
X16605331Y-8846796D01*
X16720546Y-8760546D01*
X16806796Y-8645331D01*
X16807904Y-8642362D01*
X16843249Y-8547596D01*
X16857091Y-8510483D01*
X16863500Y-8450873D01*
X16863499Y-7805128D01*
X16857091Y-7745517D01*
X16847055Y-7718608D01*
X16806797Y-7610670D01*
X16720549Y-7495458D01*
X16720548Y-7495457D01*
X16720546Y-7495454D01*
X16720541Y-7495450D01*
X16605333Y-7409204D01*
X16602897Y-7408296D01*
X16601199Y-7406947D01*
X16599121Y-7405813D01*
X16599317Y-7405453D01*
X16580527Y-7390529D01*
X16557407Y-7373731D01*
X16556721Y-7371621D01*
X16554985Y-7370242D01*
X16538500Y-7315540D01*
X16538500Y-7280196D01*
X16557407Y-7222005D01*
X16593043Y-7194407D01*
X16592073Y-7192682D01*
X16597972Y-7189365D01*
X16597971Y-7189365D01*
X16597975Y-7189364D01*
X16713078Y-7102078D01*
X16800364Y-6986975D01*
X16834197Y-6901180D01*
X16851817Y-6879822D01*
X16868103Y-6857407D01*
X16871117Y-6856427D01*
X16873133Y-6853984D01*
X16926294Y-6838500D01*
X16970049Y-6838500D01*
X17028240Y-6857407D01*
X17049302Y-6878171D01*
X17113351Y-6963730D01*
X17118454Y-6970546D01*
X17118457Y-6970548D01*
X17118458Y-6970549D01*
X17233670Y-7056797D01*
X17368511Y-7107089D01*
X17368512Y-7107089D01*
X17368517Y-7107091D01*
X17428127Y-7113500D01*
X18073872Y-7113499D01*
X18073877Y-7113498D01*
X18076514Y-7113357D01*
X18076521Y-7113499D01*
X18076523Y-7113499D01*
X18076523Y-7113524D01*
X18076553Y-7114098D01*
X18133636Y-7126075D01*
X18174695Y-7171438D01*
X18179986Y-7186316D01*
X18194582Y-7240786D01*
X18194583Y-7240788D01*
X18267053Y-7366310D01*
X18267055Y-7366312D01*
X18267057Y-7366315D01*
X18369551Y-7468809D01*
X18369553Y-7468810D01*
X18369555Y-7468812D01*
X18495077Y-7541282D01*
X18495078Y-7541282D01*
X18495081Y-7541284D01*
X18635091Y-7578800D01*
X18635092Y-7578800D01*
X18780040Y-7578800D01*
X18780041Y-7578800D01*
X18920051Y-7541284D01*
X18920053Y-7541282D01*
X18920055Y-7541282D01*
X19045576Y-7468812D01*
X19045576Y-7468811D01*
X19045581Y-7468809D01*
X19148075Y-7366315D01*
X19149469Y-7363901D01*
X19220548Y-7240789D01*
X19220549Y-7240786D01*
X19220550Y-7240785D01*
X19258066Y-7100775D01*
X19258066Y-6955825D01*
X19220550Y-6815815D01*
X19220548Y-6815812D01*
X19220548Y-6815810D01*
X19146330Y-6687261D01*
X19133066Y-6637761D01*
X19133066Y-6528689D01*
X19151973Y-6470498D01*
X19162062Y-6458686D01*
X19381597Y-6239150D01*
X19436114Y-6211372D01*
X19496546Y-6220943D01*
X19539811Y-6264208D01*
X19543881Y-6274810D01*
X19544002Y-6274761D01*
X19546483Y-6280752D01*
X19620704Y-6409306D01*
X19633968Y-6458806D01*
X19633968Y-7040450D01*
X19633968Y-7152486D01*
X19657628Y-7240786D01*
X19662966Y-7260709D01*
X19708286Y-7339204D01*
X19718983Y-7357731D01*
X20006572Y-7645320D01*
X20291504Y-7930252D01*
X20319281Y-7984769D01*
X20320500Y-8000256D01*
X20320500Y-8380866D01*
X20320501Y-8380870D01*
X20326908Y-8440480D01*
X20326909Y-8440485D01*
X20377202Y-8575329D01*
X20429606Y-8645331D01*
X20463454Y-8690546D01*
X20463457Y-8690548D01*
X20463458Y-8690549D01*
X20578670Y-8776797D01*
X20713511Y-8827089D01*
X20713512Y-8827089D01*
X20713517Y-8827091D01*
X20773127Y-8833500D01*
X21268872Y-8833499D01*
X21328483Y-8827091D01*
X21396075Y-8801881D01*
X21463329Y-8776797D01*
X21463329Y-8776796D01*
X21463331Y-8776796D01*
X21578546Y-8690546D01*
X21664796Y-8575331D01*
X21669749Y-8562053D01*
X21710090Y-8453892D01*
X21715091Y-8440483D01*
X21721500Y-8380873D01*
X21721499Y-7949253D01*
X21728662Y-7927207D01*
X21732289Y-7904310D01*
X21737937Y-7898661D01*
X21740406Y-7891064D01*
X21759162Y-7877436D01*
X21775554Y-7861045D01*
X21783443Y-7859795D01*
X21789906Y-7855100D01*
X21813091Y-7855100D01*
X21835986Y-7851474D01*
X21843103Y-7855100D01*
X21851091Y-7855100D01*
X21890503Y-7879251D01*
X21941504Y-7930252D01*
X21969281Y-7984769D01*
X21970500Y-8000256D01*
X21970500Y-8380866D01*
X21970501Y-8380870D01*
X21976908Y-8440480D01*
X21976909Y-8440485D01*
X22027202Y-8575329D01*
X22079606Y-8645331D01*
X22113454Y-8690546D01*
X22113457Y-8690548D01*
X22113458Y-8690549D01*
X22228670Y-8776797D01*
X22363511Y-8827089D01*
X22363512Y-8827089D01*
X22363517Y-8827091D01*
X22423127Y-8833500D01*
X22918872Y-8833499D01*
X22978483Y-8827091D01*
X23113331Y-8776796D01*
X23130913Y-8763633D01*
X23188824Y-8743896D01*
X23247280Y-8761968D01*
X23283949Y-8810948D01*
X23287340Y-8823571D01*
X23300420Y-8889329D01*
X23353222Y-9016806D01*
X23353228Y-9016817D01*
X23429885Y-9131541D01*
X23527458Y-9229114D01*
X23642182Y-9305771D01*
X23642193Y-9305777D01*
X23689283Y-9325282D01*
X23769672Y-9358580D01*
X23905007Y-9385500D01*
X23905008Y-9385500D01*
X24042992Y-9385500D01*
X24042993Y-9385500D01*
X24178328Y-9358580D01*
X24305811Y-9305775D01*
X24420542Y-9229114D01*
X24518114Y-9131542D01*
X24594775Y-9016811D01*
X24621297Y-8952780D01*
X24661033Y-8906255D01*
X24720528Y-8891971D01*
X24749080Y-8898569D01*
X24772993Y-8907999D01*
X24880410Y-8950359D01*
X24964856Y-8960500D01*
X24964858Y-8960500D01*
X25497142Y-8960500D01*
X25497144Y-8960500D01*
X25581590Y-8950359D01*
X25715975Y-8897364D01*
X25808643Y-8827091D01*
X25815387Y-8821977D01*
X25873178Y-8801881D01*
X25931744Y-8819592D01*
X25959467Y-8848887D01*
X25983426Y-8887729D01*
X25983426Y-8887730D01*
X26103270Y-9007574D01*
X26247512Y-9096545D01*
X26408396Y-9149856D01*
X26507677Y-9159999D01*
X26580999Y-9159998D01*
X26581000Y-9159998D01*
X26581000Y-8385001D01*
X26981000Y-8385001D01*
X26981000Y-9159998D01*
X26981001Y-9159999D01*
X27054322Y-9159999D01*
X27153597Y-9149857D01*
X27153609Y-9149854D01*
X27314487Y-9096545D01*
X27458729Y-9007574D01*
X27547709Y-8918594D01*
X36633500Y-8918594D01*
X36633500Y-9081405D01*
X36649134Y-9159999D01*
X36663013Y-9229777D01*
X36665262Y-9241080D01*
X36665262Y-9241082D01*
X36727563Y-9391492D01*
X36727563Y-9391493D01*
X36802945Y-9504308D01*
X36818016Y-9526863D01*
X36933137Y-9641984D01*
X37068505Y-9732435D01*
X37218919Y-9794738D01*
X37378597Y-9826500D01*
X37378598Y-9826500D01*
X37541402Y-9826500D01*
X37541403Y-9826500D01*
X37701081Y-9794738D01*
X37851495Y-9732435D01*
X37986863Y-9641984D01*
X38101984Y-9526863D01*
X38192435Y-9391495D01*
X38254738Y-9241081D01*
X38286500Y-9081403D01*
X38286500Y-8918597D01*
X38254738Y-8758919D01*
X38206459Y-8642362D01*
X38192436Y-8608507D01*
X38192436Y-8608506D01*
X38101984Y-8473137D01*
X37986862Y-8358015D01*
X37851492Y-8267563D01*
X37701081Y-8205262D01*
X37541405Y-8173500D01*
X37541403Y-8173500D01*
X37378597Y-8173500D01*
X37378594Y-8173500D01*
X37218919Y-8205262D01*
X37218917Y-8205262D01*
X37068507Y-8267563D01*
X37068506Y-8267563D01*
X36933137Y-8358015D01*
X36818015Y-8473137D01*
X36727563Y-8608506D01*
X36727563Y-8608507D01*
X36665262Y-8758917D01*
X36665262Y-8758919D01*
X36633500Y-8918594D01*
X27547709Y-8918594D01*
X27578574Y-8887729D01*
X27667545Y-8743487D01*
X27720856Y-8582603D01*
X27731000Y-8483323D01*
X27731000Y-8385001D01*
X27730999Y-8385000D01*
X26981001Y-8385000D01*
X26981000Y-8385001D01*
X26581000Y-8385001D01*
X26581000Y-7210001D01*
X26981000Y-7210001D01*
X26981000Y-7984999D01*
X26981001Y-7985000D01*
X27730998Y-7985000D01*
X27730999Y-7984999D01*
X27730999Y-7886677D01*
X27720857Y-7787402D01*
X27720854Y-7787390D01*
X27667545Y-7626512D01*
X27578574Y-7482270D01*
X27458729Y-7362425D01*
X27314487Y-7273454D01*
X27153603Y-7220143D01*
X27054323Y-7210000D01*
X26981001Y-7210000D01*
X26981000Y-7210001D01*
X26581000Y-7210001D01*
X26581000Y-7209999D01*
X26507678Y-7210000D01*
X26507677Y-7210001D01*
X26408402Y-7220142D01*
X26408390Y-7220145D01*
X26247512Y-7273454D01*
X26103270Y-7362425D01*
X25983426Y-7482269D01*
X25959465Y-7521114D01*
X25944000Y-7534243D01*
X25931743Y-7550407D01*
X25921210Y-7553592D01*
X25912822Y-7560714D01*
X25892593Y-7562246D01*
X25873177Y-7568118D01*
X25862783Y-7564503D01*
X25851812Y-7565335D01*
X25815386Y-7548022D01*
X25770680Y-7514120D01*
X25735738Y-7463894D01*
X25731500Y-7435237D01*
X25731500Y-7141500D01*
X25750407Y-7083309D01*
X25799907Y-7047345D01*
X25830500Y-7042500D01*
X25838273Y-7042500D01*
X25838273Y-7042499D01*
X25868699Y-7039646D01*
X25996882Y-6994793D01*
X26106150Y-6914150D01*
X26186793Y-6804882D01*
X26231646Y-6676699D01*
X26234499Y-6646273D01*
X26234500Y-6646273D01*
X26234500Y-6237727D01*
X26234499Y-6237725D01*
X26231646Y-6207301D01*
X26186793Y-6079118D01*
X26182783Y-6073685D01*
X26106154Y-5969855D01*
X26106152Y-5969853D01*
X26106150Y-5969850D01*
X26106146Y-5969847D01*
X26106144Y-5969845D01*
X25993425Y-5886655D01*
X25957832Y-5836888D01*
X25958290Y-5775704D01*
X25993425Y-5727345D01*
X26075200Y-5666992D01*
X26106150Y-5644150D01*
X26186793Y-5534882D01*
X26231646Y-5406699D01*
X26234499Y-5376273D01*
X26234500Y-5376273D01*
X26234500Y-4967727D01*
X26234499Y-4967725D01*
X26231646Y-4937301D01*
X26186793Y-4809118D01*
X26117514Y-4715248D01*
X26106154Y-4699855D01*
X26106152Y-4699853D01*
X26106150Y-4699850D01*
X26106146Y-4699847D01*
X26106144Y-4699845D01*
X25993425Y-4616655D01*
X25957832Y-4566888D01*
X25958290Y-4505704D01*
X25993425Y-4457345D01*
X26078579Y-4394498D01*
X26106150Y-4374150D01*
X26186793Y-4264882D01*
X26231646Y-4136699D01*
X26234499Y-4106273D01*
X26234500Y-4106273D01*
X26234500Y-3697727D01*
X26234499Y-3697725D01*
X26231646Y-3667301D01*
X26186793Y-3539118D01*
X26186328Y-3538488D01*
X26128495Y-3460126D01*
X26109153Y-3402078D01*
X26127624Y-3343748D01*
X26157755Y-3316125D01*
X26185552Y-3299685D01*
X26301685Y-3183552D01*
X26385280Y-3042201D01*
X26385280Y-3042200D01*
X26431100Y-2884489D01*
X26434000Y-2847636D01*
X26434000Y-2832001D01*
X26433999Y-2832000D01*
X23463215Y-2832000D01*
X23451064Y-2838190D01*
X23390633Y-2828615D01*
X23347371Y-2785347D01*
X23337151Y-2750987D01*
X23336842Y-2748117D01*
X23334091Y-2722517D01*
X23334089Y-2722511D01*
X23283797Y-2587670D01*
X23198511Y-2473743D01*
X23197549Y-2472458D01*
X23197548Y-2472457D01*
X23197546Y-2472454D01*
X23190331Y-2467053D01*
X23122618Y-2416363D01*
X23484000Y-2416363D01*
X23484000Y-2431999D01*
X23484001Y-2432000D01*
X24758999Y-2432000D01*
X24759000Y-2431999D01*
X24759000Y-1832001D01*
X25159000Y-1832001D01*
X25159000Y-2431999D01*
X25159001Y-2432000D01*
X26433999Y-2432000D01*
X26434000Y-2431999D01*
X26434000Y-2416363D01*
X26431100Y-2379510D01*
X26385280Y-2221799D01*
X26385280Y-2221798D01*
X26301685Y-2080447D01*
X26185552Y-1964314D01*
X26044200Y-1880719D01*
X25886489Y-1834899D01*
X25849637Y-1832000D01*
X25159001Y-1832000D01*
X25159000Y-1832001D01*
X24759000Y-1832001D01*
X24758999Y-1832000D01*
X24068363Y-1832000D01*
X24031510Y-1834899D01*
X23873799Y-1880719D01*
X23873798Y-1880719D01*
X23732447Y-1964314D01*
X23616314Y-2080447D01*
X23532719Y-2221798D01*
X23532719Y-2221799D01*
X23486899Y-2379510D01*
X23484000Y-2416363D01*
X23122618Y-2416363D01*
X23083941Y-2387409D01*
X23048688Y-2337400D01*
X23049562Y-2276221D01*
X23086229Y-2227240D01*
X23108676Y-2215397D01*
X23113695Y-2213525D01*
X23118331Y-2211796D01*
X23233546Y-2125546D01*
X23319796Y-2010331D01*
X23322716Y-2002504D01*
X23370089Y-1875488D01*
X23370088Y-1875488D01*
X23370091Y-1875483D01*
X23376500Y-1815873D01*
X23376499Y-1320128D01*
X23370091Y-1260517D01*
X23363238Y-1242142D01*
X23319797Y-1125670D01*
X23233549Y-1010458D01*
X23233548Y-1010457D01*
X23233546Y-1010454D01*
X23217805Y-998670D01*
X23118329Y-924202D01*
X22983488Y-873910D01*
X22983483Y-873909D01*
X22983481Y-873908D01*
X22983477Y-873908D01*
X22952249Y-870550D01*
X22923873Y-867500D01*
X22923870Y-867500D01*
X22278133Y-867500D01*
X22278129Y-867500D01*
X22278128Y-867501D01*
X22270949Y-868272D01*
X22218519Y-873908D01*
X22218514Y-873909D01*
X22083670Y-924202D01*
X21971182Y-1008411D01*
X21913267Y-1028148D01*
X21886231Y-1024785D01*
X21769475Y-993500D01*
X21624525Y-993500D01*
X21596200Y-1001089D01*
X21552021Y-1012927D01*
X21490920Y-1009724D01*
X21461346Y-990519D01*
X21461214Y-990697D01*
X21458557Y-988707D01*
X21456395Y-987304D01*
X21455548Y-986457D01*
X21455546Y-986454D01*
X21452263Y-983996D01*
X21340329Y-900202D01*
X21205488Y-849910D01*
X21205483Y-849909D01*
X21205481Y-849908D01*
X21205477Y-849908D01*
X21174249Y-846550D01*
X21145873Y-843500D01*
X21145870Y-843500D01*
X20500133Y-843500D01*
X20500129Y-843500D01*
X20500128Y-843501D01*
X20492949Y-844272D01*
X20440519Y-849908D01*
X20440514Y-849909D01*
X20305670Y-900202D01*
X20190458Y-986450D01*
X20190450Y-986458D01*
X20104202Y-1101670D01*
X20053910Y-1236511D01*
X20053908Y-1236522D01*
X20051288Y-1260895D01*
X20047799Y-1293352D01*
X20047500Y-1296129D01*
X20047500Y-1791866D01*
X20047501Y-1791878D01*
X20048994Y-1805766D01*
X20036413Y-1865644D01*
X19991039Y-1906691D01*
X19930203Y-1913228D01*
X19901059Y-1902079D01*
X19897488Y-1900017D01*
X19897485Y-1900016D01*
X19757475Y-1862500D01*
X19612525Y-1862500D01*
X19564054Y-1875488D01*
X19472510Y-1900017D01*
X19388400Y-1948579D01*
X19328552Y-1961301D01*
X19272656Y-1936414D01*
X19242063Y-1883426D01*
X19239900Y-1862843D01*
X19239900Y301619D01*
X19236106Y315775D01*
X19232329Y329872D01*
X19210903Y409837D01*
X19194363Y438485D01*
X19154885Y506863D01*
X19075663Y586085D01*
X19075660Y586087D01*
X18091065Y1570682D01*
X17084696Y2577052D01*
X17056919Y2631569D01*
X17055700Y2647056D01*
X17055700Y4352717D01*
X17074607Y4410908D01*
X17110168Y4438934D01*
X17109302Y4440554D01*
X17113581Y4442842D01*
X17113588Y4442844D01*
X17280731Y4554526D01*
X17422874Y4696669D01*
X17534556Y4863812D01*
X17611483Y5049531D01*
X17650700Y5246689D01*
X17650700Y5447711D01*
X17650699Y5447714D01*
X18657700Y5447714D01*
X18657700Y5246687D01*
X18696917Y5049532D01*
X18696917Y5049530D01*
X18773842Y4863815D01*
X18773842Y4863814D01*
X18885525Y4696670D01*
X18971504Y4610691D01*
X18999281Y4556174D01*
X19000500Y4540687D01*
X19000500Y2414739D01*
X18987236Y2365239D01*
X18913017Y2236690D01*
X18879230Y2110594D01*
X18875500Y2096675D01*
X18875500Y1951725D01*
X18898357Y1866421D01*
X18913017Y1811711D01*
X18985487Y1686190D01*
X18985489Y1686188D01*
X18985491Y1686185D01*
X19087985Y1583691D01*
X19087987Y1583690D01*
X19087989Y1583688D01*
X19213511Y1511218D01*
X19213512Y1511218D01*
X19213515Y1511216D01*
X19353525Y1473700D01*
X19353526Y1473700D01*
X19498474Y1473700D01*
X19498475Y1473700D01*
X19638485Y1511216D01*
X19638487Y1511218D01*
X19638489Y1511218D01*
X19764010Y1583688D01*
X19764010Y1583689D01*
X19764015Y1583691D01*
X19866509Y1686185D01*
X19866512Y1686190D01*
X19938982Y1811711D01*
X19938982Y1811713D01*
X19938984Y1811715D01*
X19976500Y1951725D01*
X19976500Y2096675D01*
X19938984Y2236685D01*
X19938982Y2236688D01*
X19938982Y2236690D01*
X19864764Y2365239D01*
X19851500Y2414739D01*
X19851500Y4259932D01*
X19870407Y4318123D01*
X19919907Y4354087D01*
X19931181Y4357029D01*
X19975869Y4365917D01*
X20161588Y4442844D01*
X20328731Y4554526D01*
X20470874Y4696669D01*
X20582556Y4863812D01*
X20659483Y5049531D01*
X20698700Y5246689D01*
X20698700Y5447711D01*
X20659483Y5644869D01*
X20582557Y5830586D01*
X20582557Y5830587D01*
X20470874Y5997731D01*
X20328730Y6139875D01*
X20161585Y6251558D01*
X19975869Y6328483D01*
X19778713Y6367700D01*
X19778711Y6367700D01*
X19577689Y6367700D01*
X19577686Y6367700D01*
X19380531Y6328483D01*
X19380529Y6328483D01*
X19194814Y6251558D01*
X19194813Y6251558D01*
X19027669Y6139875D01*
X18885525Y5997731D01*
X18773842Y5830587D01*
X18773842Y5830586D01*
X18696917Y5644871D01*
X18696917Y5644869D01*
X18657700Y5447714D01*
X17650699Y5447714D01*
X17611483Y5644869D01*
X17534557Y5830586D01*
X17534557Y5830587D01*
X17422874Y5997731D01*
X17280730Y6139875D01*
X17113585Y6251558D01*
X16927869Y6328483D01*
X16730713Y6367700D01*
X16730711Y6367700D01*
X16529689Y6367700D01*
X16529686Y6367700D01*
X16332531Y6328483D01*
X16332529Y6328483D01*
X16146814Y6251558D01*
X16146813Y6251558D01*
X15979669Y6139875D01*
X15837525Y5997731D01*
X15725842Y5830587D01*
X15725842Y5830586D01*
X15648917Y5644871D01*
X15648917Y5644869D01*
X15609700Y5447714D01*
X15609700Y5246687D01*
X15648917Y5049532D01*
X15648917Y5049530D01*
X15725842Y4863815D01*
X15725842Y4863814D01*
X15837525Y4696670D01*
X15979669Y4554526D01*
X16146805Y4442848D01*
X16151098Y4440554D01*
X16150071Y4438634D01*
X16190098Y4404467D01*
X16204700Y4352717D01*
X16204700Y2485818D01*
X16204700Y2373782D01*
X16227296Y2289451D01*
X16233698Y2265559D01*
X16277945Y2188923D01*
X16289715Y2168537D01*
X17366162Y1092091D01*
X18359904Y98349D01*
X18387681Y43832D01*
X18388900Y28345D01*
X18388900Y-633340D01*
X18369993Y-691531D01*
X18320493Y-727495D01*
X18260448Y-727857D01*
X18153113Y-694410D01*
X18153104Y-694408D01*
X18082581Y-688000D01*
X17951001Y-688000D01*
X17951000Y-688001D01*
X17951000Y-1489000D01*
X17932093Y-1547191D01*
X17882593Y-1583155D01*
X17852000Y-1588000D01*
X17751001Y-1588000D01*
X17751000Y-1588001D01*
X17751000Y-1689000D01*
X17732093Y-1747191D01*
X17682593Y-1783155D01*
X17652000Y-1788000D01*
X16776001Y-1788000D01*
X16768183Y-1795818D01*
X16713666Y-1823594D01*
X16653234Y-1814022D01*
X16618927Y-1785142D01*
X16548690Y-1691317D01*
X16548689Y-1691316D01*
X16548687Y-1691313D01*
X16482243Y-1641574D01*
X16439228Y-1609373D01*
X16439226Y-1609372D01*
X16311114Y-1561588D01*
X16311113Y-1561587D01*
X16272895Y-1557479D01*
X16254485Y-1555500D01*
X16254481Y-1555500D01*
X15813521Y-1555500D01*
X15813515Y-1555501D01*
X15756888Y-1561587D01*
X15756886Y-1561588D01*
X15643096Y-1604030D01*
X15640885Y-1604124D01*
X15639093Y-1605427D01*
X15610503Y-1605427D01*
X15581968Y-1606650D01*
X15580123Y-1605427D01*
X15577907Y-1605427D01*
X15554780Y-1588624D01*
X15530973Y-1572840D01*
X15530199Y-1570765D01*
X15528407Y-1569463D01*
X15519575Y-1542281D01*
X15509591Y-1515512D01*
X15509500Y-1511272D01*
X15509500Y-1331418D01*
X16776000Y-1331418D01*
X16776000Y-1387999D01*
X16776001Y-1388000D01*
X17550999Y-1388000D01*
X17551000Y-1387999D01*
X17551000Y-688001D01*
X17550999Y-688000D01*
X17419433Y-688000D01*
X17419417Y-688001D01*
X17348896Y-694408D01*
X17348890Y-694410D01*
X17186607Y-744979D01*
X17186599Y-744982D01*
X17041127Y-832924D01*
X16920924Y-953127D01*
X16832982Y-1098599D01*
X16832979Y-1098607D01*
X16782410Y-1260889D01*
X16782408Y-1260895D01*
X16776000Y-1331418D01*
X15509500Y-1331418D01*
X15509500Y-623736D01*
X15528407Y-565545D01*
X15553500Y-541420D01*
X15558923Y-537797D01*
X15623289Y-494789D01*
X15734789Y-383289D01*
X15822394Y-252179D01*
X15882737Y-106497D01*
X15913500Y48158D01*
X15913500Y205842D01*
X15882737Y360497D01*
X15846268Y448541D01*
X15822396Y506175D01*
X15822390Y506186D01*
X15769188Y585807D01*
X15734789Y637289D01*
X15623289Y748789D01*
X15563042Y789045D01*
X15492185Y836391D01*
X15492174Y836397D01*
X15346497Y896737D01*
X15191844Y927500D01*
X15191842Y927500D01*
X15034158Y927500D01*
X15034155Y927500D01*
X14879503Y896737D01*
X14879501Y896737D01*
X14733825Y836397D01*
X14733814Y836391D01*
X14602711Y748789D01*
X14602707Y748786D01*
X14491214Y637293D01*
X14491211Y637289D01*
X14403609Y506186D01*
X14403603Y506175D01*
X14343263Y360499D01*
X14343263Y360497D01*
X14312500Y205845D01*
X14312500Y48156D01*
X14316109Y30013D01*
X14335851Y-69237D01*
X14343263Y-106496D01*
X14343263Y-106498D01*
X14403603Y-252174D01*
X14403609Y-252185D01*
X14447920Y-318500D01*
X14491211Y-383289D01*
X14602711Y-494789D01*
X14614502Y-502668D01*
X14652381Y-550717D01*
X14658500Y-584982D01*
X14658500Y-1298350D01*
X14639593Y-1356541D01*
X14590093Y-1392505D01*
X14530048Y-1392868D01*
X14431564Y-1362179D01*
X14363564Y-1356000D01*
X14334001Y-1356000D01*
X14334000Y-1356001D01*
X14334000Y-3355998D01*
X14334001Y-3355999D01*
X14363550Y-3355999D01*
X14363566Y-3355998D01*
X14431564Y-3349820D01*
X14431570Y-3349818D01*
X14530047Y-3319132D01*
X14591228Y-3319871D01*
X14640290Y-3356430D01*
X14658500Y-3413649D01*
X14658500Y-3974992D01*
X14639593Y-4033183D01*
X14618829Y-4054245D01*
X14569311Y-4091313D01*
X14487373Y-4200771D01*
X14439587Y-4328887D01*
X14437424Y-4349011D01*
X14434026Y-4380627D01*
X14433500Y-4385518D01*
X14433500Y-5126478D01*
X14433501Y-5126484D01*
X14439587Y-5183111D01*
X14439587Y-5183112D01*
X14439588Y-5183114D01*
X14486292Y-5308330D01*
X14487373Y-5311228D01*
X14511660Y-5343671D01*
X14531397Y-5401586D01*
X14513323Y-5460041D01*
X14464341Y-5496708D01*
X14432408Y-5502000D01*
X14289677Y-5502000D01*
X14190402Y-5512142D01*
X14190390Y-5512145D01*
X14029512Y-5565454D01*
X13885270Y-5654425D01*
X13765425Y-5774270D01*
X13676454Y-5918512D01*
X13623143Y-6079396D01*
X13613000Y-6178676D01*
X13613000Y-6276999D01*
X13613001Y-6277000D01*
X14464000Y-6277000D01*
X14522191Y-6295907D01*
X14558155Y-6345407D01*
X14563000Y-6376000D01*
X14563000Y-6578000D01*
X14544093Y-6636191D01*
X14494593Y-6672155D01*
X14464000Y-6677000D01*
X13613002Y-6677000D01*
X13613001Y-6677001D01*
X13613001Y-6775322D01*
X13623142Y-6874597D01*
X13623145Y-6874609D01*
X13676455Y-7035489D01*
X13678892Y-7040716D01*
X13676510Y-7041826D01*
X13688471Y-7090949D01*
X13665239Y-7147552D01*
X13613173Y-7179690D01*
X13589752Y-7182500D01*
X13330437Y-7182500D01*
X13272246Y-7163593D01*
X13236282Y-7114093D01*
X13232143Y-7095305D01*
X13230702Y-7083309D01*
X13229877Y-7076436D01*
X13223950Y-7061407D01*
X13174362Y-6935660D01*
X13174361Y-6935659D01*
X13174361Y-6935658D01*
X13082922Y-6815078D01*
X12962342Y-6723639D01*
X12962341Y-6723638D01*
X12962339Y-6723637D01*
X12815659Y-6665794D01*
X12816234Y-6664335D01*
X12798675Y-6651579D01*
X12775434Y-6636940D01*
X12774167Y-6633772D01*
X12771407Y-6631767D01*
X12762916Y-6605636D01*
X12752717Y-6580128D01*
X12752500Y-6573576D01*
X12752500Y-6471955D01*
X12768793Y-6421807D01*
X12767143Y-6420880D01*
X12770464Y-6414973D01*
X12797897Y-6345407D01*
X12823458Y-6280590D01*
X12833599Y-6196144D01*
X12833599Y-5613856D01*
X12823458Y-5529410D01*
X12795548Y-5458636D01*
X12770464Y-5395027D01*
X12770463Y-5395026D01*
X12770463Y-5395025D01*
X12683177Y-5279922D01*
X12662185Y-5264003D01*
X12622779Y-5234120D01*
X12587837Y-5183894D01*
X12583599Y-5155237D01*
X12583599Y-4817950D01*
X12590502Y-4781631D01*
X12610813Y-4730126D01*
X12625359Y-4693241D01*
X12635500Y-4608795D01*
X12635500Y-3676507D01*
X12625359Y-3592061D01*
X12589647Y-3501503D01*
X12572363Y-3457673D01*
X12556616Y-3436908D01*
X12536521Y-3379117D01*
X12536500Y-3377089D01*
X12536500Y-2556001D01*
X13284001Y-2556001D01*
X13284001Y-2735566D01*
X13290179Y-2803564D01*
X13290181Y-2803573D01*
X13338942Y-2960054D01*
X13338948Y-2960068D01*
X13423745Y-3100339D01*
X13539660Y-3216254D01*
X13679931Y-3301051D01*
X13679945Y-3301057D01*
X13836431Y-3349819D01*
X13904440Y-3355999D01*
X13934000Y-3355999D01*
X13934000Y-2556001D01*
X13933999Y-2556000D01*
X13284002Y-2556000D01*
X13284001Y-2556001D01*
X12536500Y-2556001D01*
X12536500Y-1976435D01*
X13284000Y-1976435D01*
X13284000Y-2155999D01*
X13284001Y-2156000D01*
X13933999Y-2156000D01*
X13934000Y-2155999D01*
X13934000Y-1356000D01*
X13904450Y-1356000D01*
X13904432Y-1356001D01*
X13836435Y-1362179D01*
X13836426Y-1362181D01*
X13679945Y-1410942D01*
X13679931Y-1410948D01*
X13539660Y-1495745D01*
X13423745Y-1611660D01*
X13338948Y-1751931D01*
X13338942Y-1751945D01*
X13290180Y-1908431D01*
X13284000Y-1976435D01*
X12536500Y-1976435D01*
X12536500Y1500678D01*
X12555407Y1558869D01*
X12565496Y1570682D01*
X12805318Y1810504D01*
X12859835Y1838281D01*
X12875322Y1839500D01*
X12895992Y1839500D01*
X12895993Y1839500D01*
X13031328Y1866420D01*
X13158811Y1919225D01*
X13273542Y1995886D01*
X13371114Y2093458D01*
X13447775Y2208189D01*
X13500580Y2335672D01*
X13527500Y2471007D01*
X13527500Y2608993D01*
X13500580Y2744328D01*
X13455356Y2853509D01*
X13447777Y2871807D01*
X13447771Y2871818D01*
X13371114Y2986542D01*
X13273541Y3084115D01*
X13158817Y3160772D01*
X13158806Y3160778D01*
X13031328Y3213580D01*
X12895995Y3240500D01*
X12895993Y3240500D01*
X12758007Y3240500D01*
X12758004Y3240500D01*
X12622672Y3213580D01*
X12622670Y3213580D01*
X12495193Y3160778D01*
X12495182Y3160772D01*
X12380458Y3084115D01*
X12282885Y2986542D01*
X12206228Y2871818D01*
X12206222Y2871807D01*
X12153420Y2744330D01*
X12153420Y2744328D01*
X12126500Y2608996D01*
X12126500Y2588322D01*
X12107593Y2530131D01*
X12097504Y2518318D01*
X11728686Y2149500D01*
X11728685Y2149501D01*
X11635500Y2056315D01*
X11635496Y2056310D01*
X11569609Y1942191D01*
X11560766Y1909186D01*
X11539587Y1830143D01*
X11535500Y1814891D01*
X11535500Y362445D01*
X11516593Y304254D01*
X11467093Y268290D01*
X11405907Y268290D01*
X11384385Y278272D01*
X11361857Y292221D01*
X11251500Y312849D01*
X9518500Y312849D01*
X9518495Y312849D01*
X9490316Y311547D01*
X9490312Y311546D01*
X9382326Y280821D01*
X9292733Y213164D01*
X9292731Y213161D01*
X9233629Y117708D01*
X9213000Y7350D01*
X9213000Y-2893651D01*
X9194093Y-2951842D01*
X9144593Y-2987806D01*
X9114000Y-2992651D01*
X9085001Y-2992651D01*
X9085000Y-2992652D01*
X9085000Y-4043651D01*
X9066093Y-4101842D01*
X9016593Y-4137806D01*
X8986000Y-4142651D01*
X8885001Y-4142651D01*
X8885000Y-4142652D01*
X8885000Y-4243651D01*
X8866093Y-4301842D01*
X8816593Y-4337806D01*
X8786000Y-4342651D01*
X7935002Y-4342651D01*
X7935001Y-4342652D01*
X7935001Y-4615973D01*
X7945142Y-4715248D01*
X7945145Y-4715260D01*
X7998454Y-4876138D01*
X8087425Y-5020380D01*
X8207270Y-5140225D01*
X8351512Y-5229196D01*
X8456553Y-5264003D01*
X8505843Y-5300254D01*
X8524411Y-5358554D01*
X8505166Y-5416634D01*
X8480454Y-5440267D01*
X8471617Y-5446177D01*
X8440025Y-5458636D01*
X8343076Y-5532155D01*
X8340626Y-5533794D01*
X8313867Y-5541354D01*
X8287613Y-5550484D01*
X8284336Y-5549699D01*
X8281746Y-5550431D01*
X8271245Y-5546562D01*
X8242476Y-5539670D01*
X8242305Y-5540086D01*
X8239692Y-5539003D01*
X8238925Y-5538820D01*
X8237809Y-5538224D01*
X8110328Y-5485420D01*
X7974995Y-5458500D01*
X7974993Y-5458500D01*
X7837007Y-5458500D01*
X7837004Y-5458500D01*
X7701672Y-5485420D01*
X7701670Y-5485420D01*
X7574193Y-5538222D01*
X7574182Y-5538228D01*
X7459458Y-5614885D01*
X7361885Y-5712458D01*
X7285228Y-5827182D01*
X7285222Y-5827193D01*
X7232420Y-5954670D01*
X7232420Y-5954672D01*
X7205500Y-6090004D01*
X6827300Y-6090004D01*
X6827300Y-5055762D01*
X6846207Y-4997571D01*
X6866481Y-4976878D01*
X6926878Y-4931078D01*
X7014164Y-4815975D01*
X7067159Y-4681590D01*
X7077300Y-4597144D01*
X7077300Y-3669327D01*
X7935000Y-3669327D01*
X7935000Y-3942650D01*
X7935001Y-3942651D01*
X8684999Y-3942651D01*
X8685000Y-3942650D01*
X8685000Y-2992650D01*
X8611678Y-2992651D01*
X8611677Y-2992652D01*
X8512402Y-3002793D01*
X8512390Y-3002796D01*
X8351512Y-3056105D01*
X8207270Y-3145076D01*
X8087425Y-3264921D01*
X7998454Y-3409163D01*
X7945143Y-3570047D01*
X7935000Y-3669327D01*
X7077300Y-3669327D01*
X7077300Y-3664856D01*
X7067159Y-3580410D01*
X7027117Y-3478872D01*
X7014165Y-3446027D01*
X7014164Y-3446026D01*
X7014164Y-3446025D01*
X6926878Y-3330922D01*
X6911878Y-3319547D01*
X6903490Y-3307490D01*
X6891607Y-3298856D01*
X6886456Y-3283003D01*
X6876938Y-3269321D01*
X6872700Y-3240665D01*
X6872700Y-3073362D01*
X6891607Y-3015171D01*
X6911881Y-2994478D01*
X6914289Y-2992652D01*
X6972278Y-2948678D01*
X7059564Y-2833575D01*
X7112559Y-2699190D01*
X7122700Y-2614744D01*
X7122700Y-2032456D01*
X7112559Y-1948010D01*
X7068682Y-1836746D01*
X7060164Y-1815146D01*
X7053261Y-1778827D01*
X7053261Y-1606660D01*
X7072168Y-1548469D01*
X7121668Y-1512505D01*
X7128002Y-1510678D01*
X7131958Y-1509677D01*
X7131964Y-1509677D01*
X7272742Y-1454161D01*
X7393322Y-1362722D01*
X7484761Y-1242142D01*
X7540277Y-1101364D01*
X7550900Y-1012902D01*
X7550900Y23302D01*
X7540277Y111764D01*
X7499794Y214421D01*
X7484762Y252540D01*
X7484761Y252541D01*
X7484761Y252542D01*
X7393322Y373122D01*
X7272742Y464561D01*
X7272741Y464562D01*
X7272739Y464563D01*
X7131965Y520077D01*
X7043506Y530700D01*
X7043502Y530700D01*
X6457298Y530700D01*
X6457293Y530700D01*
X6368834Y520077D01*
X6228060Y464563D01*
X6228056Y464560D01*
X6107481Y373125D01*
X6107475Y373119D01*
X6016040Y252544D01*
X6016038Y252542D01*
X5998963Y209241D01*
X5960026Y162044D01*
X5900784Y146748D01*
X5843864Y169195D01*
X5812891Y214421D01*
X5784756Y299325D01*
X5692719Y448541D01*
X5568740Y572520D01*
X5419524Y664557D01*
X5253093Y719707D01*
X5150387Y730200D01*
X5050401Y730200D01*
X5050400Y730199D01*
X5050400Y-1755593D01*
X5047931Y-1763190D01*
X5049181Y-1771080D01*
X5038656Y-1791735D01*
X5031493Y-1813784D01*
X5022200Y-1824664D01*
X4622200Y-1824664D01*
X4622200Y-1312807D01*
X4641107Y-1254616D01*
X4650400Y-1243735D01*
X4650400Y-694801D01*
X4650399Y-694800D01*
X3799407Y-694800D01*
X3759396Y-681800D01*
X2285402Y-681800D01*
X2285401Y-681801D01*
X1350000Y-681801D01*
X1350000Y-208476D01*
X2285400Y-208476D01*
X2285400Y-281799D01*
X2285401Y-281800D01*
X3060399Y-281800D01*
X3060400Y-281799D01*
X3060400Y468199D01*
X3460400Y468199D01*
X3460400Y-281799D01*
X3460401Y-281800D01*
X4286393Y-281800D01*
X4326404Y-294800D01*
X4650399Y-294800D01*
X4650400Y-294799D01*
X4650400Y730200D01*
X4550413Y730200D01*
X4550413Y730199D01*
X4447712Y719708D01*
X4447700Y719705D01*
X4281275Y664557D01*
X4132059Y572520D01*
X4008082Y448543D01*
X3988341Y416539D01*
X3941699Y376939D01*
X3880688Y372318D01*
X3852109Y384254D01*
X3818887Y404746D01*
X3658003Y458057D01*
X3558723Y468200D01*
X3460401Y468200D01*
X3460400Y468199D01*
X3060400Y468199D01*
X3060400Y468200D01*
X2962077Y468200D01*
X2962077Y468199D01*
X2862802Y458058D01*
X2862790Y458055D01*
X2701912Y404746D01*
X2557670Y315775D01*
X2437825Y195930D01*
X2348854Y51688D01*
X2295543Y-109196D01*
X2285400Y-208476D01*
X1350000Y-208476D01*
X1350000Y-200001D01*
X1349999Y-200000D01*
X461880Y-200000D01*
X465925Y-192993D01*
X500000Y-65826D01*
X500000Y65826D01*
X465925Y192993D01*
X461880Y200000D01*
X1349999Y200000D01*
X1350000Y200001D01*
X1350000Y897825D01*
X1343598Y957371D01*
X1343596Y957382D01*
X1293353Y1092089D01*
X1293352Y1092091D01*
X1207192Y1207185D01*
X1207184Y1207193D01*
X1092090Y1293353D01*
X1092088Y1293354D01*
X957381Y1343597D01*
X957370Y1343599D01*
X897824Y1350000D01*
X200001Y1350000D01*
X200000Y1349999D01*
X200000Y461880D01*
X192993Y465925D01*
X65826Y500000D01*
X-65826Y500000D01*
X-192993Y465925D01*
X-200000Y461880D01*
X-200000Y1321888D01*
X-293107Y1356063D01*
X-304004Y1364625D01*
X-317185Y1368907D01*
X-327468Y1383060D01*
X-341219Y1393864D01*
X-345003Y1407194D01*
X-353149Y1418407D01*
X-353149Y1435901D01*
X-357924Y1452725D01*
X-353149Y1465734D01*
X-353149Y1479593D01*
X-340464Y1500294D01*
X-336841Y1510163D01*
X-332725Y1512924D01*
X-328998Y1519004D01*
X154071Y2002073D01*
X1640485Y3488487D01*
X1696503Y3585513D01*
X1725500Y3693732D01*
X1725500Y3805769D01*
X1725500Y5447714D01*
X2401700Y5447714D01*
X2401700Y5246687D01*
X2440917Y5049532D01*
X2440917Y5049530D01*
X2517842Y4863815D01*
X2517842Y4863814D01*
X2629273Y4697047D01*
X2629526Y4696669D01*
X2771669Y4554526D01*
X2938812Y4442844D01*
X2938813Y4442844D01*
X2938814Y4442843D01*
X2948976Y4438634D01*
X3124531Y4365917D01*
X3321689Y4326700D01*
X3321690Y4326700D01*
X3522710Y4326700D01*
X3522711Y4326700D01*
X3719869Y4365917D01*
X3719880Y4365922D01*
X3724519Y4367328D01*
X3725151Y4365243D01*
X3777599Y4369391D01*
X3824531Y4343121D01*
X6015915Y2151737D01*
X6015914Y2151737D01*
X6095136Y2072516D01*
X6095141Y2072512D01*
X6151908Y2039737D01*
X6151909Y2039737D01*
X6185044Y2020607D01*
X6192163Y2016497D01*
X6300381Y1987500D01*
X6300382Y1987500D01*
X6721461Y1987500D01*
X6770961Y1974236D01*
X6899511Y1900018D01*
X6899512Y1900018D01*
X6899515Y1900016D01*
X7039525Y1862500D01*
X7039526Y1862500D01*
X7184474Y1862500D01*
X7184475Y1862500D01*
X7324485Y1900016D01*
X7324487Y1900018D01*
X7324489Y1900018D01*
X7450010Y1972488D01*
X7450010Y1972489D01*
X7450015Y1972491D01*
X7552509Y2074985D01*
X7557754Y2084069D01*
X7624982Y2200511D01*
X7624982Y2200513D01*
X7624984Y2200515D01*
X7662500Y2340525D01*
X7662500Y2485475D01*
X7624984Y2625485D01*
X7624982Y2625488D01*
X7624982Y2625490D01*
X7552512Y2751011D01*
X7552510Y2751013D01*
X7552509Y2751015D01*
X7450015Y2853509D01*
X7450012Y2853511D01*
X7450010Y2853513D01*
X7324488Y2925983D01*
X7324489Y2925983D01*
X7294896Y2933913D01*
X7184475Y2963500D01*
X7039525Y2963500D01*
X6977790Y2946959D01*
X6899510Y2925983D01*
X6770961Y2851764D01*
X6721461Y2838500D01*
X6573656Y2838500D01*
X6515465Y2857407D01*
X6503652Y2867496D01*
X4426279Y4944869D01*
X4398502Y4999386D01*
X4403832Y5044347D01*
X4402072Y5044881D01*
X4403478Y5049520D01*
X4403483Y5049531D01*
X4442700Y5246689D01*
X4442700Y5447711D01*
X4403483Y5644869D01*
X4326557Y5830586D01*
X4326557Y5830587D01*
X4214874Y5997731D01*
X4072730Y6139875D01*
X3905585Y6251558D01*
X3719869Y6328483D01*
X3522713Y6367700D01*
X3522711Y6367700D01*
X3321689Y6367700D01*
X3321686Y6367700D01*
X3124531Y6328483D01*
X3124529Y6328483D01*
X2938814Y6251558D01*
X2938813Y6251558D01*
X2771669Y6139875D01*
X2629525Y5997731D01*
X2517842Y5830587D01*
X2517842Y5830586D01*
X2440917Y5644871D01*
X2440917Y5644869D01*
X2401700Y5447714D01*
X1725500Y5447714D01*
X1725500Y6382744D01*
X1744407Y6440935D01*
X1754496Y6452748D01*
X2734452Y7432704D01*
X2788969Y7460481D01*
X2804456Y7461700D01*
X4967716Y7461700D01*
X5025907Y7442793D01*
X5053935Y7407243D01*
X5055549Y7408105D01*
X5057842Y7403814D01*
X5169525Y7236670D01*
X5169526Y7236669D01*
X5311669Y7094526D01*
X5478812Y6982844D01*
X5664531Y6905917D01*
X5861689Y6866700D01*
X5861690Y6866700D01*
X6062710Y6866700D01*
X6062711Y6866700D01*
X6259869Y6905917D01*
X6259880Y6905922D01*
X6264519Y6907328D01*
X6265151Y6905243D01*
X6317599Y6909391D01*
X6364531Y6883121D01*
X7498120Y5749532D01*
X7525897Y5695015D01*
X7520579Y5650058D01*
X7522330Y5649527D01*
X7520917Y5644870D01*
X7481700Y5447714D01*
X7481700Y5246687D01*
X7520917Y5049532D01*
X7520917Y5049530D01*
X7597842Y4863815D01*
X7597842Y4863814D01*
X7709273Y4697047D01*
X7709526Y4696669D01*
X7851669Y4554526D01*
X8018812Y4442844D01*
X8018813Y4442844D01*
X8018814Y4442843D01*
X8095913Y4410908D01*
X8204531Y4365917D01*
X8257814Y4355319D01*
X8311197Y4325423D01*
X8336814Y4269858D01*
X8337500Y4258221D01*
X8337500Y1355896D01*
X8318593Y1297705D01*
X8269093Y1261741D01*
X8264142Y1260275D01*
X8178715Y1237384D01*
X8178713Y1237384D01*
X8178709Y1237382D01*
X8053189Y1164913D01*
X7950687Y1062411D01*
X7878217Y936890D01*
X7848674Y826635D01*
X7840700Y796875D01*
X7840700Y651925D01*
X7861977Y572520D01*
X7878217Y511911D01*
X7950687Y386390D01*
X7950689Y386388D01*
X7950691Y386385D01*
X8053185Y283891D01*
X8053187Y283890D01*
X8053189Y283888D01*
X8178711Y211418D01*
X8178712Y211418D01*
X8178715Y211416D01*
X8318725Y173900D01*
X8318726Y173900D01*
X8463674Y173900D01*
X8463675Y173900D01*
X8603685Y211416D01*
X8603687Y211418D01*
X8603689Y211418D01*
X8729210Y283888D01*
X8729210Y283889D01*
X8729215Y283891D01*
X8831709Y386385D01*
X8831712Y386390D01*
X8904182Y511911D01*
X8904182Y511913D01*
X8904184Y511915D01*
X8941700Y651925D01*
X8941700Y651929D01*
X8942603Y655298D01*
X8968224Y699677D01*
X9103485Y834937D01*
X9146534Y909500D01*
X9159501Y931959D01*
X9159501Y931961D01*
X9159503Y931963D01*
X9188500Y1040182D01*
X9188500Y1152219D01*
X9188500Y4549287D01*
X9207407Y4607478D01*
X9217496Y4619291D01*
X9235362Y4637157D01*
X9294874Y4696669D01*
X9406556Y4863812D01*
X9483483Y5049531D01*
X9522700Y5246689D01*
X9522700Y5447711D01*
X9522699Y5447714D01*
X10529700Y5447714D01*
X10529700Y5246687D01*
X10568917Y5049532D01*
X10568917Y5049530D01*
X10645842Y4863815D01*
X10645842Y4863814D01*
X10757273Y4697047D01*
X10757526Y4696669D01*
X10899669Y4554526D01*
X11066812Y4442844D01*
X11066813Y4442844D01*
X11066814Y4442843D01*
X11076976Y4438634D01*
X11252531Y4365917D01*
X11449689Y4326700D01*
X11449690Y4326700D01*
X11650710Y4326700D01*
X11650711Y4326700D01*
X11847869Y4365917D01*
X12033588Y4442844D01*
X12200731Y4554526D01*
X12342874Y4696669D01*
X12454556Y4863812D01*
X12531483Y5049531D01*
X12570700Y5246689D01*
X12570700Y5447711D01*
X12531483Y5644869D01*
X12531479Y5644879D01*
X12530072Y5649519D01*
X12532146Y5650149D01*
X12528022Y5702655D01*
X12554277Y5749531D01*
X13687869Y6883123D01*
X13742384Y6910898D01*
X13787350Y6905580D01*
X13787881Y6907328D01*
X13792521Y6905921D01*
X13792531Y6905917D01*
X13989689Y6866700D01*
X13989690Y6866700D01*
X14190710Y6866700D01*
X14190711Y6866700D01*
X14387869Y6905917D01*
X14573588Y6982844D01*
X14740731Y7094526D01*
X14882874Y7236669D01*
X14994556Y7403812D01*
X14994557Y7403814D01*
X14996851Y7408105D01*
X14998765Y7407082D01*
X15032968Y7447118D01*
X15084684Y7461700D01*
X19385444Y7461700D01*
X19443635Y7442793D01*
X19455448Y7432704D01*
X21370148Y5518004D01*
X21397925Y5463487D01*
X21388354Y5403055D01*
X21345089Y5359790D01*
X21300144Y5349000D01*
X21193000Y5349000D01*
X21193000Y5348999D01*
X21193000Y3429500D01*
X21174093Y3371309D01*
X21124593Y3335345D01*
X21094000Y3330500D01*
X20810379Y3330500D01*
X20723920Y3320117D01*
X20586341Y3265862D01*
X20468503Y3176503D01*
X20468497Y3176497D01*
X20379138Y3058659D01*
X20324883Y2921080D01*
X20314500Y2834621D01*
X20314500Y2275380D01*
X20324883Y2188921D01*
X20373008Y2066886D01*
X20379138Y2051342D01*
X20468500Y1933500D01*
X20485317Y1920748D01*
X20520261Y1870522D01*
X20524500Y1841862D01*
X20524500Y898048D01*
X20505593Y839857D01*
X20456093Y803893D01*
X20446472Y801835D01*
X20446548Y801516D01*
X20440514Y800091D01*
X20305670Y749798D01*
X20190458Y663550D01*
X20190450Y663542D01*
X20104202Y548330D01*
X20053910Y413489D01*
X20053908Y413478D01*
X20050766Y384254D01*
X20048213Y360499D01*
X20047500Y353871D01*
X20047500Y-141866D01*
X20047501Y-141870D01*
X20053908Y-201480D01*
X20053909Y-201485D01*
X20104202Y-336329D01*
X20190450Y-451541D01*
X20190454Y-451546D01*
X20190457Y-451548D01*
X20190458Y-451549D01*
X20305670Y-537797D01*
X20440511Y-588089D01*
X20440512Y-588089D01*
X20440517Y-588091D01*
X20500127Y-594500D01*
X21145872Y-594499D01*
X21205483Y-588091D01*
X21330615Y-541420D01*
X21340329Y-537797D01*
X21340329Y-537796D01*
X21340331Y-537796D01*
X21373792Y-512746D01*
X21431706Y-493010D01*
X21433121Y-493000D01*
X21958819Y-493000D01*
X22017010Y-511907D01*
X22018109Y-512718D01*
X22043955Y-532066D01*
X22083670Y-561797D01*
X22218511Y-612089D01*
X22218512Y-612089D01*
X22218517Y-612091D01*
X22278127Y-618500D01*
X22923872Y-618499D01*
X22983483Y-612091D01*
X23056166Y-584982D01*
X23118329Y-561797D01*
X23118329Y-561796D01*
X23118331Y-561796D01*
X23233546Y-475546D01*
X23319796Y-360331D01*
X23322522Y-353024D01*
X23370089Y-225488D01*
X23370088Y-225488D01*
X23370091Y-225483D01*
X23376500Y-165873D01*
X23376499Y322996D01*
X24445500Y322996D01*
X24445500Y185005D01*
X24456442Y129999D01*
X24464528Y89345D01*
X24472420Y49673D01*
X24472420Y49671D01*
X24525222Y-77806D01*
X24525228Y-77817D01*
X24601885Y-192541D01*
X24699458Y-290114D01*
X24814182Y-366771D01*
X24814193Y-366777D01*
X24854055Y-383288D01*
X24941672Y-419580D01*
X25077007Y-446500D01*
X25097678Y-446500D01*
X25155869Y-465407D01*
X25167682Y-475496D01*
X25911686Y-1219500D01*
X25911688Y-1219501D01*
X25911689Y-1219502D01*
X25911690Y-1219503D01*
X26025810Y-1285390D01*
X26025808Y-1285390D01*
X26025812Y-1285391D01*
X26025814Y-1285392D01*
X26153107Y-1319500D01*
X26153108Y-1319500D01*
X27303479Y-1319500D01*
X27361670Y-1338407D01*
X27382362Y-1358680D01*
X27444581Y-1440728D01*
X27447122Y-1444078D01*
X27509818Y-1491622D01*
X27544760Y-1541847D01*
X27545626Y-1544882D01*
X27546700Y-1548890D01*
X27546700Y-1548892D01*
X27565645Y-1619595D01*
X27580809Y-1676190D01*
X27646696Y-1790309D01*
X27646698Y-1790311D01*
X27646700Y-1790314D01*
X28604505Y-2748119D01*
X28632281Y-2802634D01*
X28633500Y-2818121D01*
X28633500Y-2836274D01*
X28636353Y-2866694D01*
X28636355Y-2866703D01*
X28681207Y-2994883D01*
X28739505Y-3073874D01*
X28758847Y-3131922D01*
X28740376Y-3190252D01*
X28710245Y-3217875D01*
X28682447Y-3234314D01*
X28566314Y-3350447D01*
X28482719Y-3491798D01*
X28482719Y-3491799D01*
X28436899Y-3649510D01*
X28434000Y-3686363D01*
X28434000Y-3701999D01*
X28434001Y-3702000D01*
X31383999Y-3702000D01*
X31412250Y-3673749D01*
X31466766Y-3645971D01*
X31527198Y-3655542D01*
X31561507Y-3684423D01*
X31639450Y-3788541D01*
X31639454Y-3788546D01*
X31639457Y-3788548D01*
X31639458Y-3788549D01*
X31731829Y-3857698D01*
X31740464Y-3869948D01*
X31752593Y-3878760D01*
X31757651Y-3894328D01*
X31767082Y-3907706D01*
X31771500Y-3936951D01*
X31771500Y-4010049D01*
X31752593Y-4068240D01*
X31731829Y-4089302D01*
X31639458Y-4158450D01*
X31639450Y-4158458D01*
X31553204Y-4273667D01*
X31553203Y-4273668D01*
X31549467Y-4283686D01*
X31511415Y-4331599D01*
X31452467Y-4347995D01*
X31395140Y-4326611D01*
X31361331Y-4275615D01*
X31361641Y-4221465D01*
X31381100Y-4154488D01*
X31384000Y-4117636D01*
X31384000Y-4102001D01*
X31383999Y-4102000D01*
X28434001Y-4102000D01*
X28434000Y-4102001D01*
X28434000Y-4117636D01*
X28436899Y-4154489D01*
X28482719Y-4312200D01*
X28482719Y-4312201D01*
X28566314Y-4453552D01*
X28682446Y-4569684D01*
X28710245Y-4586125D01*
X28750707Y-4632022D01*
X28756464Y-4692936D01*
X28739505Y-4730126D01*
X28681206Y-4809118D01*
X28636355Y-4937296D01*
X28636353Y-4937305D01*
X28633500Y-4967725D01*
X28633500Y-5376274D01*
X28636353Y-5406694D01*
X28636355Y-5406703D01*
X28681207Y-5534883D01*
X28761845Y-5644144D01*
X28761847Y-5644146D01*
X28761850Y-5644150D01*
X28761853Y-5644152D01*
X28761855Y-5644154D01*
X28874574Y-5727345D01*
X28910167Y-5777113D01*
X28909709Y-5838296D01*
X28874574Y-5886655D01*
X28761855Y-5969845D01*
X28761845Y-5969855D01*
X28681207Y-6079116D01*
X28636355Y-6207296D01*
X28636353Y-6207305D01*
X28633500Y-6237725D01*
X28633500Y-6646274D01*
X28636353Y-6676694D01*
X28636355Y-6676703D01*
X28681207Y-6804883D01*
X28761845Y-6914144D01*
X28761847Y-6914146D01*
X28761850Y-6914150D01*
X28761853Y-6914152D01*
X28761855Y-6914154D01*
X28871116Y-6994792D01*
X28871117Y-6994792D01*
X28871118Y-6994793D01*
X28999301Y-7039646D01*
X29029725Y-7042499D01*
X29029727Y-7042500D01*
X29029734Y-7042500D01*
X30788273Y-7042500D01*
X30788273Y-7042499D01*
X30818699Y-7039646D01*
X30946882Y-6994793D01*
X31056150Y-6914150D01*
X31060902Y-6907710D01*
X31110671Y-6872119D01*
X31140557Y-6867500D01*
X31458944Y-6867500D01*
X31517135Y-6886407D01*
X31551041Y-6930181D01*
X31559634Y-6951971D01*
X31559636Y-6951975D01*
X31646922Y-7067078D01*
X31762025Y-7154364D01*
X31762027Y-7154365D01*
X31767421Y-7158455D01*
X31765913Y-7160442D01*
X31799929Y-7197375D01*
X31807010Y-7258150D01*
X31777017Y-7311479D01*
X31744546Y-7331417D01*
X31723666Y-7339204D01*
X31608458Y-7425450D01*
X31608450Y-7425458D01*
X31522202Y-7540670D01*
X31471910Y-7675511D01*
X31471908Y-7675522D01*
X31465500Y-7735129D01*
X31465500Y-8380866D01*
X31465501Y-8380870D01*
X31471908Y-8440480D01*
X31471909Y-8440485D01*
X31522202Y-8575329D01*
X31574606Y-8645331D01*
X31608454Y-8690546D01*
X31608457Y-8690548D01*
X31608458Y-8690549D01*
X31723670Y-8776797D01*
X31858511Y-8827089D01*
X31858512Y-8827089D01*
X31858517Y-8827091D01*
X31918127Y-8833500D01*
X32413872Y-8833499D01*
X32473483Y-8827091D01*
X32541075Y-8801881D01*
X32608329Y-8776797D01*
X32608329Y-8776796D01*
X32608331Y-8776796D01*
X32723546Y-8690546D01*
X32809796Y-8575331D01*
X32814749Y-8562053D01*
X32855090Y-8453892D01*
X32860091Y-8440483D01*
X32866500Y-8380873D01*
X32866499Y-7735128D01*
X32860091Y-7675517D01*
X32860089Y-7675511D01*
X32809797Y-7540670D01*
X32767680Y-7484409D01*
X32723546Y-7425454D01*
X32723544Y-7425453D01*
X32723544Y-7425452D01*
X32712168Y-7416935D01*
X32703533Y-7404685D01*
X32691407Y-7395875D01*
X32686347Y-7380304D01*
X32676917Y-7366925D01*
X32672500Y-7337684D01*
X32672500Y-7245196D01*
X32691407Y-7187005D01*
X32727043Y-7159407D01*
X32726073Y-7157682D01*
X32731972Y-7154365D01*
X32731971Y-7154365D01*
X32731975Y-7154364D01*
X32847078Y-7067078D01*
X32934364Y-6951975D01*
X32934367Y-6951966D01*
X32935705Y-6949590D01*
X32937253Y-6948163D01*
X32938455Y-6946579D01*
X32938739Y-6946794D01*
X32980704Y-6908133D01*
X33041478Y-6901044D01*
X33094811Y-6931030D01*
X33108295Y-6949590D01*
X33109633Y-6951969D01*
X33109634Y-6951970D01*
X33109636Y-6951975D01*
X33196922Y-7067078D01*
X33312025Y-7154364D01*
X33312026Y-7154364D01*
X33312027Y-7154365D01*
X33349131Y-7168997D01*
X33396328Y-7207934D01*
X33411625Y-7267176D01*
X33389179Y-7324095D01*
X33372141Y-7340347D01*
X33258458Y-7425450D01*
X33258450Y-7425458D01*
X33172202Y-7540670D01*
X33121910Y-7675511D01*
X33121908Y-7675522D01*
X33115500Y-7735129D01*
X33115500Y-8380866D01*
X33115501Y-8380870D01*
X33121908Y-8440480D01*
X33121909Y-8440485D01*
X33172202Y-8575329D01*
X33224606Y-8645331D01*
X33258454Y-8690546D01*
X33258457Y-8690548D01*
X33258458Y-8690549D01*
X33373670Y-8776797D01*
X33508511Y-8827089D01*
X33508512Y-8827089D01*
X33508517Y-8827091D01*
X33568127Y-8833500D01*
X34063872Y-8833499D01*
X34123483Y-8827091D01*
X34166765Y-8810948D01*
X34258329Y-8776797D01*
X34258329Y-8776796D01*
X34258331Y-8776796D01*
X34373546Y-8690546D01*
X34459796Y-8575331D01*
X34464749Y-8562053D01*
X34505090Y-8453892D01*
X34510091Y-8440483D01*
X34516500Y-8380873D01*
X34516499Y-8000254D01*
X34535406Y-7942064D01*
X34545489Y-7930257D01*
X35923260Y-6552486D01*
X35923263Y-6552485D01*
X36002485Y-6473263D01*
X36058503Y-6376237D01*
X36084088Y-6280753D01*
X36087500Y-6268019D01*
X36087500Y-6155982D01*
X36087500Y-390538D01*
X36100764Y-341038D01*
X36174982Y-212489D01*
X36174982Y-212487D01*
X36174984Y-212485D01*
X36212500Y-72475D01*
X36212500Y72475D01*
X36174984Y212485D01*
X36174982Y212488D01*
X36174982Y212490D01*
X36102512Y338011D01*
X36102510Y338013D01*
X36102509Y338015D01*
X36000015Y440509D01*
X36000012Y440511D01*
X36000010Y440513D01*
X35874488Y512983D01*
X35874489Y512983D01*
X35810977Y530001D01*
X35734475Y550500D01*
X35589525Y550500D01*
X35581427Y548330D01*
X35449510Y512983D01*
X35323989Y440513D01*
X35221487Y338011D01*
X35149017Y212490D01*
X35120623Y106521D01*
X35111500Y72475D01*
X35111500Y-72475D01*
X35130095Y-141870D01*
X35149017Y-212489D01*
X35223236Y-341038D01*
X35236500Y-390538D01*
X35236500Y-2621032D01*
X35217593Y-2679223D01*
X35168093Y-2715187D01*
X35106907Y-2715187D01*
X35088000Y-2706769D01*
X35010486Y-2662016D01*
X34923354Y-2638669D01*
X34870475Y-2624500D01*
X34725525Y-2624500D01*
X34585899Y-2661912D01*
X34524799Y-2658711D01*
X34481024Y-2625615D01*
X34404549Y-2523458D01*
X34404548Y-2523457D01*
X34404546Y-2523454D01*
X34338141Y-2473743D01*
X34289329Y-2437202D01*
X34154488Y-2386910D01*
X34154483Y-2386909D01*
X34154481Y-2386908D01*
X34154477Y-2386908D01*
X34123249Y-2383550D01*
X34094873Y-2380500D01*
X34094870Y-2380500D01*
X33669500Y-2380500D01*
X33654588Y-2375655D01*
X33638907Y-2375655D01*
X33626221Y-2366438D01*
X33611309Y-2361593D01*
X33602092Y-2348907D01*
X33589407Y-2339691D01*
X33584561Y-2324778D01*
X33575345Y-2312093D01*
X33570500Y-2281500D01*
X33570500Y-2240499D01*
X33589407Y-2182308D01*
X33638907Y-2146344D01*
X33669494Y-2141499D01*
X34231872Y-2141499D01*
X34291483Y-2135091D01*
X34389959Y-2098362D01*
X34426329Y-2084797D01*
X34426329Y-2084796D01*
X34426331Y-2084796D01*
X34541546Y-1998546D01*
X34627796Y-1883331D01*
X34630726Y-1875477D01*
X34678089Y-1748488D01*
X34678088Y-1748488D01*
X34678091Y-1748483D01*
X34684500Y-1688873D01*
X34684499Y-1193128D01*
X34678091Y-1133517D01*
X34678090Y-1133514D01*
X34627797Y-998670D01*
X34541549Y-883458D01*
X34541548Y-883457D01*
X34541546Y-883454D01*
X34541541Y-883450D01*
X34426329Y-797202D01*
X34291488Y-746910D01*
X34291483Y-746909D01*
X34291481Y-746908D01*
X34291477Y-746908D01*
X34260249Y-743550D01*
X34231873Y-740500D01*
X34231870Y-740500D01*
X33586133Y-740500D01*
X33586129Y-740500D01*
X33586128Y-740501D01*
X33578949Y-741272D01*
X33526519Y-746908D01*
X33526514Y-746909D01*
X33391670Y-797202D01*
X33276458Y-883450D01*
X33276450Y-883458D01*
X33207302Y-975829D01*
X33157294Y-1011082D01*
X33128049Y-1015500D01*
X32906951Y-1015500D01*
X32848760Y-996593D01*
X32827698Y-975829D01*
X32758549Y-883458D01*
X32758548Y-883457D01*
X32758546Y-883454D01*
X32758541Y-883450D01*
X32643329Y-797202D01*
X32508488Y-746910D01*
X32508483Y-746909D01*
X32508481Y-746908D01*
X32508477Y-746908D01*
X32477249Y-743550D01*
X32448873Y-740500D01*
X32448870Y-740500D01*
X31803133Y-740500D01*
X31803124Y-740501D01*
X31772079Y-743838D01*
X31751718Y-739560D01*
X31730907Y-739560D01*
X31722439Y-733408D01*
X31712201Y-731257D01*
X31698243Y-715828D01*
X31681407Y-703596D01*
X31678173Y-693642D01*
X31671154Y-685884D01*
X31662500Y-645405D01*
X31662500Y-586595D01*
X31681407Y-528404D01*
X31730907Y-492440D01*
X31772081Y-488162D01*
X31803127Y-491500D01*
X32448872Y-491499D01*
X32508483Y-485091D01*
X32598422Y-451546D01*
X32643329Y-434797D01*
X32643329Y-434796D01*
X32643331Y-434796D01*
X32708852Y-385746D01*
X32766766Y-366010D01*
X32768181Y-366000D01*
X33266819Y-366000D01*
X33325010Y-384907D01*
X33326109Y-385718D01*
X33345320Y-400099D01*
X33391670Y-434797D01*
X33526511Y-485089D01*
X33526512Y-485089D01*
X33526517Y-485091D01*
X33586127Y-491500D01*
X34231872Y-491499D01*
X34291483Y-485091D01*
X34381422Y-451546D01*
X34426329Y-434797D01*
X34426329Y-434796D01*
X34426331Y-434796D01*
X34541546Y-348546D01*
X34627796Y-233331D01*
X34630726Y-225477D01*
X34674095Y-109196D01*
X34678091Y-98483D01*
X34684500Y-38873D01*
X34684499Y456872D01*
X34678091Y516483D01*
X34675164Y524331D01*
X34627797Y651330D01*
X34541549Y766542D01*
X34541548Y766543D01*
X34541546Y766546D01*
X34541541Y766550D01*
X34426329Y852798D01*
X34291488Y903090D01*
X34291478Y903092D01*
X34277911Y904551D01*
X34274916Y904873D01*
X34219081Y929892D01*
X34188615Y982952D01*
X34186500Y1003305D01*
X34186500Y1736079D01*
X34205407Y1794270D01*
X34249180Y1828176D01*
X34289658Y1844138D01*
X34407500Y1933500D01*
X34496862Y2051342D01*
X34551117Y2188923D01*
X34561500Y2275382D01*
X34561500Y2834618D01*
X34551117Y2921077D01*
X34496862Y3058658D01*
X34441364Y3131843D01*
X34421270Y3189633D01*
X34438981Y3248199D01*
X34441713Y3251936D01*
X34445104Y3256357D01*
X34445111Y3256363D01*
X34490711Y3335345D01*
X34501127Y3353385D01*
X34501127Y3353387D01*
X34501129Y3353389D01*
X34530126Y3461608D01*
X34530126Y3573645D01*
X34530126Y5026251D01*
X35570000Y5026251D01*
X35570000Y4813750D01*
X35603240Y4603879D01*
X35668904Y4401785D01*
X35765376Y4212447D01*
X35765378Y4212443D01*
X35834483Y4117329D01*
X36451979Y4734826D01*
X36454075Y4727007D01*
X36519901Y4612993D01*
X36612993Y4519901D01*
X36727007Y4454075D01*
X36734823Y4451981D01*
X36117328Y3834486D01*
X36212448Y3765376D01*
X36401786Y3668904D01*
X36492983Y3639273D01*
X36542483Y3603309D01*
X36561391Y3545119D01*
X36542484Y3486928D01*
X36492988Y3450965D01*
X36478366Y3446214D01*
X36478364Y3446213D01*
X36317008Y3363998D01*
X36277571Y3335345D01*
X36170499Y3257553D01*
X36042447Y3129501D01*
X36009472Y3084114D01*
X35936002Y2982992D01*
X35853788Y2821638D01*
X35797828Y2649407D01*
X35769500Y2470550D01*
X35769500Y2289451D01*
X35797828Y2110594D01*
X35853788Y1938363D01*
X35933514Y1781891D01*
X35936004Y1777006D01*
X36042447Y1630499D01*
X36170499Y1502447D01*
X36317006Y1396004D01*
X36478361Y1313789D01*
X36650591Y1257829D01*
X36713584Y1247852D01*
X36829451Y1229500D01*
X36984500Y1229500D01*
X37042691Y1210593D01*
X37078655Y1161093D01*
X37083500Y1130500D01*
X37083500Y-5056836D01*
X37064593Y-5115027D01*
X37054504Y-5126840D01*
X37039889Y-5141454D01*
X37039885Y-5141458D01*
X36963228Y-5256182D01*
X36963222Y-5256193D01*
X36910420Y-5383670D01*
X36910420Y-5383672D01*
X36883500Y-5519004D01*
X36883500Y-5656995D01*
X36900092Y-5740406D01*
X36906098Y-5770602D01*
X36910420Y-5792327D01*
X36910420Y-5792329D01*
X36963222Y-5919806D01*
X36963228Y-5919817D01*
X37039885Y-6034541D01*
X37137458Y-6132114D01*
X37252182Y-6208771D01*
X37252193Y-6208777D01*
X37281565Y-6220943D01*
X37379672Y-6261580D01*
X37515007Y-6288500D01*
X37515008Y-6288500D01*
X37652992Y-6288500D01*
X37652993Y-6288500D01*
X37788328Y-6261580D01*
X37915811Y-6208775D01*
X38030542Y-6132114D01*
X38128114Y-6034542D01*
X38204775Y-5919811D01*
X38257580Y-5792328D01*
X38284500Y-5656993D01*
X38284500Y-5519007D01*
X38257580Y-5383672D01*
X38231434Y-5320549D01*
X38204777Y-5256193D01*
X38204771Y-5256182D01*
X38128114Y-5141458D01*
X38113496Y-5126840D01*
X38085719Y-5072323D01*
X38084500Y-5056836D01*
X38084500Y1781891D01*
X38078024Y1806061D01*
X38050392Y1909186D01*
X38025295Y1952654D01*
X38012574Y2012501D01*
X38016878Y2032747D01*
X38042171Y2110590D01*
X38070500Y2289451D01*
X38070500Y2470550D01*
X38045959Y2625490D01*
X38042171Y2649409D01*
X37986211Y2821639D01*
X37903996Y2982994D01*
X37797553Y3129501D01*
X37669501Y3257553D01*
X37522994Y3363996D01*
X37522993Y3363997D01*
X37522991Y3363998D01*
X37361637Y3446212D01*
X37347013Y3450964D01*
X37297514Y3486929D01*
X37278608Y3545120D01*
X37297517Y3603311D01*
X37347016Y3639273D01*
X37438213Y3668904D01*
X37627553Y3765377D01*
X37627559Y3765381D01*
X37722671Y3834485D01*
X37722671Y3834486D01*
X37105176Y4451981D01*
X37112993Y4454075D01*
X37227007Y4519901D01*
X37320099Y4612993D01*
X37385925Y4727007D01*
X37388019Y4734824D01*
X38005514Y4117329D01*
X38005515Y4117329D01*
X38074619Y4212441D01*
X38074623Y4212447D01*
X38171095Y4401785D01*
X38236759Y4603879D01*
X38270000Y4813750D01*
X38270000Y5026251D01*
X38236759Y5236122D01*
X38171095Y5438216D01*
X38074624Y5627552D01*
X38005514Y5722672D01*
X37388019Y5105177D01*
X37385925Y5112993D01*
X37320099Y5227007D01*
X37227007Y5320099D01*
X37112993Y5385925D01*
X37105174Y5388021D01*
X37722671Y6005517D01*
X37627557Y6074622D01*
X37627553Y6074624D01*
X37534000Y6122291D01*
X37490735Y6165556D01*
X37481164Y6225988D01*
X37508941Y6280504D01*
X37563458Y6308282D01*
X37578943Y6309501D01*
X37814864Y6309501D01*
X37839991Y6312415D01*
X37942765Y6357794D01*
X38022206Y6437235D01*
X38067585Y6540009D01*
X38070500Y6565135D01*
X38070499Y8354864D01*
X38067585Y8379991D01*
X38022206Y8482765D01*
X37942765Y8562206D01*
X37839991Y8607585D01*
X37839990Y8607586D01*
X37839988Y8607586D01*
X37814868Y8610500D01*
X36025139Y8610500D01*
X36025136Y8610499D01*
X36000009Y8607586D01*
X35897235Y8562206D01*
X35817794Y8482765D01*
X35772414Y8379989D01*
X35769500Y8354870D01*
X35769500Y6565140D01*
X35769501Y6565137D01*
X35772414Y6540010D01*
X35773727Y6537037D01*
X35817794Y6437235D01*
X35897235Y6357794D01*
X36000009Y6312415D01*
X36025135Y6309500D01*
X36261055Y6309501D01*
X36319243Y6290594D01*
X36355207Y6241094D01*
X36355208Y6179909D01*
X36319244Y6130409D01*
X36305999Y6122292D01*
X36212451Y6074627D01*
X36212442Y6074621D01*
X36117327Y6005517D01*
X36734824Y5388020D01*
X36727007Y5385925D01*
X36612993Y5320099D01*
X36519901Y5227007D01*
X36454075Y5112993D01*
X36451980Y5105176D01*
X35834483Y5722673D01*
X35765379Y5627558D01*
X35765376Y5627554D01*
X35668904Y5438216D01*
X35603240Y5236122D01*
X35570000Y5026251D01*
X34530126Y5026251D01*
X34530126Y6331792D01*
X34501129Y6440011D01*
X34501127Y6440014D01*
X34501127Y6440016D01*
X34445111Y6537037D01*
X34365889Y6616260D01*
X34365889Y6616259D01*
X32754463Y8227685D01*
X32754460Y8227687D01*
X32677729Y8271988D01*
X32677728Y8271988D01*
X32657439Y8283702D01*
X32657438Y8283703D01*
X32657437Y8283703D01*
X32549218Y8312700D01*
X32549216Y8312700D01*
X31340684Y8312700D01*
X31282493Y8331607D01*
X31254464Y8367158D01*
X31252851Y8366295D01*
X31250557Y8370587D01*
X31138874Y8537731D01*
X30996730Y8679875D01*
X30829585Y8791558D01*
X30643869Y8868483D01*
X30446713Y8907700D01*
X30446711Y8907700D01*
X30245689Y8907700D01*
X30245686Y8907700D01*
X30048531Y8868483D01*
X30048529Y8868483D01*
X29862814Y8791558D01*
X29862813Y8791558D01*
X29695669Y8679875D01*
X29553525Y8537731D01*
X29441842Y8370587D01*
X29441842Y8370586D01*
X29364917Y8184871D01*
X29364917Y8184869D01*
X29325700Y7987714D01*
X29325700Y7786687D01*
X29364917Y7589530D01*
X29366329Y7584876D01*
X29364261Y7584249D01*
X29368367Y7531709D01*
X29342119Y7484869D01*
X28208531Y6351281D01*
X28154014Y6323504D01*
X28109052Y6328813D01*
X28108524Y6327071D01*
X28103870Y6328483D01*
X27906713Y6367700D01*
X27906711Y6367700D01*
X27705689Y6367700D01*
X27705686Y6367700D01*
X27508531Y6328483D01*
X27508529Y6328483D01*
X27322814Y6251558D01*
X27322813Y6251558D01*
X27155669Y6139875D01*
X27013525Y5997731D01*
X26901842Y5830587D01*
X26901842Y5830586D01*
X26824917Y5644871D01*
X26824917Y5644869D01*
X26785700Y5447714D01*
X26785700Y5246687D01*
X26824917Y5049532D01*
X26824917Y5049530D01*
X26901842Y4863815D01*
X26901842Y4863814D01*
X27013273Y4697047D01*
X27013526Y4696669D01*
X27155669Y4554526D01*
X27322812Y4442844D01*
X27322813Y4442844D01*
X27322814Y4442843D01*
X27332976Y4438634D01*
X27508531Y4365917D01*
X27705689Y4326700D01*
X27705690Y4326700D01*
X27906710Y4326700D01*
X27906711Y4326700D01*
X28103869Y4365917D01*
X28289588Y4442844D01*
X28456731Y4554526D01*
X28598874Y4696669D01*
X28710556Y4863812D01*
X28787483Y5049531D01*
X28826700Y5246689D01*
X28826700Y5447711D01*
X28787483Y5644869D01*
X28787479Y5644879D01*
X28786072Y5649519D01*
X28788146Y5650149D01*
X28784022Y5702655D01*
X28810277Y5749531D01*
X29943869Y6883123D01*
X29998384Y6910898D01*
X30043350Y6905580D01*
X30043881Y6907328D01*
X30048521Y6905921D01*
X30048531Y6905917D01*
X30245689Y6866700D01*
X30245690Y6866700D01*
X30446710Y6866700D01*
X30446711Y6866700D01*
X30643869Y6905917D01*
X30829588Y6982844D01*
X30996731Y7094526D01*
X31138874Y7236669D01*
X31250556Y7403812D01*
X31250557Y7403814D01*
X31252851Y7408105D01*
X31254765Y7407082D01*
X31288968Y7447118D01*
X31340684Y7461700D01*
X32275944Y7461700D01*
X32334135Y7442793D01*
X32345948Y7432704D01*
X33286654Y6491998D01*
X33314431Y6437481D01*
X33304860Y6377049D01*
X33261595Y6333784D01*
X33201163Y6324213D01*
X33187914Y6327256D01*
X33183870Y6328483D01*
X32986713Y6367700D01*
X32986711Y6367700D01*
X32785689Y6367700D01*
X32785686Y6367700D01*
X32588531Y6328483D01*
X32588529Y6328483D01*
X32402814Y6251558D01*
X32402813Y6251558D01*
X32235669Y6139875D01*
X32093525Y5997731D01*
X31981842Y5830587D01*
X31981842Y5830586D01*
X31904917Y5644871D01*
X31904917Y5644869D01*
X31865700Y5447714D01*
X31865700Y5246687D01*
X31904917Y5049530D01*
X31906329Y5044876D01*
X31904261Y5044249D01*
X31908367Y4991709D01*
X31882119Y4944870D01*
X30975737Y4038486D01*
X30896514Y3959263D01*
X30840498Y3862242D01*
X30840497Y3862237D01*
X30814544Y3765376D01*
X30811500Y3754017D01*
X30811500Y-1932500D01*
X30792593Y-1990691D01*
X30743093Y-2026655D01*
X30712500Y-2031500D01*
X29344522Y-2031500D01*
X29286331Y-2012593D01*
X29274518Y-2002504D01*
X29233445Y-1961431D01*
X29205668Y-1906914D01*
X29215239Y-1846482D01*
X29258504Y-1803217D01*
X29313518Y-1792940D01*
X29323885Y-1793999D01*
X29397199Y-1793998D01*
X29397200Y-1793998D01*
X29397200Y-1019001D01*
X29797200Y-1019001D01*
X29797200Y-1793998D01*
X29797201Y-1793999D01*
X29870522Y-1793999D01*
X29969797Y-1783857D01*
X29969809Y-1783854D01*
X30130687Y-1730545D01*
X30274929Y-1641574D01*
X30394774Y-1521729D01*
X30483745Y-1377487D01*
X30537056Y-1216603D01*
X30547200Y-1117323D01*
X30547200Y-1019001D01*
X30547199Y-1019000D01*
X29797201Y-1019000D01*
X29797200Y-1019001D01*
X29397200Y-1019001D01*
X29397200Y155999D01*
X29797200Y155999D01*
X29797200Y-618999D01*
X29797201Y-619000D01*
X30547198Y-619000D01*
X30547199Y-618999D01*
X30547199Y-520677D01*
X30537057Y-421402D01*
X30537054Y-421390D01*
X30483745Y-260512D01*
X30394774Y-116270D01*
X30274929Y3575D01*
X30130687Y92546D01*
X29969803Y145857D01*
X29870523Y156000D01*
X29797201Y156000D01*
X29797200Y155999D01*
X29397200Y155999D01*
X29397200Y156001D01*
X29323878Y156000D01*
X29323877Y155999D01*
X29224602Y145858D01*
X29224590Y145855D01*
X29063712Y92546D01*
X28919470Y3575D01*
X28799626Y-116269D01*
X28775665Y-155114D01*
X28760200Y-168243D01*
X28747943Y-184407D01*
X28737410Y-187592D01*
X28729022Y-194714D01*
X28708793Y-196246D01*
X28689377Y-202118D01*
X28678983Y-198503D01*
X28668012Y-199335D01*
X28631586Y-182022D01*
X28586880Y-148120D01*
X28551938Y-97894D01*
X28547700Y-69237D01*
X28547700Y2025878D01*
X28566607Y2084069D01*
X28576696Y2095882D01*
X29435518Y2954704D01*
X29490035Y2982481D01*
X29505522Y2983700D01*
X29526192Y2983700D01*
X29526193Y2983700D01*
X29661528Y3010620D01*
X29789011Y3063425D01*
X29903742Y3140086D01*
X30001314Y3237658D01*
X30077975Y3352389D01*
X30130780Y3479872D01*
X30157700Y3615207D01*
X30157700Y3753193D01*
X30130780Y3888528D01*
X30101481Y3959263D01*
X30077977Y4016007D01*
X30077971Y4016018D01*
X30001314Y4130742D01*
X29903741Y4228315D01*
X29789017Y4304972D01*
X29789006Y4304978D01*
X29661528Y4357780D01*
X29526195Y4384700D01*
X29526193Y4384700D01*
X29388207Y4384700D01*
X29388204Y4384700D01*
X29252872Y4357780D01*
X29252870Y4357780D01*
X29125393Y4304978D01*
X29125382Y4304972D01*
X29010658Y4228315D01*
X28913085Y4130742D01*
X28836428Y4016018D01*
X28836422Y4016007D01*
X28783620Y3888530D01*
X28783620Y3888528D01*
X28756700Y3753196D01*
X28756700Y3732522D01*
X28737793Y3674331D01*
X28727704Y3662518D01*
X27739886Y2674700D01*
X27739885Y2674701D01*
X27646700Y2581515D01*
X27646696Y2581510D01*
X27580809Y2467391D01*
X27580808Y2467386D01*
X27546817Y2340526D01*
X27546700Y2340091D01*
X27546700Y-69237D01*
X27527793Y-127428D01*
X27507520Y-148120D01*
X27447126Y-193918D01*
X27447118Y-193926D01*
X27382362Y-279320D01*
X27332136Y-314262D01*
X27303479Y-318500D01*
X26467322Y-318500D01*
X26409131Y-299593D01*
X26397318Y-289504D01*
X25875496Y232318D01*
X25847719Y286835D01*
X25846500Y302322D01*
X25846500Y322992D01*
X25846499Y322996D01*
X25845939Y325811D01*
X25819580Y458328D01*
X25795492Y516481D01*
X25766777Y585807D01*
X25766771Y585818D01*
X25690114Y700542D01*
X25592541Y798115D01*
X25477817Y874772D01*
X25477806Y874778D01*
X25350328Y927580D01*
X25214995Y954500D01*
X25214993Y954500D01*
X25077007Y954500D01*
X25077004Y954500D01*
X24941672Y927580D01*
X24941670Y927580D01*
X24814193Y874778D01*
X24814182Y874772D01*
X24699458Y798115D01*
X24601885Y700542D01*
X24525228Y585818D01*
X24525222Y585807D01*
X24472420Y458330D01*
X24472420Y458328D01*
X24445500Y322996D01*
X23376499Y322996D01*
X23376499Y329872D01*
X23370091Y389483D01*
X23370090Y389486D01*
X23319797Y524330D01*
X23233549Y639542D01*
X23233548Y639543D01*
X23233546Y639546D01*
X23217805Y651330D01*
X23118329Y725798D01*
X23004904Y768102D01*
X22956989Y806152D01*
X22940500Y860860D01*
X22940500Y1736079D01*
X22959407Y1794270D01*
X23003180Y1828176D01*
X23043658Y1844138D01*
X23161500Y1933500D01*
X23250862Y2051342D01*
X23305117Y2188923D01*
X23315500Y2275382D01*
X23315500Y2834618D01*
X23305117Y2921077D01*
X23250862Y3058658D01*
X23161500Y3176500D01*
X23043658Y3265862D01*
X23043656Y3265863D01*
X23043656Y3265864D01*
X23003181Y3281825D01*
X22955984Y3320762D01*
X22940500Y3373922D01*
X22940500Y5030921D01*
X22938340Y5038980D01*
X22938338Y5038985D01*
X22936901Y5044347D01*
X22911503Y5139137D01*
X22855485Y5236163D01*
X20103934Y7987714D01*
X21197700Y7987714D01*
X21197700Y7786687D01*
X21236917Y7589532D01*
X21236917Y7589530D01*
X21313842Y7403815D01*
X21313842Y7403814D01*
X21425525Y7236670D01*
X21425526Y7236669D01*
X21567669Y7094526D01*
X21734812Y6982844D01*
X21920531Y6905917D01*
X22117689Y6866700D01*
X22117690Y6866700D01*
X22318710Y6866700D01*
X22318711Y6866700D01*
X22515869Y6905917D01*
X22515880Y6905922D01*
X22520519Y6907328D01*
X22521151Y6905243D01*
X22573599Y6909391D01*
X22620531Y6883121D01*
X23754120Y5749532D01*
X23781897Y5695015D01*
X23776579Y5650058D01*
X23778330Y5649527D01*
X23776917Y5644870D01*
X23737700Y5447714D01*
X23737700Y5246687D01*
X23776917Y5049532D01*
X23776917Y5049530D01*
X23853842Y4863815D01*
X23853842Y4863814D01*
X23965273Y4697047D01*
X23965526Y4696669D01*
X24107669Y4554526D01*
X24274812Y4442844D01*
X24274813Y4442844D01*
X24274814Y4442843D01*
X24284976Y4438634D01*
X24460531Y4365917D01*
X24657689Y4326700D01*
X24657690Y4326700D01*
X24858710Y4326700D01*
X24858711Y4326700D01*
X25055869Y4365917D01*
X25241588Y4442844D01*
X25408731Y4554526D01*
X25550874Y4696669D01*
X25662556Y4863812D01*
X25739483Y5049531D01*
X25778700Y5246689D01*
X25778700Y5447711D01*
X25739483Y5644869D01*
X25662557Y5830586D01*
X25662557Y5830587D01*
X25550874Y5997731D01*
X25408730Y6139875D01*
X25241585Y6251558D01*
X25055869Y6328483D01*
X24858713Y6367700D01*
X24858711Y6367700D01*
X24657689Y6367700D01*
X24657686Y6367700D01*
X24460530Y6328483D01*
X24455873Y6327070D01*
X24455243Y6329147D01*
X24402746Y6325023D01*
X24355868Y6351280D01*
X23222279Y7484869D01*
X23194502Y7539386D01*
X23199832Y7584347D01*
X23198072Y7584881D01*
X23199478Y7589520D01*
X23199483Y7589531D01*
X23238700Y7786689D01*
X23238700Y7987711D01*
X23199483Y8184869D01*
X23122557Y8370586D01*
X23122557Y8370587D01*
X23010874Y8537731D01*
X22868730Y8679875D01*
X22701585Y8791558D01*
X22515869Y8868483D01*
X22318713Y8907700D01*
X22318711Y8907700D01*
X22117689Y8907700D01*
X22117686Y8907700D01*
X21920531Y8868483D01*
X21920529Y8868483D01*
X21734814Y8791558D01*
X21734813Y8791558D01*
X21567669Y8679875D01*
X21425525Y8537731D01*
X21313842Y8370587D01*
X21313842Y8370586D01*
X21236917Y8184871D01*
X21236917Y8184869D01*
X21197700Y7987714D01*
X20103934Y7987714D01*
X19863963Y8227685D01*
X19863960Y8227687D01*
X19766940Y8283702D01*
X19766942Y8283702D01*
X19724951Y8294953D01*
X19658718Y8312700D01*
X19658716Y8312700D01*
X15084684Y8312700D01*
X15026493Y8331607D01*
X14998464Y8367158D01*
X14996851Y8366295D01*
X14994557Y8370587D01*
X14882874Y8537731D01*
X14740730Y8679875D01*
X14573585Y8791558D01*
X14387869Y8868483D01*
X14190713Y8907700D01*
X14190711Y8907700D01*
X13989689Y8907700D01*
X13989686Y8907700D01*
X13792531Y8868483D01*
X13792529Y8868483D01*
X13606814Y8791558D01*
X13606813Y8791558D01*
X13439669Y8679875D01*
X13297525Y8537731D01*
X13185842Y8370587D01*
X13185842Y8370586D01*
X13108917Y8184871D01*
X13108917Y8184869D01*
X13069700Y7987714D01*
X13069700Y7786687D01*
X13108917Y7589530D01*
X13110329Y7584876D01*
X13108261Y7584249D01*
X13112367Y7531709D01*
X13086119Y7484869D01*
X11952531Y6351281D01*
X11898014Y6323504D01*
X11853052Y6328813D01*
X11852524Y6327071D01*
X11847870Y6328483D01*
X11650713Y6367700D01*
X11650711Y6367700D01*
X11449689Y6367700D01*
X11449686Y6367700D01*
X11252531Y6328483D01*
X11252529Y6328483D01*
X11066814Y6251558D01*
X11066813Y6251558D01*
X10899669Y6139875D01*
X10757525Y5997731D01*
X10645842Y5830587D01*
X10645842Y5830586D01*
X10568917Y5644871D01*
X10568917Y5644869D01*
X10529700Y5447714D01*
X9522699Y5447714D01*
X9483483Y5644869D01*
X9406557Y5830586D01*
X9406557Y5830587D01*
X9294874Y5997731D01*
X9152730Y6139875D01*
X8985585Y6251558D01*
X8799869Y6328483D01*
X8602713Y6367700D01*
X8602711Y6367700D01*
X8401689Y6367700D01*
X8401686Y6367700D01*
X8204530Y6328483D01*
X8199873Y6327070D01*
X8199243Y6329147D01*
X8146746Y6325023D01*
X8099868Y6351280D01*
X6966279Y7484869D01*
X6938502Y7539386D01*
X6943832Y7584347D01*
X6942072Y7584881D01*
X6943478Y7589520D01*
X6943483Y7589531D01*
X6982700Y7786689D01*
X6982700Y7987711D01*
X6943483Y8184869D01*
X6866557Y8370586D01*
X6866557Y8370587D01*
X6754874Y8537731D01*
X6612730Y8679875D01*
X6445585Y8791558D01*
X6259869Y8868483D01*
X6062713Y8907700D01*
X6062711Y8907700D01*
X5861689Y8907700D01*
X5861686Y8907700D01*
X5664531Y8868483D01*
X5664529Y8868483D01*
X5478814Y8791558D01*
X5478813Y8791558D01*
X5311669Y8679875D01*
X5169525Y8537731D01*
X5057842Y8370587D01*
X5055549Y8366295D01*
X5053634Y8367319D01*
X5019432Y8327282D01*
X4967716Y8312700D01*
X2643219Y8312700D01*
X2531182Y8312700D01*
X2464948Y8294953D01*
X2422958Y8283702D01*
X2325939Y8227687D01*
X1038737Y6940485D01*
X1038736Y6940486D01*
X959514Y6861263D01*
X903498Y6764242D01*
X874500Y6656017D01*
X874500Y3967006D01*
X855593Y3908815D01*
X845504Y3897002D01*
X-1537754Y1513744D01*
X-1537755Y1513745D01*
X-1616977Y1434522D01*
X-1672993Y1337501D01*
X-1672994Y1337496D01*
X-1694340Y1257829D01*
X-1701991Y1229276D01*
X-1701991Y1007546D01*
X-1720898Y949355D01*
X-1770398Y913391D01*
X-1831584Y913391D01*
X-1859179Y927451D01*
X-1937006Y983996D01*
X-1937007Y983997D01*
X-1937009Y983998D01*
X-2098363Y1066212D01*
X-2270594Y1122172D01*
X-2449451Y1150500D01*
X-2449454Y1150500D01*
X-2630546Y1150500D01*
X-2630549Y1150500D01*
X-2809407Y1122172D01*
X-2981638Y1066212D01*
X-3142992Y983998D01*
X-3207830Y936890D01*
X-3289501Y877553D01*
X-3417553Y749501D01*
X-3470775Y676248D01*
X-3523998Y602992D01*
X-3606212Y441638D01*
X-3662172Y269407D01*
X-3690500Y90550D01*
X-5638000Y90550D01*
X-5638000Y129999D01*
X-5638001Y130000D01*
X-8099379Y130000D01*
X-8130701Y114043D01*
X-8171803Y116198D01*
X-8240108Y134500D01*
X-8240110Y134500D01*
X-8752515Y134500D01*
X-8787507Y142902D01*
X-8787873Y141774D01*
X-8795284Y144182D01*
X-8891996Y159500D01*
X-9332006Y159500D01*
X-9428716Y144182D01*
X-9517556Y98916D01*
X-9577988Y89345D01*
X-9632504Y117123D01*
X-9660281Y171640D01*
X-9661500Y187126D01*
X-9661500Y629988D01*
X-8088000Y629988D01*
X-8088000Y530001D01*
X-8087999Y530000D01*
X-7063001Y530000D01*
X-7063000Y530001D01*
X-7063000Y1329999D01*
X-6663000Y1329999D01*
X-6663000Y530001D01*
X-6662999Y530000D01*
X-5638002Y530000D01*
X-5638001Y530001D01*
X-5638001Y629987D01*
X-5648493Y732688D01*
X-5648496Y732700D01*
X-5703644Y899125D01*
X-5795681Y1048341D01*
X-5919660Y1172320D01*
X-6068876Y1264357D01*
X-6235307Y1319507D01*
X-6338013Y1330000D01*
X-6662999Y1330000D01*
X-6663000Y1329999D01*
X-7063000Y1329999D01*
X-7063001Y1330000D01*
X-7387987Y1330000D01*
X-7490688Y1319508D01*
X-7490700Y1319505D01*
X-7657125Y1264357D01*
X-7806341Y1172320D01*
X-7930320Y1048341D01*
X-8022357Y899125D01*
X-8077507Y732694D01*
X-8088000Y629988D01*
X-9661500Y629988D01*
X-9661500Y664500D01*
X-9642593Y722691D01*
X-9593093Y758655D01*
X-9562500Y763500D01*
X-9376058Y763500D01*
X-9376056Y763500D01*
X-9291610Y773641D01*
X-9157225Y826636D01*
X-9042122Y913922D01*
X-8954836Y1029025D01*
X-8901841Y1163410D01*
X-8891700Y1247856D01*
X-8891700Y1830144D01*
X-8901841Y1914590D01*
X-8928799Y1982948D01*
X-8935692Y2020605D01*
X-8835635Y9400305D01*
X-8832723Y9408871D01*
X-8833825Y9417850D01*
X-8823077Y9437243D01*
X-8815940Y9458232D01*
X-8808550Y9463450D01*
X-8804163Y9471364D01*
X-8784069Y9480735D01*
X-8765957Y9493522D01*
X-8756910Y9493400D01*
X-8748710Y9497223D01*
X-8726946Y9492993D01*
X-8704778Y9492692D01*
X-8697532Y9487276D01*
X-8688649Y9485549D01*
X-8673529Y9469335D01*
X-8655770Y9456061D01*
X-8646920Y9440801D01*
X-8610956Y9363678D01*
X-8609224Y9359743D01*
X-8601364Y9340767D01*
X-8597203Y9328510D01*
X-8563130Y9201345D01*
X-8561659Y9195035D01*
X-8555403Y9163583D01*
X-8553878Y9152899D01*
X-8540877Y9004309D01*
X-8540500Y8995680D01*
X-8540500Y4412463D01*
X-8510103Y4240069D01*
X-8510101Y4240063D01*
X-8502396Y4218890D01*
X-8494755Y4197899D01*
X-8494755Y4197898D01*
X-8494754Y4197895D01*
X-8454920Y4088454D01*
X-8450225Y4075555D01*
X-8428823Y4038486D01*
X-8410693Y4007083D01*
X-8410692Y4007081D01*
X-8387554Y3967006D01*
X-8362692Y3923945D01*
X-8332974Y3888528D01*
X-8327846Y3882417D01*
X-8327846Y3882416D01*
X-8297015Y3845672D01*
X-8250171Y3789846D01*
X-8250163Y3789837D01*
X-8250157Y3789832D01*
X-8250156Y3789831D01*
X-8194331Y3742988D01*
X-8157580Y3712151D01*
X-8157579Y3712150D01*
X-8116060Y3677312D01*
X-8116055Y3677308D01*
X-7964445Y3589775D01*
X-7799938Y3529899D01*
X-7627532Y3499500D01*
X-7627531Y3499500D01*
X-1452469Y3499500D01*
X-1452468Y3499500D01*
X-1280062Y3529899D01*
X-1115555Y3589775D01*
X-963945Y3677308D01*
X-829837Y3789837D01*
X-717308Y3923945D01*
X-629775Y4075555D01*
X-569899Y4240062D01*
X-539500Y4412468D01*
X-539500Y4500000D01*
X-539500Y4500500D01*
X-539500Y8995682D01*
X-539123Y9004310D01*
X-531842Y9087532D01*
X-526121Y9152922D01*
X-524602Y9163563D01*
X-518334Y9195075D01*
X-516883Y9201300D01*
X-482792Y9328532D01*
X-478644Y9340749D01*
X-470754Y9359797D01*
X-469085Y9363592D01*
X-410082Y9490124D01*
X-405294Y9499138D01*
X-402762Y9503362D01*
X-398978Y9509197D01*
X-310627Y9635375D01*
X-299546Y9648582D01*
X-188582Y9759546D01*
X-175375Y9770627D01*
X-49197Y9858978D01*
X-43362Y9862762D01*
X-39138Y9865294D01*
X-30124Y9870082D01*
X96408Y9929085D01*
X100203Y9930754D01*
X119251Y9938644D01*
X131468Y9942792D01*
X258700Y9976883D01*
X264925Y9978334D01*
X296436Y9984602D01*
X307080Y9986121D01*
X455691Y9999123D01*
X464319Y9999500D01*
X38954444Y9999500D01*
X38965512Y9998879D01*
G37*
%TD.AperFunction*%
%TD*%
M02*
