M48
; DRILL file {KiCad 9.0.6-9.0.6~ubuntu24.04.1} date 2025-11-19T23:07:58+0800
; FORMAT={-:-/ absolute / inch / decimal}
; #@! TF.CreationDate,2025-11-19T23:07:58+08:00
; #@! TF.GenerationSoftware,Kicad,Pcbnew,9.0.6-9.0.6~ubuntu24.04.1
; #@! TF.FileFunction,Plated,1,2,PTH
FMAT,2
INCH
; #@! TA.AperFunction,Plated,PTH,ViaDrill
T1C0.0118
; #@! TA.AperFunction,Plated,PTH,ComponentDrill
T2C0.0118
; #@! TA.AperFunction,Plated,PTH,ViaDrill
T3C0.0157
; #@! TA.AperFunction,Plated,PTH,ViaDrill
T4C0.0197
; #@! TA.AperFunction,Plated,PTH,ComponentDrill
T5C0.0197
; #@! TA.AperFunction,Plated,PTH,ViaDrill
T6C0.0236
; #@! TA.AperFunction,Plated,PTH,ComponentDrill
T7C0.0276
; #@! TA.AperFunction,Plated,PTH,ComponentDrill
T8C0.0315
; #@! TA.AperFunction,Plated,PTH,ComponentDrill
T9C0.0354
; #@! TA.AperFunction,Plated,PTH,ComponentDrill
T10C0.0394
; #@! TA.AperFunction,Plated,PTH,ComponentDrill
T11C0.0433
; #@! TA.AperFunction,Plated,PTH,ComponentDrill
T12C0.0551
; #@! TA.AperFunction,Plated,PTH,ComponentDrill
T13C0.0591
; #@! TA.AperFunction,Plated,PTH,ComponentDrill
T14C0.1260
%
G90
G05
T1
X-0.7193Y-0.1787
X0.375Y-0.79
X0.44Y-1.765
X0.7527Y-2.0769
X1.405Y0.0062
X1.405Y-0.0432
X1.405Y-0.0938
X1.4242Y-0.5265
X1.46Y-0.4186
X1.4941Y-0.35
X1.524Y0.8739
X1.525Y0.56
X1.555Y-0.445
X1.6253Y-0.0688
X1.6256Y0.0306
X1.7755Y0.0305
X1.7763Y-1.3187
X1.795Y0.8739
X1.83Y-0.6
X1.8499Y0.2589
X1.9599Y-0.0011
X2.0399Y0.1339
X2.1549Y0.1789
X2.1883Y-0.6614
X2.22Y-0.205
X2.22Y-0.355
X2.5693Y-0.7154
X2.5799Y0.1339
X2.5999Y-0.5011
X2.6343Y-0.9838
X2.6593Y-1.9685
X2.6953Y-0.6211
X2.7788Y-0.2688
X2.845Y-0.6211
X2.865Y-0.1694
X2.87Y-1.28
X3.005Y0.655
X3.155Y-1.2
X3.2203Y0.005
X3.27Y-0.3788
X3.27Y-0.5088
X3.44Y-1.095
X3.445Y-0.765
X3.4732Y-0.695
X3.515Y-0.33
X3.6375Y-0.6075
X3.6435Y-0.9854
X3.6435Y-1.9691
X3.7003Y-1.388
X3.7003Y-1.4694
X3.914Y-1.5594
X4.1208Y-0.0108
X4.5572Y-2.0194
X4.595Y-2.02
X4.5953Y-2.0581
T2
X-0.7633Y-0.3973
X-0.7633Y-0.4406
X-0.7633Y-0.4918
X-0.7633Y-0.5391
X-0.716Y-0.3973
X-0.716Y-0.4406
X-0.716Y-0.4918
X-0.716Y-0.5391
T3
X-0.935Y-0.04
X-0.9253Y1.0922
X-0.9253Y0.8757
X-0.9253Y0.6788
X-0.9253Y-1.3291
X-0.9253Y-1.5259
X-0.9253Y-1.7228
X-0.9253Y-1.9196
X-0.9253Y-2.1165
X-0.74Y0.26
X-0.7284Y1.0922
X-0.655Y0.505
X-0.63Y-2.4117
X-0.51Y-0.973
X-0.4332Y-2.4117
X-0.3544Y1.0922
X-0.2363Y-2.4117
X-0.1576Y1.0922
X-0.0395Y-2.4117
X0.0393Y1.0922
X0.1574Y-2.4117
X0.2361Y1.0922
X0.3542Y-2.4117
X0.433Y1.0922
X0.5511Y-2.4117
X0.6298Y1.0922
X0.725Y-0.8858
X0.7479Y-2.4117
X0.8267Y1.0922
X0.9448Y-2.4117
X1.1416Y-2.4117
X1.3385Y-2.4117
X1.415Y0.72
X1.5353Y-2.4117
X1.7322Y-2.4117
X1.7716Y1.0922
X1.895Y0.635
X1.929Y-2.4117
X1.9684Y1.0922
X2.1259Y-2.4117
X2.275Y0.505
X2.3227Y-2.4117
X2.3621Y1.0922
X2.4499Y-0.4411
X2.4606Y0.545
X2.5196Y-2.4117
X2.7164Y-2.4117
X2.86Y0.505
X2.9133Y-2.4117
X3.1101Y-2.4117
X3.307Y-2.4117
X3.3711Y-1.3188
X3.3857Y1.0922
X3.455Y0.4056
X3.5039Y-2.4117
X3.5826Y1.0922
X3.7008Y-2.4117
X3.7794Y1.0922
X3.8976Y-2.4117
X3.9763Y1.0922
X4.0944Y-2.4117
X4.1731Y1.0922
X4.2913Y-2.4117
X4.37Y1.0922
X4.5668Y1.0922
X4.8621Y1.0922
X4.8621Y0.8757
X4.8621Y0.6788
X4.8621Y0.482
X4.8621Y0.2851
X4.8621Y-0.1086
X4.8621Y-0.9354
X4.8621Y-1.7228
X4.8621Y-1.9196
X4.8621Y-2.1165
T4
X-0.8586Y-0.1638
X-0.7106Y-0.2972
X-0.6038Y-0.2132
T5
X-0.9102Y0.108
X-0.9102Y-2.333
X-0.886Y0.1671
X-0.886Y0.0488
X-0.886Y-2.2738
X-0.886Y-2.3921
X-0.8269Y0.1913
X-0.8269Y0.0246
X-0.8269Y-2.2497
X-0.8269Y-2.4163
X-0.7677Y0.1671
X-0.7677Y0.0488
X-0.7677Y-2.2738
X-0.7677Y-2.3921
X-0.7435Y0.108
X-0.7435Y-2.333
X1.0583Y1.0135
X1.0825Y1.0726
X1.0825Y0.9543
X1.1416Y1.0968
X1.1416Y0.9301
X1.2008Y1.0726
X1.2008Y0.9543
X1.225Y1.0135
X3.1056Y1.0135
X3.1297Y1.0726
X3.1297Y0.9543
X3.1889Y1.0968
X3.1889Y0.9301
X3.248Y1.0726
X3.248Y0.9543
X3.2722Y1.0135
X4.6804Y0.108
X4.6804Y-2.333
X4.7045Y0.1671
X4.7045Y0.0488
X4.7045Y-2.2738
X4.7045Y-2.3921
X4.7637Y0.1913
X4.7637Y0.0246
X4.7637Y-2.2497
X4.7637Y-2.4163
X4.8229Y0.1671
X4.8229Y0.0488
X4.8229Y-2.2738
X4.8229Y-2.3921
X4.847Y0.108
X4.847Y-2.333
T6
X-0.8824Y-0.7182
X-0.28Y0.1856
X-0.215Y-0.615
X-0.2147Y-0.3188
X-0.2147Y-0.421
X-0.2147Y-0.5229
X0.985Y0.6
T7
X2.59Y0.595
X2.745Y0.595
X3.6716Y0.227
X4.38Y0.227
T8
X0.2921Y-1.6657
X0.3921Y-1.6657
X0.4921Y-1.6657
X0.5921Y-1.6657
X0.6921Y-1.6657
T9
X1.1153Y-0.7688
X1.2153Y0.3312
X1.2153Y0.2312
X1.2153Y0.1312
X1.2153Y0.0312
X1.2153Y-0.0688
X1.2153Y-0.1688
X1.2153Y-0.2688
X1.2153Y-0.3688
X1.2153Y-0.4688
X1.2153Y-0.5688
X1.2153Y-0.6688
X1.2153Y-0.7688
X1.3153Y0.4312
X1.3153Y0.3312
X1.3153Y0.2312
X1.3153Y0.1312
X1.3153Y0.0312
X1.3153Y-0.0688
X1.3153Y-0.1688
X1.3153Y-0.2688
X1.3153Y-0.3688
X1.3153Y-0.4688
X1.3153Y-0.5688
X1.3153Y-0.6688
X1.3749Y-1.2008
X1.4749Y-1.2008
X1.5749Y-1.2008
X1.615Y0.43
X1.715Y0.43
X1.715Y0.33
X2.3602Y-1.2008
X2.4602Y-1.2008
X2.5602Y-1.2008
X2.6153Y0.4312
X2.6153Y0.3312
X2.7153Y0.4312
X2.7153Y0.3312
X3.0153Y0.3312
X3.0153Y0.2312
X3.0153Y0.1312
X3.0153Y0.0312
X3.0153Y-0.0688
X3.0153Y-0.1688
X3.0153Y-0.2688
X3.0153Y-0.3688
X3.0153Y-0.4688
X3.0153Y-0.5688
X3.0153Y-0.6688
X3.1153Y0.4312
X3.1153Y0.3312
X3.1153Y0.2312
X3.1153Y0.1312
X3.1153Y0.0312
X3.1153Y-0.0688
X3.1153Y-0.1688
X3.1153Y-0.2688
X3.1153Y-0.3688
X3.1153Y-0.4688
X3.1153Y-0.5688
X3.1153Y-0.6688
X3.3465Y0.2075
X3.3465Y0.1075
X3.3465Y-0.1075
X3.3465Y-0.2075
T10
X-0.9Y0.3956
X-0.8Y0.3956
X0.145Y-1.3239
X0.145Y-1.5208
X0.2756Y0.0984
X0.2756Y0.0
X0.2756Y-0.0984
X0.2756Y-0.8858
X0.2756Y-0.9843
X0.2756Y-1.0827
X0.2756Y-1.8701
X0.2756Y-1.9685
X0.2756Y-2.0669
X0.3756Y0.0984
X0.3756Y0.0
X0.3756Y-0.0984
X0.4506Y-1.9773
X0.4506Y-2.0773
X0.5506Y-1.9773
X0.5506Y-2.0773
X0.6506Y-1.9773
X0.6506Y-2.0773
X1.1153Y-2.2688
X1.2153Y0.4312
X1.2153Y-2.2688
X1.2598Y-0.8858
X1.2598Y-0.9843
X1.2598Y-1.0827
X1.2598Y-1.8701
X1.2598Y-1.9685
X1.2598Y-2.0669
X1.3153Y-2.2688
X1.3264Y1.0531
X1.4153Y-2.2688
X1.4264Y1.0531
X1.5153Y-2.2688
X1.5264Y1.0531
X1.615Y0.33
X1.6153Y-2.2688
X1.6264Y1.0531
X1.7153Y-1.6688
X1.7153Y-1.7688
X1.7153Y-1.8688
X2.2441Y-0.8858
X2.2441Y-0.9843
X2.2441Y-1.0827
X2.2441Y-1.8701
X2.2441Y-1.9685
X2.2441Y-2.0669
X2.4606Y0.2362
X2.4606Y-0.3346
X2.5591Y-0.3346
X2.6575Y0.2362
X2.6575Y-0.3346
X3.0153Y0.4312
X3.2283Y-0.8858
X3.2283Y-0.9843
X3.2283Y-1.0827
X3.2283Y-1.8701
X3.2283Y-1.9685
X3.2283Y-2.0669
X3.2653Y0.8212
X3.2653Y0.7212
X3.2653Y0.6212
X3.2653Y0.5212
X3.3653Y0.8212
X3.3653Y0.7212
X3.3653Y0.6212
X3.3653Y0.5212
X3.437Y-2.225
X3.537Y-2.225
X3.637Y-2.225
X3.737Y-0.425
X3.837Y-0.425
X3.937Y-0.425
X4.0302Y-1.3188
X4.0302Y-1.4188
X4.0302Y-1.5188
X4.037Y-0.425
X4.1302Y-1.3188
X4.1302Y-1.4188
X4.1302Y-1.5188
X4.137Y-0.425
X4.2126Y0.0984
X4.2126Y0.0
X4.2126Y-0.0984
X4.2126Y-0.8858
X4.2126Y-0.9843
X4.2126Y-1.0827
X4.2126Y-1.8701
X4.2126Y-1.9685
X4.2126Y-2.0669
X4.2303Y-1.3188
X4.2303Y-1.4188
X4.3126Y0.0984
X4.3126Y0.0
X4.3126Y-0.0984
T11
X0.8563Y-0.2657
X0.8563Y-0.4429
X1.1122Y-0.2657
X1.1122Y-0.4429
X1.3484Y-1.3878
X1.3484Y-1.565
X1.6043Y-1.3878
X1.6043Y-1.565
X1.8406Y-0.2657
X1.8406Y-0.4429
X2.0965Y-0.2657
X2.0965Y-0.4429
X2.3327Y-1.3878
X2.3327Y-1.565
X2.5886Y-1.3878
X2.5886Y-1.565
T12
X4.3308Y-0.3937
X4.3308Y-0.7874
X4.3308Y-1.1811
X4.3308Y-1.5748
X4.4292Y-0.2953
X4.4292Y-0.5906
X4.4292Y-0.8858
X4.4292Y-1.0827
X4.4292Y-1.378
X4.4292Y-1.6732
T13
X-0.7186Y-1.5259
X-0.7186Y-1.7759
X-0.7186Y-2.0259
X-0.2867Y0.977
X-0.2867Y0.727
X-0.2867Y0.477
X-0.2686Y-1.5259
X-0.2686Y-1.7759
X-0.2686Y-2.0259
X0.0Y0.185
X0.0Y-0.185
X0.0Y-0.7992
X0.0Y-1.1693
X0.0Y-1.7835
X0.0Y-2.1535
X0.1633Y0.977
X0.1633Y0.727
X0.1633Y0.477
X0.4219Y0.977
X0.4219Y0.727
X0.4219Y0.477
X0.8719Y0.977
X0.8719Y0.727
X0.8719Y0.477
X0.9843Y-0.7992
X0.9843Y-1.1693
X0.9843Y-1.7835
X0.9843Y-2.1535
X1.9685Y-0.7992
X1.9685Y-1.1693
X1.9685Y-1.7835
X1.9685Y-2.1535
X2.9528Y-0.7992
X2.9528Y-1.1693
X2.9528Y-1.7835
X2.9528Y-2.1535
X3.5716Y0.977
X3.5716Y0.727
X3.5716Y0.477
X3.937Y0.185
X3.937Y-0.185
X3.937Y-0.7992
X3.937Y-1.1693
X3.937Y-1.7835
X3.937Y-2.1535
X4.0216Y0.977
X4.0216Y0.727
X4.0216Y0.477
X4.2802Y0.977
X4.2802Y0.727
X4.2802Y0.477
X4.7302Y0.977
X4.7302Y0.727
X4.7302Y0.477
T14
X-0.8269Y0.108
X-0.8269Y-2.333
X1.1416Y1.0135
X3.1889Y1.0135
X4.7637Y0.108
X4.7637Y-2.333
T5
G00X2.0285Y0.73
M15
G01X2.0285Y0.6906
M16
G05
G00X2.2174Y1.045
M15
G01X2.2174Y1.0056
M16
G05
G00X2.2174Y0.9269
M15
G01X2.2174Y0.8875
M16
G05
G00X2.2174Y0.7694
M15
G01X2.2174Y0.73
M16
G05
G00X2.4222Y0.73
M15
G01X2.4222Y0.6906
M16
G05
G00X2.6111Y1.045
M15
G01X2.6111Y1.0056
M16
G05
G00X2.6111Y0.9269
M15
G01X2.6111Y0.8875
M16
G05
G00X2.6111Y0.7694
M15
G01X2.6111Y0.73
M16
G05
G00X2.8159Y0.73
M15
G01X2.8159Y0.6906
M16
G05
G00X3.0048Y1.045
M15
G01X3.0048Y1.0056
M16
G05
G00X3.0048Y0.9269
M15
G01X3.0048Y0.8875
M16
G05
G00X3.0048Y0.7694
M15
G01X3.0048Y0.73
M16
G05
T10
G00X-0.83Y0.9335
M15
G01X-0.7513Y0.9335
M16
G05
G00X-0.83Y0.6972
M15
G01X-0.7513Y0.6972
M16
G05
G00X-0.5819Y0.8449
M15
G01X-0.5819Y0.7662
M16
G05
T11
G00X4.8229Y-0.3858
M15
G01X4.8229Y-0.4016
M16
G05
G00X4.8229Y-0.4843
M15
G01X4.8229Y-0.5
M16
G05
G00X4.8229Y-0.6811
M15
G01X4.8229Y-0.6969
M16
G05
G00X4.8229Y-0.7795
M15
G01X4.8229Y-0.7953
M16
G05
G00X4.8229Y-1.1732
M15
G01X4.8229Y-1.189
M16
G05
G00X4.8229Y-1.2717
M15
G01X4.8229Y-1.2874
M16
G05
G00X4.8229Y-1.4685
M15
G01X4.8229Y-1.4843
M16
G05
G00X4.8229Y-1.5669
M15
G01X4.8229Y-1.5827
M16
G05
T13
G00X2.3346Y-0.0177
M15
G01X2.3346Y-0.061
M16
G05
G00X2.7835Y-0.0177
M15
G01X2.7835Y-0.061
M16
G05
M30
