%TF.GenerationSoftware,KiCad,Pcbnew,9.0.6-9.0.6~ubuntu24.04.1*%
%TF.CreationDate,2025-11-19T23:07:58+08:00*%
%TF.ProjectId,ksoloti_gills,6b736f6c-6f74-4695-9f67-696c6c732e6b,v0.6*%
%TF.SameCoordinates,Original*%
%TF.FileFunction,Soldermask,Bot*%
%TF.FilePolarity,Negative*%
%FSLAX46Y46*%
G04 Gerber Fmt 4.6, Leading zero omitted, Abs format (unit mm)*
G04 Created by KiCad (PCBNEW 9.0.6-9.0.6~ubuntu24.04.1) date 2025-11-19 23:07:58*
%MOMM*%
%LPD*%
G01*
G04 APERTURE LIST*
G04 Aperture macros list*
%AMRoundRect*
0 Rectangle with rounded corners*
0 $1 Rounding radius*
0 $2 $3 $4 $5 $6 $7 $8 $9 X,Y pos of 4 corners*
0 Add a 4 corners polygon primitive as box body*
4,1,4,$2,$3,$4,$5,$6,$7,$8,$9,$2,$3,0*
0 Add four circle primitives for the rounded corners*
1,1,$1+$1,$2,$3*
1,1,$1+$1,$4,$5*
1,1,$1+$1,$6,$7*
1,1,$1+$1,$8,$9*
0 Add four rect primitives between the rounded corners*
20,1,$1+$1,$2,$3,$4,$5,0*
20,1,$1+$1,$4,$5,$6,$7,0*
20,1,$1+$1,$6,$7,$8,$9,0*
20,1,$1+$1,$8,$9,$2,$3,0*%
G04 Aperture macros list end*
%ADD10C,0.650000*%
%ADD11C,1.700000*%
%ADD12RoundRect,0.575000X0.575000X0.575000X-0.575000X0.575000X-0.575000X-0.575000X0.575000X-0.575000X0*%
%ADD13RoundRect,0.450000X-0.450000X-0.450000X0.450000X-0.450000X0.450000X0.450000X-0.450000X0.450000X0*%
%ADD14C,1.800000*%
%ADD15C,0.800000*%
%ADD16C,5.200000*%
%ADD17C,1.852400*%
%ADD18RoundRect,0.562500X0.562500X0.562500X-0.562500X0.562500X-0.562500X-0.562500X0.562500X-0.562500X0*%
%ADD19R,1.700000X1.700000*%
%ADD20C,2.000000*%
%ADD21C,1.000000*%
%ADD22O,1.300000X2.300000*%
%ADD23RoundRect,0.400000X-0.400000X-0.400000X0.400000X-0.400000X0.400000X0.400000X-0.400000X0.400000X0*%
%ADD24C,1.600000*%
%ADD25C,1.152000*%
%ADD26RoundRect,0.450000X0.450000X-0.450000X0.450000X0.450000X-0.450000X0.450000X-0.450000X-0.450000X0*%
%ADD27RoundRect,0.625000X-0.625000X-1.175000X0.625000X-1.175000X0.625000X1.175000X-0.625000X1.175000X0*%
%ADD28C,1.750000*%
%ADD29C,6.000000*%
%ADD30C,3.100000*%
%ADD31C,2.700000*%
%ADD32RoundRect,0.250000X-0.600000X-0.600000X0.600000X-0.600000X0.600000X0.600000X-0.600000X0.600000X0*%
%ADD33O,4.000000X2.000000*%
%ADD34O,2.000000X4.000000*%
%ADD35C,2.500000*%
%ADD36O,2.200000X2.800000*%
%ADD37C,1.500000*%
%ADD38RoundRect,0.250000X0.600000X0.600000X-0.600000X0.600000X-0.600000X-0.600000X0.600000X-0.600000X0*%
%ADD39RoundRect,0.250000X-0.600000X0.600000X-0.600000X-0.600000X0.600000X-0.600000X0.600000X0.600000X0*%
%ADD40RoundRect,0.250000X0.750000X-0.750000X0.750000X0.750000X-0.750000X0.750000X-0.750000X-0.750000X0*%
G04 APERTURE END LIST*
%TO.C,FID2*%
D10*
X115362800Y-60248000D02*
G75*
G02*
X114712800Y-60248000I-325000J0D01*
G01*
X114712800Y-60248000D02*
G75*
G02*
X115362800Y-60248000I325000J0D01*
G01*
%TO.C,FID1*%
X-13662200Y26970000D02*
G75*
G02*
X-14312200Y26970000I-325000J0D01*
G01*
X-14312200Y26970000D02*
G75*
G02*
X-13662200Y26970000I325000J0D01*
G01*
%TD*%
D11*
%TO.C,RV1*%
X7000000Y-27500000D03*
X7000000Y-25000000D03*
X7000000Y-22500000D03*
D12*
X0Y-29700000D03*
X0Y-20300000D03*
%TD*%
D13*
%TO.C,LED3*%
X34921800Y-30500000D03*
D14*
X37461800Y-30500000D03*
X40001800Y-30500000D03*
%TD*%
D15*
%TO.C,MH5*%
X-23118622Y2742000D03*
X-22504803Y4244603D03*
X-22504803Y1239397D03*
X-21002200Y4858422D03*
D16*
X-21002200Y2742000D03*
D15*
X-21002200Y625578D03*
X-19499597Y4244603D03*
X-19499597Y1239397D03*
X-18885778Y2742000D03*
%TD*%
D11*
%TO.C,RV4*%
X82000000Y-27500000D03*
X82000000Y-25000000D03*
X82000000Y-22500000D03*
D12*
X75000000Y-29700000D03*
X75000000Y-20300000D03*
%TD*%
D13*
%TO.C,LED4*%
X59950000Y-30500000D03*
D14*
X62490000Y-30500000D03*
X65030000Y-30500000D03*
%TD*%
D11*
%TO.C,RV2*%
X32000000Y-27500000D03*
X32000000Y-25000000D03*
X32000000Y-22500000D03*
D12*
X25000000Y-29700000D03*
X25000000Y-20300000D03*
%TD*%
D17*
%TO.C,RV11*%
X7000000Y-2500000D03*
X7000000Y0D03*
X7000000Y2500000D03*
X9540000Y-2500000D03*
X9540000Y0D03*
X9540000Y2500000D03*
D18*
X0Y-4700000D03*
D12*
X0Y4700000D03*
%TD*%
D19*
%TO.C,J16*%
X82937800Y20858000D03*
D11*
X85477800Y20858000D03*
X82937800Y18318000D03*
X85477800Y18318000D03*
X82937800Y15778000D03*
X85477800Y15778000D03*
X82937800Y13238000D03*
X85477800Y13238000D03*
%TD*%
D20*
%TO.C,SW1*%
X21750000Y-11250000D03*
X28250000Y-11250000D03*
X21750000Y-6750000D03*
X28250000Y-6750000D03*
%TD*%
%TO.C,SW4*%
X59250000Y-39750000D03*
X65750000Y-39750000D03*
X59250000Y-35250000D03*
X65750000Y-35250000D03*
%TD*%
D19*
%TO.C,J15*%
X104907000Y-38577000D03*
D11*
X102367000Y-38577000D03*
X104907000Y-36037000D03*
X102367000Y-36037000D03*
X104907000Y-33497000D03*
X102367000Y-33497000D03*
%TD*%
D20*
%TO.C,SW2*%
X46750000Y-11250000D03*
X53250000Y-11250000D03*
X46750000Y-6750000D03*
X53250000Y-6750000D03*
%TD*%
D21*
%TO.C,J8*%
X63922800Y27642000D03*
X63922800Y20642000D03*
D22*
X66322800Y23042000D03*
X66322800Y26042000D03*
X61522800Y18042000D03*
X66322800Y19042000D03*
%TD*%
D11*
%TO.C,RV3*%
X57000000Y-27500000D03*
X57000000Y-25000000D03*
X57000000Y-22500000D03*
D12*
X50000000Y-29700000D03*
X50000000Y-20300000D03*
%TD*%
D15*
%TO.C,MH6*%
X-23118622Y-59258000D03*
X-22504803Y-57755397D03*
X-22504803Y-60760603D03*
X-21002200Y-57141578D03*
D16*
X-21002200Y-59258000D03*
D15*
X-21002200Y-61374422D03*
X-19499597Y-57755397D03*
X-19499597Y-60760603D03*
X-18885778Y-59258000D03*
%TD*%
D23*
%TO.C,M1*%
X7420000Y-42310000D03*
D24*
X9960000Y-42310000D03*
X12500000Y-42310000D03*
X15040000Y-42310000D03*
X17580000Y-42310000D03*
%TD*%
D19*
%TO.C,J18*%
X107448800Y-36038000D03*
D11*
X107448800Y-33498000D03*
%TD*%
%TO.C,RV10*%
X107000000Y-52500000D03*
X107000000Y-50000000D03*
X107000000Y-47500000D03*
D12*
X100000000Y-54700000D03*
X100000000Y-45300000D03*
%TD*%
D11*
%TO.C,RV9*%
X82000000Y-52500000D03*
X82000000Y-50000000D03*
X82000000Y-47500000D03*
D12*
X75000000Y-54700000D03*
X75000000Y-45300000D03*
%TD*%
D21*
%TO.C,J9*%
X73922800Y27642000D03*
X73922800Y20642000D03*
D22*
X76322800Y23042000D03*
X76322800Y26042000D03*
X71522800Y18042000D03*
X76322800Y19042000D03*
%TD*%
D11*
%TO.C,RV6*%
X7000000Y-52500000D03*
X7000000Y-50000000D03*
X7000000Y-47500000D03*
D12*
X0Y-54700000D03*
X0Y-45300000D03*
%TD*%
D21*
%TO.C,J17*%
X53922800Y27642000D03*
X53922800Y20642000D03*
D22*
X56322800Y23042000D03*
X56322800Y26042000D03*
X51522800Y18042000D03*
X56322800Y19042000D03*
%TD*%
D15*
%TO.C,MH4*%
X78881378Y25742000D03*
X79495197Y27244603D03*
X79495197Y24239397D03*
X80997800Y27858422D03*
D16*
X80997800Y25742000D03*
D15*
X80997800Y23625578D03*
X82500403Y27244603D03*
X82500403Y24239397D03*
X83114222Y25742000D03*
%TD*%
%TO.C,MH8*%
X118881378Y2742000D03*
X119495197Y4244603D03*
X119495197Y1239397D03*
X120997800Y4858422D03*
D16*
X120997800Y2742000D03*
D15*
X120997800Y625578D03*
X122500403Y4244603D03*
X122500403Y1239397D03*
X123114222Y2742000D03*
%TD*%
D17*
%TO.C,RV12*%
X107000000Y-2500000D03*
X107000000Y0D03*
X107000000Y2500000D03*
X109540000Y-2500000D03*
X109540000Y0D03*
X109540000Y2500000D03*
D18*
X100000000Y-4700000D03*
D12*
X100000000Y4700000D03*
%TD*%
D25*
%TO.C,FID2*%
X115037800Y-60248000D03*
%TD*%
D26*
%TO.C,LED2*%
X85000000Y-5270000D03*
D14*
X85000000Y-2730000D03*
%TD*%
D15*
%TO.C,MH7*%
X118881378Y-59258000D03*
X119495197Y-57755397D03*
X119495197Y-60760603D03*
X120997800Y-57141578D03*
D16*
X120997800Y-59258000D03*
D15*
X120997800Y-61374422D03*
X122500403Y-57755397D03*
X122500403Y-60760603D03*
X123114222Y-59258000D03*
%TD*%
D27*
%TO.C,ENC1*%
X59300000Y-1000000D03*
X70700000Y-1000000D03*
D28*
X62500000Y-8500000D03*
X67500000Y-8500000D03*
X65000000Y-8500000D03*
X62500000Y6000000D03*
X67500000Y6000000D03*
%TD*%
D29*
%TO.C,MH9*%
X115500000Y-2000000D03*
%TD*%
D11*
%TO.C,RV7*%
X32000000Y-52500000D03*
X32000000Y-50000000D03*
X32000000Y-47500000D03*
D12*
X25000000Y-54700000D03*
X25000000Y-45300000D03*
%TD*%
D25*
%TO.C,FID1*%
X-13987200Y26970000D03*
%TD*%
D20*
%TO.C,SW3*%
X34250000Y-39750000D03*
X40750000Y-39750000D03*
X34250000Y-35250000D03*
X40750000Y-35250000D03*
%TD*%
D11*
%TO.C,RV5*%
X107000000Y-27500000D03*
X107000000Y-25000000D03*
X107000000Y-22500000D03*
D12*
X100000000Y-29700000D03*
X100000000Y-20300000D03*
%TD*%
D15*
%TO.C,MH1*%
X26881378Y25742000D03*
X27495197Y27244603D03*
X27495197Y24239397D03*
X28997800Y27858422D03*
D16*
X28997800Y25742000D03*
D15*
X28997800Y23625578D03*
X30500403Y27244603D03*
X30500403Y24239397D03*
X31114222Y25742000D03*
%TD*%
D11*
%TO.C,RV8*%
X57000000Y-52500000D03*
X57000000Y-50000000D03*
X57000000Y-47500000D03*
D12*
X50000000Y-54700000D03*
X50000000Y-45300000D03*
%TD*%
D19*
%TO.C,J2*%
X-22860000Y10049000D03*
D11*
X-20320000Y10049000D03*
%TD*%
D30*
%TO.C,OLED1*%
X22250000Y-2250000D03*
X52800000Y-2250000D03*
D26*
X33690000Y26750000D03*
D14*
X36230000Y26750000D03*
X38770000Y26750000D03*
X41310000Y26750000D03*
%TD*%
D26*
%TO.C,LED1*%
X85000000Y2730000D03*
D14*
X85000000Y5270000D03*
%TD*%
D19*
%TO.C,J19*%
X105080000Y-10795000D03*
D11*
X102540000Y-10795000D03*
X100000000Y-10795000D03*
X97460000Y-10795000D03*
X94920000Y-10795000D03*
%TD*%
D20*
%TO.C,J4*%
X10716800Y21616000D03*
X22146800Y21616000D03*
D31*
X22146800Y18466000D03*
X10716800Y18466000D03*
X22146800Y24816000D03*
X10716800Y24816000D03*
X22146800Y12116000D03*
X10716800Y12116000D03*
%TD*%
D14*
%TO.C,H2_P21*%
X66427800Y8412000D03*
%TD*%
%TO.C,H1_P12*%
X33407800Y-1748000D03*
%TD*%
%TO.C,H3_P2*%
X79127800Y10952000D03*
%TD*%
%TO.C,H1_P13*%
X30867800Y-4288000D03*
%TD*%
%TO.C,H3_P4*%
X79127800Y8412000D03*
%TD*%
%TO.C,H1_P22*%
X33407800Y-14448000D03*
%TD*%
%TO.C,H3_P17*%
X76587800Y-9368000D03*
%TD*%
%TO.C,H3_P19*%
X76587800Y-11908000D03*
%TD*%
D32*
%TO.C,J13*%
X43567800Y-47468000D03*
D11*
X43567800Y-44928000D03*
X43567800Y-42388000D03*
%TD*%
D33*
%TO.C,J1*%
X-20082200Y17710060D03*
X-20082200Y23712080D03*
D34*
X-14781220Y20460880D03*
%TD*%
D14*
%TO.C,H6_P1*%
X28327800Y-19528000D03*
%TD*%
%TO.C,H3_P22*%
X79127800Y-14448000D03*
%TD*%
D20*
%TO.C,J7*%
X-6822200Y-48258000D03*
X-18252200Y-48258000D03*
D31*
X-18252200Y-45108000D03*
X-6822200Y-45108000D03*
X-18252200Y-51458000D03*
X-6822200Y-51458000D03*
X-18252200Y-38758000D03*
X-6822200Y-38758000D03*
%TD*%
D14*
%TO.C,H3_P15*%
X76587800Y-6828000D03*
%TD*%
D35*
%TO.C,J10*%
X112501800Y-22500000D03*
X112501800Y-15000000D03*
X112501800Y-7500000D03*
X110001800Y-20000000D03*
X110001800Y-10000000D03*
D36*
X122501800Y-10100000D03*
X122501800Y-12400000D03*
X122501800Y-17600000D03*
X122501800Y-19900000D03*
%TD*%
D14*
%TO.C,H3_P23*%
X76587800Y-16988000D03*
%TD*%
%TO.C,H3_P16*%
X79127800Y-6828000D03*
%TD*%
%TO.C,H1_P17*%
X30867800Y-9368000D03*
%TD*%
%TO.C,H3_P8*%
X79127800Y3332000D03*
%TD*%
%TO.C,H3_P14*%
X79127800Y-4288000D03*
%TD*%
%TO.C,H1_P23*%
X30867800Y-16988000D03*
%TD*%
%TO.C,H2_P23*%
X68967800Y8412000D03*
%TD*%
D19*
%TO.C,J14*%
X16526376Y-52762278D03*
D11*
X16526376Y-50222278D03*
X13986376Y-52762278D03*
X13986376Y-50222278D03*
X11446376Y-52762278D03*
X11446376Y-50222278D03*
%TD*%
D37*
%TO.C,TP2*%
X111252000Y5766000D03*
%TD*%
D14*
%TO.C,H3_P11*%
X76587800Y-1748000D03*
%TD*%
%TO.C,H2_P22*%
X66427800Y10952000D03*
%TD*%
%TO.C,H1_P18*%
X33407800Y-9368000D03*
%TD*%
D38*
%TO.C,H3_P1*%
X76587800Y10952000D03*
%TD*%
D14*
%TO.C,H3_P24*%
X79127800Y-16988000D03*
%TD*%
%TO.C,H2_P3*%
X43561000Y8382000D03*
%TD*%
D37*
%TO.C,TP1*%
X93257800Y5766000D03*
%TD*%
D14*
%TO.C,H1_P7*%
X30867800Y3332000D03*
%TD*%
%TO.C,H3_P5*%
X76587800Y5872000D03*
%TD*%
%TO.C,H3_P20*%
X79127800Y-11908000D03*
%TD*%
%TO.C,H3_P21*%
X76587800Y-14448000D03*
%TD*%
D20*
%TO.C,J6*%
X108717800Y21616000D03*
X120147800Y21616000D03*
D31*
X120147800Y18466000D03*
X108717800Y18466000D03*
X120147800Y24816000D03*
X108717800Y24816000D03*
X120147800Y12116000D03*
X108717800Y12116000D03*
%TD*%
D14*
%TO.C,H6_P2*%
X30867800Y-19528000D03*
%TD*%
%TO.C,H1_P21*%
X30867800Y-14448000D03*
%TD*%
D39*
%TO.C,J12*%
X28327800Y-57628000D03*
D11*
X30867800Y-57628000D03*
X33407800Y-57628000D03*
X35947800Y-57628000D03*
X38487800Y-57628000D03*
X41027800Y-57628000D03*
%TD*%
D14*
%TO.C,H1_P2*%
X33407800Y10952000D03*
%TD*%
%TO.C,H1_P19*%
X30867800Y-11908000D03*
%TD*%
%TO.C,H1_P9*%
X30867800Y792000D03*
%TD*%
%TO.C,H1_P11*%
X30867800Y-1748000D03*
%TD*%
%TO.C,H3_P3*%
X76587800Y8412000D03*
%TD*%
D37*
%TO.C,TP4*%
X69723000Y15113000D03*
%TD*%
D14*
%TO.C,H1_P10*%
X33407800Y792000D03*
%TD*%
D20*
%TO.C,J3*%
X-7283200Y21616000D03*
X4146800Y21616000D03*
D31*
X4146800Y18466000D03*
X-7283200Y18466000D03*
X4146800Y24816000D03*
X-7283200Y24816000D03*
X4146800Y12116000D03*
X-7283200Y12116000D03*
%TD*%
D14*
%TO.C,H1_P3*%
X30867800Y8412000D03*
%TD*%
D19*
%TO.C,J20*%
X87300000Y-56515000D03*
D11*
X89840000Y-56515000D03*
X92380000Y-56515000D03*
%TD*%
D14*
%TO.C,H2_P24*%
X68967800Y10952000D03*
%TD*%
%TO.C,H2_P2*%
X41021000Y10922000D03*
%TD*%
%TO.C,H3_P10*%
X79127800Y792000D03*
%TD*%
%TO.C,H1_P8*%
X33407800Y3332000D03*
%TD*%
D37*
%TO.C,TP3*%
X65786000Y15113000D03*
%TD*%
D14*
%TO.C,H3_P18*%
X79127800Y-9368000D03*
%TD*%
%TO.C,H3_P7*%
X76587800Y3332000D03*
%TD*%
%TO.C,H3_P12*%
X79127800Y-1748000D03*
%TD*%
D40*
%TO.C,C53*%
X3683000Y-38628000D03*
D20*
X3683000Y-33628000D03*
%TD*%
D14*
%TO.C,H1_P15*%
X30867800Y-6828000D03*
%TD*%
D35*
%TO.C,J11*%
X112501800Y-42500000D03*
X112501800Y-35000000D03*
X112501800Y-27500000D03*
X110001800Y-40000000D03*
X110001800Y-30000000D03*
D36*
X122501800Y-30100000D03*
X122501800Y-32400000D03*
X122501800Y-37600000D03*
X122501800Y-39900000D03*
%TD*%
D14*
%TO.C,H2_P4*%
X43561000Y10922000D03*
%TD*%
%TO.C,H3_P9*%
X76587800Y792000D03*
%TD*%
%TO.C,H1_P6*%
X33407800Y5872000D03*
%TD*%
%TO.C,H1_P20*%
X33407800Y-11908000D03*
%TD*%
%TO.C,H1_P4*%
X33407800Y8412000D03*
%TD*%
%TO.C,H1_P24*%
X33407800Y-16988000D03*
%TD*%
D20*
%TO.C,J5*%
X90717800Y21616000D03*
X102147800Y21616000D03*
D31*
X102147800Y18466000D03*
X90717800Y18466000D03*
X102147800Y24816000D03*
X90717800Y24816000D03*
X102147800Y12116000D03*
X90717800Y12116000D03*
%TD*%
D14*
%TO.C,H3_P6*%
X79127800Y5872000D03*
%TD*%
%TO.C,H3_P13*%
X76587800Y-4288000D03*
%TD*%
D38*
%TO.C,H1_P1*%
X30867800Y10952000D03*
%TD*%
%TO.C,H2_P1*%
X41021000Y8382000D03*
%TD*%
D14*
%TO.C,H1_P14*%
X33407800Y-4288000D03*
%TD*%
%TO.C,H1_P16*%
X33407800Y-6828000D03*
%TD*%
%TO.C,H1_P5*%
X30867800Y5872000D03*
%TD*%
M02*
